<?xml version="1.0" encoding="utf-8"?>
<!-- Generator: Adobe Illustrator 22.0.0, SVG Export Plug-In . SVG Version: 6.00 Build 0)  -->
<svg version="1.1" id="Слой_1" xmlns="http://www.w3.org/2000/svg" xmlns:xlink="http://www.w3.org/1999/xlink" x="0px" y="0px"
	 viewBox="0 0 3000 3000" style="enable-background:new 0 0 3000 3000;" xml:space="preserve">
<style type="text/css">
	.st0{fill:#67C6BF;}
</style>
<g>
	<path class="st0" d="M482.9,2614c-90.6-42.7-93.3-96.5-89.4-189.2c1.3-29.6,3-59.3,4.9-89c5.4-83.7,45.6-65.1,87.2-122.4
		c33.6-46.3,1.5-131.7-5-184.2c-8.1-65.8-33.4-134.6-53.5-198.7c-42.7-135.9-64.9-277.2-50.1-420.3c14.4-138.5,61.5-266.8,96.6-400
		c13.6-51.6,28.4-117.6,29.4-171.3c1.4-82.4-88-81.1-104.1-159.1c-11.6-56.6-24.7-187.2,0.2-241.3c42.4-92.1,191.2-62,273.6-55
		c51.9,4.4,60.1,19.3,94.8,54.3c43.6,44,67.7,50.2,128.1,40.8c63.5-10,121.7-19.5,182.9-37.7c124.7-36.9,255.3-66.1,385.3-68.7
		c158.8-3.1,289.8,34.7,442.1,68.6c66.9,14.9,126.8,27.1,194.5,35.1c30.4,3.6,59.8,14,90.2,4.6c55.1-16.9,61.4-79,116.7-94.6
		c56.1-15.9,164.7-19.9,221.3-9c118.3,22.8,92.7,145.6,89.6,234.9c-1.4,40.4,3.6,82.1-23.5,115c-38.5,46.8-83.5,38.5-80,110.1
		c2.9,60.8,17.6,136.4,34.3,194.7c40.9,143.4,79.2,288.2,78.9,438.7c-0.3,160.9-33.9,316.7-76.8,471.6
		c-12.2,44.1-12.8,67.9-11.6,106.3c0.6,18.2-1.4,32.8-4.1,51.4c-2.2,14.4-19.8,50.7-19.9,53.5c-2,32.2,20,53.4,43.2,74.7
		c50.7,46.7,57.8,63.3,61.2,132c3.4,69.2,29.6,173.2-31.2,223.7c-54.7,45.5-196,28.4-264.9,14.8c-78.8-15.6-75.5-104.4-164.7-99.2
		c-66.7,3.9-138.5,19.6-201,40c-126.8,41.4-267.9,69.7-400.7,76.4c-127,6.4-260.6-14.6-383-49.9c-79.1-22.7-154.6-41.4-236.2-52.7
		c-32.7-4.5-73.1-19.5-106.3-13.5c-64.4,11.8-59.8,69.6-108.2,96C669.2,2624.9,546.7,2614,482.9,2614z M475.4,1283
		c-6.7,141.7-27.9,273.1-0.2,416.1c34.9,180.1,118.8,354.9,240.1,494.9c52.4,60.6,149.7,175.8,229.4,187.2
		c40,5.7,66.1-36.6,97.7-68.9c39.2-39.9,55.5-55.6,58.2-111.1c2.6-55.3,14.2-111.2,30.3-163.9c12.9-42.2,29.8-82.4,49.9-121.7
		c23.5-46,88.5-107.5,97.4-153.2c9.9-50.5-26.8-58.7-68.3-28.3c-60.3,44-114.6,107-158.6,166.6c-54.8,74.1-89.1,157.5-107.1,247.7
		c-8.9,44.5,1.4,184.1-54.7,183.3c-36.4-0.6-115-98.3-137.3-124.1c-28.8-33.4-67.2-72.8-70.8-118.5c-7-85.6,79.3-195.9,129.2-256.5
		c80-97.2,186-167.1,302.3-213.3c24.1-9.6,38.9-7.9,35.7-25.1c-1.5-7.8-41.7-45-46.4-47c-30.2-13.1-89,8.2-120.7,17.1
		c-91.5,25.5-177.4,66.3-250.3,128c-48.7,41.2-85.9,89.8-127.1,137.9c-54.7,63.8-75.8,36.7-95-37.3
		c-14.1-54.3-22.1-109.7-25.8-165.5c-7.7-119,110.8-173.7,210.5-210.9c12.8-4.8,226.7-57.9,226.7-49.2
		c-42.9-50.9-100-130.7-169.9-121.7c-64.5,8.3-125.3,29.9-186.6,51c-176.7,60.6,22.9-208.7,19.8-263
		C552.8,1000.4,490.3,1252.8,475.4,1283z M2510.8,1708.3c-39.2,46.8-98.8,61.8-156.2,73.6c-9.1,1.9-85.7,10-86.1,17.4
		c46.6,54.4,105.4,117.6,161.5,160.9c115-135.4,131.1-371.9,120.6-553c-10.9-189.3-88.6-378.8-197.5-533.1
		c-44-62.4-96.1-118.2-153.5-169.2c-29.9-26.5-102.6-101.4-137-91.1c0,15.3,67,62.2,75.1,88.4c7.9,25.8,3.1,51,0.2,76.9
		c-6.5,57.1-19.7,114.2-42.1,167.4c-40.4,96.2-101.2,186-175.8,258.8c-32.3,31.6-93.3,59.8-118.2,94.9
		c-23.5,33.2,7.4,49.1,43.5,45.6c91.7-9.2,208.2-112.7,269.9-175c66.1-66.8,116.6-152.1,149-240.4c40.4-110,77.5-71.5,127.3,16.1
		c37.7,66.5,95,161.5,59.3,236.6c-49.7,104.4-181.5,192.5-281.8,238.4c-69.3,31.8-148.6,33.6-216.2,62.1c0,11.4,58,62.9,65.3,68.5
		c31.4,23.8,57.2,20.4,97.9,16.5c99.3-9.6,193.1-43.2,278.7-94.4c25.9-15.5,94.9-85.4,126.5-78.3c39.8,9,28.4,70,26.7,100.8
		C2543.9,1570.6,2528.1,1636.9,2510.8,1708.3z M763.9,763c38.5-66.1,156.9-135.7,228-160.2c72.2-25,142,32.7,195.8,77.1
		c77.5,64.1,142.9,140.5,188,231c17.6,35.4,32.1,72.6,44.7,110.1c5.2,15.4,9.5,60.2,19.1,70c13.6,14,69.2-42,76-62.9
		c5.3-16.3-1.2-51-3.2-68.2c-5.5-47.5-15.4-96.2-30.7-141.5c-24.6-72.4-62.9-140.7-111.2-199.9c-23-28.2-57.8-52.9-77.9-82.3
		c-21.5-31.5-8.5-33.5-11.9-66.5c-67.3,0-155.2,44.6-215.9,71.6c-68.9,30.6-134.8,70.3-195,115.4c-44,32.9-344.1,290.9-220,331.7
		c28.2,9.3,95.2-7.6,125.4-6.4c29.8,1.2,58.9,5.2,88.1,11.2c74.9,15.7,149.6,42,216,80.1c42.7,24.5,194.3,174.4,222.7,161.1
		c68.3-32.3-68.6-180.6-96.3-212.1c-70.3-79.9-153.1-135.8-251.7-175.8C912.1,829.5,763.9,814.2,763.9,763z M1604.8,1855.1
		c47.6,159.5,107.1,299.6,242.5,406.1c26.5,20.9,161,78.7,167.5,117.2c9.1,54.1-144.3,89.4-186.1,101.7
		c-43.7,12.9-94,29.2-137.7,10.5c-66-28.2-117.4-120.9-149.1-179.4c-33.6-62.1-58.6-127.7-72.9-196.7
		c-1.8-8.9-13.3-106.2-16.1-106.6c-53.2,30.3-108.9,91-106.3,151.1c1.1,26.6,6.9,53.5,12.4,79.5c7.1,33.5,16.7,65.9,28.9,98.4
		c17.4,46.1,67.7,104.4,72.8,149.5c8.6,76.4-104.9,39.3-153.1,29c-43.5-9.3-93.1-22.7-132.1-44.6c-23.2-13-34.9-23-47.8-46.3
		c-10.6-19.3-8.7-57.3-20.3-71.9c-9.7,2.5-42.1,40.3-48,49c-16.2,23.7-25.3,22.3-2.3,43.9c35.7,33.5,118.8,48.3,163,60.2
		c78,21,160.5,33.9,240.9,37.3c204.4,8.7,412.1-44.9,586.8-152.2c36.5-22.4,356.4-257.2,314-296.8c-12.9,0-70.1,75.8-83.6,88.7
		c-33.4,31.9-59,52.3-105.9,50.2c-62.5-2.9-128.9-34.4-183.4-63c-95.4-50.2-175-119.8-240.7-204.8c-29.4-37.9-51-79.5-76.3-119.8
		C1640.8,1795.6,1648.3,1820.4,1604.8,1855.1z M1649.4,455.2c-43.2,0-86.7-6.4-130.1-7c-20.2-0.3-141.5-9.4-155,9.6
		c36.3,16.3,114.9-3.2,156.5,0.6c71.8,6.7,107.1,41.2,137.8,107c3.7,8,78.7,256.9,62.9,258.2c35-38.9,74.8-73.3,110.3-111.8
		c30.6-33.1,26.3-33.7,23.9-72.6c-1.8-27.6-23.7-65.1-17.9-90.9c4.3-18.8,23.1-23.9,28.8-37.7c-18-19.9-90.2-28.3-117.3-34.7
		C1719.2,468.9,1677.1,468.7,1649.4,455.2z M2088.9,1791c-64.3-13-127.7-34.1-187.6-60.6c-26.2-11.6-79.3-56.3-105.5-55.4
		c-53.8,2-30.2,50-7.2,73.6c76,78.1,173,140.3,276,175.4c32.1,11,152.5,57.2,185.7,33.7C2251.5,1956.7,2098.4,1800.3,2088.9,1791z
		 M1695.9,1209.9c24.8-11.4,52.4-77.4,65.1-99.5c26.2-45.5,51.5-91,68.8-140.9c17.7-51.2,40.8-121.3,34.9-177.4
		c-14.7-3.7-100.8,95.3-115.1,110.9c-35.3,38.5-38,64.5-48.7,113.4c-6.5,30.2-15,60.6-25,89.8
		C1660,1152.5,1615.5,1209.9,1695.9,1209.9z M1190.6,1397.1c20.4-70.9-32-76.3-91.7-98.7c-20.6-7.7-161.7-70-188.4-48.5
		c47,36.2,85.6,101.7,137.7,125C1070.7,1385,1171,1410.2,1190.6,1397.1z M1359.5,1991.2c8.5-9.3,176.3-175.4,63-177.4
		C1391.2,1813.2,1344.6,1975.6,1359.5,1991.2z M508.6,2477.5C584.1,2538,508.6,2413.6,508.6,2477.5z M2468.1,2477.6
		c-0.2,4.4,0.1,8.8,0.8,13.2C2520.1,2501.8,2501.6,2413,2468.1,2477.6z M531,499.9c-11.1,5.6-30.8,18.2-22.8,31.8
		C513.4,540.7,573.6,499.9,531,499.9z M2499.2,530c4.8-13.3-15.7-39.1-30.6-32.7C2463,512.4,2486,530,2499.2,530z"/>
	<path class="st0" d="M367.1,1580.8C375.8,1580.1,362.8,1601.2,367.1,1580.8z"/>
</g>
</svg>
