<?xml version="1.0" encoding="utf-8"?>
<!-- Generator: Adobe Illustrator 22.0.0, SVG Export Plug-In . SVG Version: 6.00 Build 0)  -->
<svg version="1.1" id="Слой_1" xmlns="http://www.w3.org/2000/svg" xmlns:xlink="http://www.w3.org/1999/xlink" x="0px" y="0px"
	 viewBox="0 0 3000 3000" style="enable-background:new 0 0 3000 3000;" xml:space="preserve">
<style type="text/css">
	.st0{fill:#67C6BF;}
</style>
<g>
	<path class="st0" d="M2582,2794c-5.8,11.1-4.9,8.3-16.7,8.9c-7.9,0.4-15.5,1.2-23.7,1.2c-24.7,0-49.3,0-74,0
		c-43.8,0-87.6,0-131.4,0c-21.8,0-43.7,0-65.5,0c-17.3,0-48.5,6.7-59.6-8.1c-4.3-5.8-5.7-12.1-10.9-17c-5.8-5.5-13.7-9.6-21.4-11.6
		c-16.9-4.3-34.1,0.7-46.4,12.8c-5.5,5.4-6.8,13-11.5,18.3c-6.6,7.5-13.8,5.2-24,5.2c-24.7,0-49.4,0-74.1,0c-44.2,0-88.5,0-132.7,0
		c-91.1,0-182.2,0-273.3,0c-182.3,0-364.7,0-547,0c-23.5,0-46.9,0-70.4,0c-10.4,0-20.8,0-31.3,0c-8.5,0-31.7,4.5-39.1,0
		c-4.3-2.6-7.6-14.8-11.5-19.1c-5-5.6-11.4-10.5-18.6-12.9c-15.9-5.3-40.9-2.8-53.8,8.5c-6.1,5.4-5,16.3-10.5,21.3
		c-5.8,5.2-22.7,2.4-30.4,2.4c-23.1,0-46.1,0-69.2,0c-43.6,0-87.2,0-130.7,0c-45.6,0-91.2-0.1-136.8,0.1c-8.5,0-34.3,4.6-40.5-0.3
		c-10-7.9-2.9-37.7-4-47.7c-4.4-42.3,1.9-85.8-2.7-128c-4.3-39.2-0.2-81.1-0.2-120.6c0-66.6,2.3-133.1,0.1-197.7
		c-1.1-31.9-0.7-63.7-1-94.4c-0.2-26.1,2.1-54.7-0.1-80.8c-1.1-13.7-4.5-29.8-3.1-44.1c1.7-17-1.1-34.5,0.5-51.1
		c0.5-4.6,1.3-8.5,1.7-13.3c0.5-6.4,0.2-14.4-0.4-20.9c-1.4-13.6-2.4-27.6-3.7-41.3c-3.1-30.9,2.4-61.3-0.3-91.7
		c-1.2-13.3,1.9-27.2,1.9-40.7c0-24.2,1-48.6,0-72.8c-0.7-16.7-1.9-33.3-1.9-50.2c0-8-0.8-15.9-1.8-23.1c-1-7.4-0.3-16.6-0.4-25.3
		c-0.1-41.3-1.9-82.1-1.9-123.6c0-84.2,0.2-169.6,0-252.9c-0.1-31-6.8-61.5-4.1-93.1c1.2-14.3,3.7-29.6,4.1-44
		c0.4-15.3-3.8-30.1-3.8-45.6c0-44.3-0.1-88.6-0.2-132.9c-0.1-42,2.5-85-0.8-126.8c-2.3-30,2-60.3-1.2-89.9
		c-3.7-34-0.4-68.5,0-102.9c0.9-72.8-6.7-148.5-0.1-221.9c1.5-17.2,6.3-29.3,11.6-44.9c5.4-15.8,4.5-35.6,4.6-52.1
		c0.1-16.4-5.7-38.4,14-42c17.1-3.1,38,0.5,55.7,0.5c91.2,0,182.4,0,273.6,0c18,0,45.6-5.1,62.8,1c9.4,3.4,9.7,10.4,15.3,18.2
		c6.1,8.6,12.6,12,22.5,16.3c12.7,5.5,26.6,2.4,38.4-3.2c15.4-7.3,16.5-27.9,31.6-32.1c15.5-4.4,37.1-0.1,53.9-0.1
		c22.9,0,45.9,0,68.8,0c44.2,0,88.4,0,132.6,0c168.7,0,338.6-1.1,507.9,0c77.9,0.5,156.3,1.8,235,1.8c35.1,0,69.5,0,104.3,0
		c20.5,0,41.3,0.9,61.8,0c17.9-0.8,26.5-5.8,34.8,11.8c12.5,26.5,48,28.5,71.1,14.9c10.9-6.4,9.9-19.2,18.6-25.9
		c5.5-4.3,13.1-2.9,19.5-2.4c12.5,0.9,25,2.6,37.6,1.6c79.1-6.1,161.2,4.7,241.1-1.3c15.6-1.2,31-0.3,46.5,1
		c7.4,0.6,12.6-1.4,16.3,5.1c2.4,4.3,1.6,17.9,1.9,23.6c1.4,20.9,0,42.3,0,63.3c0,23.3,1.8,47.5,0,70.7c-2.5,31.3-1.7,62.9-1.8,94.6
		c-0.1,44.4-0.1,88.8-0.1,133.3c0,166.7-1.8,331.1-1.9,497.9c0,71.1,0.3,138.6,0,207.9c-0.1,32.5,1.7,64.7,1.9,97.1
		c0.1,18.5-1.6,37,0,55.1c1.2,14,3.3,30.5,2.2,44.3c-3,36.2,1.6,74-2.2,109.7c-2,18.9,1.9,38.1,1.9,57c0,21.6,0.1,43.2,0.1,64.8
		c0.2,89.4-0.1,178.7,0,268.1c0.1,85.8,2,170.9,2,256.9c0,44.7,0,89.3,0,134c0,10.2,0,20.4,0,30.6c0,8.7,2.5,18.3,2.2,26.5
		c-0.7,18.3-2.3,37.2-2.3,56c0.1,38.4,1.9,77.5,1.9,116.2c0,15.1-0.9,29.9-1.8,44.8C2587.1,2762.9,2582,2778.2,2582,2794z
		 M2551.7,2531.9c11.2-15.7,8.3-39,8.3-57c0-20.3,0.6-40-3-59.9c-2.4-13.6-2.9-29.5-13.5-38.4c-16-13.4-33.9-10.1-53.3-10.5
		c-10.1-0.2-21.1-0.7-29.8-6.7c-9.7-6.7-8.3-14-8.3-25.1c0-23.3,0-46.6,0-69.9c0-47.9,0-95.7,0-143.6c0-46.5,0-93.1,0-139.6
		c0-22,0-43.9,0-65.9c0-11.2-1.4-20,4.6-29.5c4.4-6.9,11.5-13.5,18.3-17.8c12.9-8.2,28.3-6.1,42.9-7.7c8.1-0.9,12.5-2.5,19.6-6.7
		c12.5-7.3,10.2-11.6,10.2-25.9c0-47,0-94,0-141c0-95.1,0-190.3,0-285.4c0-20.8,0-41.7,0-62.5c0-13,0-26.1,0-39.1c0-7.8,4-33,0-39.1
		c-8.4-12.7-36.3-14.3-49.2-14.3c-18,0-33.4-4.9-42.5-22.2c-17.8-33.7-10.1-80.9-10.1-117.6c0-36.2-3.2-73-0.1-108.3
		c1.6-17.7-0.7-35.6,0-53c1-24,0.1-48.3,0.1-72.3c0-36.2-0.5-72.2,4.5-107.9c2.1-15.3,7.8-30.3,23.6-33.8c16.9-3.8,34.6,0,51.4-3.8
		c11.1-2.5,28.3-10.6,32.4-21.2c3.4-8.7,0.3-14.6-0.1-23c-0.4-9.1,2.3-19.6,2.3-29c0-23.2-0.3-46.5-0.1-69.7
		c0.1-9.8,1.4-34.6-5-41.8c1.6,1.8-9.7-3.8-10-3.9c-3.6-1.9-7.5-4.5-10.4-7.4c-5.3-5.3-8.5-12.4-13.7-17.9
		c-10.4-11.3-23.1-20.9-34.1-31.3c-20.1-19-41.2-36.9-60.2-57.3c-11.2-12-22.6-23.9-33.4-36c-13.2-14.7-25.4-19.3-44.4-20.4
		c-36.7-2.2-75.1-0.5-111.3,1.2c-17.8,0.9-36.6-1.2-54.7-1.2c-14.9,0-29,2.1-43.8,1.6c-31.8-0.9-63.5,0.2-95.8,0.2
		c-20,0-40,0-60,0.1c-15.7,0.1-34-1.8-46.8,9c-27.7,23.1-7,66.5-40.9,86.4c-12,7.1-31.5,4.5-45.6,4.5c-23.7,0-47.4,0-71.1,0
		c-87.8,0.1-176.8,3.2-264.1,1.1c-59.4-1.4-121.2,1.2-181.3-0.3c-38.9-1-78.9,1.1-118.1,1.1c-21.3,0-42.7,0-64,0
		c-18.7,0-36.9,2.6-52.7-9.4c-28.3-21.6-10.9-62.9-38.4-82.5c-12.7-9.1-39.2-7.7-53.7-7.3c-16.5,0.5-33.4,1.3-50.3,1.3
		c-86.1-0.4-173,0.2-259.7,0.2c-20.3,0-43.1-3.1-63.1,0c-15.3,2.4-28.9,17.2-39.7,27.8c-19.9,19.6-36.5,38.7-55.9,59.3
		c-18.3,19.4-38.4,38.5-57.6,57.7c-20.4,20.5-37.7,33.6-40,64.2c-1.7,22.7,0.1,46.2,0,69c-0.1,17.8-0.2,36.8,3.9,54.1
		c7.9,33.2,42.1,27.5,68.7,28.2c34.9,0.8,42.7,33.3,45.2,63c3.8,43.7,0.1,89.5,0.1,133.4c0.1,82.6,0.3,165,0.1,246.7
		c-0.1,16.8,1.8,38.3-6.4,53.8c-9.4,17.7-27.5,22.1-45.9,22.8c-17.4,0.7-31.5,4.2-45.6,14.9c-7,5.3-11.8,8.5-13.3,17.6
		c-0.5,3.1,0.4,6.7,0.1,9.3c-0.6,5.5-4.2,10.1-5.7,15.9c-3,11.1-3,23.1-1.3,34.6c2.4,17.1,0.2,32.5,0.3,49.4
		c0.1,43.8,1.8,87.7,1.7,131.3c-0.1,78.4-3.8,157.1,2,235.1c2.3,31.1-9.2,73.1,20.6,93.6c12.7,8.7,30.4,13.2,45.6,14.4
		c16.9,1.3,31.2,4.1,41.6,18.8c20.4,28.9,7.9,75.8,10.3,108.9c2.6,35.5,1.9,71.5,2,107.4c0.1,45.7,0.1,91.4,0.1,137.1
		c0,19.6,0,39.3-0.1,58.9c0,16.9,2.2,44-8.2,57.8c-17.2,22.9-52,10.5-76,17.2c-41.3,11.4-31.8,63.3-31.8,96.7
		c0,38-5.3,71.9,24.8,99.1c27.2,24.7,51.4,52.1,78.3,76.9c22,20.2,41.3,43.3,63.8,63.2c31.7,28.1,80.5,17.9,120.3,17.9
		c75.8,0.1,150.9-1.8,226.2-1.9c23,0,46.1,0,69.1,0c18.7,0,39.2-0.3,50.3-18.1c7.7-12.4,6.4-27.9,9.2-41.5
		c3.5-16.7,15.6-32,32.8-36.9c16.4-4.6,36-1.7,52.9-1.7c23.7,0,47.5,0,71.2,0c39.7,0,79.9-1.8,120-1.8c166-0.1,333.2,0.5,497.9-2.3
		c13.6-0.2,32.2,2.6,42.6,12.3c18.3,17.1,9.4,37.4,17.6,57.3c14.8,35.9,58.8,28.3,90.6,28.5c66.1,0.2,134.5,0.8,201.3-1.5
		c30.2-1,61.7,1,92.3,1.5c16.9,0.3,39.7,1.4,56.2-1.7c7.4-1.4,15.9-6.1,21.9-10.5c6.3-4.6,7.2-9.6,11.5-14.8
		c11.1-5.5,14.4-14.4,22.2-22.4c3.1-3.2,10.7-7.1,14.8-11.1c4.5-4.4,9-8.8,13.4-13.3c5.1-5.2,7.5-13,12-17.6
		c-0.1,0.2,9.6-4.3,9.5-4.2c3.7-2.4,7.8-6.4,10.9-9.5c14.1-14,27.5-30.7,41.6-44.1C2534.2,2564.2,2556.6,2552.1,2551.7,2531.9z
		 M490.6,323.5c-11.1-6.7-21.4-11.3-33.5-2.9c-10.3,7.2-13.9,20.9-7.9,32.1c6.4,12,20.7,15.9,32.5,11.2
		C499.7,356.7,497.9,337.7,490.6,323.5z M1201.9,365c-5.3-16.8-29-16.5-29.8,2C1171.1,388.5,1201.9,385.4,1201.9,365z M1581.9,381.9
		c17.3-6.6,13.8-32.3-5.5-29.7C1555.9,354.9,1562.9,381.9,1581.9,381.9z M1383.3,429.7c6.5-6.3,12.9-14,6.9-23.2
		c-4.3-6.6-13.7-8.6-20.3-4.8C1350.8,412.8,1368.5,429.7,1383.3,429.7z M1537.5,404c6.2-7,10.5-11.8,5.8-21.1
		c-3.9-7.6-11-11.2-19.6-6.8c-6.6,3.4-10.2,11-8,17.9C1518.8,404.2,1528.8,404,1537.5,404z M1420.9,430c10,0,19.6-0.3,20.9-12.4
		c0.9-7.9-2.9-15.2-11.4-17.1c-6.1-1.4-13,1.8-16.1,7.1C1408.4,417.5,1414,423.4,1420.9,430z M1187.7,398.1
		c-12.5,3.4-24.2,18-9.4,28C1196.8,438.6,1212.7,409.1,1187.7,398.1z M1288,429.9c17.5-5.7,13.8-32-5.2-29.7
		C1261.5,402.8,1269.1,429.9,1288,429.9z M1674.1,2722.1c0,13.5,13.6,28.4,26,14.5C1715.4,2719.4,1685.4,2699.8,1674.1,2722.1z
		 M1735,408.1c-5.7-5.3-15-9.1-22.2-4.4c-7.5,4.9-8.4,17.6-1.9,23.8C1725.6,441.3,1739.5,422.2,1735,408.1z M1240.2,352.3
		c-18.3-2.4-26.2,24-7.8,29.6C1251.7,387.8,1258.5,359.6,1240.2,352.3z M1610.1,414.2c1.1,14.2,18.6,26.6,28.3,10
		C1649.5,405.5,1618.7,391.8,1610.1,414.2z M1318.1,372.7c6,6,12.2,12.3,21.4,7.8c8.4-4.2,10.8-14.5,5.7-22
		c-4.2-6.1-11.6-8.7-18.6-5.6C1317.6,356.9,1318.1,363.9,1318.1,372.7z M1612.1,361.7c0,8.1-0.4,14.1,7.7,18.1
		c8,3.9,16.5,1.7,20.5-6.7C1649,354.5,1621.9,343.7,1612.1,361.7z M1562.2,422.8c10.8,11.3,35.2,10.3,28.9-10.7
		c-2.3-7.5-9.4-10.8-16.5-10.1C1561.8,403.3,1562.2,412.6,1562.2,422.8z M1783.9,364.1c-6.8-18-33.5-13.1-29.7,6.7
		C1758.1,391,1783.9,382.3,1783.9,364.1z M1802.4,363.3c0,10.3,2.5,17.8,14.1,18.5c9.2,0.6,15.3-4.9,15.4-14
		C1832.1,349.9,1808.9,347.5,1802.4,363.3z M1490,383.8c-11.4-16.3-38.3-6.8-27.9,12.8C1472.8,416.6,1490,398.2,1490,383.8z
		 M1800,420.2c9.4,16.6,36.7,8.5,28.5-11c-2.7-6.3-9.6-10.3-16.5-8.9C1801.6,402.4,1800,411.3,1800,420.2z M1675.3,429.9
		c16.9-4,12.2-29.2-4-29.6c-6.8-0.2-13.1,4.8-15,11.3C1652.1,425.4,1665.1,429.9,1675.3,429.9z M1561.9,2671.7
		c-10.3-14.5-36.2-9.6-28.7,10.5c2.7,7.4,11.1,12.4,18.9,9.7C1562,2688.6,1561.9,2680.6,1561.9,2671.7z M1578.2,2721.7
		c0,8.7,0.5,15.6,9.7,18.9c8.6,3,18-1.7,20-10.9C1612.5,2708.9,1587.2,2708.6,1578.2,2721.7z M1626.2,2721.7
		c0,15.5,18.5,30,28.2,11.3C1664.8,2712.9,1637,2706,1626.2,2721.7z M1537.9,2739.1c13.2,3.9,33-5.4,21.6-21.5
		c-4.8-6.8-14.5-7.4-20.8-3.3C1527.9,2721.5,1532.2,2730.6,1537.9,2739.1z M1783.3,423.5c5.3-16.8-14.7-31.9-26.4-15.7
		C1744.5,424.9,1770.1,438.1,1783.3,423.5z M1733,376c3.1-9.7,2.8-18.9-8.8-22.5c-7-2.2-13.9,0.3-17.6,7.4
		C1697,379.4,1721.1,387.1,1733,376z M1325.9,400c-20.6,11.3-4,40.3,13.6,26.8C1354.7,415.2,1339.8,400,1325.9,400z M1597.4,2692
		c17.3-4.7,14.5-30.7-3.8-29.7C1573,2663.5,1576.9,2692,1597.4,2692z M1252,417c0-16.5-21-26.9-28.2-8.4
		C1216.3,428,1247,437.7,1252,417z M1646.1,2662.4c-21.9,0-24.6,31.6-2.8,29.6C1659.6,2690.4,1662.8,2666.8,1646.1,2662.4z
		 M1683.1,2691.8c9.7,0,18.5-1.1,20.7-11.8c1.7-8.5-3.6-15.9-12.3-17.4C1670.7,2658.9,1672.8,2682,1683.1,2691.8z M1799.9,2671.5
		c-8.7-11.1-30-13.6-29.7,5.6c0.2,8.8,6.7,15,15.3,14.6C1797.6,2691.2,1799.9,2682.2,1799.9,2671.5z M1492.9,2716
		c10.3,0,21.3-0.5,21-14.1c-0.2-7-4-12.8-10.9-14.8c-5.8-1.7-12.3,0.4-15.9,5.4C1480,2702,1486.3,2709.2,1492.9,2716z
		 M1790.6,2739.8c7.2-5.5,13.4-14.5,7.6-23c-4.1-6-13.3-8.4-19.6-5.3c-6.1,3-9.7,10.6-8.1,17.1
		C1773.2,2739.6,1781.4,2739.8,1790.6,2739.8z M1379.1,350c-9.4,3-15.1,5.5-14.9,16.4c0.1,7.6,4.6,15.2,13.7,15.1
		C1397.5,381.5,1397.3,354.2,1379.1,350z M2521.7,2772.9c9.4,4.5,18.3,7,24.5-3.6c3.4-5.8,2-14.6-3.6-18.7
		C2526.3,2738.3,2513.8,2758.5,2521.7,2772.9z M1128.7,397.5c11.5,13.8,34.4,4.7,27-13.3C1148,365.1,1122.9,378.7,1128.7,397.5z
		 M1685,359.4c-12.2-10.9-34.5-4.6-26.7,14.4C1666.3,393.5,1690.9,378.7,1685,359.4z M1828.3,2717.8c9.1,0,15,0.2,19.2-9
		c3.3-7.2,1.4-15-6-19.2c-6.1-3.5-15.1-1.9-19,3.7C1815.8,2702.7,1821.8,2711.2,1828.3,2717.8z M1724,2727.3
		c3,17.3,27.8,16.4,29.4-1.2C1755.3,2705.4,1724,2705.1,1724,2727.3z M1850,398.7c5.4,5.5,9.9,9.9,17.8,7.7c9.1-2.6,14-12,9.9-20.6
		c-2.8-5.8-9.4-9.7-15.6-8.8C1849.9,378.9,1850,388.7,1850,398.7z M2551.4,353.3c12.7-11.7,5.4-35-13.3-27.1
		C2519.4,334.1,2532.7,359.1,2551.4,353.3z M1749,2666c-17.5-13-36.4,14.1-18.2,24.3c5.8,3.2,13.5,2,18.3-2.7
		C1756.1,2680.8,1752.6,2673.4,1749,2666z M1277.4,381.9c6.8,0,14.8,0.7,19.1-5.8c5-7.5,1.6-18.9-6.8-22.2c-7.8-3.1-16-0.2-19.5,8
		C1266.5,370.4,1270.9,375.9,1277.4,381.9z M1444,364.6c-5.8-17.3-30.1-18.7-29.8,1.7c0.1,9.7,4.2,13.4,13.7,13.6
		C1438.7,380.1,1441,374.3,1444,364.6z"/>
	<path class="st0" d="M661.9,739.2c-9.5-10.5-7-25.3-15.9-37.3c-9.4-12.7-22.5-23.5-33.7-34.7c-9.7-9.7-21.3-26-34.1-31.5
		c-12.5-5.4-37.2,6.8-37.5-11.5c-0.4-29,39.3-55.2,57.6-73.6c13.2-13.3,26.5-26.5,39.7-39.8c10.8-10.8,24.3-30.7,39.1-35.6
		c16.2-5.3,39.9-1.2,57.1-1.2c20.8,0,41.7,0,62.5,0c39.1,0,78.1,0,117.2,0c17.9,0,36.9-2,54.7,0c12,1.3,9,3,12.8,13.4
		c2.8,7.6,7.2,14.2,12.3,20.4c9.9,12.1,22,22.6,33,33.7c11.2,11.3,22.5,25.2,38.7,29.2c16.2,4,35.7,1.1,52.3,1.1c19.3,0,38.7,0,58,0
		c39.7,0,79.5,0,119.2,0c76.7,0,153.3,0,230-0.1c72.5,0,145.1-1.8,217.8-1.8c37.6,0,75.3,0,112.9-0.1c18.3,0,36.7-0.1,55-0.1
		c13,0,26.3,1.2,36.5-6.2c14.3-10.4,26.6-26.4,39.1-39c12.2-12.2,26.9-22.9,30.7-40.6c1-4.8-0.3-10.6,3.7-13.9c3.7-3.2,21,0,26.7,0
		c20.3,0,40.6,0,60.9,0c38.1,0,76.3,0,114.4,0c19.1,0,38.2,0,57.4,0c14.9,0,35.7-4.4,47.7,5.6c25.3,21.2,46.5,49.4,69.9,72.7
		c9.1,9.1,20.1,15.5,28.5,25.4c6.5,7.7,30.1,28,29.7,37.9c-0.7,15.6-25.7,10-37.2,10c-12.3,0-14-0.6-22.8,7.1
		c-6.4,5.6-13,11.2-19.5,16.8c-11,9.5-21.6,17.9-26.2,32c-4.5,13.6-4.2,27.8-4.2,42.2c-0.1,145.7-0.1,290.7-0.1,436.1
		c0,29.2-3.6,61,1.6,89.8c5.8,32.4,27.2,49.6,49.6,72c9.1,9.1,21.4,24.5,34.6,27.9c18.6,4.9,35-7.8,40.4,18.1
		c3.7,17.8,0,40.3,0,58.6c0,19.5,0,39.1,0,58.6c0,74.3-2.1,148.1-2.1,222.1c0,8.8,0,17.6,0,26.3c0,12.7,0.4,14.7-8.7,23.1
		c-6.3,5.8-8.4,7.6-16.5,9c-6.8,1.2-11.2,1-17.6,4.8c-14,8.3-24.8,22.2-36.2,33.6c-11.8,11.8-28.8,24-36.9,38.8
		c-16,28.9-8,75.4-8,107.3c0,34.3-1.8,68.1-1.8,102.1c0,72,1.8,143.5,1.8,215.3c0,33.3,0.9,66.6,2,99.6c0.5,16.8,0.1,33.6,0.1,50.4
		c0,5.5-2.2,16.8,0,22.1c3.4,8.1,17.1,17.1,23.4,23.4c6.1,6.1,12.1,12.1,18.2,18.2c9.2,9.2,10.6,10.6,23.4,10.6c7.8,0,15.6,0,23.4,0
		c9.8,0,14.3,1.8,9,11.1c-3.6,6.2-11.7,10.4-16.3,16c-4.2,5.2-6,12.7-11.6,16.8c-3.3,2.4-7.7,2.3-11.8,5.6
		c-8.5,6.8-16.1,16.1-23.9,23.8c-12.4,12.4-24.8,24.7-37.1,37.2c-14.8,14.9-22.6,23.4-44.3,23.4c-38.4,0-76.9,0-115.3,0
		c-38.6,0-77.1,0-115.7,0c-10.3,0-20.6,0-30.8,0c-2.8,0-9.1,1.1-11.6,0c-5.7-2.5-2-0.4-5.1-5.2c-6.4-9.7-8-20.6-16.6-30.1
		c-21.6-23.7-45.8-56.1-79.2-58.8c-38.4-3-77.1-1.6-115.6-1.6c-73.6,0-146.3,1.8-219.8,1.8c-151.9,0.1-303.8,1.8-455.4,1.9
		c-17,0-35.1-1.7-52,0c-18.9,2-27.9,11.7-41.1,24.7c-13.5,13.4-28.5,26.4-40.8,40.9c-4,4.7-8.3,10.3-10.3,16.3
		c-2.5,7.6,0.9,12.7-6.5,16.1c-5.1,2.3-17.2,0-23,0c-10.2,0-20.4,0-30.5,0c-20.4,0-40.7,0-61.1,0.1c-33.7,0-66.7,1.8-100.2,1.8
		c-32,0-73.7,8.8-100.2-13.2c-28-23.4-52.7-52.4-78.5-78.2c-8.6-8.5-61.7-53.9-38.3-64.4c12.6-5.7,29.2,1.9,42.2-6
		c14.6-8.9,26.4-24.6,38.5-36.6c9.4-9.3,23.4-19.2,27.1-32c4.1-14.1,3.3-31.7,3.2-46.2c-0.2-38.7,0.1-77.4,0.1-116.1
		c0-78.5,0-157-0.1-235.5c-0.1-34.5-1.8-68.2-1.9-102.7c0-13.7,1.2-29.8-2.3-43.2c-3.9-15.2-16.1-26.9-26.7-37.5
		c-22.3-22.2-40-47.1-73.2-48.1c-7.9-0.2-12.5,0.9-15.7-7.5c-2.1-5.6-0.1-15.2-0.1-21.3c0-15.5-0.3-30.5-2-45.7
		c-1.8-15.3,0.6-31.6,0.1-47.1c-0.4-13.6-1.9-26.2-0.9-39.9c2.6-36.5,0.7-74.1,0.7-110.8c0-9.1-2-21.5,0-30.3
		c1.8-8.4,4.3-14.4,4.3-24c0-19.5,0-39.1,0-58.6c0-6.8-2.5-19.7,0-25.6c2.9-6.8,3-4.3,11.3-5.2c10.1-1.1,22.5-2.1,30.6-7.3
		c14.1-8.9,26.7-26.8,38.6-38.6c12-12,23.2-21.2,27.6-37.9c8.2-31.8,3-66.8,3.9-99.4c1.9-70.5,0-140.5,0-211.1
		C658.1,884.9,661.9,813.9,661.9,739.2z M748,1566.8c0,219.7,0,439.4,0,659.1c0,43.8-7.6,94.9,6.2,137.1
		c13.4,41.1,41.3,75.2,82.1,91.8c42.2,17.2,90.7,11.2,135.3,11.2c54.8,0,109.7,0,164.5,0c220.6,0,441.3,0,661.9,0
		c109.4,0,218.9,1.7,328.2,0c42.4-0.6,83.3-16.3,111.9-48.7c29.4-33.3,35.8-73.6,35.8-116.3c-0.5-437.7,0-875.4,0-1313.1
		c0-51.5,0.2-102.9,0-154.4c-0.1-44.5-7.1-85-38.3-119c-28.2-30.7-68.3-46.4-109.5-46.4c-53.1,0.1-106.1,0-159.2,0
		c-218.9,0-437.8,0-656.7,0c-109.5,0-218.9,0-328.4,0c-48.3,0-101.8-7.2-147.3,12.1c-39.6,16.8-69.8,52.6-81.1,93.7
		c-11.7,42.4-5.4,91.2-5.4,135c0,54.8,0,109.6,0,164.5c0,109.6,0,219.3,0,328.9C748,1457.1,748,1511.9,748,1566.8z"/>
	<path class="st0" d="M2178.1,1567.5c0,193.9,0,387.9,0,581.8c0,47.8,0,95.7,0,143.5c0,16.7,2.7,35.8-5,51.3
		c-9.6,19.3-28.1,25.6-48.4,25.9c-94.5,1.3-189.1,0-283.7,0c-194.8,0-389.7,0-584.5,0c-96.1,0-192.2,0-288.3,0
		c-23.3,0-46.6,0.2-69.8,0c-20.2-0.2-39.3-5.8-49.1-25.2c-8.7-17.3-5.2-40.5-5.2-59.3c0-24.7,0-49.5,0-74.2
		c0-388.2,0-776.4,0-1164.5c0-48.2,0-96.4,0-144.6c0-23.4,0-46.9,0-70.3c0-18.8-1.3-37.6,12.2-52.5c12-13.2,27.1-15.3,43.9-15.3
		c22.7,0,45.5,0,68.2,0c49.5,0,99,0,148.6,0c194.2,0,388.4,0,582.5,0c97.7,0,195.5,0,293.2,0c46.8,0,96.7-4.9,143.3,0.1
		c41.5,4.5,42.1,44.4,42.1,77.1c0,194,0,387.9,0,581.9C2178.1,1471.2,2178.1,1519.3,2178.1,1567.5z"/>
</g>
</svg>
