<?xml version="1.0" encoding="utf-8"?>
<!-- Generator: Adobe Illustrator 22.0.0, SVG Export Plug-In . SVG Version: 6.00 Build 0)  -->
<svg version="1.1" baseProfile="tiny" id="Слой_1"
	 xmlns="http://www.w3.org/2000/svg" xmlns:xlink="http://www.w3.org/1999/xlink" x="0px" y="0px" viewBox="0 0 3000 3000"
	 xml:space="preserve">
<g>
	<path fill="#68C6BF" d="M618.1,698.5c-27.5-62.4,0.8-151.3,1.6-216.4c0.7-51.7-10.5-115.3,0.3-166.2c13.6-64,147.8-89.3,196.6-42.3
		c62.7-36.4,174.8-17,258.9-19.5c151.2-4.5,303.1-4.1,454.8-4.1c169.8,0,339.6,0,509.4-0.1c38.5,0,187.2-11,192.7,31.6
		c8.5-32.1,128.8-30.1,149.7-4.9c20.9,25.2,15.8,123.4,17.6,157.7c12.7,254.8,0.2,513.3,0.3,768.4c0.1,262.9,0.1,525.8,0.1,788.7
		c0,133.3,0,266.7,0,400c0,59.3,0,118.5,0,177.8c0,45.1,17.1,150.9-2,192c-32.2,69.5-130.6,42.8-195.4,42.8
		c-124.1,0-248.7,2-372.6,1.8c-233.6-0.3-467.5-1.9-701.2-2c-104.7,0-209.2-1.7-313.9-1.7c-58.5,0-166.5,26.9-197.4-38.8
		c-19.1-40.6-7.9-116.8-9.4-160.2c-2.7-76.3,6.6-149.2,7.7-225.8C623.9,1817.9,618.1,1257.9,618.1,698.5z M2198.6,1716.6
		c112.7-115.3,148.4-330.2,145.3-485.2c-3-152.1-46.2-300.9-127.7-430.1c-167.5-265.4-487.3-421.2-799.6-384.6
		c-759.9,89.1-1014.3,1101.7-374.3,1525.4c68.3,45.2,140.5,79.9,218.7,104.3c73.5,22.9,73.8,25.8,143.8-10.7
		c85.9-44.8,173.3-106.7,237.6-179.1c57.4-64.6,109.1-130.2,178.3-182.5c20.5-15.5,135-122.4,149.5-106.3
		c0,59.4-86.9,154.7-123.7,212.3c-20.4,31.9-18.1,64.7-37.9,99c-38.5,66.6-125.9,110.2-148.6,190.2c146-44.5,272.7-85.1,393.5-187
		c19.9-16.8,54-42.8,68.6-68.3c7.4-12.9-10.3-30.6-3.7-39.6C2136.7,1749.6,2188.9,1753.1,2198.6,1716.6z M1190,2416.6
		c0-69.5-84.4-91.8-107-147.7c-9.6-23.8-7.5-95-1.1-117.3c6.9-24.1,62.3-56.3,18-86.9c-50.5-34.9-33.4,19.2-75.5-34.8
		c-21.9-28.1-39.1-74.6-71.5-88.2c-13.6-5.7-72.9-10.4-87.2-8c-39.2,6.5-43.2,22.2-49.4,67.9c-7.9,58.3,9.6,71.9-35.2,109
		c-31.1,25.8-77.1,25.5-51.6,72.4c16.1,29.5,58.2,28.8,72.5,62.6c17.7,42-1.9,127.6-1.8,171c0,74.6-29.5,180.5,25.6,225.7
		c31.4,25.8,48.6,7.6,68.1,22.2c43,32.1,36.1,61.4,105.4,67.5c66,5.8,129.1-7,195.8-7.9c105.4-1.4,211.4,6.5,313.6-9.1
		c-37-14.2,5.8-166.4-3.9-195.1c-21,4.3-48.7-4.7-71.3-2.2c-29.9,3.4-57.6,20.1-88.5,17.2c-33.5-3.2-84.9-27.4-110.2-47.5
		C1206,2464.6,1212.7,2445.2,1190,2416.6z M1643.9,2698.9c0-48.6-8.4-62.3,31-94.2c21.2-17.1,61.9-41.8,93.1-22.8
		c36.8,22.4-8.8,40.1,53,54.3c46.7,10.7,108.4-3.1,157.1-4c36.6-0.6,80.6-8.6,116.1-3.7c72.4,9.9,32.5,18.7,49.1,72.5
		c4.9,15.7,7.5,34.9,24.3,14.9c11.2-13.3-6.6-45.1-1.8-61.8c7-24.3,24.3-30.7,33.8-52.3c11.8-27.1,22.9-156.9,0.9-177.8
		c-26-24.6-67.4,10.5-73.9,11.8c-28,5.3-62.9,2.6-87,1.8c-4-0.1,2.8-19.8-17.1-19.5c-7.6,0.1-1.6,15.2-2.5,15.2
		c-30.6,1.2-66.1-4-107.3-4c-6.7,0-29.4-0.1-28.7,0c-16.2,0-21.5,2-29.1,1.4c-68.8-5.3-150.5-11.2-207.5,26.5
		c-49.2,32.6-125.3,90.3-86.9,154.7c13.1,21.9,40.4,22.6,50.2,44.7c7.6,17.1-4.1,39.7,2.1,57.2
		C1634.7,2774.4,1637.7,2702.5,1643.9,2698.9z M1029.7,406.7c-92.9,11.3-180,59.4-255.4,113.2c-51.6,36.8-91.4,88.9-96.9,154.7
		c-5.2,61.4,41,93.6,98.3,68.3c42.4-18.7,76.6-85.6,110.2-119.5c45-45.3,96.2-85.5,150-119.8c25-15.9,89.7-36.8,84.6-71.1
		C1114.5,391.9,1059,411.3,1029.7,406.7z M1241.9,2237.7c-5.8,0,13.7,52,13.4,51.5c16.2,27.1,47.1,46.5,78.7,48.6
		c46.2,3,89.9-28,102.1-72.7C1475.5,2121.5,1241.9,2090.8,1241.9,2237.7z M2243.5,360c-25,38,5.1,140.6,65.8,101
		c19-12.4,35.2-77.1,20.6-93.9C2316.2,351.3,2260.3,360,2243.5,360z M2332.6,2681.8c-67.6,33.6-48.7,143.8,27.9,88.9
		c16.3-11.7,47.5-57.3,31.4-79.8C2379.5,2673.5,2350.8,2688.7,2332.6,2681.8z M690.6,440.9c38.7,56,101.7,13.1,88-48
		c-6.8-30.3-20.6-49.7-63.6-32.9C675.2,375.7,682.4,392.2,690.6,440.9z M719.1,2778.1c23.4-50.4-44.4-143.5-92.7-93.4
		C589.2,2723.3,678.6,2813.2,719.1,2778.1z M850,1842.1c-4-38.6-49.4-63.8-79-29.6C715.6,1876.9,860.2,1922.3,850,1842.1z
		 M2327.7,1865.4c-28.1-67-120.3-9.3-77.6,41.2C2283,1945.3,2337.8,1910.8,2327.7,1865.4z M2337.6,1654.3
		c-68.3,37,5.4,121.2,50,89.6c9-6.4,10.1-79.2,4.5-85.9C2380.7,1644.6,2354.2,1651.3,2337.6,1654.3z M668.8,1648.4
		c-63.1-8.9-75.4,98.2-7.5,91.3C722.5,1733.5,715.2,1673.6,668.8,1648.4z M1753.6,1798.8c-32.3-11.9-64.4,32.7-30.4,52.1
		C1759.1,1871.4,1778.8,1824.8,1753.6,1798.8z M1657.9,1954.5c-11.8-33.2-59.2-21-49.8,11.5
		C1617.3,1998.2,1657.9,1983.3,1657.9,1954.5z M2274.1,1987.8c0,22.1,30.2,45,45.8,18.3C2338.7,1973.9,2283.8,1946.6,2274.1,1987.8z
		 M1508.2,2219.5c-23.5-21.2-58.6,16.1-33,38.6C1498.9,2278.8,1525.9,2242.8,1508.2,2219.5z M2210.4,1778.1
		c-49.2,18.4,19.9,51.9,20.3,34.3C2231.1,1794.4,2239.9,1778.1,2210.4,1778.1z"/>
	<path fill="#68C6BF" d="M1511.2,1540c-372.4,0-405.1-559.8-32.5-595.2C1876.1,907.1,1915.6,1507.1,1511.2,1540z M1505.7,1074
		c-246.2,21.7-190.1,384.6,38.2,332.7C1739.3,1362.1,1699.7,1074,1505.7,1074z M1487.9,1008c-42.1,0-48.4,63.1-8.6,59.8
		C1511.9,1065.1,1521.7,1022,1487.9,1008z M1682,1210.1c0,39.1,57.7,52,59.8,9.6C1743.7,1180.9,1696.5,1182.9,1682,1210.1z
		 M1639.9,1366.2c1.5,25.8,36,54.5,55.3,20.8C1717.2,1348.8,1659.3,1328.1,1639.9,1366.2z M1291.9,1297.9c33,0,52.4-33.9,20-54.8
		C1280.2,1222.7,1249.2,1280.6,1291.9,1297.9z M1379.7,1378.1c-33.8,3.7-39.1,47.5-4.5,56.5
		C1414.2,1444.6,1421.4,1375.6,1379.7,1378.1z M1560,1455.5c0-33.3-45.7-55.6-58-15.1C1491.4,1475.6,1545.9,1491.5,1560,1455.5z
		 M1334.1,1086.1c-31.3,13.8-22.9,66.8,13.1,57.8C1386.6,1134,1373.4,1085.3,1334.1,1086.1z M1623.6,1050c-22,12.8-30.2,46.8,0.2,58
		C1660.9,1121.5,1682.6,1050,1623.6,1050z"/>
	<path fill="#68C6BF" d="M950.5,2701.8c-69.2,2.2-45.5-107.8,15.8-87C1013,2630.6,999.3,2701.8,950.5,2701.8z"/>
	<path fill="#68C6BF" d="M965.9,2537.7c-12.9,28.1-63.8,28-59.8-10.2C910.7,2484.4,965.9,2498.3,965.9,2537.7z"/>
	<path fill="#68C6BF" d="M875.7,2379.8c-24.5-12.6-36.4-63,6.9-59.7C922.9,2323.3,917,2380.4,875.7,2379.8z"/>
	<path fill="#68C6BF" d="M1474,2669c-11.6,27.5-63.7,44.8-59.8-1.4C1417.7,2626.4,1463,2636.9,1474,2669z"/>
	<path fill="#68C6BF" d="M1136.2,2682.4c-2.3-33.7,50.2-50.9,58.8-14.1C1204.4,2708.5,1151.9,2718.5,1136.2,2682.4z"/>
	<path fill="#68C6BF" d="M1017.2,2058c36.9,12.8,24.1,67.5-12.9,58C965,2105.9,981.2,2058,1017.2,2058z"/>
	<path fill="#68C6BF" d="M983.7,2176.3c35.3,11.7,22,66.4-13.5,57.9C934.3,2225.5,942.2,2170.7,983.7,2176.3z"/>
	<path fill="#68C6BF" d="M776.1,2184c-69.8,0-3.2-57.2,3.7-42.2C786.9,2157.4,800.9,2171.1,776.1,2184z"/>
	<path fill="#68C6BF" d="M957.6,2008.7c3.9,16.3-8.6,35.3-28.4,28.9C906.2,2030.3,928.3,1976.3,957.6,2008.7z"/>
	<path fill="#68C6BF" d="M1642.5,2534.3c28.3,36.5,22,100.7-39.1,92.4C1524.3,2616,1559.5,2494.1,1642.5,2534.3z"/>
	<path fill="#68C6BF" d="M2129.2,2620.4c-63.8-39.1-26.2-110.1,29-98C2200.3,2531.7,2214.7,2638,2129.2,2620.4z"/>
	<path fill="#68C6BF" d="M2179.9,2437.3c-2.6,6.7-14.4,6.7-14.4-3.3C2168.7,2427.3,2177.6,2426.9,2179.9,2437.3z"/>
	<path fill="#68C6BF" d="M1637.3,2664.6C1642.1,2681.6,1633,2664.9,1637.3,2664.6z"/>
	<path fill="#68C6BF" d="M1344.8,2259.9c-21.6,0-40.4-21.5-18.9-39.3C1351.9,2199.1,1381.9,2250,1344.8,2259.9z"/>
	<path fill="#68C6BF" d="M2301,442.6c-27.7,13.8-53.6-11.5-31.4-39.2C2288.6,379.7,2306.7,427.5,2301,442.6z"/>
	<path fill="#68C6BF" d="M2333.4,2710.2c38.4-4.6,22.8,32.7,7.6,44.8C2327,2766,2302.6,2725.5,2333.4,2710.2z"/>
	<path fill="#68C6BF" d="M706.2,409.4c23.8-34,70.5,2.3,47.2,27.9C724.7,469,706.2,437.4,706.2,409.4z"/>
	<path fill="#68C6BF" d="M678.3,2710c41.1,9.6,18.1,58.3-10.5,43C641.5,2739,665.7,2718.2,678.3,2710z"/>
	<path fill="#68C6BF" d="M2370,1687.3c0,36.9-17.4,20.3-33.6,26.7C2322.6,1712.9,2333,1644.7,2370,1687.3z"/>
	<path fill="#68C6BF" d="M664.4,1717.7c-4.1-6.3-43-12.3-16.2-36.4C684.2,1648.9,700.4,1722.3,664.4,1717.7z"/>
	<path fill="#68C6BF" d="M1507,1354.1c-147,0-148.4-220.6-5.8-227.9c61.2-3.1,114.9,46.4,119.3,106.8c1.9,26-5.5,53.5-21,74.8
		C1592.2,1317.9,1507,1365.7,1507,1354.1z M1568.1,1241.1c10.4,0-28.9-54.6-40.5-58.7c-38.6-13.7-83.2,15.8-83.5,57.9
		C1443.8,1319.4,1568.1,1322.3,1568.1,1241.1z"/>
</g>
</svg>
