<?xml version="1.0" encoding="utf-8"?>
<!-- Generator: Adobe Illustrator 22.0.0, SVG Export Plug-In . SVG Version: 6.00 Build 0)  -->
<svg version="1.1" id="Слой_1" xmlns="http://www.w3.org/2000/svg" xmlns:xlink="http://www.w3.org/1999/xlink" x="0px" y="0px"
	 viewBox="0 0 3000 3000" style="enable-background:new 0 0 3000 3000;" xml:space="preserve">
<style type="text/css">
	.st0{fill:#68C6C0;}
</style>
<g>
	<path class="st0" d="M1321.7,2320.6c-7.4-28.6-35.8-39.5-54.2-61.8c-18.3-22.2-36.3-48.5-45.9-75.6c-12.7-36-15.4-118.3,9-151.1
		c26.3,0,12.1,49.5,13.3,69c2.5,41.7,13.7,87,36.4,122.7c24.3,38.1,73.8,91.5,120,96.4c45.8,4.8,96.6-23.3,133.5-47.1
		c0-4.4,0-8.3,0-12c-13.6-12.3-40.1-11.4-57-16.7c-28.7-8.9-55-25.3-78.8-43.3c-49.8-37.8-75.1-86.1-94.1-144.5
		c3-9.3,9.5-12,19.5-8.1c26.2,33.9,30,77.7,65.9,107.7c5.3-1.4,74,54.2,91.6,60.2c22.3,7.6,47.5,15.1,71.3,16
		c36.7,1.3,109.6-40,109.6-83.1c-1.7-1.7-3.6-3.5-5.2-5c-55.1,0-112.8,9.8-166.2-6.8c-36.8-11.4-114.9-52.8-118.7-98.1
		c19-19.6,24.4,1,39.9,13.5c20.1,16.2,43,27.5,67,36.8c44.7,17.3,89.8,18.6,137.5,16.4c37.1-1.7,79.1-7.5,101.6-39.4
		c14-19.8,53-96.9,28.7-118.3c-2.9,0-5.2,0-8,0c-36.5,41.5-97.1,64.2-150,71.8c-24.5,3.6-150.5,6.9-150.5-34.4
		c2.4-3,4.5-5.5,5.7-7.1c26.7-4.3,60.4,12.5,88.4,13.4c33.1,1,67-4.6,98.8-14.1c65-19.4,125.9-62.8,123-133.3
		c-0.9-22.6-1.7-80.1-38.4-56.9c-15.8,10-24.6,50.2-37.4,65.9c-46.9,57.3-136,96.3-208.3,77.5c0-7.1-0.2-13.7,0.1-20.2
		c2.1-1.9,3.8-3.4,5.5-4.9c55.8,0,101.8-20.7,144.6-56.1c19.1-15.8,38.5-31.4,53.5-50.8c15.4-20.1,20.3-53.6,38.3-70.2
		c0-58.3-31.7-108-75.2-144.9c-1.7,0-3.4,0-6.3,0c-8.3,8.1-9.1,28.4-6.1,39.6c-6.6,13.1,1.6,28.3-6.3,41.7c0.9,2.4,1.5,4.2,2.2,6.2
		c-4.1,5.1-5.5,10.8-4.2,17.2c-10.9,9.3-14.4,36-21,48.6c-11.1,21.3-25.2,41.9-42.3,58.8c-1.1,0.1-2.1,0.1-1.5,0.1
		c-24.8,11.8-40.8,39.6-65.7,52.1c-8.5-1.7-11.6-6.4-9.3-14.1c84.2-70.4,145-172.7,115.1-286.3c-26-15.7-74.4-88.4-107.1-48.3
		c0,38.6,28.9,76.9,30.2,118.8c1.3,43.3-19.3,78.2-22.6,118.9c-9.7,10-8.9,8.4-10.3,20.4c-1.5,1.1-3.3,2.5-5.3,3.9
		c-0.7,5.4-1.3,8.1-7.1,8.9c-4.7,8.4-9.2,15.5-14.5,23.5c-3.4,0.6-4.4,3.6-5.9,6.1c-1,0-2,0-3.2,0c-28.9-43.1,8.8-63,23.4-105.6
		c16-46.6,5.2-91.3,5.2-139.3c-25.8-28.8-23.7-110.5-82.3-107.2c-27.3-20-81.1-5.2-110.8-5.3c-2.5,3.7-6.9,3.2-10.5,4.2
		c-1.1,18.7,40.2,32.4,52.3,43.3c17.1,15.5,34.5,42.2,44.9,62.7c13.9,27.5,10.9,76.6,28.5,99c-8,16.7,11.9,77.9-10,86.1
		c-32.1-16.1-10.6-66.7-14.2-97.5c-2.8-24.6-14.8-48.2-27.2-69.5c-30.2-52.3-75.1-92.9-128.6-120.8c-33.6,21.4-76.7,6.2-102,45.8
		c11.3,32.9,42.5,20.4,66.8,34.9c1.6,2.1,2.8,3.7,3.6,4.8c46.9,9.6,92.3,59.9,117.7,98.2c11.5,17.2,41.5,72.4,22.1,90.6
		c-6.6-0.4-13,0.6-19-1.9c-6,3.2-10.5,2-13.3-3.6c0-84.3-94.9-144.7-162.2-172c-31.3-12.7-64.4-28.1-97.6-11.4
		c-31.6,15.9-84.2,73.7-84.2,108.3c1.4,1.4,3.2,3.3,4.2,4.4c23.6,0,47.7-14.1,71.8-15.9c37-2.7,79.3,6,113.4,19.8
		c26.4,10.7,113.8,53.6,101.2,88.9c-23.6,6.5-36-17.7-52.2-32c-20.7-18.3-43.9-28-68.3-40.9c-26.5,8-78.9-12.6-110.1-10
		c-38,3.1-84.2,9.2-105.6,43c-23.3,36.7-43.6,118.3,20.2,81.7c33.9-19.5,67.3-24,101.4-40.5c10.4,4.8,22.1-6,33.1-2
		c30-17.7,81.7,17.8,94.9,42.6c-5.6,3.3-21.5-5-26.7-4.9c-16.9-18.7-89.6-5-110.7-1.4c-42.4,7.2-82,31.2-115.2,58.4
		c-34.7,28.5-38.9,50.8-35.1,93.1c2.5,27.5,5.2,72.4,22.7,94.1c5.3-1.8,10.2-3.4,15.3-5.1c21.5-40.2,39.4-85.3,76-114.5
		c26.2-20.9,143.6-86.5,173.6-55.1c-0.8,8.9-2.9,17.6-6.3,26c-10.3,7.7-35.5,3.6-48.8,6.3c-20.1,4.2-41.5,11.8-60.2,19.7
		c-38.8,16.5-71.5,46.4-94.7,81.3c-26.5,40-46.6,78.2-25.7,123.4c11.8,25.5,42.3,79.9,73.7,56.6c0-21.6-7.1-74.5,11.9-88.3
		c-4.8-61.3,84.2-160.3,147.5-160.3c1.4,1.3,3.1,2.9,4.2,4.1c0,4.3,0,7.6,0,11.1c-68.6,45.2-117.4,117.7-139.3,197.6
		c-10.7,39-5.3,85.2,22.1,115.3c12.9,14.3,105.6,81,115.3,51.2c-29.8-38.1-31.6-113.8-29.1-159.9c2.7-49.1,13.1-113.5,53.1-147.7
		c7.5,1.4,11.8,6.4,16.2,11.8c-3.9,37.3-39,73.8-46.9,112.5c-9.6,47-3.5,92.7,13.8,136.6c15.9,40.3,28.8,64.5,70.5,80.4
		C1255.1,2334.9,1306,2349.7,1321.7,2320.6z"/>
	<path class="st0" d="M1188.9,566.8c-40.9-27-98-48.8-147.5-48.8c-33.7,31.5-99.2,61.7-99.2,115.1c2,1.8,3.9,3.5,5.9,5.3
		c27.9-9.2,97.2-32.7,125.7-12.5c32.8-3.2,182,64.7,158.2,105.2c-25.5,5.7-35.2-19.5-53.7-34.3c-24.8-19.9-52.9-33.5-83.4-41.8
		c-51.8-14-105.9-11.1-155.9,6.5c-41.5,14.6-52.7,44.7-61.8,86.7c-5.1,23.8-13.8,41.9,23.8,35.4c21.7-3.7,51-32.9,76.4-40.1
		c15.9-4.5,36.3-5.6,50.5-13.3c22.9,7.9,55.2-9.6,80.7,4.9c9.1,5.2,32.7,29.5,37.9,37.6c-7.3,4.2-30-7.1-37.1-7.1
		c-5.6-5.8-23.9-4.1-31.2-5.7c-25.7,15.3-69,4-99.5,14.6c-33,11.5-68.6,34.8-94.3,58.6c-25.7,23.8-29,42.3-26.3,76.2
		c1.5,19.6,5.6,97.9,24.5,102.7c3.9-3,8.7-4.1,13.9-4.5c26.7-59.1,55.3-107.7,113.8-138.1c26.2-13.6,59-29.4,88.1-34.6
		c4.8-0.9,41.5-4.9,44.5-0.7c7.7,10.8-4.3,13.8-2.7,28.7c-1.3,1.2-2.3,2.1-3.5,3.1c-103.9,0-183,61-226,152.7
		c-16,34.1-10.3,59.4,9.4,92.3c15.1,25.2,33.9,55.5,64.2,39.8c0-11.7,5.5-38.2,0.2-49c3.9-11.7-1.8-31.7,11.8-39.5
		c0-63.1,81.2-160.2,147.1-160.2c1.6,1.7,3.2,3.4,4.6,4.8c0,3.7,0,7,0,9.8c-13.8,16.7-37.9,25.6-53.1,41.2
		c-12.3,12.7-31.5,61.7-47.9,66.5c-14.8,28.6-30,59.8-37.8,91.2c-7.1,28.7,2.6,49.5-1.1,76.2c25.6,42.3,77.2,97.9,133.4,97.9
		c1-1.1,1.9-2.1,2.8-3.1c0.9-5.4-0.3-10.3-3.9-14.7c0.7-1.5,1.2-2.6,1.7-3.7c-20.1-63.8-31.5-113.1-21.9-180.9
		c5.6-39.4,18.1-85.7,49.3-113.2c35.8,0,2.1,44.6-4.4,57.7c-19.6,39.2-28.2,74.5-29,117.8c-1.5,78.4,36.4,163,121.1,174.4
		c26.7,3.6,72.6,6.1,51.2-33.5c-6.9-12.8-28.4-21.1-39-32c-12.7-13.1-23.5-29.8-33.1-45.3c-24.1-38.9-32.2-77.2-27.9-123.2
		c0.8-9,15-98.4,34.4-59.4c-33.1,37,15.9,158,35.8,187.8c23.9,35.8,99.1,120.9,147.8,87.5c29.1,5.6,80.2-27.7,102-43.8
		c0-3.7,0.3-7.6-0.2-11.5c-55.5-25.8-104.3-28.3-153.1-73.6c-32.3-29.9-76.6-87.4-76.6-134.8c1.3-1.4,3.1-3.3,4-4.3
		c5.9,0,10.2,0,14.8,0c26.1,33,30.9,79.6,66.5,107.8c5.9-1,44.2,37.7,51.8,42.3c22.7,13.7,47.7,21,73.4,27
		c39.9,9.2,58.1,13.5,91.5-12.2c12.5-9.6,37-23.4,45.6-37.5c21-34.6-5-32.1-34.7-31.2c-33.6,1-68.6,5.1-102.2-0.2
		c-46.1-7.3-88.7-33.5-119.6-67.9c-10.3-11.5-41.5-50.6-2-45.9c8.5,1,35.2,34.6,46.8,41.3c47.6,27.6,98.8,35.7,153.2,34.3
		c38.1-1,92.5,1.2,120.7-31.1c20.4-23.4,49.4-97,35.2-124.5c-2.4-1-4.5-1.9-6.5-2.7c-49.2,23.9-79.1,58.8-136.3,69.4
		c-31.4,5.8-168,15.2-168-32.4c2.5-2.4,4.9-4.6,7-6.5c28.3,0.3,56,12.3,84.5,13.8c27.6,1.4,51.7-7.9,78.2-8
		c17-15,57.7-18.3,79.2-31.9c36-22.8,55.4-43.7,68.7-82.2c-15-27.1,7.6-62.4-18.6-87.5c-5.3,0-9.9,0-15.1,0
		c-35.8,38.9-43.5,77.6-90.3,109.1c-41.9,28.2-112,67.1-163.6,39.3c0.6-34,20.8-22.2,46.3-26.8c30.7-5.7,59.1-19.7,84.4-37.4
		c21.8-15.2,50.5-36.5,67.4-56.8c17.3-20.7,24.2-63.2,43.9-79c0-23.4-42.4-173.5-84.3-142.2c0,9.4-0.5,36.1-5.9,43
		c1.4,12.3,2.9,22.6-1.7,34.4c0.7,2.3,1.3,4.1,1.9,5.7c-16.4,33.1-22.7,66.3-45.1,97.8c-11.9,16.7-83.3,90.9-99,73.2
		c-0.2-2.7,0-5.4,0.4-8c62.3-58.5,110.3-108.7,118.1-198.5c3.4-39.1,5.8-76.1-20.5-105.4c-17.5-19.5-80.9-68-90.3-21.1
		c5.4,7.5,8.1,13,8.8,23.8c12.5,11.4,7.4,32.3,17.8,44.5c-2.1,8.4,2.4,16.2,1.8,24.5c20.3,29.1-11.5,142.4-35.8,158.9
		c-0.2,1.9-0.4,3.9-0.6,5.6c-2.9,2.7-2.9,2.7-6.7,3.7c-3.9,11.1-6.3,14.5-21.2,29.5c-0.9-0.2-1.8-0.4-3.3-0.7
		c-17.3-32.4-13.3-34.4,4.6-65.2c8.6-14.8,14.2-40.2,25-51.7c0-31.2-2.5-73.3,1.9-103c-6.5-9.3-8.9-41.2-13.9-52.7
		c-12.5-28.8-22.9-50.8-45-73c-20.5,4.2-63.8-14.6-87.1-15c-21.7-0.4-38.3,2-57.9,8.1c-1.5,15.6,46.6,40.9,57.7,52.6
		c13.3,14.1,27,31.6,36,48.9c14.8,28.5,12.4,80.3,30.4,103.3c-7.2,15.3-4.1,64.9-4.1,81c-30.5,30.5-21.1-64.1-21.1-66
		c-0.3-33.2-7.2-59.9-22.5-89.5c-30.2-58.6-80.8-88.9-132-127.3c-28.8,17.6-86.8,7.3-102.2,46.1c1.8,5.1,3.3,9.7,4.9,14.4
		c15.6,8.6,43.2,20.2,62,20c16.1,15.1,43.5,22.5,61.5,37.3c21.9,18,44.2,42.5,60.1,66.2c12.2,18.1,31.4,47.7,25.4,70.8
		c-6.2,23.7,1.9,19.3-33.2,19.3c-0.9-0.9-2.1-2-3.1-2.9C1293.3,659.8,1226.1,591.3,1188.9,566.8z"/>
	<path class="st0" d="M1496,2642.1c-10.8,1.3-44.8-2.5-54.2-8c-39.3,6.4-58.8-11.7-99.6,6.1c-18.6,8.1-112.9,41.3-105.3,69.4h5.9
		c16.7-22,106.8-28.5,134.7-37.4c17.3,4.1,35.7,6.3,54.4,7.6c17.5-0.4,35.1,0.4,52.5,1.9c1.3,0.1,2.7,0.2,4,0.4
		c16.5,0.5,32.9,1,48.6,2.4c57.9,4.9,120.2,15.7,178.1,13.9c11,9.1,47.1,5.5,59.6,5.5c3-2.9,3-2.9,3.2-7.1
		c-51.1-20.5-99.6-27.1-153.3-35C1592.4,2657.1,1522.6,2660.3,1496,2642.1z"/>
	<path class="st0" d="M1565.9,2392.1c-6.3,0.2-11.1,2.4-16.1,5.4C1552.8,2404,1563.9,2394.8,1565.9,2392.1z"/>
	<path class="st0" d="M1579.1,2386.3C1581,2387.5,1588,2387,1579.1,2386.3L1579.1,2386.3z"/>
	<polygon class="st0" points="1575.4,2388.9 1574.7,2388.8 1575,2389.5 	"/>
	<path class="st0" d="M1514.8,2414.1c-0.1,0.2-0.2,0.3-0.2,0.5c0.2-0.2,0.4-0.4,0.5-0.6C1515,2414,1514.9,2414,1514.8,2414.1z"/>
	<path class="st0" d="M2174.1,2777.4l-96.1-12.3c2.5-1.3,4.5-2.3,6.7-3.4l62.3,2.9l2.6-8.1l-190.1-18v-148.6l-75.6,0.7
		c0-51.9-1.8-103.5-1.8-155.5c0.5-0.6,1-1.1,1.5-1.7h64.5c0.4,0.2,0.8,0.5,1.2,0.7c0.5-0.2,0.9-0.5,1.3-0.7c0.5,0,0.8-0.2,1-0.5
		c1.4-0.7,2.6-1.4,3.8-2c0.9-13.4,0.6-65.1-0.4-74.5c-1-0.4-2.2-0.6-3.7-0.8c-0.2-0.2-0.5-0.3-0.9-0.3c-18.5-0.2-37-0.4-55.5-0.6
		c-0.2,0-0.3,0-0.4,0.1c-0.6-0.1-1.1-0.3-1.6-0.5v-23.8c24.9-1.1,49.7-1.4,74.6-1c0.2,0,0.3,0,0.5,0c8.1,0.3,16.1-0.1,24.2-0.3
		c0.3-0.2,0.6-0.4,0.9-0.6c-0.2-34.7-0.9-69.4-1-104.2c0-0.3,0-0.5,0.1-0.7c-0.4-1.3-1.5-2.3-3.2-2.3h-41.6
		c-0.6-0.2-1.1-0.4-1.6-0.7c-0.2-3.4-0.3-6.8-0.3-10.3c0.6-0.3,1.2-0.5,1.8-0.6h10.7c0.2,0.1,0.3,0.3,0.4,0.4
		c9.5-0.3,19.1,0,28.6,0.8c1.8,0.2,3.6-0.6,5-1.8c0.1-2.7,0.1-5.3-0.1-8c-0.3-2.4-0.2-4.8,0.2-7c0.9-24.5,0.9-49,0-73.5
		c0-0.5-0.1-0.9-0.2-1.4c0-15.8,0-31.6,0-47.5c-0.1-57.1-0.3-114.3-0.6-171.4c-0.2-0.5-0.4-1-0.6-1.4l0-2.4c0.2-0.3,0.4-0.6,0.5-1
		c-0.1-25.3-0.3-50.5-0.4-75.8c-0.5-83.6-0.9-167.2-0.9-250.8c-1.5-1.3-3.5-1.9-5.5-1.9c-0.2-0.2-0.3-0.3-0.5-0.5
		c-6.8,0.3-13.8,1.2-20.3,1.4c-15.9,0.4-32-0.7-48-0.7c-0.2,0-0.4,0-0.5,0c-2.3,1.3-6,0.3-6-3.2c0-4.5,0.1-8.9,1.1-13.3
		c0-0.7,0-1.4,0.1-2.1c0.3-0.3,0.5-0.5,0.8-0.7c0.4-0.6,0.9-1,1.4-1.3c0.4-0.4,0.8-0.7,1.2-1.1c2.2,0.2,4.4,0.4,6.5,0.6
		c3.8-0.1,7.7-0.3,11.5-0.5c10.9,0.1,21.7,0.6,32.5,1.5c2.6,0.2,3.7-2,3.3-4c0.2-0.5,0.4-1,0.4-1.6c0-11.6-0.2-23.2-0.4-34.7
		c-0.3-0.5-0.5-1.2-0.5-1.9v-20.2c-0.1-2.4-0.1-4.7-0.2-7.1c0.1,0.5,0.1,0.9,0.2,1.4v-20.4c-0.3-2.2-0.7-4.3-1.1-6.4
		c-0.3-6.8-0.6-13.7-0.9-20.5c-0.1-2-1.5-3.1-3.1-3.3c-0.8-0.5-1.7-0.8-2.6-0.7c-0.3-0.1-0.6-0.2-1-0.2c-4.9-0.1-9.8-0.2-14.7-0.3
		c-0.3-0.1-0.6-0.3-0.9-0.4c-3.5,0-7.1,0.1-10.6,0.1c-5-0.1-10-0.2-15-0.3c-2.1,0-3.2,1.5-3.4,3.1c-0.5,0.3-0.9,0.7-1.4,1
		c0.1,7.1,0.3,14.3,0.5,21.4c-0.1,9.8-0.5,19.6-0.9,29.4c-1.3,1.4-3.6,1.5-5.2,0.6c-10.8-0.6-21.6-1-32.4,0c0,0.1,0,0.1,0,0.2
		c-1.8,0.1-3.8,0.5-5.8,1.3c-0.1-2.7,0-7.2,0.2-13.1c0.3,0.3,0.5,0.6,0.8,0.8c0.9-1,1.7-2,2.5-3c-2.1-39-3-78.1-3-117.2
		c0-30.8,0.5-61.6,1.1-92.4c-1.8-26.3-2.7-55.3,1.6-71.3c0.3-14.3,0.7-28.5,0.9-42.8c0.6-33.8,1.4-67.6,0.5-101.4
		c-0.7-26.1-1.7-52.4,1.9-78.3c-0.3-24.6-0.6-49.2-0.7-73.7c0-6.8,0-13.6,0-20.3c0.2-0.2,0.4-0.3,0.6-0.4
		c-2.3-160.6-2.7-320.2-5.6-480.6c-0.6-31.6,8.1-75.3-1.3-104.7c-13.5-42.5-63.1-31.4-98.6-31.4c-58.6-0.1-117.8-2.3-176.3-0.5
		c-24.5,0.7-55.4,7.6-79.7,0.8c-15.1,8.2-48.8-9.7-63.3-14.6c-6.7,10.4-26.6,13.2-37.9,14.1c-16.1,1.3-88-16-95.8-29.5h-25.1
		c-21.9,17.9-69.2,18.5-94.6,30.2c-9.1-4.8-19.7,1.2-28.2-3.4c-2-8.6-14.9-18.1-22.4-9.1c-17.5-3.3-51.4,8.7-63.6,10.3l-91-0.3
		l-143-2l-116.6,9.1c0,52.1-0.7,1953.3-0.7,1953.3l90.7-0.2v19.2c0,0-66-1.4-94.5-1.4c0,0.8-0.5,131.9-0.5,131.9l90.3,0.3h4
		c1.7,1.8,3.2,3.4,4.8,5.1v11.4c-1.4,1.6-3,3.3-4.4,4.8l-94.2,0.2c-0.3,0.2,0.3,58.3,0.3,58.3l96.5,0.8l0.2,13.6l-96.9,0.8
		l0.8,134.6l90.8,0.2l1.2,24.4l-90-0.8l2.1,128.8l102.7-0.4l1.4,31.4l206-0.8l4.8,134.9h5.4l0-108.3l18.8-5.1h33.2
		c1.6,2.2,2.9,4.1,4,5.6h6.2c0.7-1.3,1.6-2.5,2.7-3.5h19.1c1,1.4,1.7,2.4,2.5,3.6c65,0,404.4-3.2,404.4-3.2l1.5,33.3h48l-0.7-33.1
		l13,0.2l1.7,38.7l14.2,6.1h202.7l0.4-43.8l22.7-0.4l1.1,33.5l46.6,0l-0.8-34.3c0,0,27.1-3.2,35.9-2.9c33,0.9,66.4,0.1,99.3-0.9
		c24.3-0.7,49.3-1.8,73.7-3.4c18.1-1.1,76.7-5,76.7-5L2174.1,2777.4z M1926.2,2363.7c0.7-1.8,2.1-3.2,3.9-4.1
		c5.9-0.1,11.7-0.2,17.6-0.4c0.9,0.9,1.6,2.1,2.3,3.3c0.1,21.5,0.1,43-0.1,64.6c-0.3,0.3-0.5,0.6-0.8,0.9h-19.5
		c-1-0.9-2.2-1.9-3.4-3V2363.7z M1946.3,2228.5h34.7c0.8,0.7,1.8,1.5,2.9,2.5v83c-13.2-0.4-26.5-0.5-39.7-0.5v-82.8
		C1944.8,2230,1945.6,2229.2,1946.3,2228.5z M1940,2057.7v-475.8c0.2-0.3,0.4-0.7,0.6-1h34.3c0.6,0.9,1.2,1.8,1.7,2.7l-1.2,234.7
		l-1.2,242.1c-0.2,33.5-0.3,66.9-0.5,100.4c-0.3,0.9-0.5,1.8-0.5,2.8v30.7c-10.7-0.2-21.3-0.4-32-0.7c0-7.4,0.3-14.7,0.8-22.1
		c0.1-1.4-0.3-2.7-1-3.9c-0.3-24.8-0.6-49.6-0.9-74.5c-0.1-8.2-0.2-16.4-0.3-24.7C1939.8,2064.8,1940,2061.2,1940,2057.7z
		 M1919.9,1435.1c0.4-0.5,0.8-1,1.3-1.4c4.5,0.1,8.9,0.2,13.4,0.3c0.6-0.5,1.4-0.9,2.5-0.9c7.1,0,14-0.4,21,0.8
		c3.4,0.6,3.5,4.4,1.5,6.4v64.9c0.4,9.5,0.8,18.9,1.2,28.4c-0.9,2.1-1.9,4.2-2.9,6.1h-3.5c-10.1-0.6-20.2-0.9-30.2-0.8
		c-1.2-1.1-2.6-2.5-4.1-4c0-18.2-0.5-36.4-1-54.6C1919.6,1465.2,1920,1450.2,1919.9,1435.1z M743.4,2206.5l-0.4-20.3h33.7l0.8,20.3
		H743.4z M781.7,2437.9h-39.1c-0.8-0.8-1.7-1.7-2.5-2.6v-37.9c0.7-0.8,1.7-2,2.8-3.2h35.8c1.5,1.4,3.4,3.1,5.4,5
		c0,11.7,1.8,22.9,1.8,34.6C784.7,2434.9,783.1,2436.5,781.7,2437.9z M781.9,2645.5l-41.7-0.4v-21.2h41.7V2645.5z M1856.3,2421.8
		c-16.8,26.5-58.6-6.6-29.2-33.4C1846.7,2384.7,1870.7,2399.1,1856.3,2421.8z M1782.2,289.6c14.6-28.5,59.3-12.9,43.1,16.2
		C1812.3,329.3,1778.6,314.3,1782.2,289.6z M1500.5,2428.9c-15.3,10.7-27.5,13-47,18.8c-7.8-3.5,14-25.5,12.6-32.1
		c18.9-22.1,14.2-29.2,42.6-41.5c21.3-9.2,44-16.3,65.5-25.3c16.9-7,123.6-68.4,131.4-61.9c-10.7,44.6-27.6,58.2-68.5,75.7
		c-12.2,5.2-40.3,12.9-50.6,22.1c27.1,7.8,98.1-34.2,122.9-45.8c27.1-12.6,63.3-47.3,91.2-48.8c11.3,9.8-6.9,51.9-8.5,63.7
		c-8.8,64.7-78.7,87.2-133.2,110.8c-23.4,10.1-183.6,76.7-194.7,56.1c10-36.9,33.9-71.8,50.3-106.1
		C1509.6,2419.9,1505.2,2425.6,1500.5,2428.9z M1162.3,2327.2c-281.6-89.8-402.4-435.8-250.2-684.1
		c128.7-210.1,409.2-286.2,624.7-164.7c64,36.1,119,86.5,160,147.5c20.5,30.5,37.2,63.4,49.8,97.9c7.9,21.6,9.6,68.8,23.1,85.5
		c-4.3,41.9,6.9,86.5,2.3,129.8c-7.1,66.9-30.1,132.3-64.9,189.7c-36.4,60.1-87.1,111.1-146.3,148.8c-29.1,18.5-59.6,33.6-91.9,45.4
		c-21.1,7.6-69.4,9.4-86.6,22.9c-22.2-1.9-49.5,4.1-72.1,4.1v0.1c-25.7,0-59.6-8.9-84.7-6.2
		C1215.2,2334.3,1174.6,2331.1,1162.3,2327.2z M1178,2447.6c-7,23-50.6-18.9-54-20.8c-20.2-12-41.2-21.7-66.4-30.8
		c-26.1-9.5-51.9-19.8-77.5-30.6c-41.7-17.6-45.4-29-60.1-72.3c1.3-0.5,2.2-0.9,3.1-1.2c37.1,20.5,79.5,35.4,115,58.3
		c13.7-4.9,61.5,20.7,70.1,26C1146.5,2365.8,1164.9,2425,1178,2447.6z M1766.4,1390.6c-0.3,6.9-2.3,32.9-0.5,54.5
		c-1.9,1-3.7,1.8-5.4,2.7c-5.7-1.4-9.6-5.7-14.1-9c-10.2,6.4-83-50.2-94.2-57.5c9-16.4,60.5-25.8,62-43.8
		c16.2-10.5,32.6-24.6,50.8-29.3c-0.4,2.3-0.8,4.4-1.2,6.7c3.2,1.9,4.7,4.9,6,8C1764.1,1345.5,1767,1377.5,1766.4,1390.6z
		 M1764.1,1247.9c-37.5,24.3-73.6,50.1-109.7,76.2c-15,10.8-78.7,43-80.4,56.4c71.6,43.3,133.5,101.4,206.1,144.2
		c0,36.5-6.5,34-34,18.5c-32.1-18.1-63-38-93.1-59.2c-22.1-15.6-42.9-32.8-64.6-49c-23.4-17.4-65.4-31.6-78.2-57.9
		c34.5-32,82.4-56.3,121.9-82.1c38.6-25.2,102.8-51.6,130.5-88.8h6.3c2.6,9.8,10.2,16.7,13.3,26
		C1777,1238.8,1770.8,1243.6,1764.1,1247.9z M1448.8,248.3c0.6-0.8,1.4-1.3,2.6-2.3c78.9,31.9,164,50.3,242.2,84.4
		c32.5,14.2,64.5,26.9,76.7,60c8.4,22.8-1.8,59.5,10.1,79.6c-1,1.4-1.8,2.4-2.8,3.8c-23.3,1.3-63-29.1-84-39.8
		c-35.9-18.3-71-33.5-108.8-48c-27.4-10.5-68.9-17-87.1-38.6c-20-23.8-35.1-68.2-50-95.9C1448.1,250.1,1448.3,249.1,1448.8,248.3z
		 M1440.1,326.8c29-13.5,52.5,25.6,69.6,36.4c29.6,18.8,78,17,101.5,44.9c13.7,0.8,113.7,53.7,79.1,76c-24.8-10.8-53.4-24.8-75.9-40
		c-10.7,2.4-33.3-19.4-39.7-23.6c-0.6,1.8-1.1,3.5-1.8,5.6c-20.6-9.1-44.6-16.4-64-27.9c-0.6-1.9-1.2-3.9-2.2-6.9
		C1499.7,417.4,1434.8,348.9,1440.1,326.8z M1173.4,436.3c4.8,0.8,27.9-3.7,32.2-8.1c45.9-0.2,136.6-33.2,178.1-2.3
		c66.3-5.9,157.6,53.3,206.5,92.3c66.5,52.9,117.6,124,146.3,204c45.7,127.2,33.3,272.5-35.1,389.7
		c-153.3,262.7-528.4,304-735.1,81.5c-57.7-62.1-97-138.3-114.5-221.2c-5.3-25.3-8.2-51.3-9.3-77c-1.4-31.6,12.3-70.8,7.6-101.2
		c15.3-19.2,17.9-67.7,27.5-91.4c16.9-41.5,40.4-79.8,68.6-114.5C1008.7,511,1084.4,473.1,1173.4,436.3z M1166.7,326.8
		c-19.1,34.5-26,56.7-64.6,69.1c-23.6,7.6-48.3,20.7-72.4,26c-24.3,20-77.9,48-108.4,56.2c-3.5-6,1.7-11,0.7-16.5
		c1.3-1.7,2.5-3.2,4-5.3c-1.6-4.6,4.6-24.9,5.1-26.7c53.9-27.4,162.3-45.2,192.7-96.8C1136.9,330.4,1153.2,325.2,1166.7,326.8z
		 M840.7,446.7c6.7-28.7,16.6-59.1,21.7-88.3c2.2-1.8,4.8-3.8,7.4-5.9c0.2-1.2,0.4-2.4,0.6-3.6c20.4-11.4,93.2-52.4,116-48.8
		c12-9.7,39.8-8.6,49-22h7.9c0.3-1.6,0.5-3.1,0.8-4.7c11.2-8.6,31.5-11.5,44.8-15.8c0.7-1,1.3-2.1,2.1-3.2c3.5-0.7,6.6,0.5,9.1,3.8
		c7.5-2.7,9,0.3,16.9-0.3c0.3-1.4,0.7-2.9,1.1-4.7c5.1-2.2,26.4-4.6,27.9-10.9h4.9c2.7,7.8-29.8,55.8-32.9,60.1
		c4.8,35.2-61.5,70.3-88.5,68c-12.4,10.9-34,10.5-47.4,19.8c-4.5-0.8-6.2,5.1-10.7,4.3c-3.3,2.1-7.8,1.8-10.3,5.3
		C925,395.3,874.4,451,839,460.2C836.2,454.9,839.8,450.9,840.7,446.7z M833.8,1550.6c-26.3-22.6,85.8-81.2,101.1-92
		c33-23.4,77.8-48.3,105.3-77.9c-2.6-19.8-75-60.5-91.5-71.9c-36-25-90-44.5-118.5-78.2c-0.5-12.3,5.7-20.2,14.7-28.5
		c35.8,0.1,86.9,47.9,115,67.8c50.4,35.7,104.3,67.4,151.9,106.7v5.7c-27.6,33.6-82.9,58.9-119.4,84.3
		c-45.8,32-90.2,69.3-138.4,97.4C846.8,1560.4,840.1,1555.8,833.8,1550.6z M839.7,1319.1c6.4-1.3,10.8-4.1,10.8-11
		c33.4,5.8,89.1,50.6,117.4,71.4v3c-34.8,25.5-76.1,57-116.6,71.6c-19.7-37.7-13.2-80.6-13.2-122.5c1.3-1.7,2.5-3.3,3.7-4.8
		C841.1,1324.3,840.5,1321.9,839.7,1319.1z M1039.8,2731.6c-44.7,0.5-43.4-70.3,1.3-69.7C1086.3,2662.5,1085,2731,1039.8,2731.6z
		 M1142.2,2519.9c-22.4-11.7-51.4-14.8-75.4-22.7c-31.1-10.2-61.2-26.7-91-37.1c-1.4,0.6-2.9,1.2-4.6,2
		c-29.8-12-60.2-23.8-89.1-38.1c-4.2,2.7-8.6,2.4-13.2-0.7c-2.6-4.1-8.5-5.3-12.7-7.9v-4c1.3-0.9,2.5-1.9,3.9-2.9
		c-2.1-23.8-8.8-50.1-15.7-73.3c0.4-0.7,0.9-1.6,1.7-3c-4.9-8.8-7.3-19.7-7.8-29.6c26.5,13.9,48.1,30.1,76.6,42.5
		c36.4,15.7,72,33.6,108.5,49.3c24.5,10.5,62.9,15,81.5,33.2c19.4,19,35.3,65.5,47.3,90.9
		C1148.8,2521.3,1145.3,2519.6,1142.2,2519.9z M1582,2828.6l-23.6-0.2l-0.9-28.2h24.5V2828.6z M1809.8,2830.4
		c-1.7,2.3-3.6,5-5.4,7.4h-169.2v-37.7l171.4,0c0.7,0.6,2,1.6,3.1,2.6V2830.4z M1854.2,2829.8v-29.1l35.9-0.6l1,29.6H1854.2z
		 M1907.8,2771.3c-86.9,13.5-186,4.6-273.6,4.5c-136.2-0.2-272.9,2.2-409.4,2.2c-4.4,16.9-72.7,14.7-76.2,6.7
		c-13.5-31,17.6-38.5,35.5-28.4c0.8-0.9,1.3-1.3,1.8-1.8c-3.3-9.7-9.8-14.8-19.7-15.3c0.2-20.5,23.4-69.7,34.6-86.9
		c21-32.1,68.9-32.9,106.1-42c0.5,0.3,1.3,0.8,2.3,1.3c0.5-0.8,0.9-1.7,1.4-2.6c4.5-1.4,26.8-7.3,29.9-6.9
		c33.2-26.9,112.7-0.9,150.8,1.5c52.2,3.3,103.6,10.3,155.8,14.4c52.1,4.1,103.6,8.8,155.6,15.4c40,5,51.4,4.3,69.1,42.2
		C1884.4,2702.2,1910.8,2741.4,1907.8,2771.3z M1934.1,2692c-33.3,3.5-38.1-47.9-4.5-50.2C1960.9,2639.8,1964.4,2684,1934.1,2692z"
		/>
	<path class="st0" d="M1543.4,2402.6c-12.5-3.2-21.1,3.6-28.4,11.4C1519.4,2412.7,1541.8,2407.9,1543.4,2402.6z"/>
</g>
</svg>
