<?xml version="1.0" encoding="utf-8"?>
<!-- Generator: Adobe Illustrator 22.0.0, SVG Export Plug-In . SVG Version: 6.00 Build 0)  -->
<svg version="1.1" baseProfile="tiny" id="Слой_1"
	 xmlns="http://www.w3.org/2000/svg" xmlns:xlink="http://www.w3.org/1999/xlink" x="0px" y="0px" viewBox="0 0 3000 3000"
	 xml:space="preserve">
<g>
	<path fill="#68C6BF" d="M380,592.2c-9.2-8.5,74.2-8.9,79.4-16.3c13.7-19.3-17.1-85.1,0.9-91c-5.6-10-2.3-43.9-2.3-43.9l-92.5-2.8
		l1.1-145.3L510,292l61-1c9.7,0.5,47.4-0.5,47.4-0.5l-0.3,12.1c0,0,85.7-0.5,114.9-0.5c37.9,0,75.8-1.9,113.6-1.9
		c250.5-0.1,502.1-6.3,751.2-0.2c57.6,1.4,115.9-0.3,173.5-0.4c55-0.1,157.5,0.5,157.5,0.5l387.1,1.7l249.6,0.4
		c0,0,1.3,133.8,1.5,195c0.4,129.3,1.3,259.1,1.7,388.1c1.6,509.4,9.4,972.4-0.4,1491.6c-1.4,72.8-2.6,282.3-2.6,282.3
		s-32.5-0.1-87,1.3c-148.3,3.6-296.8,3.6-445,3.7c-302,0-603.3-0.8-905.9-1.2c-193.2-0.2-387-2.5-580.3-2.8c-32.2,0-86.7,0-86.7,0
		s-2.3-126.2-2.1-162.7c0.5-60.9,1.1-119.5-0.5-179.7c-2.9-110.2,0-221-0.1-331.2c0-38.4-1.9-74.4-1.8-112.5
		c0.2-63.1-20.6-19.2-69.2-35.7c-17.1-5.8-40.1-23.6-46.9-38.4c-16.9-36.6,1.1-46.8,21.6-68.9c10.4-11.2,4.5-21.2,23.2-30.1
		c5-2.4,28.8-0.8,36.3-1.6c46.5-4.8,34.7-20.9,34.7-66.5c-42-11-65.7,10.8-74.7-39c-5.9-32.8-4.3-69.6-6-102.9
		c-2.4-45.8,6.5-50.8,48.2-55.6c46.1-5.3,27.3-21.2,34.2-62.6c-37.4-7.2-45.5,11.6-51.5-33.8c-2.6-19.8-6.6-86.8,8-102.5
		c8.8-9.5,23.2,2.4,38.6-8c6.4-4.3,6-38.1,3.4-46.1c0-7,0-14,0-21c-7.4-1.9-14.9-2.2-22.6-1c-11.6-25.2-14.4-96.9-2.8-124
		c7.4-17.2,56.1-61.8,23.4-85.2c-24.2-17.3-56.2,14.7-74.2-12.1c-8.1-12.1-3.5-54.8-0.6-63c48,23.7,42.5-27.5,42.5-57.4
		c0-26.6,0-53.1,0-79.7c0-10,5.8-72.1,0-79.6c-6.4-8.2-29.9-12.7-38.2-6.9c-15.8,11.2-7.7,42.7-7.8,58.5c0,49.4,0.1,98.8,0,148.1
		c-18.3-33-3.8-98.7-3.8-137c0-20.5-4.1-41.6-2-62.2c0.3-2.5,5.1-61.5,12-63.9C382,661.6,476.1,579.3,380,592.2z M1835.5,2306.4
		c36.8,34.9,91.1,57.7,134.8,83.7c39.1,23.3,77.6,49.5,117.9,70.5c51.9,27,118.4,15.3,176.1,15.4c70.2,0,99.3-2.3,152.8-47.3
		c23.9-20.1,57.3-39.3,76.9-63.8c29.6-37.1,16.1-99.6,16.1-147.6c0-44.2,15.2-121.5-11.2-157.3c-21.9-29.8-91.8-63.3-127.3-67.9
		c-71.9-9.3-160-3.2-232.8-1.9c-70.7,1.3-141.5,5.4-212.2,7.1c-39.8,1-83.1-12.5-94.6,30.2c0,11.3,0,22.6,0,33.8
		c0.6,6.1-2.8,7.7-9.9,4.7c-5.1,11.9-12.1,17.1-16,32.9c-3.3,13.2-2.8,41.5,2.1,53.7c3.6,8.9,20.1,9.4,21.6,14.1
		C1841.4,2205.1,1814.5,2269.1,1835.5,2306.4z M1625.7,1396.1c11.4-5.5,12.9-21.9,21-26c17.5-9,31.1,6.2,47.9-9.9
		c28.6-27.4,7.4-150.9,7.4-188.9c0-69.5,0-139,0-208.5c0-27.6-9.7-77.7,0-103.2c9.1-24.1,16-17.4,20-52.2
		c9.9-86.2-39.1-69.2-107-69.2c-69.7,0-139.4,0-209.1,0c-38.7,0-150.7-19.6-174.3,15.1c-5.5,8.1-4.8,62.5-1.4,72.5
		c3.1,8.9,20.7,12.7,21.4,15.1c11.3,38.5,4.4,92.9,4.4,135.3c0,70.8,0,141.6,0,212.4c0,35.4-18.5,145.9,3.4,172.2
		c11.8,14.2,22.8,3.9,37.8,9.3c30.3,11,4,4.8,27.5,21.3c9.4,6.6,21.5,12.2,28.3,16.5c11.2,7.1,21.5,15.5,32.5,22.8
		c1,9.5,5.8,15.9,14.4,19.3c14.8,1.9,29.7,2.5,44.6,2c19,5.3,24.5,18.3,47.6,15.4c7.6-15.6,19.8-20.7,36.5-15.4
		c8.3,0.7,16.5,0.1,24.6-1.9c9.2-3.7,8.8-14.4,13.3-17.4C1588.8,1417.4,1600,1396.1,1625.7,1396.1z M634.6,1452.5
		c-30.5,5.6-67.2-0.5-98.4-0.5c-26,0-111.8-14.3-132.2,0c-24.9,17.4-14,66.1-14,94.9c0,55.8-5.8,67.6,51.7,69.2
		c43.7,1.2,174.5,21.8,204.2-9.4C662.2,1589.6,658.3,1460.1,634.6,1452.5z M1002,1889.9c21.3,41.1,111.3,22,148.9,22
		c73.3,0,146.5,0,219.8,0c47,0,344.7,28.2,339.9-32.5c-4.5-57.1-290.9-27.6-340.4-27.6c-73.3,0-146.5,0-219.8,0
		C1109.7,1851.9,1002,1828.4,1002,1889.9z M2012.1,1113.9c0-129.8,0-259.6,0-389.3c0-71.5,0.1-143,0-214.5
		c-0.1-38.8-27-97.6-57-41.5c-22.2,41.6-3,136.9-3,183.8c0,69.6,0,139.3,0,208.9c0,69.6,0,139.3,0,208.9
		C1952.1,1106.3,1980.5,1176.8,2012.1,1113.9z M2095.9,1125.1c27.1-34.8,10.1-117.4,10.1-159.3c0-62.7,0-125.4,0-188.1
		c0-72.1,0-144.2,0-216.3c0-26.6,15.9-134.9-40.3-113.6c-38.7,14.6-19.7,113.8-19.7,148c0,73.5,0,147.1,0,220.6
		c0,64.3,0,128.7,0,193C2046,1042.9,2028.1,1159,2095.9,1125.1z M2280.1,1130c40.9-21.8,21.9-106.9,21.9-145.4c0-74.7,0-149.3,0-224
		c0-50.1,22.9-300.6-24.9-311.3c-62.4-14-35.2,247.6-35.2,296c0,74.9,0,149.8,0,224.7C2242,1011.8,2217.8,1130,2280.1,1130z
		 M2148,470.2c0,139.1,0,278.1,0,417.2c0,64-6,130.7,0,194.3c3.2,34,28.4,79.5,58,28.1c10.6-18.5,0-75.2,0-97.4
		c0-32.5,0-64.9,0-97.4c0-64.9,0-129.9,0-194.8c0-64.9,0-129.8,0-194.7c0-20,9.6-57.5-11.1-71C2175.1,441.5,2156.9,451.7,2148,470.2
		z M1990.4,1744c37.4-24.3,21.5-105.4,21.5-144.8c0-63.3,0-126.7,0-190c0-54.3,0-108.6,0.1-162.9c0-19.3-7.7-143.4-56.2-77.5
		c-20.6,27.9-5.6,97.8-5.6,130.5c0,60,0,120.1,0,180.1c0,64.6,0,129.3,0,193.9C1950.2,1708.4,1945.9,1744,1990.4,1744z
		 M2173.3,1152.2c-34.2,7.9-28.2,28.6-29.2,55.2c-2.2,62.3,0,125,0,187.4c0,48.5-27.3,330.7,23.4,343.3
		c53.7,13.4,38.4-79.3,38.4-107c-0.1-62.3-0.1-124.7-0.1-187c0-62.3,0-124.7,0-187C2205.8,1221,2217.4,1164.8,2173.3,1152.2z
		 M2308.2,1715.5c0-117.7,1.7-235.6,1.7-353.4c0-49.9,14.9-131.2-1.6-179.5c-8.1-23.7-28.6-48.9-53.9-19.1
		c-25.4,29.9-6.3,131.2-6.3,166.6c0,65.2,0,130.3,0,195.5c0,51.5-18,137.3,0.2,183.5C2258.8,1735.5,2294.5,1754.2,2308.2,1715.5z
		 M2057.8,1732.9c85.2,37.7,52.3-208.6,52.3-255.8c0-64.4,0-128.8,0-193.2c0-30.8,16.1-107-18.8-122.2
		c-65.2-28.5-41.3,215.7-41.3,253.3c0,62.8,0,125.7,0,188.5C2050,1641.3,2038.1,1699.9,2057.8,1732.9z M1512.4,2069.9
		c-134.1-15.9-122.2,233.6,26.6,195.9C1651.8,2237.3,1626.4,2069.9,1512.4,2069.9z M605,300.1H414.5l-37.2,0.4l2.6,125l170,6.4
		c24.3-0.5,55.9,0,55.9,0S605,319.9,605,300.1z M370.1,1720.2c0,16.8-10.3,88.9,0,100.7c10.9,12.5,57.6,5,73.4,5
		c25.2,0,79.8,10.4,102.3,0c28-12.9,12,9.5,22.3-28.6c2.8-10.3,5.9-63.1-0.4-72.6c-9.9-15-6.7-4.4-20.4-10.7
		C523.2,1702.8,389.6,1703.8,370.1,1720.2z M469.9,891.9c21.7,0,54.3,7.8,68-12.2c11.7-17.1,0-84.8,0-106.5c0-35.4,2-71.4,0-106.7
		c-2.1-36.3,0.7-37-38.8-36.4c-54.5,0.8-38,39.1-37.1,82.9C462.6,742.5,445,878.7,469.9,891.9z M420.5,1320
		c17.1-2,52.9-15.1,51.5,9.6c-1.5,27-32.6,10.3-51.6,4.9c0,38.3,63.4,23.4,89,23.4c41.8,0,53,7.1,58.6-34.5
		c8.4-62.8,6.4-73.4-52.8-73.4c-10.8,0-95-9.1-94.1,11.8c74.3-22.5,56.4,42.6,0.1,15.9C418.2,1290.7,419.8,1307.2,420.5,1320z
		 M441.9,1042.2c0,21.4-13.1,88.7,6.4,101.8c3.7,2.5,72,2.2,75.9,0c15.3-8.7,10-10.5,14.8-25.7c3.8-11.9,5.2-57.8-0.9-68.5
		C529.5,1034.5,454.8,1017.5,441.9,1042.2z M997.8,619.9c34.4,0,78.9,15,90.2-19.1c5.9-17.9,4.7-74.5-8.1-86.7
		c-11.4-11-82.3-3.4-91.9,9.8C978.9,536.4,984,613.1,997.8,619.9z M1084,1046.1c0-20.5,10.7-84.2-5.4-96.7
		c-13.4-10.5-84.9-4.7-94.6,8.4c-5.6,7.6-3.6,86.6,3.5,93C999.7,1061.8,1076,1060.7,1084,1046.1z M1931.9,1818.1
		c0-21.4,10.7-81.3-6.6-94.5c-12.1-9.3-84-4.9-93.3,6.2c-6.2,7.4-3.3,87.5,2.8,95.3C1844.4,1837.6,1924.5,1833.3,1931.9,1818.1z
		 M1078.1,1094.1c-37.7,0-77.6-13.9-92,20.6c-7.6,18.2-3.9,73.1,9.8,85.2c10.2,9,81.8,4.6,90.2-7.8
		C1094.2,1180,1090.5,1100.6,1078.1,1094.1z M982.1,813.9c0,21.4-10.7,81.3,6.6,94.5c12.1,9.3,84,4.9,93.3-6.2
		c6.4-7.6,3.1-87.8-3.1-95.7C1069.2,794.4,989.5,798.8,982.1,813.9z M1174,2105.7c0,20.6-10.7,84.3,5.5,96.9
		c13.6,10.6,84.9,4.6,94.5-8.6c5.6-7.7,3.6-86.4-3.6-92.9C1258.2,2090.2,1182,2091.4,1174,2105.7z M1415.8,615.5
		c0-35,12.1-85.1-16.4-99.5c-13.7-6.9-74.2-3.9-83.4,8c-5.7,7.3-3.6,86,2.7,93.3C1327.4,627.2,1407.1,623,1415.8,615.5z M1154.7,618
		c18.9,0,83.1,10.2,94-5.4c6-8.7,6.3-89.5-1.7-96.1c-7.2-6-84.6-7.9-91.9-2.4C1143.4,523,1145.2,608.7,1154.7,618z M2558.3,878.6
		c40.2-61.7-80.4-18.7-18.6,4.3c-20.2,13.8-15.8,29.5,3.3,42.6c-24.8,2.4-21,29-5.2,39.9c-22.1,23.6,1.1,21.2-0.1,41.9
		c-4.4,4.7-8.8,9.3-13.3,14c0.9,5.9,1.9,11.8,2.8,17.7c-0.6,2.4,12.6,6.6,12.6,9.3c-18,10.2-21.7,37.6,2.9,40.2
		c-15.7,6.8-29.4,27.1-8.4,38.6c25,13.7,43.3-26.3,13.5-38c30.5-8.8,11.8-33.7-4.5-42.8c36.9-0.7,10.6-28.8,8.5-40.3
		c12-10.9,24-35.1-2.4-40.6c20-11.2,19.2-33.6-3.1-40.3c18.5-13.5,28-28.2,3.8-42.1C2552.9,881.5,2555.6,880.1,2558.3,878.6z
		 M2004,1890.1c-6.8,66.5,107.3,62.5,98.6-6.5C2095.2,1824.3,2000.6,1828.6,2004,1890.1z M2035.4,405.7c81.3,1,79-109.8,7.1-97.4
		C1982.6,318.6,1997.4,382.4,2035.4,405.7z M504,1889c-2.2,64.3,98.5,65.9,99.8,1.2C605.1,1822,493.4,1829.9,504,1889z
		 M2005.9,2528.9c0,63.1,94.8,66,98.2,3.3C2107.5,2467.8,1997.5,2464,2005.9,2528.9z M921.3,2110c0,10,54.4-8.1,57.6-12.8
		c26.7-38.8-20.4-46.1-46.3-47.2c-23.7-1-70.4-8.1-76.9,23.9C847.6,2113.3,897,2110,921.3,2110z M958.6,1853.9
		c-24.7,0-80.1-10.9-96.1,13c-11.5,17.2-4.2,34.6,13,45C924.5,1941.6,1030.5,1877.2,958.6,1853.9z M884.1,2305.9
		c24.6,0,75.7,11,92.7-9.2c18.8-22.3,3-41.9-20.7-50.6C915.4,2231.1,812.5,2271.4,884.1,2305.9z M2389.6,1411.9
		c31.2-7.9,28.1-187.4-30.5-142.5c-19.4,14.9,3.1,49.2,3.1,71.8C2362.1,1368.2,2351.8,1411.9,2389.6,1411.9z M2346.1,1610.4
		c0,26.5,17.9,35,17.9,66c0,16.5-1.7,89,34.4,54.4C2424.8,1705.4,2412.8,1547,2346.1,1610.4z M2556,1370.6c0-17.6,9.2-85.2-5.2-96.4
		c-32.8-25.7-34.3,22-34.9,40.6c-0.7,23.4-11,77.1,11.5,90.1C2554.9,1420.7,2576.1,1392.1,2556,1370.6z M432.1,636.4
		c0,45.5,0,90.8,0,136.4c0,15.8-5.7,127.8,15,113.6c18.8-12.9,6.7-117,6.7-140.8C453.8,731.1,464.5,607.9,432.1,636.4z
		 M2556.2,1532.7c0-23.8,13.5-86.2-15.1-96.6c-36.4-13.2-25.1,66.3-25.1,80.4c0,20.8-3.8,72.1,35.9,55.5
		C2571.7,1563.7,2570.9,1545.2,2556.2,1532.7z M2558.1,1697c0-18.3,12.8-87.5-14-92.9c-33.1-6.7-27.9,37.4-27.9,56.6
		c0,25.1-13.1,78.2,26,75.2C2568.6,1733.8,2574.3,1716.3,2558.1,1697z M2399,1559.2c10.2-15.3,12.3-98.4-0.1-113.1
		c-10.3-12.3-36.6-18.3-46.4-1.9c-7.6,12.8,2.9,16.3,3.3,25.2c0.6,12.6,4.3,43.8,6.1,58.4C2364.4,1548.2,2372.5,1589.5,2399,1559.2z
		 M1020.1,2051.9c-38.8,23.9-15.6,69.8,28.2,60.1c20.5-4.5,39.9-19.5,28.6-43.7C1066.2,2045.6,1039.6,2051.9,1020.1,2051.9z
		 M2509.5,1171.1c24.1-20.4,2.2-23.6-5.6-39.9c19.9-10.9,19.2-29.3-0.4-40.7c24.4-5.7,17-39.1-4.9-40.4
		c-29.2-1.7-16.6,31.7-4.6,41.3c-26,6-14.6,34.4,3.8,39.8C2497.2,1136.3,2456.6,1188.1,2509.5,1171.1z M998,2276.5
		c8.8,30.6,66.2,51.5,78,9.8c7.5-26.8-20.6-40.4-42.3-38.4C1009.2,2250.3,1009.2,2259.5,998,2276.5z M753.4,492.6
		c15.8,6.3,32-5.1,38.5-6c-8.3,1.2,34.1,5.3,27.3,3.6c10.6,2.7,4.1-7.9,8-9.7c45.8,55.6,46.6-67.8,0.1-11
		c-24.5-35.5-23.7,0.9-42,0.4C768.5,440.3,732.3,464.8,753.4,492.6z M2517.7,891.8c-4-3.5-8-6.8-12.2-10.1
		c28.9-18.9,4.1-23.8-1.1-41.9c20.5-7.7,20.4-39.3-5.3-39.7c-26.6-0.5-22,32-2.9,40.8c-18.2,9.1-23,33.9,0.7,40
		C2447.9,897.3,2521.8,952,2517.7,891.8z M1876,1460.4c-18-42.2-78.6-12.4-54.1,24.2C1842.9,1516,1876,1488.1,1876,1460.4z
		 M1417.4,645.7c-12.2,22-8,58.1,27.3,51C1491.6,687.1,1459.2,615,1417.4,645.7z M1262.1,672.3c17.5,31.2,73.7,30.6,58-14.8
		C1308,622.2,1262.1,640,1262.1,672.3z M1354.3,638c-32.1,15.8-26,69.8,15.2,56.9C1410.9,682.1,1388.1,638,1354.3,638z M501.2,2572
		c-32.1,0-55.1,42.3-17.6,57.4C520.2,2644.1,542,2586,501.2,2572z M1321,1733.9c38.1-12,21.7-68-16.2-56.2
		C1266.3,1689.8,1287.8,1733.9,1321,1733.9z M547.6,2513.6c-20.4,29.6,12.9,72.7,41.1,42.9C614.8,2528.8,578.2,2490.2,547.6,2513.6z
		 M489.9,2506.2c-31.9,14.5-28.9,64.6,11.2,58C541.7,2557.6,528.8,2502.5,489.9,2506.2z M1093.7,722.5c-18.5,41.6,46.7,66.3,55,22.2
		C1156.3,704.2,1114,704.1,1093.7,722.5z M1873.8,731.6c-13.6-23.3-44.3-34.1-56.6-3.4C1799,773.4,1878.8,785.1,1873.8,731.6z
		 M536.1,2613.8c13.2,27.7,61.2,26.9,59.7-9.1C594,2560.5,536.1,2572.8,536.1,2613.8z M1122.3,1498c32.5-17.4,25-73-17-57
		C1069,1454.8,1090.4,1498,1122.3,1498z M1122.8,854.1c-46.6,15.7-12.8,79.2,23.3,54.7C1177.2,887.6,1150.6,854.1,1122.8,854.1z
		 M977.3,2433.9c-6.5-43.5-69.6-33.9-59.3,8.1C927.1,2478.9,971.9,2463.6,977.3,2433.9z M1314.2,2467.8c43.7-9.2,33.1-71.9-8.5-59.7
		C1266,2419.8,1289.3,2458.7,1314.2,2467.8z M1102,1090.5c0,29.6,36.5,57.2,54.8,20.9C1176.3,1072.9,1117,1049.9,1102,1090.5z
		 M665.9,2404.1c-41.9,0-53.1,57.1-9,57.9C692.6,2462.6,697.5,2416.4,665.9,2404.1z M1143,1138c-34.4,0-53.9,46.7-13.6,58
		C1165.7,1206.2,1180.9,1150.6,1143,1138z M1246,660.4c-12-31.9-59.2-23.6-57.9,10.6C1189.8,715.4,1246,701.6,1246,660.4z
		 M1110.5,1690.9c-8.5,30.2,23.3,62.8,49.2,34.2C1187.5,1694.4,1138.1,1658.9,1110.5,1690.9z M1116.2,1049.4
		c31.3,8.9,65.4-25.9,31.9-50.2C1112.2,973,1091,1023.4,1116.2,1049.4z M596,2456.3c-16.1-40.2-73.9-18.4-56.4,19.2
		C555.2,2509,596,2487.6,596,2456.3z M973.7,1703.5c-8.8-44.2-71.9-31.6-58.2,8.6C928.3,1749.4,965.9,1732,973.7,1703.5z
		 M602.1,2210.2c-0.8,27.5,29.4,55.4,51.7,27.2C680.6,2203.4,622,2164.6,602.1,2210.2z M1159.9,963.8c0-35.2-48.2-57.3-57.5-15.4
		C1094.3,985.2,1145.8,998.1,1159.9,963.8z M1170,2423.6c-16.4-26.4-63.4-27.1-57.1,14C1119.6,2481.7,1170,2461.3,1170,2423.6z
		 M511.4,2493.2c21.7-17.5,18.1-51.4-12-55.3C451.5,2431.7,461.3,2517.1,511.4,2493.2z M2555.1,795.4c17.6-13.5,8.4-30.1-6.8-38.4
		c22.4-6.1,20.3-38.3-3.2-40.7c-24.6-2.6-27.5,37.5-2.6,40.2C2517.3,770.2,2520.1,806.4,2555.1,795.4z M757.8,449.9
		c54.5,0,6.1-70.8-15.1-21c-4-27.7-44.1-21.4-40.2,4.6c3.3,22,35.9,20.9,40.1,0.4C745.7,441.3,750.7,446.6,757.8,449.9z
		 M2506.4,926.2c-24,0-42.4,23.7-12.4,38.9c-61,45.6,73.5,47,12.4,0.2C2522.1,952.5,2522.9,937.4,2506.4,926.2z M2535.7,1212.9
		c29.5,11.1,44.4-30.9,12.8-37.9c22.2-6.7,24.1-40.1-1.7-40.9c-30.9-0.9-20.6,31.7-2.2,41.3
		C2519.6,1178.3,2524.9,1201,2535.7,1212.9z M387.2,940.4c15.9,8.3,57.8,2.5,38.9-25.9C408.2,887.6,378,913.3,387.2,940.4z
		 M2549.8,839.9c23.3-9,14.6-46.6-10.2-39.7C2511.1,808.1,2525.4,839.9,2549.8,839.9z M846.3,410.1c-24.1,9.9-17.4,48.5,8.8,39.8
		C880.7,441.4,870.2,410.1,846.3,410.1z M730.1,496c27.2-18,0.1-54.2-21.5-33.4C691.1,479.3,711.8,496,730.1,496z M2478.6,778.6
		c6.3,28.7,47.6,20.2,39.6-5.5C2510.5,748.3,2482.9,757.8,2478.6,778.6z M2517.6,745c5.5-21.2-23.8-44.4-36.9-18.2
		C2469.1,750.1,2501.1,764.4,2517.6,745z M2513.6,1013.3c-19.7-13.7-49.5,10.7-27.8,28.6C2505.9,1058.6,2527,1035.4,2513.6,1013.3z
		 M802.2,410c-20.8,8.1-17.6,38.5,5.4,39.2C837,450.1,832.3,410,802.2,410z M2508.6,1214.3c19.9-17,1.7-46.4-20.8-33.4
		C2466,1193.3,2486.2,1227,2508.6,1214.3z M353.5,1797.8c4.5-7.9,10.5-57.6-6.8-48C332.1,1757.9,336,1797.8,353.5,1797.8z
		 M1148.3,2614.1C1120.6,2640.9,1189.9,2614.1,1148.3,2614.1z M1257,2616.5C1218,2600.6,1274.6,2651.7,1257,2616.5z M1151.9,2637.8
		C1125,2659.8,1179.1,2654.7,1151.9,2637.8z M1225.3,2656.1C1254.8,2642.9,1201.2,2632,1225.3,2656.1z M1168.2,2624.4
		c11.1,22.8,18.4-13.1,11.7-9.1C1171.8,2620.1,1168.2,2608.7,1168.2,2624.4z M1199.7,2638C1171.9,2660.8,1227.4,2651.5,1199.7,2638z
		 M1179.1,2640.2C1140.2,2640.2,1205.7,2669.5,1179.1,2640.2z M1208.2,2624.8C1205.7,2586.4,1180.5,2649.8,1208.2,2624.8z
		 M1226.2,2630.2C1250.2,2607.9,1197,2613.3,1226.2,2630.2z M812,2619.4c0.4,5,9.7,16.2,11.7,2
		C820.4,2615.2,816.5,2614.5,812,2619.4z M653.9,2637.3c-2.6,2.2-8.4,12.5,1.1,12.6C666.9,2650.1,655.8,2638.4,653.9,2637.3z
		 M649.2,2625.8c3.8,1.3,6.6,0.3,8.4-3C658.9,2616,641.4,2610.9,649.2,2625.8z M675.1,2625.6c3.8,1.4,6.6,0.5,8.4-2.8
		C685.1,2617.1,666.5,2609.4,675.1,2625.6z M888,2622.6c2.3,2.1,12.1,7.6,12-1.5C899.9,2609.2,889.5,2619.2,888,2622.6z
		 M871.3,2639.8c-4.6-1.3-7.7,0.1-9.3,4.1C867.4,2653.2,876.9,2651.5,871.3,2639.8z M819.7,2652.3c2-2.4,4-4.7,6-7.1
		c-1.5-2.1-3.3-3.8-5.5-5.2C811.7,2644.1,811.5,2648.2,819.7,2652.3z M842.2,2650.7c8.4-4.6,8.2-8.8-0.6-12.7
		C834,2642.6,834.2,2646.8,842.2,2650.7z M728.4,2628.2c3.7-3.9,4.8-8.8-0.6-12.1C719.7,2620.5,720.6,2623.9,728.4,2628.2z
		 M630.3,2637.6c-7.9,4.7-8.2,8.8-0.7,12.3C638.2,2646,638.5,2641.9,630.3,2637.6z M847.9,2619.6c-6.6-6.5-13.6,1.8-8.4,6.1
		C846.6,2627.7,849.4,2625.7,847.9,2619.6z M707.7,2644.9c-0.8-6.9-4-8.7-9.5-5.2C699.1,2647.3,701.7,2651.5,707.7,2644.9z
		 M912.2,2647.5c2.4,3.7,5.6,3.3,9.7-1.4C921.1,2636.7,912.2,2639.3,912.2,2647.5z M862.1,2619c0.3,9.6,9.7,9.6,9.7-0.3
		C868.3,2614.7,866,2615.7,862.1,2619z M722.3,2638.4c-2.5,7.7-0.2,10.7,6.8,9C743.3,2638.7,722.1,2638.4,722.3,2638.4z M627.8,2616
		c-4.6,4.4-4.4,7.9,0.4,10.6C634.8,2622.7,637.5,2616.4,627.8,2616z M676,2638.6c-4.5,4.5-1,9.1,4.2,9.4
		C686.2,2642.1,684.8,2638.9,676,2638.6z M889.5,2639.9c-4.5,3.3-4.6,6.5-0.2,9.7C894.2,2651,901.3,2640.5,889.5,2639.9z"/>
	<path fill="#68C6BF" d="M1298.6,1308c-4.7-46.1-15.8-133.6-0.8-176.2c6.2-17.7,33.8-21.7,23.9-53.5c-6.1-19.6-17-22.2-23.7-41.1
		c-7.5-21.2-0.6-57.6-0.5-79.8c0.3-37.6-3.6-35,37.2-35.3c96.1-0.7,192.3-0.2,288.4,0c39.1,0.1,36.3-4.7,37.2,33.8
		c0.5,21.1,7.9,63.6-0.4,83.1c-6.2,14.6-17.5,11.1-22.8,24.4c-5.3,13.1-5.6,37.7-0.3,51c3.1,7.7,22.1,9.6,22.2,9.9
		c11.1,37.7,1.1,91.1,1.1,131c0,55.3,10.1,40.4-29.7,52.8c-44.6,13.9-118.3,0-165.7,0C1409.3,1308,1354,1308,1298.6,1308z"/>
	<path fill="#68C6BF" d="M1298.1,881.9c0-16.2,28.2-9.8,33.9-30.3c9.5-34.3-28.5-23.6-36.9-38c-29.9-51.8,68.9-38.9,89.7-33.6
		c2.8,0.7,3.4,11.9,7.1,12.8c13.1,3.2,23.1,4.2,37.5,5.2c29.6,2.1,81.4,8.8,109.6,0.1c12.7-3.9,17.3-14.7,26.8-17.6
		c16.8-5.1,45.3-1.7,62.1-0.8c38,2,40.4,12.5,23.2,38.3c-7,10.5-19.8,3.3-23.1,22.5c-4.2,24.8,19.5,19.3,23.9,30.8
		c5.9,15.3,15.3,3.5-7.7,10.6c-30.3,9.3-78.5,0-110.4,0C1455.2,881.9,1376.6,881.9,1298.1,881.9z"/>
</g>
</svg>
