<?xml version="1.0" encoding="utf-8"?>
<!-- Generator: Adobe Illustrator 22.0.0, SVG Export Plug-In . SVG Version: 6.00 Build 0)  -->
<svg version="1.1" baseProfile="tiny" id="Слой_1"
	 xmlns="http://www.w3.org/2000/svg" xmlns:xlink="http://www.w3.org/1999/xlink" x="0px" y="0px" viewBox="0 0 3000 3000"
	 xml:space="preserve">
<g>
	<path fill="#68C6BF" d="M1181.4,633.6c-1.5,73.7,14.2,264.7,13.1,338.6c-2.8,179.1-2.6,358.7-4.9,537.4
		c-0.4,28.3-10.2,56.5,8.7,72.4c10.7,9,69.2,0.4,81.9,0.5c79.4,0.6,158,1.1,237.3,1.5c132.5,0.6,266.3,3.4,396.2,5
		c127.4,1.5,251.5,0.4,378.6,1.3c28.6,0.2,58.5,1.3,86.6,1.7c65.2,0.9,82.1-6.7,86.6,57.4c0,0-5,133.5-5.5,198.5
		c-1,127.8-5.8,257.5-8.2,385.5c-1.1,61.4,0.2,193.9,0.2,193.9l0,48l-154,0.7c0,0-5-63.5-4-98c0.6-22.1,6.9-108.9-29.4-67.2
		c-9.9,11.4-3.1,157.2-3.1,157.2l-51.5,0.5l-177,0.5c0,0,16.1-249.1-17.7-259.2c-61-18.1-49.2,156.1-49.2,156.1l-161.1,1.6l0-65.4
		c0.5-14.5-0.3-99.3-0.3-99.3s-29.1-0.7-74.4-0.7c-57.9,0-114.5-2-172.5-2.9c-19.3-0.3-71.3,2.4-71.3,2.4l-59.5,0.5v157.5
		c0,0-123.1,1-156.8,0.6c-28.3-0.4-106.7-0.6-106.7-0.6s7.5-48.5-27.1-49.2c0,0,5.2,172-0.5,213.3c-7.9,56.9-18.3,142.8-35.1,197.8
		c-6.2,20.2-27.1,78.6-60.8,64.1c-26.8-11.6-16.5-39.7-16.4-52c0.3-47.1-4-149.7-4-149.7s2.6-224.5,4.3-328.2
		c0.7-44.8,1.2-90.3,1.9-134.9c0.3-21.3,9.7-76.4,0.2-95.6c-14-28.5-5.4-19.1-47-23.9c-53.2-6.1-67.1,17-92.6-33.1
		c-18-35.4-14-105.4,5.7-138.9c39.1-66.5,95.8,3.5,137.2-36c21.7-20.7,2.3-181,2.8-217.6c2.1-144.5,4.6-287.4,6.6-431.4
		c1.9-136.4,3.5-267.6,5.3-403.9c1.1-84.5,4.5-168.7,5.3-253c0.4-42.9,0.1-62.8,11.7-103c16.5-57.3,29.4-42-42.9-42.3
		c-23.6-0.1-170.7,10.3-171.1-31.6c-0.2-20.9,100.9-11.8,117.1-12.4c50-2,220-1.4,220-1.4s-2.3,189.7-4,235.4
		C1179.4,547.7,1177.1,624.2,1181.4,633.6 M1686.1,2170c106.4,0,212.7,0,319.1,0c55.5,0,254.6,0.4,254.6,0.4s0-212.6,0-270.3
		c0-69.9,0-276,0-276s-138.7,0-177.5,0c-56,0-112.1,0-168.1,0c-48.4,0-232.1,3.5-232.1,3.5s-2.3,258.4-2.3,304.7
		C1679.9,1967.6,1686.1,2170,1686.1,2170z M2052.5,2352.1v99.9l190.2-1.3l-3.7-98.6H2052.5z M1141.9,1844.5c0,20.9-8.4,76.5,0,97.9
		c15.4,39.1,7.3,19,48.2,29.5c50.6,12.9,68.2,4,82-29c11.8-28.3,6.5-92.1-16.2-106C1241.8,1828.1,1158.9,1829.6,1141.9,1844.5z
		 M1193.9,1678.1c2.1,73.2,114.5,85.3,123.8,7.4C1327.8,1600.3,1202.9,1595.2,1193.9,1678.1z M1241.6,2191.9
		c-85.2,1.5-78,132.1,4.5,124C1324.6,2308.3,1311.7,2177.4,1241.6,2191.9z M2306.7,2460.5c0,0,107.8,4.3,122.5-1.7v-96.9l-120.5-1.2
		C2308.7,2360.7,2306.7,2418.9,2306.7,2460.5z M1130.2,2087.6c0,67.6,1.6,70.3,71.4,70.3c39.1,0,90.9,9.5,72.4-50.8
		C1263.1,2071.8,1147.4,2055.6,1130.2,2087.6z M1026.8,1818.3c-22.8,27.4-36,125.2-0.9,145.8
		C1048.8,1956.7,1034.4,1817.6,1026.8,1818.3z M903.5,1971.6c13.3,0,107.7,7.8,110.3-6C1003.9,1948.1,886.9,1962.7,903.5,1971.6z
		 M999.4,1866.2c-19.4,0-111.1-11.5-111.1,8.7C898.3,1883.8,1011,1878.5,999.4,1866.2z M894.6,1855.7c19.2,0,109,11.5,109-8.8
		C995,1839.5,881,1840.8,894.6,1855.7z M888.9,1931.4c8.8,0.8,111.5,4.4,111-4.5C999.3,1915.6,879.2,1913.7,888.9,1931.4z
		 M890.1,1895.6c19,0,107.5,11.5,107.5-8.8C985.8,1876.7,877.6,1881.2,890.1,1895.6z M894,1915.8c14.7,0,97.6,9.4,103.8-5.4
		C1000.3,1896.9,865.9,1900.2,894,1915.8z M1002.2,1824.2c-26.3,0-79.2-9.4-102.2,3.1C900,1849.5,1026.5,1836.3,1002.2,1824.2z
		 M1017.8,1978.8c-10.6-1.2-116.2-4.2-113.6,6.4C916.8,1996.2,1018.7,1993.1,1017.8,1978.8z M1000.7,1942.2c-35.1,0-70.3,0-105.4,0
		C880.5,1958,1012.2,1953.5,1000.7,1942.2z M1015,1808.2c-14.7,0-114.9,1.9-105.3,9.7C921,1818.2,1031.2,1823.5,1015,1808.2z
		 M1352.4,2193.9c46.7,0,6.9-39.4,4.4-35.8C1351.4,2165.8,1318.1,2181.2,1352.4,2193.9z M2345.3,1677.6c-17,33.3,28.9,31,27.8,22.7
		C2370.9,1684.7,2369.8,1664.4,2345.3,1677.6z"/>
	<path fill="#68C6BF" d="M853.8,1860.3c1.8,6.9,11.1,141.1,13.8,134.7c-21.9,17-171.6-3.5-195.6-3.9c-24.6-0.4-55.3,5.9-73.8-13.5
		c-19.5-20.6,17.8-157.7,0.4-167.6c-64.8,0-28.3,97.6-36.6,131.1c-9.7,39-8.3,46.3-53,56.5c-107.5,24.4-90-57.9-92.6-139.4
		c-2.9-92.6-6.4-181.1-4.9-273.4c3.7-220.8,5.1-443.1-2.2-661.8c-3.5-104.2-9.2-211.3-9.3-316c0-28.9-20.7-125.9-5.9-148.9
		c21.5-33.6,143.5-29.7,162.1-2.7c13.4,19.4,1.2,95.6,2,117.5c2.5,64,5.6,128.3,7.5,192.3c3.2,109.1,5.4,218.7,8.4,329
		c3.4,124.8,14.4,248.2,22,372.4c6.8,112.5-1.9,231.6,6.1,341c73.3,10.7,204.3-43.7,281.6-6.5C885,1809.4,858,1852,853.8,1860.3z
		 M499.9,1890.3c-15.5-42.2-37.1,16.7-24.6,12.4C482.1,1900.4,499.9,1916.6,499.9,1890.3z"/>
	<path fill="#68C6BF" d="M394.1,403.9c-0.3-63.3-18.5-188.2,82.3-183.8c89,3.9,71,112.8,77.8,173c-21.8,7.4-61.3-4.8-84.1-3.1
		C444.9,391.8,418.9,403.9,394.1,403.9z"/>
	<path fill="#68C6BF" d="M397.3,431.8c-9-8.4,126.6-40.3,155.7-21.1c21.6,14.4-31.7,10.6-36,11.2
		C482.3,426.6,433.1,431.8,397.3,431.8z"/>
	<path fill="#68C6BF" d="M2236.4,1791.2c40.8,79-80.8,6.4-88.4,1.8c-41.7-25.2-89.4-41.9-138-46.7c-32-3.2-66.6-2.3-98.3,3.8
		c-28.5,5.5-57.1,15-83.3,27.5c-20.9,9.9-58.7,49.9-79.2,51c-65.3,3.5-36.4-41,0.5-68.5c48.9-36.4,111.1-58.1,171-66.3
		C2033.3,1678.4,2153.5,1710.9,2236.4,1791.2z"/>
	<path fill="#68C6BF" d="M2128.5,1906c-69-23.8-116.2-67.7-194.4-53.7c-34.4,6.1-88.9,56.1-117.2,52.5c-53.8-6.7-20.1-46.9,4.2-65.9
		c53.5-41.8,136.7-52.5,201.3-41.1c30.1,5.3,61.9,15,88,31.2C2129.9,1841.1,2203.3,1906,2128.5,1906z"/>
	<path fill="#68C6BF" d="M2083.9,1943.2c0,62-96.5,3.5-127.1,8c-23.6,3.5-90.9,51.4-92.6-4.7
		C1862.1,1875.4,2066.1,1879.7,2083.9,1943.2z"/>
	<path fill="#68C6BF" d="M1973.9,2108.2c-89.7,4.7-61.2-149.7,24-112.2C2056.5,2021.8,2034.9,2105.4,1973.9,2108.2z"/>
</g>
</svg>
