<?xml version="1.0" encoding="utf-8"?>
<!-- Generator: Adobe Illustrator 22.0.0, SVG Export Plug-In . SVG Version: 6.00 Build 0)  -->
<svg version="1.1" id="Слой_1" xmlns="http://www.w3.org/2000/svg" xmlns:xlink="http://www.w3.org/1999/xlink" x="0px" y="0px"
	 viewBox="0 0 3000 3000" style="enable-background:new 0 0 3000 3000;" xml:space="preserve">
<style type="text/css">
	.st0{fill:#68C6BF;}
	.st1{fill:#6AC7C0;}
</style>
<g>
	<path class="st0" d="M2304.3,1286.2c-0.3-259.5-4-519-4.3-778.5c-0.1-63.7,25.1-202.9-3.9-256c-18.7-34.1-84-19.4-128.7-19.4
		c-214.9-0.1-430.5-2.4-645.4-5.9c-113.4-1.8-240.1,17.4-351.8-1.2c-63.4-10.6-134.2-18.7-207.7-20.1c-73-1.4-114.7,7.4-176,18.9
		c-39.5,7.4-153.6-28.1-176.7,3.8c-19.8,27.4,0,146.9,0,185.5c0,63.2,0,126.5,0,189.7c0,127,0,254,0.1,380.9
		c0.1,216.7,0.6,433.4,4.4,650.1c0.8,47.8-7.6,105.5,2,151.4c9.7,46.4-6.6,28,38.2,38.2c60.6,13.9,48.7-5.8,59,57.9
		c12,74.7,52.1,150,100.2,207.8c23.8,28.6,77.7,55.6,93.2,91.3c3.2,2.2,6.3,4.5,9.3,6.8c1-0.9,2.8-1.4,5.7-1.4
		c10.9,6.1,8.3,33.7,20.3,40.8c19.8,11.8,29.8-5.2,31.6-4.2c2.9,36.8-74.5,43.5-106.3,57.3c-38.4,16.6-74.1,41.4-104.4,70.2
		c-8.6,8.1-46.3,64.9-57.8,65c-8.1-37.9,67.6-97.3,94.9-116.4c16.4-11.5,115-48.3,116.9-58c-18.5-0.3-56.2-16.9-71.5-7.1
		c0,56.8-75.3,50.9-128,82.7c-60.3,36.4-76.6,85.4-78,152.9c-2,99.6,87,319.2,219.3,230.3c-70.2,1.7-32.3-75.2-12-104.9
		c34.7-50.8,98.8-95.5,154.1-120.3c19.8-8.9,164.1-63,181-23.7c-67.8,40.4-157.4,45.7-228.3,91.4c-27.6,17.8-145.2,93.8-93.3,121.2
		c-2.6,4.4-14.7-0.4-18.9-1.2c-6.2,42.6,53.2,9,64.3,19.2c-12.8,2.3-23.1,8-30.9,17.1c45.6,42.8,187.1,45.6,242.7,35.2
		c81.1-15.2,145.5-68.8,213.8-111c17.2-10.7,144.8-68.7,145.7-78.7c-35.5,0.1-269,30.1-239.3,73.1c-25.4,3.1,11.8-66.4,11.8-79.9
		c-6.9-10.5-203.2,42.5-230.9,42.5c37.6-26,228.8-32,228.8-68c-2.5-3.6-24.1,2.6-26.9,2.9c6.8-6.7,15.2-10.6,25.2-11.7
		c-25-69.6-113.3-78.7-176.2-70.5c-48.8,6.3-182.1,92.1-213.7,74.5c22.3-60.5,169.5-97,223.6-101.4c40.6-3.3,91.6,0.5,128.1,21.1
		c19.5,11,26.7,23.1,42.7,37c45.6,39.6,3.2,14.7,49.9,31.2c-5.5,16.7-46.1,9.5-13.3,21.6c0.6,0.2,62.2-26.7,59.2-4.6
		c-23.7,5.1-115.2,21.9-80.4,68.1c49.6-9.7,91.8-43,148.2-46.3c59.5-3.5,114.3,11.1,176.7,10.6c38.6-0.3,75.8-6.3,114.6-10.6
		c25.4-2.9,51.7-3.7,76.7-8.4c7.6-1.4,36.3-9.2,59-14.2c0.5-0.2,1.1-0.3,1.8-0.4c5.2-1.1,10-2.1,14.1-2.8c1-0.9,2.3-1.4,3.9-1.6
		c8.3-0.6,16.9-2,25.1,0.3c8,2.3,15.1,9.2,14.7,18.1c-0.7,14.2-20.1,18.7-32.3,14.9c-19.2,2.6-44.6-11.9-62.9-11
		c-19,0.9-39,9.3-57.7,12.2c-20.8,3.2-49.7-1.4-69.2,5.4c-38.8,13.6-87.2,68.6-112.1,108.2c-6.4,10.2-25.9,51.5-32.4,52.5
		c29.3,39.3,23.8,85.7,85.4,89.5c16.6,1,43.7-9.2,36.3-9.2c13.1,0.1,42.2,14.6,57.6,12.8c24.3-2.9,46.8-34.9,42.6-59.9
		c-9.6-56.6-95.1-61.4-132.5-97.2c36.5-32.4,61-35.8,108-17.3c26.4,10.4,75.4,57.4,97.9,48.8c32.1-12.2,28.3-89.8,61.6-102.9
		c8.3-3.3,87.8,10.8,95.7,17.9c-22.2,13.2-105.7,24.2-115.7,42.9c-3.3,6.1,6.1,66,10.9,70.2c15.9,13.8,28.1,0.3,49.9,1.3
		c52.2,2.5,88,0.6,138.9-22.3c43.2-19.5,146.1-37.5,157.2-109.7c0,0,0,0,0,0c-0.5-7.3-3.7-13.9-6.9-20.4
		c-23.4-21.1-91.1-80.2-93.3-89c24.8-1.4,61.8,41.2,77.9,37.5c62.8-68.6-38.4-55.7-54.8-92.5c-11.2-25.1,28.4-58.1,40.1-74.3
		c30-41.3,45.3-84.2,58.1-133.3c16.5-62.9,19.1-126.7,9.3-191c-7.1-46.2-22.2-89-43-130.5c-14-27.8-50.5-56.9-59.8-83.2
		c45.5-33.7,114.8,29.7,142.8,6.5c20.8-17.3,8.2-115.5,8.2-144C2306.3,1533.6,2304.4,1410,2304.3,1286.2z M777,2628.3
		c-3.1,2.7-12.6,14.6-38.9-2.6c-20.9-13.7-27-47-27.7-69.5c-1.6-50.8,46-127.9,93.9-149.2C811.5,2424.5,628.2,2634.1,777,2628.3z
		 M906.6,2655c1.6-12.8,60.7-47.3,72.2-57.7c7.2-4.5,13.3-2.6,18.3,5.5C983.5,2622.7,936.8,2684.9,906.6,2655z M821.8,2377.5
		c-9.6-7.4,90.6-66.9,115.9-60.3C940.7,2320.6,835.8,2377.5,821.8,2377.5z M2225.3,279.4c6.8,40.9-47.6,40.9-61.9,12
		C2163.4,250.1,2218,235.7,2225.3,279.4z M2212.5,437.2c-11.2,42.7-89.9,38.2-80.7-9.6C2129.5,366.6,2228.7,375.2,2212.5,437.2z
		 M933.9,419.2c8.1-62.7,82.2-35.7,82.2,15.4C997,480.5,927.2,470.9,933.9,419.2z M872,1819.9c32.4,11.2,57.8,136.4,83.5,169.4
		c36.8,47.2,89.1,71.6,144.8,89.5c64.3,20.6,138.2,33.5,211.1,38.4c-32.3,46.9-266.7-33-300.2-52.8c-57-33.7-93.9-85.8-116.6-146.8
		C889.9,1904.7,861.2,1832.6,872,1819.9z M1026.1,1619.8c-0.3,53.3-85.2,53.1-83.7-0.1C940.2,1564.7,1026.4,1566.6,1026.1,1619.8z
		 M1067.8,1814.8c59.4-1,118.9-2.4,178.2-3.2c122.7-1.8,245.3-6.3,368-6.3c-3.9,23.1-34,62.7-46.6,83.2c-12.2,20-30.2,38.5-42,58.8
		c-0.6,1-8.2,27.4-2.9,21.2c-20.4,23.5-98,55.1-144.8,58.3c-93.5,6.5-449.9-80.9-449.9-207.9
		C949,1800.3,1047.1,1815.1,1067.8,1814.8z M800.4,299.8c-18.9,30.8-57.9,7.5-57.9-22.9C764.2,232.6,823.4,262.4,800.4,299.8z
		 M811.7,1765.4c2,42.5-53.2,35.7-62.4,0C757.1,1728.7,809.5,1718.4,811.7,1765.4z M930,2131.2c3.8,3.9,22.5,21.5,17.9,27
		c-65.1,15.3-124.2-129.9-143.5-173.1c-10.8-24-83.2-165.6-28.6-162.9c33.6,1.7,39.3,67.7,51.9,97.9c26,61.7,60.4,126.3,114.8,167.7
		c84.7,64.3,220.9,76,323.6,68.1c34.6-2.7,133-19.3,59.5,13.6c-30.4,13.6-89.5-8.7-113.1,9.3c23.6,13.9,181.8-2.4,173.5,29.8
		c-45.6,23.1-170.5-5.4-224.4-12.8c-34.2-4.7-68.6-10-102.3-18C1025.2,2169.4,959.2,2126.1,930,2131.2z M999.7,2366.1
		c5.3,2.4,197.2-92.2,225.1-101c38.3-12.2,182.2-73.8,206.1-27.9c-35.1,13.5-83.2,15.6-121.2,26c-53,14.5-126,53.8-179.7,55.6
		C1102.8,2330.5,1027.9,2378.8,999.7,2366.1z M1348.2,2373.5c-42.4-1.4-188.6,28-231.6,4.7c19.4-5.3,39.5-8.5,58.7-14.1
		c-32.2-13.6-112.3,44.7-136.2,6.4c123.8-50.1,275.1-39.2,407.9-39.2C1506.1,2390.1,1377.9,2374.5,1348.2,2373.5z M2200.9,2580.2
		c13.3,6-87.6,80.7-123.7,65.8C2097.1,2608.6,2172.1,2614.8,2200.9,2580.2z M2186.4,2542.4c18.2,69-129.9,66-129.9,52.7
		c30.2-22.3-1.2-30.3-0.3-44c21.6-8.6,28.8-2.8,49.5-7.9C2135.3,2536,2162.1,2515.3,2186.4,2542.4z M2211.1,2199.8
		c3.3-29.5,18-59.9,24.7-89.8c26.6,14-39.4,150.3-45,175.2c7.9-0.4,15.2-18.1,23.4-21c45.8,28.4-181.1,170.1-201.9,178.1
		c-77.8,30-166.6,39.5-250.2,43.5c-69.8,3.3-162.5,14.8-228-2.8c-70.2-18.9-5.6-18.7,32.7-21.1c29.8-1.8,227.3-1.7,236.3-26.9
		c-86.9-8.9-171.7-19.1-257.2-37.4c-85.9-18.4-65.8-35.2,4.5-21.9c35.4,6.7,70.3,15.1,105.9,20.6c145.7,22.8,444.6,66.4,507-117.6
		c27.3,2.6,23.7-124.8,5.4-147.4c-82.1,153.3-298.9,221.7-461.7,231.7c-53.2,3.3-108.3,4.8-161.4,0.6c-31.9-2.5-91.9-3.8-40.4-24.5
		c68.3-27.3,178.4,7.9,256.3-1.9c92.7-11.7,181.2-44.6,258.9-96.7c33.6-22.5,122-71.7,125.9-116.9c4.4-51.6-64.1-80.4-111-89
		c-125.3-22.8-271.5,78.1-384.9,117c-21.1,7.2-208.8,63.9-207.2,36.6c37.4-38.5,172.5-47.1,225-66c80.6-28.9,159.7-74.3,243.1-93.9
		c77.2-18.1,176.2-11.6,240.6,44.2c52.1-27.3-136.3-143.4-153.9-150.1c-42.8-16.1-90.8-28.1-135.9-14.3
		c-85.7,26.1-139.6,121.6-217.6,164.5c-15.3,8.4-217.1,84.8-213.8,58.5c37.1-38.4,137-42.9,186.2-67.7
		c50.7-25.6,86.7-62.7,128.2-100.2c58.9-53.2,108-88.1,188.5-76.1c64.2,9.6,147,40.4,193.2,86.7
		C2189.2,2036.2,2175.9,2124,2211.1,2199.8z M1645.7,1806.2c0.2-6.1,165-5.8,176.4-5c-4.7,9-74.4,51.4-90.9,52.2
		C1713.8,1854.3,1659.3,1818.9,1645.7,1806.2z M2152.8,1767.4c-37.5,17.2-57.1-44.8-19-59.1
		C2169.4,1708.3,2190.4,1750.1,2152.8,1767.4z M2133.9,1598c-5.5-50.6,63.8-48.6,78-14.3C2237.9,1646.8,2130,1658.7,2133.9,1598z
		 M2211.9,1213.1c-53.4,167.3-171.6,312.4-327.7,394.1c-13.2,6.9-321.5,109.8-321.5,80c-339.3,0-639.2-260.3-678.9-599.5
		c-70.6-602.6,657.4-999.6,1120.8-604.1C2213.3,661.7,2294.7,953.5,2211.9,1213.1z"/>
	<path class="st1" d="M894.4,2238.6C883,2239.1,892,2231.1,894.4,2238.6z"/>
	<path class="st1" d="M2205.4,2499.8C2205.4,2499.8,2211,2511,2205.4,2499.8z"/>
	<path class="st1" d="M1520.8,2646.1C1519.8,2647.1,1519.9,2645.1,1520.8,2646.1z"/>
	<path class="st1" d="M1590.7,2544C1593.7,2543.9,1592.8,2546.3,1590.7,2544z"/>
	<path class="st1" d="M1561.7,344.2c581.9,0,869.6,735.8,442,1130.9C1571.5,1874.5,854.6,1511,914.8,926.7
		c17.8-172.9,106.3-335.6,243.3-443.3c76-59.8,163.9-100.7,257.8-122.5C1425,358.8,1561.7,334.8,1561.7,344.2z M1070.8,1392.6
		C1067.7,1388.4,1079.4,1401.3,1070.8,1392.6z M1081.4,1405.1c3,48.1,141.8,125.4,178.1,145c26.8,14.5,171.5,91,198.8,66.2
		c-9.6-59-32-60-81.9-77.1c-13.2-4.5-100.7-51.7-107.7-43.7c0.1,15.4-0.1,30.8-0.5,46.3c-49.2,5.5-143.1-101.7-180.9-133.4
		C1077,1399.7,1073,1404.6,1081.4,1405.1z M2058.1,1386.3C2054.4,1388.3,2060.1,1382.3,2058.1,1386.3z M1415.8,1478.9
		c-33.8-26.6-90.3-39-129-61.7c-18.6,57-17,56.9,37.4,82.5c36.1,17,72.3,28,110.8,36.2c30.7,6.5,62.4,12.5,93.7,14.5
		c121.7,8,274-24.9,365-107.8c-20.7-58-210.8,45.7-270.6,53.1C1549.5,1504.9,1487.7,1489.6,1415.8,1478.9z M2068.5,1371.4
		c74.2-45.8,107.7-208,118.9-287.7c8.4-59.2,9.3-123,0.8-182.1C2159.8,704,2029,522.7,1850.4,432c-132.3-67.2-287.9-86.9-432.4-53.1
		c-99.1,23.1-192.6,70.3-269.6,137c-53,45.9-187.2,177.2-173.8,249.2c11.1-9.6,23.2-6.1,36.8-10.2c34.7-10.7,29.9-16.3,52.4-46.6
		c26.7-35.9,62.7-76.7,85.4-114.6c-4.8-3.2-44.5-11.1-44.8-16.7c51.9-57.9,204.7-206.9,290.6-184.1c21.7,5.8,29.7,34.7,53.3,39.1
		c10.8,2,28.2-6,39.8-6.1c31.3-0.3,80.7,2,109.8-4.9c-5.5-14.7-12.2-28.8-20.2-42.4c65.5-18.5,193.3,26.7,249.8,50.1
		c22.4,9.3,69.8,23,81,47.2c9.5,20.5-9.2,40.2-1.8,58.9c8.2,20.7,60.6,51.1,77.2,69c23.8,25.7,41.7,54.8,63.7,81.7
		c6.8-5.7,14.7-35.7,24.7-36.5c41.9,67.7,140.3,214,116.3,304.7c-8.2,30.9-27.6,20.6-45.3,48.1c-8.9,13.8-5.3,31.2-8.6,48.2
		c-8.7,44.5-14.8,86.7-28,130.7c16.2,5,34.8-9.1,50.6-6.7C2137.5,1228.1,2070.6,1341.4,2068.5,1371.4z M1824.8,860.9
		c-3.7-7.7-24.2-50.6-36.4-54.5c-19.3-6.2-11.3,9.5-31.8,14.8c-57.3,14.8-14.6,26.1-67.6,3.1c-7.8-3.4-100.2-41.7-102.5-46.4
		c-8.2-16.2,29.5-58.4,17.8-75.7c-13.7-20.2-44.9,5.6-49.5,12.5c-9,13.5,6.4,46.6-4.2,60c-11.9,15.1-46.5,12.6-66,19.5
		c-84.5,30-53.5,63.2-117.2-21.6c-86.7,54.2,7.1,56.5,11.5,106.6c0.1,1.3-29.5,105.3-32.7,111.3c-22.7,42-21.1-3-63.5,20.8
		c-11.4,6.4-33.8,34.5-7.6,56.4c18.2,15.2,50.1-18.5,70.2-8.9c17.4,8.3,35.5,63.4,50.6,80.9c45,52.1,48.4,26-5.5,94.5
		c64.9,73.1,49.7-20.3,93.5-33.5c8.4-2.6,103.7,6.4,110.9,8.3c6.1,1.6,18.4-8.8,24-5.5c19,11.4,2.6,40.2,15.2,56.2
		c18.5,23.5-1.5,16.8,28.9,12.4c45-6.6,13.2-19.5,16.1-48c3.1-31.2-10.1-20.1,3.4-44.9c6.6-12.2,31-22.4,40.7-32.9
		c18.7-20.3,26.7-59.8,50.4-62.4c60.4-6.5,45,68.1,76-23.4c-87.1-21.1-62.1-25.3-75.1-99.1C1758.7,872.3,1743.7,911.3,1824.8,860.9z
		 M991.5,1073.7c-12.6,10.7-25.8,21.3-39.7,30.1c-26.1-81.8-3.2-174-3.2-256.9c-68.7,65.1-5.4,419.3,64.6,461.2
		C1068.5,1246.3,1012.3,1145.7,991.5,1073.7z M1563.1,1625.2c103.1,26,370.3-58.3,414.9-155.7c-61.2-19.7-51.7-16.1-105.9,10.3
		c-35,17.1-69.5,36.2-104.7,53.1c2.4,15.9,27.1,19.4,34.2,32.9C1722,1596.3,1643.6,1605,1563.1,1625.2z M2037.1,702
		c-7.6-10.9-110.3-157.9-132.1-144.6c-2.6,12-14.5,47.1-11,59.4c9.8,34.9,81.9,93.5,104.6,127.5
		C2013.1,739.9,2030.7,714.2,2037.1,702z M1124.3,746.3c24.1-46.9,60.9-77.8,92.1-118.3c-70.8-60.8-129.2,57.9-154.4,119.9
		C1082.4,748.5,1104,746.3,1124.3,746.3z M1094.4,1183.4c-13.8-47.1-25.1-92.4-34.9-140.6c-54.8,19.5-45.1,22.9-41.7,74.7
		c2.4,36.9,22.7,82.2,39.5,115C1069.7,1216.1,1082,1199.8,1094.4,1183.4z M2086.1,1184c21-28,41-131.1,31.8-167.4
		c-62.7,37-51.8,34.8-68.6,101.4C2034.6,1176.2,2020,1184,2086.1,1184z M1615,493.5c25.8-78.3-137.5-76.2-163.5-43.6
		c35.6,36.1,29,35.9,73.4,43.7C1552.7,498.4,1586.4,493.5,1615,493.5z M1870.7,686.2c28.2,31.3,62.1,122.9,100.5,85.6
		c33.3-32.4-46.2-114.6-81.8-137.2C1883,640,1869.2,676.6,1870.7,686.2z M1195.8,757.5c21.8-32.7,48-59.6,74.9-88.1
		c-42-46.5-55.2-25.2-90,18.6c-12.5,15.7-36.9,39.3-38.4,59.5C1160,751.4,1178,753.9,1195.8,757.5z M1109.4,1169.3
		c39.5-38.7,28.8-36,26.6-83.4c-0.1-1.9-6.7-59.1-9.1-60.7C1049.9,977.3,1083.9,1169.3,1109.4,1169.3z M1864,699.4
		c-46.1,24.1-20.7,110,21.5,123.8C1972.4,851.6,1892.6,718.8,1864,699.4z M2012.7,1177.4c9.4-4.7,42.8-107.5,30.9-128.5
		c-36.8,29.5-34.5,3.5-57.2,43.6c-9.7,17.2-19.2,53.9-23.3,73.3C1969.7,1171,2004.8,1180.6,2012.7,1177.4z M1293.5,1401.8
		c11.5,9.9,104.5,66.4,116,54.7c0-74.6-32.6-59.5-95.1-102.4C1305.5,1369.2,1298.5,1385.1,1293.5,1401.8z M1709.8,1460.3
		c17.4-6.7,110.9-34,112.6-56.2c-40.8-29.1-53.5-38.1-101.1-3.4C1689.7,1423.6,1672.5,1414,1709.8,1460.3z M1280.9,678.6
		c-17.8,15.7-78.5,62.3-70.3,83.9c20.7,53.9,95.6-20.3,110.8-43.4C1310.3,705,1295.1,689.7,1280.9,678.6z M1620.3,563
		c0-46.3,3.8-44.7-34.8-55.9c7.9,2.3-83.3-4.8-85.2,6C1531.6,567.8,1557.3,563,1620.3,563z M1140.1,1023.2
		c1.9,31.3,4.7,74.8,20.4,102.4c30.1-19.3,75.9-53.7,37.4-97.3C1186.4,1015.3,1166.7,1007.5,1140.1,1023.2z M1348.1,1293.4
		c-26.4,45.6-35.2,35,6.1,70c7.4,6.3,50.9,27.9,55,23.8C1415.3,1335.6,1415.9,1306.6,1348.1,1293.4z M1949.5,1163.3
		c9-23.7,34.5-70.2,27.6-96.7c-32.8,0-44.1-0.7-62.2,21.3C1875.5,1135.6,1904.8,1150.6,1949.5,1163.3z M1732.1,1318.9
		c-33.9,15.7-124.6,58.2-38.1,77.2c9.1,2,72.8-28.7,73.5-32.3C1768.9,1356.9,1736.5,1324.7,1732.1,1318.9z M1531.5,574.9
		c8.1,43.2,56.8,92.7,86.7,46.2C1650.7,570.5,1557.6,552.4,1531.5,574.9z M1824,756.6c-28.3,26-49.4,74.4,9,98
		C1918,888.9,1831.5,764.3,1824,756.6z M1315.5,813.9c6-5.8,44.3-45.7,44.4-46.6c0.2-2.3-25.1-40.5-30.2-40.3
		c-8,0.2-40.7,43.1-38,37.4C1273.5,803.6,1275.2,786.6,1315.5,813.9z M1222,1091.7c35.5-10.4,54.5-15.8,38.2-56.3
		c-2.2-5.6,1.5-19.6-3.1-23.3C1206.3,971.1,1196,1068.6,1222,1091.7z M1699.4,1268.2c-26.2,2-96.4,44.7-40.5,67.4
		C1712.6,1357.4,1723,1298,1699.4,1268.2z M1356.4,1282.7c21.3,29.7,60.9,47.5,72.4,13.4C1443.9,1251.5,1380.8,1231.3,1356.4,1282.7
		z M1858.6,1062c-5.6,28.5-19.2,108.3,31.8,65.5C1936.2,1089.1,1890.3,1067.9,1858.6,1062z M1613.6,643.6
		c-15.5-2.7-50.3-8.7-64.7-1.8C1548.8,710.9,1629,708.6,1613.6,643.6z M2061.7,1382.4C2066.3,1377.6,2059.8,1377.2,2061.7,1382.4z"
		/>
	<path class="st1" d="M2036.7,2417.2c-48.7,28.8-295.5,91.3-342.3,53.8C1730.9,2465.6,2039.7,2424.8,2036.7,2417.2z"/>
	<path class="st1" d="M1798.8,2454.7c18.3-6.8,95.9-26,109.4-16.7C1905.4,2448.7,1817,2456.2,1798.8,2454.7z"/>
	<path class="st1" d="M2042.6,2414.8C2035.7,2415.9,2042.2,2412.3,2042.6,2414.8z"/>
	<path class="st0" d="M2163.3,2278.8C2164.4,2276.7,2165.1,2277.1,2163.3,2278.8z"/>
	<path class="st0" d="M2190.9,2285.3C2189.3,2287.7,2189,2286.4,2190.9,2285.3z"/>
	<path class="st0" d="M923.5,2127.1C923.9,2127.1,934.2,2132.7,923.5,2127.1z"/>
	<path class="st0" d="M929.6,2131.6C927.9,2131.3,925.7,2126.8,929.6,2131.6z"/>
	<path class="st0" d="M923.4,2127.2C921.5,2126.3,921.5,2125.3,923.4,2127.2z"/>
	<path class="st0" d="M1748.6,1516.8c-14.1,51.2-351,72.9-332.8-37.9c62.7,9.4,113.2,24.1,178.1,19.3
		C1653.9,1493.7,1714.2,1456.8,1748.6,1516.8z"/>
	<path class="st0" d="M1734,1001c0,238.7-377.1,223.2-350.5-20.6c10.8-99.4,108.1-169.1,205-152.2c42.5,7.4,81.7,29.6,108.5,63.8
		C1703.8,900.7,1748.2,1001,1734,1001z"/>
</g>
</svg>
