<?xml version="1.0" encoding="utf-8"?>
<!-- Generator: Adobe Illustrator 22.0.0, SVG Export Plug-In . SVG Version: 6.00 Build 0)  -->
<svg version="1.1" xmlns="http://www.w3.org/2000/svg" xmlns:xlink="http://www.w3.org/1999/xlink" x="0px" y="0px"
	 viewBox="0 0 3000 3000" style="enable-background:new 0 0 3000 3000;" xml:space="preserve">
<style type="text/css">
	.st0{fill:#68C7C0;}
</style>
<g id="Слой_1">
</g>
<g id="Слой_2">
	<path class="st0" d="M2824.7,1196.9l-2645.5-2.7l-3.1,2.9l1.6,266.8h32.5l0.9,65.6l-35,0v63.6l37-1.1l1.7,66.1h-38.6l0,147.8
		h1427.7l-0.2-73.4l30.3-0.3l-0.2-37.4l-19.3-16.7h-43l-19.2-20.2v-53.8l-21.4-0.4l-0.2-76.6l43.2-0.4l0.3,65h-11.5l-0.6,63.3
		l13.9,13.2h45.4l22.9,20.6l1.1,43.4l-3.2,7.3l-0.2,14.1l-5.7,0.1l-0.1-13.9l-4,0.2l-0.3,64.2l0.1,0v1.8h1191.3l-0.4-155.7
		l-31.9-0.2l-0.2-62.2h32l-1-67.9l-29.5,0l-0.5-62.1h31.9L2824.7,1196.9z M1536.1,1736.9h27.7v62.7h-27.7V1736.9z M626,1352h188.1
		v230H626V1352z M235.3,1799.6h-25.8l0.1-62.7h25.8L235.3,1799.6z M268,1799.6h-24.3v-62.7H268V1799.6z M303.8,1799.6h-27.5v-62.7
		h27.5V1799.6z M310.2,1799.6v-62.7H338l0.1,62.7H310.2z M341.7,1354H523v228.1H341.7V1354z M373.7,1799.6h-27.5v-62.7h27.5V1799.6z
		 M407.9,1799.6h-27.7v-62.7h27.7V1799.6z M443.8,1799.6h-27.6v-62.7h27.6V1799.6z M477.9,1799.6h-27.7v-62.7h27.7V1799.6z
		 M513.8,1799.6h-27.5v-62.7h27.5V1799.6z M547.9,1799.6h-27.8v-62.7h27.8V1799.6z M583.8,1799.6h-27.6v-62.7h27.6V1799.6z
		 M617.9,1799.6h-27.7v-62.7h27.7V1799.6z M653.8,1799.6H626v-62.7h27.8V1799.6z M660.2,1799.6v-62.7h27.6l0.2,62.7H660.2z
		 M723.8,1799.6h-27.6v-62.7h27.6V1799.6z M730.2,1799.6v-62.7H758l0.1,62.7H730.2z M793.7,1799.6h-27.5v-62.7h27.5V1799.6z
		 M800.2,1799.6v-62.7H828l0.1,62.7H800.2z M863.7,1799.6h-27.5v-62.7h27.5V1799.6z M897.8,1799.6h-27.6l-0.1-62.7h27.7V1799.6z
		 M906.1,1799.6v-62.7h27.6l0.2,62.7H906.1z M938.8,1357.3h179.4V1587H938.8V1357.3z M967.9,1799.6h-27.7v-62.7h27.7V1799.6z
		 M1003.8,1799.6h-27.6v-62.7h27.6V1799.6z M1037.9,1799.6h-27.7v-62.7h27.7V1799.6z M1073.8,1799.6h-27.6v-62.7h27.6V1799.6z
		 M1080.2,1799.6v-62.7h27.7l0.4,62.7H1080.2z M1143.9,1799.6h-27.7v-62.7h27.7V1799.6z M1177.8,1799.6h-27.7v-62.7h27.7V1799.6z
		 M1213.8,1799.6h-27.5v-62.7h27.5V1799.6z M1247.9,1799.6h-27.8l0-62.7h27.8V1799.6z M1283.8,1799.6h-27.6v-62.7h27.6V1799.6z
		 M1317.9,1799.6h-27.8v-62.7h27.8V1799.6z M1353.9,1799.6l-27.7,0.3v-63h27.7V1799.6z M1360.2,1799.6v-62.7h27.9l0,62.7H1360.2z
		 M1423.7,1799.6h-27.5v-62.7h27.5V1799.6z M1423.7,1587H1234v-229.7h189.7V1587z M1430.2,1799.6v-62.7h27.8l0.2,62.7H1430.2z
		 M1493.8,1799.6h-27.6v-62.7h27.6V1799.6z M1500.2,1799.6v-62.7h27.8l0,62.7H1500.2z M2444.2,1357.3l0.1,229.7h-167.7l-0.1-229.7
		H2444.2z M1698,1799.6h-27.8v-62.7h0h27.7h0V1799.6z M1731.9,1799.6h-27.8v-62.7h0.1h27.7h0.1V1799.6z M1767.9,1799.6h-27.8v-62.7
		h0.1h27.6h0.1V1799.6z M1801.9,1799.6h-27.8v-62.7h0h27.7h0V1799.6z M1837.9,1799.6h-27.8v-62.7h0h27.8h0V1799.6z M1872,1737.8
		v61.8h-27.8v-62l0-0.7h0h27.8h0L1872,1737.8z M1703.7,1587l0.5-229.7h176.1l-0.5,229.7H1703.7z M1908,1799.6h-27.8v-62.7h0.2h27.3
		h0.2V1799.6z M1941.9,1799.6h-27.8v-62.7h0.1h27.6h0.1V1799.6z M1977.9,1799.6h-27.8v-62.7h0.1h27.7h0.1V1799.6z M2011.9,1799.6
		h-27.8v-62.7h0h27.8h0V1799.6z M2047.9,1799.6h-27.8v-62.7h0.1h27.6h0.1V1799.6z M2081.9,1799.6h-27.8v-62.7h0h27.7h0V1799.6z
		 M2117.9,1737.2v62.3h-27.8v-61.4l0-1.2h0h27.8h0L2117.9,1737.2z M2152,1737.3v62.3h-27.8v-62.4l0-0.3h0h27.8h0L2152,1737.3z
		 M2157.3,1587h-182.2l1.6-229.7h182.2L2157.3,1587z M2187.9,1799.6h-27.8v-62.7h0.1h27.6h0.1V1799.6z M2221.9,1799.6h-27.8v-62.7h0
		h27.7h0V1799.6z M2257.9,1799.6h-27.8v-62.7h0.1h27.6h0.1V1799.6z M2292,1737.5v62h-27.8v-62.3l0-0.3h0h27.8h0L2292,1737.5z
		 M2327.8,1799.6h-27.8v-62.7h0.1h27.6h0.1V1799.6z M2361.9,1799.6h-27.8v-62.7h0.1h27.5h0.1V1799.6z M2397.9,1737.4v62.1h-27.8
		V1739l0-2.1h0h27.8h0L2397.9,1737.4z M2432,1738.4v61.1h-27.8v-61.9l0-0.7h0h27.8h0L2432,1738.4z M2467.9,1799.6h-27.8v-62.7h0
		h27.7h0V1799.6z M2502,1799.6h-27.8v-62.7h0.1h27.6h0.1V1799.6z M2537.9,1799.6h-27.8v-62.7h0h27.7h0V1799.6z M2571.9,1799.6h-27.8
		v-62.7h27.8V1799.6z M2607.8,1799.6H2580v-62.7h0.2h27.5V1799.6z M2641.9,1799.6h-27.8v-62.7h0h27.7h0V1799.6z M2677.9,1737v62.5
		h-27.8v-62.4l0-0.2h0h27.8h0L2677.9,1737z M2712,1738.3v61.3h-27.8v-62.2l0-0.5h0h7.3h20.4h0L2712,1738.3z M2715.1,1587h-167.5
		l0.5-229.7h167.5L2715.1,1587z M2747.8,1799.6h-27.8v-62.7h0.1h27.6h0.1V1799.6z M2781.9,1799.6h-27.8v-62.7h27.8V1799.6z"/>
	<path class="st0" d="M2831.8,400.9l-2645.5-2.7l-3.1,2.9l1.6,266.8h32.5l0.9,65.6l-35,0V797l37-1.1l1.7,66.1h-38.6l0,147.8h1427.7
		l-0.2-73.4l30.3-0.3l-0.2-37.4l-19.3-16.7h-43l-19.2-20.2v-53.8l-21.4-0.4l-0.2-76.6l43.2-0.4l0.3,65h-11.5l-0.6,63.3l13.9,13.2
		h45.4l22.9,20.6l1.1,43.4l-3.2,7.3l-0.2,14.1l-5.7,0.1l-0.1-13.9l-4,0.2l-0.3,64.2l0.1,0v1.8h1191.3l-0.4-155.7l-31.9-0.2
		l-0.2-62.2h32l-1-67.9l-29.5,0l-0.5-62.1h31.9L2831.8,400.9z M1543.3,940.9h27.7v62.7h-27.7V940.9z M633.2,556h188.1v230H633.2V556
		z M242.4,1003.6h-25.8l0.1-62.7h25.8L242.4,1003.6z M275.2,1003.6h-24.3v-62.7h24.3V1003.6z M310.9,1003.6h-27.5v-62.7h27.5V1003.6
		z M317.3,1003.6v-62.7h27.8l0.1,62.7H317.3z M348.8,558h181.3v228.1H348.8V558z M380.9,1003.6h-27.5v-62.7h27.5V1003.6z
		 M415,1003.6h-27.7v-62.7H415V1003.6z M451,1003.6h-27.6v-62.7H451V1003.6z M485.1,1003.6h-27.7v-62.7h27.7V1003.6z M520.9,1003.6
		h-27.5v-62.7h27.5V1003.6z M555,1003.6h-27.8v-62.7H555V1003.6z M590.9,1003.6h-27.6v-62.7h27.6V1003.6z M625,1003.6h-27.7v-62.7
		H625V1003.6z M661,1003.6h-27.8v-62.7H661V1003.6z M667.3,1003.6v-62.7h27.6l0.2,62.7H667.3z M730.9,1003.6h-27.6v-62.7h27.6
		V1003.6z M737.4,1003.6v-62.7h27.8l0.1,62.7H737.4z M800.9,1003.6h-27.5v-62.7h27.5V1003.6z M807.4,1003.6v-62.7h27.8l0.1,62.7
		H807.4z M870.9,1003.6h-27.5v-62.7h27.5V1003.6z M905,1003.6h-27.6l-0.1-62.7H905V1003.6z M913.3,1003.6v-62.7h27.6l0.2,62.7H913.3
		z M946,561.3h179.4V791H946V561.3z M975,1003.6h-27.7v-62.7H975V1003.6z M1011,1003.6h-27.6v-62.7h27.6V1003.6z M1045.1,1003.6
		h-27.7v-62.7h27.7V1003.6z M1080.9,1003.6h-27.6v-62.7h27.6V1003.6z M1087.3,1003.6v-62.7h27.7l0.4,62.7H1087.3z M1151.1,1003.6
		h-27.7v-62.7h27.7V1003.6z M1185,1003.6h-27.7v-62.7h27.7V1003.6z M1220.9,1003.6h-27.5v-62.7h27.5V1003.6z M1255.1,1003.6h-27.8
		l0-62.7h27.8V1003.6z M1290.9,1003.6h-27.6v-62.7h27.6V1003.6z M1325,1003.6h-27.8v-62.7h27.8V1003.6z M1361,1003.6l-27.7,0.3v-63
		h27.7V1003.6z M1367.4,1003.6v-62.7h27.9l0,62.7H1367.4z M1430.9,1003.6h-27.5v-62.7h27.5V1003.6z M1430.9,791h-189.7V561.3h189.7
		V791z M1437.3,1003.6v-62.7h27.8l0.2,62.7H1437.3z M1500.9,1003.6h-27.6v-62.7h27.6V1003.6z M1507.4,1003.6v-62.7h27.8l0,62.7
		H1507.4z M2451.3,561.3l0.1,229.7h-167.7l-0.1-229.7H2451.3z M1705.1,1003.6h-27.8v-62.7h0h27.7h0V1003.6z M1739.1,1003.6h-27.8
		v-62.7h0.1h27.7h0.1V1003.6z M1775,1003.6h-27.8v-62.7h0.1h27.6h0.1V1003.6z M1809,1003.6h-27.8v-62.7h0h27.7h0V1003.6z
		 M1845,1003.6h-27.8v-62.7h0h27.8h0V1003.6z M1879.1,941.8v61.8h-27.8v-62l0-0.7h0h27.8h0L1879.1,941.8z M1710.9,791l0.5-229.7
		h176.1L1887,791H1710.9z M1915.1,1003.6h-27.8v-62.7h0.2h27.3h0.2V1003.6z M1949.1,1003.6h-27.8v-62.7h0.1h27.6h0.1V1003.6z
		 M1985,1003.6h-27.8v-62.7h0.1h27.7h0.1V1003.6z M2019,1003.6h-27.8v-62.7h0h27.8h0V1003.6z M2055,1003.6h-27.8v-62.7h0.1h27.6h0.1
		V1003.6z M2089,1003.6h-27.8v-62.7h0h27.7h0V1003.6z M2125,941.2v62.3h-27.8v-61.4l0-1.2h0h27.8h0L2125,941.2z M2159.1,941.3v62.3
		h-27.8v-62.4l0-0.3h0h27.8h0L2159.1,941.3z M2164.5,791h-182.2l1.6-229.7H2166L2164.5,791z M2195,1003.6h-27.8v-62.7h0.1h27.6h0.1
		V1003.6z M2229,1003.6h-27.8v-62.7h0h27.7h0V1003.6z M2265,1003.6h-27.8v-62.7h0.1h27.6h0.1V1003.6z M2299.1,941.5v62h-27.8v-62.3
		l0-0.3h0h27.8h0L2299.1,941.5z M2335,1003.6h-27.8v-62.7h0.1h27.6h0.1V1003.6z M2369,1003.6h-27.8v-62.7h0.1h27.5h0.1V1003.6z
		 M2405,941.4v62.1h-27.8V943l0-2.1h0h27.8h0L2405,941.4z M2439.1,942.4v61.1h-27.8v-61.9l0-0.7h0h27.8h0L2439.1,942.4z
		 M2475,1003.6h-27.8v-62.7h0h27.7h0V1003.6z M2509.1,1003.6h-27.8v-62.7h0.1h27.6h0.1V1003.6z M2545,1003.6h-27.8v-62.7h0h27.7h0
		V1003.6z M2579,1003.6h-27.8v-62.7h27.8V1003.6z M2614.9,1003.6h-27.8v-62.7h0.2h27.5V1003.6z M2649,1003.6h-27.8v-62.7h0h27.7h0
		V1003.6z M2685.1,941v62.5h-27.8v-62.4l0-0.2h0h27.8h0L2685.1,941z M2719.1,942.3v61.3h-27.8v-62.2l0-0.5h0h7.3h20.4h0
		L2719.1,942.3z M2722.3,791h-167.5l0.5-229.7h167.5L2722.3,791z M2755,1003.6h-27.8v-62.7h0.1h27.6h0.1V1003.6z M2789,1003.6h-27.8
		v-62.7h27.8V1003.6z"/>
	<path class="st0" d="M2832,1992.9l-2645.5-2.7l-3.1,2.9l1.6,266.8h32.5l0.9,65.6l-35,0v63.6l37-1.1l1.7,66.1h-38.6l0,147.8h1427.7
		l-0.2-73.4l30.3-0.3l-0.2-37.4l-19.3-16.7h-43l-19.2-20.2v-53.8l-21.4-0.4l-0.2-76.6l43.2-0.4l0.3,65h-11.5l-0.6,63.3l13.9,13.2
		h45.4l22.9,20.6l1.1,43.4l-3.2,7.3l-0.2,14.1l-5.7,0.1l-0.1-13.9l-4,0.2l-0.3,64.2l0.1,0v1.8h1191.3l-0.4-155.7l-31.9-0.2
		l-0.2-62.2h32l-1-67.9l-29.5,0l-0.5-62.1h31.9L2832,1992.9z M1543.4,2532.9h27.7v62.7h-27.7V2532.9z M633.3,2148h188.1v230H633.3
		V2148z M242.6,2595.6h-25.8l0.1-62.7h25.8L242.6,2595.6z M275.3,2595.6H251v-62.7h24.3V2595.6z M311.1,2595.6h-27.5v-62.7h27.5
		V2595.6z M317.5,2595.6v-62.7h27.8l0.1,62.7H317.5z M349,2150h181.3v228.1H349V2150z M381,2595.6h-27.5v-62.7H381V2595.6z
		 M415.2,2595.6h-27.7v-62.7h27.7V2595.6z M451.1,2595.6h-27.6v-62.7h27.6V2595.6z M485.2,2595.6h-27.7v-62.7h27.7V2595.6z
		 M521.1,2595.6h-27.5v-62.7h27.5V2595.6z M555.2,2595.6h-27.8v-62.7h27.8V2595.6z M591.1,2595.6h-27.6v-62.7h27.6V2595.6z
		 M625.2,2595.6h-27.7v-62.7h27.7V2595.6z M661.1,2595.6h-27.8v-62.7h27.8V2595.6z M667.5,2595.6v-62.7h27.6l0.2,62.7H667.5z
		 M731.1,2595.6h-27.6v-62.7h27.6V2595.6z M737.5,2595.6v-62.7h27.8l0.1,62.7H737.5z M801,2595.6h-27.5v-62.7H801V2595.6z
		 M807.5,2595.6v-62.7h27.8l0.1,62.7H807.5z M871,2595.6h-27.5v-62.7H871V2595.6z M905.1,2595.6h-27.6l-0.1-62.7h27.7V2595.6z
		 M913.4,2595.6v-62.7h27.6l0.2,62.7H913.4z M946.1,2153.3h179.4V2383H946.1V2153.3z M975.2,2595.6h-27.7v-62.7h27.7V2595.6z
		 M1011.1,2595.6h-27.6v-62.7h27.6V2595.6z M1045.2,2595.6h-27.7v-62.7h27.7V2595.6z M1081.1,2595.6h-27.6v-62.7h27.6V2595.6z
		 M1087.5,2595.6v-62.7h27.7l0.4,62.7H1087.5z M1151.2,2595.6h-27.7v-62.7h27.7V2595.6z M1185.1,2595.6h-27.7v-62.7h27.7V2595.6z
		 M1221,2595.6h-27.5v-62.7h27.5V2595.6z M1255.2,2595.6h-27.8l0-62.7h27.8V2595.6z M1291.1,2595.6h-27.6v-62.7h27.6V2595.6z
		 M1325.2,2595.6h-27.8v-62.7h27.8V2595.6z M1361.2,2595.6l-27.7,0.3v-63h27.7V2595.6z M1367.5,2595.6v-62.7h27.9l0,62.7H1367.5z
		 M1431,2595.6h-27.5v-62.7h27.5V2595.6z M1431,2383h-189.7v-229.7H1431V2383z M1437.5,2595.6v-62.7h27.8l0.2,62.7H1437.5z
		 M1501.1,2595.6h-27.6v-62.7h27.6V2595.6z M1507.5,2595.6v-62.7h27.8l0,62.7H1507.5z M2451.5,2153.3l0.1,229.7h-167.7l-0.1-229.7
		H2451.5z M1705.3,2595.6h-27.8v-62.7h0h27.7h0V2595.6z M1739.2,2595.6h-27.8v-62.7h0.1h27.7h0.1V2595.6z M1775.2,2595.6h-27.8
		v-62.7h0.1h27.6h0.1V2595.6z M1809.2,2595.6h-27.8v-62.7h0h27.7h0V2595.6z M1845.2,2595.6h-27.8v-62.7h0h27.8h0V2595.6z
		 M1879.3,2533.8v61.8h-27.8v-62l0-0.7h0h27.8h0L1879.3,2533.8z M1711,2383l0.5-229.7h176.1l-0.5,229.7H1711z M1915.3,2595.6h-27.8
		v-62.7h0.2h27.3h0.2V2595.6z M1949.2,2595.6h-27.8v-62.7h0.1h27.6h0.1V2595.6z M1985.2,2595.6h-27.8v-62.7h0.1h27.7h0.1V2595.6z
		 M2019.2,2595.6h-27.8v-62.7h0h27.8h0V2595.6z M2055.2,2595.6h-27.8v-62.7h0.1h27.6h0.1V2595.6z M2089.2,2595.6h-27.8v-62.7h0h27.7
		h0V2595.6z M2125.2,2533.3v62.3h-27.8v-61.4l0-1.2h0h27.8h0L2125.2,2533.3z M2159.3,2533.3v62.3h-27.8v-62.4l0-0.3h0h27.8h0
		L2159.3,2533.3z M2164.6,2383h-182.2l1.6-229.7h182.2L2164.6,2383z M2195.2,2595.6h-27.8v-62.7h0.1h27.6h0.1V2595.6z
		 M2229.2,2595.6h-27.8v-62.7h0h27.7h0V2595.6z M2265.2,2595.6h-27.8v-62.7h0.1h27.6h0.1V2595.6z M2299.3,2533.5v62h-27.8v-62.3
		l0-0.3h0h27.8h0L2299.3,2533.5z M2335.1,2595.6h-27.8v-62.7h0.1h27.6h0.1V2595.6z M2369.2,2595.6h-27.8v-62.7h0.1h27.5h0.1V2595.6z
		 M2405.2,2533.4v62.1h-27.8V2535l0-2.1h0h27.8h0L2405.2,2533.4z M2439.3,2534.4v61.1h-27.8v-61.9l0-0.7h0h27.8h0L2439.3,2534.4z
		 M2475.2,2595.6h-27.8v-62.7h0h27.7h0V2595.6z M2509.3,2595.6h-27.8v-62.7h0.1h27.6h0.1V2595.6z M2545.2,2595.6h-27.8v-62.7h0h27.7
		h0V2595.6z M2579.2,2595.6h-27.8v-62.7h27.8V2595.6z M2615.1,2595.6h-27.8v-62.7h0.2h27.5V2595.6z M2649.2,2595.6h-27.8v-62.7h0
		h27.7h0V2595.6z M2685.2,2533v62.5h-27.8v-62.4l0-0.2h0h27.8h0L2685.2,2533z M2719.3,2534.3v61.3h-27.8v-62.2l0-0.5h0h7.3h20.4h0
		L2719.3,2534.3z M2722.4,2383h-167.5l0.5-229.7h167.5L2722.4,2383z M2755.1,2595.6h-27.8v-62.7h0.1h27.6h0.1V2595.6z
		 M2789.2,2595.6h-27.8v-62.7h27.8V2595.6z"/>
</g>
</svg>
