<?xml version="1.0" encoding="utf-8"?>
<!-- Generator: Adobe Illustrator 22.0.0, SVG Export Plug-In . SVG Version: 6.00 Build 0)  -->
<svg version="1.1" id="Слой_1" xmlns="http://www.w3.org/2000/svg" xmlns:xlink="http://www.w3.org/1999/xlink" x="0px" y="0px"
	 viewBox="0 0 3000 3000" style="enable-background:new 0 0 3000 3000;" xml:space="preserve">
<style type="text/css">
	.st0{fill:#68C6BF;}
	.st1{opacity:0.3;fill:#68C6BF;}
</style>
<g>
	<path class="st0" d="M871.3,1507.5c194.2,64.9,409.2,76.7,612.3,70.8c107.6-3.1,215.3-12.9,321.1-33.1
		c77.3-14.8,156.1-34.3,226.9-69.6c40.8-20.3,100.6-55.5,98.8-108.7c-1.2-34.4-29.3-60.7-55.6-79.1c-45.2-31.7-99.3-51-151.9-66.5
		c-21.9,27.1-41.2,57.5-59.8,86.9c-18.4,29.2-45.5,89.2-83.5,93.1c-48.8,4.9-99.2,2.1-148.3,2c-55.4-0.1-110.8-0.2-166.2-0.4
		c-101.7-0.2-203.2-0.8-304.9-1.9c-52.1-0.6-104.4,2.7-156.5-1c-2-0.1-4.2-0.2-6.5-0.3c-17.5,1.2-35,2.1-52.5,2.4
		c-47.2,0.7-96-3.9-140.4-21c-34.7-13.4-66.1-33.5-91.3-60.8C636.7,1414.9,803.2,1484.7,871.3,1507.5z"/>
	<path class="st0" d="M1412.1,2360.9c-352.9,0-646.3-74.5-706.9-172.6c-7.5,12.2-11.5,24.8-11.5,37.7v303.2
		c0,116.1,321.6,210.3,718.4,210.3s718.4-94.1,718.4-210.3V2226c0-12.9-3.9-25.4-11.5-37.7
		C2058.4,2286.4,1764.9,2360.9,1412.1,2360.9z"/>
	<path class="st0" d="M1412.1,1624c-396.8,0-718.4-94.1-718.4-210.3v258.5c0,116.1,321.6,210.3,718.4,210.3s718.4-94.1,718.4-210.3
		v-258.5C2130.5,1529.9,1808.9,1624,1412.1,1624z"/>
	<path class="st0" d="M2196.1,303.5c-103.5,109.1-482.3,533.3-482.3,533.3s-108.2-56.1-193.4-15.9c-16.4,7.7-38.8,31.8-65.5,65.9
		l479.6,230.3c13.2-28.2,21.6-52.7,21.6-69.4c0-77.1-102.8-145.6-102.8-145.6l436.9-552.6C2330.5,312.3,2294.6,199.6,2196.1,303.5z"
		/>
	<path class="st0" d="M1311.5,1369.1l26.5-26c5.4-4.9,10.5-10,15.5-15.3l196.8-193.4L1402.9,1369h181.2l152.6-159.6L1612.1,1369
		h164.2c0,0,97.7-132.5,149.1-233.1l-481.9-231.4c-0.6-0.1-1.1-0.4-1.6-0.8c-113.2,149.8-292.7,445.7-427.5,465.3
		c80.3,0,115,0,115,0h182.1V1369.1z"/>
	<path class="st0" d="M1412.1,2311c396.8,0,718.4-94.1,718.4-210.3v-303.2c0-14.9-5.3-29.4-15.3-43.4
		c-68.3,95.3-357.1,166.9-703.1,166.9s-634.8-71.6-703.1-166.9c-10,14-15.3,28.5-15.3,43.4v303.2
		C693.7,2216.8,1015.3,2311,1412.1,2311z M1446.1,1945h71.7c15.8,0,26.8,3.1,33,9.2s10.2,13,11.8,20.6c0.8,3.3,1.3,6.6,1.4,10
		s0.2,6.5,0.2,9.2c0,0.3,0,0.5,0,0.8v75.8c0,12.2-2.8,21.1-8.4,26.7c-5.6,5.6-11.8,9.3-18.5,11.2c-2.7,0.5-5.4,1-7.9,1.2
		c-2.6,0.3-5,0.4-7.1,0.4v3.3c2.2,0,4.5,0.1,6.9,0.4c2.4,0.3,4.9,0.7,7.3,1.2c7.3,1.6,14,5,20,10s9,12.7,9,23v92.1
		c0,15.5-3.1,26.5-9.4,33s-13.2,10.6-20.8,12.2c-3,0.8-6,1.4-9.2,1.6c-3.1,0.3-6,0.4-8.8,0.4H1446V1945H1446.1z M1286.8,1945h75.8
		c2.4,0,5,0.1,7.7,0.2s5.6,0.6,8.6,1.4c6.8,1.6,13,5.6,18.7,12s8.6,17.6,8.6,33.6v246.6v0.4c0,2.4-0.1,5.6-0.4,9.6
		c-0.3,3.9-1.1,8.1-2.4,12.4c-2.2,6.5-6.3,12.5-12.2,17.9c-6,5.4-15.6,8.2-28.9,8.2h-75.4L1286.8,1945L1286.8,1945z"/>
	<path class="st0" d="M1500.7,2123.6h-6.1v132.1h5.3c4.3,0,8.3-1.4,11.8-4.1c3.5-2.7,5.3-7.3,5.3-13.9v-93.3c0-7.6-1.7-13-5.1-16.1
		C1508.6,2125.1,1504.8,2123.6,1500.7,2123.6z"/>
	<path class="st0" d="M1512,1980.9c-3.4-3-7.4-4.5-12-4.5h-5.3v117h4.9c6.2,0,10.7-1.3,13.4-3.9c2.7-2.6,4.1-6.5,4.1-11.6v-84.4
		C1517.1,1988.1,1515.4,1983.9,1512,1980.9z"/>
	<path class="st0" d="M1356.9,1987c-0.8-2.7-2.3-5.2-4.5-7.3c-2.2-2.2-5.7-3.3-10.6-3.3h-6.5v279.2h6.9c4.3,0,8-1.6,11-4.7
		c3-3.1,4.5-7.7,4.5-13.7v-243.7c0-0.8-0.1-1.8-0.2-3.1C1357.4,1989.3,1357.2,1988.1,1356.9,1987z"/>
</g>
<path class="st1" d="M1924,1438.3c69-14.3,137-33.3,204.5-53.7v-19c0-116.1-321.6-210.3-718.4-210.3s-718.4,94.1-718.4,210.3v11.2
	c22.5,18.5,44.7,37.3,67.7,55.2C788.4,1454.1,1903.2,1442.6,1924,1438.3z"/>
</svg>
