<?xml version="1.0" encoding="utf-8"?>
<!-- Generator: Adobe Illustrator 22.0.0, SVG Export Plug-In . SVG Version: 6.00 Build 0)  -->
<svg version="1.1" id="Слой_1" xmlns="http://www.w3.org/2000/svg" xmlns:xlink="http://www.w3.org/1999/xlink" x="0px" y="0px"
	 viewBox="0 0 3000 3000" style="enable-background:new 0 0 3000 3000;" xml:space="preserve">
<style type="text/css">
	.st0{fill:#68C5BE;}
</style>
<g>
	<path class="st0" d="M2069.9,225.3H930.1c-77.5,0-141,63.4-141,141v2267.5c0,77.5,63.4,141,141,141h1139.8c77.5,0,141-63.4,141-141
		V366.2C2210.9,288.7,2147.4,225.3,2069.9,225.3z M1783.7,311.7c7.4-7.4,18.5-12,29-12c23,0,40,18.8,41,41c0.5,10.2-4.9,21.9-12,29
		c-7.4,7.4-18.5,12-29,12c-23,0-40-18.8-41-41C1771.3,330.5,1776.6,318.8,1783.7,311.7z M1281,334.7c0-6.6,5.4-12,12-12h414
		c6.6,0,12,5.4,12,12v12c0,6.6-5.4,12-12,12h-414c-6.6,0-12-5.4-12-12V334.7z M1143.7,313.7c7.4-7.4,18.5-12,29-12
		c23,0,40,18.8,41,41c0.5,10.2-4.9,21.9-12,29c-7.4,7.4-18.5,12-29,12c-23,0-40-18.8-41-41C1131.3,332.5,1136.6,320.8,1143.7,313.7z
		 M2174.9,2582.8c0,77.5-63.4,141-141,141H966.1c-77.5,0-141-63.4-141-141V600.2c0-77.5,63.4-141,141-141h1067.8
		c77.5,0,141,63.4,141,141V2582.8z"/>
	<path class="st0" d="M838.7,2605.9c0.4,0.3,0.7,0.7,1.1,1c6.2,18,40.6,104.7,132.1,104.7c102,0,981,0,1042.4,0
		c57.7,0,129-38.3,137.6-103.8c0.3-0.6,0.6-1.2,0.9-1.7v-99.5h-1314V2605.9z M1815.7,2562.9v48.2v44.3l-60.1-44.3L1815.7,2562.9z
		 M1500,2562.9c25.5,0,46.2,20.7,46.2,46.2s-20.7,46.2-46.2,46.2c-25.5,0-46.2-20.7-46.2-46.2S1474.5,2562.9,1500,2562.9z
		 M1176.3,2571.2h75.9v75.9h-75.9V2571.2z"/>
	<polygon class="st0" points="982.2,1510.5 1056.2,1855.5 1175.2,1855.5 1175.2,1015.5 1056.2,1015.5 1056.2,1399.5 982.2,1015.5 
		863.2,1015.5 863.2,1855.5 982.2,1855.5 	"/>
	<polygon class="st0" points="1533.2,1777.5 1371.2,1777.5 1371.2,1456.5 1531.2,1456.5 1531.2,1379.5 1371.2,1379.5 1371.2,1092.5 
		1531.2,1092.5 1531.2,1015.5 1252.2,1015.5 1252.2,1855.5 1533.2,1855.5 	"/>
	<polygon class="st0" points="2008.2,1628.5 1964.2,1015.5 1785.2,1015.5 1741.2,1628.5 1708.2,1015.5 1582.2,1015.5 1657.2,1855.5 
		1831.2,1855.5 1875.2,1252.5 1918.2,1855.5 2092.2,1855.5 2168.2,1015.5 2041.2,1015.5 	"/>
</g>
</svg>
