<?xml version="1.0" encoding="utf-8"?>
<!-- Generator: Adobe Illustrator 22.0.0, SVG Export Plug-In . SVG Version: 6.00 Build 0)  -->
<svg version="1.1" xmlns="http://www.w3.org/2000/svg" xmlns:xlink="http://www.w3.org/1999/xlink" x="0px" y="0px"
	 viewBox="0 0 3000 3000" style="enable-background:new 0 0 3000 3000;" xml:space="preserve">
<style type="text/css">
	.st0{fill:#68C6BF;}
</style>
<g id="Слой_2">
</g>
<g id="Слой_1">
	<g>
		<path class="st0" d="M324,184v2632h2352V184H324z M2299,208.5c0-6.6,5.4-12,12-12h118.5c6.6,0,12,5.4,12,12V327
			c0,6.6-5.4,12-12,12H2311c-6.6,0-12-5.4-12-12V208.5z M2137.5,208.5c0-6.6,5.4-12,12-12H2268c6.6,0,12,5.4,12,12V327
			c0,6.6-5.4,12-12,12h-118.5c-6.6,0-12-5.4-12-12V208.5z M2603,2749H397V349h2206V2749z M2603,327c0,6.6-5.4,12-12,12h-118.5
			c-6.6,0-12-5.4-12-12V208.5c0-6.6,5.4-12,12-12H2591c6.6,0,12,5.4,12,12V327z"/>
		<path class="st0" d="M2582.1,217.1L2582.1,217.1c-4.1-4.1-10.8-4.1-14.8,0l-35.7,35.7l-35.4-35.4c-4.1-4.1-10.8-4.1-14.8,0v0
			c-4.1,4.1-4.1,10.8,0,14.8l35.4,35.4l-35.4,35.4c-4.1,4.1-4.1,10.8,0,14.8c4.1,4.1,10.8,4.1,14.8,0l35.4-35.4l35.7,35.7
			c4.1,4.1,10.8,4.1,14.8,0c4.1-4.1,4.1-10.8,0-14.8l-35.7-35.7l35.7-35.7C2586.2,227.9,2586.2,221.2,2582.1,217.1z"/>
		<path class="st0" d="M2158.4,278H2259c5.8,0,10.5-4.7,10.5-10.5c0-5.8-4.7-10.5-10.5-10.5h-100.6c-5.8,0-10.5,4.7-10.5,10.5
			C2147.9,273.3,2152.7,278,2158.4,278z"/>
		<path class="st0" d="M2321.5,328.2h75.6c4.3,0,7.9-3.6,7.9-7.9v-22h22c4.3,0,7.9-3.6,7.9-7.9v-75.6c0-4.3-3.6-7.9-7.9-7.9h-75.6
			c-4.3,0-7.9,3.6-7.9,7.9v22h-22c-4.3,0-7.9,3.6-7.9,7.9v75.6C2313.6,324.7,2317.2,328.2,2321.5,328.2z M2359.3,222.7h59.8v59.8
			H2405v-37.8c0-4.3-3.6-7.9-7.9-7.9h-37.8V222.7z M2329.4,252.6h59.8v59.8h-59.8V252.6z"/>
		<path class="st0" d="M480.3,499.9h2039.5c6.6,0,12-5.4,12-12v-72c0-6.6-5.4-12-12-12H480.3c-6.6,0-12,5.4-12,12v72
			C468.3,494.5,473.7,499.9,480.3,499.9z M489,428.7c0-6.6,5.4-12,12-12h1998c6.6,0,12,5.4,12,12v46.4c0,6.6-5.4,12-12,12H501
			c-6.6,0-12-5.4-12-12V428.7z"/>
		<path class="st0" d="M755.4,1994.8c34.2,77.8,74.7,148.7,119.8,210.7l-57.3,112.3l87.3,44.5l37.7-73.8
			c135.1,147,297.9,220.5,449.9,183c280.8-69.3,418.1-491.8,306.5-943.6s-429.6-761.9-710.4-692.6S570.7,1327,682.2,1778.8
			c7.8,31.5,16.6,62.3,26.3,92.3L420,2436.6l87.3,44.5L755.4,1994.8z M1017.7,952.7c240.5-59.4,512.9,206.2,608.4,593.2
			c95.5,387-22,748.8-262.5,808.2c-240.5,59.4-512.9-206.2-608.4-593.2C659.7,1373.9,777.2,1012,1017.7,952.7z"/>
		<path class="st0" d="M2177.3,1275.4c-192.6,4.5-349.2,190.8-345.6,406.7c3.8,228.7,183.8,409,385.5,389.8
			c194.3-18.6,323.6-205.7,323.6-417C2520.9,1441.3,2374.8,1270.7,2177.3,1275.4z M2424.8,1784.9c-12.1,0.5-18.4-59.5-16-69.9
			C2414.5,1722.9,2434.7,1784.4,2424.8,1784.9z M2489.3,1725.6c-6.8,52-25.1,102.5-51.8,145.5c-7.6-17.5,38.6-114.1,14.7-118.7
			c0-9.2-9.4-38-21-32.7c0.6-14.3-21.3-31-12.7-45.6c5.2-8.8,59.3,11.7,47.5-27.3c3-9.6,21.7,17.3,23.8,21.3
			C2497.1,1681.9,2491.1,1711.6,2489.3,1725.6z M2435.4,1647.9c31.5-19.3,7.8,11.9,8.1,11
			C2436.1,1659.2,2433.4,1655.5,2435.4,1647.9z M2490.8,1638.5c-10.4-13.6-19.4-18.9-34.3-25c15.3-16.9,18.1-37,15.4-60
			C2484.4,1561.6,2491.6,1624.6,2490.8,1638.5z M2457.5,1545.8c-5,31.4-33.1,56.3-47.3,83.1c-5.5,10.4-24,55.1-30.7,6.4
			c-1.8-13.3,10.6-21,13.6-31.5c19.5-66.3-63.9-137.4-84.6-68.4c-7.8-2.8,1-43,1.7-44.5c10.5-22.3,11.4-4.6,21.2-13.7
			c16.4-15.1,21.6-44.6,40.4-43.4c-19.5,37,57.6,21.4,6.2-19.1c-32.7-25.7-56.5,5.5-69.7,32.8c-21.6,44.8-21.9,80.8-4.2,127.4
			c-23.3-5.2-57.7-60.3-44.5-86.1c10.4-20.4,25.2,4.7,29.9-8.9c5.4-15.5-14.4-24.7-22.8-28.8c13.1-27.2-28.7-47.2-28.7-3.2
			c-14.8-3.3-23.9,10.8-23.3,25.9c0.5,11,14.3-4.4,15.1-2.5c17.4,39.7,22.5,74.1,54.9,108.8c-40.7,12.5-39.7-48.4-56.7-51.3
			c-15.5-2.7,2.5,56.9,19.5,60.9c-23.1,24.7-37.2,55.5-24,91.7c3.2,8.7,13.8,36.2,14.7,37.9c7.8,15.2-0.4,15.4,13.6,25.8
			c-11-8.2,47.6,9.8,39.1,15.8c10.6-7.5,8-23.4,3.8-36.9c-8.9-28.7-30.5-65.7-45-29.3c-13.9-2.6-15.1-63.2-4.7-62.5
			c0.2,1,1,25.4,7.7,24.7c38.6-4.2,21-38.3,39.9-53.6c16.8,11.4,43.8,9.4,57.5,29.6c7.4,10.9,8.7,61.7,29.6,56.6
			c5.4-1.3-8.2-18.9,0.1-23c4.7,7.2,9.4,13.5,11.4,20.6c-0.9,0.8-1.3,0.3-1.2-1.5c-4.7,6-0.1,11.6-1.4,17.9
			c-0.3-3.6-19.6-6-19.4-3.5c1.6,24.1,38.4,110.3,53,123.7c0,11.7-5.5,52.2-14.5,63.1c-10.7,12.9-25.2,8.5-37.2,19.8
			c-7.7,7.3-1.3,26.5-13.8,30.5c-1.4,0.4-8-28.9-13.7-20c-23.6,36.7-35.1,82.5-83.4,91c11.1-54.3-25.2-7.4-45.2,0.7
			c-61.6,25-140.4-7-193-45.1c-39.7-28.7-167.9-173.9-100.8-221.9c-8-7.3-28.1,9.4-31.7,12.1c2.4-72.8,44.5-12.8,56.1-36.4
			c0.8-1.6-10.9-34.2-17.3-39.2c-18.7-14.5-39,11.9-46.9,9.1c-15.6-172.3,114.4-329.4,259.8-354.6c79.4-13.8,162.3,9.1,227.1,62.5
			C2405.3,1426.5,2466.9,1486.1,2457.5,1545.8z M2365.1,1604.1c-19.3,16.5-35.6-20.1-37.1-44.5
			C2341.3,1505.2,2397.8,1576.1,2365.1,1604.1z M2263.3,1631.6c0-5.1,0.5-16.5,4.7-19.7C2275.5,1606.3,2263.7,1630.5,2263.3,1631.6z
			"/>
		<path class="st0" d="M2182.2,1531.6c-6.5-21.7-23.1-26.4-30.2-41.2c-9.5-20.2-2.5-80.2-34-34.7c-18,26,15.2,33.2-12.1,32.4
			c-29-0.9,3-15.3-12-31.6c-8.7-9.6-9-28.3-26.9-13.1c-31.2,26.5,24.9,44.6-27.3,44.6c0-14.7,1.2-68.9-26.6-44.9
			c-11.4,9.8,2.3,38.9-4.7,45.2c-7.5,6.8-26.3-5.1-34.9,0.5c-48.6,31.2,25.7,29.7,32,36c12.6,12.5,2.7,108.7,2.7,130.3
			c-13.4,0-50.4-7.8-49.1,19c1.5,29.5,28.9,8.4,40.1,18.1c20.4,17.6,9.1,105.1,9.1,141.9c0,16-7.6,58.5,4.6,70
			c26.2,24.8,25.9-26.4,26.8-38.4c4.1-57,0.1-116.2,0.1-173.4c42.1,0,6.6,51.9,41,50c14.5-0.8,12.6-82.7,37-46.5
			c5.5,8.2-5.2,67.8,27,41.3c12.1-9.9-1.6-32.1,4.5-43c8.2-14.7,23.6-15.3,32.3-34.8c6.6-14.7,3.9-39,4.1-54.1
			C2186.3,1581.7,2188.9,1554,2182.2,1531.6z M2149.3,1654.5c-8.2,11-92.9,0.8-109.3,0.8c0-30.7,0-61.4,0-92.1
			c0-31.7-5.7-30.3,14.3-39.6c15.2-7.1,80.6-8,94.3,6.6C2159.8,1542.1,2161.5,1638.1,2149.3,1654.5z"/>
		<path class="st0" d="M1105.7,2071.8c150.1,19.3,284.2-161,287-389.8c2.7-215.9-113.9-402.2-257.3-406.7
			c-147.1-4.6-255.9,165.9-270.6,379.4C864.8,1866,961,2053.2,1105.7,2071.8z M916,1553.5c-2,23,0,43.1,11.4,60
			c-11.1,6.1-17.8,11.3-25.5,25C901.3,1624.6,906.7,1561.6,916,1553.5z M930.7,1752.4c-17.8,4.7,16.6,101.3,10.9,118.7
			c-19.9-43-33.5-93.5-38.6-145.5c-1.4-14-5.8-43.7-0.3-57.5c1.5-3.9,15.5-30.8,17.7-21.3c-8.8,38.9,31.5,18.5,35.4,27.3
			c6.4,14.5-9.9,31.2-9.4,45.6C937.8,1714.4,930.7,1743.1,930.7,1752.4z M943.2,1647.9c1.5,7.6-0.5,11.2-6,11
			C937.3,1659.8,919.8,1628.6,943.2,1647.9z M951.1,1784.9c-7.4-0.4,7.7-62,11.9-69.9C964.8,1725.3,960.1,1785.4,951.1,1784.9z
			 M964,1886.8c-6.7-10.8-10.8-51.4-10.8-63.1c10.9-13.4,38.3-99.6,39.5-123.7c0.1-2.5-14.3-0.1-14.5,3.5c-1-6.3,2.4-11.9-1.1-17.9
			c0,1.8-0.3,2.3-0.9,1.5c1.5-7.1,5-13.4,8.5-20.6c6.2,4.2-4,21.7,0.1,23c15.6,5.1,16.5-45.7,22.1-56.6
			c10.2-20.2,30.3-18.2,42.8-29.6c14.1,15.4,1,49.4,29.7,53.6c5,0.7,5.6-23.7,5.7-24.7c7.7-0.6,6.8,59.9-3.5,62.5
			c-10.8-36.4-26.8,0.6-33.5,29.3c-3.1,13.5-5,29.4,2.8,36.9c-6.3-6,37.4-24,29.1-15.8c10.4-10.4,4.3-10.6,10.1-25.8
			c0.7-1.7,8.6-29.2,10.9-37.9c9.8-36.2-0.6-67-17.9-91.7c12.7-4,26-63.6,14.5-60.9c-12.7,2.9-11.9,63.8-42.2,51.3
			c24.2-34.7,28-69.1,40.9-108.8c0.6-1.9,10.9,13.5,11.2,2.5c0.5-15-6.3-29.2-17.3-25.9c0-44.1-31.1-24-21.4,3.2
			c-6.2,4.1-21,13.3-17,28.8c3.5,13.6,14.5-11.5,22.3,8.9c9.8,25.8-15.8,80.9-33.1,86.1c13.2-46.5,12.9-82.6-3.2-127.4
			c-9.8-27.3-27.5-58.5-51.9-32.8c-38.3,40.5,19.1,56,4.6,19.1c14-1.1,17.8,28.4,30.1,43.4c7.3,9,8-8.7,15.8,13.7
			c0.5,1.4,7,41.7,1.2,44.5c-15.4-69-77.5,2-63,68.4c2.3,10.5,11.5,18.2,10.2,31.5c-5,48.7-18.7,4-22.8-6.4
			c-10.6-26.9-31.6-51.8-35.2-83.1c-7-59.7,38.9-119.3,67.1-150.6c48.2-53.4,110-76.3,169.1-62.5c108.2,25.2,205,182.3,193.4,354.6
			c-5.9,2.8-21-23.6-34.9-9.1c-4.8,5-13.5,37.7-12.9,39.2c8.7,23.5,40-36.4,41.8,36.4c-2.7-2.7-17.7-19.4-23.6-12.1
			c49.9,48-45.5,193.1-75,221.9c-39.2,38.1-97.8,70.1-143.7,45.1c-14.9-8.1-41.9-55-33.7-0.7c-35.9-8.5-44.5-54.3-62.1-91
			c-4.3-8.9-9.2,20.5-10.2,20c-9.3-4-4.5-23.2-10.3-30.5C982.8,1895.3,971.9,1899.7,964,1886.8z M1023.2,1559.6
			c-1.2,24.5-13.3,61-27.6,44.5C971.2,1576.1,1013.2,1505.2,1023.2,1559.6z M1067.9,1611.9c3.2,3.2,3.5,14.6,3.5,19.7
			C1071.1,1630.5,1062.2,1606.3,1067.9,1611.9z"/>
		<path class="st0" d="M1132,1659.1c6.5,19.5,17.9,20.1,24.1,34.8c4.5,10.9-5.6,33,3.3,43c24,26.5,16-33.1,20.1-41.3
			c18.2-36.2,16.8,45.7,27.6,46.5c25.6,1.9-0.8-50,30.5-50c0,57.2-3,116.4,0.1,173.4c0.6,12,0.5,63.2,20,38.4
			c9.1-11.5,3.4-54,3.4-70c0-36.8-8.4-124.3,6.8-141.9c8.4-9.7,28.8,11.4,29.9-18.1c1-26.8-26.5-19-36.5-19
			c0-21.6-7.3-117.8,2-130.3c4.7-6.3,60-4.8,23.9-36c-6.4-5.5-20.4,6.3-26-0.5c-5.2-6.3,4.9-35.4-3.5-45.2
			c-20.7-24-19.8,30.2-19.8,44.9c-38.9,0,2.9-18.1-20.3-44.6c-13.3-15.2-13.5,3.5-20,13.1c-11.1,16.4,12.7,30.8-8.9,31.6
			c-20.3,0.8,4.4-6.4-9-32.4c-23.4-45.4-18.2,14.5-25.3,34.7c-5.2,14.9-17.6,19.5-22.5,41.2c-5,22.4-3.1,50.1-2.8,73.4
			C1129.1,1620,1127.1,1644.4,1132,1659.1z M1156.7,1530.2c10.2-14.6,58.9-13.8,70.2-6.6c14.9,9.4,10.6,7.9,10.6,39.6
			c0,30.7,0,61.4,0,92.1c-12.2,0-75.2,10.2-81.4-0.8C1147.1,1638.1,1148.4,1542.1,1156.7,1530.2z"/>
	</g>
</g>
</svg>
