<?xml version="1.0" encoding="utf-8"?>
<!-- Generator: Adobe Illustrator 22.0.0, SVG Export Plug-In . SVG Version: 6.00 Build 0)  -->
<svg version="1.1" id="Слой_1" xmlns="http://www.w3.org/2000/svg" xmlns:xlink="http://www.w3.org/1999/xlink" x="0px" y="0px"
	 viewBox="0 0 3000 3000" style="enable-background:new 0 0 3000 3000;" xml:space="preserve">
<style type="text/css">
	.st0{fill:#68C6BF;}
</style>
<g id="Слой_2_1_">
</g>
<g>
	<path class="st0" d="M324,184v2632h2352V184H324z M2299,208.5c0-6.6,5.4-12,12-12h118.5c6.6,0,12,5.4,12,12V327c0,6.6-5.4,12-12,12
		H2311c-6.6,0-12-5.4-12-12V208.5z M2137.5,208.5c0-6.6,5.4-12,12-12H2268c6.6,0,12,5.4,12,12V327c0,6.6-5.4,12-12,12h-118.5
		c-6.6,0-12-5.4-12-12V208.5z M2603,2749H397V349h2206V2749z M2603,327c0,6.6-5.4,12-12,12h-118.5c-6.6,0-12-5.4-12-12V208.5
		c0-6.6,5.4-12,12-12H2591c6.6,0,12,5.4,12,12V327z"/>
	<path class="st0" d="M2546.4,267.6l35.7-35.7c4.1-4,4.1-10.7,0-14.8c-4.1-4.1-10.8-4.1-14.8,0l-35.7,35.7l-35.4-35.4
		c-4.1-4.1-10.8-4.1-14.8,0c-4.1,4.1-4.1,10.8,0,14.8l35.4,35.4l-35.4,35.4c-4.1,4.1-4.1,10.8,0,14.8c4.1,4.1,10.8,4.1,14.8,0
		l35.4-35.4l35.7,35.7c4.1,4.1,10.8,4.1,14.8,0c4.1-4.1,4.1-10.8,0-14.8L2546.4,267.6z"/>
	<path class="st0" d="M2158.4,278H2259c5.8,0,10.5-4.7,10.5-10.5s-4.7-10.5-10.5-10.5h-100.6c-5.8,0-10.5,4.7-10.5,10.5
		S2152.7,278,2158.4,278z"/>
	<path class="st0" d="M2321.5,328.2h75.6c4.3,0,7.9-3.6,7.9-7.9v-22h22c4.3,0,7.9-3.6,7.9-7.9v-75.6c0-4.3-3.6-7.9-7.9-7.9h-75.6
		c-4.3,0-7.9,3.6-7.9,7.9v22h-22c-4.3,0-7.9,3.6-7.9,7.9v75.6C2313.6,324.7,2317.2,328.2,2321.5,328.2z M2359.3,222.7h59.8v59.8
		H2405v-37.8c0-4.3-3.6-7.9-7.9-7.9h-37.8V222.7z M2329.4,252.6h59.8v59.8h-59.8V252.6z"/>
	<path class="st0" d="M480.3,499.9h2039.5c6.6,0,12-5.4,12-12v-72c0-6.6-5.4-12-12-12H480.3c-6.6,0-12,5.4-12,12v72
		C468.3,494.5,473.7,499.9,480.3,499.9z M489,428.7c0-6.6,5.4-12,12-12h1998c6.6,0,12,5.4,12,12v46.4c0,6.6-5.4,12-12,12H501
		c-6.6,0-12-5.4-12-12V428.7z"/>
	<path class="st0" d="M1499.7,660c-369.9,0-709.6,237.5-836.3,585.2c-128.1,351.6-16.6,756,272.4,993
		c289.4,237.3,709.7,266.4,1028.8,70.5c314.5-193.1,479.6-570.5,407.9-932.6C2291.2,964.7,1918.8,660,1499.7,660z M888.8,1486.6
		c-39.1-36.3,5.3-73,30.5-98.2c36.4-36.4,72.7-72.7,109.1-109.1c21.4-21.4,33.8-21.2,12.1-42.8c-35.3-35.3-70.7-70.7-106-106
		c-23.3-23.3-71.3-56-58.1-94.4c19.4-56.3,71-25.1,98.1,2c35.2,35.2,70.4,70.4,105.5,105.5c8.3,8.3,25.4,33.6,36.8,36.8
		c12.5,3.4-0.1,4.2,14.1-3.7c13.7-7.7,27.3-27.3,38.3-38.3c20.1-20.1,40.2-40.2,60.3-60.3c21-21,48.8-61.9,78.5-71.9
		c31.5-10.7,65.4,16.6,61.8,49.8c-1.9,17.5-13.8,27.6-25,39.2c-33.1,34.3-67.5,67.5-101.2,101.2c-11.1,11.1-54.5,44-53.1,57.8
		c0.8,8.2,29,29,34.6,34.6c18.7,18.7,37.5,37.5,56.2,56.2c24.6,24.6,53.9,48.2,75.5,75.5c40.4,51.1-24.1,101.7-70.3,62.1
		c-37.7-32.3-71.2-71.2-106.3-106.3c-14-14-31.7-40.2-49.3-49.3c-16.2-8.4-1-9-16.6-1.3C1067.3,1348.7,952.2,1550,888.8,1486.6z
		 M2009.3,2065.8c-24,45.4-78.6,19.6-89.3-18.7c-11.6-41.3-16.5-82.6-34.1-122.5c-29-65.8-72.9-109.6-136.1-141.9
		c9,4.8-17.2-6.8-19.7-7.7c-26.4-9.8-53.8-17.3-81.3-23.4c-53-11.7-107.1-16.8-161.4-15.5c-87.8,2.1-173.8,23.7-244.5,77.2
		c0.3-0.2,0.6-0.4,1-0.5c-40.2,31.1-75.5,68.4-99.6,113.4c-19.4,36.1-20.4,118.7-81.8,101.5c-117.7-32.8,64.3-242.5,105.2-276.8
		c92.6-77.8,209.5-109.8,329-111.6c118.3-1.8,259.4,20.6,357,92.1c50.5,37,89.9,88.1,116.3,144.6
		C1990.3,1920.2,2034.4,2018.3,2009.3,2065.8z M2103.5,1055.9c-4,35.9-59.7,73.9-82.7,97c-20.7,20.7-41.4,41.4-62,62
		c-5.6,5.6-35.6,27.9-36.2,36.2c-1.1,15.4,66.6,67.9,77.8,79.1c30.1,30.1,60.1,60.1,90.2,90.2c24.3,24.3,12.5,66.2-19,77.1
		c-22.2,7.6-38-3.7-53.4-17.2c-34.7-30.3-65.9-65.9-98.4-98.4c-9.5-9.5-50.9-64-64.2-63.6c-6,0.2-23,23-27.2,27.2
		c-18,18-35.9,35.9-53.9,53.9c-28.2,28.2-55.1,61.2-86.2,86.2c-48.5,39.1-104.3-18.9-65.5-66.8c24.9-30.8,57.6-57.6,85.5-85.5
		c17.2-17.2,34.4-34.4,51.6-51.6c3.9-3.9,29.3-23.3,29.5-29.5c0.4-13.6-57-57.6-66.5-67.1c-31.7-31.7-65.6-62.2-95.5-95.5
		c-41.1-45.8,6.5-114.7,59.9-72.5c26.2,20.8,48.9,48.9,72.6,72.6c18,18,36,36,54,54c8.5,8.5,26.2,34.7,37.9,37.9
		c15.1,4.1,43.7-35.5,56.8-48.6c34.7-34.7,68.9-69.8,104-104c9-8.8,17-18.6,29.4-22.8C2073.3,995.5,2107.2,1022.7,2103.5,1055.9z"/>
</g>
</svg>
