<?xml version="1.0" encoding="utf-8"?>
<!-- Generator: Adobe Illustrator 22.0.0, SVG Export Plug-In . SVG Version: 6.00 Build 0)  -->
<svg version="1.1" xmlns="http://www.w3.org/2000/svg" xmlns:xlink="http://www.w3.org/1999/xlink" x="0px" y="0px"
	 viewBox="0 0 3000 3000" style="enable-background:new 0 0 3000 3000;" xml:space="preserve">
<style type="text/css">
	.st0{fill:#68C6BF;}
</style>
<g id="Слой_2">
</g>
<g id="Слой_1">
	<g>
		<polygon class="st0" points="937.8,1226.9 959.5,1226.9 959.5,1388 1007.3,1388 1007.3,1050.5 959.5,1050.5 959.5,1195.5 
			937.8,1195.5 937.8,1050.5 890,1050.5 890,1388 937.8,1388 		"/>
		<path class="st0" d="M1303.3,1294h32.5l8,94h47l-33.8-337.5h-71.9l-35.4,337.5h46.2L1303.3,1294z M1318.6,1091h2.4l12.5,171.6
			h-28.1L1318.6,1091z"/>
		<path class="st0" d="M1636,1383.4c7.1,5.8,14.8,8.9,23.1,9.4c1.6,0.3,3.1,0.4,4.6,0.4c1.5,0,2.9,0.1,4.2,0.4l32.5-0.4
			c14.2,0,24.2-3,30.1-8.8c5.9-5.9,9.6-12.3,11.3-19.3c0.8-3.7,1.3-7.4,1.4-11.1c0.1-3.6,0.2-6.8,0.2-9.4c0-0.3,0-0.5,0-0.6
			c0-0.1,0-0.3,0-0.6v-73.5h-47.8v82c0,3-1.2,5.4-3.6,7.4c-2.4,2-5.1,3-8,3c-3,0-5.4-0.9-7.2-2.6c-1.9-1.7-3.1-3.7-3.6-5.8
			c0-0.5,0-0.9,0-1.2c0-0.3,0-0.5,0-0.8v-265.2c0-0.3,0-0.5,0-0.6c0-0.1,0-0.3,0-0.6c0.3-2.4,1.5-4.6,3.6-6.6c2.1-2,4.6-3,7.2-3
			c0.5,0,1.2,0.1,2,0.2c0.8,0.1,1.5,0.3,2,0.6c1.9,0.8,3.6,2.1,5.2,3.8c1.6,1.7,2.4,3.8,2.4,6.2v77.6h47.8v-65.1c0-0.3,0-0.6,0-1
			c0-0.4,0-0.9,0-1.4c0-2.7-0.1-5.6-0.2-8.6c-0.1-3.1-0.5-6.2-1-9.4c-1.3-7.2-4.9-13.9-10.6-19.9c-5.8-6-16.1-9-31.1-9H1668
			c-17.7,0-29.1,4-34.2,12.1c-5.1,8-7.8,16.7-8,26.1c-0.3,2.1-0.4,4.2-0.4,6c0,1.9,0,3.8,0,5.6V1343
			C1625.4,1364.1,1628.9,1377.6,1636,1383.4z"/>
		<polygon class="st0" points="2025.8,1227.3 2055.9,1388 2102.1,1388 2067.6,1210 2097.3,1050.5 2049.9,1050.5 2025.8,1195.5 
			2025.8,1050.5 1978,1050.5 1978,1388 2025.8,1388 		"/>
		<path class="st0" d="M2109.3,668.1H891.3c-28,0-50.9,22.9-50.9,50.9c0,28,22.9,50.9,50.9,50.9h1217.9c28,0,50.9-22.9,50.9-50.9
			C2160.2,691,2137.3,668.1,2109.3,668.1z"/>
		<polygon class="st0" points="2225.4,394.4 2437.2,182.6 569.5,182.6 781.3,394.4 		"/>
		<path class="st0" d="M2254.7,456v2.6H758.8l-2,2l-2-2h-0.9v-0.9L524.1,228.1v2606h1952.4V234.2L2254.7,456z M956.5,2675.8
			c-60.7,0-109.8-49.2-109.8-109.8c0-60.7,49.2-109.8,109.8-109.8c60.7,0,109.8,49.2,109.8,109.8
			C1066.3,2626.6,1017.2,2675.8,956.5,2675.8z M839.1,1380.7v-317.9c0-26.4,21.6-48,48-48h123.7c26.4,0,48,21.6,48,48v317.9
			c0,26.4-21.6,48-48,48H887.1C860.7,1428.7,839.1,1407.1,839.1,1380.7z M1327.5,2675.8c-60.7,0-109.8-49.2-109.8-109.8
			c0-60.7,49.2-109.8,109.8-109.8c60.7,0,109.8,49.2,109.8,109.8C1437.3,2626.6,1388.2,2675.8,1327.5,2675.8z M1210.1,1380.7v-317.9
			c0-26.4,21.6-48,48-48h123.7c26.4,0,48,21.6,48,48v317.9c0,26.4-21.6,48-48,48h-123.7C1231.7,1428.7,1210.1,1407.1,1210.1,1380.7z
			 M1500.3,2377.1c-57.7,0-104.5-46.8-104.5-104.5c0-57.7,46.8-104.5,104.5-104.5s104.5,46.8,104.5,104.5
			C1604.8,2330.4,1558,2377.1,1500.3,2377.1z M1574.4,1380.7v-317.9c0-26.4,21.6-48,48-48h123.7c26.4,0,48,21.6,48,48v317.9
			c0,26.4-21.6,48-48,48h-123.7C1596,1428.7,1574.4,1407.1,1574.4,1380.7z M1691.8,2675.8c-60.7,0-109.8-49.2-109.8-109.8
			c0-60.7,49.2-109.8,109.8-109.8s109.8,49.2,109.8,109.8C1801.7,2626.6,1752.5,2675.8,1691.8,2675.8z M2044.1,2675.8
			c-60.7,0-109.8-49.2-109.8-109.8c0-60.7,49.2-109.8,109.8-109.8s109.8,49.2,109.8,109.8
			C2153.9,2626.6,2104.8,2675.8,2044.1,2675.8z M1926.7,1380.7v-317.9c0-26.4,21.6-48,48-48h123.7c26.4,0,48,21.6,48,48v317.9
			c0,26.4-21.6,48-48,48h-123.7C1948.3,1428.7,1926.7,1407.1,1926.7,1380.7z M2189.6,811.4c0,48.6-39.8,88.4-88.4,88.4H899.4
			c-48.6,0-88.4-39.8-88.4-88.4v-69.6c0-48.6,39.8-88.4,88.4-88.4h1201.9c48.6,0,88.4,39.8,88.4,88.4V811.4z"/>
		<path class="st0" d="M1500.3,2191c-105.4,0-105.4,163.4,0,163.4S1605.7,2191,1500.3,2191z M1523.8,2313.2
			c-14.8,11.9-3.7,7.4-6.8,22.4c-1.6,7.7-6.1,15-15,15c-20.9-0.1-15-29.8-16.1-42.5c0.9,11.5,0.3-14.2-1.2-15.8
			c1.7-5.8,4.5-14.7,4.6-14.2c-0.1-2.3-6.9-15-7.5-18.3c-1.3-7.9,0.3-18.7,0.7-26.7c0.5-11.9-2.2-31.1,13.9-33.3
			c17.1-2.3,16.6,13.1,16.4,25c-0.1,9.4-4.6,24.1-0.9,32.5c2.4,5.4,9.7,7.5,11.3,15.2c1.5,7.2-1.5,14.1-0.9,19.1
			C1523.3,2299.4,1534.7,2304.4,1523.8,2313.2z"/>
	</g>
</g>
</svg>
