<?xml version="1.0" encoding="utf-8"?>
<!-- Generator: Adobe Illustrator 22.0.0, SVG Export Plug-In . SVG Version: 6.00 Build 0)  -->
<svg version="1.1" id="Слой_1" xmlns="http://www.w3.org/2000/svg" xmlns:xlink="http://www.w3.org/1999/xlink" x="0px" y="0px"
	 viewBox="0 0 3000 3000" style="enable-background:new 0 0 3000 3000;" xml:space="preserve">
<style type="text/css">
	.st0{fill:#68C6BF;}
	.st1{fill:#68C5BE;}
</style>
<g>
	<path class="st0" d="M1523.3,2425.5c-383.8,0-702.8-81-768.7-187.7c-8.2,13.3-12.5,27-12.5,41v329.7
		c0,126.3,349.7,228.7,781.2,228.7s781.2-102.3,781.2-228.7v-329.7c0-14-4.2-27.6-12.5-41
		C2226.1,2344.5,1906.9,2425.5,1523.3,2425.5z"/>
	<path class="st0" d="M1523.3,1624.2c-431.5,0-781.2-102.3-781.2-228.7v281.1c0,126.3,349.7,228.7,781.2,228.7
		s781.2-102.3,781.2-228.7v-281.1C2304.5,1521.9,1954.8,1624.2,1523.3,1624.2z"/>
	<path class="st0" d="M1523.3,1947.2c-376.3,0-690.3-77.9-764.6-181.5c-10.9,15.2-16.6,31-16.6,47.2v329.7
		c0,126.3,349.7,228.7,781.2,228.7s781.2-102.3,781.2-228.7v-329.7c0-16.2-5.8-32-16.6-47.2
		C2213.6,1869.3,1899.5,1947.2,1523.3,1947.2z M1516.8,2292.8v0.4c0,2.6-0.1,6.1-0.4,10.4c-0.3,4.2-1.2,8.8-2.6,13.5
		c-2.4,7.1-6.9,13.6-13.3,19.5c-6.5,5.9-17,8.9-31.4,8.9h-82v-372.2h82.3c2.6,0,5.4,0.1,8.4,0.2s6.1,0.7,9.4,1.5
		c7.4,1.7,14.1,6.1,20.3,13c6.2,7,9.4,19.1,9.4,36.5V2292.8z M1690.1,2294.2c0,16.9-3.4,28.8-10.2,35.9
		c-6.9,7.1-14.4,11.5-22.6,13.3c-3.3,0.9-6.5,1.5-10,1.7c-3.4,0.3-6.5,0.4-9.6,0.4h-77.5v-372.2h0.1h78c17.2,0,29.1,3.4,35.9,10
		s11.1,14.1,12.8,22.4c0.9,3.6,1.4,7.2,1.5,10.9c0.1,3.7,0.2,7.1,0.2,10c0,0.3,0,0.5,0,0.9v82.4c0,13.3-3,22.9-9.1,29
		s-12.8,10.1-20.1,12.2c-2.9,0.5-5.9,1.1-8.6,1.3c-2.8,0.3-5.4,0.4-7.7,0.4v3.6c2.4,0,4.9,0.1,7.5,0.4c2.6,0.3,5.3,0.8,7.9,1.3
		c7.9,1.7,15.2,5.4,21.7,10.9c6.5,5.4,9.8,13.8,9.8,25V2294.2z"/>
	<path class="st0" d="M1619.6,2167.5h-6.6v143.7h5.8c4.7,0,9-1.5,12.8-4.5c3.8-2.9,5.8-7.9,5.8-15.1v-101.5c0-8.3-1.8-14.1-5.5-17.5
		C1628.2,2169.1,1624.1,2167.5,1619.6,2167.5z"/>
	<path class="st0" d="M1631.9,2012.3c-3.7-3.3-8-4.9-13-4.9h-5.8v127.2h5.3c6.7,0,11.6-1.4,14.6-4.2c2.9-2.8,4.5-7.1,4.5-12.6V2026
		C1637.4,2020.1,1635.6,2015.6,1631.9,2012.3z"/>
	<path class="st0" d="M1463.2,2018.9c-0.9-2.9-2.5-5.7-4.9-7.9c-2.4-2.4-6.2-3.6-11.5-3.6h-7.1V2311h7.5c4.7,0,8.7-1.7,12-5.1
		c3.3-3.4,4.9-8.4,4.9-14.9v-265c0-0.9-0.1-2-0.2-3.4C1463.8,2021.4,1463.6,2020.1,1463.2,2018.9z"/>
	<path class="st0" d="M744,1363.8c17.7,66.9,135.1,115,191.2,133.7c211.2,70.6,445,83.4,665.9,77c117-3.4,234.1-14,349.2-36
		c84.1-16.1,169.8-37.3,246.7-75.7c44.4-22.1,109.4-60.4,107.4-118.2c-0.7-21.4-11.1-39.9-25.1-55.6c0.2-0.2,0.4-0.4,0.6-0.6
		c-86.7-98.6-392.6-171.5-756.6-171.5c-415,0-754.3,94.6-779.7,214.3C741.8,1338.7,743.3,1363.5,744,1363.8z"/>
</g>
<path class="st1" d="M863.4,748.1c4.2,35.1,44.6,135.8,76.6,146.5c9.5,3.2,33.5-2.2,42.4-17c12.1-20,2.1-15.2-12.5-44.5
	c-20-40-37.6-83.8-60.4-122.2C896.4,719.2,861.5,732.2,863.4,748.1z"/>
<path class="st1" d="M893.9,911.8c-32.8-40.5-61.7-94-74-144.7c-108,67.8-216,135.6-324,203.4c-62.9,39.5-130.8,75.7-190.7,119.7
	c-47.4,34.9-44.7,47-10.5,101.6c35,55.8,39.9,78.6,98.7,55.5c60.7-23.8,121.4-76.2,176.4-110.7c112-70.3,223.9-140.5,335.9-210.8
	C901.8,921.1,897.9,916.5,893.9,911.8z"/>
<path class="st1" d="M1433.9,173.2c-221.4-50.7-442.1,87.9-492.8,309.3c-15.4,67.2-13.3,134.1,3.1,196.4
	c9.9,14.1,16.6,30.6,22.8,46.5c3.1,8,6.1,16,9.5,23.9c0.8,2,1.6,4.3,2.7,6.1c-3.3-5.5,0.4,0.8,1,2c2.2,4.3,4.5,8.6,6.8,12.8
	c14.1,25.9,31,50.3,45.7,75.8l0.2-0.1c55.1,62.7,129.7,109.5,217.2,129.5c221.4,50.7,442.1-87.9,492.8-309.3
	C1793.6,444.7,1655.3,223.8,1433.9,173.2z M1277.3,857.9c-156.7-35.8-254.6-191.9-218.8-348.5c35.8-156.7,191.9-254.6,348.5-218.8
	s254.6,191.9,218.8,348.5C1590,795.8,1433.7,893.7,1277.3,857.9z"/>
</svg>
