<?xml version="1.0" encoding="utf-8"?>
<!-- Generator: Adobe Illustrator 22.0.0, SVG Export Plug-In . SVG Version: 6.00 Build 0)  -->
<svg version="1.1" id="Слой_1" xmlns="http://www.w3.org/2000/svg" xmlns:xlink="http://www.w3.org/1999/xlink" x="0px" y="0px"
	 viewBox="0 0 3000 3000" style="enable-background:new 0 0 3000 3000;" xml:space="preserve">
<style type="text/css">
	.st0{fill:url(#SVGID_1_);}
	.st1{fill:url(#SVGID_2_);}
	.st2{fill:url(#SVGID_3_);}
	.st3{fill:url(#SVGID_4_);}
	.st4{fill:url(#SVGID_5_);}
	.st5{fill:url(#SVGID_6_);}
	.st6{fill:#68C6C0;}
</style>
<g>
	<linearGradient id="SVGID_1_" gradientUnits="userSpaceOnUse" x1="706.813" y1="1300.7196" x2="726.813" y2="288.7196">
		<stop  offset="0" style="stop-color:#68C6C0"/>
		<stop  offset="0.1895" style="stop-color:#6BC7C1;stop-opacity:0.8105"/>
		<stop  offset="0.3517" style="stop-color:#76CBC6;stop-opacity:0.6483"/>
		<stop  offset="0.5038" style="stop-color:#88D2CD;stop-opacity:0.4962"/>
		<stop  offset="0.6498" style="stop-color:#A0DBD8;stop-opacity:0.3502"/>
		<stop  offset="0.7914" style="stop-color:#C1E7E5;stop-opacity:0.2086"/>
		<stop  offset="0.9279" style="stop-color:#E7F6F5;stop-opacity:7.210076e-02"/>
		<stop  offset="1" style="stop-color:#FFFFFF;stop-opacity:0"/>
	</linearGradient>
	<path class="st0" d="M587.8,766.3c12.1,17.3,41.4-2.5,53.2,8c6.2,5.5,0,54.7,0,64.2c0,26.7,0,53.4,0,80.2c0,37.4,0,74.9,0,112.3
		c0,7.6,4.2,43.7-1.2,48.7c-6.2,5.7-29.9-1.5-38.2,0.5c-13.9,3.4-23.9,18.4-12.5,30.7c12.6,13.6,42.9-3.3,51.9,7.2
		c9.2,10.7-12.3,55.3,20.7,50.1c10.5-1.6,13.4-9.5,15.4-18c1.6-6.9-1.1-14.9,0-21.9c2.5-15.4-3.7-7.7,9.1-11.5
		c40-11.8-1.9,57.6,38.4,51.2c10.6-1.7,13.1-9.5,15.4-18c1.9-7.2-4.8-27.2,0-31.9c3.7-3.7,22.2-1.4,28.2-1.4
		c0,13.6-7.6,44.2,9.6,52.1c21.3,9.8,25.5-14.8,25.5-29c0-14.1-0.8-17,4.8-23.7c6.8-8.2,19.2-9.9,25.9-20.9
		c7.1-11.8,9-25.9,10.2-39.3c2.7-30.6,3.3-62.9-0.2-93.4c-1.3-11-10.2-25.3-10-34.6c0.2-9.6,8.5-22.4,10-33.2
		c3.7-27.6,2.9-56.9,1.4-84.6c-0.4-6.7-1-13.5-2.1-20.2c-1-5.6-2.1-11.4-3.9-16.8c-2.2-6.5-5.1-13.3-9.5-18.7
		c-5.6-7-16.9-9.3-21.6-15c-5.6-6.8-5-6.8-5-21.7c0-7,2.1-16.6-1.8-23.1c-15.3-25.6-33.5,1.1-34.1,18.9c-0.6,18.7,5,19.4-10.7,23
		c-21.1,4.9-17.1-3.5-17.3-19.9c-0.2-16.8-13.4-47.9-32.5-24.5c-8.5,10.4,4.2,37.6-3.4,44.1c-1.5,1.3-15.9,0.6-17,0.3
		c-16.3-4.7-5.1,6.1-9.6-10.7c-3-11.3,4.6-25.9-5.2-35.4c-8-7.8-20.5-6.3-27.3,2.1c-8.9,11,4.4,36.2-3.4,44.1c-3,3-29,0-31.4,0.2
		C593.5,738,575.4,747.6,587.8,766.3z M811,996.9c0,21,1.5,43.9-3.2,64.6c-5.4,23.7-18.7,19.1-40.4,19.1c-29.9,0-59.8,0-89.7,0
		c-6.2-6.2,0.2-54.9,0.2-63.4c0-15.1-6.6-54.3,0-67.6c4.1-8.3,3.5-5.9,14.9-5.8c20.2,0.1,40.4,0,60.6,0c23.4,0,52.2-10.5,56.4,17.5
		C811.4,972.9,811,985.3,811,996.9z M677.4,907.1c0-38.9-6.9-84.8,0-123c3.1-17.5,4-12.3,24.8-12.3c18.1,0,36.3,0,54.4,0
		c22.2,0,43.3-7.3,50.8,16.8c2.3,7.3,2.4,15.6,2.9,23.1c1.8,25.3,2.3,52.7-1.2,77.9c-3.6,25.5-19.8,17.8-43.4,17.8
		C737,907.5,705.6,910.6,677.4,907.1z"/>
	<linearGradient id="SVGID_2_" gradientUnits="userSpaceOnUse" x1="1282.3376" y1="1312.0936" x2="1302.3376" y2="300.0936">
		<stop  offset="0" style="stop-color:#68C6C0"/>
		<stop  offset="0.1895" style="stop-color:#6BC7C1;stop-opacity:0.8105"/>
		<stop  offset="0.3517" style="stop-color:#76CBC6;stop-opacity:0.6483"/>
		<stop  offset="0.5038" style="stop-color:#88D2CD;stop-opacity:0.4962"/>
		<stop  offset="0.6498" style="stop-color:#A0DBD8;stop-opacity:0.3502"/>
		<stop  offset="0.7914" style="stop-color:#C1E7E5;stop-opacity:0.2086"/>
		<stop  offset="0.9279" style="stop-color:#E7F6F5;stop-opacity:7.210076e-02"/>
		<stop  offset="1" style="stop-color:#FFFFFF;stop-opacity:0"/>
	</linearGradient>
	<path class="st1" d="M1173,288.1c12.1,17.3,41.4-2.5,53.2,8c6.2,5.5,0,54.7,0,64.2c0,26.7,0,53.4,0,80.2c0,37.4,0,74.9,0,112.3
		c0,7.6,4.2,43.7-1.2,48.7c-6.2,5.7-29.9-1.5-38.2,0.5c-13.9,3.4-23.9,18.4-12.5,30.7c12.6,13.6,42.9-3.3,51.9,7.2
		c9.2,10.7-12.3,55.3,20.7,50.1c10.5-1.6,13.4-9.5,15.4-18c1.6-6.9-1.1-14.9,0-21.9c2.5-15.4-3.7-7.7,9.1-11.5
		c40-11.8-1.9,57.6,38.4,51.2c10.6-1.7,13.1-9.5,15.4-18c1.9-7.2-4.8-27.2,0-31.9c3.7-3.7,22.2-1.4,28.2-1.4
		c0,13.6-7.6,44.2,9.6,52.1c21.3,9.8,25.5-14.8,25.5-29c0-14.1-0.8-17,4.8-23.7c6.8-8.2,19.2-9.9,25.9-20.9
		c7.1-11.8,9-25.9,10.2-39.3c2.7-30.6,3.3-62.9-0.2-93.4c-1.3-11-10.2-25.3-10-34.6c0.2-9.6,8.5-22.4,10-33.2
		c3.7-27.6,2.9-56.9,1.4-84.6c-0.4-6.7-1-13.5-2.1-20.2c-1-5.6-2.1-11.4-3.9-16.8c-2.2-6.5-5.1-13.3-9.5-18.7
		c-5.6-7-16.9-9.3-21.6-15c-5.6-6.8-5-6.8-5-21.7c0-7,2.1-16.6-1.8-23.1c-15.3-25.6-33.5,1.1-34.1,18.9c-0.6,18.7,5,19.4-10.7,23
		c-21.1,4.9-17.1-3.5-17.3-19.9c-0.2-16.8-13.4-47.9-32.5-24.5c-8.5,10.4,4.2,37.6-3.4,44.1c-1.5,1.3-15.9,0.6-17,0.3
		c-16.3-4.7-5.1,6.1-9.6-10.7c-3-11.3,4.6-25.9-5.2-35.4c-8-7.8-20.5-6.3-27.3,2.1c-8.9,11,4.4,36.2-3.4,44.1c-3,3-29,0-31.4,0.2
		C1178.7,259.8,1160.6,269.4,1173,288.1z M1396.1,518.7c0,21,1.5,43.9-3.2,64.6c-5.4,23.7-18.7,19.1-40.4,19.1
		c-29.9,0-59.8,0-89.7,0c-6.2-6.2,0.2-54.9,0.2-63.4c0-15.1-6.6-54.3,0-67.6c4.1-8.3,3.5-5.9,14.9-5.8c20.2,0.1,40.4,0,60.6,0
		c23.4,0,52.2-10.5,56.4,17.5C1396.6,494.7,1396.1,507.1,1396.1,518.7z M1262.6,428.9c0-38.9-6.9-84.8,0-123
		c3.1-17.5,4-12.3,24.8-12.3c18.1,0,36.3,0,54.4,0c22.2,0,43.3-7.3,50.8,16.8c2.3,7.3,2.4,15.6,2.9,23.1c1.8,25.3,2.3,52.7-1.2,77.9
		c-3.6,25.5-19.8,17.8-43.4,17.8C1322.2,429.3,1290.8,432.4,1262.6,428.9z"/>
	<linearGradient id="SVGID_3_" gradientUnits="userSpaceOnUse" x1="2116.3369" y1="1328.5758" x2="2136.3369" y2="316.5758">
		<stop  offset="0" style="stop-color:#68C6C0"/>
		<stop  offset="0.1895" style="stop-color:#6BC7C1;stop-opacity:0.8105"/>
		<stop  offset="0.3517" style="stop-color:#76CBC6;stop-opacity:0.6483"/>
		<stop  offset="0.5038" style="stop-color:#88D2CD;stop-opacity:0.4962"/>
		<stop  offset="0.6498" style="stop-color:#A0DBD8;stop-opacity:0.3502"/>
		<stop  offset="0.7914" style="stop-color:#C1E7E5;stop-opacity:0.2086"/>
		<stop  offset="0.9279" style="stop-color:#E7F6F5;stop-opacity:7.210076e-02"/>
		<stop  offset="1" style="stop-color:#FFFFFF;stop-opacity:0"/>
	</linearGradient>
	<path class="st2" d="M1991.1,1109.1c12.1,17.3,41.4-2.5,53.2,8c6.2,5.5,0,54.7,0,64.2c0,26.7,0,53.4,0,80.2c0,37.4,0,74.9,0,112.3
		c0,7.6,4.2,43.7-1.2,48.7c-6.2,5.7-29.9-1.5-38.2,0.5c-13.9,3.4-23.9,18.4-12.5,30.7c12.6,13.6,42.9-3.3,51.9,7.2
		c9.2,10.7-12.3,55.3,20.7,50.1c10.5-1.6,13.4-9.5,15.4-18c1.6-6.9-1.1-14.9,0-21.9c2.5-15.4-3.7-7.7,9.1-11.5
		c40-11.8-1.9,57.6,38.4,51.2c10.6-1.7,13.1-9.5,15.4-18c1.9-7.2-4.8-27.2,0-31.9c3.7-3.7,22.2-1.4,28.2-1.4
		c0,13.6-7.6,44.2,9.6,52.1c21.3,9.8,25.5-14.8,25.5-29c0-14.1-0.8-17,4.8-23.7c6.8-8.2,19.2-9.9,25.9-20.9
		c7.1-11.8,9-25.9,10.2-39.3c2.7-30.6,3.3-62.9-0.2-93.4c-1.3-11-10.2-25.3-10-34.6c0.2-9.6,8.5-22.4,10-33.2
		c3.7-27.6,2.9-56.9,1.4-84.6c-0.4-6.7-1-13.5-2.1-20.2c-1-5.6-2.1-11.4-3.9-16.8c-2.2-6.5-5.1-13.3-9.5-18.7
		c-5.6-7-16.9-9.3-21.6-15c-5.6-6.8-5-6.8-5-21.7c0-7,2.1-16.6-1.8-23.1c-15.3-25.6-33.5,1.1-34.1,18.9c-0.6,18.7,5,19.4-10.7,23
		c-21.1,4.9-17.1-3.5-17.3-19.9c-0.2-16.8-13.4-47.9-32.5-24.5c-8.5,10.4,4.2,37.6-3.4,44.1c-1.5,1.3-15.9,0.6-17,0.3
		c-16.3-4.7-5.1,6.1-9.6-10.7c-3-11.3,4.6-25.9-5.2-35.4c-8-7.8-20.5-6.3-27.3,2.1c-8.9,11,4.4,36.2-3.4,44.1c-3,3-29,0-31.4,0.2
		C1996.8,1080.8,1978.7,1090.4,1991.1,1109.1z M2214.3,1339.7c0,21,1.5,43.9-3.2,64.6c-5.4,23.7-18.7,19.1-40.4,19.1
		c-29.9,0-59.8,0-89.7,0c-6.2-6.2,0.2-54.9,0.2-63.4c0-15.1-6.6-54.3,0-67.6c4.1-8.3,3.5-5.9,14.9-5.8c20.2,0.1,40.4,0,60.6,0
		c23.4,0,52.2-10.5,56.4,17.5C2214.7,1315.7,2214.3,1328.1,2214.3,1339.7z M2080.7,1249.9c0-38.9-6.9-84.8,0-123
		c3.1-17.5,4-12.3,24.8-12.3c18.1,0,36.3,0,54.4,0c22.2,0,43.3-7.3,50.8,16.8c2.3,7.3,2.4,15.6,2.9,23.1c1.8,25.3,2.3,52.7-1.2,77.9
		c-3.6,25.5-19.8,17.8-43.4,17.8C2140.3,1250.3,2108.9,1253.4,2080.7,1249.9z"/>
	<linearGradient id="SVGID_4_" gradientUnits="userSpaceOnUse" x1="1753.4258" y1="1321.4037" x2="1773.4258" y2="309.4037">
		<stop  offset="0" style="stop-color:#68C6C0"/>
		<stop  offset="0.1895" style="stop-color:#6BC7C1;stop-opacity:0.8105"/>
		<stop  offset="0.3517" style="stop-color:#76CBC6;stop-opacity:0.6483"/>
		<stop  offset="0.5038" style="stop-color:#88D2CD;stop-opacity:0.4962"/>
		<stop  offset="0.6498" style="stop-color:#A0DBD8;stop-opacity:0.3502"/>
		<stop  offset="0.7914" style="stop-color:#C1E7E5;stop-opacity:0.2086"/>
		<stop  offset="0.9279" style="stop-color:#E7F6F5;stop-opacity:7.210076e-02"/>
		<stop  offset="1" style="stop-color:#FFFFFF;stop-opacity:0"/>
	</linearGradient>
	<path class="st3" d="M1639.1,550.2c12.1,17.3,41.4-2.5,53.2,8c6.2,5.5,0,54.7,0,64.2c0,26.7,0,53.4,0,80.2c0,37.4,0,74.9,0,112.3
		c0,7.6,4.2,43.7-1.2,48.7c-6.2,5.7-29.9-1.5-38.2,0.5c-13.9,3.4-23.9,18.4-12.5,30.7c12.6,13.6,42.9-3.3,51.9,7.2
		c9.2,10.7-12.3,55.3,20.7,50.1c10.5-1.6,13.4-9.5,15.4-18c1.6-6.9-1.1-14.9,0-21.9c2.5-15.4-3.7-7.7,9.1-11.5
		c40-11.8-1.9,57.6,38.4,51.2c10.6-1.7,13.1-9.5,15.4-18c1.9-7.2-4.8-27.2,0-32c3.7-3.7,22.2-1.4,28.2-1.4c0,13.6-7.6,44.2,9.6,52.1
		c21.3,9.8,25.5-14.8,25.5-29c0-14.1-0.8-17,4.8-23.7c6.8-8.2,19.2-9.9,25.9-20.9c7.1-11.8,9-25.9,10.2-39.3
		c2.7-30.6,3.3-62.9-0.2-93.4c-1.3-11-10.2-25.3-10-34.6c0.2-9.6,8.5-22.4,10-33.2c3.7-27.6,2.9-56.9,1.4-84.6
		c-0.4-6.7-1-13.5-2.1-20.2c-1-5.6-2.1-11.4-3.9-16.8c-2.2-6.5-5.1-13.3-9.5-18.7c-5.6-7-16.9-9.3-21.6-15c-5.6-6.8-5-6.8-5-21.7
		c0-7,2.1-16.6-1.8-23.1c-15.3-25.6-33.5,1.1-34.1,18.9c-0.6,18.7,5,19.4-10.7,23c-21.1,4.9-17.1-3.5-17.3-19.9
		c-0.2-16.8-13.4-47.9-32.5-24.5c-8.5,10.4,4.2,37.6-3.4,44.1c-1.5,1.3-15.9,0.6-17,0.3c-16.3-4.7-5.1,6.1-9.6-10.7
		c-3-11.3,4.6-25.9-5.2-35.4c-8-7.8-20.5-6.3-27.3,2.1c-8.9,11,4.4,36.2-3.4,44.1c-3,3-29,0-31.4,0.2
		C1644.7,521.8,1626.7,531.5,1639.1,550.2z M1862.2,780.8c0,21,1.5,43.9-3.2,64.6c-5.4,23.7-18.7,19.1-40.4,19.1
		c-29.9,0-59.8,0-89.7,0c-6.2-6.2,0.2-54.9,0.2-63.4c0-15.1-6.6-54.3,0-67.6c4.1-8.3,3.5-5.9,14.9-5.8c20.2,0.1,40.4,0,60.6,0
		c23.4,0,52.2-10.5,56.4,17.5C1862.7,756.8,1862.2,769.2,1862.2,780.8z M1728.7,691c0-38.9-6.9-84.8,0-123
		c3.1-17.5,4-12.3,24.8-12.3c18.1,0,36.3,0,54.4,0c22.2,0,43.3-7.3,50.8,16.8c2.3,7.3,2.4,15.6,2.9,23.1c1.8,25.3,2.3,52.7-1.2,77.9
		c-3.6,25.5-19.8,17.8-43.4,17.8C1788.3,691.3,1756.8,694.4,1728.7,691z"/>
	<linearGradient id="SVGID_5_" gradientUnits="userSpaceOnUse" x1="2494.7739" y1="1336.0548" x2="2514.7739" y2="324.0548">
		<stop  offset="0" style="stop-color:#68C6C0"/>
		<stop  offset="0.1895" style="stop-color:#6BC7C1;stop-opacity:0.8105"/>
		<stop  offset="0.3517" style="stop-color:#76CBC6;stop-opacity:0.6483"/>
		<stop  offset="0.5038" style="stop-color:#88D2CD;stop-opacity:0.4962"/>
		<stop  offset="0.6498" style="stop-color:#A0DBD8;stop-opacity:0.3502"/>
		<stop  offset="0.7914" style="stop-color:#C1E7E5;stop-opacity:0.2086"/>
		<stop  offset="0.9279" style="stop-color:#E7F6F5;stop-opacity:7.210076e-02"/>
		<stop  offset="1" style="stop-color:#FFFFFF;stop-opacity:0"/>
	</linearGradient>
	<path class="st4" d="M2379,637.8c12.1,17.3,41.4-2.5,53.2,8c6.2,5.5,0,54.7,0,64.2c0,26.7,0,53.4,0,80.2c0,37.4,0,74.9,0,112.3
		c0,7.6,4.2,43.7-1.2,48.7c-6.2,5.7-29.9-1.5-38.2,0.5c-13.9,3.4-23.9,18.4-12.5,30.7c12.6,13.6,42.9-3.3,51.9,7.2
		c9.2,10.7-12.3,55.3,20.7,50.1c10.5-1.6,13.4-9.5,15.4-18c1.6-6.9-1.1-14.9,0-21.9c2.5-15.4-3.7-7.7,9.1-11.5
		c40-11.8-1.9,57.6,38.4,51.2c10.6-1.7,13.1-9.5,15.4-18c1.9-7.2-4.8-27.2,0-32c3.7-3.7,22.2-1.4,28.2-1.4c0,13.6-7.6,44.2,9.6,52.1
		c21.3,9.8,25.5-14.8,25.5-29c0-14.1-0.8-17,4.8-23.7c6.8-8.2,19.2-9.9,25.9-20.9c7.1-11.8,9-25.9,10.2-39.3
		c2.7-30.6,3.3-62.9-0.2-93.4c-1.3-11-10.2-25.3-10-34.6c0.2-9.6,8.5-22.4,10-33.2c3.7-27.6,2.9-56.9,1.4-84.6
		c-0.4-6.7-1-13.5-2.1-20.2c-1-5.6-2.1-11.4-3.9-16.8c-2.2-6.5-5.1-13.3-9.5-18.7c-5.6-7-16.9-9.3-21.6-15c-5.6-6.8-5-6.8-5-21.7
		c0-7,2.1-16.6-1.8-23.1c-15.3-25.6-33.5,1.1-34.1,18.9c-0.6,18.7,5,19.4-10.7,23c-21.1,4.9-17.1-3.5-17.3-19.9
		c-0.2-16.8-13.4-47.9-32.5-24.5c-8.5,10.4,4.2,37.6-3.4,44.1c-1.5,1.3-15.9,0.6-17,0.3c-16.3-4.7-5.1,6.1-9.6-10.7
		c-3-11.3,4.6-25.9-5.2-35.4c-8-7.8-20.5-6.3-27.3,2.1c-8.9,11,4.4,36.2-3.4,44.1c-3,3-29,0-31.4,0.2
		C2384.7,609.5,2366.6,619.1,2379,637.8z M2602.2,868.4c0,21,1.5,43.9-3.2,64.6c-5.4,23.7-18.7,19.1-40.4,19.1
		c-29.9,0-59.8,0-89.7,0c-6.2-6.2,0.2-54.9,0.2-63.4c0-15.1-6.6-54.3,0-67.6c4.1-8.3,3.5-5.9,14.9-5.8c20.2,0.1,40.4,0,60.6,0
		c23.4,0,52.2-10.5,56.4,17.5C2602.6,844.4,2602.2,856.8,2602.2,868.4z M2468.7,778.6c0-38.9-6.9-84.8,0-123
		c3.1-17.5,4-12.3,24.8-12.3c18.1,0,36.3,0,54.4,0c22.2,0,43.3-7.3,50.8,16.8c2.3,7.3,2.4,15.6,2.9,23.1c1.8,25.3,2.3,52.7-1.2,77.9
		c-3.6,25.5-19.8,17.8-43.4,17.8C2528.2,779,2496.8,782.1,2468.7,778.6z"/>
	<linearGradient id="SVGID_6_" gradientUnits="userSpaceOnUse" x1="1138.8088" y1="1309.2571" x2="1158.8088" y2="297.2571">
		<stop  offset="0" style="stop-color:#68C6C0"/>
		<stop  offset="0.1895" style="stop-color:#6BC7C1;stop-opacity:0.8105"/>
		<stop  offset="0.3517" style="stop-color:#76CBC6;stop-opacity:0.6483"/>
		<stop  offset="0.5038" style="stop-color:#88D2CD;stop-opacity:0.4962"/>
		<stop  offset="0.6498" style="stop-color:#A0DBD8;stop-opacity:0.3502"/>
		<stop  offset="0.7914" style="stop-color:#C1E7E5;stop-opacity:0.2086"/>
		<stop  offset="0.9279" style="stop-color:#E7F6F5;stop-opacity:7.210076e-02"/>
		<stop  offset="1" style="stop-color:#FFFFFF;stop-opacity:0"/>
	</linearGradient>
	<path class="st5" d="M1012.9,1125.2c12.1,17.3,41.4-2.5,53.2,8c6.2,5.5,0,54.7,0,64.2c0,26.7,0,53.4,0,80.2c0,37.4,0,74.9,0,112.3
		c0,7.6,4.2,43.7-1.2,48.7c-6.2,5.7-29.9-1.5-38.2,0.5c-13.9,3.4-23.9,18.4-12.5,30.7c12.6,13.6,42.9-3.3,51.9,7.2
		c9.2,10.7-12.3,55.3,20.7,50.1c10.5-1.6,13.4-9.5,15.4-18c1.6-6.9-1.1-14.9,0-21.9c2.5-15.4-3.7-7.7,9.1-11.5
		c40-11.8-1.9,57.6,38.4,51.2c10.6-1.7,13.1-9.5,15.4-18c1.9-7.2-4.8-27.2,0-32c3.7-3.7,22.2-1.4,28.2-1.4c0,13.6-7.6,44.2,9.6,52.1
		c21.3,9.8,25.5-14.8,25.5-29c0-14.1-0.8-17,4.8-23.7c6.8-8.2,19.2-9.9,25.9-20.9c7.1-11.8,9-25.9,10.2-39.3
		c2.7-30.6,3.3-62.9-0.2-93.4c-1.3-11-10.2-25.3-10-34.6c0.2-9.6,8.5-22.4,10-33.2c3.7-27.6,2.9-56.9,1.4-84.6
		c-0.4-6.7-1-13.5-2.1-20.2c-1-5.6-2.1-11.4-3.9-16.8c-2.2-6.5-5.1-13.3-9.5-18.7c-5.6-7-16.9-9.3-21.6-15c-5.6-6.8-5-6.8-5-21.7
		c0-7,2.1-16.6-1.8-23.1c-15.3-25.6-33.5,1.1-34.1,18.9c-0.6,18.7,5,19.4-10.7,23c-21.1,4.9-17.1-3.5-17.3-19.9
		c-0.2-16.8-13.4-47.9-32.5-24.5c-8.5,10.4,4.2,37.6-3.4,44.1c-1.5,1.3-15.9,0.6-17,0.3c-16.3-4.7-5.1,6.1-9.6-10.7
		c-3-11.3,4.6-25.9-5.2-35.4c-8-7.8-20.5-6.3-27.3,2.1c-8.9,11,4.4,36.2-3.4,44.1c-3,3-29,0-31.4,0.2
		C1018.5,1096.9,1000.4,1106.5,1012.9,1125.2z M1236,1355.8c0,21,1.5,43.9-3.2,64.6c-5.4,23.7-18.7,19.1-40.4,19.1
		c-29.9,0-59.8,0-89.7,0c-6.2-6.2,0.2-54.9,0.2-63.4c0-15.1-6.6-54.3,0-67.6c4.1-8.3,3.5-5.9,14.9-5.8c20.2,0.1,40.4,0,60.6,0
		c23.4,0,52.2-10.5,56.4,17.5C1236.5,1331.8,1236,1344.2,1236,1355.8z M1102.5,1266c0-38.9-6.9-84.8,0-123
		c3.1-17.5,4-12.3,24.8-12.3c18.1,0,36.3,0,54.4,0c22.2,0,43.3-7.3,50.8,16.8c2.3,7.3,2.4,15.6,2.9,23.1c1.8,25.3,2.3,52.7-1.2,77.9
		c-3.6,25.5-19.8,17.8-43.4,17.8C1162,1266.4,1130.6,1269.4,1102.5,1266z"/>
	<path class="st6" d="M1562,2292.5c-32.4,0-60.9,19.6-92.2,25.7c-35,6.8-66.6-6.1-100.1-14c-27.3-6.4-45-13.7-65.5-30
		c-3.7-3-21.7-10.8-19.9-17.5c3.4-12.6,34.2-9.6,42.7-7c31.7,9.8,51.9,31.6,86.9,35.6c33.5,3.8,76.6,3,106.5-8.9
		c18.4-7.3,38.4-13.6,56.2-22.4c24.6-12.2,28.2-25.4,34.8-49.9c7.5-28.2,7.2-50,4.5-79.3c-0.4-4.6-0.1-27.8-5.3-30
		c-10.7-4.3-22.6,19.5-26.2,25.6c-14.7,24.7-31.8,41-56.7,55.9c-27.4,16.3-55.5,15.9-85.3,25c-11.2,3.4-18.4,6.8-28.8,7.9
		c-9.3,1-19.4,0.8-28.8,1.4c-12.5,0.8-66.1-1.8-30.9-21.4c19.1-10.6,45.1-0.7,65.5-0.4c36.3,0.6,71.2-19.8,99.7-40.5
		c24.7-17.9,46.3-39.9,64.2-64.6c8.5-11.7,23.1-29.2,22.3-42.6c-0.8-13-9.8-33-13-46.6c-4.6-20.2-22.9-61.3-44.3-32.1
		c-7,9.6-6.3,22.6-9.4,33.6c-4,14.5-11.7,28.2-18.4,42.1c-22.8,47.6-77.1,92.4-127.7,108.1c-8.2,2.6-22.1,7.3-30.5,3.2
		c-7.1-3.5-13.2-21.9-8-29.7c6-9,27.8-7.2,38.2-10.6c15.7-5.2,30-13.8,42.9-24.2c45.1-36.4,77-94.8,94-149.5
		c17.8-57.3-29.5-117.2-84.4-135.2c-37.6-12.4-10.8,37.5-7.2,57.3c6.7,37.4-2.9,79.7-17,114.4c-7.3,17.9-48,109.3-77.9,94.5
		c-21.6-10.6,33.7-59,41.5-71.7c9-14.6,18.3-30.4,20.4-46.3c2.1-15.8,1.8-31.7,4.7-47.7c10.3-57.1,8.3-129.3-52.9-155.9
		c-13.2-5.7-45.5-19-59.1-7.6c-18.5,15.5,13.4,58,19,73.5c19.6,54.3,52,138-16.7,174.6c-4.4-7.5,4.7-21.2,7.1-27.7
		c4.1-11.2,6.1-20.5,6.3-32.7c0.4-25.1-3.7-51.9-9.6-76.3c-8.6-35.6-28.4-68.9-52-96.7c-24.4-28.7-49.4-35.2-86.1-32.4
		c-21.1,1.6-65.8,0.4-81.5,17.2c-13,13.9,7.3,22.1,19.5,28.4c17.7,9.1,35.6,17.9,51.9,29.2c42.1,29.2,68.6,80.6,84.4,128.3
		c4.6,13.8,15.3,43.4,4.7,56.6c-7.5,9.3-24.7,6-30.9-4.6c-5.9-10-1.7-29.2-3.4-40.3c-11.5-73.9-66.9-139.4-135.7-167
		c-31.4-12.6-59.3-7.9-88.2,8.5c-11.2,6.4-62.3,42.2-35.8,59.6c6.1,4,29.1-1.3,36.5-1.2c13.3,0.2,25.1,1.5,37.6,6.1
		c9.9,3.6,12.7,5.2,24.2,7.1c15.1,2.4,29.6,9.2,42.7,16.9c23.5,13.8,44.7,32.7,61.4,54.2c6.9,8.9,42.5,63.5,20.8,68.2
		c-12,2.6-22.4-20.7-29.5-29c-11.9-13.8-25-26.4-39.2-37.9c-28.5-23-60.9-41-95.3-53.5c-59.9-21.8-115.9-15.6-153.8,38.2
		c-11.9,16.9-25.5,36-31,56.2c-1.5,5.4-5.2,16.2-0.1,21.1c6.6,6.4,21.5-7.2,29.5-10.4c55.4-21.9,131.3-18.8,188.2-4
		c17.1,4.4,76.3,23.6,69,45.8c-8.5,26-73.5-19.5-88.1-26c-58.9-26.1-160.7-12.9-206,37.1c-16.9,18.6-26.2,47-29.4,71.7
		c-1.5,11.4-2.9,29,5.7,38.3c12.1,13.2,23.7,3,34.8-7.6c27.1-26.1,47.9-51.6,82.8-68.8c26.8-13.3,56-17.2,85.7-16.8
		c10.6,0.1,68.4,1.2,72.6,17.1c6,23.1-50.5,12.4-59.5,12.3c-69-1.1-136.6,35.3-179.3,88.2c-20.1,24.9-31.4,51.9-26.4,84.1
		c2.4,15.7,31.5,107.2,53.6,95.7c9.3-4.8,10.6-29.3,12.2-37.6c3.7-19,10.5-36.3,20.1-53.2c18.1-32.1,42.2-61,72.4-82.1
		c14.1-9.8,74.1-49.1,89.6-36.9c21.8,17.2-53.8,44.2-63.8,49.8c-35.6,19.7-65,66.3-84.3,101.6c-29.2,53.4-25,120.1,22.7,161.3
		c5.8,5,25.6,20.5,34.4,15.5c10.6-6.1,3.8-35.6,3.3-45.9c-1.7-39.3-3.8-79.5,9.2-117.3c9-26.2,23.3-52.2,41.1-73.4
		c7-8.4,63.9-54.1,54.3-14.1c-2.6,10.7-24.3,26.1-30.6,36c-9,14.1-16.3,29.7-22.2,45.4c-16.2,43-18,89.6-14.7,135.1
		c2,28.8,7.2,60.4,29.6,80.8c16.9,15.4,42.3,26,63.7,32.7c10.9,3.5,55.9,15.5,52-8.5c-0.6-3.7-15-15.2-17.7-18.6
		c-5.5-6.8-10.4-14-14.9-21.5c-10.7-17.7-18.6-37-24.5-56.8c-12.6-42.2-14.5-88.2-7.2-131.6c2.2-13.3,6.6-43.6,23.2-48
		c28.2-7.4,1.8,71.6,0.9,85.7c-4,62.4,19.3,145.2,71.1,184.4c23.4,17.7,50,22.1,78.6,20c15.6-1.1,45.4-2.5,43.8-24.2
		c-1.8-23.6-39.5-29.7-55.7-39.1c-29-16.8-50.5-47.8-64.9-77.4c-14.5-29.8-23.1-63.4-20.6-96.7c1-13,7-39.6,24.9-22
		c7.9,7.7,6.3,44.5,10,57.1c9.7,32.8,28.7,60.7,50.3,86.7c12.3,14.7,25,30.6,40.7,41.9c16.2,11.6,36,15.4,52.6,25.9
		c14.5,9.2,20.1,10.5,38.5,7.2c16.9-3,33.1-9.1,48.1-17.3c15.2-8.3,29-18.8,41.5-30.7c11.3-10.7,26.9-21.2,7.5-30.4
		c-10.4-5-30-1.6-41.3-2.7c-14.6-1.4-27.4-1.1-40.7-5.1c-30.1-9-64.2-25-89.3-45.7c-10.9-9-15.1-17.7-23.4-28.5
		c-9.8-12.9-28.3-24-34.7-39.1c-2-4.7-8.2-14.7,2.5-16.4c8.8-1.4,13,8.5,18,14c12.1,13.2,25,25.7,38.8,37
		c54.8,45.1,124.2,72.2,195.6,59.9c22.9-4,38.7-25.7,53.8-43.6C1566.8,2335.3,1584.2,2310.6,1562,2292.5z"/>
	<path class="st6" d="M2496,2145c-18,17-38.4,32.7-62.5,39.6c-22,6.3-45.1,7.4-66.7,15.3c-13.1,4.8-11,3.9-24,3.5
		c-9.5-0.3-18.9-1.4-28.4-1.4c-8.3,0-41.8,6.8-39.4-9.5c2.5-16.8,49.3-10.2,60.8-9.8c46.7,1.3,90.9-15.7,126.3-46
		c18-15.3,33.1-33.6,47.3-52.3c7.3-9.6,14.3-19.4,21.4-29.2c10.7-14.6,9.4-15.1,4.4-31.2c-5.1-16.3-19.8-109.8-52.4-67.8
		c-13,16.8-13.3,43.1-22.5,60.8c-11.7,22.5-23.2,44.1-40.8,62.6c-19.4,20.3-90.6,88.5-125,61.2c-5.9-4.7-12.4-22.4-4.6-29.5
		c3.5-3.2,20.9-2.2,27.1-3.9c10.7-2.9,20.8-8.1,30.3-13.8c38.5-23.1,70.6-58.7,91.4-98.3c12.2-23.3,21.6-48.5,26.8-74.3
		c2.1-10.5,7.3-27.3,4-37.7c-2.7-8.5-16.4-20.1-22-27.5c-8.8-11.7-81.9-94.4-87.8-54.1c-2,13.6,11.9,39.1,14.4,53.2
		c4.1,22.6,1.1,37.4-4.4,58.3c-7.3,27.5-12.8,52.6-26.1,78.8c-10.7,21.1-30.7,64-57.3,69c-19.5,3.7-15.6-14.5-7.3-26.3
		c13.4-19.1,32.1-31.6,44-53c32-57.5,37.1-131.5,13.8-193.1c-8.7-22.9-23.6-38.4-46.3-47.5c-11.8-4.8-46.1-19-59-13.8
		c-20.6,8.3-2.5,40.7,5,52.9c14.3,23.3,23.4,41.1,29.5,67.8c5.6,24.4,11.7,55,7.9,80.9c-3.1,20.8-22.6,40.4-39.9,51.5
		c-5.2-9.1,5.4-27.2,7.8-36.5c5.1-20.1,0.2-29.3-3-49.2c-3-18.9-0.1-38.4-3.6-57.3c-3.8-20.8-14.6-40.5-25.8-58.3
		c-19.4-30.8-43.3-63.9-82.4-66c-27.2-1.4-58.3,2.3-84.7,8.3c-7.8,1.8-24.2,4.2-28.3,12.3c-7.9,15.9,24.1,25.3,34.5,30.7
		c34.4,18.1,65.8,41.4,87.2,74.5c20.5,31.9,38.5,70.9,42.3,108.9c0.8,8.3,4.6,25.4-3.4,30.3c-4.6,2.8-12.6-1.2-16.8-3.3
		c-10.9-5.4-8.7-1.9-10.3-16.5c-8.6-78.2-46.3-141.3-114.8-182.2c-39-23.3-70.9-28.5-111.3-5.1c-22,12.8-68.8,57.7-17.6,61
		c14.4,0.9,28.1-2.2,42.2,0.4c8.4,1.6,13.6,6.8,20.4,9c7.4,2.4,16.9,1.6,24.7,3.8c32.5,9,62.5,30.8,85.3,55.1
		c8.6,9.2,58.6,78.8,29,81.3c-15.2,1.3-27.8-32.4-36.8-42.6c-10.2-11.5-23.1-17.7-36.2-25.4c-12.6-7.4-20.5-17.2-31.1-25.3
		c-17.5-13.5-44.2-22.1-65-29.2c-20.3-6.9-38.3-8.3-59.4-7c-8.1,0.5-22.7-1.9-30.3,0.3c-8.8,2.6-18.7,12.4-25.7,18
		c-27.9,22.2-60.1,55.6-63.7,93.1c-2.3,23.2,18.2,12.8,34.1,8.1c22-6.6,44.2-12.4,66.9-15.7c42.8-6.2,88.1-3.2,129.4,9.9
		c17.2,5.5,34.2,13,48.3,24.5c10.8,8.8,17.5,23.9-0.7,26.3c-10.9,1.4-25.1-10.3-34-15.2c-16.2-8.9-33.2-16.3-51-21.4
		c-37.5-10.8-79-12.7-117.1-3.8c-62.1,14.6-120,67.4-110.1,136.8c6.3,44.3,40.5,8.1,54.7-10.1c24.6-31.6,68.8-55.6,107.9-63.2
		c28-5.5,56.8-3.5,84.3,3.2c5.5,1.3,55.5,20.7,25.6,26.4c-4.2,0.8-23.5-9.7-30.3-10.1c-15.1-1.1-30.5,1.6-45.2,4.9
		c-29.4,6.5-59.1,17.1-85.7,31.2c-39.3,20.9-108.7,77-99.7,127.9c5.5,31.2,15.1,61.3,32.6,89.1c9.8,15.6,20.6,32.2,30.8,7.4
		c8-19.6,13.9-39.9,21.5-59.6c15.2-39.5,39.2-71.1,72.3-97.4c12.5-9.9,89.3-62.1,97-34.5c6.1,21.6-72.4,46-87.5,59
		c-17.4,15-36.1,39.5-49.7,58.3c-20,27.5-36,80.1-32.9,114.5c2.4,27.3,32.1,71.6,56.3,84.3c38.7,20.2,24-52.3,23.2-70.9
		c-1.9-47.2,4.4-90.3,31.3-130.1c9.5-14.1,41.7-59.4,64.2-57.7c33.7,2.6-9.9,41.7-17.1,49.6c-47.7,52.3-53.7,162.2-34.1,227.9
		c10.4,34.8,38.1,50.7,70.6,62.3c14.3,5.1,29.9,10,45.3,10.2c22.4,0.3,25.6-6.6,14.7-25.7c-20.7-36.1-47.5-67.6-55.4-109.7
		c-4.1-21.9-4.8-45-4.4-67.2c0.3-23,0.5-52.5,12.8-72.8c3.5-5.8,11.2-16.7,19.7-15.1c17.5,3.4,1,47.9-1.4,59.9
		c-4.6,22.9-3,43.3,0.5,66.1c1.6,10.7,1.8,23.3,5.1,33.1c2.9,8.4,8.3,16.4,11.2,25.2c11.2,34.1,22.7,64.2,51.9,87.5
		c14.7,11.7,30.3,20,47.7,18.6c16.9-1.4,36.7,1,53.1-2.8c21.7-5.2,27.4-20.5,10-34.5c-16.6-13.2-35.3-23.2-52.3-35.8
		c-31.6-23.3-53.5-58.2-68.8-93.9c-8-18.7-14.4-39-14-59.6c0.2-13.6,3.6-47.4,24.1-33.1c9.6,6.7,7.4,16.9,8.2,27.4
		c1.8,21.8,8.5,42.2,18.5,61.7c16.9,33,43.8,73.6,74.9,94.7c14.3,9.6,31.5,13.9,46.7,21.7c10.9,5.6,17.3,13.6,28.6,14.3
		c21,1.3,50-12.6,68.9-20.2c17.4-7,47.9-17.8,56.3-36.7c11.5-26.1-27.8-23.9-45.1-25.2c-19.8-1.5-32.7-0.8-51.3-8.4
		c-21.3-8.8-43.5-15.6-63.3-27.7c-21.6-13.3-40.3-33.3-56.6-52.6c-7.4-8.8-38.9-61.9-6.3-37.8c30.2,22.4,51.6,53.5,84.8,73.2
		c58.7,34.9,158.3,53.7,205.7-7.1c9.5-12.2,39.1-55.8,9.8-64.2c-13.1-3.8-34.8,11.5-48.4,15.3c-15.9,4.5-30.8,7.4-46.7,11
		c-49.2,11.2-106.7-6.3-146.3-35.2c-6.3-4.6-26-14.1-29.7-22.6c-5.8-13.4,20.8-18.1,33-15.2c15.5,3.7,30.5,16,45.5,22.2
		c7.8,3.2,16.2,9.4,23.9,11.8c10.8,3.3,23.8,1.7,35.7,1.5c37.5-0.6,69.8,2.3,106-9c17.7-5.6,36.3-15.3,51.6-25.9
		c5.5-3.8,18.1-11,20.7-17.3c2.3-5.5,0.5-17.8,1.8-24.5c5.7-30.1,23.2-70.4,7.1-100.7c-5.9-11.1-2-9.6-11.7-5
		c-5.9,2.8-10.5,10.7-14.4,15.7C2512.5,2122,2506.1,2135.4,2496,2145z"/>
	<path class="st6" d="M443.7,2064.1c0.1,7.9,7.5,14.8,10.8,22.4c6.6,15.2,9.4,32.4,12.4,48.5c2.7,14.2,4.7,28.6,7.6,42.8
		c3.7,18.1,0.1,32.6-1.8,51.1c-4.7,44.5-3.2,89.6-7.8,134.2c-5,48.4-5.3,100.3-13.2,147.2c-2.2,13.1-6.9,30.1-2.9,43.4
		c7.5,24.6,15.2-12.3,18.8-24.6c11.9-41,19.4-84.8,22.3-127.4c2.2-32.7,5.1-62.1,13.7-93.6c7.7-28.3,7.2-59.4,9.9-88.7
		c3.1-34.6-6-61.1-19.7-92.3C487.1,2112.1,467.3,2057.7,443.7,2064.1z"/>
	<path class="st6" d="M737.2,2368.2c-0.2-5.8-2.2-10.3-5-14.9C726.2,2356.1,734.7,2366.4,737.2,2368.2z"/>
	<path class="st6" d="M742.6,2380.4C741.4,2382.2,741.9,2388.6,742.6,2380.4L742.6,2380.4z"/>
	<path class="st6" d="M740.1,2377C739.8,2376.3,739.8,2376.2,740.1,2377z"/>
	<path class="st6" d="M716.4,2320.8C717.5,2321.9,716.8,2320.8,716.4,2320.8z"/>
	<path class="st6" d="M2713,2027c4.2-8-0.4-17.8,3.1-26.1c4-9.2,9.1-6.2,10.1-17.8c1.2-15-4.8-33.3-8.2-48.4
		c-4.2-18.4-2.9-36.6-2.8-55.4c0.1-33.1,0.5-66.3,0.9-99.4c0.5-33,1.8-65.7-0.8-98.6c-1.2-16,2.1-77-10-84c-6.8-3.9-27.7,0-35.3,0
		c-21.7,0-43.5,0-65.2,0c-69.6,0-139.1,0-208.7-0.1c-196.7-0.1-393.4-0.1-590.1-0.2c-196.6-0.1-393.2-0.1-589.8-0.2
		c-68.9,0-137.9-0.1-206.8-0.1c-22.2,0-44.3,0-66.5,0c-8.2,0-27.3-3.7-34.7,0c-1,0.5-3.5,0-4.7,0c0.1,27.9,0.1,55.9,0.2,83.8
		c-5.9,0-11.8,0-17.7,0c0.4-20.9,0.8-41.7,1.1-62.6c0.3-23.9,4.3-24.7-18.1-24.8c-34.5-0.1-69.1-0.3-103.6-0.4
		c-0.1,15.8-0.1,31.6-0.2,47.4c0,7.9,4.1,30.6-0.1,37.9c-10.8,18.7-19.7-0.1-19.7-12.5c0-19.8,1.3-40.1-0.1-59.8
		c-1.2-17.2-2.7-12.7-21.3-12.6c-14.4,0.1-27.1-3.8-32.6,5.9c-8.8,15.6,15.9,90.6-13.3,83.7c-0.1-13-0.2-26-0.3-39
		c-0.1-8.8,5-42.2-0.4-48.7c-7.7-9.2-63.3-1.5-76.7-1.5c-9.7,0.1-35-4.6-43.5,0.3c-6.7,3.8-4.2,9.9-4.3,20.1
		c0,17.1,2.2,35.9-0.1,52.8c-2.2,15.8-4.4,11.2-22.6,12.1c0.2-27.7,0.5-55.5,0.7-83.2c-17.9,0.3-35.9,0.6-53.8,0.9
		c-10.1,0.2-56.7-5.9-63.8,1c-5.9,5.7-1.3,38.2-1.2,47.5c0.1,13.1,5.2,41.9-4.3,47.7c-19,11.4-24.5-10.4-24.4,16.3
		c0.1,23.7,0.2,47.5,0.3,71.2c0.1,25.8,0.2,51.6,0.3,77.4c0,8.8,2.9,22.7-3,26.7c-4.4,2.9-20.5,0.7-25.8,0.9
		c-14.1,0.5-28.1,1-42.2,1.5c-7.2,0.3-48.9-3.8-53.6,1.9c-5.4,6.4,42.8,5,47.2,5c11.1,0,46-5.4,53.4,1.8c4.9,4.7,3.9,19,4.2,25.3
		c0.3,5,0.8,11.2,0,16.2c-0.9,5.4-4.9,6.6-5.2,11.4c-0.4,5.9,4.2,14.6,3.2,23c-0.7,6.1-3.3,14.6-3.3,23.2
		c0.2,52.2,0.7,104.3,1.1,156.5c0.5,58.2,1,116.3,1.5,174.5c0.2,18,5.1,20.4-12.4,22.5c-16.3,2-14.7-3.4-18.2,10
		c-2.7,10.1,0,24.5,0,35.1c10.2-0.2,20.4-0.4,30.6-0.6c6.9,23.5-24.5,6.6-35,13.5c-7.7,5.1-6.4,17.3-6.6,25.5
		c-1.4,43.8,0,87.8,0,131.6c0,7.9-4.8,35.4,0,41.9c5.9,8.1,32-4.8,39.5,1.9c1.7,1.5,3,18.1,1.3,20.2c-3.8,4.8-20.5-1.5-26.1,1.6
		c-9.8,5.4-4.8,29.8-4.8,43.2c12.8-0.3,26.5-4.1,32.3,4.4c4.5,6.6,2,25.8,2,33.8c0.1,21.1-0.2,42.1,0.3,63.2
		c1.3,54.1,4.8,108,8.4,161.9c19.7-4.7,17.5-76.1,19.8-93.9c7.5,14.4-9.6,64.3,7.9,66.2c2.3-24.5,4.6-49.1,7-73.6
		c1.8-18.6,3.5-37.1,5.3-55.7c1-10.1-1.2-31.6,3.8-40.6c6.8-12.1,36.5-5.8,52.2-5.8c28.6,0,57.1,0,85.7,0
		c-0.2-23.3-0.4-46.6-0.6-69.9c40.5,0,81-1.2,121.6-1.6c31.5-0.3,23.7,5.3,23.7,33.9c0,6.4-3.5,25.1,0.5,30.3
		c6.6,8.7,51.3,6.4,61.8,3.6c11.7-3.1,9.3,0.1,10.1-15c0.3-6.1-3.7-36.3,0.4-41.4c1.8-2.2,15.9-3.3,18.8-1.5
		c9.3,6,4.7,43.9,4.7,57.5c0,7.4-3.6,31.4,0.7,35.2c6.2,5.5,43.3-0.4,53.5-0.6c7.6-0.1,40.5,3.9,44.5-1.7c4-5.6,0.9-19.7,1.1-26.4
		c0.1-2.5-1.5-12.9,0.6-15c12.5-12.2,9.4,8.5,10.1,11.3c0.7,2.8-1.1,14.9-0.5,18c3,15.5-4.6,8,8.5,13.3c15.9,6.5,46,0.9,63.1,0.5
		c72.3-1.5,145.2-1.2,217.3-1.6c77.9-0.5,156.3-0.4,234.4-0.6c18.2,0,39.9,3,58-0.1c17.9-3.1,7.9,4.8,13.8-5.5
		c2.3-4-1.2-19.1-1.3-24.3c-0.1-7.5-4.1-37.6,0.5-42.9c3.4-3.9,15.8-2.6,19.2,1.2c9.1,10.2-7.1,37-0.5,47.8
		c5.2,8.5,27.6,3.2,37.2,3.1c17.6-0.3,27.8,0.3,44.6-0.5c10.2-0.5,23.9,1,28.7-8c1.9-3.5,2.6-35.8,0.8-38.1
		c-8.9-11.7-29,0.2-41.7-4.4c-13.1-4.8-8.9,1.5-9.2-15.1c-0.1-8.2,1.3-17.6-1.8-25.3c4-0.1,8.1,0,12.1,0.2
		c-2.3,2.3,31.9,1.7,34.5,1.6c14.4-0.5,28.9-0.9,43.3-1.1c35.8-0.5,71.5,0.4,107.3,0.6c66,0.3,131.9,4.2,198.1,3.2
		c135.1-2,269.8,0.2,405.2-1.1c72.7-0.7,145.9-4.3,218.6-2.6c45.6,1.1,112.4,17.1,118.5-45.7c2.2-22.9-1-46.9-0.7-69.9
		c0.4-38.8,1.4-77.7,0.8-116.5c-0.4-29.6-3.6-58.7-3-88.2c0.2-9-0.4-18,0.9-27.1c1.6-11.2,14-26.9,13.4-37.6
		c-0.5-8.3-10.3-20.5-11.5-31.8c-0.8-7.6-0.2-14.6,0.9-22.1c3-20.6,8.6-43.5,18.2-62c7.7-14.8,9.7-22.5,3.7-38.9
		C2727.5,2082.6,2724.7,2052.3,2713,2027z M360,2383.1c-8.7,0-17.5,0-26.2,0c0-4.9-1.8-19.2,0.9-21.8c2.6-2.5,21.5-0.7,25.3-0.8
		C360,2368,360,2375.5,360,2383.1z M360.1,2590.7c-7.4,8.6-30.2,4.4-34.8-4.5c-5.2-9.9,0-35.9,0-47c0-23.5,0-47.1,0-70.6
		c0-4.9-3.7-32.9,0-36.3c4.3-4,33,0,34.8,2.4c5.6,7.4,0,42.2,0,51.1C360.1,2520.8,360.1,2555.7,360.1,2590.7z M332.7,2668.8
		c0-6-3.6-29,0-32.9c1.5-1.6,24-3.6,26.8-1.2c1.6,1.4,1.9,30.4,0.5,32C356.7,2670.6,339,2668.6,332.7,2668.8z M2535.3,1697.9
		c13.6,3.2,27.1,7,40.6,10.6c11.6,3,30.7,3.7,41,9.5c11.3,6.3,17.7,23.3,23.8,34.9c14.5,27.5,25.1,55.4,33,84.5
		c8.9,32.9,24.9,51.7,34.4,83.3c3.3,10.8,1.2,7.9,1.4,17c1.2,3.3,1.4,6.5,0.5,9.9c-2.1,4.9-0.7,7.1,4.1,6.8
		c3,10.5,7.7,20.9,10.1,30.3c-14,4.8-47.3-25.1-61-30.3c-33.4-12.7-47.2-39.3-56.9-72.4c-8.8-29.9-21.5-60.2-29.8-90.4
		c-9.7-35.5-44.5-59.6-53.7-95.2C2527.2,1695.1,2531.4,1695.7,2535.3,1697.9z M2521.5,1773.1c7.1,5.4,15.4,2.5,23.4,6.7
		c8.4,4.4,9.9,9.4,13.8,18.7c9.9,23.9,17.1,48.8,26,73c8.3,22.5,17.4,45.8,31.8,65.2c6,8.1,16.1,13.7,21.6,21.4
		c6.5,9,9.3,29.8,8,41.2c-16.7-9.2-35.7-17-48.6-31.6c-16.3-18.5-23.5-48.4-31.8-71c-15.8-42.9-47.3-78.9-59.4-124.2
		C2511.7,1769.3,2516.1,1774.1,2521.5,1773.1z M1717.4,1695.5c7,5.3,8,1.7,13.3,6.7c6.6,6.2,6.6,2.5,7.1,10.4
		c0.8,11.5-13.9,30.7-19.6,39.8c-8.8,14.1-18.7,27.6-28.6,41c-7.3,9.8-12.1,23.9-22,18.3c-11.9-6.7-26.7-36.8-34.1-48.2
		c-6.9-10.7-28.5-38.1-27.6-51.5C1607.4,1686.9,1697.9,1695.5,1717.4,1695.5z M1515,1691.5c20.9-24.3,75.8,79.2,84.5,92.6
		c11.9,18.3,54.9,100.5,77,96.5c20.6-3.7,42.7-52.6,52.8-68.5c19.4-30.6,35.4-63.6,55.6-93.6c9.4-14,21.6-36.5,40.5-26.9
		c21,10.7,7.1,33.5-1.7,48.9c-19.9,34.8-48,65.2-70.4,98.5c-13.5,20.1-63.3,113.8-85.5,106.9c-15.6-4.8-33.3-40.6-41.3-53.4
		c-13.2-21.1-25.3-42.6-39.7-62.9c-16.1-22.8-33.4-44.7-49.7-67.4c-9.1-12.7-18-25.6-26.3-38.8
		C1501.7,1709.2,1504.4,1704.3,1515,1691.5z M908.7,1608c6.3-0.1,12.5-0.2,18.8-0.4c0,6.4,3.2,23.7,0,28c-3.6,4.8-10.4,3.5-18.8,3.8
		C908.7,1629,908.7,1618.5,908.7,1608z M829.8,1774.1c-28.9,52.3-51.1,105.8-72.1,160.6c-7,18.1-5.1,33.8-22.3,47.7
		c-7.8,6.3-46.4,32.2-54,24.3c-9.8-10.1,13.6-33.8,19-41.2c17.1-23.2,26.9-50.6,37-77.5c10.8-28.8,19.9-66,40.1-89.8
		C783.6,1791.1,826.6,1764.4,829.8,1774.1z M694.9,1607.3c4.2-4.2,29.3-5.1,34.6-2.3c8,4.1,8.6,19.4,5.8,29.3
		c-2.4,8.6,0.4,7.7-10,11.6c-8.1,3-26.2,3.7-30.4-3.4C690.7,1635.3,694.9,1615.7,694.9,1607.3z M619.1,1976.6
		c15.8-30.2,18.6-66.6,31.9-98.2c14.7-34.8,23.9-67.1,38.3-101.4c3.6-8.6,7.3-17.2,11.2-25.7c3.3-7.2,3.5-15.7,5.5-21.1
		c0.9-2.6,7.2-16.8,9.6-18c2.8-1.4,6.3,3.6,6.4,3.6c15.9-4,32.7-5,48.8-9.2s32.3-10.1,49.1-11c-32.1,61.2-69.6,121.8-90.8,188.2
		c-7.6,23.9-11.9,48.5-32.5,64.8c-22,17.4-51.1,25.3-76.2,37.2C618.8,1982.9,618.4,1979.8,619.1,1976.6z M503.3,1605
		c22.5,0,19.6-0.2,19.6,22.1c0,19.4-1.1,16.4-20,16.4C503.1,1630.7,503.2,1617.9,503.3,1605z M487.8,1883.1
		c-0.6,41.8-63.9,40.6-64.4-1.2C422.9,1840.6,488.4,1841.8,487.8,1883.1z M460,2708.5c-3.2-30.8,44.3-35.2,46.4-4.2
		C508.2,2733.3,467.4,2736.5,460,2708.5z M541.7,2299.3c-6.1,97.1-15.8,195.3-28,291.9c-4.2,33.1-11.8,46-41.7,61.4
		c-15.8,8.1-31.2,17.3-47.7,23.9c-7.4,3-15.2,5.9-23.1,7.1c-17.4,2.6-15.4-4.1-17.1-19.6c-10.6-93.8-1.2-189.9-1.5-284.1
		c-0.3-101.3-1.8-202.6-2-303.9c0-10.3-1-17.8-3.7-25.4c-2-5.5-4.9-9.8-6.3-16c-2.5-11.4-3.8-27.5-0.7-38.9
		c8.7-32.2,46.4-7.9,30.7,19.8c6.9,6.2,11-7.8,14.7-10.3c-1.1-5.9,0.9-7.9,6-5.9c4,0.6,8,1.5,11.8,2.7c16.7,4.5,33.3,12.3,48.6,20.3
		c37.9,19.9,42.8,52.3,50.6,91.4c4.9,24.5,18.3,50,21.4,76.1C558.1,2226.6,544,2262.7,541.7,2299.3z M740.6,2609.6
		c3.4,18.1-9.9,40.3-30.9,27C685.2,2621.1,715.8,2582.5,740.6,2609.6z M764.5,2723.2c-10.8,0.1-56.2,5.2-60.5-2.7
		c-6.3-11.6,2-16.4,8.7-19.3c8.5-3.7,31.6-1.2,40.8,0C762.9,2702.4,780.4,2714,764.5,2723.2z M772.6,2577.3
		c-76-10.3-102.7-120.3-126-181.8c-12.2-32-27.7-67.1-31.2-101.5c-1.5-14.8-2.4-19.2,12.2-17c30.5,4.7,61.4,30.6,88.8,43.7
		c-8.9-8.2-15.8-15.4-20.9-26.5c-1.5-3.4-11.8-27.7-9.7-29.9c5-5.3,21.8,8.2,26.8,11.2c11.6,7.1,25.7,14.6,34.2,26.3
		c14.2,19.6,19.1,47,28.4,69.1c9.6,22.8,22.5,44.2,33.9,66.1c3.9,7.6,32.4,51.8,25.4,60.3c-24.2-5.8-43.7-16.2-57.2-37.5
		c-13.8-21.8-16.1-53.5-33.2-72.6c-5.8,20,9.4,46.9,17.5,64.3c9.3,19.9,19.1,40.1,30.1,59.1c6.6,11.4,49.1,60.6,39.8,74.5
		C822.5,2598.5,784.3,2578.9,772.6,2577.3z M888.4,2751.9c-10,11.4-63.3,2.7-79,2.7c0.2-5.2-2.9-33.9,0.5-36.7c1.5-1.3,8,0.4,10,0
		c13.9-2.6,30.8,0,45,0c5.8,0,19.4-2.8,23.6,1.9C891.9,2723.7,888.4,2745.9,888.4,2751.9z M1487,2746.2c-6.8,4.5-20.4,1.5-28.1,1.4
		c-20.9-0.1-41.8-0.2-62.6-0.3c-40.9-0.2-81.9-0.4-122.8-0.6c-67.6-0.3-135.3-0.7-202.9-1c-50.2-0.2-100.3-1.1-150.5-1.1
		c0.1-4.7-2.5-26.6,0.6-29.6c1.9-1.8,24.7-0.1,29.8-0.3c26.7-0.8,53.5-0.9,80.2-1c9.8,0,19.6,0.1,29.4,0.1c35.7,0.1,71.4,0,107.2,0
		c93.5,0,187.1,0,280.6,0c7.6,0,28.4-3.9,35.1,0C1491,2718.7,1487,2735.5,1487,2746.2z M1445.4,2489.2
		c-173.5,116.6-422.4,85.8-561.4-71.4c-116.2-131.3-140.6-334.2-59-489c72.8-137.9,222.7-223.5,377.4-226.1
		c167.1-2.8,321,95,391.5,246.3C1682.8,2139.9,1621.1,2371.1,1445.4,2489.2z M1579.9,2694.7c12.8,0.4,36.7-3.3,43,5
		c3.5,4.6,1.4,30.9-2.6,33.6c-5.3,3.5-34.7-1.2-41.7-1.2c-12.1,0-46.1,5.8-53.6-1.6c-2-2-0.6-29.5,0.7-31.1
		C1533.4,2690,1568.3,2695,1579.9,2694.7z M1732.8,2551.1c-6.2,10.4-58.7,2.7-71.8,2.3c-11.7-0.3-23.7-0.1-35.3-1
		c-20.2-1.5-14.8-3.5-7.8-19.1c14-31.2,34.9-56.7,53.6-85.4c16,8.8,17.6,34.5,28.5,47.7c14.6,17.6,32.7,32,39.1,56.6
		C1737,2551.9,1734.9,2551.5,1732.8,2551.1z M1833.3,2555.8c-6.1,1.6-18.3,13.4-24,12.3c-5.3-1-11.6-12.7-14.5-16.7
		c-14.1-19.8-27-40.5-41-60.4c-19.3-27.3-37-54.5-54.6-82.8c-4.7-7.5-12.1-24.3-20.5-28.4c-8-3.8-1.5-4.4-9.3,0.3
		c-7.4,4.4-15.2,23.5-20.2,30.8c-25.1,36.2-52.9,70.5-78.4,106.4c-9,12.7-22.9,44.3-36.1,48.7c-9.4,3.1-21.4-1.5-22.6-10.7
		c-1.5-11.1,17.3-34,22.6-42.7c11.4-18.9,23.4-37.5,36-55.6c22.8-32.8,48.8-62.7,68.7-97.3c6.9-12,14.9-29.9,27.3-37.3
		c10.2-6.1,9.8-4.7,17.8,5c7.2,8.7,13.8,17.9,20.1,27.3c24.4,36.3,47.2,74.2,68.5,112.4c9.8,17.5,19.4,35.3,31.2,51.6
		C1811.2,2528.2,1834,2545.1,1833.3,2555.8z M2280.6,2525.9c-177,63.6-383.4,1.5-491.3-153.3c-86.5-124-101.7-291.4-38.3-428.8
		c35.6-77.1,95-141.7,168-184.9c43.2-25.6,91.2-43.7,140.6-52.7c24.3-4.4,50-7.8,74.7-6.3c23.4,1.4,52.9,2.5,75.6,7.1
		c174.7,35.6,319.4,173.1,344.8,353.6c6.1,43.2,18.2,85.2,5.9,128.2c-5.9,20.5-6.8,42.7-13.3,64.3c-7.2,23.7-18.3,46.3-30.6,67.7
		C2463.4,2414.1,2382.7,2489.3,2280.6,2525.9z M2500.7,2483.2c16.6-38.2,36.4-72.7,58.8-106.8c-9.1-3,3.6-23.8,6.9-31.6
		c4.6-11,8.3-27.3,20.1-31.2c-23.6-6.3,36.8-55.5,45.8-58.8c23.9-8.8,16.6,17.7,7.5,30.8c-12.6,18.3-28.5,28.6-36.3,50.4
		c-7.5,21-9.8,45-23,63.6c-8.4,11.9-12.8,22-19.7,35.3C2554.7,2446.5,2518.7,2511.1,2500.7,2483.2z M2665.5,2608
		c-21.7-12-7.9-43.2,15-39.8C2706.8,2581.6,2692.4,2622.9,2665.5,2608z M2715.7,2259c11,3.2-6.8,34.8-9.9,43.7
		c-6.5,18.7-12.4,37.6-18.4,56.4c-12.4,39.4-24.6,79-40.4,117.3c-12,28.8-24.6,65.8-55.7,79c-13.5,5.7-27.3,4.9-41.7,5.2
		c-8.2,0.1-35.6,7.7-39.4,3.3c-10.1-11.7,28.3-62.4,34-72.4c19.7-35.3,36.4-74.1,49.5-112.3c8.6-25,12.9-55.2,33.3-73.9
		C2651.3,2282.9,2687.2,2274.3,2715.7,2259z"/>
	<path class="st6" d="M716.9,2321.2c1.2,4.1,5.6,24.8,10.5,26.2C730.4,2335.9,724.2,2327.9,716.9,2321.2z"/>
</g>
</svg>
