<?xml version="1.0" encoding="utf-8"?>
<!-- Generator: Adobe Illustrator 22.0.0, SVG Export Plug-In . SVG Version: 6.00 Build 0)  -->
<svg version="1.1" id="Слой_1" xmlns="http://www.w3.org/2000/svg" xmlns:xlink="http://www.w3.org/1999/xlink" x="0px" y="0px"
	 viewBox="0 0 3000 3000" style="enable-background:new 0 0 3000 3000;" xml:space="preserve">
<style type="text/css">
	.st0{fill:#68C6BF;}
</style>
<g>
	<path class="st0" d="M419.2,2545.8h40.3V453.2c-13.4-0.1-26.9-0.1-40.3-0.1V2545.8z"/>
	<path class="st0" d="M287.9,426.1V2575l111.3-29V453.2c-2.1,0-4.2,0-6.3,0L287.9,426.1z"/>
	<path class="st0" d="M1426.8,666.2v11c-0.7,0-1.3,0.1-2,0.1l2,2.2v229.7c-2.5-2.5-5.9-4.1-9.8-4.1h-9c-0.4,0-0.8,0-1.2,0.1V663.8
		L479.6,425v2148.5l926.6-241.2h0.7v-346.2h20v346.2h1299.8V666.2H1426.8z M1426.8,1806.9c-2-1.1-4.3-1.8-6.8-1.8h-13.2V1128
		c0.4,0,0.8,0.1,1.2,0.1h15c1.3,0,2.6-0.2,3.8-0.6V1806.9z M2383.8,982.5h-0.4h-648.6l-169.3-182.8h1015.5L2383.8,982.5z
		 M2383.4,1002.5v61.8h-647.2v-61.8H2383.4z M2383.4,1162.9v711.8h-647.2v-711.8H2383.4z M2383.4,2039.6v71h-647.2v-71H2383.4z
		 M1726.9,2130.6h9.3h647.2h4.8l195.4,90.9h-1015L1726.9,2130.6z M2403.4,2115.6v-5v-71h158.7l-157.9-165h-0.8v-711.8h0.7
		l157.9-98.6h-158.6v-72.7l184-170.5v1380L2403.4,2115.6z M1716.2,991.8v10.7v61.8h-153.3l153.2,98.6h0.1v711.8l-153.2,165h153.2
		v74.1l-178.6,102.6V799.8h0.7L1716.2,991.8z"/>
	<ellipse class="st0" cx="2091" cy="1396.7" rx="61" ry="46"/>
	<path class="st0" d="M1833.5,1409.6c8.1,20,26.6,38.8,20.1,62.7c-5.2,19-14.3,30.5-5.2,51.1c4,9.1,12.7,13.4,17.3,21.2
		c1.5,2.6,3.6,14.3,3,9.4c0.3,2.5-0.3,13.3,0.4,8.2c2.3,11.3-18.2,24.4-21.8,34.4c-9,25.1,3.3,38.2,15.8,57.5
		c16.2,25.1-5.2,29.2-14.8,51.1c-15.2,35.1,11.8,69.9,47.7,72.2c11.6,0.7,23.5,0,35.1,0c52.3,0,104.5,0,156.8,0
		c30.9,0,85.5,9.7,112-10.8c30.7-23.8,24.4-73.3-11.5-88.5c-14.3-6-31.7-4.1-46.9-4.1c-50.9,0-101.8,0-152.7,0
		c-3.6,0-39.2,2.7-26.9-8.1c4.8-4.2,31.8,0,38,0c50.8,0,101.7,0,152.5,0c20.4,0,39.6-0.8,54.5-17.7c28.6-32.4,5.9-81-35.2-85.5
		c-39.2-4.2-80.9-0.2-120.3-0.2c-24.1,0-48.1,0-72.2,0c-8.2,0-27.9-2-9.6-8.1c13.5-4.5,36.2,0,50.4,0c27.5,0,55,0,82.5,0
		c40.2,0,109.1,11.6,116.9-44.7c8.9-64.7-64.6-58.7-105.8-58.7c-27.5,0-55.1,0-82.6,0c-14.9,0-35,3.6-49.6,0c-8-2-11.7-2.9-7.6-10
		c3.5-5.9,21-10.2,26.7-14.9c8.1-6.7,14.2-15.9,17.4-25.9c6.3-20,7.1-35.6,25.8-49.5c19.9-14.8,47.3-16.1,70.7-10.4
		c19.6,4.7,34.9,14.6,42.5,33.9c4.6,11.8,2.8,21.1,3.5,32.9c0.6,9.8-7.1,3.4,3.7,10.4c4,2.6,11.7,2.4,16.2,2.4
		c39.7-0.2,64.6-44.8,43.7-78.7c-11.1-18.1-35.4-26.8-53.3-36.4c-19.5-10.4-39-20.7-58.5-31.1c-39.6-21.1-79.1,4-117.4,18.7
		c-42.6,16.3-86.3,31-128.2,49.2C1839.8,1353.1,1822.1,1379.9,1833.5,1409.6z"/>
</g>
</svg>
