<?xml version="1.0" encoding="utf-8"?>
<!-- Generator: Adobe Illustrator 22.0.0, SVG Export Plug-In . SVG Version: 6.00 Build 0)  -->
<svg version="1.1" xmlns="http://www.w3.org/2000/svg" xmlns:xlink="http://www.w3.org/1999/xlink" x="0px" y="0px"
	 viewBox="0 0 3000 3000" style="enable-background:new 0 0 3000 3000;" xml:space="preserve">
<style type="text/css">
	.st0{display:none;}
	.st1{fill:#65C8D0;}
</style>
<g id="Слой_1" class="st0">
	
		<image style="display:inline;overflow:visible;" width="1600" height="1380" xlink:href="C:\Users\AHAHAC\Desktop\511973_7.jpeg"  transform="matrix(1.6063 0 0 1.6063 340 90.3125)">
	</image>
</g>
<g id="Слой_2">
	<g>
		<path class="st1" d="M1473.7,234.7c26.1-5.3,52.5-7.8,79.1-7.3c-30.3-17.2-115.5-69.9-153.4-63.1c-50.1,9-30.8,60.6-25.3,105.6
			C1406.4,256.3,1439.4,242.5,1473.7,234.7z"/>
		<path class="st1" d="M1642.5,300.4c-44.1-63.8-126.2-49.8-193.3-27.9c34.8-0.3,69.8,3.3,104.3,8.1
			C1583.7,284.9,1613.5,290,1642.5,300.4z"/>
		<path class="st1" d="M1383.2,328.9c89.3,4.5,208.3,44.2,286.6,86.9c-0.3-70.6-8.6-82.1-77.4-98.6c-65.7-15.8-146.2-23.3-212.6-7.4
			C1380.9,316.1,1382,322.5,1383.2,328.9z"/>
		<path class="st1" d="M1405.3,381c77.8,12,203.2,44.6,263,99.1c4.5-71.9-217.6-113.8-279.1-120.8
			C1385.7,379.3,1391,386.6,1405.3,381z"/>
		<path class="st1" d="M1657.7,564.1c6.8-38.4,12.7-37.3-3.5-55.9c-48.5-55.7-183.7-86.2-252.9-97.8
			C1416.3,469.2,1605.7,511.6,1657.7,564.1z"/>
		<path class="st1" d="M1432.4,494.2c71.6,31.5,158.5,63.4,216.2,117.9c12.5-63.4-188.8-125.8-232-146.3
			C1413.8,484.1,1419,493.5,1432.4,494.2z"/>
		<path class="st1" d="M1458.2,573.8c62.2,18.1,128.6,59.3,178.7,100.2c12.5-71-147.2-121.8-200.4-145.6
			C1440.5,540.2,1445.7,570.2,1458.2,573.8z"/>
		<path class="st1" d="M1499.4,655.3c37.8,24.9,98,37.6,128.2,72.4c8.6-48.7-122.7-106-162.8-120.4
			C1476.3,637.8,1479.3,642,1499.4,655.3z"/>
		<path class="st1" d="M1615.2,790.9c14.9-20.9,12.7-33.8-6.8-38.8c-16.4-30.6-82.4-46.3-111.1-63.1
			C1520.4,745,1586,742.7,1615.2,790.9z"/>
		<path class="st1" d="M1599.8,842.9c3.4-10.7,6.8-21.3,10.3-32c-16.7,9.9-71-39-80.8-45c14.4,34.9,28.5,70.1,41.2,105.7
			C1588.7,861,1593.8,859.1,1599.8,842.9z"/>
		<path class="st1" d="M1698.3,385.4c14.6,137.8-22.5,312.2-62.6,444c40.9-30.6,54.8-127.3,64-176.6
			c20.7-111.5,39.1-275.7-20.8-377.2c-49.6-83.9-130.3-162.4-230.4-127.5C1567.3,189,1683.9,249.9,1698.3,385.4z"/>
		<path class="st1" d="M1696.1,777.8c77.9-74.1,84.4-264.1,72.4-371.3c-10.1-90.7-66.9-249.8-175-264.1
			C1799.6,296.7,1755.9,558,1696.1,777.8z"/>
		<path class="st1" d="M1804.4,646.5c26.2-66.1,17.7-138.4-3.3-204.7c4,86.4-15.1,169.7-28.8,254.3
			C1786.3,679,1797,665.2,1804.4,646.5z"/>
		<path class="st1" d="M1848,598.7c12.6-15.8,30-29,29.9-48.1c-0.2-82.3-26.3-157.7-66-228.9c-30.3-54.4-69.9-157.7-132.7-166.7
			C1785.6,251.5,1868.5,459.7,1848,598.7z"/>
		<path class="st1" d="M1953.3,261.4c11.6,24,21.8,48.6,30.7,73.7C1985.1,295.2,1991.2,284.2,1953.3,261.4z"/>
		<path class="st1" d="M1967.3,410.7c1-77.9-37.6-164.6-108-191.5c48.7,66.9,89.2,141,100.2,224.2
			C1968.9,427.5,1967.1,426.7,1967.3,410.7z"/>
		<path class="st1" d="M1932,467.1c-7.3-107.2-73.4-251.4-176.9-292.3c67.6,111.4,142.8,212.5,151.7,347.6
			C1925.4,496,1933.7,491.9,1932,467.1z"/>
		<path class="st1" d="M1552.9,915.8c-259.2,148.7-571.6,440.1-896.2,309.2c1.6,25.3,0.3,94.7,27.7,110.2
			c11.7,6.6,86.2-19.7,97.2-22.7c76.3-20.7,151.6-43.7,228.2-63.2c150.2-38.4,277.1-99.6,411.4-176
			c146.1-83.1,277.1-204,403.7-313.9c117.2-101.7,243.7-250.3,218.3-415.8c-10.2-9.8-20.1-19.9-29.6-30.4
			c0.7,158.4-118.5,280.9-216.3,399.4C1719.5,806.7,1650.5,859.9,1552.9,915.8z"/>
		<path class="st1" d="M1403.3,1942.4c-13.7,1.1-91.2-27.7-122.8-35.1c-48.7-11.4-130.6-12.9-167.1-53.8
			c-42.5-47.6,19.6-113.5-50.9-116.3c17.4,36.9-18.3,77.9,6.4,117.9c23.1,37.5,85.7,56.6,123.6,68.5c51.5,16.2,238.4,35,208.6,108.7
			c-29.6,73.2-185.1,103.9-246.8,124.5c-100.6,33.5-127.2,94.8-187.5,177.7c-24.4,33.5,32.1,44.5,54.7,1
			c51.2-98.4,92.5-116.4,198.9-147.3C1291,2167.9,1573,2015.1,1403.3,1942.4z"/>
		<path class="st1" d="M1244.6,1747.3c-39.7-2.1-79.3-4.7-118.9-6.9c3.2,17.2-1.2,35-3,52.1
			C1160.7,1770.9,1203.9,1762,1244.6,1747.3z"/>
		<path class="st1" d="M1156.4,1830.6c73.4-28.4,152.5-42.3,222.7-79.1c-82.9-0.1-178.5,25.5-251.3,72.8
			C1138.7,1843.3,1141.6,1836.3,1156.4,1830.6z"/>
		<path class="st1" d="M1243.4,1859.2c79.6-38.2,162.8-63.1,237.4-111.6c-50.7,4.6-64.6,20.3-111.2,41.7
			c-61.5,28.3-128.6,42.1-192,65.1C1201.5,1860.9,1224,1868.5,1243.4,1859.2z"/>
		<path class="st1" d="M1445,1840c58.7-34.9,147.1-74,191.6-126.8c-18.7,6.7-37.7,12.6-56.9,17.7c-50.1,13.1-78.8,41.3-125.9,67.3
			c-56.7,31.4-117.9,51.9-176.9,78.2C1359.8,1896.9,1370.6,1884.2,1445,1840z"/>
		<path class="st1" d="M1435,1915.6c63.2-41,130.9-75.3,192.1-119.5c8.3-6,134.4-100.5,65.1-104.9c-10.7-0.7-99.9,92.6-124.7,108
			c-58.2,36.1-115.9,72.9-176,105.8C1409,1923.8,1423.5,1927.4,1435,1915.6z"/>
		<path class="st1" d="M1768.1,1781.8c-53.6,65.5-122.6,99-190.7,146.5c98.7-13.9,206.2-37.1,303-60.4
			c-13.2-9.1-26.3-18.5-39.3-28.1C1815.8,1821.5,1790.8,1803.3,1768.1,1781.8z"/>
		<path class="st1" d="M1732.5,1744.3c-75.3,81.4-176.6,130.1-269,188.5c29.8,15,59.8-0.5,76.7-13.6
			C1577.5,1889.9,1773.4,1791.7,1732.5,1744.3z"/>
		<path class="st1" d="M1719.7,1679c33.6,49.2,159.1,202.5,220.1,156.5c-12.2-7.5-24.3-15-36.5-22.5
			C1873.5,1793.9,1739.1,1670.1,1719.7,1679z"/>
		<path class="st1" d="M1757.9,1660.9c16.9,17,34.4,33.4,52.6,49c37.2,31.9,127.5,117.9,175.5,96.6
			C1946.4,1783.5,1791.9,1644.4,1757.9,1660.9z"/>
		<path class="st1" d="M1798.2,1640.7c33.8,34.2,84.6,58.3,123.7,86.4c-18.7-41-46.7-76.8-65-118
			C1857,1609.7,1794,1642.9,1798.2,1640.7z"/>
		<path class="st1" d="M1882.5,1594.1c-6.4,18.1,60.8,120.4,72.8,137.8c10.9,15.8,100.4,83.5,77.8,37
			C2023,1748,1907.7,1523.1,1882.5,1594.1z"/>
		<path class="st1" d="M2010.5,1564.6c-0.5-23.5-2.5-47-5.9-70.3c-10.8,9-21.5,17.9-32.3,26.9
			C1985.4,1535.2,1997.4,1550.5,2010.5,1564.6z"/>
		<path class="st1" d="M2056.8,1611c0.7-24.3,0.2-48.6-1.4-72.9c-2.9-26.2-6-52.3-9.3-78.5C2019,1483.1,2032.5,1588.3,2056.8,1611z"
			/>
		<path class="st1" d="M2111.7,1661.2c0.4-78.5-8.9-157.6-31.9-232.8C2053,1454.9,2084.9,1636.5,2111.7,1661.2z"/>
		<path class="st1" d="M2067.2,1725.3c-21.8-20.5-41-43.8-60.1-66.8c19.2,29.9,35.3,61.5,50.9,93.4
			C2066.7,1737.6,2080.8,1738.2,2067.2,1725.3z"/>
		<path class="st1" d="M1969.5,1563.6c20.4,29.6,44.2,56.9,67.6,84.1c11.2,13,56.2,78.2,73.1,65.4
			C2112.2,1675.8,1995.7,1593.4,1969.5,1563.6z"/>
		<path class="st1" d="M2122.4,1382.9c-32.5,37-2.3,74.2,6.5,124c10,56.8,13.6,114.6,12.3,172.3c33.3-44.7,19.5-108.6,16.1-162.9
			C2154.3,1467.5,2134.5,1428.9,2122.4,1382.9z"/>
		<path class="st1" d="M2160.5,1337.3c-26.5,33.1,1.7,60.6,13.2,100.6c17.1,59.8,18.7,127.8,17.6,189.7
			c41.3-32,21.3-128.3,10.3-174.7C2192.5,1414.5,2182,1370.8,2160.5,1337.3z"/>
		<path class="st1" d="M2368.6,1033.7c-13.2,23.7-50.1,62.3-53.6,88.3c-4.1,30.9,22,59.5,34.3,94.4c4.7-10.7,9.4-21.4,14.1-32.1
			C2381.7,1132.7,2379.1,1086.5,2368.6,1033.7z"/>
		<path class="st1" d="M2409.8,957.5c-5.5-23.6-17.3,25.3-18.2,35.8c-3.5,40.9,18.6,84.2,16,126.7c-2.7,43.7-26.5,76.4-36,116.4
			c-8.9,37.8-0.1,70.3,0.5,113.3C2415.8,1224.7,2440.5,1088.6,2409.8,957.5z"/>
		<path class="st1" d="M2289.2,1161.6c-28.7,43,10.9,120.6,15.9,170.8c7.3,74-0.7,141.6-27.8,210.9c55.4-74,72.3-145.6,62.1-236.9
			C2333.7,1255.5,2317.9,1204.3,2289.2,1161.6z"/>
		<path class="st1" d="M2196.9,1290.7c-14.6,36.8-8.3,8.6-5.3,42.4c5.4,62.6,45.8,123.8,49.1,191.7c0.3,9.5,0.6,18.9,0.9,28.4
			c46.3-114.2,40-221.7,11.7-339.3C2238.5,1234.7,2206.2,1267.1,2196.9,1290.7z"/>
		<path class="st1" d="M1439.4,1251.5c15,24.2,41.5,103.5,71,90.2c-38.7-67.8-97.4-142.8-121.6-217.2
			C1349,1145.4,1418.3,1217.4,1439.4,1251.5z"/>
		<path class="st1" d="M1322.4,1167.8c1,39.4,118.8,201.5,144.7,192c-4.5-7.8-9-15.6-13.4-23.4c-26.3-48.8-55-115.6-94.7-155
			C1356.7,1179.2,1321.4,1130.6,1322.4,1167.8z"/>
		<path class="st1" d="M1470.6,1209.3c16.6,25,28.5,61.9,47.4,83.7c31.3,36.1,2.6,41.9,58.1,19.8c-12.8-10.4-25-21.4-36.7-33
			C1516.1,1256.6,1494.1,1232.1,1470.6,1209.3z"/>
		<path class="st1" d="M1416.6,1110.1c54.2,47,146.1,204.4,221.1,181.3c-10.7-14.6-19.7-30.1-27.2-46.5
			c-6.8-14.7-68.9-44.3-83.4-57.7C1489,1151.9,1464.4,1084.9,1416.6,1110.1z"/>
		<path class="st1" d="M1472.2,1078.4c18.6,26.7,39.7,52.1,62.6,75.2c17.7,18.2,37,34.5,58.1,48.8c-22.7-52.1-59.9-96.3-81.5-149.1
			C1498.5,1061.9,1485.5,1070.3,1472.2,1078.4z"/>
		<path class="st1" d="M1602.2,1059c23.8,40.6,91.4,216.3,136.8,191.9c-62.4-77.2-98.2-171-151.8-253.9
			C1566.3,1014,1589.9,1038.1,1602.2,1059z"/>
		<path class="st1" d="M1688,1274.7c-11.3-17.9-22.3-36-33-54.2c-35.4-62.7-73.8-130.1-104.2-195.2
			C1528.9,1041.6,1646.7,1290.5,1688,1274.7z"/>
		<path class="st1" d="M2025.5,1021.1c-100.3,41.6-227.6,86.8-335.5,98.9c6.9,12.9,14.1,25.7,21.5,38.3
			c5.8-24.4,134.3-51.9,157.2-59.9C1914.3,1082.2,2004.5,1065.6,2025.5,1021.1z"/>
		<path class="st1" d="M1764.7,1235.6c12.8,1.9,40.6-25,52.2-32.9c53.1-35.9,110-72.6,159.1-113.6c-80.3,33.6-163.6,59.2-246.1,86.7
			C1720.1,1179.1,1750.6,1233.5,1764.7,1235.6z"/>
		<path class="st1" d="M2201.8,744.1c11-65,2.6-132.2-13.2-195.7c-58.2,148.3-64,296.4-117,440.1
			C2127.2,917.7,2186.6,833.7,2201.8,744.1z"/>
		<path class="st1" d="M1616.8,988.1C1635,977.3,1805,940,1805,935c0-40.2-1.9-80.3-2.3-120.4
			C1770.7,838.3,1601.5,963.8,1616.8,988.1z"/>
		<path class="st1" d="M1872,919.7c0-53.3-0.1-106.6-3-159.8c-54.3,51.6-34.5,91.8-34.2,171C1861.4,937.6,1873.8,933.9,1872,919.7z"
			/>
		<path class="st1" d="M1918.1,708.6c-43.2,49-16.2,142-16.3,205.6C1948.5,901.2,1920.7,750.1,1918.1,708.6z"/>
		<path class="st1" d="M1965.5,651.2c-45.9,58.9-10.1,174.6-11.6,246.7c8.2-3.2,16.5-6.3,24.7-9.5
			C1953.3,845.3,1968.6,701.4,1965.5,651.2z"/>
		<path class="st1" d="M2054.8,846.1c-12.8-79.5-38.7-156-60-233.4c-27.8,37.1,11.4,211.4,11.6,263.2
			C2006.7,875.8,2055.8,852.1,2054.8,846.1z"/>
		<path class="st1" d="M2166.9,522.7c26-65.2-45-109.5-91-149.4c0,13.4-0.1,26.8-0.1,40.2C2103.8,414.2,2155.3,498.4,2166.9,522.7z"
			/>
		<path class="st1" d="M2078.4,809.8c11.4-64.2,86.3-210.3,67-262.3c-14.8-39.6-45.5-69.5-73.2-100.2c-7.6,48-48.1,92.4-54.6,135.1
			C2008.8,639.6,2067,752.7,2078.4,809.8z"/>
		<path class="st1" d="M1814.8,994.4c82-15,166.3-26.9,236.9-75c16.6-11.3,14.1-18.3,17.4-45.4c-129.3,88.7-294.3,85.1-436.9,139.6
			C1655.2,1052.8,1768.3,1002.9,1814.8,994.4z"/>
		<path class="st1" d="M2051.3,954.9c-119.3,71.3-265.2,57.9-392.1,107.1c29,54.4,17.2,20.6,65.3,17.4c40.8-2.8,88.2-22.8,128-33.5
			C1906.6,1031.4,2033.2,1012.4,2051.3,954.9z"/>
		<path class="st1" d="M876.4,1315.7c10.6,3.3,21.2,6.6,31.8,9.9c113.8,35.1,246.3,104.4,362.3,79.5
			c-76.1-9.3-148.7-31.3-221.6-54.1C985.6,1331.2,936.8,1298.1,876.4,1315.7z"/>
		<path class="st1" d="M701,1362.3c26.8,44.4,32.1,83,75.5,90.7c56.7,10.1,138.3-11.9,198-12c-18.5-7.4-37-14.9-55.3-22.6
			C857.1,1392.8,764.4,1350.3,701,1362.3z"/>
		<path class="st1" d="M787.8,1341.6c111.1,46.1,237.1,107.3,357.6,87.9c-13.5-4.2-26.9-8.4-40.4-12.6
			C1016.2,1389.3,877.1,1316.9,787.8,1341.6z"/>
		<path class="st1" d="M1267,1191.9c-27.2,3.5-74,34.5-100.1,43.9c-66.7,24-136.6,38.8-205,56.5c41.9,12.9,58.5,19.2,88.7,10.4
			c88.3-25.6,183.8-62.7,274.9-74.3C1296,1180.5,1311.2,1186.1,1267,1191.9z"/>
		<path class="st1" d="M1073,1327.3c99.7,31.2,187.6-26.5,285.8-43.1C1323.4,1224.8,1138.2,1309.1,1073,1327.3z"/>
		<path class="st1" d="M1264.6,1369.8c40.2-16.1,83.2-22.6,124.1-36.4c-29.2-47.1-150.4,16.6-197.6,28
			C1209.4,1365.6,1245.9,1377.3,1264.6,1369.8z"/>
		<path class="st1" d="M1416.1,1374.5c-19.1-25.7-61.4-0.4-90.5,7.2C1356.5,1385.4,1382.7,1382.1,1416.1,1374.5z"/>
		<path class="st1" d="M941,1545.1c70.4,1.8,141.2,0.9,211.1-9.4c142.3-21.1,293.8-56.5,431.5-97.9c121.8-36.5,224.5-98.2,321-179.7
			c79.8-67.3,188.5-127.9,244.5-218.1c-18.9,16.4-37.5,33.1-55.8,50.1c-166.6,162.1-353.8,285.8-582.9,338.2
			c-110.1,25.2-220.9,62.1-333.2,74.7c-122.6,13.7-255.5-5.2-375.3,25.1C831.7,1562,897.2,1544,941,1545.1z"/>
		<path class="st1" d="M2235.2,747.3c-14.7,88.5-76.2,174.7-129.1,244.6c-97.8,129.5-256.4,249.9-407.2,309.9
			c-121,48.2-207.1,87.4-329.7,112.8c-89.6,18.5-179.1,41.7-270.3,50.9c-109.4,11.1-221.7-6-329.6,19.5c22,34,169.4,0.4,215.7-1
			c101.6-3,202.2-7.3,301.1-32c166.9-41.7,340.4-66.9,491-154.1c228.2-132,553.5-380.9,494.9-686.8c-13-67.6-18.4-99.9-73.2-135
			C2224.4,559.5,2249.7,659.8,2235.2,747.3z"/>
		<path class="st1" d="M2215.4,975.4c-74.1,153.7-224.1,261.5-360.1,361.3c-143.9,105.6-310.4,143.8-481.7,180.6
			c-75.1,16.1-149.2,38.4-225.4,48.8c-102.5,14-203,0.7-305.2,6.9c30.3,32.5,72.8,13.8,116.3,14.7c176.5,3.8,336-28.2,505.5-72.4
			c143.5-37.4,300.9-68.3,426.1-153.4c63.3-43,115.2-109.4,172.3-160c68.4-60.8,126.7-122.8,168.7-204.6
			c60.7-117.9,161.8-357.7,50.4-465.2C2329.3,685.9,2283.3,834.6,2215.4,975.4z"/>
		<path class="st1" d="M1889.5,1394.8c-144.6,90.1-313.1,120.8-474.2,166.3c-83.2,23.5-167,38.7-252.9,48.8
			c-91.9,10.8-185.5-2.2-276.5,10.2c40.8,47,97,19.5,158,20.2c70.4,0.8,140.8,7.4,211.1,0.7c264.1-25.2,554.5-142.1,756.5-313.5
			c100.5-85.2,187.9-190.1,255.1-302.6c56.1-93.8,147.6-275,93.7-384.6c-8.5,155.7-60.3,329.3-153.4,456.1
			C2129.2,1202.3,2000.1,1325.9,1889.5,1394.8z"/>
		<path class="st1" d="M1903.6,1445.3c-148,96.2-321.6,151.7-491.6,195.1c16.7-0.8,33.4-1.9,50.1-3.3
			C1642.6,1622,1764.5,1556.7,1903.6,1445.3z"/>
		<path class="st1" d="M1916.4,1473C1769,1590.1,1639,1654,1448,1668.2c-170.5,12.7-345.5-16.1-515.3,6.7
			c61.7,57.8,192.8,36,274,40.5c88.1,4.9,178,11.2,266.2,3.5c144-12.5,306.7-82.2,422.4-168c119.3-88.6,224.2-203,312-323.7
			c91-125.1,219.7-288.4,194-453.4c-2.4-12.4-4.8-24.8-7.2-37.2c-12.1,145.3-69,279.3-157.8,395.6
			C2144.3,1252.7,2034.9,1378.8,1916.4,1473z"/>
		<path class="st1" d="M1476.2,924.7c32.4-18.4-1.3-62.9-11.3-95.3c-32.8-106.6-69.3-212.4-104.5-318.3
			c-31.2-93.8-91-198.1-78.2-300.1c-60.8,38.2,42.3,251.1,63.2,309.9C1391.4,651,1406.4,804.8,1476.2,924.7z"/>
		<path class="st1" d="M1487.7,744c-34.4-15.2-75.7-194.3-87.7-231.7c-35.1-109.3-61.5-223-61.9-338.4
			c-95.5,28.5,149.2,649.5,182.9,725.6C1563.1,876.1,1504.4,783.5,1487.7,744z"/>
		<path class="st1" d="M1254.2,896.1c-16.4-72.7-27.2-146.5-45.1-218.9c-18.2-73.9-46.9-147.4-51.5-223.9
			c-4.5-74.5,15.5-149.2,28.4-222c-153,14.1,59.3,732.3,95.2,819.6C1315.5,1028.6,1263.4,937,1254.2,896.1z"/>
		<path class="st1" d="M1228.3,985.9c-62-238.3-165.6-497.1-97.4-745.2c-180.4,55.4,54.4,712.6,121.9,828.4
			C1257.5,1066.1,1231,996.3,1228.3,985.9z"/>
		<path class="st1" d="M1078.7,629.7c-32.7-122.8-37.6-228.7-24.3-355.8c-84.9,45.6-90.2,70.5-65.2,162.6
			C1003.2,487.7,1034.9,594.5,1078.7,629.7z"/>
		<path class="st1" d="M962,449.8c-7.6-27-13.2-54.3-16.8-82.1c-25.2,28.6-51.3,56.5-80.6,80.9C895.8,442.9,931.3,439.4,962,449.8z"
			/>
		<path class="st1" d="M989.8,528.4c-6-14.1-11.6-28.4-16.6-42.9c-36.6,3.1-69-13.9-109.4-6.4c-54.2,10.2-96.1,37.5-128.2,83
			C809.3,531,910.4,507.7,989.8,528.4z"/>
		<path class="st1" d="M1027.5,603.8c-4.5-8.2-9-16.3-13.5-24.5c-25-47.5-122.5-26.4-165.5-18.4c-87.9,16.2-139.9,30.3-158.7,124.2
			C780,618.9,916.2,570.3,1027.5,603.8z"/>
		<path class="st1" d="M775.4,668.6c-72.7,35.5-92.8,55.9-102.5,137.5c11.2-23.5,24.5-45.9,39.7-67.1
			C730.6,713.5,751.8,689.3,775.4,668.6z"/>
		<path class="st1" d="M646,1063c53.4-179.9,143.8-333.4,299.2-439.2c-29.6,0.9-59.7,6-88.2,13.8c3.5,16.9-65.7,56-78,68
			c-34.5,33.9-61.5,75-81.7,118.7C684.5,852.3,607.6,1041.8,646,1063z"/>
		<path class="st1" d="M1081.6,686.3c-25.8-12.9-159.1,89.1-180.7,105.7c-47.3,36.5-239.5,278.4-148.5,307.2
			c6.8-35.1,19.5-70.1,36-101.8c63.8-122.4,188.5-210.2,319-248.9C1099.5,739.9,1093.9,692.5,1081.6,686.3z"/>
		<path class="st1" d="M795.2,1112.5c21,9.6,96.4-59.6,121.1-72.5c-25.2-26.2-46.2-58.8-59.8-92.5
			C834.5,975,756.4,1094.7,795.2,1112.5z"/>
		<path class="st1" d="M916.9,885.2c-37.9,32.7-36.7,24.6-25.7,67.4c12.9,50.4,45,77.7,88.3,55.8c-16.8-15.6-29.6-34-38.5-55.1
			C931.2,931.2,923.1,908.5,916.9,885.2z"/>
		<path class="st1" d="M1062,961.9c-32.5-37.5-55.7-82.1-74.8-127.5c-48.7,29.6-50,40.6-24.4,94.3
			C995.2,996.7,1000.5,998.3,1062,961.9z"/>
		<path class="st1" d="M1018.3,832c30.3-20.5,68.5-32.2,104.8-35.1c-1.9-6.7-3.8-13.4-5.8-20.2
			C1093.2,783.8,1005.3,802.3,1018.3,832z"/>
		<path class="st1" d="M1062.9,914.4c9,33.3,23.1,41,42.3,22.8c16.9-9.5,33.8-19,50.7-28.4c0.2-0.8,0.4-1.2,0.7-1.2
			c-2.1-6.2-4.8-14.9-8.5-26.9C1118.5,882.5,1086.3,896.5,1062.9,914.4z"/>
		<path class="st1" d="M1156.6,907.6C1166.7,938.1,1159.3,907.6,1156.6,907.6L1156.6,907.6z"/>
		<path class="st1" d="M1092.9,831.4c-40.6,2.2-68.9,18.5-45.9,57.9c26.2-19.2,59.5-34.4,92.1-37.8
			C1127.1,811.5,1135.4,829.1,1092.9,831.4z"/>
		<path class="st1" d="M843.3,1125c56.7,11.7,341.9-127,322.5-187.6C1061.8,995.9,930.3,1043.9,843.3,1125z"/>
		<path class="st1" d="M1140.8,1025.1c-60.2,49.3-142.6,61.8-206.5,105.6c49.2-3.1,88.2-29.4,131.6-51.4
			c21.2-10.7,42.3-21.8,63.9-31.6c42.8-19.3,71.4-10.2,53.7-58.3C1168.7,1000.6,1154.5,1012.5,1140.8,1025.1z"/>
		<path class="st1" d="M1226.2,1082.7c-6-11.5-12.1-23-18.1-34.5c-48.9,16.1-94.7,39.7-140.2,63.4
			C1118.8,1103.4,1179.6,1108,1226.2,1082.7z"/>
		<path class="st1" d="M669.6,1198.4c34.7,30.9,132.4,28.6,173.2,26.7c105.7-4.9,207.4-43.8,300.3-92.4
			c-55.3,5.2-109.4,15.9-164.4,23.3c-86,38.6-232.3-23.8-313.4-52.4C654.9,1140.3,640.9,1172.9,669.6,1198.4z"/>
		<path class="st1" d="M894.2,691.1c-41.4,34.5-276.1,367.1-202.7,389.7c-21.4-6.6,108.1-229.4,127.9-252.9
			c57.6-68.4,162.3-140.1,247.2-168.2C1017,592.8,946.8,647.3,894.2,691.1z"/>
		<path class="st1" d="M1268.8,393.1c-17.4-53.3-34.1-110.3-33.1-167c-35.4,5.6-30.8,62.8-36.4,95.7
			C1188.2,386.7,1201.2,389.1,1268.8,393.1z"/>
		<path class="st1" d="M1191.4,435.4c35.9,16.2,63.5,33,103.9,34.2c-22-61.6-41-47.6-107.3-61.8
			C1178.9,424.1,1180.1,433.3,1191.4,435.4z"/>
		<path class="st1" d="M1314.1,522.3c-10.8-29.9-90-37-125.7-55.3c1.6,16.2,4.3,32.3,8.2,48.2C1235,520.1,1275.3,529.2,1314.1,522.3
			z"/>
		<path class="st1" d="M1364.8,678c-4.7-18-9.9-35.9-15.5-53.6c-48.1,3-82.4-11.5-128.2-18.2C1236.7,662.9,1311.5,667.7,1364.8,678z
			"/>
		<path class="st1" d="M1339.8,595.3c-23-68.5-63.2-39.7-135.4-49.3c2.7,9.9,5.4,19.8,8.2,29.7
			C1257.1,575.8,1293.7,598.4,1339.8,595.3z"/>
		<path class="st1" d="M1288.2,765.2c5.3-76.9,20.3-65.6-49.7-92.8c13.4,53.9,21.9,71.1,49,115.4
			C1287.8,780.4,1288,772.8,1288.2,765.2z"/>
		<path class="st1" d="M1325.4,699.8c-4.3,60.7-21.7,119.3,12,173.1c1-38.2,5.3-137.8,30.8-167.7
			C1353.7,708.5,1339.5,706.7,1325.4,699.8z"/>
		<path class="st1" d="M1389.4,937.8c16.8,14.5,41.7,42.5,61,1.8c4.4-9.3-49.2-121.1-54.2-139.1c-3.5-13.3-7-26.5-10.5-39.8
			C1373,814.4,1342.4,897.2,1389.4,937.8z"/>
		<path class="st1" d="M1390.6,976.9c-12.7-8.9-24.4-19-34.9-30.3c-36.6-38.9-60.3-87.5-87.3-133c14,72.1,33.2,138.3,56.9,207.7
			C1346.9,1006.3,1368.7,991.5,1390.6,976.9z"/>
		<polygon class="st1" points="1010.8,2633.9 1415.5,2829.8 980.7,2374.4 		"/>
		<polygon class="st1" points="576.6,2831.2 982.6,2636.5 952.5,2374.4 		"/>
		<polygon class="st1" points="982.6,2799.6 982.6,2667.8 586.1,2857.9 		"/>
		<polygon class="st1" points="1010.8,2799.6 1409.2,2858.2 1010.8,2665.2 		"/>
	</g>
</g>
</svg>
