<?xml version="1.0" encoding="utf-8"?>
<!-- Generator: Adobe Illustrator 22.0.0, SVG Export Plug-In . SVG Version: 6.00 Build 0)  -->
<svg version="1.1" xmlns="http://www.w3.org/2000/svg" xmlns:xlink="http://www.w3.org/1999/xlink" x="0px" y="0px"
	 viewBox="0 0 3000 3000" style="enable-background:new 0 0 3000 3000;" xml:space="preserve">
<style type="text/css">
	.st0{fill:#68C6BF;}
</style>
<g id="Слой_2">
</g>
<g id="Слой_1">
	<g>
		<path class="st0" d="M1378.4,185.1c-128.8,69.7-257.6,139.5-386.4,209.2c99.9,29.2,199.7,58.4,299.6,87.6
			C1320.6,382.9,1349.5,284,1378.4,185.1z"/>
		<path class="st0" d="M2275.9,1703.3c4.3,15.5,7,31.3,12.3,46.5c6.4,18.5,19.5,28.7,31.2,43.8c1.6-7.7,6.7-15.4,6.9-23.2
			c0.3-8.8-5.2-18-10.3-24.7C2304.1,1730.2,2288,1718.5,2275.9,1703.3z"/>
		<path class="st0" d="M2395.7,1764.2c14.2-26.4-2.6-59.6-3.5-87.2c-4.6,18.6-10.3,36.9-14.4,55.6c-1.3,5.8-5.6,17.6-3.4,23.7
			C2376.2,1761.6,2391.8,1771.5,2395.7,1764.2z"/>
		<path class="st0" d="M1118.1,1505.1c34.8,0,69.6,0.1,104.4,0.2c-38.5-19.5-77.1-48.3-99.8-85.6c-23.5-38.7-19.3-87.1,19.7-114.2
			c17.9-12.4,41.9-19.1,62.8-10.3c20.2,8.5,33.2,25,28.6,47.1c-4.1,19.6-13.3,37-12.9,57.5c0.3,17.7,6.8,34.2,18.5,47.4
			c27.6,31.4,73.9,43.2,113.3,50.8c27.7,5.3,54.5,5.7,82.7,5.5c30.6-0.2,61.7-1.7,91.4-9.6c13.3-3.5,25.7-8.6,38-14.9
			c12-6.1,24.8-10.1,36.4-17.2c22.2-13.7,40.1-35.6,44.5-61.8c4.8-28.2-9.1-47.8-24.3-69.8c-9.8-14.2-15.9-30.6-4.7-46.2
			c14.6-20.6,49.1-8.1,67.1,1.6c24.2,13,28.9,50.1,30.3,74.7c3.4,61.1-26.7,119.4-81.8,147.7c108.9-3.7,218.4-0.5,327.3,0.9
			c55.9,0.8,111.9,1.6,167.8,2.3c28.8,0.4,57.5,0.7,86.3,0.9c25.3,0.2,51-1.7,76.3-0.4c43.7,2.3,80.9,29.4,124.5,31.3
			c12,0.5,24.1,1.2,36.1,1.2c8.6,0,28.6,1.9,34.9-5.8c4.4-5.4,1.6-17.2-0.2-23.2c-2.8-9.4-8.8-17.4-16.2-23.7
			c-18.4-15.7-43.9-22.2-67.1-26.6c-56.8-10.7-114.2-6.7-171.6-7.7c49.4-168.9,98.7-337.8,148.1-506.7
			c24.5-83.7,48.9-167.4,73.4-251.1c12-41,22.9-82.4,36-123c6.3-19.5,15-38.3,21.9-57.7c3.9-10.9,7.7-21.9,10.2-33.1
			c1.4-6.2,4.3-16.2,0.9-22.2c-3.6-6.3-14.6-8.7-20.9-10.6c-11.8-3.6-24-6.2-36.1-8.7c-71.9-14.9-142.4-39.7-212.8-60.2
			c-167.2-48.9-334.5-97.4-501.2-147.9c-82.8-25.1-165.7-50-249.3-72.1c-14.6-3.9-29.3-8.8-44.2-11.4c-6.6-1.1-11.4-1.1-15.5,4.7
			c-6.7,9.8-9.2,24.8-12.8,35.8c-6.4,19.7-12.5,39.6-18.4,59.5c-24.2,81.3-45.6,163.4-70.1,244.6c-3.1,10.2-4.1,23.6-9.5,32.9
			c-4.7,8.1-14.3,8.6-22.8,8.8c-30.7,0.7-60.8-15.4-89.1-25.5c-63.6-22.7-129.9-36.7-193.3-60.2c-11.2-4.2-22.9-8.7-34.7-10.6
			c-3.3-0.5-7.5-1.5-10.7-0.5c-6.9,2.3-6.1,9.1-8.2,14.9c-4.9,13.9-14.1,26.4-19.1,40.7c-5.2,15-9.1,30.4-12.6,45.9
			c-7.1,31.4-12.8,62.9-21.9,93.8c-12.3,42.2-24.7,84.4-37,126.5c-24.7,84.4-49.3,168.7-74,253.1c-23.5,80.5-50.1,160.7-70.4,242.1
			c-15.4,62-22.2,126.7-54.2,183.1c-2.9,5.1-3.5,12.7-6.3,17.2c-2.3,3.6-4.8,2.9-9.4,2.9c-20.6-0.1-41-0.5-61.6-1.8
			c-44.6-2.8-95-7.9-137.4,9.2c-17.8,7.2-33.1,19.8-38.3,39c178.6-2,357.3-2.9,535.9-3.1C1016,1505.1,1067,1505.1,1118.1,1505.1z
			 M1688,476.1c44.7-152.8,282.6-84,237.8,69.5C1880.9,699,1643.3,628.9,1688,476.1z M1589.9,824.4c17.3-59.1,34.5-118.2,51.8-177.3
			c77,22.5,154,45,231,67.5c-54,184.7-107.9,369.3-161.9,554c-19.9-19.2-60.1-29.9-86.9-23.5c-34.5,8.3-51.3,48.5-39.3,80.5
			c9.4,25.2,39.1,44.2,30.9,73.7c-7.9,28.2-38,44.9-64.5,51.8c-10.8,2.8-23.4,1.3-34.5,1.3c-11.7,0-23.4,0.1-35.2,0.1
			c-25,0.1-50,0.2-75,0.4C1467.4,1243.4,1528.6,1033.9,1589.9,824.4z"/>
		<path class="st0" d="M2375.1,1623.7c-29.2,26.1-73.9,16.2-109.3,15.9c24.4,35.5,51.9,69,81.9,99.9
			C2355.3,1700.6,2364.4,1661.9,2375.1,1623.7z"/>
		<path class="st0" d="M2379.2,1816.2c9.9-19.9-6-44.5-24.6-22.8C2336.7,1814.1,2371.1,1832.1,2379.2,1816.2z"/>
		<path class="st0" d="M1205.7,1322.8c-14.8-26.6-56-9.7-69.9,8.5c-14.3,18.7-11.5,41.3-0.4,60.8c22.3,39.1,67.2,71.4,107.7,89.9
			c-28.6-20.6-57-53.9-57.8-91c-0.3-14.2,6.3-23.7,14.8-34.3C1207.9,1347.1,1212.2,1334.5,1205.7,1322.8z"/>
		<path class="st0" d="M2783.2,2321.8c-19.3-81.1-73.2-145.3-132.6-201.2c-60.4-56.9-124.6-109-172.8-177.5
			c-27.1-38.5-48.6-80.9-62.5-125.9c-74.4,26.4,97.8,224.6,118.5,249.5c37,44.7,75.5,88,114.7,130.8c14,15.3,28.3,30.2,40.3,47.1
			c27.4,38.7,43.4,84.3,48.2,131.3c11.1,108.8-33.5,221.4-105.7,301.8C2752.7,2606.2,2815.9,2459,2783.2,2321.8z"/>
		<path class="st0" d="M2708.7,2397.2c-1.6-42.7-16.7-82.7-39.7-118.3c-29.1-45.1-67.7-83.4-104.4-122.2
			c-27.2-28.8-53.5-58.5-78-89.7c-20.2-25.9-41.8-53.2-56.7-82.6c-19.7-38.9-31.6-81.6-56.5-117.9c-9-13.1-24.9-33.2-43.3-25.8
			c57.2,114.7,133.9,218.8,194.8,331.5c59.1,109.6,118.4,239.4,98,367.1c-11.5,72.1-51.7,133.9-107.6,179.9
			c86.7-17.1,135.5-108.7,164.3-184C2696.4,2491.2,2710.5,2444.9,2708.7,2397.2z"/>
		<path class="st0" d="M293.6,1595.3c17.5,14,45.7,13,66.7,12.3c28.9-0.9,57.5-4.9,86.1-8.5c31.3-3.9,62.3-4.1,93.8-4.4
			c45-0.5,90.1-0.5,135.1-0.4c181.3,0.6,362.6,3,543.9,4.8c183.3,1.9,366.5,3.7,549.8,5.5c91.2,0.9,182.5,1.8,273.7,2.7
			c47.4,0.5,93.5,2.7,140.7,6.1c43.3,3.2,88.9,6.7,131.8-1.8c13.5-2.7,30.4-6.9,38.9-18.7c7.1-9.8,5.6-23.4-2.8-31.9
			c-11.1-11.1-29.3-14.9-44.1-17.8c-22.3-4.2-45.2-5.6-67.9-6.2c-43.4-1.2-86.6,1.2-129.9,3.2c-73,3.3-146.8-0.6-219.8-1.2
			c-91.2-0.7-182.4-1.4-273.6-2c-182.4-1.2-364.7-2-547.1-2.1c-181.9-0.1-363.8,0.5-545.7,2.2c-49.5,0.4-99.3-0.5-148.7,2.4
			c-19.2,1.2-38.5,2.9-57.4,6.9c-12,2.6-30.4,6.1-37.8,17.2C271.4,1575.9,284.9,1588.3,293.6,1595.3z"/>
		<path class="st0" d="M2521.5,2674.4c76.1-81.6,80.2-202,54.7-305.3c-33.1-134.1-114.5-249.9-187.1-365.1
			c-17.6-28-35-56.3-51.3-85.1c-33-58.6-67.1-121.8-82.6-187.7c-6.6-28-14.3-53.9-24.4-80.8c-4.3-11.3-22.6-11.5-33.5-13.5
			c-29.7-5.5-60.4-2.9-90.3-1.1c-34.5,2.1-68.8,1.6-103.3,1.2c-74.9-0.7-149.8-1.4-224.8-2.4c-297.3-4-594.6-12.6-891.9-13.7
			c-166.8-0.6-333.6,1.1-500.3,7.2c12.8,81.9,13.6,165.7,2.5,247.9c-11,81.2-35.1,157.9-67,233.2c-57.6,136-143.5,288.3-103.8,441.1
			c36.8,141.3,176.5,220.2,309,252.8c78.5,19.3,159.4,25.6,239.9,30.7c86.3,5.5,172.7,11.1,259.1,13.5c171.5,4.9,342-10,512.7-24.8
			c85.8-7.4,171.6-14.5,257.6-18.2c67.3-2.9,134.5-2.4,201.9-1.7c94.2,1,189.3-0.6,282.3-17.1
			C2367.8,2770.2,2459.7,2740.7,2521.5,2674.4z"/>
	</g>
</g>
</svg>
