<?xml version="1.0" encoding="utf-8"?>
<!-- Generator: Adobe Illustrator 22.0.0, SVG Export Plug-In . SVG Version: 6.00 Build 0)  -->
<svg version="1.1" xmlns="http://www.w3.org/2000/svg" xmlns:xlink="http://www.w3.org/1999/xlink" x="0px" y="0px"
	 viewBox="0 0 3000 3000" style="enable-background:new 0 0 3000 3000;" xml:space="preserve">
<style type="text/css">
	.st0{fill:#68C6BF;}
</style>
<g id="Слой_2">
</g>
<g id="Слой_1">
	<path class="st0" d="M1927.2,882.3c-12,19.1-25.5,37.1-39.9,54.5c-15.8,19.2-33.7,36.5-53.2,51.8c-25.4,19.9-51.1,38.2-80.1,52.4
		c-30,14.7-61.5,27.3-93.7,36.3c-37.4,10.5-76.4,16.3-115.1,18.6c-41.5,2.4-83-1.3-123.9-8.3c-10.6-1.8-21.1-4.1-31.5-6.9
		c-24.6-3.3-49.1-8.3-72.7-16c-32.6-10.7-65-25-93.9-43.6c-17.2-11.1-33.6-23.8-49.2-37c-10.7-9.1-20.8-18.9-30.2-29.3
		c-13.1-14.5-25.4-29.9-36.5-46.1c-2.5-3.1-4.8-6.4-6.9-10c-0.2-0.4-0.3-0.7-0.5-1.1c-4.5-7.1-8.8-14.3-12.8-21.6
		c-201.5,84.2-344,283.7-344,514.8V2303c0,306.7,250.9,557.6,557.6,557.6h398.9c306.7,0,557.6-250.9,557.6-557.6v-912.1
		C2257,1165.3,2121.2,969.8,1927.2,882.3z"/>
	<g>
		<path class="st0" d="M1720,195.2c-171.6-94.9-390.5-66.4-533.1,67.8c-137.4,129.4-180,336.9-106.3,510.3
			c35.6,83.8,96.8,156.1,173.6,205c82,52.2,172.7,71.6,268.7,71.6c106.1-11.2,202.4-45,282.6-117.5
			c70.7-63.9,120.7-149.8,140.2-243.3C1986.2,494.5,1894.1,291.6,1720,195.2z M1882.1,499.2c4.2,17.1,10,36.5,9.2,54.3
			c-13.5-15.6-24.9-21.6-44.2-28.6c20.1-19.4,22.7-42.6,19.9-69.3C1876.6,461.6,1879.7,489.5,1882.1,499.2z M1802.9,771.9
			c-4,21.3-10.8,42.9-18.3,62.9c-5.7,15.2-8.7,14.2-23.6,13.8c-13.8-0.3-23.8,6.8-28.7,18.9c-2.7,6.6-1.7,25.3-11.1,26.6
			c-10.6,1.5-5.8-31.1-20.2-22.6c-5.6,3.3-8.1,20.9-12,27.2c-7.1,11.3-13.7,22.6-22.6,32.7c-17.5,19.8-45.6,38.4-71.7,44.1
			c-1-10.7,12.2-46.2-10.4-27.4c-4.2,3.5-40.5,27.8-42.2,24.7c-44,25.1-103.2,12.4-149.3-0.8c-48.3-13.7-93.7-36.7-133.3-67.5
			c-38.7-30.1-71.8-67.1-96.9-109.2c-11.9-20-21.2-38.6-22.9-62.1c-1.1-14.6-0.6-38.9,14.3-46.2c-2.7-2.4-2.1-4.3,2-5.7
			c-6.9-3.5-3.2-6.4,2.3-9.8c-7.9-10.4-34.2,9.4-40.6,13.6c0.4-13,4.1-51,24.7-52.6c10.3-0.8,39.6,37.4,47.2,14.2
			c1.5-4.7-7.8-19.3-9.9-27c-2.3-8.5-6-16.4-11.3-20.9c-15.6-13.3-50.9-9.4-60,10.7c-5.2-1.7-0.8-40.5-0.4-46.1
			c1.4-18.2,4-36.4,7.9-54.2c6.7-30.6,17-60.6,30.8-88.8c26.6-54.6,66.5-102.8,114.6-139.9c91.5-70.5,213.1-96.5,325.7-71.3
			c56.6,12.7,110.2,38.1,155.8,73.9c21.6,16.9,41.4,36.1,59.1,57c16.3,19.4,39.6,46,46.2,70.7c0.7,2.5,1.3,7.8,1.6,10.7
			c0.4,3.4,1.2,7.6,1.3,10.5c0.3,8.4-2.1,16.5-4.5,24.8c-6.8,23-25,39.3-40,56.6c-6.7,7.8-13.6,15.6-16.9,25.5
			c-3.8,11.2-2.9,20.9-10.5,30.8c-9.9,12.9-13.3,1.7-22.1-9.3c-8.9-11.1-12-13.3-4.4-25.6c9.2-15,18.5-25.6,22-44.4
			c3.3-17.4-3.1-40.9-14.7-55.3c-6.5-8-14.2-16.9-23.1-22.4c-11.3-7.1-21.6-5.2-34.3-5.3c-6.6,0-13.8-2.8-19.4,0.7
			c-4.6,2.8-5.3,8.5-8.7,11c-8.9,6.5-12.9,4.5-17.1,16.6c-8.4-2.9-1.4-39.8-0.1-45.3c1.4-6.2,2.4-15.7,6.1-21.3
			c5-7.7,5.5-4.8,14.3-2.1c10.3,3.2,17.8,1.3,26.2-6.4c10.3-9.3,10.2-23.8,13.8-36.4c1.4,0.6,14.3-4.4,19.9-4.3
			c-3,10.2-3.6,27.1,11.9,28.3c15.1,1.2,20.8-19.6,14.9-31c-8.6-16.7-28.3-30.2-47-26.8c-17.2,3.2-42.5,3.2-52.3,19.8
			c-6.7,11.4-9.7,28.5-16.3,41.7c-5.2,10.5-10.2,22.3-13.1,33.4c-8.4,32.7,2.7,64.8,15.7,95.5c-19.3-4.9-36.7-29-46.9-44.7
			c-9.6-14.8-15.3-30.8-12.2-46.9c1.7-8.6,4.5-18,14.5-18.8c7.8-0.6,10.4,6.4,16.6,6.7c20.6,0.8-2.3-23.8,2.9-28.7
			c-6.6-0.8-16.6-6.2-22.9-9c0.6-1.3,1.7-1.9,3.4-1.6c-2.1-3.4,2.1-13.6-0.8-20.3c-3.2-7.4-8.1-14.7-16.7-15.5
			c-8.9-0.8-15.7,5.5-19.9,12.4c-5.2,8.4-2.9,11.9-2.9,21.4c-9.1-1.6-18,0.4-24.6,7.3c-4.3,4.5-10.6,19.7-3.8,25
			c7.6,5.9,9.2-3.8,15.3-5.4c10.2-2.8,11.6,8.4,12.5,15.3c6.2,47.2,25.2,77.6,61.4,108.5c-19.9,5.4-41-8.4-55.8-22
			c-10.6-9.8-6.8-20.7-13.4-31.3c-4.3-6.9-9.4-5.3-12.2,2.6c-7.3,20.5,13.5,53.4,32.7,61.9c-15.3,14.5-29,28.2-34.6,49.2
			c-4.6,17.3-3.1,41.2,4.5,57.3c5.3,11.2,23.9,26.2,22,35.7c-1.8,9-7.8,13.5-2.3,23.9c3.1,5.9,9.7,10.2,15.8,11.7
			c10.3,2.5,21.7-1.2,31.9,1.7c8.7,2.5,11.4,14.4,18.6,16c16.4,3.7,6.4-38.4,4.2-44.7c-3.8-10.6-9.4-17-17.7-24.5
			c-8.2-7.3-12.1-13.4-18-22.3c-4.2-6.4-4-10.7-13-4.8c-7.8,5.2-6.8,12.7-8.3,20.6c-3.2-1.1-4.6-3.5-4.1-7c-4.2,2-11.3-19.9-12-23.8
			c-1-6.2,2.5-41.6,9.9-40.6c2.3,12.7,0.1,30.4,17.7,27.8c14.1-2.1,28.5-17.4,35.2-29.2c3.8-6.7,4.5-13.3,5.6-20.7
			c1.4-9.1-0.6-8.8,7.4-9.2c14.3-0.6,30,9,42.2,15.5c13.1,7,32.9,15,35.4,30.8c2.3,14,2.3,25.7,10.7,38.4c7.5,11.3,24,19.5,17.8-0.6
			c-2.5-8.1-5.7-16.4,4-9.8c3.2,2.2,7.6,9.1,7.1,12.9c4.2-0.3,3.9,3.9,5.1,7.7c-6.5-6.2-2.9,14.3-3.7,17.8c0-1.7-20.1-9.2-24.8-4.1
			c-5.7,6.1,9.2,18.6,11.4,21.5c14.1,19.3,18.1,40,25,62c4.4,14.3,10.1,27.7,19.8,39.2C1800.9,758.1,1805.9,756,1802.9,771.9z
			 M1841.7,572.1c-2.1,3.8-10.5,2.6-11.2,4.6c-6-2-15.4-3.3-11.6-11.2c2.1-4.4,14.6-7.5,18.8-5.4
			C1841.1,562,1843.8,568.3,1841.7,572.1z M1742,477.6c-2.8,10.9-8.4,45.3-21.8,46.7c-4,0.4-15.3-9.7-18.2-12.4
			c-6.7-6.1-12.3-17.3-15.7-25.6c-7.2-17.8-6.1-43.5,17.4-46.3C1726.4,437.3,1737,459.5,1742,477.6z M1598.6,544.5
			c0.5-2.8,4.3-28.7,10.5-20.2C1612.6,529.1,1602.1,545.6,1598.6,544.5z M1806.9,720.2c-13.1,3.5-25.5-71.1-21.4-79.9
			C1791.4,648.3,1820.7,716.5,1806.9,720.2z M1893.5,605.9c-0.7,25.3-3.9,50.5-9.5,75.1c-11.3,49.4-32.2,96.6-61.4,138.1
			c-2.7-6.8,7.1-64.6,15.6-63.7c-4.2-4.2,3.1-9.1,5.2-12.7c3.8-6.5,5.4-15.4,6-22.9c0.4-5.4,1.1-13.6-0.4-18.9
			c-1.5-5.4-6.4-9.4-7.6-14.9c-1.4-6.2,0.7-11.1-2.3-17.2c-2.2-4.5-6.2-8.9-8.7-12.9c-5.5-9-3.9-13-15.8-10.2
			c0.3-5.7-6.1-15.5-8.4-21.7c-3.6,3-4.4-5.9-5.7-9c-1.4-3.2-4.2-5.5-4.8-9.8c-0.5-4,1-15.8,6-17.4c4.3-1.3,7.3,1.7,11.5,3.1
			c12,4.1,27,6.2,37.1-2.5c6.7-5.8,14.6-17,8.7-26c2.9-3.6,22.4,11.9,25.3,15.1C1892.1,586.2,1893.9,594.9,1893.5,605.9z"/>
		<path class="st0" d="M1480.6,399.7c-3.1-3.5-24.3-20.4-27.9-16.4c0-16.9,7.4-65.6-24.7-58.2c-14.8,3.4-15.8,16.6-15.8,29.3
			c0,5.4,2.6,18.8,0,23.3c1.2,4.6-0.8,5.8-6.2,3.7c-3.1,0-6.1,0-9.2,0c-3.1,0-6.1,0-9.2,0c-5.4,2.1-7.5,0.8-6.2-3.8
			c-2.9-5.1,0.2-20.1,0-26.1c-0.4-11.5-2.5-23.7-15.8-26.8c-31.4-7.2-24.6,40-24.6,56.6c-9.7,0-19.5,0-29.2,0
			c0-16.8,7.3-59.2-21.5-57c-11,0.8-17.1,9.5-18.6,19.6c-1,6.3,4,34.1-0.1,37.8c-4.7,4.2-34.4-0.3-41.2,0.4
			c-10.1,1.1-19,4.3-21.6,15.5c-6.2,27.4,27.7,25.6,44.3,25.6c3.3,0,15.5-2.1,18.3,0.2c2.2,1.8,0,18.3,0,22.3c0,16.1,0,32.2,0,48.3
			c0,16.1,0,32.2,0,48.3c0,6.8,1.7,15.9,0,22.3c-2.4,8.9,0.9,7.5-10.9,7.5c-17.8,0.1-58.8-4.4-51.7,26c5.8,24.7,44.7,16.3,62.7,16.3
			c0,45.8,0.1,91.6,0.1,137.4c0,22.9,0,45.9,0,68.8c0,15.3-3.1,39,17.9,41.4c21.3,2.4,22.2-19.5,22.4-34.6
			c0.2-24.6,0.3-49.3,0.3-73.9c0-46.3-0.1-92.5-0.1-138.8c3.8,0,26.9-2.6,29,0c1.4,1.7,0,15.4,0,17.1c0,11.8-2.8,27.3,7.8,35.6
			c7.3,5.8,17.9,5.7,25.1-0.2c10.4-8.5,7.6-24.2,7.6-36c0-1.5-1.4-15,0-16.5c1.6-1.9,15.1,0,18.6,0c11.9,0,12.3-1.7,12.2,10.5
			c0,6.7-0.2,13.3,0,20c0.3,11.6,2.7,23.2,16.1,26c11.7,2.5,21.1-5.4,23.9-16.2c3.1-12.1-4.8-35.5,3.9-42.6
			c7.1-5.7,18.2-6,25.6-13.2c19.5-19.2,17.2-52.8,17.8-77.9c0.7-30,2.6-61.3-4.6-90.7C1492.2,419.7,1488.3,408.4,1480.6,399.7z
			 M1457.4,553.5c-3.2,21.6-8,19.3-29,19.3c-38.8,0-77.6,0-116.3,0c0-50.1,0-100.3,0-150.4c40.8,0,82.1-1.9,122.9,0
			c31.1,1.4,24.7,49.5,24.6,72.1C1459.5,513.9,1460.3,534.1,1457.4,553.5z"/>
	</g>
</g>
</svg>
