<?xml version="1.0" encoding="utf-8"?>
<!-- Generator: Adobe Illustrator 22.0.0, SVG Export Plug-In . SVG Version: 6.00 Build 0)  -->
<svg version="1.1" id="Слой_4" xmlns="http://www.w3.org/2000/svg" xmlns:xlink="http://www.w3.org/1999/xlink" x="0px" y="0px"
	 viewBox="0 0 300 300" style="enable-background:new 0 0 300 300;" xml:space="preserve">
<style type="text/css">
	.st0{fill:#68C6BF;}
</style>
<g>
	<path class="st0" d="M242.4,48.9l-16.1-4.3l-14.6,54.3h-58.3l-0.1,0l-28.7,49.8H54.3l-39.8,68.8l39.8,68.8h79.5l39.8-68.8
		l-34.7-60.1l24.2-41.8h51.5l1.1,0.3l30.9,53.4l14.4-8.3l-33.1-57.3L242.4,48.9z M154.2,217.5l-30.1,52.2H63.9l-30.1-52.2l30.1-52.2
		h60.2L154.2,217.5z"/>
	<rect x="69.5" y="173" class="st0" width="47.8" height="8.3"/>
	<rect x="56" y="212.9" transform="matrix(0.866 -0.5 0.5 0.866 -110.3209 61.796)" class="st0" width="8.3" height="47.8"/>
	<rect x="103.2" y="232.6" transform="matrix(0.5 -0.866 0.866 0.5 -141.4867 228.4579)" class="st0" width="47.8" height="8.3"/>
	<path class="st0" d="M233.3,181.9c-0.2-1.3-0.9-2.4-1.9-3.5c-1-1-2.8-1.6-5.4-1.6h-5.7c-3.1,0-5.1,0.7-5.9,2.1
		c-0.9,1.4-1.4,2.9-1.4,4.5c0,0.4-0.1,0.7-0.1,1c0,0.3,0,0.7,0,1V228c0,3.7,0.6,6,1.9,7c1.2,1,2.6,1.6,4,1.6c0.3,0,0.5,0.1,0.8,0.1
		c0.3,0,0.5,0,0.7,0.1l5.7-0.1c2.5,0,4.2-0.5,5.3-1.5c1-1,1.7-2.1,2-3.4c0.1-0.7,0.2-1.3,0.2-1.9s0-1.2,0-1.6c0,0,0-0.1,0-0.1
		c0,0,0-0.1,0-0.1v-12.8h-8.3v14.3c0,0.5-0.2,0.9-0.6,1.3c-0.4,0.3-0.9,0.5-1.4,0.5c-0.5,0-0.9-0.2-1.3-0.5c-0.3-0.3-0.5-0.6-0.6-1
		c0-0.1,0-0.2,0-0.2c0,0,0-0.1,0-0.1v-46.2c0,0,0-0.1,0-0.1c0,0,0-0.1,0-0.1c0-0.4,0.3-0.8,0.6-1.2c0.4-0.3,0.8-0.5,1.3-0.5
		c0.1,0,0.2,0,0.3,0c0.1,0,0.3,0.1,0.3,0.1c0.3,0.1,0.6,0.4,0.9,0.7c0.3,0.3,0.4,0.7,0.4,1.1v13.5h8.3v-11.3c0,0,0-0.1,0-0.2
		s0-0.2,0-0.2c0-0.5,0-1,0-1.5C233.5,183,233.4,182.5,233.3,181.9z"/>
	<polygon class="st0" points="251,202.3 247.2,202.3 247.2,177 238.9,177 238.9,235.8 247.2,235.8 247.2,207.7 251,207.7 251,235.8 
		259.3,235.8 259.3,177 251,177 	"/>
	<path class="st0" d="M285.1,183.3c0-0.7-0.1-1.3-0.2-2c-0.3-1.3-0.9-2.5-2-3.6c-1-1.1-2.8-1.6-5.2-1.6h-5.3c-2.2,0-3.9,0.5-5,1.5
		c-1.1,1-1.8,2.1-2.2,3.4c-0.2,0.8-0.4,1.6-0.4,2.4c0,0.8-0.1,1.4-0.1,1.8v10.6h8.1v-12.5c0-0.5,0.1-0.8,0.4-1.1
		c0.3-0.3,0.5-0.5,0.8-0.6c0.2-0.1,0.4-0.2,0.5-0.2c0.1,0,0.3,0,0.4,0c0.1,0,0.2,0,0.2,0c0.1,0,0.1,0,0.2,0.1c0.4,0.1,0.7,0.3,1,0.6
		c0.3,0.3,0.5,0.7,0.5,1.2v13.4c0,1.9-0.3,3.4-0.9,4.4c-0.6,1-2,1.5-4.2,1.5c0,0-0.1,0-0.2,0c0,0-0.1,0-0.1,0c0,0-0.1,0-0.1,0v5.4
		c0.1,0,0.2,0,0.2,0c0,0,0.1,0,0.1,0c2.6,0,4.2,0.6,4.6,1.8c0.5,1.2,0.7,2.5,0.7,4v15.8c0,0,0,0.1,0,0.1c0,0,0,0.1,0,0.1
		c0,0.4-0.2,0.7-0.5,1c-0.3,0.3-0.7,0.5-1.3,0.5c-0.6,0-1-0.2-1.5-0.5c-0.4-0.3-0.6-0.7-0.6-1.3v-14.3h-8.1v12.6
		c0,2.6,0.6,4.8,1.8,6.4c1.2,1.7,3.1,2.5,5.8,2.6l5.3-0.1c2.5,0,4.2-0.5,5.2-1.6c1-1.1,1.6-2.3,1.9-3.6c0.1-0.7,0.2-1.3,0.2-1.9
		c0-0.6,0-1.2,0-1.7c0,0,0-0.1,0-0.1s0-0.1,0-0.1v-14.3c0-2.4-0.7-4.2-2-5.5c-1.3-1.3-3-1.9-5.1-1.9v-0.4c2-0.1,3.5-0.6,4.5-1.6
		c1-1,1.7-2,2-3.2c0.3-0.8,0.4-1.6,0.5-2.3c0-0.7,0.1-1.3,0.1-1.8v-11.7V185C285.1,184.5,285.1,184,285.1,183.3z"/>
	<polygon class="st0" points="144.9,45.3 150.1,69.5 158.4,69.5 158.4,10.7 150.1,10.7 150.1,37.5 144.9,10.7 136.6,10.7 
		136.6,69.5 144.9,69.5 	"/>
	<polygon class="st0" points="173.6,41.4 177.4,41.4 177.4,69.5 185.7,69.5 185.7,10.7 177.4,10.7 177.4,35.9 173.6,35.9 
		173.6,10.7 165.3,10.7 165.3,69.5 173.6,69.5 	"/>
	<path class="st0" d="M199.5,16.8c0-0.4,0.2-0.8,0.5-1c0.3-0.3,0.7-0.5,1-0.6c0.1,0,0.2,0,0.3,0c0.1,0,0.2,0,0.3,0c0,0,0.1,0,0.1,0
		c0,0,0.1,0,0.1,0c0.4,0.1,0.7,0.3,1,0.6c0.3,0.3,0.4,0.7,0.4,1.2v13.6c0,0.8,0,1.6-0.1,2.3c-0.1,0.7-0.3,1.4-0.5,2.1
		c-0.3,1-0.8,2.1-1.4,3.2c-0.6,1.1-1.4,2.3-2.3,3.7c0,0-0.1,0.1-0.1,0.1c0,0-0.1,0.1-0.1,0.1c0,0.1-0.1,0.2-0.2,0.3
		c-0.1,0.1-0.1,0.2-0.2,0.3c-1.8,2.7-3.5,5.4-5,8.3c-1.5,2.8-2.2,6.2-2.2,10.1v8.4h20.5V64h-12.6c0.1-3.5,0.6-6.4,1.5-8.6
		c0.9-2.2,2.1-4.3,3.4-6.3c0.5-0.7,0.9-1.4,1.4-2.1c0.5-0.7,0.9-1.4,1.4-2.1c0.6-0.9,1.2-1.9,1.8-3c0.6-1.1,1.2-2.2,1.7-3.4
		c0.6-1.2,0.9-2.2,1.1-3.1c0.2-0.8,0.2-1.7,0.2-2.5c0-0.2,0-0.5,0-0.7c0-0.3,0-0.5,0-0.7c0-0.1,0-0.3,0-0.5c0-0.2,0-0.3,0-0.5V18.8
		c0-3.2-0.5-5.4-1.4-6.6c-0.9-1.2-2-2-3.1-2.2c-0.5-0.1-0.9-0.2-1.4-0.2c-0.4,0-0.9,0-1.2,0c-0.1,0-0.2,0-0.2,0c-0.1,0-0.1,0-0.2,0
		H199c-3.1,0-5.2,0.6-6.2,1.8c-1,1.2-1.5,2.5-1.6,4c0,0.2-0.1,0.5-0.1,0.7c0,0.2,0,0.5,0,0.7c0,0.1,0,0.2,0,0.3c0,0.1,0,0.2,0,0.3
		c0,0.2,0,0.5,0,0.7s0,0.4,0,0.6v10.6h8.3V16.8z"/>
</g>
</svg>
