<?xml version="1.0" encoding="utf-8"?>
<!-- Generator: Adobe Illustrator 22.0.0, SVG Export Plug-In . SVG Version: 6.00 Build 0)  -->
<svg version="1.1" baseProfile="tiny" id="Слой_1"
	 xmlns="http://www.w3.org/2000/svg" xmlns:xlink="http://www.w3.org/1999/xlink" x="0px" y="0px" viewBox="0 0 3000 3000"
	 xml:space="preserve">
<g>
	<path fill="#68C6BF" d="M788.1,1265.7C796.5,1284.9,791.7,1254.7,788.1,1265.7z"/>
	<path fill="#68C6BF" d="M1012.3,1006C1012,1011.3,1027.2,999.7,1012.3,1006z"/>
	<path fill="#68C6BF" d="M2864.4,1525.3c2.6-19.3-7.5-26.7-15.7-33.8c-3.3-2.8-41.9-10.5-44.3-11.4c-38.3-14.6-72-24.6-108.7-39.8
		c-52.7-22-104.3-47.9-155.6-77.2c-66.9-38.1-129.6-83.2-200.1-115.8c-43.9-20.3-88.7-33.2-130-61c-32.1-21.6-162.5-185.2-194.6-178
		c-6.7,3.8,31.6,40,25.9,45.8c-7.6-0.8-37-39.8-47.1-33.1c0,10,31,42.1,26.8,45.8c-11.3-8-29.8-38.3-42.9-40.1
		c-0.3,8.6,16.9,43.9,18.7,52.6c-9.3,0.3-29.3-45.3-37.9-46.4c-10.1,57.6,70.7,114.4,88.9,157c-28.2,0-82.3-26.5-103.7-42.2
		c-56.4-41.5-35.5-61.4-16.1-123.5c18.2-58.2,33.3-158.3,52.2-237.1c3.8-12,2.3-17,0.4-24.8c-4.5-21.8-47-53.5-102.3-70
		c-99.2-29.6-351.7-45-368.1,78.8c-6.8,51.3,7.1,125.4,14,165.6c12.3,71.6,15.8,158.2,34,233.6c16.3,67.4,44.9,50.3,4.8,84.1
		c-41.7,35.2-121.3,45.6-170.3,70.4c-64.6,32.6-122.9,82-160.7,143.9c-16.6,27.2-66.3,112.4-112.9,63.2c-5.1-5.4,15.2-56,19.5-68
		c22.5-63.6-19.7-37.6,55.2-70.3c71.6-31.3,160.9-58.6,222.9-107.9c61.6-48.9,101.2-118.5,52.8-189.4
		c-51.9-76-138.2-83.9-212.3-124.5c-5.4,12.9,6.8,8.1,13.3,14.4c-32.5,40.2-161-46.7-160-48.1c-19.8-16.6,25.8-75.5-16.2-68.3
		c-10.5,1.8-27.1,60.7-21.2,67.8c2.7-3.8,10.6-14.8,15.3-15.3c6,8.5-9.3,15-10.4,23.5c3.1-2.1,17.5-16.9,20.2-9.9
		c-16.5,25.8-25.3,39.2-35.4,72.8c13.5-2.4,53.3-3.9,58.7-8.4c11.1-1.9,54.5,36.7,20,49.6c-31.2-41.8-92.3,28-106.2,49.3
		c-7.7-17.6-37.3-12.5-29.8,4.5c11.1,0.9,51.8,6.3,56.5,10.4c29,25,31,48.8-45,38.1c-19.6-2.7-62.4-41.1-81.3-13
		c50.3,5.2,41.3,91.2,52.5,117.5c12.8-26.6,48.3-65.2,1.4-48.9c-3-2.8-3.4-30.5-11.6-29.7c8.6-0.9,54.5,21.7,69.3,25.7
		c31.4,8.4,39.1-28.3,54.8,21.6c9.6,30.4-57.6,89.1-36.3,113.4c-16.3,35.2-55.5-37.9-65.6-35.6c14.1,11.2-9.5,21.3-17.1,28.5
		c0,0,1.4-29,1.4-23.7c-10.3,3.6-42.7,8.4-49.8,3.5c19.4-52.8,22.6-23.1-0.4-60.3c-59.4,48.3-19-50.2-31.5-66.8
		c-50.7,49.5-9.4,113.7-116,86.8c-34.6-8.7-58.2,1.9-72.2-43.9c-14.4-47,6.8-32.8,23.6-47c2.3-1.9,88-44.5,79.1-49.8
		c18.5,11,13.4,17.8,15.1,32.7c52.1,12.2-13.5-141.6,67.7-37c20.8-10.9-4.9-27.5-7.6-31.8c-1.7,0.2-1.8-23.8-0.5-38.5
		c-4.8-0.5-9.5,2.1-11.5-2.8c6.6-2.1,23.7-14,26.4-30.9c3.3,0.9,16.3,6.3,20.5,11.2c7.1-5.3,21.6-22,35.2-22
		c-0.4-0.7-76.4-33.9-82.7-31.7c-4.3-4.4,19.5-17.1,16.6-27.7c6.2-1,28.3,9.4,35.7,11.5c-5.2-23.1,56.9,8.2,67.8,50.4
		c20-4.1,68.3-60,70.6-76.3c-8.9-2.7-16.1-1.4-21.4,3.9c-1.6-4.9-10.7-41.6-14.7-41.5c-0.1,29-15.5,20.9-18,55
		c-10.7,4.2-8-9.9-15.8-8.1c-0.1,3,0,6.1,0.2,9.1c-0.7-3.3-18.8-28.9-23.5-34c-30.8,2.5,0.6,34.8-36.8-0.1c-20.8,13.6-48.1,3.8-70,7
		c-10.7,1.6-29.8-15-37.6-8.9c-4.5,3.5,2.7,37.9,9.1,38.3c0.2-0.4-13.7,5.5-13.5,8.3c20.5,19.4,12.8,11.1,21.8,31.3
		c6.8-0.6-0.4-2.7,3.8-5.8c0.1,0,14.1,26.4,14.1,26.2c4.5-3.7-78.8-25.3-102.5-17.9c-38,11.8-87.3,39.5-118.9,67.2
		c-33.8,29.6-65.8,62-68.5,109.4c-3.4,59.8,41.5,69.9,2.3,102.7c-63.5,53.1-171,39.1-224.2,132c-23.5,41-6.7,67.6-8.4,108.1
		c-0.5,11.1,17.8,24.5,12.3,37.1c-3.1,7-117.9,62.3-117.1,62.5c-28.9,17.5-61.1,138.6-51.4,165.5c-1.3,20,6.8,46.9,19.5,64
		c16,30.8,36.1,78,61.6,98c44.2,34.7,129.4,56.8,184,70.3c40,9.9,82.1,16.7,123.1,20.6c38.3,3.7,78.1,6.9,116.5,5.8
		c20.6-0.6,62.6-9.3,100.2-12.5c189.1-45.6,369.8-127.3,430.1-297.7c162.1,283.6,588.4,333.5,892,304.9
		c180-17,347.7-43.8,481.6-178.1c74.4-74.7,99.9-178.9,53.9-261.9c3.8-9.6,6.7-7.8,8.4-17.8c29.9,19.6,77.7,41.4,110.4,32.5
		c1.4-0.4,51.7-34.6,48.9-32.4C2841.5,1559.5,2849,1552.5,2864.4,1525.3z M895.4,950.5C896.4,953,894.2,951.6,895.4,950.5z
		 M707,1313.4C708.8,1318.8,705.6,1318,707,1313.4z M372.6,1674.7c-13,33.3-124.1,94.1-109.8,15.7
		C273.3,1633.3,392,1625.1,372.6,1674.7z M879.7,1860.1c-66.9,50.8-405.3,98.8-421.7-23.1c16.3-5.1,26.9,21.7,40.1,23.5
		c0,0-12-1.7-8.9,1.4c3.9,4,46.8,24.3,46,23.7c32.7-6.2,89.3,14.5,132.7,14.4c36-0.1,71.7-3.6,106.9-11.3
		c26.9-5.9,76.5-34.7,97.4-33.5C873.2,1855.2,905,1860.5,879.7,1860.1z M993.9,1468.4c-36,112.6-219.5,144.3-323.5,149.1
		c-33.6,1.5-172.5-28.8-179-26.5c-78.6-58.6-156.7-58.8-81.8-154.4c23.2-29.7,50-55.4,85.5-72.5c60.3-29.1,165.6-50,218.5-52.1
		C782.2,1309.5,1025.1,1370.8,993.9,1468.4z M1091.3,1440.9c-7.5,18.4-41.8,93.6-67.2,32.6
		C1002.4,1421.1,1104.9,1407.5,1091.3,1440.9z M1086.2,1339.8c-34.9-32.1,62.3-48.3,73.3-55c-5.1,3.1,42.9-61.3,33.9-39.5
		c12.2-29.6,8.9-70.1,20.6-101.9c-39.8-21.4-2.3,1.2-34.8,4c-6.5-6.1-9.9-12-15.7-14.9c-5.9,24.8,43.8,86.3,2.7,90.7
		c-19.1,2-23.8-38.9-27.2-47.3c-11.6-28.3-9.1-59.2-24.9-85.1c-6.1,5.5-9,18-14.9,22.4c8.9,9.2-10-39.9-7.1-34.3
		c25.7-6.6,45.4-8.8,68.9-12.1c1.7-0.2,57.5,18.9,27.4-14.3c1.2,16.6,55.2,3.2,59.6,4.5c70,20.1,30.6,30.3,58.5,62.9
		c19.6,22.9,47.2,18.1,59.3,40.4c14.4,26.5-24.3,111.9-51.5,109.2c30.8-33.8-60.1-13.1-52.6-16.1c-10.7,4.2,2.7,21,1,22
		c-22.8,13.4-17.4,13.8-52.3,18.1c0.4,5.1,2.6,8.1,3.6,11c2.1-4.6,8.6,1.2,12.2,4.5C1225.5,1301.7,1103.6,1355.8,1086.2,1339.8z
		 M1920.3,1200.9c10.8,3,21.1,7.4,30.8,13.1c6,12.1-64.1,14.9-71-0.8C1865,1179.4,1917.1,1199.7,1920.3,1200.9z M1561.9,806
		c-15.9-60.8,373.2-33.7,369.2,2.2c19,7.9-76.7,36.9-82.7,38.2c-37.7,8-90.2,14.1-138.1,9.7c-41.1-3.7-82.6-11.5-115.5-27.8
		C1594.6,828.3,1556.2,807.2,1561.9,806z M1589.4,1147.8c-21.5-31-22.8-127.8-31.4-164.5c-6-25.4,6.3-68.3,3.8-99.8
		c-1.7,1.8,167.9,41.9,189.4,42.3c41.7,0.7,159.4-0.9,183.8-41.9c34.6,8.5-65.3,264.1-81.6,280.6c-57.4,58.4-146.1,40-212.2,11
		C1633,1172,1598.5,1148.4,1589.4,1147.8z M2494.8,1695.1c-4.5,12.1-1.8,29.5-3.9,37c-19.1,68.5-44,57.4-101.9,71.9
		c-65.4,16.3-116.2,11.7-188.1-3.4c-17.3-3.7-3.5-11.4-50.9-8.5c-25.1,1.6-52.3,13.6-89.9-4.7c-20.6-10.1-90.5-140.1-101.3-136.3
		c9.6-3.4,18.6,10.7,29,11.2c0.6-11.1-4.1-19.6-13-21c14.7-4.7-36.1-19.4-33.6,8.7c3.7,40.3,26,18.6,54.6,43.1
		c-2.6,20.7-59.8-1.1-71.5,5.4c-31.2,17.6-25.1,33.9-31.6,80.5c-5.4,39-59.8,124.3-58.6,141.9c5.3,3.2,10.6-2.7,15.5,0.5
		c3,71.3-310.6-98-319.9-103.7c-36.1-22-92.7-49.6-117.2-95.3c-45.2-84.2,8.5-130,83.5-164.3c8.9-4.1,23.8-23.9,37-19.6
		c3.8-14.8,125.7-12.2,159.2-7.4c14.7,2.1,96.9,26.3,102.8,13.4c-9.7-4.4-28.6,1.8-35-4.9c5-5.5,6.9-11.7,5.7-18.6
		c-23.6-2-20.7-12.1,0.6-13.4c-4.2-4.7-5.7-9.9-4.3-15.6c3.2,4.9,7.2,7.5,12.1,7.7c7.4-20.2,0.5,6.6-6.2-11
		c-0.1-15.5,8.7-5.4-4.4-24.8c9.9-13.6,59.4-48.9,80.1-36.8c-15.3,25-6.4,11.4-10.1,36.5c16.5-8.2,37.4-8.6,54.6-15.3
		c-3.3-1.5-6.2-3.7-8.7-6.5c-9.2,6.9-24,13.3-33.7,5.4c-0.8-26.4,55.9-62,83-80c23-15.3,59.8,4.4,49.5-32.5c0.6,2.2-39.1,16-57.1,15
		c13.4-6.5,47.7-61.1,69-61.4c4.5,2.9,7.3,19,13,23.5c1-6.3,2.7-50-4.1-44.7c37.6-29.2,33.6,3.5,68.6-7.6
		c-3.4-4.3,32.1-12.9,47.7-19.3c-14.6-0.6,43.7,16.6,42,15.9c24.4,10.5,47.8,34.3,55.1,49.8c10.7,0.8,101.8,36.8,84.7,53.7
		c-0.4-5.8-12.5-27.2-14-34.6c0.8-0.1,68.2,40.5,68.1,50c-50.3,26.4,38.1,32,3.9,73c39.7,0,70.7-1,103.4,8.7
		c18.7,20.7-67.5,4-68.6,3.6c39,32.7,88.5,28.4,105.5,83.6c-0.1-0.8-18.6,16.1-18.5,29.3c0.2,16.9,9.3,36.5,12.4,53.4
		C2487.6,1614.5,2486.8,1716.3,2494.8,1695.1z M2651.3,1487.6c-60.3,15.9-204.8-131-264.8-158.3c-38.6-17.6-214.2-48.4-230.2-80.8
		C2155.7,1170.3,2689.8,1442.1,2651.3,1487.6z"/>
	<path fill="#68C6BF" d="M1206.5,1294.1C1213.2,1302.1,1210.7,1293.6,1206.5,1294.1z"/>
	<path fill="#68C6BF" d="M2319.5,1016.5c14.5,26.8,23.7,102.6,24.7,111c3.3,27.3,99.3,45,127.7,65.4c36.3,26.1,70.5,57.9,107.8,82.8
		c48.5,32.5,121.8,59.8,121.8,59.8l26.8,14.6c0,0,117.4,51.5,129.7,51.9c-13.5,101.5-153.5,16.4-153.5,16.4l-20-9.5l-24.5-13.1
		c0,0-242.9-174.4-307-208.3c-71.7-37.9-145.2-41.8-204.3-99.8c-61.5-60.4-68.7-104.5-64.2-186.2c2.9-18,17.1-18.8,29.4-18
		c18.1,0.7,44.7,5.3,66,14.4C2228.5,915.5,2276.5,967.5,2319.5,1016.5z"/>
	<path fill="#68C6BF" d="M2548,1318.1C2567.7,1318.3,2536.7,1318.2,2548,1318.1z"/>
	<path fill="#68C6BF" d="M1078.3,946.3C1075.6,956.4,1078.6,945.3,1078.3,946.3z"/>
	<path fill="#68C6BF" d="M1977,1523.9c-8.5-4.5-15.3-10.5-20.4-18c0.8,17.1-7.6,52.9-11,71.9C1951.9,1576.4,1978.6,1525,1977,1523.9
		z"/>
	<path fill="#68C6BF" d="M2165.3,1505.7c1.9-6.8,5.4-61.5,5.4-61.6c-3.9,0-29.4,3.8-33,0.3c22.3-38.6-18-48.3-39.7-48.3
		c-0.6,7.5-17.2,40.8-31.4,24.6c-23.1,3.9-37.7-45.3-61.7-52.7c-5.1,6.3,0.3,10.2-2.7,17c0.8-2.1,2-4,3.4-5.7
		c-4.2,2.9,5.8,12.3-4.5,12.8c-3.8-2.9-5.4-7-4.9-12.3c-3.6,21-0.2,33.1,16.1,39.8c-3.5-0.5-5.3,1-5.3,4.5
		c14.9,0.3,30.1-10,37.3,9.6c-8.3,0.5-30.8-10.1-37.9-4.5c-2.6,7-23.4,50.7-20.3,60.3c7.7,24.2,56,24.5,61.6,45.4
		c-8.2-30.4-7.3,27.9-8.9,15.2c7.9-8.9,6.6-11.4,21.1-21.9c-0.2,13.9,13.4,62.8,32.1,63.7c32.8,1.5-1.6-39.2,2.5-57.6
		c-7.1,0,43,20.1,34.9,12.9c1.6,9.2-7.6,20.9-0.5,29C2142.9,1556.2,2149.8,1519.4,2165.3,1505.7z M2052,1447.8
		C2048.5,1453.7,2062.2,1430.4,2052,1447.8z M2067,1529.7C2059.1,1515.7,2067.2,1529.5,2067,1529.7z M2100.8,1441.9
		c-16.3,0-37.5,8-46.6-9.9c2.2-2.6,30.2-3.5,35.5-3.5c1.1,6.9-7.1,4.4-9.5,7.5C2086.8,1437.2,2107,1434.9,2100.8,1441.9z
		 M2117.5,1432c-4.9-6.8-17.6-4.1-25.8-4.4C2114.5,1416.5,2117.5,1432,2117.5,1432z"/>
	<path fill="#68C6BF" d="M2240.5,1542.9c20.4-14.6,99.6-56.6,30.6-62.5C2284.2,1517.8,2214.6,1501.1,2240.5,1542.9z"/>
	<path fill="#68C6BF" d="M2413.4,1597C2417.5,1603.6,2424.5,1598.3,2413.4,1597z"/>
	<path fill="#68C6BF" d="M2446.6,1653.2c-12.7-4-23.9-12.8-30.5-23.9c3.7-2.5,23.4,0.1,30.1,0.3c-0.6-13-41.3-11-46.2-17.2
		c4-3.8,4.8-7.9,2.6-12.3c-8.9,3.9-17.4,4.2-28.5,3.6c8.3-9.7,33.4-16.5-7.5-23.3c-3.6,8.3,2.3,22.6-7.5,29.2
		c-1.8-1.3-3.5-40.9-2.1-42.8c9.8-3.3,23,15.9,35.3,19c-31.5-23-50.8-44.6-83.6-34.1c7.2-2.3,11.5,30,0.5,36.6
		c-3.6,2.2-32.6-21.2-34.7-18.6c-4.2,5-10.8-4.1-14.8,5.3c-8.6,20,45.4,28.5,49.1,32.1c11.3,10.6,7.1,32.9,17.3,40.7
		C2333.4,1653.5,2452.8,1717.9,2446.6,1653.2z M2366.6,1607.3c1-2.3,2.2-4,5.2-2.7C2370.6,1606.8,2369.5,1608.6,2366.6,1607.3z"/>
	<path fill="#68C6BF" d="M2326,1700c-0.5-8.8-114.2-44.2-52.4-63.4c-15.2-21-32.8-19.4-46.2-43.3c-3.3-5.8-8.7-95.4-19.9-39.2
		c-0.9-2.1-44.9,23.4-49.6-13.1c-29,30.2-23.5,57.4,4.1,74.5c-18.2,24.7-40.2-27.1-46.7-31.8c-49.3,43.2,34.7,31.3,53.4,35.8
		c33,8,13.9-23.1,32.9,16.3c12.8,26.5-3.3,44.6,20.4,65.8C2263.6,1738.4,2316.3,1696,2326,1700z M2325.9,1705.4
		c-21.1,2.8-41.1,10.1-62.7,5.7c-15.6-3.1-32.1-22.7-39.2-23.5c4.4,0.1,8.8,0.8,13,2c2.7-6,0-10.4-8-13
		C2226.9,1679.8,2326.2,1705.5,2325.9,1705.4z"/>
	<path fill="#68C6BF" d="M2413.8,1764.2c60.2,23.4,27.1-43.2,44-59.8c-0.4-0.2-0.3,0.1-0.1-0.2c-36.4-9.7-86.8,33.9-108-11.1
		c-28,6.9,13.9,49.6,11.6,62.5c-7.8,1-26.3-30.8-28-41.4c-28.3-5.3-61.9,21.6-98.3,8.4c6.4,35.1,31.2,28.8,49.4,44.7
		c-3.6,3-13.1,7.3-14.4,11.7c11.6,5.6,38.3-10.3,41.8-3.2c-0.2,4.6-12,6.9-17.8,11.4c9.3,5.8,49.2,23,66,20.3
		c-2.9-9.2-10.1-9.9-16.3-20.4c11.7-5.3,66,3.5,91.8-4C2444.3,1761.9,2385.1,1779.7,2413.8,1764.2z"/>
	<path fill="#68C6BF" d="M2109.9,1378.7c0-12.7-0.7-30.5,2.5-42.2c4.5,1.4,29.3,15.9,31.6,18.2c8.2-77.6-74.6,7.4-80.3-1.6
		c92.3-76.2-78.9-19.2-28.6,20.7c3.8-2.2,8.3-5.6,13.1-7.8c-1.1-0.8-6.6,28-5.5,35.7c10.1,0.5,16.2-50.8,37.6-21.3
		C2052.3,1407.7,2098.5,1414,2109.9,1378.7z"/>
	<path fill="#68C6BF" d="M2148.7,1750.9c7.9-8.8-4.7-55.7-11.8-64.5c-84.9-105.6-60.6,92.7-27,50.3c-3.5-8.2-21.2-11.4-23.6-18.3
		c11.5-0.8,24.4,2.9,26.3-10.1C2097.5,1711.3,2155.3,1759.2,2148.7,1750.9z"/>
	<path fill="#68C6BF" d="M2187.4,1456.2c5.7-1.4,29.9,69.8,14.4,18.4C2202.9,1432.2,2191.7,1457.9,2187.4,1456.2z"/>
	<path fill="#68C6BF" d="M2188.7,1401.5c-1,13.3,10.2,23.8,19.1,10.6c-7.3-3-9.6-7.6-7.1-13.9c7.2-0.6,22.2,28.6,31.3,4.3
		c3.8-10.1,1-66-6-52.9c0,14.9-19.5,13.3-24.7,38.4C2197.5,1381.3,2189.3,1393.5,2188.7,1401.5z M2202.9,1392.4
		C2205.4,1392.6,2200.5,1392.3,2202.9,1392.4z"/>
	<path fill="#68C6BF" d="M2070.8,1593.6c-17.3,4-13.6-23.2-13-36.5c-2.6,4.6-20.1,52-25.9,47.2c1.6-3.2,12-17.6,5.6-22.4
		c-7.1,16.9-43.6,36.4-44,56.4c-1,60.1,55.7,1.6,56.8,21.7C2061.7,1642.2,2086.2,1611.6,2070.8,1593.6z M2052.9,1649.7
		C2051.9,1648.7,2053.6,1647.6,2052.9,1649.7z"/>
	<path fill="#68C6BF" d="M2216.6,1759.9c-26.7-28.9-42.4-54.4-32,13.7C2196.1,1768.7,2207.4,1764.1,2216.6,1759.9z"/>
	<path fill="#68C6BF" d="M1850.4,1492.8c-53.2,17,53.7,82.1,17.1-3.6C1861.6,1489.8,1855.9,1491.1,1850.4,1492.8z"/>
	<path fill="#68C6BF" d="M2310,1499.8c1.8,3,7.6,10.3,5.4,15.1c19.1-5.2,41.6,7.7,64.7,21.4c-2-8.8-32.3-24.8-38-33.9
		c5.2,0.9,10.5,1.3,15.8,1.3C2348.7,1491,2295.1,1462.9,2310,1499.8z"/>
	<path fill="#68C6BF" d="M2416.6,1489.1c-3.5-14.8-39.1-30-50.7-28.7c-24.6,2.7,0.4,47.6,16.3,38.4c-17.3-36.6,29.5-2,37.9,1.5
		C2426.9,1496.8,2425.7,1493,2416.6,1489.1z"/>
	<path fill="#68C6BF" d="M2015.3,1574.4c-7.3,10-21.1-6.1-26.5-13.2c9.3-7.7,27-31.2,42.1-27.1c5.6,8.6-7,5.6-11.4,9.5
		c1.2,7,5.4,11.5,12.5,13.8C2031.8,1561.2,2025.3,1592.9,2015.3,1574.4z"/>
	<path fill="#68C6BF" d="M1931.9,1388.3c1.9-0.3,23.6-8.3,23.9-5.9c-4.3,4.6-9.4,8-15.3,10.3c12.9,8.8,25.9-7.6,29.5-23.3
		c-7.4-7.7-50.8,0.3-54,15C1920.3,1387.8,1925.6,1389.1,1931.9,1388.3z"/>
	<path fill="#68C6BF" d="M2458.7,1568.1c-8.8,0.7-18.6-0.5-26.7,1.6c4.9,17.1,29.7,27.9,19.8,14.3c16.3-9.4,13,25.6,14.8,28.5
		c1.6,1.2,3.4,1.6,5.2,1.2C2473.4,1599,2470.5,1578.5,2458.7,1568.1z"/>
	<path fill="#68C6BF" d="M2260.1,1439.7c1.9,9.7,8.4,12.5,19.6,8.4C2286.2,1432.9,2266.7,1404,2260.1,1439.7z"/>
	<path fill="#68C6BF" d="M2398,1528.3c3.2,14.3,22.5,4.1,13.9-5.9c-1.3,4,15.4-1.6,18.5-3.2c-3.6-6.1-24.7-9.3-31.4-10.8
		C2398.3,1509.4,2397.6,1526.2,2398,1528.3z"/>
	<path fill="#68C6BF" d="M2162.2,1361.7c-2.2,19.3,37.4-56-3.6-24.8C2159,1345.3,2160.2,1353.5,2162.2,1361.7z"/>
	<path fill="#68C6BF" d="M2286.4,1449.5c22.5,5.7,16.3,5.4,31.6-7.5C2305.3,1416.1,2292.1,1438.3,2286.4,1449.5z"/>
	<path fill="#68C6BF" d="M2168.2,1324.8c-3.9-8.1-6.4-21.6-17.5-20.6c-1.4,3.7-4.7,15.1-4.2,19.3
		C2148.5,1322.5,2165.9,1332.9,2168.2,1324.8z"/>
	<path fill="#68C6BF" d="M1986.7,1408.7c-1.2-0.5,13.9-40.1,3-38.5C1980.9,1376,1986.6,1400.3,1986.7,1408.7z"/>
	<path fill="#68C6BF" d="M2251.8,1326.6c-10.3-5.6-6.9-7,10-4.2c-2,8.8-2.8,24.9-8.8,31.3C2248.1,1343.9,2253,1337.7,2251.8,1326.6z
		"/>
	<path fill="#68C6BF" d="M2256.1,1381.9c-15.4,0-17.2-11.1-3.3-25.6C2255.1,1360.2,2262.2,1378.5,2256.1,1381.9z"/>
	<path fill="#68C6BF" d="M2031,1344.4c-2.7,3.3-10.9,10.8-9.6,13.3C2031.9,1358.2,2035.1,1353.7,2031,1344.4z"/>
	<path fill="#68C6BF" d="M2133.9,1792.8C2116.4,1800.2,2133.7,1796.5,2133.9,1792.8z"/>
	<path fill="#68C6BF" d="M2294.1,1429.9c-4.2,0-13.8-4.7-11.6-10.9C2289.2,1411.2,2294.5,1430.4,2294.1,1429.9z"/>
	<path fill="#68C6BF" d="M2323.9,1799.9c-0.1,17.9,0.1,4.1-17.1,3.9C2322.6,1805.4,2328.3,1804.1,2323.9,1799.9z"/>
	<path fill="#68C6BF" d="M2008.7,1316.3C2011.9,1309.9,2006.6,1314.3,2008.7,1316.3z"/>
	<path fill="#68C6BF" d="M2060.1,1536.1C2056,1550.4,2053.1,1547.1,2060.1,1536.1z"/>
	<path fill="#68C6BF" d="M1521.5,1546.9C1528.8,1543.9,1515.8,1549.2,1521.5,1546.9z"/>
	<path fill="#68C6BF" d="M1940.4,1347.9C1924.5,1346.6,1951.4,1338.9,1940.4,1347.9z"/>
	<path fill="#68C6BF" d="M2050.1,1402.2C2060.2,1402.2,2053.3,1412.2,2050.1,1402.2z"/>
	<path fill="#68C6BF" d="M1866.6,1438C1865.8,1431,1883,1434.9,1866.6,1438z"/>
	<path fill="#68C6BF" d="M2054,1546C2055.7,1557,2048.2,1564.7,2054,1546z"/>
	<path fill="#68C6BF" d="M1952.1,1397.3C1962.9,1397.3,1952.3,1393.5,1952.1,1397.3z"/>
	<path fill="#68C6BF" d="M2033.6,1397C2043.4,1406.4,2030.7,1403.8,2033.6,1397z"/>
	<path fill="#68C6BF" d="M2243.7,1389.2C2241.7,1385.2,2235.2,1395.5,2243.7,1389.2z"/>
	<path fill="#68C6BF" d="M1844.7,1897.2C1845.7,1896.9,1846.2,1885.5,1844.7,1897.2z"/>
	<path fill="#68C6BF" d="M1962.8,1391.6C1962.4,1389.6,1967.9,1388.2,1962.8,1391.6z"/>
	<path fill="#68C6BF" d="M2050,1558C2048.7,1567.4,2049.7,1559.7,2050,1558z"/>
	<path fill="#68C6BF" d="M1988.2,1661.8C1990.4,1663.3,1989.2,1663.5,1988.2,1661.8z"/>
	<path fill="#68C6BF" d="M897.1,1364.1C884.9,1353.2,885.3,1359,897.1,1364.1z"/>
	<path fill="#68C6BF" d="M895,1182C893.6,1203.3,903,1176.7,895,1182z"/>
	<path fill="#68C6BF" d="M754.3,1174.8c2.4-6.3,6.6-10.1,12.8-11.4C757.8,1159.3,745.3,1169,754.3,1174.8z"/>
	<path fill="#68C6BF" d="M831.1,1175.1C834.4,1172.4,829.7,1167.7,831.1,1175.1z"/>
	<path fill="#68C6BF" d="M804.2,1164.3C800.8,1150.3,787.4,1166.1,804.2,1164.3z"/>
	<path fill="#68C6BF" d="M1003,1109.6C1003.4,1109.1,990.7,1101.1,1003,1109.6z"/>
	<path fill="#68C6BF" d="M939.1,965.7C943.8,963.4,939.3,965.8,939.1,965.7z"/>
	<path fill="#68C6BF" d="M911.8,1107.5C908.2,1110.9,918.1,1114.9,911.8,1107.5z"/>
	<path fill="#68C6BF" d="M746.2,1179.8C748.3,1181.4,749.2,1197,746.2,1179.8z"/>
	<path fill="#68C6BF" d="M1166,1113.9C1158.8,1112,1179.4,1117.5,1166,1113.9z"/>
	<path fill="#68C6BF" d="M1174.2,1081.4C1193.9,1086.1,1175.5,1082.1,1174.2,1081.4z"/>
	<path fill="#68C6BF" d="M1065.2,1290C1062.2,1306.7,1065.4,1292.3,1065.2,1290z"/>
	<path fill="#68C6BF" d="M506,1870c6.4-1.5,20.1,6.1,25.1,9.7C520.4,1879.8,514.3,1873.5,506,1870z"/>
	<path fill="#68C6BF" d="M506,1870C496.8,1869.1,504.3,1869.8,506,1870z"/>
	<path fill="#68C6BF" d="M2080,1436C2079.3,1437.5,2068.7,1436.9,2080,1436z"/>
</g>
</svg>
