<?xml version="1.0" encoding="utf-8"?>
<!-- Generator: Adobe Illustrator 22.0.0, SVG Export Plug-In . SVG Version: 6.00 Build 0)  -->
<svg version="1.1" xmlns="http://www.w3.org/2000/svg" xmlns:xlink="http://www.w3.org/1999/xlink" x="0px" y="0px"
	 viewBox="0 0 300 300" style="enable-background:new 0 0 300 300;" xml:space="preserve">
<style type="text/css">
	.st0{fill:#68C6BF;}
</style>
<g id="Слой_4">
	<g>
		<path class="st0" d="M198.7,266c-6.4-3.4-14.2-1.9-20.2-6.4c-4.6-3.5-7.8-8.4-11.7-12.6c-4.1-4.3-8.7-6.9-14.4-8.6
			c-3.9-1.2-7.8-2-11.3-4.1c-2.9-1.6-5.4-3.8-8.1-5.7c-2.4-1.6-5-2.9-7.9-3.5c-3.8-0.8-8.3,0.5-11.9-1.3c-2.6-1.3-4.1-4.3-5.9-6.4
			c-2.1-2.5-4.6-4-7.4-5.4c-7.4-3.8-16.3-6.7-22.7-12c-5.6-4.7-9.5-10.7-17.6-9.8c-2.5,0.3-5,0.7-7.5,1.2c-3.9-0.4-7.9-0.8-11.8-1.3
			c-2.4-0.3-6.8-1.5-9,0.5c-2,0-3.8,2.3-2.9,4.3c-0.4,2.1,1.3,3.2,3.6,3.8c0.2,0.5,0.7,1,1.2,1.2c1.7,0.7,3.5,1.4,5.2,2.1
			c0.8,0.4,1.7,0.7,2.5,1c12.7,5.2,25.3,10.7,37,18c6.7,4.2,12.6,9,18.5,14.2c5.9,5.3,12.4,9,19.5,12.6c6.5,3.3,13.3,6.4,20.6,7.9
			c3.3,0.7,6.8,0.7,10.1,1.6c4.2,1.2,6.4,4.3,10,6.5c2.9,1.8,6.2,2.3,9.3,3.4c3.7,1.3,6.9,3.4,10.2,5.4c5.5,3.4,10.7,6.4,17.3,6.8
			c0.3,0,0.6,0,0.9-0.1c5.4,1.6,11,2.6,16.7,3c1.9,0.1,2.4-2.2,1.4-3.4C208.5,274,204.3,269,198.7,266z"/>
		<path class="st0" d="M273.7,258.7c-0.3-0.8-0.8-1.5-1.7-2c-6.6-4-8.9-12.3-14.7-17.3c-3-2.6-7.1-3.7-10-6.4
			c-3.2-2.9-3.4-8-6.1-11.3c-4.7-5.9-12.4-7.2-19.1-9.7c-5.3-2-9.8-5.1-13.5-9.2c1.9-7.8,1.3-15.1-2.6-19.8
			c-0.1-0.2-0.2-0.4-0.4-0.6c0,0,0,0,0,0c-2.7-3.8-6.1-7.2-8.9-11c-0.5-0.7-1-1.4-1.6-2.1L106,38.5c0,0-11.5-10-28.5-4
			c-6.4,2.3-10,7.2-11.9,12.6c-0.3,2.3,0.3,3.9,1.7,6c2.9,4.2,6.1,8.2,9.2,12.3c6.2,8.3,12.3,16.7,18.6,25c0,0,0,0,0.1,0
			c1.5,2.1,3.1,4.2,4.8,6.2c21.4,33.3,44.9,65.2,70.8,95.1c2.1-4,5.5-7.4,9.1-9.6c6.5-4.1,13.7-3.6,20.5-0.5
			c2.1,0.9,4.1,2.2,5.3,4.1c0.4,0.7,0.8,1.4,1,2.2c0.9,3.1-0.2,6.5,0.3,9.7c-0.1,1.3-0.3,2.8-1.3,3.2c-0.6,0.2-1.3,0.1-1.8-0.3
			c-0.4,0-0.8-0.2-1.2-0.5c-1.9-1.6-3.1-3.8-5-5.4c-1.3-1.1-2.5-2.1-3.6-3.4c-2.5-2.9-6.5-5-10.5-5.5c-0.1,0-0.2,0-0.2-0.1
			c-0.4,0-0.8,0.1-1.1,0.1c-0.1,0-0.3,0-0.4,0c-3.7,2.3-6.9,5.9-8.2,9.7c-0.4,1.3-0.6,2.6-0.5,3.8c-0.6,1-0.6,2.4,0.4,3.5
			c2.2,2.2,1.3,5.9,1.7,8.7c0,0,0,0,0,0c-0.6-0.2-1.1-0.5-1.6-0.8c-5.1-3.8-7.5-11-5.1-17.1c-25.8-29.8-49.1-61.5-70.4-94.5
			c-1.4-1.9-2.7-3.8-4.3-5.5c-0.1-0.1-0.2-0.2-0.2-0.4C85,81.8,76.8,70.6,68.5,59.6c-0.7-1-1.6-2-2.5-3.1c0-0.1,0-0.2-0.1-0.2
			c-0.1-0.2-0.3-0.4-0.4-0.6c-0.8-1.1-1.7-2.2-2.4-3.3c-0.6-1-1.2-2-1.8-3c0,0-0.1,0-0.1,0.1c-1.1,1.4-1.6,3.3-1.7,5.2
			c0.4,5.7,3.9,10.4,6.8,15.2c0.1,0.1,0.2,0.1,0.2,0.2c0.1,0.1,0.2,0.1,0.2,0.1l98.9,135c2.5,4.8,6.3,7.2,9.7,8.2
			c0.4,1.5,1.1,2.9,2.2,4c2.7,2.8,7.4,4.1,11.8,5c2,1.5,4.2,2.7,6.5,3.6c4.5,1.8,9.3,2.6,13.9,4c4.9,1.5,8.7,4.7,13.2,6.9
			c3.8,1.9,8.8,1.6,11.6,4.9c2.7,3.2,4.1,6.4,7.6,9c8,6,18,9.9,26.9,14.4C273.5,267.5,277.3,261.3,273.7,258.7z"/>
	</g>
</g>
<g id="Слой_2">
</g>
</svg>
