<?xml version="1.0" encoding="utf-8"?>
<!-- Generator: Adobe Illustrator 22.0.0, SVG Export Plug-In . SVG Version: 6.00 Build 0)  -->
<svg version="1.1" baseProfile="tiny" id="Слой_1"
	 xmlns="http://www.w3.org/2000/svg" xmlns:xlink="http://www.w3.org/1999/xlink" x="0px" y="0px" viewBox="0 0 3000 3000"
	 xml:space="preserve">
<g>
	<path fill="#68C6C0" d="M2028.3,1866.8c-16.7-19.4-46.3-80.7-70.4-87c-25.9,21.4,19.8,39.8,29.8,39.8
		C1936.3,1911,2046.7,1888.2,2028.3,1866.8z"/>
	<path fill="#68C6C0" d="M2870,1923c-129.3-122.7-244.5-283.5-388.9-387.7c-144.8-104.4-318-20-478.2-18.6
		c-131,1.1-118-92.1-156.4-200.7c-19.8-56-29.2-105.7-38.8-162.1c-3.2-18.5,10.9-22.6,5.3-46.9c-7.8-33.8-48.5-55.5-54.1-93.5
		c94.5-14.4,15.8-136.1-9.8-175.5c-16.3,9.5-19.8,23.6-10.3,42.3c3.2-5.3-17.1-173,14.2-165.7c15.9,76.7-39.5,82.8,29.5,124
		c7.4,4.4,91,17.3,90.3,14.7c-15.7-57.8-83.5-22.6-89.9-75.9C1778.3,740,1885,637.3,1883,633.7c-7.7-5.7-60.1,11.3-67.8,9.9
		c-4.5-44.7,21-18,55.1-44.8c3.9-12.8-78.1,5.8-84.6,5.8c-13.1-39,77-30.8,77.5-55.1c-19.6-18.4-68.9,17.1-88.9,17
		c-23.5-43,51.5-44.2,77.2-60.3c-20.4-28.2-236.3,59.7-293.1,56.7c-2.1-2,5.6-26.9,14.1-36.8c7.5-5.3,20.1-9.3,31.8-15.9
		c3.4,18.5-30.8,11.9-19.4,30.9c9.2-13,74.6-8.1,90.5-9.5c-5.7-50.8-138-5-156-1.1c-77.1,16.7-141.1-2.5-217.8-16.6
		c-187-34.4-377.3-46.7-565.9-70c-180.7-22.3-361.5-49.5-540.1-84.8c-22.4-4.4-136.5-44.7-125.9,20.2
		c5.7,34.8,130.2,48.4,151.4,52.8c183.2,37.7,368.7,66.8,553.8,93.2c160.4,22.9,361,19.9,507.8,96c59,30.6,99.3,72.5,162,94.9
		c97.9,35.1,65.4-8.2,68.1,81.4c1.5,49.3-7.6,103.7-10.5,153.7c-1.1,20-23.6,34.2-28.3,53.8c-4.6,19.1,47.1,22.8,42.8,39.9
		c-90.7,41.3-16.8,20.3-16.7,54.9c12.5,5.8,22.4,14.9,29.6,27.2c4.8,24.3,3.6,48.4-3.8,72.3c5.1,85.6-5.6,192.7-32.6,275.2
		c-25.2,76.8,16,66.3-103.5,81.9c-93,12.1-189.4,7.5-283.1,8.7c-172.7,2.2-331.8,7-234.4,215c86.6,184.9,149.7,382.7,250.8,560.6
		c99.1,174.3,160.1,309.7,381.6,293.7c217.1-15.7,434.7-61.3,651.9-82.8c264.7-26.2,440-5.6,599-241.2
		c44.2-65.5,81.5-135.6,129.3-198.4C2951,2024.6,2958.9,2007.4,2870,1923z M1748,852.8c5.4,16.6,14.8,47.8,15.3,49
		C1749.2,900.7,1727,851.3,1748,852.8z M1756,656.4c-8.7,9.7-25-21.2-26.5-27.6C1745.2,628.8,1756,632.1,1756,656.4z M1717.2,911
		c-9.3,2.5-19.4,5.2-17.9,4.7C1693.8,907.2,1703.4,906.5,1717.2,911z M1711.5,792.2c-19.2,31.8-29.5-35.1-13.5-51.6
		C1718.8,718.9,1737.8,769.8,1711.5,792.2z M1724.3,719.7c-4.9,5-8.5-2.8-17.8-3.8C1691.7,705.9,1726.5,707.4,1724.3,719.7z
		 M1720.5,655.9c17.1,11.9,1.5,13.8-3.3,14.6C1705.9,659.3,1707,654.4,1720.5,655.9z M1707.6,586.4c-25.8,24.2,13.2-0.9,36.4,37
		c-3.5,20.6-69.7-34.7-73.5-35.8C1682.9,587.2,1695.3,586.8,1707.6,586.4z M1669.6,646.9c9.6-8.7,15.5,20.7,1.5,33.6
		C1660.3,673.2,1659.8,662,1669.6,646.9z M1641.8,694.6c24.1-27.6,29.1,128,39,164c-31.4-114,19,76.9,1.1,54.1
		c18.8,24.1,52.9,5.4,53.7,6.4c34.6,42.3,32,36.3,23.1,94.5c-2.9,19.2-75.4,126.2-3,126.2c3.1-12.8-22.4-26.2,0.3-36
		c-23.3,22.7,112.1,315.1,110,344.6c-4.7,65.3-64.2,119.1-103.9,58.8c-10.8-16.4-6.6-76.1-3.3-96.4c-1.8-17.5-3.6-35.1-5.4-52.6
		c14.7-6.6,29.5-13.1,44.3-19.6c-16.5-126.2-173.4-45.4-161.6-152.1c3.8-34.4,44.5,13.8,44.7-88.2c-6-10-17.9,20.1-18.4,21.8
		c-19.5,6.4,2.2-32.4-21-30.4c1.4,3.4-9.1,46.1-12.7,47c-24.5,6.7-0.8-63.9-5.2-72.4c-19.2,7.2-9.2,45.9-24.5,49.4
		c-24.4-25.4-27.6-141.2-6.4-172.9c8.1,16.4,18.9,30.9,32.4,43.4c-4.7-23.2-12.6-45.3-23.7-66.2c-7.8,9.9-16.4,19-25.9,27.2
		c-18.1-16.6-25.1-272,3.8-259.8c6.1,2.6,18.8,138.8,23.3,160.1c9.7,46.3-2.8,73.5,33,116.3c16.7,20.1,71.4,24.2,72.8,40.4
		c23.2-42.9-25.8-26.9-36.8-45.4c-23.3-39.1-32.5-78.8-51.5-124.5c13.3-3.6,29.3,37,29.3,44.8c-2.1,0.4-15.2-148.9-15.2-148.5
		C1632.6,716.2,1635.2,704.9,1641.8,694.6z M1721.7,1370.2c-2.9-6.9-14.5-29.9,2.5-29.9C1728.3,1350.7,1727.5,1360.7,1721.7,1370.2z
		 M1729.4,1386.1c5.3,11.6,3.5,19.7-5.5,24.2C1723.9,1410.2,1710.7,1358.3,1729.4,1386.1z M1724.9,1438.1
		c24.2-9,45.5,118.1-10.5,101.2C1699.5,1534.9,1724.9,1451.7,1724.9,1438.1z M1685.3,1342.1c-15.6-7.8-1.3-39.8,0.9-50.5
		C1714.1,1287.9,1703.5,1342.1,1685.3,1342.1z M1679.3,1495.2c2.2-8.7,4.4-17.4,6.6-26.1C1691,1475.6,1689.5,1495.9,1679.3,1495.2z
		 M1593.5,1561c43.4,23.3-34.7,78.2-40.5,85.4c-11.4-4,35.3-261.5,35.3-300.5c30.4-7.5,13.9,55.5,39.1,62.2
		c-10.1-29.6-6.2-57.2,11.8-82.6c24.7,3.5,25.4,117.2,16.9,133.1c-0.3,0.5-34.7-20.6-39.7-11.8
		C1604.9,1467.2,1594.3,1534.7,1593.5,1561z M1556,1736.9c0.4,41.6-28.6-38.6-31.1-46.8c29.7-20.3,33.6,36.1,37,48.8
		C1556.2,1725.2,1554.2,1724.6,1556,1736.9z M1581.5,1240.5c1.9,11.6,4.1,23.2,6.5,34.7c-35.4,19-35.1-178.8-46-192.7
		C1639.9,1066.6,1553.6,1227.6,1581.5,1240.5z M1554.4,973.9c5.9,9,8.8,18.9,8.7,29.5C1539.7,1005.6,1554.2,973.6,1554.4,973.9z
		 M1579.8,1368.7c-29.4,3.3-17.5-44.9-12.8-54.2C1583.5,1307.5,1590,1347,1579.8,1368.7z M1549.1,1298.5c2.1-6.4,4.3-12.9,6.4-19.3
		C1565.8,1279.8,1557.6,1298.1,1549.1,1298.5z M1551,1413.4c40-6.1-13.5,103.6-13.5,45.1C1545.3,1444.6,1549.8,1429.6,1551,1413.4z
		 M1629.5,1312.4c-0.3,6.3-12.2,23-20.3,19.7c-13.3-28.1-1.4-58.5-1.4-89C1650.5,1236.6,1635.2,1298.7,1629.5,1312.4z
		 M1654.1,1515.3c-13.6-31.4,32.4,29-32.4,29C1611.8,1534.2,1649.5,1515.3,1654.1,1515.3z M1597.7,559.7c1.8,38.9,7.4-8,21.6-5.6
		c-23.3,50.7-3.6,31.4,18.3,68.7c-10.4,5.1-18.3,3.1-23.6-5.8c-5.7-2.4-0.8,32-9.7,25.7C1589.8,632.5,1590.3,573.8,1597.7,559.7z
		 M1535.1,649c1.3-11.5-6.4-41.1,16.8-41.1c36.4,0-0.8,57,27.8,57c3.9-19.4,2.6-38.4-3.8-57.2c13,7.6,38,79.5,6.6,71.8
		c34.8-15.2-53.6,4.9-41.7,4.9C1536.3,681.4,1536.2,649.3,1535.1,649z M1504.6,987.3c15.3-6.5,46.7,33.3,46.7,44.6
		C1531.8,1045.4,1492,1008,1504.6,987.3z M1521.5,1488.3c21.1,9.2,15.5,40.5,15.5,56.3C1534.5,1549.1,1498.4,1507.8,1521.5,1488.3z
		 M1408.3,1822.7c9.4-39.3,128.8-69.7,128.7-66.2c7.6,26.9,17.5,52.8,29.6,77.9c-18.8,20.8-39.6-31.5-49.1-27.7
		c-22.9,9.1-82.5,55.5-101.7,56.6c-0.9-12.8,2.9-23.9,11.5-33.4C1419.8,1830.2,1413.5,1827.8,1408.3,1822.7z M1531.2,2055.9
		c3.5,1.2,29.5,2.9,30.3,4.5c-17.3,25.3,37.1,13.2,15.2,35.9c-19.7,20.3-79.7-16.9-98-17.4c-42.7-1.1-28.3,34.5-93.3,18.8
		c12.9,36.8-56.6,22.6-16.9-20.1c22.9,54.6,125.9-79.8,176.1-59.8C1542.8,2021.4,1523.7,2050.1,1531.2,2055.9z M1367.3,2001
		c-2.9-21.6,58.2-5.7,44.9,29.4C1399.8,2035.2,1384,2009.9,1367.3,2001z M1515.3,1961.4c6.2,7.6,13.1,14.5,20.8,20.5
		c-59.4,0.6-7.3-83.9-5.6-85.2c13.8-2.5,27.3-6.3,40.3-11.4C1570.9,1922.2,1510.1,1914.1,1515.3,1961.4z M1451.2,1873.5
		c3.2,6.8,1.5,74.7,1.6,74.7C1399.8,1962.1,1400.2,1832.9,1451.2,1873.5z M1302.6,1827.2c37.8-4.8,61-18.3,84.6,6.1
		c23.4,24.2-59.4-3.9-47.6-3.9c-13.3,5.4,12.1,34.6,12.2,40.3C1333,1883,1286.2,1845.5,1302.6,1827.2z M1086.6,1934.7
		c7.6-4.1,12.2-10.3,13.9-18.8c-22.6,5-40.3-2.2-53.1-21.6c9.1-0.4,17.4-3.3,24.7-8.9c-2.7,0.1-44.8-2.7-35.1-14.4
		c80.1,26.5,169.6-70.5,245.8-38.5c9.3,17-45.5,24.6-50.3,28.1c64.2,3.8,53-24.9,93.4,19.9c-26.5,16.2-24.3-19.6-51.7-3.5
		c3.5,3.9,8.5,4.9,15.1,2.7c53.8-66.9-62.7,63.2-14.7,16c7.2,3.8,14.8,5.2,23,4.3c-3.2,11.1-6.9,22-11.1,32.8
		c92.7,16.5-64.2-48.7,47.6-32.3c-5.6,6.8-12.9,9.8-21.8,9.2c4.8-5.8,50.7-3.7,63.4-19.6c20.1,19.8,17.1,33.5-9.2,41.2
		c-1.6,12.9,37.5,35,48.3,33.1c-27.2,19.4-49.6,8.7-78.1-4.2c3.6-11,11.2-15.1,22.7-12.2c-28-32.3-91.6,24.5-97.2,15.5
		c-5.3-20.9-41.9-32.4-51.2-10.1c4.2-10.2,35.6-35,47.7-35.5c-1-0.6-68.5,10.4-66.6,10.5c3.2-10.7,9.4-18.8,18.8-24.4
		c-33.7-7-66.5-3.9-98.3,9.4c18.4-1.6,39.8-1.1,58.2-1.1C1183.9,1939.3,1103.9,1951.1,1086.6,1934.7z M1354.5,1998.1
		c0,19.2-25.2,18-28.8,0.5C1335.8,1987.3,1345.4,1987.2,1354.5,1998.1z M1102.3,1957.4c-5.4-11.2,23.8-8.8,28.4-4.6
		C1128.7,1958,1108.5,1960.9,1102.3,1957.4z M1169.2,2059.8c-66.3,12.3,5.3-83.7,5-90.2c-12.8-0.7-25.6-0.8-38.4-0.2
		c0-32.4,71-9,83.9-2.8c2.1,4.1-42.7,28.5-45.6,29.8c1.1,21.8,87.2-17,57.5,14.9c15.8,0.4,31.7,0.4,47.5,0
		C1262.9,2037.8,1113.4,1990.6,1169.2,2059.8z M1201.3,2081.2c-20.2,5.1-13.6-36.9,11.6-26
		C1208.5,2063.6,1204.7,2072.3,1201.3,2081.2z M1213.6,2117.2c19.3-1.6,30-2.2,52.1-0.4C1267.4,2120.2,1223.4,2131.2,1213.6,2117.2z
		 M1293.6,2126.1c-10.4,2-38.5-21.7-53.9-21.9c20-1,88.9-20,105.2-8.1C1373.2,2116.7,1290.6,2125,1293.6,2126.1z M1323.7,2161.3
		c29.9-3.2,108.6-19.1,50-35.8c36.8-15.8,39,3.8,47.3,17.9c32.1,0,36-48.4,62.6-4.5C1461.2,2167,1353.7,2171.6,1323.7,2161.3z
		 M1497.4,2150.9c-6.9-9.7,14.2-31.1,22.4-23.2C1519.8,2159.7,1518.1,2141.2,1497.4,2150.9z M1561.3,2140.7
		c-7.1,1.3-14.3,2.5-21.4,3.8C1549.9,2097.8,1602.5,2161,1561.3,2140.7z M1565.9,2052.4c-17.6,2.5-22.3-56.1,16-30.9
		C1575,2030.9,1569.6,2041.2,1565.9,2052.4z M1677.8,2133.2c-25.9,6.5-62.6,5.9-88.4,9.3c-29-31.2,88.3-77.9,118-10.6
		C1697.5,2132.4,1687.6,2132.8,1677.8,2133.2z M1801.1,2114.9c-14.1,20.5-88.4,4.2-99-15.2c21.1-23.3,59.1,3.1,71.4-18.3
		c-18-12.6-42.1-6.7-58.8-17.5c31.7-48.4,71.4,21.1,93.2,4.8c35.3-26.4-78.3-76.9-95.8-98.4c18.9-20.5-8.9-129.2-42.2-133.7
		c-45-6.2-83.9,122.5-125.2,91.7c13.7-11.5,26.3-24.1,37.8-37.9c-22-4.1,1.1-24.2-24.6-10.7c50.4-64.6,2.9-133.3,6.4-204.8
		c16.4-13.4,49.7,99.8,55.6,101.7c63.7,21.3,61.1-78.8,37.4-78.8c-0.1,10.9-3.6,20.5-10.6,28.7c6.7-3.2,8.1-54.8,1.5-58.4
		c-2.2,18.5-11.3,32.4-27.3,41.6c-6.2-16.8,10.3-62.8,21.2-75.3c35.5,10.4,19.5,85.3,40.3,109.5c26.2,1.8,3.8-44.6,14.7-43.2
		c3.6,19.2,13,108.5,36.5,111.7c3.2-26,4.6-52,4.2-78.2c6.8,21.7,35,65.9,39.2,75.7c10.5,24.4-20.9,31.6,20.3,61.9
		c-18.4,4.8-35.3,1.6-50.8-9.9c3-8.7,7.3-16.8,12.7-24.3c-50.9-16.5-49.9,15.2-35.4,47c24.8-37.1,41.4,77.2,39.9,82.5
		c13.9-4.7,15.5-29.6,25.9-30.8c19.9,23-2.4,45.5,15.1,66c9.5,11,42-18.6,58.4-4.1c-51.6,1.6,149.8,89.8,158.3,102.2
		C1972.5,2150.3,1860.5,2085.1,1801.1,2114.9z M2110,2099.3c-4.3,4.3-75.2,18.5-75.1,1.8C2035,2060.1,2140.8,2098.2,2110,2099.3z
		 M2039.5,1939.9c46.9-17.3,45.8,30.7,50.5,40.4C2074.3,1968.1,2037,1964,2039.5,1939.9z M2134.1,2073.7c0-25.8-0.2-17.9,19.4-17.9
		C2154.2,2056.4,2138.9,2080,2134.1,2073.7z M2262.5,2051.9c11.1,1.7-148.7-51.7-143.2-38.7c35.8-16.9,123.7,10.7,124.6-3.8
		C2273.9,2018.8,2263.4,2033.8,2262.5,2051.9z M2129,1956.5c9.5-10.9,20.2-11.3,31.9-1.1C2138.9,1998.4,2145.9,1969.5,2129,1956.5z
		 M2214.1,1944.3c36.1-28.4,78.1,42,27.3,49.9C2214.7,1998.4,2178.5,1972.2,2214.1,1944.3z M2292.4,2007.5
		c4.4,4.9,28.7,10.2,30.9,7.4C2320.3,2031.6,2291.3,2031.9,2292.4,2007.5z M2519.9,2045.8c-21.3,0-30.5-51.8-56.1-22.1
		c7.2,23.4,42.9,12.4,49.2,42.5c-25.8,42.7-61.3-31.3-76.1-29.4c-11.8,13.8-24.7,26.5-38.8,38c-5.5-21.9,48.7-107.7-8.8-108.7
		C2397.8,1961.4,2539.7,2023.4,2519.9,2045.8z M2633.1,2043.2c-4.5,15.9-92.8,18.6-95.4,3.8c62.9-53.3-24.5-106-53.7-134.5
		c-22-21.5-177.2-216.3-222.8-159.6c19.9,15.7,66.4,44.6,28.3,74.1c-2.6-12.7-7.8-24.1-15.6-34.3c-41.5,73.2,82.2,15,93.7,39.2
		c-7.5,9.9-17.4,14-29.7,12.4c8.2,3.7,13.1,9.9,14.6,18.7c-51.1,7-79.9,88.3-142.7,65.2c-8-59.4,31.6-35.4-49.1-95.5
		c0.1-22.9,94.5-62.6,113.9-68.1c-66.8-14.4-94,20.3-144.1,32.8c-22.6,5.7-127.5-7.1-86,47.3c19.4-19.8,37.7-17.9,54.9,5.8
		c-16.7,0.8-33.3,0.5-49.9-0.9c3.3,16.9,12.8,28.8,28.5,35.8c0.2-50.8,53-6,56.3,18.5c-51.5,26.2-90-69.2-98.4,20.1
		c-48.2-5.4-58.1,50.9-42.8,98.5c-20.2-2.8-40.4-4.1-60.7-3.9c-2.8-19.9,62.3-26.3,9.7-72.2c-8.6-7.5-49.4-34.4-63.8-7.4
		c10.4,2.5,18.7,8.1,25,16.7c-21.1-11-43.6-17.5-67.3-19.6c5.9-20,19.2-33.2,39.8-39.4c-21.6-20.7-48.2,29.1-65.6-11.8
		c8.7,1.8,17.4,3.5,26.2,5.1c-2.5-8-18.9-24.4-18.9-24.7c25.7-24.5,61.2-3.7,61.2-53.7c32.1-28,16,42.2,8.1,56.1
		c137,25.8-23.7-182.8-57.7-61.3c-5.4-10.5-55-36.1-66.2-37c87-28.6,157.2,14.7,157.2-96.8c21.5-25.7,34.9,69.9,27.1,64.9
		c16.2,10.4,88.9-11.2,115-13.9c93.6-9.8,212.3-22.9,298.1,17.9c70.7,33.7,108.2,95,159.6,147.6c34.2,35,149.7,104.7,149.7,155.3
		C2656.9,2054.2,2644.8,2053.8,2633.1,2043.2z"/>
	<path fill="#68C6C0" d="M1732,1132.8c-23.8,21.3-31.3,83.8,9.1,82.8c-0.6,1.3,14-71.9,17.5-56.5
		C1751.2,1148.8,1742.4,1140.1,1732,1132.8z"/>
	<path fill="#68C6C0" d="M1731,906.6c0.2,0,0.2,0.1,0.1,0.2C1731.1,906.7,1731.1,906.6,1731,906.6z"/>
	<path fill="#68C6C0" d="M1767.1,1810.5c1.3,0.7,2.5,1.1,3.7,1.5C1770.3,1809.5,1769.1,1808.7,1767.1,1810.5z"/>
	<path fill="#68C6C0" d="M1485.6,2143.8C1484.1,2144.5,1485.1,2152.1,1485.6,2143.8z"/>
	<path fill="#68C6C0" d="M1737.2,786.8C1739.9,788.6,1738.5,789.1,1737.2,786.8z"/>
	<path fill="#68C6C0" d="M1889.7,2085.4c-125.5-53.1-33.7,60.3,26.4,16C1907.3,2096.1,1898.5,2090.7,1889.7,2085.4z"/>
	<path fill="#68C6C0" d="M2280.1,1841.7c0,7.3,70.7,16.2,39,34.3c-19.4,11.1-67.3-24.2-77.9-38.8
		C2254.2,1838.2,2267.2,1839.7,2280.1,1841.7z"/>
	<path fill="#68C6C0" d="M2233.7,1758.6c-11.8,0.1-44.3,3.5-51-3.9C2187.3,1714.9,2226.8,1751.3,2233.7,1758.6z"/>
	<path fill="#68C6C0" d="M2316.3,1834.3c12.8,0,11.9-7.4,21.2-6.8C2341.7,1862.1,2297.3,1831.8,2316.3,1834.3z"/>
	<path fill="#68C6C0" d="M1734.4,1008.8c-39.6,42.1-16.4,56.1-76.4,41.2c7,14.1,1.5-59.3,0.9-34.2
		C1675.2,1000.1,1714.9,1010.1,1734.4,1008.8z"/>
	<path fill="#68C6C0" d="M1622.3,994c-20.9,21.9-16.3,35.3-11.4,64.9C1639.5,1072.2,1629.3,1000.5,1622.3,994z"/>
	<path fill="#68C6C0" d="M1663.5,862.8c-13.3,1-15,52.2-10.7,60.4C1691.2,924.5,1674.4,878.4,1663.5,862.8z"/>
	<path fill="#68C6C0" d="M1716.7,1178.3c-0.6,9.6-1.8,19.2-1.1,28.6C1720.8,1192.3,1723.8,1187.1,1716.7,1178.3z"/>
	<path fill="#68C6C0" d="M1670.4,821.3c0.3,4,7.8,57,18.2,55.9C1693.5,871.1,1683.9,813.3,1670.4,821.3z"/>
	<path fill="#68C6C0" d="M1739.2,981.9c4.9,24.1-1.3,32.2-18.7,24.2C1723.1,995,1729.3,987,1739.2,981.9z"/>
	<path fill="#68C6C0" d="M1639.4,986.8c20.7-1.8,13.9,31.7,3.9,28.7C1637.3,1005.2,1643.2,996.8,1639.4,986.8z"/>
	<path fill="#68C6C0" d="M1739.3,982C1739.3,955.2,1739.1,977.4,1739.3,982z"/>
	<path fill="#68C6C0" d="M1639.5,986.8C1634.4,982.7,1633.6,976.7,1639.5,986.8z"/>
	<path fill="#68C6C0" d="M1624.8,984.4C1625.6,984.6,1626.2,991.7,1624.8,984.4z"/>
	<path fill="#68C6C0" d="M1761.1,1145.2C1758.7,1143.8,1759.2,1142.8,1761.1,1145.2z"/>
	<path fill="#68C6C0" d="M1989.8,1795.4c-0.6,4.2,0.4,7,3.1,8.5C1990.7,1801.6,1989.8,1798.5,1989.8,1795.4z"/>
	<path fill="#68C6C0" d="M1072.1,1885.4c4.3-17.5,73.2-9.1,80.7,5.6C1144.1,1898.7,1085.4,1886.2,1072.1,1885.4z"/>
	<path fill="#68C6C0" d="M1228,1948.6C1208.3,1948.1,1224.4,1947.8,1228,1948.6z"/>
	<path fill="#68C6C0" d="M1632.4,1446.5C1622.9,1444.3,1640.7,1448.4,1632.4,1446.5z"/>
	<path fill="#68C6C0" d="M1511.5,2088.1c3.6,6.9,16.6,10.5,22.7,9.2C1526.5,2094.7,1519,2091.3,1511.5,2088.1z"/>
	<path fill="#68C6C0" d="M1391.2,2092.1C1403.2,2094,1390.9,2092.1,1391.2,2092.1z"/>
	<path fill="#68C6C0" d="M1325.6,2099.3C1338.3,2101.4,1324.2,2099,1325.6,2099.3z"/>
	<path fill="#68C6C0" d="M1325.1,2099.9C1319.5,2094.2,1324.7,2099.4,1325.1,2099.9z"/>
	<path fill="#68C6C0" d="M1618.8,615"/>
	<path fill="#68C6C0" d="M1601.5,2035.3C1597.7,2010.9,1616,2041.4,1601.5,2035.3z"/>
</g>
</svg>
