<?xml version="1.0" encoding="utf-8"?>
<!-- Generator: Adobe Illustrator 22.0.0, SVG Export Plug-In . SVG Version: 6.00 Build 0)  -->
<svg version="1.1" id="Слой_3" xmlns="http://www.w3.org/2000/svg" xmlns:xlink="http://www.w3.org/1999/xlink" x="0px" y="0px"
	 viewBox="0 0 300 300" style="enable-background:new 0 0 300 300;" xml:space="preserve">
<style type="text/css">
	.st0{fill:#68C6BF;}
</style>
<path class="st0" d="M199.5,35c-1.1-1.6,0.7-1.4,0.7-1.4s1.5-5.2,0-5.8c-17.3-1.1-50.2-1.2-50.2-1.2s-10.1-11.8-21.9-11.8
	c-7-0.3-4.4,5.3-3.7,5.9s5.8,4.4,7.5,5.8c-27.7,0.1-36.3,1.5-36.3,1.5s-0.3,4.8,0.6,5.5s0,1.9,0,1.9s-11,19.8-11.3,22.7V255
	c2.7,4.4,12.3,9.3,12.3,9.3s-0.7,2.9,0.3,3.2c20.3,14,84.7,6.3,98.1,2.6c1.5-0.4,3.7-2.5,3.7-4.1c0-0.5,0.4-2.2,0.4-2.4
	c3.4-1.6,11.6-8.6,11.6-8.6s0-191.5,0-196.8S200.6,36.6,199.5,35z M144,25.4c0.7,0.3,0.6,1.3-0.2,1.3c-2.5,0.1-4.9,0-7.4,0
	c-0.7,0-0.8-0.8-0.4-1.2c0.1-0.1,0.2-0.2,0.3-0.2C138.8,24.6,141.7,24.5,144,25.4z M128,19.7c-0.1-0.2,0-0.4,0.1-0.6
	c0.1-0.2,0.2-0.4,0.5-0.4c4-1.1,7.8,0.7,11.2,2.8c0.7,0.4,0.4,1.5-0.4,1.5c-1.8,0.1-3.7-0.1-5.5,0.3c-0.2,0.2-0.4,0.4-0.8,0.2
	C131.5,22.7,128.4,21.6,128,19.7z M177.7,204.3L150,233l-23.7-30h16l8.7-43.3h-34l16.5-68h38.8L150.7,147H183l-23,57.3H177.7z"/>
</svg>
