<?xml version="1.0" encoding="utf-8"?>
<!-- Generator: Adobe Illustrator 22.0.0, SVG Export Plug-In . SVG Version: 6.00 Build 0)  -->
<svg version="1.1" id="Слой_1" xmlns="http://www.w3.org/2000/svg" xmlns:xlink="http://www.w3.org/1999/xlink" x="0px" y="0px"
	 viewBox="0 0 3000 3000" style="enable-background:new 0 0 3000 3000;" xml:space="preserve">
<style type="text/css">
	.st0{fill:#68C6BF;}
</style>
<g>
	<path class="st0" d="M2697.3,1488.8c-13.8-50.3-10.3-102.8-29.9-153.7c-24.5-63.5-62.4-124.8-109.2-174.1
		c-92.7-97.8-211.8-171.2-337.6-217.9c-231.3-85.8-445.8-91.9-681.4-38.9c-308.4,69.4-658.6,315.2-563.4,675.4
		c5.9,22.4,21,44.3,12.1,65.2c-7.7,18.1-44.3,28.3-54.2,48.8c-17.8,36.9,0.1,77.7-22.3,119.1c-46.3,85.5-135.6,153.2-212.1,210.2
		c-137.8,102.8-321.4,168-445.4,285.6c-32.7,31.1-71.1,82.8-29,125.5c42.4,42.9,94.4-11.1,126.1-42.3
		c75.2-73.9,140-156.8,221.5-224.4c81.2-67.4,165.1-130.1,245.5-198.3c39.7-33.7,73.1-66.9,107.4-105.9
		c43.1-48.9,94.5-52.9,141.5-93.3c123.5,119.5,244.8,208,413.2,256.6c122.8,35.4,250.8,54.7,378.7,51.3
		c251.8-6.5,477.9-83.3,673.3-244.6C2610.2,1768.8,2729.1,1605.2,2697.3,1488.8z M1916.1,1293.9c9.5-32.7,21.6-35.5,44.6-40.7
		c11.6-2.6,65.6-7.5,67.1,15c1.4,21.3-37.4,14.2-46.4,12.3c-15.5-3.4-21.9-3.3-26-14c-0.6-0.1-30.6,41-38.4,51.3
		C1911.5,1317.7,1915.4,1296.2,1916.1,1293.9z M2002.2,1335.1c36.7-19.3-1.1-53.9,51-38.4c-1.1,1.1-4.4,9.3-5.4,11.5
		C2078.9,1332.7,2002.3,1337.7,2002.2,1335.1z M2051.5,1588.9c2.7-9.4-12-16.1,4.2-29.6c9.3-7.8,12.6,17,21.7,14.5
		c0.2-3.5,2-5.9,5.4-7.4c3.2,7.6,3,22.5,7,29.4c-43.7,8.2,2.3,16.5,11,5.4c5.6,16.1-52.3,35.4-67.3,34.7
		c-26.5-1.2-31.3-10.7-46.5-14.4c-5.8-10.5,0.4-36.7-0.5-49.3c27.8,6,1.6,47,31.8,48.4c22.7,1,8.8-7,20.4-32.1
		c3,0.2,9.1,16.3,9.9,21.5C2069.3,1603.6,2048.9,1597.6,2051.5,1588.9z M2191.2,1530c11.9,0.6,22.8,8.7,18,21.6
		c-6.6,0.8-67.4-11-77.7-8.8C2146.9,1530.2,2172.7,1513.5,2191.2,1530z M2189.2,1521.8c16.2-15.1,43.6-16.5,59.2-1.5
		C2237.5,1526.6,2205.6,1518.2,2189.2,1521.8z M2110.5,1575.6c-0.8-6.1-0.2-12.2,1.7-18.3c11.3-12.9,4.8-35.4,28.3-30.7
		C2126.8,1543.2,2124.9,1562.9,2110.5,1575.6z M2114.1,1676.9c16.5,16.8-0.5,44.1-19.8,26.8
		C2077.6,1688.9,2095.9,1671.4,2114.1,1676.9z M1888.2,1710.5c4.8-5.1,24.1-1.5,23,5c-6-2.1-11.9-2-17.5,0.3
		c15.6,13.1,10,24.5,31.4,30.5c25.9,7.4,46.1-9.8,70.8-10.7c-10.5-15.4,22.4-30.6,31.5-14.7c-4.1,1.4-7.8,3.4-11.2,6.1
		c26,10.4,48.9-14.3,74,0.4c-2.6,2.9-42.7,9.3-48.2,10.4c-24.3,4.9-41.5,13.2-63.9,20.5c-26.3,8.5-65.3,18.9-85.9-8.8
		C1868.1,1717.4,1899.8,1730.9,1888.2,1710.5z M1910.4,1555c3.3,1.4,52.1-1.1,55.2-0.3C1966.9,1574.9,1917,1561.1,1910.4,1555z
		 M1985.4,1523.9c-4-3.4-6.4-5.2-11.8-4.1c-9.6-8.4,75.6-27.7,46.6,4.6C2009.1,1514.3,1998.4,1515.3,1985.4,1523.9z M1987.9,1557.4
		c-0.9,6.6-3.7,12.2-8.4,16.9C1975.8,1567.2,1979.5,1547.9,1987.9,1557.4z M1903.7,1778.3c3.8,0.4,20.2,15.8,29.4,17.8
		c11.1,2.4,30.9,3.2,43.1,2c22.5-2.1,43.2-9.4,63.8-18c25.3-10.5,95.2-67.8,119.4-51.1c2.8,11.7-127.7,74.2-136.4,77
		c-25.7,8.5-52.3,17.1-80.7,10.6c-25.7-5.9-25.5-17-41.2-28.6C1901.2,1784.6,1902.1,1781.4,1903.7,1778.3z M1887.5,1289.2
		c8.3,21.1,12.2,0.3,21.5,3.3c10.3,20.3-4,14.4-8.2,25.1c-4.3-0.3-19.3-11.9-25.1-15.4c13.6,17.2,6,28.2-6.9,32.1
		c-0.4,1.8,11.7,38.5-12.6,24.2c2.7-3.8,3.7-8,3-12.4c-18.8-1.5-20.7,22.5-32.8,21.5c3.8-18.6,18.8-19.1,25.7-33.6
		c-11.3-8.9-0.5-35.2-8.2-62c-4.5-15.6-6.4-34.6-19.7-46c0-4.6,45.7,39.6,45.7,64.2C1875.8,1298.1,1883.4,1278.9,1887.5,1289.2z
		 M1850,1372.6c-1.9,12.8-17.4,35.2-22.9,45.1c-1,7.8-4.7,11.2-11,10.3C1820.3,1414.2,1824,1370,1850,1372.6z M1157.2,1560.9
		c17.7-5.5,88.9-30,130.8-30.6c-4.2-0.2-8.5-1-13-2.6c-14.1-5.1-32.7-6.2-24.3-33.1c12.9-41.2,8-83.5,27.9-125.7
		c32.1-68.2,86.6-122.6,150.7-161c101.1-60.6,218.3-93.6,334.9-97.5c21.7-0.7,87.1-4.7,103.6,7.5c19.9,14.7,4.1,17.3-11.4,32.9
		c-10.1,10.1-40.4,37.6-52.2,41.9c-19.9,7.2-31.6-5-56.7-0.5c-19.2,3.4-45.5,16.4-65.8,5.6c-10.7,14.1,17,12-16.5,16
		c-17.6,2.1-29.1-4.7-44.7-3.1c-44.5,4.8-59.4,29.3-72.5,65.1c-12.4,33.8-55.1,105.4,6.9,102.9c38.5-1.6,25.1-41.8,23.2-67.3
		c5.8-3.6,8.6-2.3,8.5,3.8c7.1-3.2,12.8-33.7,19.6-41.9c12.9-15.4,16.3-15,35.4-22.7c8.8-3.5,43.9-1.1,35.6-20.2
		c-16-2.3-28.5,17-34.2,15.3c-3.2-4.9,4.1-16.5,5.4-19.4c-3.4-0.3-19,2-17.9-5.3c13.6-7.6,68.6-0.4,71.5,15
		c-19.8,19.3-54,10.8-74.5,25.9c-23.6,17.4-26.1,40.1-31.7,65.8c-3.4,15.5-14.7,45.3-4.6,56.9c2.2,2.6,44.6,13.1,56.7,6.9
		c17.4-9,6.8-25.7,18.6-47.2c10.1-18.5,32.2-21.6,43.4-35c15.7-18.7,11.5-42.3,17.9-59.2c7.6-20.1,11.9-30,36.1-40
		c1.8-0.8,40.6-4.9,32.7,3.3c-5.7,2.9-20.8-1-24.9,4.7c22.7,19.1-19.1,81.6-31.4,99c-18.4,26.1-33.9,51.1-47.3,84.7
		c-22.3-4.5-11-2.9-23.9,19.6c-1.8-3.3-4.3-5.9-7.5-7.8c-6.1,2-7.6,5.1-4.7,9.3c-2.1,1.3-16.4-0.5-21.6,2.4c3.4,7,7,12.2,1.3,18.3
		c-12.9,0.7-2-19.5-16.7-21.9c-4.4-0.7-49.4,10.3-55.7,12.5c-45.1,15.5,0.6,25.9-32.5,38.8c-0.2-0.7,14.3,24.7,14,24.8
		c-16.8-7.5-99.4,29.2-97.6,12.7c8-0.8,6-3.2,13-5.1c-16.5-33.5-41.7-40.3-15.3-85.9c9.6-16.5,23.7-25.7,39.5-36.7
		c2.5-1.7,28.5-9,27.4-7.4c7.3-10.9,0.5-35.9,5.2-50.4c0.7-2.2,1.5-4.4,2.3-6.7c-27.5,42.5-94.6,88.5-112.7,114.8
		c-7.1,10.3-12.5,25.6-19.8,36c-6.2,8.8-8.1,19-15.1,24.7c-3.2,2.6-15.5-0.7-21.1,3.1c-19.7,13.4-37.9,32.4-60.3,33.4
		c10.9,0.2,19.4,2.3,24,7.1c-1.1,8.6-146.3,40-161.5,45.6c-48.3,17.6-100.9,62.9-148.3,73C966.7,1634.6,1134.6,1568,1157.2,1560.9z
		 M1582.3,1734c-5.3,11.8-5.3,8.6-15.5,17.6c-5.2-11.2,7.5-12.6-0.8-24.7c-1.1-1.6-29.9-0.3-17-16.9c12.7,18.7,45.1-17.7,62.6,5.2
		C1606.4,1717.2,1573.2,1726.4,1582.3,1734z M1507.8,1669.2c1.8-11,25.1-9.1,31.3-9.1c5.2,8.4-14.2,9.9-16.9,10.6
		c-2,19.9,30,30.7,29.6,18.2c-5.6-0.4-7.5-3.6-5.8-9.6c8.1-4.6,38.6-5.4,37.9,9.3c-10,10.4-89.8,36.4-90.4,36.3
		C1443.4,1722.9,1512.2,1679.2,1507.8,1669.2z M1579.1,1527.7c-68.9,23.9,1.2,86.1-11.9,115.7c-35.7,7-28.9-87-23.2-103.9
		c-8.2-12.9-59.8,19.1-61.9-0.5c17.3-3.9,86-9.9,104.9-17.1C1584.4,1523.8,1581.7,1525.7,1579.1,1527.7z M1208.1,1577.6
		c9.4-2.8,139.7-36.8,137.5-19.1c-15.9,20.3-132.4,38-159.8,48.7c-34.6,13.5-64.5,27.9-96.1,47.8c-19.6,12.3-46.2,37.7-68.5,38.8
		C989.1,1641,1173.9,1587.5,1208.1,1577.6z M1695.1,1888.1c-4.7,1.2-9.7,0.7-14.5,0.3c-8.3-0.6-16.6-1.5-24.8-3
		c-12.7-2.3-25.1-5.8-37.4-9.6c-2.1-0.3-4.1-0.7-6.1-1c-14.4-2.7-29.7-6.5-42.6-14c-32.9-6.7-159.1-84.4-170.6-94.3
		c-27.2-23.4-63.2-47.5-86.5-75c-26.1-30.8-16.6-51.3-55.2-45.3c-64.1,9.9-114.1,80.8-170.5,104.2c-28.6,11.9-4.5,21.1-35,1.5
		c-51.2-33-4.4-61.7,24.2-78.9c48.4-29,101-53.6,155.4-69.8c21.6-6.4,121.7-40.4,141.9-22.3c2.4,9.2-71.7,20.7-84.3,28.4
		c7.7,1.4,99.1-30.8,100.7-12.8c1.1,11.7-68,14.6-76,27.4c17.2-1.1,39.8,27.3,51.1,43.7c-0.6,1,66.8,37.8,70.9,40.3
		c6.2,3.8,12.9-0.4,20,5.6c0.5,0.4,11.2,34,16.7,40.6c27.3-25.8,21.6,57.6,53.9,66c26.6-20.7,59.6,5.1,86.8,15.6
		c18.7,7.2,47.4,19.2,61.9-1.4c1.1,1.2,7.9,10.4,14.4,17.6c5.3,2,10.1,5.3,13.3,10C1709.3,1871.2,1706.8,1885.1,1695.1,1888.1z
		 M1620.6,1710.9c6.3-3.9,64.4-6.5,69,5.1c-2.4,4.4-34.4,30.9-38,31.6c-3,0.6-8.8-19.3-12.7-23.6
		C1628.7,1743.6,1622.5,1715.7,1620.6,1710.9z M1721.3,1709.3c-10.9,9.4-17.3,45-20.5,57.2c-2.4,9,3.9,6.9,1.1,17
		c-4.5,15.7-16.6,28.2-20.7,45.9c-11.5-1.1,14-84.8,15.7-94.2c1.2-6.7-5.5-44.2,8-48.5C1715.5,1683.4,1725,1706.2,1721.3,1709.3z
		 M1748.3,1676.6c-0.5-16.7,35.7-44.4,47.6-26.1c-22.6,20.4-11.5-6.7-24.3,25.2c-5.3,13.1,4.5,36.8-6.2,48.5
		c-3.4-4.4-13.4-0.5-18.5-9.6C1740.6,1703.3,1748.7,1689.5,1748.3,1676.6z M1762.1,1587c6.9,7.2,29.7,47.2,27.3,54.6
		c-6,3.4-11.8,3.2-17.2-0.6c4.1-12.5-2.2-19-7-30.5c0.3,3.4-1,5.8-4,7.1c-9.1-15.6-17.5-67.9-1.6-77.1
		C1773.9,1540.3,1761.8,1584.5,1762.1,1587z M1780.8,1714.4c-0.3-5.8-0.5-11.7-0.8-17.5C1789.5,1702.6,1789.9,1709.7,1780.8,1714.4z
		 M1775.8,1769.7c-3.9,8.6-17.8,8.5-24.6,2.3c8.5-6.7,5.8-7.9,14-15.8c3.2,2.2,4.1,5.2,2.7,9.1
		C1772.4,1762.6,1775,1764.1,1775.8,1769.7z M1775.2,1759.6c-11,0.6-15.6-22.4-10.4-29.6C1772.8,1738.7,1780.2,1746,1775.2,1759.6z
		 M1744.3,1692.1c-10.4,9.6-14.7-3.6-25.8-4.3c-6.3-6.9,20.1-36.1,26.1-35.5C1742.6,1653.6,1740.6,1695.5,1744.3,1692.1z
		 M1795.8,1889.7c-11.5-13.5-7.9-30.9-18.3-43.6c-6.6,9.3-15.6-26.6-21.8-32.1c-3.5-3.1-22.4,11.2-25.8-0.4
		c-6.8-23.4,34.1-25.9,44.1-15.2c0,0.2-5.5,8.7-5.6,9.1c25,8,13.5,25.3,19.5,45.1C1791.5,1864.8,1800,1890.6,1795.8,1889.7z
		 M1849.7,1742.6c-1.2,6.1-12.6-1.2-14.8,9.7c-2.9,14.4,6.6,47.2-10.9,55.5c-3.5-3.9-3-8.2,1.6-13c-8.1-5.6-26.7,19-37,19
		c-1.1-8.5,10-14.5,15.2-20.6c-3.6-0.8-6.1-2.9-7.4-6.5c0-14-4.2-24.4,0.1-38.2c-0.5,1.6,14.6-13.2,14.5-12.9
		c2-13.1,0.7-18.1,1.4-30.9c12.2-2.1,12.8-4.5,14.2-13.6c35.6-31.9,11.7,30,5.5,40.6c3.9,1.3,7.8,2.6,11.7,3.9
		C1845.9,1721.8,1850.6,1738.1,1849.7,1742.6z M1807.4,1683.9c-7.1-2.9-10.2-8.7-9.4-17.5c3.6-2.7,7.1-5.4,10.7-8.2
		c12.3,13.6,9.9,1.8,25.5,24.6c-4.1,1.1-8,2.7-11.8,4.7c-1.2-9.4-5.3-7.5-12.3-15.5C1809.9,1674.6,1812.1,1683.8,1807.4,1683.9z
		 M1858.9,1509.3c-33,14.7,1.5,6.6-10.4,16.4c-17.6-5.9-93.8,6.9-95.4-6.2c-0.7-16.5-17.3-7.4-26.9-13c2.3-3.6,6-4.6,11-2.8
		c5.6-9.7-35-7.7-31.7-8.5c-21.3,5.3-22.4,19.2-25.8,32.7c-4.8,19.1,3.4,30.5-10.5,47.7c-7,8.7-26.4,22.5-37.4,26.1
		c-1.6-4.1-1.7-8.4-0.2-12.7c-4.3-2.9-19.3,59-39.6,13c-2.7-6.1,12.8-21.8,13.8-25.3c1.5-5.1-7.3-17.5-5.6-19.6
		c7.4-9.2,18.7-9.6,27.3-17.1c16.8,3.9-4,41.3,20.7,35.5c24.9-5.9,14.6-67.8-5.2-30.1c-21.1,4.1,22.1-26,22.6-26.2
		c-0.5-6.4,1.5-11.9,6-16.6c-11.8-9.4-74.8,15-91.3-0.1c3-6.2,11.7-20.7,10.4-21.4c14.5-3.5,22.6,3.5,35.6,2.8
		c-2.4-3.6,0-17.1-1.5-17.7c19.5-1.2,8-13.6,30.1,9c-1.1-1.2,32.9-0.7,42.6-2c-13.8-5.5-32.5-2.5-45.1-8.3
		c0.1-11.1,19.1-0.7,23.1-3.5c-0.3-2.9-13.4-10.6-13.9-10.9c17.7-4,94.9,52.6,105.9,20.2c-19.1-9.5-54.9,2-65.8-15.5
		c22.8-8-16.3-12.6-17.5-12.1c-0.9-6.4,17.4-4.2-3.2-5.3c-10.3-17.3,74.9,10.3,75,10.4c14,2.5,16.5,0.4,28.2-2.9
		c1-0.3,14.4,0.7,13.7,0.8c5.3-0.6,5.6-18,17.9-18c0.1,4.1-1.7,30.4-1.8,30.4c6,6.1,19.9,8.5,22.4,17.8c22.8-25.3,3.3-1.6,14.9-9.7
		c1.1,8.7-8,3.2-7.3,13c10.6,4.4,35.6,0.7,45-6c4.7-7,43.1-16.9,49.2-17.2c13.5,17.3,51.2-35.5,46.7-55.3
		c-2.7-11.7-44.9-26-23.2-42.2c-6-1.8-10.6-4.3-15.7-7.9c0.9-12.7,42,21.7,41.7,21.1c14.6,24.1,10.4,64.2-10.1,85.3
		c-18.9,19.4-28.1,7.5-42.7,17.8c-0.4,0.3-28.2,56-31.3,23.5c-2,0.6-20.4,27-21.7,21.9c-6.5-26.7,22.6-17,3.4-26.5
		C1877,1489.7,1852.8,1512,1858.9,1509.3z M1871.2,1758.4c9,0.4,26.1-2.2,26.7,11.9C1888.5,1790.5,1864.5,1762.8,1871.2,1758.4z
		 M2180,1800.8c-86.7,73.4-195.4,83.7-304.9,100.6c-15-10.8,48-32,49.6-32.3c31-5.7,52.7-1,76.8-1.3c38.3-0.5,70.8-14.3,107.3-35.8
		c19.4-11.4,62.8-30,74.5-47.9C2186.7,1791.3,2185.6,1796.8,2180,1800.8z M2219.8,1753.3c-14.7,26.8-59.7,11.2-55.6-18.3
		C2170.2,1692,2244,1709.2,2219.8,1753.3z M2274.1,1600c-42.5,0-108.3,54.8-143,15.9c-8.4-9.5-18-42.8,9.4-23.5
		c9.8,6.9,3.8,26.3,8.2,29.2c2.2,1.5,24.2-9.1,28.9-10.3c1.8-0.5,21.7,1.2,30.8-8.3c18.4-19.2,0.3-33.9-21-17.4
		c-18.2-15.4,53.5-39,66.3-32.7c0.3,1.9-20.7,26.9-25.7,32.5c5.8,14,44.3-2.6,54.1,8C2280.2,1596.7,2277.5,1598.8,2274.1,1600z
		 M2383.9,1542.6c-11.3,12.8-6.6,32.4-17.9,43.3c-2-1.1-10.9-34.6-13.2-37.8c-11.8-16.3-31.2-16.2-44.1-28.4
		c-0.9-7.1,12.3-26.2,13.3-34.3c2.3-19.3-3-27-7.9-40.8c-15.8-44.8-19.8-17.8-55.3-31c-9.8-7,6-8.8,6.9-14
		c-35.5-39.6-42.5-71.2-104-39.2c-15.1,7.8-94.4,29.6-96.5,35.1c-9.7,0.6-14.2-0.4-10.1-8.5c-4.2-4.8-10.3-5.2-18.3-1.4
		c21.7-14,58-9.9,83.4-19.6c23.4-8.9,44-20.1,69-28.4c-6.1-26.2-34.6-38.4-50-56.1c-18-20.6-10.8-18.6-13.6-41
		c-20.3-3.9-11.5,10.5-9.8,12.7c-18.7,4.5-107.5-27.1-137.1-19.9c13.6-19.5,7-97.4,11.3-102.4c33.6-38,233.9,67.7,264.6,90.5
		c60,44.4,104.6,107,122.5,179.5C2384.2,1428.7,2407.9,1515.5,2383.9,1542.6z"/>
	<path class="st0" d="M1291.8,1530.3c-1.2,0-2.5,0-3.8,0C1289.3,1530.4,1290.6,1530.4,1291.8,1530.3z"/>
	<path class="st0" d="M1520.7,1318.2c6.3-9.8,10.6-19.3,11.6-28.5C1528.3,1299.4,1524.1,1309.2,1520.7,1318.2z"/>
	<path class="st0" d="M1564,1220c-17.5-1.1-7.2,25.2-21.5,12.8c-3.4-1.4-11.5,28.3-21.7,25.4c-6.4,18.3-24.6,33.8-38.1,50.2
		c-8.9,10.7-21.5,19.2-24.5,33.4c-6.8,32.1,14.4-3.2,17.5-5.5c13.7-10.5,39.5-63.6,55.9-59.5c1.1,4.2,1.3,8.5,0.8,13
		c3.3-7.9,6.5-15.7,9.1-22.9C1547.8,1248.9,1556.4,1237,1564,1220z"/>
	<path class="st0" d="M1638.3,1406.1c-44.1-2.7-105.8-35.4-147.6-8.1c-24.8,16.3-60.6,88-2.9,77.3c-14.7-10.4,25.3-30.6,23.9-44.3
		c-7.5,0.6-13.5-1.9-17.8-7.5C1502,1414.8,1642.1,1433.4,1638.3,1406.1z"/>
	<path class="st0" d="M1567.9,1217.9c1-10.5,36.4-18.6,43.8-16.8C1611.3,1203.3,1574.8,1217.9,1567.9,1217.9z"/>
	<path class="st0" d="M1564,1220C1564,1219.9,1574.8,1214.6,1564,1220z"/>
	<path class="st0" d="M1074,1718c15-31.6,179.1-124.4,214.1-107.2c-26.4,23.9-85.8,36.5-118.5,52.7
		C1139.8,1678.3,1105.5,1711.1,1074,1718z"/>
	<path class="st0" d="M1314,1624c-3,1.9-6,3.9-9,5.8C1300.4,1622.7,1313.1,1624.4,1314,1624z"/>
	<path class="st0" d="M1074,1718C1073.3,1719.6,1072.2,1719.8,1074,1718z"/>
	<path class="st0" d="M1279.9,1639.9C1280.9,1638,1281.8,1638.4,1279.9,1639.9z"/>
	<path class="st0" d="M1984.9,1427.9C1983.1,1424.6,1992.7,1413.7,1984.9,1427.9z"/>
	<path class="st0" d="M1679.5,1462.7C1679.5,1464.8,1676.9,1461.5,1679.5,1462.7z"/>
	<path class="st0" d="M1819,1731.4C1820.8,1736.9,1817.6,1736,1819,1731.4z"/>
	<path class="st0" d="M1851.9,1333.9C1852.8,1331.6,1860.8,1331.7,1851.9,1333.9z"/>
	<path class="st0" d="M2002.6,1274c2.9-4.7,6.5-5,10.8-0.8C2010.4,1279.9,2006.8,1280.1,2002.6,1274z"/>
	<path class="st0" d="M1971.8,1276.2C1970.1,1275.6,1967.8,1262.4,1971.8,1276.2z"/>
	<path class="st0" d="M1520.5,1698.3c5.1,0,10.2,0,15.3,0c-8.8,8.1-36.5,9.7-26.8-7.9C1508.9,1690.4,1522.4,1699.2,1520.5,1698.3z"
		/>
	<path class="st0" d="M1492,1700c2.4-9.1,2.4-12.4,0-9.9C1499.5,1690,1492.6,1697.1,1492,1700z"/>
	<path class="st0" d="M1492,1700C1492,1706.7,1487.3,1711.7,1492,1700z"/>
	<path class="st0" d="M1492.3,1715C1488.1,1716.4,1487.3,1713.3,1492.3,1715z"/>
	<path class="st0" d="M1646.2,1725.3c4.2-4.5,7.3-4.4,11.8,0.2C1656,1728.7,1646.2,1732.7,1646.2,1725.3z"/>
</g>
</svg>
