<?xml version="1.0" encoding="utf-8"?>
<!-- Generator: Adobe Illustrator 22.0.0, SVG Export Plug-In . SVG Version: 6.00 Build 0)  -->
<svg version="1.1" id="Слой_4" xmlns="http://www.w3.org/2000/svg" xmlns:xlink="http://www.w3.org/1999/xlink" x="0px" y="0px"
	 viewBox="0 0 300 300" style="enable-background:new 0 0 300 300;" xml:space="preserve">
<style type="text/css">
	.st0{fill:#68C6BF;}
</style>
<g>
	<path class="st0" d="M39.3,218.6c-5.9-1.9-14-0.5-17.2,5.3c-3.8,6.9-0.7,14,5.6,17.8C42.8,250.8,55.5,223.7,39.3,218.6z"/>
	<path class="st0" d="M69.1,39.3C82.8,51.4,98,28.9,86,18.8C74.1,8.7,57,28.6,69.1,39.3z"/>
	<path class="st0" d="M122.1,25c2.6,1.7,3.7,4.9,6.3,6.6c2.8,1.8,7.2,2.1,10.3,1.2c5.7-1.7,8.2-7.2,6.6-12.7
		c-1.8-6.1-7.9-10.3-14.2-8.2C128.5,12.8,118.2,22.5,122.1,25z"/>
	<path class="st0" d="M205.7,93.9c-1.8,2.2,1,5.9,3.6,3.4C207.9,96.4,206.8,95.2,205.7,93.9z"/>
	<path class="st0" d="M73,153.3c-1.1,0.2-1.9,0.9-2.4,1.9c0.7,0.1,4.3-0.8,4-1.9C74.1,153.3,73.6,153.3,73,153.3z"/>
	<path class="st0" d="M234.2,113c-0.2-2.4-0.5-9.5-4.3-7.7C226.6,106.9,232,111.9,234.2,113z"/>
	<path class="st0" d="M234,121.9c0.1-1.3,0.5-3.2,0.2-4.4c-0.6-2.6-0.4-1.6-2.5-3.6c-1.9-1.9-3.8-3.6-5-6.1
		C223.5,112.2,229,120.8,234,121.9z"/>
	<path class="st0" d="M233.9,127.2c-0.3-4.1-1.5-3-4.5-5.5c-2.3-2-3.9-4.8-5-7.6C223.6,121.2,229.5,123.4,233.9,127.2z"/>
	<path class="st0" d="M238.2,106.1c0.2-0.7-3.2-2.1-3.8-1.7c-0.4,0.3,1.4,4.9,1.6,6C237.2,109.3,237.8,107.6,238.2,106.1z"/>
	<path class="st0" d="M236.2,112.8c0.1,2.2,0,4.5-0.1,6.7c4.8-1.5,6.4-8.2,3.7-11.7C239.2,109.8,238,111.8,236.2,112.8z"/>
	<path class="st0" d="M236,121.7c-0.1,1.7-0.1,3.5,0,5.3c4.7-3.6,8.8-6,6.9-12.8C241.7,117.1,239.6,121.2,236,121.7z"/>
	<path class="st0" d="M154,114.2c2.4,4.5,8.8,3,13,2.7c-0.8-1.2-1.9-2.3-3.1-3.1C163.7,116.5,155.3,114.5,154,114.2z"/>
	<path class="st0" d="M153.4,117.4c-1.5-1.3-2.5-4.6-3.3-6.4c-0.2,4.3,0.5,8.6,3,12.3C153.7,121.3,153.3,119.4,153.4,117.4z"/>
	<path class="st0" d="M157.2,118.8c1.5,1.6,5.6,3.1,6.5,4.7c1.6,2.7-1.7,1.5-2.8,0.8c0.8,2.3,0.9,4.8-1.5,3
		c-0.4-0.3-0.5-2.6-0.8-3.2c-1-1.9-1.5-2.2-3-3.9c0,2.7-1.3,3.7-0.2,5.6c1.2,2.1,5.1,3.6,7.3,3.4c5.6-0.3,7.1-6.3,5.2-10.8
		C166.4,120.8,159.2,119.5,157.2,118.8z"/>
	<path class="st0" d="M153.1,111.9c3,0.6,6.1,1.1,9.3,0.9c-3.4-1.8-7.3-1.7-10.7-3.4C151.6,111.2,152,112,153.1,111.9z"/>
	<path class="st0" d="M46,179.1c-1.8-0.8-3.2-4.6-3.7-6.3c-0.4-1.2-0.2-2.2,0.5-3.2c-1-1.1-1.8-2.3-2.5-3.6c-1.3-2.5-2.2-5.3-2-8.1
		c0.1-1.5,0.4-2.9,1-4.3c1.5-1.3,1.5-2.2-0.1-2.6c-0.6-5.5-2.9-11.3-2-16.9c0.8-5.7,4.1-11.5,5.9-17c1.6-5,1.7-10.9,3.8-15.6
		c1.7-3.6,4.2-3.6,6.4-5.7c3.9-3.7,3.4-9.6,9.2-12c1.3-0.5,2.7-0.7,4.1-0.8c0-0.8,0.3-1.4,1-1.9c1.6-1.2,3.3-3.3,5-4.2
		C67,72,62.1,66.8,57.4,61.2c-4.5-5.3-5.1-2-7.9,2.5c-2.7,4.5-7.1,7.7-9.9,12.4c-3.7,6.3-6.9,13-10,19.6c-3,6.3-5.7,12.8-7.7,19.5
		c-1.2,3.9-0.3,5.6-0.3,9c0,2.8-2,6.4-2.6,9.2c-3.1,14.3-0.8,32.6,4,46.3C23.3,189.6,42.2,180.7,46,179.1z"/>
	<path class="st0" d="M129,67.1c1.8,0.1,4.2,2.9,5.4,4.1c-0.1-0.3-2-5.2-2.2-5.1C131.1,66.4,130,66.7,129,67.1z"/>
	<path class="st0" d="M136.4,71.8c-0.7-2.4-0.6-6.2-2.8-7.4C133.6,64.9,135.9,72,136.4,71.8z"/>
	<path class="st0" d="M247.2,182.5c-1.5-0.5-3.7-0.7-5.2-0.6c-0.1,0-0.2,0-0.3,0c2.1,0.1,7.3,2.7,8.2,3.5
		C250.5,182.5,249.7,183.4,247.2,182.5z"/>
	<path class="st0" d="M240.9,182c0.2,0,0.4,0,0.7-0.1C241.3,181.9,241.1,181.9,240.9,182z"/>
	<path class="st0" d="M279.9,129c-2-4.1-3.5-7.1-3.9-11.7c-0.5-5.5-1.1-10.3-3.3-15.3c-4.8-10.8-12.5-20.3-19.5-29.7
		c-6.4-8.7-13.4-14.1-23.2-18.9c-10.3-5.1-20.7-10.1-31.2-14.7c-10-4.4-20.3-7.3-31.2-7.2c-11.9,0.1-23.4,3.8-34.7,6.9
		c-5,1.3-10,2.4-14.8,4.3c-4.6,1.8-8.3,4.1-13.1,5.5c-5.7,1.7-19.8,8.4-17.8,16.5c0.9,3.8,5.8,8,8.5,10.6c0.2,0.2,0.6,0.5,1,0.9
		c2.3-0.3,4.3-1.1,6.6-1.7c1.9-0.7,4.7-0.6,6-1c3.7-1.2,7-3.4,10.3-5.5c2.2-1.4,25.6-11,29-10.7c3.5,0.3,5.6-0.9,9.6-1.1
		c9.4-0.4,20.3-6.1,29.3-2.9c7.9,2.8,13.8,10.3,22.4,11.9c6.7,1.3,12.5-2.8,19.5,1.6c5.3,3.3,8.7,9.4,8.9,15.6
		c0.1,2.6-1.2,4.6-1.3,7c-0.4,0.7-0.7,1.4-1.1,2.1c1.1,0.9,2.2,1.8,3.4,2.7c3.4,2.6,6.9,5,9.2,8.7c3.9,6.4,3.7,14.2,5.1,21.2
		c1,4.7,3.3,9,4.1,13.8c0.8,4.8-1.1,9.2-0.7,13.9c0.3,3.6,1.9,6.8,1.8,10.5c-0.1,4.9-1.8,9.6-2.9,14.3c-0.1,0.6-0.7,1.9-0.6,2.4
		c-0.1,0.5-0.2,0.9-0.3,1.4c0.6,0.4,1.3,0.8,1.9,1.3c-0.3,3.2-1.1-0.5-2.5,2c-1.3,2.2-1.2,5.5-2.4,7.9c-3.4,6.6-8.3,14-13.1,19.7
		c-5.5,6.5-11.5,12.4-19.2,16.4c-4.2,2.2-9.1,2.9-13.1,5.6c-3.4,2.3-5.8,5.7-9.5,7.7c-4.5,2.3-9.6,2.1-14.4,2.4
		c-3.9,0.3-7.6,2-11.4,2.4c-4.2,0.4-8.3-2.3-12.8-2.1c-5,0.2-10.1,1.1-15.2,0.5c-7.1-0.8-17.8-6.3-19-14.4
		c-5.5,2.6-18.5,1.2-13.6-7.9c-7.1-1.6-9.2-8.1-11.7-13.9c-0.7-1.6-1.3-3.9-2.8-5c-2.4-1.9-4.6-1.2-6.3-4.5c-0.7-1.4-1-2.8-1-4.3
		c0-0.9,1-2.5,0.7-3.1c-0.7-1.9-5-3.6-6.5-5c-1.2-1.1-2-2.8-3.1-3.9c-1-0.9-0.7-1.2-0.5-1.3c-0.2,0-0.8,0.1-2.1,0.1
		c-2.9,0-8.5,2.6-11.1,3.9c-7.2,3.6-6.6,7.3-4.1,14.5c2.6,7.3,6.9,13.8,11.6,19.9c8.4,10.9,18.8,21.2,28.8,30.7
		c11.2,10.6,23.1,14.8,38.1,17.3c16.2,2.7,31.9,3.8,47.8-0.8c13.9-4,26.6-11.2,38.1-19.8c10.8-8.1,24.1-18,31-29.9
		c1.7-3,2.9-6.4,4.9-9.2c2-2.9,4.8-5,6.5-8.2c2.8-5.4,6.5-12.3,7.9-18.2c2-8.4,3.7-17.7,4.8-26.2C282.5,146.8,283.5,136.4,279.9,129
		z"/>
	<path class="st0" d="M61.4,172.3c4.2-1.1,9.3-0.7,13.7-0.7c1.9,0,22.8,0.2,22.4,1.7c-3.4,1.1-7.7,1.7-10.9,3.2
		c-5.8,2.7-1.8,5.5,1.8,8.4c0.9,0.7,3,3,4,3.2c0.6,0.1,2.9-1,3.9-0.9c4.2,0.4,7.3,5,7.1,9c1.8-4,3.3-7.8,6.1-11.2
		c1.5-1.8,6.5-7.9,9.2-7.6c3.2,0.4-2.9,3.8-3.4,4.4c-2.5,3.2-3.3,8.1-4.8,11.8c1.5-0.9,8.4-4,9.7-2.1c0.6,0.9-5.2,3.7-6.4,4.6
		c-2.7,2.2-4.6,4.8-8.1,5.5c-0.6,0.1-4.6-0.3-4.8-0.1c-1.7,1.8,5.3,12.8,7.4,14.4c3.4,2.5,3.9,2.8,6.7,0.4c3.3-2.8,6.4-5.8,10.3-7.9
		c1.9-1,7.5-2.9,9.6-2c2.7,1.1,0.6,0.5,0.4,2.2c-0.1,1.8-1.4,3.9-1.7,5.8c-0.5,3.5-0.5,6.5-2.6,9.6c-2.7,3.9-4.3,3.2-1.2,7.7
		c1.9,2.8,4.5,5.1,7.5,6.6c6.6,3.2,13.8,1.4,20.8,1.4c-19.2-8.3-10.9-38.2,9.9-34.9c19.8,3.1,20.2,32.1,0.5,36.1
		c3.9,0.3,7.7-1,11.6-1.3c3.9-0.3,8,0,11.8-1.1c7.7-2.2,13.1-9.5,20.7-12.5c7.6-2.9,15-7.8,20.1-14.1c5.7-7,12.2-15,16-23.4
		c-1.3,0-16.8-7.4-15.4-0.3c0.4,1.9,12.7,0.7,8.6,4.1c-1.9,1.6-14.5-3-12.6,1.9c1.1,3,4.6-0.6,5.8,1c1.8,2.4-3.5,2.6-4.7,2.8
		c0.9,0.8,5.2,4.4,2.4,5.2c-0.5,0.2-3.1-3-3.4-3.4c-3.8-3.6-3.7-4.2-4-9.4c-0.2-3-0.2-5.6,0.7-8.6c0.3-0.9,0.5-3.8,1.6-4
		c2.3-0.4,0.7,3,0.8,3.4c0.2,1.3-1.4,2.9,0.1,4.3c1.6,1.4,2.2,0.3,2.7-1.4c0.6-2-2.5-8.5,1.6-9.5c2.9-0.7,1.7,5.6,1.8,7.4
		c3.9-0.5,4.7-4.1,6.6-6.8c3.3-4.7,3.2-0.1,1.8,3.7c1.6,0.1,4.5,0.6,6,0.3c2.5-0.5,1.2,0.5,2.5-1.9c1.3-2.2,1.5-6,2.1-8.5
		c1.9-7.7-1.3-14.3-0.4-21.9c0.9-8.2-2.1-13.9-3.6-21.7c-1.3-6.7-0.9-14.2-4.7-20.2c-2-3.1-5.1-5.3-7.9-7.5
		c-0.9-0.7-1.8-1.4-2.7-2.1c-0.9-1.2-1.7-0.9-2.4,0.8c-1.6,0.6-3,2.2-4.6,2.9c-3.5,1.6-7.5,2.1-11.3,1.2c-1.8-0.4-2.8-0.9-4.3-0.6
		c-1.3,0.3-2.7,1.9-4.4,2c-3.1,0.2-6.2-1.9-7.5-4.9c-0.6-1.3-0.8-2.7-0.4-4.1c0.5-2.2,3.1-2.6,3.5-4c0.3-1-1.1-4.1-1.2-5.3
		c-0.2-1.7-0.1-3.4,0.2-5c0.8-3.8,3.1-7.2,6-9.8c-4.2-1.6-8.3-3.2-12.1-5.6c-3.4-2.2-6.4-5.1-10.3-6.2c-8.1-2.2-18.4,3-26.8,3.3
		c7.2,1.3,6,9.5,0.1,11.6c-4.4,1.5-10.6-0.3-10-5.9c-0.5,2.2-10.1,0.3-12.1-0.3c0.2,1.7,0.5,3.4,1,5.1c-0.3,2.1,0.6,3.1,2.4,2.9
		c1.5,0.9,3.3,1.2,4.8,2.2c3.4,2.3,5.8,6,6.8,9.9c2.2,8.7-3.6,17.5-12.2,19.6c-21,5.1-27.9-28.7-5.9-32.1c-0.7-0.9-5.1-5.7-4.8-5.9
		c-6.7,2.7-12.1,8-19.1,10.1c-1.1,0.3-4,1.3-6,1c-1,0.3-2,0.6-3,0.9c2.8,2.5,5.8,5.3,5.6,7c-0.4,3.2-11.7,1.8-13.5,1.6
		c-2.6-0.2-5.9-0.4-8.4-1.3c-3.3-1.3-6.2-4.7-8.8-7.1c-0.7,1.7-2.8,3.1-4.2,4.1c8.6,2.3,12.8,12,4.9,18.1c-3.5,2.7-8.3,3.3-12.5,3.1
		c-2.9-0.1-10.1-0.5-12.1-2.9c-2.1,3-1.5,7-2.3,10.4c-0.9,4.3-2.7,8.6-4.2,12.7c-1.3,3.7-3.4,7.1-3.7,11.1
		c-0.4,4.4,1.4,8.8,1.6,13.2c8.2-5.4,13.8,6.4,11.1,12.9c-1.2,2.8-3.4,5.4-4.9,8c-0.9,1.6,0.2,4-2.6,2.4c0.5,1.7,3.3,3.5,2.5,5.4
		C52.8,176.1,57.1,173.5,61.4,172.3z M67.5,159.2c-6.8-3.5,5-15.9,10.8-9C83.6,156.5,72.6,161.8,67.5,159.2z M155.1,194
		c-1.2,2.6-3.8-0.6-4.7-0.7c-3.4-0.4-1.4-1.5-3.6,1.8c-2.5,3.8-6,6.9-10.9,6.4c-9.9-1.2-11.3-16.2-8-23.5
		c3.4-7.5,14.2-12.2,19.5-3.9c1,1.6,1,3.8,2.5,4.9c1.1,0.8,2.5-0.1,3.2,0.3c2.4,1.3,2.5,2,2.8,5.5
		C156.4,187.9,156.4,191.1,155.1,194z M180.8,196.4c-21,0-21.2-32.7,0-32.8C201.7,163.5,202.1,196.4,180.8,196.4z M209.7,221.2
		c-4.6,1.7-9.9,1.7-13.1-2.5c-1.7-2.2-2.5-5.2-2.1-7.9c0.3-2.2,1.8-3.6,0.6-5.7c-1.8-3.1-4.9-1.2-4.4-5.4c0.3-2.2,5.3-12.1,7.9-11.7
		c1.5,0.2,2,4.4,3.9,5.2c2.8,1.2,3.9-1.2,6.2-1.9c5.6-1.8,10.1,1.4,12.4,6.4C225,206.5,218.7,217.9,209.7,221.2z M198.4,163.6
		c0.3-10.8,14.9-9.1,13.6,1.4c-0.5,4.2-5.2,9.2-9.8,8.7C195.8,173,198.2,167.9,198.4,163.6z M249,163c1.5,9.1-13.9,11.3-12.5,0.9
		C237.6,156.3,247.7,154.5,249,163z M222.4,113.2c1.1-5.9,6.2-12.5,12.9-10.7c6.7,1.8,11.4,10,10,16.6c-0.7,3.4-2.4,5.9-5.1,8
		c-1.7,1.4-4.4,4-6.2,3.5c-0.3-0.1-3.6-3.4-4-3.7c-1.5-1.1-3.3-2-4.6-3.4C222.8,120.7,221.7,117,222.4,113.2z M212,120.6
		c21,0,21.2,32.7,0,32.8C191.2,153.5,190.8,120.6,212,120.6z M180.3,98.9c6.5-3.6,19.6-5.7,21.1,4.8c0.5,3.3-1.5,4.6-2.4,7.4
		c-0.8,2.5-1.4,0.6,0,3.6c2,4.3,4,4.6-1.6,6.3c-5.1,1.5-5,4.6-9.5,1.3c-0.8-0.6-1.4-1-1.7-1.3c-0.3,0-0.8-0.1-1.5-0.3
		c-2.1-0.5-4.2,0.5-6.6-0.4C166.8,115.8,172.1,103.5,180.3,98.9z M153.5,82.9c1.4-6.3,5.2-12.1,12.2-13.1c7.6-1.1,7.4,6.7,5.8,12
		c-2.1,7.1-7.2,10-14.3,11c-2.1,0.3-1.3,1.2-2.6-0.6C153.5,90.7,153.1,84.6,153.5,82.9z M148.4,106.8c0.4-3.4,1-1.5,2.8-0.6
		c2.7,1.4,4.9,2.1,7.9,3c6.7,1.9,13.3,7.8,11.7,15.6c-1.6,7.9-10.5,7.7-15.7,3.6C148.3,123.1,147.4,114.8,148.4,106.8z M136.2,114.9
		c5.5,4.6,11,9.2,16.4,13.9c1.2,1.1,12.8,11.1,10.6,12.5c-1.6,1-4.4-0.9-6.2-0.5c-4.8,1-5.9,8.3-8.8,11.6c-0.5,0.9-1.1,1.8-1.7,2.7
		c-1.6,0.7-2.5,0.2-2.6-1.4c-1.3-1-1.2-2.9-3.4-3c-3.9-0.2-6.8,7.1-9.3,8.8c-3.4,2.3-9.9,2.8-13.8,4.1c-4.8,1.5-9.3,4.6-14.1,5.6
		c-2.1,0.4-29.2,0-28.7-2.2c2.8-1.1,8.4-4.7,11.5-4.8c3.4-0.2,5,2.2,9.1,0.7c9-3.4,15.2-11.4,24.3-14c5.9-1.8,19.7-4.1,15.6-13.1
		c-1.6-3.5-5-6-7.9-8.4c-4.1-3.5-7.1-7.1-10.4-11.4c1.2-1.5,4.9-0.8,6.3-0.9C127.4,114.9,131.8,114.2,136.2,114.9z M133.1,112.7
		c-2.8,1.5-13.5,2.6-16.4,1.1c-3.9-2,0.4-2.5,2.9-2.7c4.1-0.3,8.6-0.8,12.6,0.3C132.7,111.7,133,112.2,133.1,112.7z M94.5,91
		c2.7-2.6,13-0.8,16,0.2c1.9,2.1,18.9,16.1,18.5,17.8c-0.4,1.6-13,0.1-14.2,0c-6.5-1-9.9-2.8-14.2-7.5C98.3,99.2,90.9,94.5,94.5,91z
		 M53.4,115.9c0.3-8.7,9.4-11.6,16.7-10.4c6.1,1,12.4,4.5,15.4,10.1c1.3,2.3,2.1,4.9,0.6,7.3c-1.9,3-6.1,2.2-8.2,4.8
		c4.4,1.2,5.5-2.3,8.9-2.2c5,0.2,0.3,3.7-1.9,4.4c2.4-0.2,6.8,0.3,9.2,0.7c1,0.2,5.2,1.9,1.5,2.2c3.5,0.5,8.1,0.8,9.1,3.9
		c1.1,3.3-1.3,4.9-4.7,4.5c-2.4-0.3-4.5-1.9-6.8-2.6c-0.5-0.1-1.5,0.4-1.4,0.4c-1.1-0.4-2-1-3.6-2.1c0.6,2,0,4.2-2.3,3.2
		c-1.9-0.8-2.3-7.5-4.9-6.5c1,1.5,1.2,3.2-0.9,2.8c-1.1-0.2-3.3-3.5-4.5-4.3c-1.7,5.3-11.7,1.7-15,0.4c-0.4-0.2-1.2-6.5-2.3-7.9
		C55.7,121.5,53.2,120.6,53.4,115.9z"/>
	<path class="st0" d="M79.4,180.6C79.6,180.6,79.5,180.6,79.4,180.6L79.4,180.6z"/>
	<path class="st0" d="M186.3,121C187.8,121.1,185,119.8,186.3,121L186.3,121z"/>
	<path class="st0" d="M149.4,64.3c2-1.5,3.4-3.4,6.1-4c-0.8,0-1.6,0-2.4,0C151.7,60.3,150.3,62.9,149.4,64.3z"/>
	<path class="st0" d="M159,86.6c-2-1.6-2.3-4.6-2.4-7c-1.7,4-1.2,6.1,0.1,9.8C157.5,88.5,158.3,87.6,159,86.6z"/>
	<path class="st0" d="M161.7,73.7c-2,1.3-3,2-3,3.9c0,2.1-0.3,5.7,1.5,7.3C161.9,82.4,161.3,77,161.7,73.7z"/>
	<path class="st0" d="M167.4,72.3c-0.5-0.1-1-0.1-1.5-0.2c-3.3,0-2.8,6-2.9,8.5C164.7,78,166.3,75.3,167.4,72.3z"/>
	<path class="st0" d="M167.2,79.2c2-1.4,3.8-3.7,2-5.8c-0.9,2.4-2.1,4.6-3.5,6.8C166.2,79.9,166.7,79.5,167.2,79.2z"/>
	<path class="st0" d="M170,79.5c-2.5,3.1-5.7,3.1-7.9,6.4c2.2-0.4,4.9-2.6,6.8-2.7C169.4,82,169.7,80.7,170,79.5z"/>
	<path class="st0" d="M159,90.1c2.7-0.7,5.7-1.2,7.8-3.3C163.6,88.1,161.2,87.4,159,90.1z"/>
	<path class="st0" d="M57.7,95.8c0.3-0.4,0.1-4.1,0.3-4.9c-1.2,1.9-2.2,4-3.1,6.1C55.2,97.8,57.1,96.7,57.7,95.8z"/>
	<path class="st0" d="M59.6,94.7c1.2-0.6,2.4-1.2,3.6-1.8c0.8-3.2,3.8-6,6.6-7.5C63.3,84.1,59.8,88.5,59.6,94.7z"/>
	<path class="st0" d="M72.1,86.7c-2.4,0.9-4.6,2.6-5.9,4.8c2.9-1.3,6.1-2.6,9.2-3.3C74.4,87.3,73.2,86.3,72.1,86.7z"/>
	<path class="st0" d="M68.8,102.2c3.6-0.6,7.9-3,9-6.7c1.3-4.3-0.7-5.6-4.4-4.6c4,0.1,4.2,1.8-0.1,2.1c-4,0.3-5.6,0-9.3,1.8
		c3,0.6,5.9,0.1,8.6,0.5c3.5,0.5,2.7,1.7-1.2,2.4c-3.3,0.6-6.5-1.4-9.7-1.1c-2.6,0.2-5.3,2.3-7.1,4.4
		C59.1,102.3,64.1,103,68.8,102.2z"/>
	<path class="st0" d="M47.5,150.3c-5.7-0.7-4.3,3.1-2.3,6.4c0.4-1.5,3.1-6.9,3.4-2.8c0.1,2-1.8,4.9-1.9,7.2
		C49.9,158.4,54.4,151.2,47.5,150.3z"/>
	<path class="st0" d="M40.6,156.4c1.5,1,2.7,4.8,4.1,6.3c-0.1-3.8-2-5.4-3.1-9.1C41.1,154.5,40.8,155.4,40.6,156.4z"/>
	<path class="st0" d="M47.5,167.8c2.1-4,5.7-6.7,5-11.7c-1.2,2.9-2.9,5.6-5.4,7.4C46.4,164,47.4,167.3,47.5,167.8z"/>
	<path class="st0" d="M45.9,169.7c-1.3-3.8-3.2-5.4-5.3-8.8C41.4,164.2,43.3,167.5,45.9,169.7z"/>
	<path class="st0" d="M130.9,209.1c-1.4,0.1-2.8,0.4-4,1.1c2.3-0.1,3.5,0.4,5.3-1.1C131.7,209.1,131.3,209.1,130.9,209.1z"/>
	<path class="st0" d="M123.2,212.3c-1.3,0.9-2.6,1.8-3.8,2.7c3.3-1.2,6.6-0.5,9.2-2.8C127.8,212.2,123.9,213.1,123.2,212.3z"/>
	<path class="st0" d="M115.3,218.7c-0.8,0.9-1.6,1.9-2.2,2.9c4.3-2.4,8-2.4,11.5-5.7C123.3,216.1,116.2,219.4,115.3,218.7z"/>
	<path class="st0" d="M113.8,228.2c0.5-2.8,2.3-4.8,4.3-6.5C114.9,222.8,110.1,224.4,113.8,228.2z"/>
	<path class="st0" d="M131.3,217.3c0.2-1.7,0.3-3.5,0.5-5.2C129.5,214.1,131.1,214.5,131.3,217.3z"/>
	<path class="st0" d="M120.9,221.9c-2.7,2.1-4.1,4-5.2,7.2c6.9,1.5,12.4-3.8,9.2-10.7c-0.6,0.6-2,1.6-2.2,2.3
		c-0.5,2,2.4,4.5,0.1,6.7C120.5,229.8,121.4,222.9,120.9,221.9z"/>
	<path class="st0" d="M128.7,215c-2.4,2.3-1.4,0.9-1.3,3.9c0,2.1,0.5,3.8,0.1,6C129.8,222.7,129.8,217.7,128.7,215z"/>
	<path class="st0" d="M242.4,166.3c2.3,0.3,3.4-4,1-4.8C241.8,161,241,166.1,242.4,166.3z"/>
	<path class="st0" d="M204.9,166c2.7,0.6,3.7-5.8,0.3-5.4C202.9,160.8,202.3,165.4,204.9,166z"/>
	<path class="st0" d="M98.4,196.5c0.8-2-1.6-5.6-3.8-4.2C91.9,194,97.4,199,98.4,196.5z"/>
	<path class="st0" d="M198,191.8c-1,1.4-5.6,6.4-4.5,8.7c-0.2-0.5,5.2,3,4.7,3c1.7-0.1,4.8-5.4,5.3-6.8C201,196.3,199,194,198,191.8
		z"/>
	<path class="st0" d="M197.2,117.6c-0.8-0.8-1.9-2.1-2.2-3.3c-2.4,1.5-6.2,3.4-4.2,6.2C192.5,118.8,194.8,118,197.2,117.6z"/>
	<path class="st0" d="M159.1,65.9c0.5-3.4-5.4,1.3-5.6,1.5C154.5,68.1,158.8,67.6,159.1,65.9z"/>
	<path class="st0" d="M150,182.1c0.3,2-0.4,4.5,0.1,6.3c0.5,2,0.9,1.8,2.9,3.4c0.6-1.9,0.9-5.3,0.3-7.2
		C152.3,181.7,153,182.9,150,182.1z"/>
	<path class="st0" d="M73.4,131.4c-1,0.1-8.1-4.6-8-4.9c0.3-1.4,8.1-0.4,9.2-0.5c-2.5-1.6-10-3.1-12.1-0.1c-3.6,5.2,6.9,9.6,10,6.7
		C73,132.3,73.3,131.9,73.4,131.4z"/>
</g>
</svg>
