<?xml version="1.0" encoding="utf-8"?>
<!-- Generator: Adobe Illustrator 22.0.0, SVG Export Plug-In . SVG Version: 6.00 Build 0)  -->
<svg version="1.1" id="Слой_1" xmlns="http://www.w3.org/2000/svg" xmlns:xlink="http://www.w3.org/1999/xlink" x="0px" y="0px"
	 viewBox="0 0 3000 3000" style="enable-background:new 0 0 3000 3000;" xml:space="preserve">
<style type="text/css">
	.st0{fill:#68C6BF;}
</style>
<g>
	<g>
		<path class="st0" d="M660.1,1651.7C660.3,1654.6,664.4,1660.4,660.1,1651.7z"/>
		<path class="st0" d="M718.4,2012.8C710.5,2027.7,726.9,2009.9,718.4,2012.8z"/>
		<path class="st0" d="M1239.9,648.7C1248.7,636.7,1236.7,638.8,1239.9,648.7z"/>
		<path class="st0" d="M2856.3,1087.6c-6.5-209.8-96.7-344.8-313.6-408.2c-185.7-54.2-395.4-53.2-587-21.9
			c-28.3,4.6-57.8,9.9-85,16.1c-53.3,12.1-168.6,71.9-219.5,60.8c-42.2-9.2-69.9-71.1-106.5-99.9c-50.1-39.5-74.6-26.1-129.9-28.1
			c-43.9-1.6-164.2-46.9-174.9,33.6c12.4-0.3,27.6-26.8,45.2-32.1c45.7-13.8,72.8,4.7,107.2,10.4c30.5,5.1,101.7-6.7,89.9,40.4
			c13.9,15.8,34.7-13.4,39.4-15.5c-9.4-6.3-26.1-15.5-12.2-29.6c7.1,3.2,13.3,7.7,18.5,13.7c-1.5,9.9-13.7-8.7-17.9-0.9
			c47.3,37.3,83.8,79.4,115.8,127.3c-4.9,1.6-9.6,3.6-14.2,5.8c23.6,2.4,28.7,46.6-3.1,44.3c-0.7-4.7,26.3-38.6,1.8-38
			c-4.4,24.6-38.7,40.2-40.4,58c-2.5,26.3,30-6.4,24.9-7.5c12.9,15.1,2.7,106.6-8.3,119.8c-19.1,22.8-10.6-74.7-10.6-83.2
			c-26.4-1.3-90.3,9-115-1.5c-2.4-35.7,93-63.8,92.8-58.5c35.6-20.8,37.2-36.5,17.5-74.6c-4.4-8.6-37.8-42.5-47.9-44.9
			c-34.5-8.1-23.2,17.3-37.1,50.1c18.4,5.6,24.7-52.1,45.6-36.4c0,22.9-25.4,31.5-36.8,44c-4.2,4.6-57.4,66.5-61.6,66.9
			c-16.5-32.8,61.3-222.8-48.7-142.1c-43.4-47.7-71.9,12.4-73.6,12.2c8.1-10.7,94.8,120.9,84,148c-39.4-3.8-67.7-72-86.9-104.8
			c-30.2-51.7-52.6-66.2-26.2,1.8c-11.6-5.9-15.2-17.5-25.1-24.8c-45.3,45.2-38.7-8.2-17.5-38.7c-6.2,1.2-6.5,7.6-7.4-1.4
			c-13.8,12.6-17.9,43.8-32.3,60.3c-26.6,30.3-43,15-61.5,63.6c-16.1,42.4,15.5,95.7,3.9,124.9c-22.5,56.4-175.8,111.1-232.5,149
			c-117.4,78.5-239.7,151-351.5,238.3c-187.8,146.6-352.3,381.9-386,618.2c-36.9,259.7,222.5,381.7,447.2,408.3
			c394,46.6,756.7-15.9,1123.6-166.5c249.3-102.3,539.3-243.2,735.4-431.5c131.4-126.2,250.7-280.7,322.1-448.3
			C2823.6,1210,2858.2,1148.6,2856.3,1087.6z M1368.9,1044.5c33.6-14,57.7-38,68.4-72.1c3.8-11.9-5.7-90.5-6-90.2
			c22.2,5.7,37,55.2,54.7,67.1c13.5,9,48.8,9.2,58.9,17.5c-15.6,19.8-62,11.8-84.2,22.7c-27.4,13.4-67,85.1-102.4,67.4
			C1361.7,1052.8,1365.3,1048.6,1368.9,1044.5z M1290.5,952.2c-3.1,9-6.3,17.9-9.4,26.9c3.1-4.3,23.1-29.2,30.7-21.9
			c-5.2,51.3-44.1,56.8,22.3,90c-15.6,36.6-151.6-95.4-171.4-77.3c-24.7-4.8,6.1-31.2,10.1-33c8.2-3.7,31.4,13.7,53.9,9
			c47.7-10,82.8-69.6,132.1-69.6C1357.7,875.4,1294.9,937.4,1290.5,952.2z M1143.7,845.2c-6.3-20.4,2.3-68.2,10.5-83.7
			c4.9-9.2,66.2-77.7,75.8-38.4c-12,3-25.4,7.1-36,13.6c2.2,45.1,143.6,71.1,169.7,109c-4.3,20-133-30.5-148.3-33.6
			c-22.6-4.6-26.5-29.5-48.8-7.3c-25.6,25.5,19.1,76.6-0.3,95.6C1152,883.7,1149.6,864.4,1143.7,845.2z M485.1,1642.5
			C486,1643.5,484,1643.3,485.1,1642.5z M314.6,1832.1C316.9,1831.6,305.9,1834,314.6,1832.1z M308.6,1836.5
			C309.8,1837.5,307.7,1839,308.6,1836.5z M2836,1098c-11.8,23.6-62.1,18.4-63.8,22.1c63.6,55.9,46.8,51.7-6.9,51.7
			c-25.7,24,35.6,68.4,14,94.1c-23.8,28.3-95.8,16.4-125.9,22.5c4.1,2.7,41.7,64.4,40.2,71.2c-3.3,14.6,6.8,18.9-35.6,18.2
			c42.3,62.4-53.3,135.2-96.1,44c-15.3,6.8-20.1,17.5-39.3,18c-4.5,15.1,3.8,14.6,9.3,30.7c-24,26-82.1-39.2-86.5-56
			c-14.9-0.7-26.9,80.4-63.2,83.6c15.6,23.1-59,41.5-72.9,52.2c-22.9-51.2,29.1-64.2,44.9-120.3c-47.2,39.2-97.5,28.4-46.5-22.9
			c-11.8-25.9-99.8,194.8-99.7,65.2c-7.7,36.4-35.9,31.6-49.2,40c-10.5,6.6-30.3-0.5-37.3,3.3c-30.6,16.5-52.7,72.1-79.8,97.1
			c-77.2,71.2-34.8,6.9-8.2-34.4c16.9-26.2,26.8-46.7,39.7-65.9c2.1-3.1,87.4-173,28.3-170.5c-10.3,14.1-32,17.7-38.5,31.2
			c-10.6,21.7,7,41.3,5,66.1c-2.7,32.4,9.5,67.8-33.8,64.8c1.2,4.3,14.3,20.7,15.7,18.9c-18.4,24.1-68,46.8-89.6,61.5
			c-16.7,11.5-96.9,42.5-101.3,53.2c-17.3,1-59.8,5.1-69.4,13.9c-2.9,2.7-71.7,102.2-68.3,106.1c-2.2-3.1-4.6-6.1-7.1-9
			c31.8-66.9-5.5-102.1-25.3-45.8c-2.7,7.7,11.9,30.8,9.8,41c-2.7,13.2-21.2,23-27.7,34.3c-17.7,30.6-38.9,55.9-69,74.8
			c-44.2,27.7-97.4,33.5-146,63.4c-28.9,17.8-52.6,46.6-74.7,58c-9.8-15.6-2.6-17.5,5.1-27.7c-32.5,2.3-16.7,1.5-40.4,9.9
			c-38.5,13.6-72.6,54.5-110.4,72.7c-36.9,17.8-76.7,26.2-116,36.6c-74.8,19.9-134.4,39.4-212.2,32.8
			c-66.7-5.7-174.5-12.5-187.1-79.6c0-0.1-15.3,13.6-18.5,14.7c3.5,1.9,55.4-204.1,56.2-208.3c19.9-106.4,1.6-200,46.9-294.9
			c7.3-15.3,62.7-28.3,25.9-52.1c-10.2-6.6-52.8,24.1-63.9,36.6c-38.4,43.2-71.7,115.7-36.9,150.6c-6.1,9.3-34.5,23.2-42.5,18
			c14.9,20.9,41.5,66.2,32.4,88.6c-2.4,5.9-96.9,22.7-86.6,30.4c14.1,75.3,43.6,142.6-28.1,180.4c-33.7,17.8-91.2,13.7-116.7,37.3
			c-30.3,28-18.6,85.9-63.4,105.4c-27.3,11.9-150.2-1.1-172.4-34.7c-1.7,0.7-0.7,2,3.1,4.1c-7.8,4.2-35.8-16.6-33.4-29.6
			c3.3-17.8,54-31.4,63.3-56.1c14.1-37.8-18.3-47.1-41.9-84.9c-83.4-62.9,48.5-73.3,82.8-89.6c90.1-42.7,5.7-72.7,13.6-154.7
			c6.4-66,79.5-21.8,138.8-35.1c65-14.5,73.1-70.8,109.2-129.8c24.4-40,55.1-71.4,81.5-103.3c1.1-1.3,9.3,15.7,5.2,15.3
			c13.7-78.5,107.5-174,179.9-208.4c36.6-17.4,60.9-7.1,77.4-22.9c9.7,6.1,3.3,18.3,14.4,24.1c-3.8,3.4,3.7-44.5,7.4-50.1
			c12.7-19.3,30.6-38.7,56.9-48.1c78-27.8,165.8,20.1,243.3,20.2c6,15.3-1.5-59.7-2-48.7c10.4-12.2,81.8,67,90.8,68.6
			c45.7,8.1,89.3-73,136.3-104.6c32.6-21.9,76.2-37.2,105.1-51.5c28.2-14,35.9-29.3,69.1-40.5c-11.5-11.5-23.7,7.6-33.3-2.6
			c16-55.1,123.5-97.5,163.6-132.1c38.3-33.1,143.9-84.6,152.9-9.7c15.4,4,50.1,24.8,57.4,21.8c-6.2-13-69.7-53.4-69-58.3
			c10.5-68,114.3,8.4,124.6,5c-10-21.2-58-35.6-80.1-46.6c11.7-8.7,41.2,6.2,54.3,11c-14.7-20.9-25.9-22.2-55.2-23.8
			c-1.1-7.4,28.1-15.1,36.9-16.4c2.2-37.4,140.8-50.7,182-39.3c-4.5-7.4,84.7,34.7,108.2,72.2c22.8,36.4,54.6,112.5,58.7,151.1
			c23.9-13,58-27.1,83.3-52.1c33.2-32.9,44.9-106.7,79.5-130.8c12.9,36.2-31.6,66.9-31.2,101.5c3.1,0,22.8-5.7,21.8-6.7
			c-5.4,2.6-8,8.7-7,14.5c9.5-0.5,17.1-11,8.7-17.4c12.2-16.1,81.8-76.4,100.6-54.6c15.5-8.1,16.4-40.5,40.9-22.2
			c29.6,22.1-0.1,37.8,14,54.3c72.6-57.5,16.9,46.7,40.3,53.2c-7.6,1.4-14.4,4.8-20.3,10.2c4.6,4.3,10.4-2.9,13.8-3.1
			c25,32.6-19.6,51.7-17.5,58c1.4-0.6,42.7-6,40.7-8.1c37.1,38.8-4.7,9.4-16,42c48.4,1.7,90.4,55.3,34,87.9
			C2742.9,1075.5,2834,1043.7,2836,1098z"/>
		<path class="st0" d="M620,1918.8c1.8-83.7-142.3-55.2-185.9-74.6c14.4,37.7,57,99.9,91.6,117.3
			C555.1,1976.4,618.8,1975.9,620,1918.8z"/>
	</g>
	<path class="st0" d="M1236.5,643.9c-1.5,1.4-3,2.8-4.5,4.1C1232.4,644.3,1232.4,644.3,1236.5,643.9z"/>
	<path class="st0" d="M1240.1,639.9c-0.7,0.8-1.4,1.6-2.1,2.4C1237.9,641,1238.6,640.1,1240.1,639.9z"/>
	<path class="st0" d="M2507.3,1062.1c30.7,0,65.5,18.5,94.8,15.9c-3.6-6.5-17.1-31.4-22.2-34.2c-26.7,37.2-82.2,1.6-113-8.2
		c-21-6.7-52.8-13.4-69.7-21.9c-9.3-4.6-12-37.6-24.4-39.7c-8.7-1.5-20.5,8.2-27.8,3.1c-1.3-4.8,5.3-2.1,4.3-5
		c-6.7,9.8-29.8,40.2-42.3,33.1c-4.4-13.2-1.8-14.1-5.7-25.2c-11.2,19.8,4.5,44.8-4.3,61.9c-41.4-3.4-9.5-66.1-26.1-69.4
		c-25.9,36.8,3.2,39.2-52.3,53.2c-63.9,16.2-68.5-1.8-79.1-58.2c-33.1,85.2-73.6,209.6,5.7,261.4c34.4-45.3,12.8-103.3,88.7-102.2
		c18.7,0.3,49.6-10,31.6,50.5c-1.9-2.2-4.1-3.9-6.6-5.1c-3.4,21.9-14,128.4-70.2,114.9c-2.7-18.2,50.9-37,51.6-61.2
		c-18.2,2.2-81.2,56.1-76,81.3c8.8,43.6,60.4,7.3,86.2,22.1c-3.9,5.9-12.1,3.2-16.3,8.8c36.6-4.6,136.1-63.7,167.4-53.6
		c-16.1,41.7-92.5,28.8-105.1,91.5c48.6,4.4,117.8-67.3,136.9-85.8c23.1-22.5,28.4-9.6,50.9-44c29.6-45.2,14.1-97.9,33.3-138.1
		c18,15.8,11,58.3,24.4,71.5c23.6-5-18.1-56.9-15.6-61.6c8.1-15.2,50-22.2,64.1-30.8C2580.5,1079.4,2498.6,1070.5,2507.3,1062.1z"/>
	<path class="st0" d="M2093.9,1270.8c-3.9-5-43.7-78.4-43.5-79.7c29.2-14.3,34.2-15.3,33.6-55.2c-13.3,1.8-62.7,75.5-77.3,90.2
		c-34,34.2-69.1,71.5-109.1,97.1c-32.6,20.9-55.9,30.5-77.4,50.6c-16.9,3.4-18.1-6.9-48.2,9.9c-8,4.4-37.8,22.1-40.1,34.4
		c41.9-2.1,28.1-9.1,47.4,25.1c8.9,15.8,9.9,76.1,11.4,76.8c32.1-29.3,31.2-55.1,46.9-90.4c51.3,34.9-18.8,102.5-51.4,111.3
		c0,96.6-23.7,70.8,26.1,43.4c49.9-27.5,56.8-18.8,78.7-80.6c19.9-56,23.7-61.9,63-105.5c12.1-13.4,68.2-67.6,58.2-80.9
		C2020,1312.5,2092.7,1264,2093.9,1270.8z"/>
	<path class="st0" d="M673.9,1759.1c-17.4-184.1-154.6,12.3-209.2,42.5C466.4,1816.1,675.6,1777.3,673.9,1759.1z"/>
	<path class="st0" d="M2484,948c-7.5-3.8,80.6,3.6,91.9,4.1c-1.7,35.5-0.4,3.3,28.2,33.6c-3.9,8.2-9.2,8.2-13.7,13.5
		c-0.8,25.7,42.4,0.6-8.4,27.3c-6.5,3.4,4.8,13.7-12.8,14.5c-46.6,2.2-80-58.4-129.4-73.9C2443.5,965.3,2511.2,949.3,2484,948z"/>
	<path class="st0" d="M1759.9,1168.8c-0.8-11-68.2,18.3-69.5,52.8C1687.5,1305.4,1762.9,1210.7,1759.9,1168.8z"/>
	<path class="st0" d="M2444,940c-15.8,0.5-143.9,2.9-86-38.4c12.4-8.8,131.6,4.9,147.6,13.4C2495.4,921.5,2444,926.9,2444,940z"/>
	<path class="st0" d="M2008.2,1492.3c2.2-13.4-4.6-72.8-17.3-71.9c-7.6,12.8-46.5,116-39.6,124.9
		C1965.9,1535,2005.1,1510.6,2008.2,1492.3z"/>
	<path class="st0" d="M2094.5,955.1c-2.4-33.1-98.3-64.7-122.9-66.7C1986.7,900.6,2099.5,1023.4,2094.5,955.1z"/>
	<path class="st0" d="M2030.1,1000.6c-2.2-17.9-4.9-4.7-12.5-2.7c-6.4-9.2-3.1-44.3-21.7-36.5c0,21.6,2.9,47.3-17.2,41.4
		c-5.4,20.8-1.2,21.7,2.2,40.4C1996.4,1036.9,2032.6,1021.3,2030.1,1000.6z"/>
	<path class="st0" d="M2245,1342.5c-4.7,3.8-64.3,37.2-76.6,22c0.3-0.3-6.6,89-11,99.5C2164.8,1453.9,2216.6,1320.6,2245,1342.5z"/>
	<path class="st0" d="M467.7,1932.5C460.8,1924.4,464.6,1931.9,467.7,1932.5z"/>
	<path class="st0" d="M1603.8,1656.8c-7.4-8.7-44.2-1.9-58.2-14.2c10.8,23.5,42.4,36.2,57.9,32.7
		C1603.6,1669.2,1603.7,1663,1603.8,1656.8z"/>
	<path class="st0" d="M1568.9,1427.6c7.9-6.3,58.9-3.2,43.3,6.4c-27.4-14.1-65.4,29.2-98.9-9.1
		C1528.6,1421.9,1551.4,1429,1568.9,1427.6z"/>
	<path class="st0" d="M382.9,1792.4C381,1797,384.7,1795.6,382.9,1792.4z"/>
	<path class="st0" d="M382.2,1810.4C383.7,1811.6,380.6,1799.4,382.2,1810.4z"/>
	<path class="st0" d="M1970.5,1040.2c-1-0.1-2.4-32.4-3.2-35.8c-2.6,2.1-5.7,2.5-9.1,1.1c13.8,39.1-175.2,117-160.3,149.7
		c-4,4.4,2.2,11.5,6.3,14.4c-5.1-1.3-8.5,0.2-10.3,4.5c12.3,17.6,37.8-32.2,50.3-34.1c2.9-3.9,1.1-5.6-5.5-5.2
		c22.1-4.3,36.3-50.7,39.9-21.3C1892.5,1119,1968.9,1038.5,1970.5,1040.2z"/>
	<path class="st0" d="M2082.1,774.9c-21.5-15.3-27.8,5.1-33.9,5.6C2056.7,779.8,2110.7,798.6,2082.1,774.9z"/>
	<path class="st0" d="M504.7,1680C505.9,1678.8,507.4,1667.5,504.7,1680z"/>
	<path class="st0" d="M2114.3,835.2c16,16.9,41.8,31.7,34.4,56.1c-0.9-9.4-52.8-57.3-48.5-62
		C2104.6,824.6,2112.2,830.2,2114.3,835.2z"/>
	<path class="st0" d="M2382,944.1c5.3,2.2,61,10.2,61.8,13.8C2424.8,973,2379.5,944.3,2382,944.1z"/>
	<path class="st0" d="M2366.3,962.5c-5.2,5.8-12.2,7.5-21.2,5.2c-1.7-7.9-0.5-15.7,3.4-23.3C2357.8,941.6,2363.8,947.6,2366.3,962.5
		z"/>
	<path class="st0" d="M1641.9,1701c-24.6-14,41.5,15,7.2,15C1646.7,1711,1644.3,1706,1641.9,1701z"/>
	<path class="st0" d="M2083.9,1135.9c2.3-8.6,7.8-15.1,16.5-19.7c-2.7,8.1-0.9,14.8,5.3,20.1
		C2104.7,1137.6,2087.6,1135.3,2083.9,1135.9z"/>
	<path class="st0" d="M2172.5,880.6C2178.7,888.7,2173.6,882,2172.5,880.6z"/>
	<path class="st0" d="M1622.7,1678.2c7.5,2.6,10.5,6.8,8.9,12.6c-4.1-0.4-6.9,1-8.6,4.2C1619,1690.9,1618.9,1685.2,1622.7,1678.2z"
		/>
	<path class="st0" d="M443.7,2022.9c-7.5-54.7,1.8-91.9-17.5-146.6c-13.6,46-76.4,129.9-68.5,169.8
		C366.8,2092.2,453,2089.8,443.7,2022.9z"/>
	<path class="st0" d="M1459.3,1356.3C1461.4,1360.4,1463.8,1359.8,1459.3,1356.3z"/>
	<g>
		<path class="st0" d="M1019.5,1296.4C1019.9,1296.2,1019.6,1296.3,1019.5,1296.4z"/>
		<path class="st0" d="M962,1254.5c68.8,13.8,37.1,166.2,23.4,216.2c-9.9,36-47.6,92.8-34.7,95.6c42.3,9.1,181.3-90,218.5-114
			c18.2-11.7,101.3-80.4,100.5-89.3c-17-5.5-28.7-21.7-37.2-34.3c23-17.5,52-25.3,58.2,1.3c5.7-6.5,7-13.9,4.1-22.2
			c7.3,2.8,12,4,18.8,6c4.9-17.7-2.1-60.3,2.3-61.9c-15.9-8.1,49.7-45.5,54.2-46.8c-0.5-10.7-21.5-17-31.4-18.8c0,0,7.4,4.6,4.8,5.1
			c-5.2,0.4-15.7-8.6-19.5-4.1c11.3,8.7,4.3,8.5,14.8,11.3c5.5,15.1-16.5,19.5-18,31.1c-35.3-17.5-52,9.3-72,40.1
			c-7.1-7.8,0.5-6.1,2.3-10.9c-10.9-20.5-15.7,23.9-11.7,18.8c-49.5-35.2-103.2,148.3-199.3,40.4c-25.6-28.8-18.2-1-5.9-37
			c-19.7-22.6-31.7-29.5-48.6-47.4c-0.7-0.8-39.2-25-40-25.3c-2.3-1,0.8-51.2-20.6-27.7C904.7,1203.2,939.2,1249.9,962,1254.5z
			 M1257.9,1363.9c-0.5-0.3-1-0.5-1.5-0.8C1257.9,1361.8,1257.7,1363.1,1257.9,1363.9z"/>
		<path class="st0" d="M1609.1,1447.8c-9.5,17.7-79.1,23.4-95,13c0.8-3.1,3.1-4.6,6.9-4.4c-26.2-4.4-63.1-93.2-68.8-106.7
			c-8.3-19.6-15.8-58.4-25.2-73.8c-10.1-16.4-43.1-12.4-46.4-27.3c11.9-3.7,18.3,1.5,30.7-3.3c-4.5-5.1-7.8-8.9-14.5-9.8
			c76.7-39.6,124.6-108,209.2-148.4c-0.7-17.3-185.9,108.2-215.9,132.8c-47.7,39.1-12.9,17.7-12.2,68.9c-3.5,2.3-29.2,15.2-10,17.1
			c-4.2,16.3-7.4,12.6-4.4,33.8c0.8,5.5,33.6,1,30.3,14.6c-4.5,18.9-96.2,47.2-98.9,46.1c-5,3.5-6.3,7.8-3.8,12.9
			c17.9,5.4,202.9-56.5,175.1-2.6c-12.2,23.6-60.9,12.2-69,15.3c-49.3,18.8-51.5,56.2-89,81.7c-34.3-9.2,0.8-66.6,14.1-76.4
			c-6.8-4.9-41.7-14.1-42.2-16c6.2-4.6,7.5-16,1.9-21.7c-7.1,1.5-57.7,89.2-57.9,86.6c-21.3,27.4-256.3,210.4-291.6,182.7
			c14.4-63,290.7-173.9,278.3-221.3c-77,37.5-175.3,83.8-246.1,134.5c-48.7,34.8-11.6-13.9-37.4,50.2c-7.7,19.2-12,42.1-17.2,62.2
			c-5.4,20.8-5.2,34.9-12.7,57.4c-14.8,44.2-97.2,143-90.7,183.6c14.3-6.8,20.7-7.8,19.4-19.1c17.2-1.5,55.4-3.9,56.1-15
			c13.8-11.2,25.9,3.3,37-9c-4.1-7.9,21.2,6,16.6,6.5c6.5-4.9-4.7-6.1-0.4-10.9c20.5,7.6,108.5,3.7,105.3-27.8
			c14.4,0.5,100.3-27.2,97.5-28.4c-54.8,22.7-161.6,36.1-211.5,17.4c-18.4-6.9-46.7-24.4-26.8-61.9c12.2-23,22.2-18,48.7-29.4
			c23.5-10.1,203.6-36.7,196-41.3c15.6-8.5,29.8,21.7,44.7,14.4c19-9.3,20.6-32.8,37.1-43.1c35-21.9,115.5-43.3,124.3-47
			c23.4-10.1,19.2-20.4,28.1-28.5c34.6,9.3,136.9-3.7,153.3,6.5c-3.6-21.9,25.7-66.2,36.1-86.3
			C1578.4,1507.3,1611.2,1464.5,1609.1,1447.8z M1368.1,1305.9C1368.9,1303.9,1370.1,1305,1368.1,1305.9z M1223.4,1485.5
			C1222.2,1484.4,1224.4,1482.9,1223.4,1485.5z M1488.1,1511.5c-5.5,17-48.2,28.4-57.2,32.6c-18.4-67.5-49.6,3.7-49.5,3.8
			c-47.7-21.1-9.1-98.3,3.4-93.4C1391.9,1461.1,1491.5,1491,1488.1,1511.5z"/>
	</g>
	<path class="st0" d="M2144.6,912.9C2145.3,912.5,2142.4,921.1,2144.6,912.9z"/>
	<path class="st0" d="M1872,801.6C1861.4,801.6,1869.9,791.9,1872,801.6z"/>
	<path class="st0" d="M2240,1226C2239.5,1219.9,2246.6,1219.2,2240,1226z"/>
	<path class="st0" d="M2247.2,1218.1C2242,1216.5,2248.7,1204,2247.2,1218.1z"/>
	<path class="st0" d="M1907.1,802.5c-3.2,1.5-4.8,2.2-6.5,3C1900.7,802.1,1900.7,802.1,1907.1,802.5z"/>
	<path class="st0" d="M412.9,2074.3c1.8,1.7,1.4,3.4,0.1,5.1C411.6,2077.7,411.3,2076,412.9,2074.3z"/>
	<g>
		<path class="st0" d="M598,1589.9C597.9,1589.9,597.8,1590,598,1589.9z"/>
		<path class="st0" d="M677.2,1690.7c-24.2-8.5-69.7-67.8-93.2-88.2c2-9.9,6.6-14,13.9-12.5c-8.9-16.2-141.7,147.9-159.9,189.3
			c39.8-32.7,83.8-112.4,125.1-133.5c30.2-15.4,41-3.2,77.3,19.3C642.8,1666.6,687.3,1710.8,677.2,1690.7z"/>
	</g>
	<path class="st0" d="M1369.9,1267.9C1368,1271.8,1369.7,1268.4,1369.9,1267.9z"/>
	<path class="st0" d="M2144,916C2143.1,917.9,2142.5,917.5,2144,916z"/>
	<path class="st0" d="M2034,1504C2032.2,1503.1,2032.2,1502.1,2034,1504z"/>
	<path class="st0" d="M2130.8,886.3c-15.3-2-43.5-57.7-67.9-37.7c3.3,3.3,48.2,73.7,53.9,76.2c10.4,4.5,22.1-26.4,29.1-16.4
		C2148.5,895.4,2142.1,894.6,2130.8,886.3z"/>
	<path class="st0" d="M904.6,1574.4c-3.1-2.3-82.4-209.7-116.1-108.2c-7.3,22.1,63.8,90.2,46.3,21.2
		C863.6,1529.5,867.5,1547.4,904.6,1574.4z"/>
	<g>
		<path class="st0" d="M676.6,1674.3c-11.9-12.6-79-115-94.9-79.8C574.9,1609.6,707.6,1736.9,676.6,1674.3z"/>
		<path class="st0" d="M597.9,1590.1C598.1,1590.1,598.2,1590,597.9,1590.1z"/>
	</g>
	<path class="st0" d="M1961.9,1054C1963.9,1055,1963.4,1055.5,1961.9,1054z"/>
	<path class="st0" d="M2679.4,1123.1c15.1-25.4-44.2-33.3-57.2-32.7c1.7,6.5,4.2,12.6,7.6,18.4c-20.2,28.8-27.9,85.2-25.5,115.2
		c2,0,8.1-8.4,9.5-9.6c-21.6-2.7,4.7-20.5,5.9-18.3c4.7,61.6,55.3,11.2,26.3-15.2c-1.5,3.1,24-41.6,24.2-26.8
		C2683.2,1142.6,2667.4,1132,2679.4,1123.1z"/>
	<path class="st0" d="M2528.3,1297.5c8.6-11.8,8-19.8,23.5-27.4c-9.4-2.6-10.3,102.9-10.3,100.7c-29,13.9-101.5-16.9-66.7-54.7
		c6.8,12.6,19.3,49.5,31.9,10.2C2525.1,1342.5,2526.9,1315.8,2528.3,1297.5z"/>
	<path class="st0" d="M2408.1,884.3c11.7,0.2,108.7-21,105.8-1.4C2509.2,885.6,2409.1,907.4,2408.1,884.3z"/>
	<path class="st0" d="M2627.9,1444.5C2619.7,1455.2,2635.7,1434.4,2627.9,1444.5z"/>
	<path class="st0" d="M2630.6,1424.5C2631.7,1426,2633.8,1414.2,2630.6,1424.5z"/>
	<path class="st0" d="M2486.1,816c2.6,18.7,9,14.7-26,20C2460,792,2479.2,809.4,2486.1,816z"/>
	<path class="st0" d="M2177.8,1502.7C2168.8,1507.4,2186.7,1498.1,2177.8,1502.7z"/>
	<path class="st0" d="M2618,1086c-5.8,0.2-8.1-2.4-14.1-8C2618.5,1078.2,2618.4,1075.3,2618,1086z"/>
	<path class="st0" d="M2517,1438C2519.2,1440.5,2528,1430.8,2517,1438z"/>
	<path class="st0" d="M2293.9,1380.1C2294,1379.1,2299.2,1370.1,2293.9,1380.1z"/>
	<path class="st0" d="M2740.1,1024.1c-1.4,0.1-2-0.7-2-2C2739.2,1022.2,2740,1022.8,2740.1,1024.1z"/>
	<path class="st0" d="M2668,1155.9c0.1-1.2,0.7-1.9,2-1.9C2670,1155.2,2669.4,1155.9,2668,1155.9z"/>
	<path class="st0" d="M2360.1,1423.6C2360.4,1426.3,2356.2,1428,2360.1,1423.6z"/>
	<path class="st0" d="M2358,1426C2358,1426.1,2352.7,1431.3,2358,1426z"/>
	<path class="st0" d="M2311.5,1404.9C2310.5,1406.5,2309.9,1403.3,2311.5,1404.9z"/>
	<path class="st0" d="M2356.1,1428.1C2356.1,1428.6,2350.8,1432.9,2356.1,1428.1z"/>
	<path class="st0" d="M1585.1,743.5C1582.7,736,1577.4,731.9,1585.1,743.5z"/>
	<path class="st0" d="M1311.2,641C1317.7,635.7,1308.9,635.1,1311.2,641z"/>
	<path class="st0" d="M1466,934C1468.7,927.9,1464.8,928.6,1466,934z"/>
	<path class="st0" d="M2415.8,1311.8C2417.3,1309.5,2417.7,1310.8,2415.8,1311.8z"/>
	<path class="st0" d="M2416.2,1312.2C2410.5,1317.6,2416.2,1310.9,2416.2,1312.2z"/>
	<path class="st0" d="M2414.2,1314.2C2412.8,1316.4,2412.3,1315.4,2414.2,1314.2z"/>
	<path class="st0" d="M2658.1,1181.9C2659.9,1183.5,2658.5,1188.4,2658.1,1181.9z"/>
</g>
</svg>
