<?xml version="1.0" encoding="utf-8"?>
<!-- Generator: Adobe Illustrator 22.0.0, SVG Export Plug-In . SVG Version: 6.00 Build 0)  -->
<svg version="1.1" id="Слой_1" xmlns="http://www.w3.org/2000/svg" xmlns:xlink="http://www.w3.org/1999/xlink" x="0px" y="0px"
	 viewBox="0 0 3000 3000" style="enable-background:new 0 0 3000 3000;" xml:space="preserve">
<style type="text/css">
	.st0{fill:#68C6BF;}
</style>
<g>
	<path class="st0" d="M1166,1298.8c-12.1,14.2-49.3,15.5-66.4,20.3c-14.5,4.1-64.6,26.4-80.6,21.4c-32.5-10.3-10.9-80.2-2.4-107.6
		c6.3-20.2,47-96.6,27.6-110.7c-22.6-16.4-39,28.8-50.9,27.7c-13.8-1.3-33.6-38.5-29.5-46.1c4.6-8.4,126.4-39.4,137.1-36.1
		c29.8,9.3,4.3,55.9-4.9,80.2c-11.8,31-69.4,132.9-13.9,135.6c23.8,1.2,32-31.5,46.9-33.1C1140.7,1249.1,1166,1287.1,1166,1298.8z"
		/>
	<path class="st0" d="M1318.7,788.3c46.7,27.6-138,156.6-78.1,189.7c22,12.2,47-22.2,57-17.8c7.4,3.2,23.3,40.8,21.6,46.4
		c-4.4,14.4-115.4,17.5-135.7,9.3c-76.4-31,94-156.1,69.4-190.4c-19.5-27.3-73.9,41.8-70.9-21.6c1.3-26.7,14.3-15.6,44.7-15.6
		C1257.3,788.3,1288,788.3,1318.7,788.3z"/>
	<path class="st0" d="M1526.7,837.6c-43.3-45.7,138.1-125.6,119-158.8c-11.2-19.4-83.8,19.5-57.7-37.4c8.4-18.4,25.4-6.1,47.2-0.1
		c19.9,5.4,53.1,8,70.2,18.5c21.2,13.1,19.7,13,2.8,34.7c-13.5,17.4-36.5,31.7-53.6,45.4c-23.6,18.9-106.5,79.5-31.3,85.3
		c28.4,2.2,26.5-15.5,38.5,11.6c6.8,15.5,3.4,30.5-8.4,34.6c-13.1,4.6-59-16-72-19.5C1563.5,847.2,1545,840.5,1526.7,837.6z"/>
	<path class="st0" d="M2759.9,2015.7c-13-20.9-59.9-7.6-71.8-27.2c-7.8-12.8,3-59.3,2-73.9c-3.6-51.1-6.7-106.9-51.8-138.4
		c-66.1-46.1-174.7-44-251.1-48.2c-220.8-12.2-442-18.4-662.6-23.8c-57.8-1.4-115.3-2.7-173.1-4.2c-31.1-0.8-71.7,5-101.5-2
		c-26.7-6.3-42.7-20.7-71.9-24c-40.2-4.5-90.3,14.4-121.9-5c-23.3-14.3-40-37.5-63.6-52.6c-28.9-18.4-58.4-33.2-92-41.1
		c-33.8-8-69.2-5.3-102.3-12.2c-22.2-4.6-40.5-12.9-63.4-15c-10.1-0.9-72,4.5-79.5-2c-13.8-12-3.3-80.7-3.3-98.8
		c0-39.7,7-57.3-30-74.1c-54.4-24.6-109.5-46.7-164-70.7c-55.2-24.3-111.5-45.2-166.3-70.6c-39.6-18.4-145.2-91.3-192.5-64.4
		c-22.8,12.9-9.3,105.7-8.6,131.5c2.3,76.7,1.6,153.5,3.5,230.3c6.7,261.1,7.7,522.4,14.1,783.4c1.4,58.3-10.7,78.2,48.7,75.4
		c60.1-2.8,91.2-58.8,146.8-73.8c34.9-9.5,88.1-0.8,124.5,0c28.9,0.6,57.8,1.9,86.8,1.9c70.4,0.1,140.7,2.2,211,3.8
		c292.3,6.8,588.6,18.4,880.7,9.7c156.8-4.7,316.1,0.8,473.2,4.8c50.6,1.3,101.4,1.7,152.1,1.7c30.4,0,90.5-11.7,117.9,0.6
		c51.8,23.1-15.2,22.5-5.5,46.9c5.2,13,66.8,17.3,67.6,2.2c0.7-14-23.9-15.5-21.8-30.7c-1.1,8.4,27.1-17.7,24.7-17
		c26.1-7.1,108,15.2,128.6-2.3c11.5-9.8,6-71.2,6.7-86.8c1-22.6,1.8-45.2,2.5-67.9C2754.4,2126,2759.9,2070.8,2759.9,2015.7z
		 M382.1,1625.1c-0.2,125.2,2.3,250.9-2.2,376c-11.1-21.2-6.8-60.9-7.6-85.7c-1.1-35.1-1.3-70.9-2.2-106
		c-1.9-71.3-3.8-146.3-4.6-218.3c-0.9-69.6-0.7-139.3-2.9-208.7c-0.9-29.4-2.2-58.2-2.4-87.6c-0.3-30.3-7.1-85.7,6.9-112.6
		c16.8,13,4.6,90.1,5.2,111.8c1.5,51.2,4.8,102.7,4.7,153.4C376.8,1507.2,382.2,1565.4,382.1,1625.1z M392.2,2246.6
		c0.7,16.6-4.4,44.2,1.5,59.6c-8.4-1.3-20.9-287.8-4.9-320.8C411.2,2064.3,388.5,2165.1,392.2,2246.6z M545.3,1699.9
		c28.4-45.4,44.3-77.2,94.6-101.8c28.6-14,58.4-25.6,89.2-34.1c68.7-18.9,129-12.6,198,5.2c23.6,6.1,49,13,69.8,26.4
		c20.5,13.2,31.2,36.5,45,47.5c-6.4,4.2-13.9-1-19.8,4.7c-5.7,5.4,4,10.4-3.2,15.7c-12.3,9.2-52,21.4-67.2,25.5
		c-42.7,11.5-89.6,7.3-133,6.4c-43.5-0.9-81-2.1-121.8,2.3c-31.9,3.4-66.2,12-98,11.9C592.1,1709.5,543.7,1702.4,545.3,1699.9z
		 M2612,2016.6c-289.6-0.6-578.5-19.4-868.1-12.8c-56.9,1.3-107.7,3.9-164.9,0.5c-81.1-4.8-163,0.4-244.1,1.5
		c-139.3,1.8-289.3,1.1-426.9-17.3c0.1,0,0.2,0,0.3,0c-70.2-9.2-142.9-1-213.7-2.8c-57.5-1.5-174.8,21.3-219.2-25.4
		c-19.1-20.1-9.8-60.5-11.7-91.4c-2.6-41.7-20.3-98.2,22.7-123.7c34.8-20.7,104.7-4.4,144.2-3.2c81.1,2.5,162.1,9.6,243.2,10.7
		c38.5,0.5,141.2-21.8,165.8,11.9c22.5,30.9-3.2,76.8-3.5,109.2c-0.3,32.4,26.9,67.7,5.5,99.2c53.8,9,113.3,0.7,162.3,6.1
		c77.2,8.5,155.4,3,232.8,1.9c70.6-1,143.2,7.6,212.6,5.2c51.9-1.8,99.7-6.5,152.4-6.5c119.7-0.1,238.7,11.2,359.1,11.6
		c78.4,0.3,157.2,4.4,235.1,4.5c45.7,0.1,91.5,1.7,137.1,3.8c16.4,0.8,32.9,2.1,49.3,2.8c9.9,0.5,19.7,0.8,29.6,0.8
		C2620.5,2007.8,2620.5,2012.2,2612,2016.6z M2639.9,1998.6c-2.5,4.3-113.9-13.7-129.1-13.1c-49,1.7-98.3-6.2-146.9-10.9
		c-121.6-11.8-250.7-12.1-375-17.6c-164-7.3-327.4,1.9-492.3,2.3c-67.1,0.2-148.9,4.7-154.1-79.1c-1.9-30.9-3.8-62.1-5.6-92.3
		c-2-33.8,16.8-50.9,44.6-58.3c38.5-10.3,87.8-0.3,127.1,0.1c52.7,0.6,105.3,2.1,157.9,3.8c103.7,3.2,207.1,5.8,310.8,2.5
		c120.4-3.8,247.2,16.2,360.3,18c39.4,0.6,79.2,3.7,118.6,6.1c13.9,0.9,42.6-6.4,52.3,8.6c-4.8-7.4-126.3,4.9-144.5,5.2
		c-39.1,0.7-85.6,3.5-126,2.3c-10.6-0.3-49.8-12.7-55.4-5.6c-18.2,23.2,41,52.1,56.4,57.6c35.1,12.6,142.4,30.4,177.5,3.3
		c21.1-16.3-0.9-21.6,19.3-9.4c-6.7-4.1,10,24.5,2.8,14.8c5.6,7.5,23.1,17.9,30.8,25.1c4.4,4.2,7.1,10,11.7,14.2
		c28.3,25.7,66.1,18.3,88.5,44.5c8.9,10.4,10.2,33.4,20.2,43.9C2599.8,1975.1,2648.5,1983.8,2639.9,1998.6z"/>
	<path class="st0" d="M960.1,1883.1c6.5-1.9,25.9-4.7,28.9-11.8c-26-2-65.6-16.7-85.2-31.2c-26-19.2-53.8-62.6-93.7-51.2
		c10,19.3,79.6,57.4,40.5,79.7c-8.2,4.7-50.2-1.4-58.8-1.5c-25.9-0.2-49.3,2.3-72.2-11.6c3.5,8.3-41-13.3-52.5-14.6
		c-31.1-3.4-65.2,0.2-96.8,1.1c-29,0.8-71.1-5.3-58.5,38.2c6.1,20.9,24.8,21.3,34,18c20.6,25.3,96.8,9.6,125.8,13.9
		c11.8,1.8,29.7,3.8,33.4,3.8c13.6,0,31.9-6,45-3c21.1,4.9,29.8,35.3,53.2,34.9c-21.4-32.3,2-39.2,31.2-28.1
		c18.7,7.1,24,27.2,39.9,27.9c-3.4-4.5-12.2-19.8-10.3-24.8c2.6-6.9,12.3-2.6,13.8-8.7c2.2-9-4.9-17.4-3.1-24
		c32,0,53.8,64.8,91,66.9c-9.1-10-19.1-25.7-10.1-35c5.4-5.6,23.2,1,25.8-2.7c15-20.7-33.5-10.3-29-32.6
		C955,1885.6,957.6,1884.4,960.1,1883.1z"/>
</g>
</svg>
