<?xml version="1.0" encoding="utf-8"?>
<!-- Generator: Adobe Illustrator 22.0.0, SVG Export Plug-In . SVG Version: 6.00 Build 0)  -->
<svg version="1.1" xmlns="http://www.w3.org/2000/svg" xmlns:xlink="http://www.w3.org/1999/xlink" x="0px" y="0px"
	 viewBox="0 0 3000 3000" style="enable-background:new 0 0 3000 3000;" xml:space="preserve">
<style type="text/css">
	.st0{fill:#68C6BF;}
</style>
<g id="Слой_2">
</g>
<g id="Слой_4">
	<g>
		<path class="st0" d="M2788.1,893.2c-50.3-317.3-290.6-618.4-623.7-656.2c669.6,241.1,696.2,1317.7,42.6,1594.6
			C2630.1,1757.3,2850.7,1288.4,2788.1,893.2z"/>
		<path class="st0" d="M1825,2336.7c-14.6,8.7-29.8,17.2-45.6,25c-1.2,1.3-2.6,2.3-4.2,3.1c-11.1,5.3-22.4,9.5-33.8,13.3
			c-13.9,5.1-28,9.3-42.4,12.2c-15.3,4-30.5,8-45.6,12.9c-41.5,13.5-82.9,28.7-126.9,30.8c-22.6,4.8-45.3,8.9-68,12.6
			c-57.3,9.5-114.9,19.3-172.9,23.3c-60.9,4.2-122.1,2.9-183,0.7c-60.3-2.2-120.6-4.2-180.9-5.8c-59.9-1.5-119.8-3.8-179.2-11.3
			c-29.9-3.8-59.8-8.4-89.1-15.4c-18.5-4.4-37.1-8.4-55.8-12c-80.4-15.6-162.3-26.9-240.1-53.7c-58.6-20.3-114.4-50.3-156-95.5
			v270.8c0,121,379.2,219.2,846.9,219.2s846.9-98.1,846.9-219.2v-267.4c-3,3.8-6.2,7.5-9.6,11
			C1868.1,2309.8,1846.7,2323.6,1825,2336.7z"/>
		<path class="st0" d="M2640.5,893.2c-59.8-377.7-356.2-660-691-660c-290.1,0-557.1,212.3-658.3,523.9
			c-102.4,315.2-18.3,679.6,205.9,896.2c224.4,216.8,553.5,249.5,806.9,79.4C2556.4,1563.3,2692.8,1223,2640.5,893.2z M2080.4,831.9
			c44.9-38.6,87.6-80.5,128.8-124.2c-14.3-14-127.6-117.8-86.2-141.1c37.6-21.1,79.4,111.4,114.4,110.5
			c30.3-0.8,96-160.7,129.9-119.2c25.7,31.5-81.9,127.9-99.7,147.5c26.8,24.3,124.5,82.8,129.3,124.2c7,60.7-100.4-43.2-110.7-52.2
			c-7.8-6.8-15.7-13.7-23.5-20.5c-16.2-28.7-31.5-27.8-45.7,2.6c-24.2,12.6-48.7,48.8-69.1,67.8c-13.2,12.2-39.1,46.3-55.1,44
			C2075.4,868.9,2060,849.5,2080.4,831.9z M1420.6,889.9c47.1-36.6,90.7-78.5,134.5-120.1c-12.6-11.2-146.1-103.1-92.3-119.9
			c21.9-6.8,60.7,37.8,76.8,51.2c42.9,35.8,39.7,44.5,82.9,6.5c13.5-11.9,146.6-129.4,144.9-72.6c-1.1,38-121.7,107.7-150.7,134.4
			c27.8,25.5,135.5,98.5,143.6,137.3c14.7,71-96.8-37.3-103.8-43.7c-27.8-25.7-52.3-63.6-82.2-53.8c-23.5,7.7-52.2,49.2-72,66.8
			c-13.1,11.7-53,59-69.5,53.5C1419,924.7,1397,908.2,1420.6,889.9z M2049.8,1355.6c-53.9,143.9-45.2,396.2-240.2,375
			c-181.4-19.8-192.4-355-83.5-474.2c-83.3-14.5-165.4-41.1-240.6-84.9c-17.4-10.1-181.8-134.2-116.3-138.1
			c18.9-1.1,44.2,35.6,59.9,48.3c37.1,30,77.4,54.6,119.4,74.4c79.6,37.5,165.4,57.2,250.9,65.9c179.9,18.3,350.1-7.2,510.5-106.5
			c75.9-47,139-98.1,202.1-164c7.6-7.9,9.4-24.7,19.8-28.2c40.4-13.9,27.1,31.2,9.9,56.3c-103.9,151-278,187.1-414,276
			C2088.6,1281,2067.9,1307.3,2049.8,1355.6z"/>
		<path class="st0" d="M1887.3,1271.6c-59.5,49.1-60.9,103.5-76.5,178.7c-3.7,17.8,9.7,53-18.6,54c-24.5,0.9-19.6-43.5-19.9-57.1
			c-1.3-64,22.4-131.5,60-178.1c-44.8-3.1-67.7-6.1-94.4,37.5c-25.6,41.9-36.5,89.1-39.7,139.6c-4.9,76.5,6.4,192,71.9,227.5
			c212.3,115.3,211.6-316.6,283.3-410.3C1998.6,1271.9,1942.6,1272.9,1887.3,1271.6z"/>
		<path class="st0" d="M1049.4,1834.3c-350.1,0-672.3,75.7-794.5,186.8c-123.6,112.4-22.1,242.3,248.4,319.5
			c270.8,77.3,667.9,89,973.8,28.3c304.5-60.4,469.2-181.7,406.1-299.3C1811,1934.9,1453.4,1834.3,1049.4,1834.3z M1207.3,2047.7
			c54.1-13.8,105.7-28.7,155.4-44.3c-17.3-5-154-42-104-50.3c45.4-7.5,95.8,39.7,138.1,39.4c36.6-0.3,115.8-57.3,156.7-42.5
			c31.1,11.2-98.8,45.6-120.3,52.6c32.4,8.7,150.2,29.5,156,44.3c8.5,21.7-121.1-15.4-133.6-18.6c-9.5-2.4-18.9-4.9-28.4-7.3
			c-19.6-10.2-38-9.9-55.2,0.9c-29.2,4.5-58.7,17.4-83.4,24.2c-15.9,4.4-47.1,16.5-66.5,15.7
			C1201.2,2060.9,1182.7,2054,1207.3,2047.7z M411,2068.4c56.9-13,109.5-28,162.3-42.8c-15.2-4-176.3-36.8-111.4-42.8
			c26.4-2.4,73.3,13.5,92.6,18.3c51.8,12.8,48,15.9,100.1,2.3c16.3-4.3,176.9-46.1,174.8-25.9c-1.4,13.5-146.8,38.4-181.8,47.9
			c33.6,9.1,163.6,35.1,173.2,48.9c17.7,25.3-116.8-13.3-125.2-15.6c-33.6-9.2-63.1-22.7-99.1-19.2c-28.4,2.7-63,17.5-86.9,23.8
			c-15.8,4.2-64,21-83.9,19.1C409.1,2080.8,382.6,2074.9,411,2068.4z M1763.9,2100.4c-125.4,53.8-335.4,66.7-499.7,98.4
			c-47,9.1-72,18.5-93.9,35.7c-65,51.3-54.6,141.3-289.9,133.7c-219-7-232.2-126.6-100.8-169.1c-100.5-5.2-199.6-14.7-290.4-30.3
			c-21-3.6-219.4-47.8-140.4-49.2c22.8-0.4,53.3,12.7,72.3,17.2c44.8,10.7,93.4,19.5,144,26.5c96.1,13.4,199.6,20.4,302.8,23.5
			c217.1,6.5,422.5-2.6,616.1-38c91.6-16.7,167.7-35,243.9-58.5c9.1-2.8,11.3-8.8,23.9-10.1
			C1800.7,2075.3,1784.7,2091.4,1763.9,2100.4z"/>
		<path class="st0" d="M974.3,2204.5c-71.8,17.5-73.5,36.9-92.3,63.7c-4.5,6.3,11.7,18.9-22.5,19.3c-29.5,0.3-23.7-15.5-24-20.4
			c-1.5-22.8,27.1-46.9,72.4-63.5c-54-1.1-81.7-2.2-113.9,13.4c-30.9,14.9-44,31.8-47.9,49.8c-5.9,27.3,7.8,68.5,86.8,81.1
			c256.1,41.1,255.4-112.9,341.8-146.3C1108.6,2204.6,1041,2205,974.3,2204.5z"/>
	</g>
</g>
</svg>
