<?xml version="1.0" encoding="utf-8"?>
<!-- Generator: Adobe Illustrator 22.0.0, SVG Export Plug-In . SVG Version: 6.00 Build 0)  -->
<svg version="1.1" xmlns="http://www.w3.org/2000/svg" xmlns:xlink="http://www.w3.org/1999/xlink" x="0px" y="0px"
	 viewBox="0 0 300 300" style="enable-background:new 0 0 300 300;" xml:space="preserve">
<style type="text/css">
	.st0{display:none;}
	.st1{fill:#68C6BF;}
</style>
<g id="Слой_2" class="st0">
	
		<image style="display:inline;overflow:visible;" width="1200" height="810" xlink:href="C:\Users\AHAHAC\Desktop\1563558276_splash_1.jpg"  transform="matrix(-0.24 0 0 0.24 232 63.3333)">
	</image>
</g>
<g id="Слой_3">
</g>
<g id="Слой_4" class="st0">
	
		<image style="display:inline;overflow:visible;opacity:0.5;" width="1600" height="1165" xlink:href="C:\Users\AHAHAC\Desktop\depositphotos_281883904-stock-photo-concept-beggar-problem-earth-hand.jpg"  transform="matrix(0.221 -3.405529e-02 3.405529e-02 0.221 -34.2346 -2.3828)">
	</image>
</g>
<g id="Слой_5">
	<g>
		<path class="st1" d="M119.4,154.2c-0.4,4.9,0.4,5.1,1,7.2c0.6,2.2,3.2,6.3,3.2,9.7c0,2.1,0.3,3.7,0.6,5.8c3.5-1.2,7-2.6,10-4.9
			c-1.4-3.7-3.2-9.6-3.2-10.2c0-0.9-7.3-11.2-7.3-11.2S119.8,149.4,119.4,154.2z"/>
		<path class="st1" d="M143.1,137.9c0,0-6.5-1.5-6.5,6c0,5.8,5.2,12.2,5.2,12.2s0.6,5.7,1,10c3.6-2,7.3-4.3,11.1-5.7
			c0-0.1-0.1-0.2-0.1-0.3l-4.5-12L143.1,137.9z"/>
		<path class="st1" d="M163.9,181.2c1.1-0.5,2.2-1,3.4-1.6c2.8-1.2,6.2-1.7,7.9-4.4l0.3-5.2c0,0,1-19.5,0-20.8s-2.8-8.1-2.9-8.7
			c-0.1-0.6-1.6-5.2-1.6-5.2s-6.9-0.5-8.1,5.4c-1.2,5.9,1.2,15.2,1.2,15.2l-1.1,4.2c6.9,3,9,10.7,4.8,17.1
			C166.6,178.9,165.3,180.1,163.9,181.2z"/>
		<path class="st1" d="M201.4,159.8c-3.8,1.8-8.1,5.1-8.1,5.1l-4.6,4.4c-0.3,0.3-1.9,1.8-2.3,2l-10,7.6c-3.3,2.9-8.7,4.3-12.3,6
			c-6.9,3.4-14.5,4.5-20.1,10.4c-0.4,0.4-0.9,0.6-1.3,0.5c-0.2,0-0.4,0-0.5,0c-1.2-0.3-2.3-0.4-3.5-0.5c-0.5,0.3-1.1,0.2-1.6-0.1
			c-1.4-0.1-1.9-1.8-1.1-2.8c1.2-1.6,2.9-1.9,4.6-2.4c4.8-2.7,10.3-4.4,14.9-7.6c3.3-2.3,7.6-3.8,9.8-7.3c2.7-4.5,1.5-9.9-3.6-11.9
			c-0.2-0.1-0.4-0.2-0.5-0.3c-0.7,0-1.6-0.1-2.5-0.1l-3.2,0.7c-0.1,0-0.2-0.1-0.2-0.2c-4.2,1.5-8.2,4.2-12.1,6.3c0,0,0,0,0,0.1
			c-2.8,2.5-5.8,4.3-7,5c-3.7,2.8-8.3,4.5-12.7,5.9c-6.7,2.8-22,4.6-34.4,16.6c-3,2.9-9.1,17.7-12.7,20.9c-3.5,3.2-14,7.5-23.3,9.9
			c-9.3,2.4-31,9-31,9l15.7,34.6c0,0,24.8-15.3,29.1-17.3c4.3-2,15.7-4.7,18.5-7.5c2.8-2.8,9-9,12.6-9.8c3.5-0.8,28.3-9.4,31.5-13
			c3.1-3.5,9.4-6.3,14.2-7.1c4.7-0.8,9.4-7.5,12.2-9.4c2.8-2,14.2-11,20.8-12.6s8.6-4.3,9.4-6.3c0.8-2,7.1-7.9,7.1-7.9
			s8.1-7.2,8.7-8c0.6-0.7,7.5-9.6,7.5-9.6S205.2,158.1,201.4,159.8z"/>
		<path class="st1" d="M125.2,80.3c2.9-0.1,5.8-0.4,8.6-1.3c0,0,0,0,0,0c3.2-1.2,6.1-3,8.6-5.4c1.7-1.6,3.1-3.5,4.5-5.3
			c-0.9-0.1-1.8-0.2-2.6-0.1c-2.2,0.2-3.8,1.1-5.7,2c-2.3,1.1-4,0.6-6.6,0.7c-4.3,0.2-8.6,1.7-12.3,3.8c-1.6,0.9-2.6,1.8-3.7,3.2
			c-0.7,0.9-1.3,1.7-1.9,2.4c2-0.2,4.1-0.2,6.1-0.2C121.9,80.3,123.5,80.3,125.2,80.3z"/>
		<path class="st1" d="M183.2,77.3c-0.4-0.1-0.8-0.2-1.3-0.3c-1.4-1.2-3.1-2.2-4.1-3.1c-2.1-1.9-3.8-4.1-6.3-5.6
			c-4.4-2.6-10.2-2.5-15.2-2.5c-0.1,0-0.2,0-0.2,0c-0.4,0-0.7,0.1-1.1,0.1c-1.7,0.3-2.8,1.1-4.2,1.8c-2.9,2.9-5,6.5-8.3,9.1
			c-2.6,2.1-5.4,3.6-8.4,4.7c4.3,1.2,8.5,2.9,12.9,3.5c3.1,0.4,6.3,0.3,9.4,0c0.8,0,1.7,0,2.5,0.1c0.2,0,0.9,0.1,1.5,0.2
			c0,0,0,0,0,0c0,0,0,0.1,0,0.1c0,0,0.1,0.2,0.1,0.4c0,0.2,0,0.5,0,0.7c-0.3,0.3-0.6,0.6-0.7,0.6c0,0,0,0-0.1,0.1
			c-2.7,0.5-5.4,0.7-8.2,0.7c-6.7,0-12.3-2.5-18.6-4.1c-6.3-1.6-12.9-1-19.4-0.8c-0.9,0.1-1.9,0.3-2.8,0.5c-0.4,0.3-0.8,0.6-1.3,0.8
			c-3.5,2.1-6,4.4-6.4,8.5c-0.1,0.6,0.2,1,0.6,1.2c0.2,0.3,0.4,0.6,0.9,0.7c7.5,2.4,15.3,3.5,23.1,3.8c7.7,0.4,15.8,0.8,23.4-0.1
			c7.2-0.8,13.9-3.6,20.2-6.9c5-2.6,9.6-5,12.8-9.4c0.5-0.4,0.9-1,1.1-1.6c0-0.1,0.1-0.1,0.1-0.2c0,0,0,0,0,0
			C185.7,79.2,185.1,77.6,183.2,77.3z"/>
		<path class="st1" d="M100.6,98l7.9,20.1c0,0,16.9,12.8,41.5,8.6c9-1.5,16-4.5,21.1-7.8c-0.1,0.1-0.1,0.2-0.2,0.3
			c4.6-3.6,10.5-6.6,12.9-12c0,0-0.1,0-0.1,0c0-0.1,0.2-0.6,0.4-1.3l0.2-0.1c0.9-5.2,2.1-10.4,3.9-15.4c0.4-1.3,0.7-2.6,1-3.6
			c2.5-2.4,4-5.3,5-7.9c-0.7-0.5-1.3-1.1-1.9-1.8c-0.6-0.7-1.1-1.4-1.6-2c-0.1,0.9-0.2,1.8-0.5,2.8c-2,6.5-10.9,11.2-16.5,14.2
			c-7.9,4.3-16,7.1-25,8c-8.9,1-18.1,0.8-27-0.1c-8.2-0.9-16.7-2.4-23.5-7.5c-4.1-3-6.2-7.5-3.4-12.3c0.3-0.5,1.6-2.5,4.5-4.4
			c7.4-3.9,21.8-8.6,24.5-9.5c7.7-1.8,15.5-3.3,23.4-4.2c7.7-0.9,16.2-0.8,24-0.2c2.6-0.4,4.8-2.1,7.3-2.9c-4.4-0.9-10-1.4-17-1.4
			c-33,0.3-59.7,11.7-67.2,17c-7.5,5.3-4.2,13.2-4.2,13.2C93.3,93.9,100.6,98,100.6,98z"/>
		<path class="st1" d="M272,76.3c-10.7,4.8-20.6,5.7-30.3,4.2c-9.3-1.4-24.5-8.2-24.5-8.2s-16.7-10.7-17.7-10.8
			c-1-0.2-5.5-4.5-8.8-2.7c-1.5,0.8-4,1.2-6.7,1.7c-0.1,0-0.2-0.1-0.3-0.1c-1.1,0.3-2.3,0.5-3.7,0.9c-1.9,0.5-3.6,1.5-5.4,2.2
			c0,1.7,1.1,3.2,2.5,4.4c1.2,0.8,2.5,1.6,3.8,2.4c1.4,0.7,2.6,1.2,2.9,1.4c1.8,0.3,3.6,0.5,5.5-0.1c0.2-0.1,0.4-0.1,0.6,0
			c0.2,0,0.5,0,0.8,0.2c1.3,0.9,2.2,2.1,3.2,3.3c0.4,0.5,0.9,1,1.4,1.4c0.6,0.3,2.3,1,3.5,1.7c1.5,0.8,4.3,5.6,4.3,6.6s-3.3,3-5.3,4
			c-2,1-7,2.3-7,2.3c-1.6,4.6-2.8,9.3-3.7,14.1l0.5-0.1l3.2-0.7v1.5c0,0-1.7,1.3-4,1.5c0,0.2-0.1,0.3-0.1,0.5
			c-0.1,0.4-0.3,0.7-0.6,0.8c-2.6,5.4-8,8.4-12.7,12c1.1,0.2,2.6,0.2,4.3,0c3.7-0.5,10.7-2.2,14.2-2.7c1,2.5,6.5,4,6.5,4
			s7,0.8,7.3,2.3s5.5,6.2,7.2,7.5c1.7,1.3,10,0.8,11.5,0c1.5-0.8,2.3-2,2.8-2.2c0.5-0.2,8.2-1.5,11-2.1c2.8-0.6,9.5-4.2,14.7-6.7
			c5.2-2.5,16.7-2.7,18.7-2.7s18.3-2.5,18.3-2.5l0.9-45.7C290.5,70,277.7,73.8,272,76.3z"/>
	</g>
</g>
<g id="Слой_6">
</g>
</svg>
