<?xml version="1.0" encoding="utf-8"?>
<!-- Generator: Adobe Illustrator 22.0.0, SVG Export Plug-In . SVG Version: 6.00 Build 0)  -->
<svg version="1.1" xmlns="http://www.w3.org/2000/svg" xmlns:xlink="http://www.w3.org/1999/xlink" x="0px" y="0px"
	 viewBox="0 0 3000 3000" style="enable-background:new 0 0 3000 3000;" xml:space="preserve">
<style type="text/css">
	.st0{display:none;}
	.st1{fill:#68C6BF;}
</style>
<g id="Слой_4" class="st0">
	
		<image style="display:inline;overflow:visible;" width="1000" height="1000" xlink:href="C:\Users\AHAHAC\Desktop\imgonline-com-ua-Resize-QkXF8mI1fmYqe.jpg"  transform="matrix(-2.436 0 0 2.436 2769.074 380.9936)">
	</image>
</g>
<g id="Слой_2">
</g>
<g id="Слой_3">
	<g>
		<path class="st1" d="M244.7,1419.1c26.5,78,169.5,26.8,140.8-58.8C352.3,1261.1,212,1322.6,244.7,1419.1z M358.1,1385.8
			c-7.7,84.1-137.1,68.6-107.3-13.7C274.3,1307.2,365.6,1304.3,358.1,1385.8z"/>
		<path class="st1" d="M202.8,1557.7c98.6-46,204.8-86.9,309.2-117.8c53.4-15.8,112.7-30.1,168.8-20.4c37.8,6.5,63.7,33.9,99,42.7
			c16.4,4.1,59.7,2.9,47.2-28.6c-7-17.6-44.3-10.4-63.6-18.4c-56.8-23.7-117-103.7-48.2-150.8c-115.6-22.5-237.4-0.6-348.5,33.4
			c61.9,37.3,57.9,130.2-3.9,164.6c-71.5,39.9-158.5-11.1-141.7-95.2c-56.3,44.2-91.8,62-90.2,140.6
			C132.4,1572.5,148.3,1583.1,202.8,1557.7z"/>
		<path class="st1" d="M840.5,1340c-13.5-75.3-136.4-108.6-124.6-9.3C725,1407.4,858.1,1438.7,840.5,1340z M804.7,1391.9
			c-43.7,8.7-101.3-75.4-53.1-101.4C805.2,1261.5,853.5,1382.1,804.7,1391.9z"/>
		<path class="st1" d="M1969.8,1404.3c-24.9-19.2-90.9,3.1-77.9,19.2c-7,1.8-53.2,17.2-48.3,30.7c-15.7-42.7,27.9-59.6-30-81.2
			c2.8,1-16.3,2-18.3,1.7c-12.2-1.9-19.1-9.9-33.7-11.4c-13.3-1.4-21.4,9.2-36.8,4c-8.5-2.9-14.6-18.8-22-23.7
			c-12.5-8.2-54.3-5.2-69.5,11.9c-13.5,15.2-4.7,19.4-11.9,33.9c-4.5,9.1-8.6,12.2-13.3,20.4c-15.6,27.4-40.5,48.3-65.3,66.9
			c-47.1,35.2-105.3,60-134,114c-15.3,28.8-17.6,44-45.8,64.4c-11.4,8.2-26.8,19.9-40.6,24.5c-7.1,2.3-17.8-9.2-19.2-8.5
			c-8,3.7-6.7,27.7-13.3,28.7c-19,2.9-6.9-9.4-31,17c-0.2,0.3-39.9,27.3-48.5,33.7c-10.1,7.6-22.5,11.1-27.7,17.3
			c-2.6,3-22.4,14.4-17.1,8c-21.8,26.4-52.4,35.9-74.6,67.9c2.4-3.8-21.2,5.4-23.8,6.8c2.1-1.2-31.2,23.9-32.1,26.5
			c-14.5-26.6-60.4-28.8-85.1-17.2c-33.5,15.7-21,25.3-21.3,57.4c-0.4,42.8-34.1,50.3-76.9,75.4c-13.3,7.8-13.7,2.2-25.9,15.8
			c-23.7,26.4-45.5,66-62.9,97.7c-18.4,33.6-31.7,72-56.2,101.9c-25.4,31-60.3,35.9-90,60.1c-21.7,17.7-27.5,37.9-45.3,59.6
			c-23.5,28.7-58.2,46.7-88.5,66.9c-54.9,36.7-100.8,73.8-81.8,148c18.5,72.3,99.6,146.4,143.8,205.1c19.3,25.6,46.1,77.3,78.4,88.2
			c23.9,8.1,92.6-20,65.9-38.2c18.2-7.5,88.8-41.2,66-69.5c15-5.2,39.5,8.9,56.9,7.9c28.8-1.7,64-17.5,92.1-24.5
			c60.4-15,120.6-30.7,180.5-47.4c81.2-22.7,166.1-39.1,244.1-71.2c97.4-40.2,136.3-89.4,122.2-195.3
			c-12.8-96.4-41.2-197.4,32.1-272.7c86.1-88.6,180.5-193,282.9-262.2c40.7-27.5,109.2-22.3,140.2-63.6
			c35.6-47.3-18-60.8-29.4-104.8c-5.5-21.5-4.8-71.5,10.8-88.3c18.7-20.2,30.9-7.9,48-15.6c4.5-2,11-10.7,17.7-15.9
			c12.5-9.7,29.4-21,43.1-30.9c-1.1,0.8,28.5-20.7,28.5-20.6C2047.1,1479.4,2002.1,1429.1,1969.8,1404.3z M1004.2,2603.9
			c-43.7,13.4-85.7,40.3-114.4-11.9c-18.3-33.3-16.2-78.2-17.6-115.2c-1.7-44.4-6.9-81.7,24.1-117.2c20-22.9,61.1-56.5,91.9-64.6
			C1083.7,2270,1107.7,2572.2,1004.2,2603.9z M1090.9,1844C1090.9,1844,1090.8,1844.1,1090.9,1844
			C1090.8,1844.1,1090.9,1844,1090.9,1844z M1294.9,2489.2c-55.3,17.7-73.4-26.9-85-71.5c-11.2-43.2-34.6-96.6-32.2-141.1
			c3.2-58.8,49.4-25,71.6-63.7c21.8-38.1-45.3-29.2-53.7-58.7c-7.6-26.7,51.6-55.7,72.1-66.3c65.2-33.9,65.4,31.8,72.3,84.7
			c9.5,72.1,20.6,144.4,28.7,216.7C1376.5,2458.5,1357,2469.3,1294.9,2489.2z"/>
		<path class="st1" d="M1667,1337c1-0.3,1.8-0.5,2.5-0.5C1668.4,1336.6,1667.5,1336.8,1667,1337z"/>
		<path class="st1" d="M1225,1733.5c-0.1,0.1-0.1,0.1-0.1,0.1C1225.3,1733.1,1225.4,1733,1225,1733.5z"/>
		<path class="st1" d="M1238.6,1720.8c-2.5,1.4-1.1,0.8,1.9-0.5C1240.5,1719.9,1240,1720,1238.6,1720.8z"/>
		<path class="st1" d="M536.7,2136.3c49.5,18.5,136.8-79.5,174.6-109.4c63.7-50.4,91.6-85,93-169c1.2-70.1-2-139.2,0.8-209.5
			c1.5-36.6,17.5-98.4,5.3-131.9c-10.1-27.8-69.9-40.9-103-52.2c-66.1-22.6-141-4.9-206.5,16.4c-66.9,21.7-132.6,51-199.8,74
			c-31.2,10.6-82.9,19.7-107.3,41.6c-13.9,12.5-14.7,23.4-16.8,42.9c-38.2-11.3-36.5-5.5-35.4,21.2c0.4,9.4,16.8,40.8,18.2,49.5
			c3.5,21.9-2,44.7-0.3,66.7c7,92.6,56.3-7.8,79.9,67.7c21.7,69.6-6.9,131.2,60.5,179.1C369.5,2073,456.8,2106.4,536.7,2136.3z"/>
		<path class="st1" d="M2862.4,1261.9c-46-16.7-43.5-16.6-40.1-64.4c1.7-24.4,2.8-48.9,3.2-73.3c0.9-54.8-1.3-109.6-6.8-164.1
			c-10.2-101.1-31.4-202.2-69.1-296.8c-28.3-71-66.3-142-121.8-195.6c-20.6-19.9-43.6-37.9-69.5-50.5c-15.6-7.6-34.9-9.5-49.7-17.3
			c-29.1-15.2-16.7,17.9-25.3-31.8c-10-57.8,20.4-129.9,2.5-185.2c-21.4-65.9-19.6,49.6-19.9,71.2c-0.4,28.5-0.8,57-1.1,85.4
			c-0.3,19-0.5,38-0.8,57c-9.1,0.4-18.1,1.6-27.1,3.4c-24.8,13.1-53,17.1-77.4,33.3c-149.9,99.5-205.7,317.8-228,484.2
			c-10.4-4.1-121.8-48.5-91.2-12.7c16.6,19.5,74.3,10.1,88.8,32c7.6,11.5-6.3,67-7.1,79.9c-6.9,116.9,0.2,235.2,24,350
			c30.3,146.2,93.5,339.4,237.3,413.1c11.3,5.8,26.2,8.3,36.6,14.9c8.3,2.5,16.6,4.4,25.2,5.7c-0.2,16.8-0.5,33.5-0.7,50.3
			c-0.3,20.1-2.7,124,18.1,63.1c8.9-26.1-6.7-60.2,1.2-86.7c13.7-46.4-6-12.1,22.8-25.1c29.7-13.4,62.7-13.5,92.3-31.8
			c159.9-98.8,216.3-333.4,237.1-505.5c2.3,0.9,43.8,21.1,48.6,14.8C2869,1273.5,2872.7,1265.6,2862.4,1261.9z M2446.1,1724.5
			c-119.8-19.9-190.2-152.6-227.9-255.1c-60.1-163.2-72.7-345.8-51.9-517.6c32.4,13.6,22.4,4.2,27.9,37.8c3.1,19.5-3.3,44-4,63.7
			c-1.6,46.9-0.5,93.8,3.8,140.5c7.6,82.8,24.2,165.7,54.5,243.3c23.4,59.9,55.3,120.6,102.9,165c17.2,16.1,36.6,30.6,58.2,40.2
			c3.8,1.7,35.6,9.4,37.4,11.7C2454.9,1664.1,2446.3,1712.9,2446.1,1724.5z M2448.6,1540.1c-0.2,17.7-0.5,35.4-0.7,53.1
			c-96-18.6-151.1-125.9-181-208.9c-46.2-128.4-56.1-271.4-40.4-406.3c36.9,16.8,30.1,24.1,27.8,63.8c-2,33.9-2,68,0,102
			c3.9,65.9,15,131.9,36.5,194.4c16.1,46.8,37.6,93.5,70.2,131.2C2377.7,1488.6,2448.8,1525.3,2448.6,1540.1z M2449.4,1480.3
			c-172.5-40.6-183.2-344.4-167.8-476.5c34.6,16.6,31,17.4,28.6,55.7c-1.7,26.6-1.8,53.2-0.2,79.9c3,50.3,11.4,100.8,28.3,148.4
			c12.2,34.4,28.5,69.8,53.5,97c10.2,11.1,24,18.3,33.9,28.9c7.7,4.6,15.9,8.2,24.6,10.6C2449.9,1443,2449.7,1461.6,2449.4,1480.3z
			 M2450.7,1389c-126.2-37.9-132.7-260.1-119.7-360.9c40.7,20.3,29.2,26.6,29.2,71.2c0,42,5.5,84.9,19.2,124.7
			c10.1,29.2,24.1,52.6,43.8,76.1c6,7.2,24.8,12.3,28.3,19.1C2459.1,1333.8,2450.9,1373.5,2450.7,1389z M2451.9,1294.8
			c-80.5-33.7-85.5-173.9-76.6-244.4c37.7,19.3,19.4,83.5,33.8,124.5c6.5,18.6,18,32.4,26.5,49.2c4.6,6,10.3,10.8,17,14.4
			C2452.4,1257.4,2452.2,1276.1,2451.9,1294.8z M2456.6,944.4c-35.2,15-49.9,64.4-55.8,97.9c-34.8-17.9-14.6-56.3,3-88
			c12-21.7,28.3-44.8,53.3-52.5C2457,916,2456.8,930.2,2456.6,944.4z M2457.8,856.1c-0.4,29.7-33.1,37.1-51.5,62.8
			c-21.9,30.4-33.3,69.5-39.7,105.9c-36.8-18.7-33.7-22.7-22.3-63.6c6.8-24.3,15.3-48.1,27.3-70.3c18.6-34.5,45.7-71.9,86.9-79.8
			C2458.2,826.1,2458,841.1,2457.8,856.1z M2458.9,775.7c-93,15.4-129.7,148-142.2,224.2c-44.2-21.7-30.2-42.8-17.6-89.8
			c9.6-35.7,22.2-71.2,39.9-103.7c25.2-46.2,64.8-96.5,120.8-103.7C2459.6,727.1,2459.2,751.4,2458.9,775.7z M2460.5,655.5
			c-134.3,14.6-184.2,210.7-199.4,317.7c-36.8-17.2-25.3-3.7-28.2-40.2c-1.7-22,10-51.9,15.5-72.7c12.2-46.3,28.4-91.8,51.1-134.1
			c33.3-61.8,86.2-129.8,161.9-136.5C2461.1,611.7,2460.8,633.6,2460.5,655.5z M2462.2,529c-178.6,12.9-244.2,277.3-263,416.3
			c-35.7-15.5-29.5-23.9-22.4-62.3c5.8-31.3,12.9-62.4,21.6-92.9c16.4-57.5,38.2-114,68.4-165.7c41.8-71.6,107.3-146.9,196.1-152.2
			C2462.7,491.1,2462.5,510.1,2462.2,529z M2480.3,589.6c96.6,5.7,157,108.2,189.3,187.7c53.9,132.7,65.5,284.4,49.6,425.7
			c-40.1-18.3-29.4-32.7-27.6-73.9c1.5-37,0.9-74.1-2.3-111.1c-6-69.6-20.2-139.4-47.2-204c-19.3-46.2-45.4-93.5-85-125.4
			c-16.5-13.3-35.5-18.2-52.7-29.1c-5-3.2-21.8-0.5-25-4.3C2474.9,649.6,2480.2,597,2480.3,589.6z M2478.8,702.1
			c186,11.4,199.1,350.8,185.4,474.9c-33.8-16.3-29.1-18.4-27.9-55.3c0.8-23.4,0.3-46.9-1.5-70.3c-4.2-54.6-14.9-109.8-36.6-160.4
			c-15-35-35.1-71.6-66.6-94.6c-11.2-8.2-32.3-11.8-41.2-20c-16.4,2-20.4-6.7-12.1-25.9C2478.4,734.4,2478.6,718.3,2478.8,702.1z
			 M2477.4,809.9c135.1,8.5,147.6,252,139.2,343.8c-41.6-20.8-29.6-36.8-32.2-80c-2.5-41.2-10-83.3-27-121.2
			c-12.2-27.1-27.3-47.2-50-65.9c-6.2-5.1-27.8-6.5-30.9-11.1C2469.1,864.7,2477.2,821.9,2477.4,809.9z M2476.2,899.6
			c91,6.2,100.5,169.9,95.6,231.4c-40.3-20.6-21-99.1-44.4-143.7c-8.5-16.3-18-23.2-28.6-37.1c-6.9-5.2-14.6-8.2-23.2-9.1
			C2475.8,927.3,2476,913.4,2476.2,899.6z M2471.5,1243.9c47.8,1.4,67.9-69.5,73.6-105.3c41.7,21.5,13.5,83.3-10.9,118.5
			c-14.8,21.3-35.4,43-63.5,42C2471,1280.7,2471.3,1262.3,2471.5,1243.9z M2470.5,1323.2c74.9,2.9,103.5-111.2,110.9-166.1
			c39.1,19.8,32.4,34.7,21.5,76.3c-8,30.7-18.6,61.4-35,88.7c-20.8,34.8-54,71.9-98.4,70.1
			C2469.8,1369.2,2470.2,1346.2,2470.5,1323.2z M2469.1,1427.3c110.6,4.8,152.1-164.3,162.4-245.2c29.5,14.5,26.2,5.6,26.4,39.1
			c0.1,20.1-10.3,49.6-16,68.7c-10.7,36.1-24.8,71.8-44.7,103.9c-27.9,45.1-71.3,91.6-129,89.1
			C2468.6,1464.4,2468.8,1445.8,2469.1,1427.3z M2467.7,1530c146.3,6.5,202.4-214.8,217.1-322.3c38,17.8,32,23.4,23.9,65.2
			c-4.7,23.8-10.2,47.5-17,70.9c-13.8,47.8-32.5,95.2-58.7,137.7c-35.8,58-92.2,117.3-166.1,113.9
			C2467.1,1573.7,2467.4,1551.8,2467.7,1530z M2472.7,1726.7c-8.6,0-15-62.1-6.7-70.5c4.2-4.2,43.7-4.5,53.3-7.6
			c41.1-13.3,74.8-43,101.8-75.8c76.5-92.9,110.2-220.1,125.5-337c37.1,16.2,31.5,24.1,24.7,64.2c-6.1,35.9-14,71.5-23.9,106.5
			c-16.6,58.2-38.3,115.6-69,168C2635.2,1648.5,2565.6,1726.7,2472.7,1726.7z M2780.9,1230c-32.8-13.8-23.8-4.7-29.5-37.8
			c-3.2-18.7,3.1-42.8,3.7-61.8c1.6-46.8,0.4-93.6-4-140.2c-7.7-83.4-24.6-167-55.5-245c-23.7-60-56.1-120.9-104.5-164.8
			c-17.5-15.9-37.2-30.1-59.1-39.2c-49.2-20.5-51.1-2.7-50.2-68.9c121,6.9,196.6,135.5,236.8,235
			C2784.6,870.5,2799.4,1056,2780.9,1230z"/>
		<path class="st1" d="M160.2,1365.4c2.6,11,70.6-35.4,74.9-39c24-20.3,34.2-35.4,67.7-40.5c31.5-4.8,56.1-6.4,86.7-16.9
			c121.1-41.2,216-48.8,338-25.5c29.3,5.6,57.7-4.4,84,13.8c11.2,7.7,30.1,50.1,42.9,47.5c7-1.4,17.2-48.1,23.6-57.6
			c17.2-25.5,30.7-28.9,60.7-31.8c13.4-1.3,81.7,10.7,82.6-11c0.9-22.7-36.5-26.4-52.9-29.9c-28-6-77.1,1.6-100.8-8.9
			c-4.7-2.1-38.6-16.2-8-18.9c-16.7-10.5-97.3-5.3-102.4-15.4c-12.7-25.3,45.9-69.4,38.4-97.1c-19-70.4-135.5,81-100.3-62.1
			c-51.6,12.8-102.1,29.4-151.2,49.8c-21.8,9.1-54.9,29-51-10.9c-50.8,10.9-92.4,42.7-136.9,67.6c-42.3,23.7-78.9,50.6-67.7-16.3
			C185.4,1143.3,128,1231.1,160.2,1365.4z"/>
	</g>
</g>
</svg>
