<?xml version="1.0" encoding="utf-8"?>
<!-- Generator: Adobe Illustrator 22.0.0, SVG Export Plug-In . SVG Version: 6.00 Build 0)  -->
<svg version="1.1" id="Слой_4" xmlns="http://www.w3.org/2000/svg" xmlns:xlink="http://www.w3.org/1999/xlink" x="0px" y="0px"
	 viewBox="0 0 3000 3000" style="enable-background:new 0 0 3000 3000;" xml:space="preserve">
<style type="text/css">
	.st0{fill:#68C6BF;}
</style>
<g>
	<path class="st0" d="M2243,335c-35.5-61.5-99.3-123.7-172.2-136.7c-94.9-16.8-169.1,74.8-154.9,164c44.6-36.4,80.5-72.4,140.7-51.1
		c42.5,15.1,77,50.2,98.1,89.4c20.1,37.5,25.5,79.7,20.6,121.5c-4.8,40.9-46.2,58.3-77.6,80.9c61.1,31.3,135.8,14.1,178.1-41
		C2325.3,497.5,2277.6,394.9,2243,335z"/>
	<path class="st0" d="M1495.9,1387c-5.5,47,16.7,44.1,63.1,50.7c50.9,7.2,151.1,19.5,194.4-17.3c20.1-17.1,14.1-45.6,12.8-69.8
		c-2.3-45.5-1.4-91.2,1.8-136.7c15.6-219.7,85-437.7,258.1-583.1c34.6-29,102-56.7,122.8-93.8c43.5-77.1-53.7-241.9-149-212.4
		c-42.4,13.2-88.6,67.4-122,96.9c-32.7,28.9-63.9,59.5-92.2,92.7c-70.4,82.6-131.7,179-183.1,274.3c-57.2,106.1-81.8,228.7-96,347.3
		c-6.1,50.8-9.8,101.8-12,152.9C1493.4,1319.7,1499.3,1358.2,1495.9,1387z"/>
	<path class="st0" d="M1457.8,1540.8c49,8.4,92.4,23.2,142.7,25.4c47.6,2,96,1.5,142.8-8.3c38-7.9,74.4-17.9,88.7-56.8
		c16.7-45.6-8.3-75.3-46.2-98.5c-7.4,63.7-116.2,60.1-161.5,59.1c-31.6-0.7-63.4-1.9-94.3-9c-35.5-8.2-56-13.3-54.7-53.4
		C1408.2,1426.9,1402.4,1498.3,1457.8,1540.8z"/>
	<path class="st0" d="M1456.3,1710.3c-0.8,17.7,145.4,26.5,160.1,26.9c57.2,1.5,117.7,2.4,172-18.3c32.5-12.4,58.7-33.3,68.5-69.6
		c8.8-32.4-15.3-73.2-49.3-83.3c-15.7-4.7-28.2,3.6-45.3,8c-34.1,8.9-69.8,12-104.9,12.8c-28.3,0.7-56.9-0.1-85.1-2
		c-34.2-2.3-65-16.2-98.2-20.1c-26.4-3.1-48.7,12.4-64.1,38.2C1384.4,1645.5,1417.1,1691.4,1456.3,1710.3z"/>
	<path class="st0" d="M1244.7,1908.7c-22.9,20.4-52.5,42.5-80,56.4c43.6,39.4,79.5,74.6,114,120.9c18.6,24.9,31.4,53.3,65.2,61.5
		c45,10.9,86.2-9.4,113.2-44.7c27.7-36.2,40.7-84.1,26.3-128.5c-16-49.3-48.4-60.6-89.7-83.6c-28.3-15.8-54.8-53.8-78.7-79.9
		C1298.8,1845.8,1273.6,1882.9,1244.7,1908.7z"/>
	<path class="st0" d="M1148,1950c33.9-10.9,74.7-44.8,98.6-71.5c22.8-25.6,65.7-77.1,57.1-114.8c-10.1-43.8-60.9-71.2-102.1-63.2
		c-73.7,14.4-147.8,84.6-149.2,162.4C1051.5,1909.9,1100.8,1956.4,1148,1950z M1119,1764.3c23-23,82.2-62.2,114.6-28.2
		c26,27.2-3,82-24.4,102.6c-20.5,19.8-92.5,74.3-123.3,42.9C1055.2,1850.2,1098.6,1784.8,1119,1764.3z"/>
	<path class="st0" d="M663.5,2189.4c-14.5-27.4-53.5-8.5-78.9-3.6c-29.4,5.7-67.8,7.2-95.2,19.4c-15.9,7.1-22.5,6-24.8,27.8
		c-1.4,13.9,3.1,26.8,10.4,38.5c5.9,9.5,12.4,17.4,22,19.3c11.6,2.3,33.5-7,44.9-9.4c23.3-4.9,46.5-9.7,69.8-14.6
		c11.5-2.4,36.8-2.7,46.4-9.7C675.6,2244.1,673,2207.4,663.5,2189.4z"/>
	<path class="st0" d="M739.5,2377.6c-15.8-1.3-60.1-20.9-67.1-13.7c-12.8,13.4-2.4,56.3-1.3,71.3c3.1,40.7,6.2,81.5,9.2,122.2
		c1.7,22.4-1.9,56.1,11.6,72.3c23.4,28,120.9,21.1,145.7-5.7c10.9-11.8,6.5-36.3,7-53.4c1.3-42.1,2.6-84.2,3.6-126.3
		c0.6-23.2,9.6-67.9-3.3-89.5C815.9,2377,774.6,2380.5,739.5,2377.6z"/>
	<path class="st0" d="M745,1937c-37.7,0-123,0.2-144.3,43.4c-9.5,19.4,1.2,29.9,10,49.6c18.9,42.1,35.7,85.9,56.9,127
		c10.6,20.6,23.1,39.3,22.9,63.6c-0.3,26.7-13.3,47.4-12.9,74.7c0.1,8.8-3.9,30.7,0.8,38.6c14.7,24.5,63.4,25,87.1,24.1
		c20.6-0.7,60.8-3.8,69.9-25.1c6.5-15.1,1.5-46.5,2-62.7c1-32-4.4-72.1,3.6-103.1c9.1-35.5,35.7-73.1,51.7-105.9
		c10.3-21,37.3-53.3,26.2-74.1C893.6,1939.7,786.6,1937,745,1937z M759,2031c-24.3,0.4-123.4-1.9-127.9-43.3
		c-4.9-44.8,98.9-44,120.1-43.4c23.1,0.6,128,2.9,133.1,41.8C889.9,2028.8,778.2,2030.7,759,2031z"/>
	<path class="st0" d="M1767.9,2462.7c0.1-0.8,0.2-1.7,0.4-2.5c0.1-0.8,0.2-1.7,0.4-2.6c4.3,1,4.9,0.7,4.9-2.5
		c0-3.7-0.1-7.4-0.3-11.1c0-0.2,0-0.4-0.1-0.6c-0.1-0.4-0.2-0.8-0.3-1.2c-0.1-0.2-0.1-0.4-0.2-0.6c-0.3,0-0.5-0.1-0.8-0.1
		c-0.1,0-0.2,0-0.3,0c-1.3,3.4-2.6,6.9-3.9,10.3c-0.3,0.9-0.7,1.9-1,2.8c-0.1,0.3-0.2,0.5-0.3,0.8c-0.1,0.2-0.2,0.5-0.3,0.7
		c-0.2,0.4-0.3,0.8-0.4,1.2c-0.2,0.7-0.2,1.2-0.2,1.7C1765.7,2460,1766.4,2460.9,1767.9,2462.7z"/>
	<path class="st0" d="M2044.9,2191.8c-104.7-133.7-193.2-293.8-236.4-458.7c-112.8,37.2-241.6,35.6-354.2-1.4
		c-5,34.1-16.7,69.2-33.8,99.3c-10,17.7-25,26.9-12.4,44.3c15.5,21.4,50.7,23.3,69,44.6c20.9,24.4,31.4,58.6,31.8,90.3
		c0.9,58.1-32.2,122.2-85.9,147.7c-69.9,33.2-117.4-1.6-157.5-55.7c-88.6,100-234.6,245.1-189.2,392
		c34.2,110.5,151.3,163.6,254.2,192c143.2,39.6,295.3,48.2,442.8,33.7c121-11.8,270.6-36.6,356.3-132.1c47.4-52.8,64.9-128,51.1-197
		C2163.5,2305.3,2095.8,2256.8,2044.9,2191.8z M2051.3,2337.2c-15.5,14.7-29.1,34.1-46.8,46.1c8.9,6.2-6,11-11.5,16.8
		c-3.5,3.7-12.8,17.5-14.3,19c-11.4,10.9-19.6,27.7-39,32.7c16,13-17.3,14.2-19.5,20.8c2,0.5,3.3,1.9,4.1,3.9
		c-0.2,5.5-54.4,36.3-59,38.7c-8.6,4.5-94.2,48.3-93.7,49.6c7.9-2,65.4-19.6,66.2-10.9c24.7-8.8,39.9-2.2,63.2-7.8
		c-0.4,6.3,25.3,8.9,34.3,11.8c19.8,6.3,41.1,11,61.3,19.9c-4.5-0.5-65.1,11.5-73.5,13.9c-24.5,6.9-40.5,8.9-67.9,6.8
		c-16.9-1.3-89.1-28.9-102.1-18.3c-13.7,11.1,5.6,101.8-13.2,102.6c0-17.1,14.5-91.1-1.6-97.3c-4.7-1.8-35.9,22.3-41.8,24.8
		c-8.7,3.8-23.9,5.4-34.4,8.9c-12.3,4-109.9,34-111.9,31.8c19.7-23.9,53.2-57.6,73.7-68.7c26.6-14.3,57.5-5.2,86.6-14.6
		c-15.8-4.7-164-40.3-154.7-63.5c-4.7-0.8-34.2-2.8-20.2-13.5c-3.8-6.7-34.9-4.7-25.5-18c-9.6-2.4-40.3-27.3-35.1-31.8
		c-13.6-7.1-21.2-15.5-32.3-25.3c-13.5-11.8-31.7-19-44.4-31c15.6,0,87.9,32.1,93.7,22.5c7.4,5.6,15.4,17.5,19.5,6.7
		c7,5.6,14,11.3,21,16.9c7-24.2,21.6,28.6,30.1,5c7.9,6,14.6,13,20.3,21.1c13.7-20.8,15.3,23.7,27.4,4.3
		c6.7,7.6,13.4,15.1,20.2,22.7c6-12.3,16.6,8.5,21.6,15.5c6.9-10.6,20.7,13.6,24.9,21.3c6.6-10,38.6,35.2,51.1,38
		c-8.8-13.1-76-84.9-76.1-84.9c-18.5-10.6-33.5-27.6-48.6-43.6c11.6-4.5-12.6-16.4-16.9-22.5c2.4-1.5,4.7-3.2,6.7-5.2
		c-21.1-7.7-15.5-11.5-13.4-20.2c-8.1-6-29.7-14.4-16.2-22.9c-11.6-8.4-30.4-11.9-11.9-21.1c-6.9-6.6-32.6-22.2-14.6-26.6
		c-1.9-1.8-19.1-15.2-17.7-18.9c2-1.6,4.2-2.6,6.7-3c-2.8-3.4-22.2-36.4-20.4-39.4c1.7-1,3.6-1.4,5.5-1.3
		c-4.1-6.8-33.3-92.1-36.1-97c19.9,24,45.4,50.6,58.9,78.4c4.8-7.1,25.5,18.8,27.9,30.5c12.5-11.2,14.8,12.9,17.8,22
		c1.6-2.2,3.6-3.8,6-4.9c5.8,1,6.1,19.3,7.1,23.3c14.1-13.1,5.7,18.1,20.3,7.6c3.4,9.3,6.8,18.7,10.2,28c17.1-13.4,5.1,14.7,14,19.7
		c2.2-0.7,3.9-2.1,5-4.3c3.7,7.9,3.7,29.8,12.6,21.3c5.3,10.7,9.1,22.5,10.7,34.4c14.2-10.2,16.1,20.7,20.2,33.1
		c8.9-7.9,18.9,26.7,21.9,34.1c2.7,6.7,20.1,66.3,27.3,64.5c-2.2-19.6-7.9-38.9-13-57.9c-2.1-7.9-14.4-31.4-4.1-32.3
		c-4-8.1-19.6-29.8-6.2-33.1c-5.2-10.3-18.3-61-7-61.9c-4.7-8.4-8.1-17.4-10-26.9c22.3,0-22.2-30.5,7.3-27.4
		c-3.8-10.4-17.2-33-0.1-30.3c-3.8-8.9-9.5-42.5,2.8-42.5c-3.2-7.5-4.7-15.3-4.6-23.4c21.3,0-7.8-27.4,13.1-27.4
		c-2.2-14.1,3.4-34.6,6.8-48.9c5.1-21.3,10.9-53.7,12.4-80.4c3.8-0.1,12.2,122.5,26.6,118.3c-0.6,9-1.3,17.9-1.9,26.9
		c13.5-2.2,6.5,16.5,3.3,25.6c15.3-4,9.3,12.8,5.4,24.3c16.8-1.8,6.8,13.2,3.5,23.8c16.6-2.2,1.2,24.2-0.2,31.4
		c2.9,0.2,5.5-0.5,7.8-2.2c-0.1,10.5-2.6,20.4-7.4,29.8c17.4-5.1,2.3,20.5,0.1,27.9c10.6-1.7-0.8,70.3-5.5,82.7
		c4.5-2,7.1-0.5,7.8,4.3c2-4.4,1.1-8.4,2.4-13c1.9,0.7,3.7,1.5,5.5,2.4c5.6-5.2-4.6-37.2,9.7-28.6c0-9.1-5.4-32.1,7.6-27.8
		c3.1-10.9-2.7-30.2,11.2-25c0.8-10.1,1.7-20.2,2.5-30.3c24.9,16.3,0.2-32.4,21.3-19.5c-0.6-7.8,0.3-15.5,2.8-23
		c12.6,6.8,7.4-11.2,10.6-20.2c13,8.3,3.5-7.7,9.3-16.6c5.5-8.4,3,0.7,8.9-2.5c7.8-4.3,8.9-38.2,20.8-31.3
		c3.2-14.6,10.9-18.7,17.7-29.6c7.8-12.5,16.7-46.4,29.7-54.7c-4.9,30.7-8.3,71.6-19.2,97.7c12.1,2.6,1.6,17.6-2.2,26.5
		c13.4,0-5.5,47.2-12.1,54.8c16.4,3.7-0.8,16.3-8.1,25.2c2.2,0,4.2,0.6,6.1,1.8c2.4,4.1-11.3,16.7-14,19.7
		c10.8,4.1-3.1,14.4-8.8,19.7c2.2,0.9,4.3,1.9,6.4,2.9c2.4,6-41.2,69.3-44.3,73.7c-9.2,13.5-18.9,29.7-28,44.4
		c-11.8,19.2-43.9,45.4-45.5,68.3c24.2-22.2,39.5-47.8,56.5-71.2c6.1-8.5,40.9-45.7,44.4-40.3c6.5-10.7,33.7-47.3,40.2-32.9
		c5-7.8,10.9-14.9,17.7-21.3c1,3.2,2.7,6,5.1,8.2c29.6-35,80.6-42,127.8-64.6C2055.8,2333.8,2055,2335.4,2051.3,2337.2z"/>
	<path class="st0" d="M1765.2,2485.4c0.1-1.6,0.1-3.2-0.1-4.9c-0.5,1.4-1.1,2.7-1.7,4c-0.1,0.3-0.3,0.6-0.4,0.9
		c-0.4,0.9-0.9,1.8-1.3,2.7c-0.2,0.5-0.4,0.9-0.6,1.4c-0.7,1.8-1.1,3.6-1.1,5.5c0,1.2,0.3,2.5,0.7,3.8c0.2-0.4,0.4-0.7,0.6-1.1
		c1.3-2.5,2.4-5.1,3.1-7.8C1764.8,2488.5,1765.1,2487,1765.2,2485.4z"/>
</g>
</svg>
