<?xml version="1.0" encoding="utf-8"?>
<!-- Generator: Adobe Illustrator 22.0.0, SVG Export Plug-In . SVG Version: 6.00 Build 0)  -->
<svg version="1.1" xmlns="http://www.w3.org/2000/svg" xmlns:xlink="http://www.w3.org/1999/xlink" x="0px" y="0px"
	 viewBox="0 0 3000 3000" style="enable-background:new 0 0 3000 3000;" xml:space="preserve">
<style type="text/css">
	.st0{display:none;}
	.st1{display:inline;fill:#68C6BF;}
	.st2{fill:#68C6BF;}
</style>
<g id="Слой_4" class="st0">
	<path class="st1" d="M637.9,1969.6l0.7-19.3h-6.3l-0.3-43.7l-20.7-0.3l-1-39.5c-50.2,2.5-100.5,0.5-150.7,0.2v0.6h-4.3v40h-22.3
		v44.7h-8v19.3c-64.7,34-60,71.9-60,71.9V2670c8,71.7,60.7,86.3,196.7,86.3s140-79.3,140-79.3v-25.3c0,0,1.3-560,0-608
		C694.9,1999,637.9,1969.6,637.9,1969.6z"/>
	<path class="st1" d="M459.5,1789v58.2c48.5,0.3,97,2.1,145.5,0l-0.3-39.1c0,0,92.2,5.3,96.2,2.3s12.7-9.8,12.7-15.3
		C527.5,1755.5,459.5,1789,459.5,1789z"/>
	<path class="st1" d="M738.7,1817.9l-25.1-13.3c0,0,41.8,46.7,48.5,64.7c6.7,18-8.7,48,0,70c8.7,22,58,14,67.3-15.3
		C838.7,1894.6,738.7,1817.9,738.7,1817.9z"/>
</g>
<g id="Слой_3">
	<g>
		<path class="st2" d="M1170.2,1731.3c-1.9,4.8-3.7,9.8-4.7,14.8c-3,15.9,0.9,31.8,13.1,43c18.2,16.8,44.2,19.3,66.2,10.1
			c1.1,0.7,2.3,1.5,3.4,2.2c-0.1-1.1-0.2-2.3-0.2-3.4c-1.3-17.5-10.6-34.7-22.9-47C1210.2,1735.9,1190.5,1732,1170.2,1731.3z"/>
		<path class="st2" d="M496.4,384.4c-26.2,84.3-40.7,206.4-34.9,305.3c6.1,104.1,40.7,174.4,86,199.5
			c134.9-1.8,176.6,48.9,176.6,48.9s208.5,484.4,403.1,739.6c54.8-14.6,109.1,16.1,149.7,51.3c19.6,17,36.4,36.3,45.5,60.9
			c6.1,16.6,7.3,34.2,5.6,51.6c192.5,72.8,358.7-31.3,418.5-64.5c74.6-35.2,74.9-136.8,82.9-175.5c-15.9-49.2-41.5-94.3-69.8-138.2
			c-18.6-28.9-39.3-57-56-87.1c-15.7-28.2-30.4-56.6-55.9-77.2c-0.5-0.4-0.9-0.8-1.3-1.2c-43.4-8.2-85.6-23.1-126.6-41.3
			c-140.6-62.6-275.8-150-364.1-278.8c-5.4-7.9-1.5-19.7,6.3-24.2c8.7-5.1,18.8-1.5,24.2,6.3c10.2,14.8,21,29.1,32.5,42.8
			c47.5,56.2,104.9,103.1,166.8,142.5c63.4,40.4,132.5,76.8,203.7,101.4c71.2,24.6,144.2,29.2,217.5,11.1
			c64.1-15.9,125.9-41.7,179.2-81c95.1-70.2,159-177.7,192.5-289.7c17.1-57.2,26.7-116.5,28.1-176.2c1.4-59.3-6.4-116.9-20.8-174.4
			c-16.3-64.9-38.2-128.7-68.2-188.6c-19.5-39-42.6-76.7-70.9-109.9H165C165,237.9,473,325.2,496.4,384.4z M1389.1,726.6
			c6.8-20.9,18.4-38.9,34.8-54.2c15.3-16.4,33.3-28,54.2-34.8c20.1-10.5,41.7-15.4,64.9-14.5c45.6,0,86.1,19.1,119.1,49.3
			c33.1,30.4,47.4,75.5,49.3,119.1c0.9,23.2-4,44.8-14.5,64.9c-6.8,20.9-18.4,38.9-34.8,54.2c-15.3,16.4-33.3,28-54.2,34.8
			c-20.1,10.5-41.7,15.4-64.9,14.5c-45.6,0-86.1-19.1-119.1-49.3c-33.1-30.4-47.4-75.5-49.3-119.1
			C1373.8,768.2,1378.6,746.6,1389.1,726.6z"/>
		<path class="st2" d="M2493.6,455c-85.3-7.8-302.4-217.1-302.4-217.1h-99.4c32.8,43.6,58.3,92.7,79.4,142.8
			c26.2,62.2,45.8,127.3,59.2,193.4c24.8,122.7,10,254.9-34.7,371.3c-44.9,117-122.4,224-231.9,288c-28.7,16.8-59.4,29.7-90.7,40.9
			c-39.1,14-79.4,24.3-120.8,28.5c-17.2,1.8-34.2,2.2-51.1,1.4c10,13.3,18.5,27.8,26.4,42.2c26,47.5,58.8,90.9,86.4,137.5
			c23.2,39.2,42.6,80.7,54.4,124.7c78.5,42.4,325.8,85.1,450.7,78.1c139.6-7.8,515.7,194.7,515.7,194.7V408.3
			C2835,408.3,2578.9,462.7,2493.6,455z M2693.9,1588.7h-54.3c-0.6,0-1.1,0-1.6-0.1c-3.8,1.3-8.2,1-12.1-2.1
			c-6.2-5-12.4-10-18.1-15.5c-3.6-3.5-4.9-10.4-1.9-14.6c20-28.2,67.2,0.4,91.2,8.7C2709.7,1569.3,2708,1588.7,2693.9,1588.7z"/>
		<path class="st2" d="M1495.7,840c6.8,23.3,30.9,37,54.3,31.1c21.2-5.3,35.9-25.2,36.1-46.9c0.1-19.3-9.9-35.1-23-48.3
			c-5.8-5.8-13.8-9.2-22-9.9c-4.4-2-9.2-3.1-13.7-2.9c-16.9,0.8-37.4,15.5-34.9,34.9C1494.2,811.8,1491.8,826.6,1495.7,840z"/>
		<path class="st2" d="M999.7,1883.7c-11-13-86.3-16.7-59.9,17.6C962,1918.4,981.8,1909.1,999.7,1883.7z"/>
		<path class="st2" d="M2681.6,2821.1c-7.5,11.3-15.1,22.6-22.6,34C2695,2861.7,2692.1,2806.6,2681.6,2821.1z"/>
		<path class="st2" d="M1846.8,2384.6c-31.5-3-59-34.2-97-28.5c-41.3,6.1-58.6,22.1-38.5,58.2c14.1,25.4,103.3,70.3,132.3,64.6
			C1892.5,2469.2,1886.2,2413.6,1846.8,2384.6z"/>
		<path class="st2" d="M2467.1,2548.1c-292.4-159.9-584.7-319.8-877.1-479.8c-114.2-62.5-226.5-128-340.2-191.1
			c-83-46.1-204.6-102.5-281.3-13.9c11.5,4,142.9-13.9,141-6.6c-0.6,2.4-81.1,17.1-89,16.1c9,4.1,99.9,18.1,89,37.4
			c-7.6,13.4-81.7-41.2-105-14.3c6.6,7,54.8,41.4,49.1,51.4c-6.6,11.6-52.7-38.8-57-43.4c-24.9,22.5,65.2,81.5,44.8,90.5
			c-18.8,8.4-52.3-67.8-58.2-80.4c-24.7,15.5,35.1,105.3,19.8,102.6c-20.9-3.6-34.4-76.6-34.1-95.5c-25.8,9.7,19.9,89.9,7,102.9
			c-8.3,8.3-27.1-103.4-34.1-107.7c-45.9,190.1,267,307.7,391.8,374.4c229.7,122.9,464.3,240,689.9,370.1
			c151.9,87.6,341.2,218.3,523.6,215.1c75.4-1.3,157.4-53.4,144.5-140C2677.2,2638.4,2541.6,2588.9,2467.1,2548.1z M1571.4,2384.2
			c-36.3,12.5-15.1-29.3-10.2-37.2c10.2-16.7,45.4-31,58.7-51.7c13-20.2,32.8-150.5,50.1-149.9c43.7,1.7,10.7,108.3,3.4,128
			C1655.3,2322,1621.9,2366.7,1571.4,2384.2z M1913.4,2470.6c-48.4,173.8-414.6-136-164.5-152.9c-54.2-70.1,57.6-89.4,102.4-61.8
			c29.2,18,86.9,82.5,24.1,101.8C1907.6,2384.6,1924.8,2429.4,1913.4,2470.6z M2107,2514.1c-10.4-6.6-20.9-12.9-31.7-18.8
			c-5,14-30.2,68.2-52.9,42.6c-22.4-25.2,25.5-38,18.5-60.4c-5-16.2-80.6-17.3-59-50.4c15.4-23.7,47.7,2.1,64.5,10.3
			c0.1-11.6-6.5-47.9,18-46.5c31.1,1.8,12.5,38.2,19.9,53.7c7.8,16.2,41.7,24.6,46.5,42.5C2134.1,2499.7,2130.5,2529.2,2107,2514.1z
			"/>
		<path class="st2" d="M1776.3,2289.6c0,0,0.1,0.1,0.1,0.2c0.3,0.6,2.5,4,2.1,3.6c11.6,14.6,29.6,19.7,46.9,23.9
			c10.1,2.4,17.8,4,27.5,4.2c2.5,0.1,4.9,0,7.4-0.1c1.1-0.1,1.4-0.1,1.5-0.1c-0.1,0-0.3-0.1,1.9-0.5c0.3-0.1,0.5-0.1,0.8-0.2
			c0-0.3,0-0.4,0.2-0.1c0,0,0,0,0.1,0c0-0.1,0-0.1,0,0c0,0,0,0,0,0c-0.3-0.6-0.9-1.5-0.9-1.4c-2.1-4-4.9-6.7-8.2-10.1
			c-6.4-6.4-13.5-12-20.4-17.8c-1.2-0.5-2.4-1.1-3.5-1.9c-9-6.8-19.7-12.3-29.3-13.5c0,0-4.7-0.2-6.5-0.2c-0.8,0-4.1,0.4-4.4,0.3
			c-2,0.4-4,1-6,1.5c-0.5,0.1-0.9,0.3-1.1,0.3c-0.7,0.3-1.4,0.7-2.1,1.1c-0.6,0.3-2.4,1.6-3.3,2.1c-0.6,0.6-1.7,1.6-2.3,2.2
			c-0.2,0.3-0.5,0.7-0.6,1.1c-1.5,3.2,1.6-3.2-0.5,1.2c-0.1,0.1-0.1,0.4-0.2,0.6c0,0.1,0,0.3,0,0.4c0.3,0.4,0.9,1.8,0,0.2
			c0,0,0-0.1,0-0.2c0,0,0,0-0.1-0.1c0,0.1,0,0.2-0.1,0.3c0.1,0.3,0.2,0.7,0.4,1.5C1776.1,2288.9,1776.2,2289.3,1776.3,2289.6z"/>
	</g>
</g>
</svg>
