<?xml version="1.0" encoding="utf-8"?>
<!-- Generator: Adobe Illustrator 22.0.0, SVG Export Plug-In . SVG Version: 6.00 Build 0)  -->
<svg version="1.1" id="Слой_2" xmlns="http://www.w3.org/2000/svg" xmlns:xlink="http://www.w3.org/1999/xlink" x="0px" y="0px"
	 viewBox="0 0 300 300" style="enable-background:new 0 0 300 300;" xml:space="preserve">
<style type="text/css">
	.st0{fill:#68C6BF;}
</style>
<g>
	<path class="st0" d="M84.8,34.8c-0.6,5.8,5.1,10.7,10.6,11c5.2,0.3,15.3-3.6,12.6-10.7c-0.1-0.2-0.1-0.4-0.1-0.6
		c-3.8-1.5-7.9-2.3-12.2-2.3c-3.7,0-7.4,0.7-10.9,1.9C84.8,34.3,84.8,34.5,84.8,34.8z"/>
	<path class="st0" d="M119.9,67.1c2.7,1.3,7.5,2.5,10.3,0.5c0-0.3,0-0.6,0-0.9c-0.3-7.6-2.9-14.8-7.2-20.6c-0.2,0.1-0.5,0.2-0.8,0.2
		c-6.6,0-10.1,7.5-8.6,13.3C114.4,63,116.8,65.6,119.9,67.1z"/>
	<path class="st0" d="M84.4,85.3c-5.2-3.6-12-2.9-16.4,1.5c4.6,6.4,11.2,11.2,19.1,13.3c0.1-0.1,0.1-0.1,0.2-0.2
		C92.4,97.1,87.4,87.4,84.4,85.3z"/>
	<path class="st0" d="M197.6,93.3c-2.9,1.5-4.1,4.6-3.1,7.6c3.9-1.7,7.3-4.8,9.4-8.5C202,91.5,199.2,92.4,197.6,93.3z"/>
	<path class="st0" d="M248.5,123.5v2.3L212.8,144l-5.5-6.5v-21.7c10.5-7,17.8-18.8,17.3-31.8c-0.9-20.9-16.9-38.5-38.5-38.5
		c-6.8,0-13.4,2-19.2,5.4c-0.1-0.1-0.3-0.2-0.5-0.3c-9-2.8-18.1-5.7-27.1-8.5c-2.2-4.2-5-8-8.6-11.2c-10-9.2-22.2-14.9-36.1-14.9
		c-13.1,0-26.8,5.7-36.1,14.9C49.6,39.8,42.9,54.3,43.5,67c0.6,13.2,4.9,26.9,14.9,36.1c4.4,4,9.2,7.4,14.3,9.9h0v20.9H60v-1.2h-3.2
		v18.5H60V149h12.8v54.3H121v16.5h12l-35.2,63.8h7.3l31.9-57.8v0l1.4,43.5h4l0.4-44.6l31.6,58.9h7.7c0,0-34.5-63.8-34.3-63.8H158
		v-16.5h49.3v-36.5l5.5-6l36.5,17.8l0.3,1.8h3.3v-56.8H248.5z M199.3,68c0.4-0.5,0.9-0.9,1.5-1.2c1.7-1.6,4-2.6,7-2.6
		c13.6,0,13.7,20.9,0.4,21.3c-7.2,1.2-11.9-6.3-11-12.5C197.2,71,197.9,69.2,199.3,68z M186.8,51.6c8.6,0,11.8,8.3,9.6,14.6
		c-0.6,2.8-3.7,4.1-6.5,4.6c-4.5,0.9-8.6-0.2-12.1-3.2c-0.4-0.3-0.5-0.7-0.5-1C174.9,60.3,178,51.6,186.8,51.6z M174.7,68.6
		c0,0,0.1,0.1,0.1,0.2c0.2,0.6,0.3,1.1,0.3,1.7c0,0.3,0.1,0.6,0.3,0.9c0.5,3.1,0.4,6.3-1.7,8.9c-1.5,1.9-3.5,2.9-5.7,3.2
		c0,0,0,0,0,0.1c-0.9,0.2-1.8,0.3-2.8,0.3c-13.7,0-13.7-21.3,0-21.3C170.1,62.6,173.2,65.2,174.7,68.6z M122.1,42.9
		c0.1,0,0.1,0,0.2,0c0.6-0.1,1.3-0.2,2-0.2c8.5,0,14.8,7,15.2,15.2c0.3,6.2-4,11.7-9.5,14c0,0,0-0.1,0-0.1c-1.2,0.4-2.5,0.4-3.9,0.3
		c-0.1,0-0.1,0-0.2,0c-6.3-0.1-13.1-4.9-15.1-10.4C107.7,53.6,112.8,43,122.1,42.9z M116,128.5c-10.7,0-21.3-0.5-32-0.3
		c-2.5,0-2.5-3.9,0-3.9c10.7-0.1,21.3,0.3,32,0.3C118.5,124.5,118.5,128.5,116,128.5z M116.2,139.1H99.4c-5.2,0-10.6-0.6-15.8,0
		c-2.5,0.3-2.5-3.7,0-3.9c5.2-0.6,10.6,0,15.8,0h16.8C118.7,135.1,118.7,139.1,116.2,139.1z M114.5,107.9c-5,0-9.2-2.4-11.9-6.1
		c-0.7-2-1.7-3.9-2.3-6c0-0.1,0-0.2,0-0.3c-0.7-5.5,2.3-11.7,6.9-14.6c5.5-3.6,15.5-3.7,19.2,2.7c1.9,2.6,3.1,5.8,3.3,9.2
		C130.1,101,122.4,107.9,114.5,107.9z M96.3,75.8c-10.5,0-10.5-16.3,0-16.3C106.8,59.5,106.8,75.8,96.3,75.8z M96.5,20.6
		c8.5,0,14.8,6.9,15.2,15.2c1.5,7.8-8.3,13.3-15,13.4c-7.4,0.2-15.6-5.8-15.3-13.7c0,0-0.1,0-0.1,0C81.1,27.4,88.6,20.6,96.5,20.6z
		 M59.3,70.3c-4-2.8-6.5-7.4-6.7-12.5c-0.4-7.9,6.7-14.6,14.3-15.1c1.4,0.1,2.8,0.4,4.1,0.8c0.2,0.1,0.3,0.1,0.5,0.1
		c8.1,2.8,13.3,13.4,9.8,21.5c-3.2,7.5-15.1,11.6-21.5,5.8C59.5,70.6,59.4,70.5,59.3,70.3z M63.1,92.8c-0.1-2.8,0.7-5.4,2.1-7.7
		c0.3-0.4,0.7-0.8,1-1.1c0,0,0,0,0,0c6.1-5.6,15.8-5.9,21.9,0.1c3.9,3.8,6.8,13.7,2.1,17.9c-2.9,3.6-7.4,6-12,6
		C69.7,107.9,63.4,101,63.1,92.8z M83.3,129.7c10.6,0,21.2,0.2,31.8,0.2c2.5,0,2.5,3.9,0,3.9c-10.6,0-21.2-0.2-31.8-0.2
		C80.8,133.6,80.8,129.7,83.3,129.7z M83.4,140.9c11-0.1,22-0.2,33-0.2c2.5,0,2.5,3.9,0,3.9c-11,0-22,0.1-33,0.2
		C80.9,144.8,80.9,140.9,83.4,140.9z M95.6,185.9c-10.5,0-10.5-16.3,0-16.3C106.1,169.6,106.1,185.9,95.6,185.9z M121.1,186
		c-10.5,0-10.5-16.3,0-16.3C131.6,169.7,131.6,186,121.1,186z M116.4,112.9c5.3-2.5,10.2-5.9,14.2-9.9c8.8-8.8,15.5-23.4,14.9-36.1
		c-0.3-7.2-1.8-14.5-4.6-21.1c7.6,2.4,15.1,4.7,22.7,7.1c-9.9,7.1-16.7,18.5-16.1,31c0.5,11.4,5.5,21.8,13.5,28.9H116.4z
		 M182.6,102.3c-1.1,4-4.4,7.4-9.8,7.4c-12.3,0-13.5-17.1-3.8-20.6c0,0,0,0.1,0,0.1c3.4-1.3,8-0.4,10.5,1.8c2.1,1.9,2.9,4.6,3.3,7.3
		C183.1,99.8,183,101.1,182.6,102.3z M187.1,86.1c-4.6,0-4.6-7.2,0-7.2C191.8,78.9,191.8,86.1,187.1,86.1z M201.5,110.1
		c-5.1,0-8.3-3-9.6-6.7c-2.3-4.8-0.8-10.4,4-13c3.2-1.7,7.7-2.6,10.6-0.4C214.9,94.4,213.3,110.1,201.5,110.1z"/>
	<path class="st0" d="M177.8,93.9c-1.4-1.6-5.1-2.6-7.5-1.7c2,3.9,5.2,7,9.2,8.7c0.2-0.6,0.2-1.2,0.1-2.1
		C179.3,97.1,179,95.2,177.8,93.9z"/>
	<path class="st0" d="M205.8,81.4c-0.6-3.9-2.2-7.5-4.7-10.4c-0.3,0.4-0.5,0.9-0.6,1.4c-0.3,1.5,0.1,3.3,0.5,4.5
		C201.8,79.3,203.6,80.9,205.8,81.4z"/>
	<path class="st0" d="M188.4,67.7c1.5-0.2,4.1-0.6,4.6-2.2c-1.9-0.6-3.9-1-6-1c-2.1,0-4.2,0.4-6.2,1.1
		C183,67.3,185.5,68.1,188.4,67.7z"/>
	<path class="st0" d="M171.6,77.6c1.1-1.8,0.9-3.9,0.6-5.8c-2,2.4-3.4,5.3-3.9,8.4C169.6,79.8,170.8,78.9,171.6,77.6z"/>
	<path class="st0" d="M108.6,84c-3.1,2.3-5.2,6.6-4.9,10.6c0.1,0.2,0.2,0.5,0.2,0.7c0,0.1,0,0.3,0,0.5c0.2,1.2,0.7,2.3,1.4,3.3
		c0.2,0.1,0.4,0.2,0.5,0.4c7.3-2.4,13.9-7.2,18.3-13.4c-0.1-0.1-0.2-0.2-0.3-0.4C121.1,80.4,112.7,81,108.6,84z"/>
	<path class="st0" d="M78.1,63.7c3.1-6.9-2.4-17.1-10.1-17.6c-4.5,5.8-7.2,12.9-6.8,20.5c0,0.5,0.1,0.9,0.1,1.4
		c0.1,0,0.2,0.1,0.2,0.1c0.1,0.2,0.3,0.4,0.5,0.5c0.4,0.2,0.7,0.4,1.1,0.5C68,72.1,75.9,68.6,78.1,63.7z"/>
</g>
</svg>
