<?xml version="1.0" encoding="utf-8"?>
<!-- Generator: Adobe Illustrator 22.0.0, SVG Export Plug-In . SVG Version: 6.00 Build 0)  -->
<svg version="1.1" id="Слой_4" xmlns="http://www.w3.org/2000/svg" xmlns:xlink="http://www.w3.org/1999/xlink" x="0px" y="0px"
	 viewBox="0 0 300 300" style="enable-background:new 0 0 300 300;" xml:space="preserve">
<style type="text/css">
	.st0{fill:none;}
	.st1{fill:#67C6BF;}
</style>
<path class="st0" d="M41,145"/>
<g>
	<path class="st1" d="M36.4,70.1h15.4c11.3,0,19.8-2.6,25.3-7.8c5.5-5.2,8.3-12.3,8.3-21.5c0-8.9-2.5-15.8-7.6-20.6
		C72.6,15.4,65,13,54.9,13H8.2v90.9h28.2V70.1z M36.4,31.5h8c5.2,0,8.8,1,10.7,3c1.9,2,2.9,4.4,2.9,7.3c0,2.9-1.1,5.3-3.3,7.2
		c-2.2,1.9-6,2.8-11.4,2.8h-6.9V31.5z"/>
	<path class="st1" d="M117.3,81.8c0-10.5,1.3-17.7,3.9-21.6c1.8-2.7,4.4-4.1,7.7-4.1c1.7,0,4.1,0.6,7.1,1.9l7.8-18
		c-4.4-2.3-8.5-3.5-12.2-3.5c-3.6,0-6.5,0.9-9,2.6c-2.4,1.8-4.8,5-7,9.6V38H92v65.9h25.4V81.8z"/>
	<path class="st1" d="M152.5,97.3c6.5,5.4,15.1,8.1,25.7,8.1c11.9,0,21.2-3.2,27.9-9.7c6.7-6.5,10.1-14.8,10.1-24.9
		c0-9-2.7-16.6-8.1-22.8c-6.7-7.6-16.7-11.5-29.9-11.5c-11.5,0-20.7,3.3-27.5,9.8c-6.8,6.5-10.2,14.8-10.2,24.8
		C140.4,81.9,144.4,90.7,152.5,97.3z M169.3,58.1c2.4-2.8,5.4-4.2,9.1-4.2c3.5,0,6.4,1.4,8.7,4.2c2.4,2.8,3.5,7,3.5,12.7
		c0,6.1-1.2,10.6-3.5,13.3c-2.3,2.8-5.3,4.2-9,4.2c-3.6,0-6.6-1.4-9-4.2c-2.4-2.8-3.6-7.2-3.6-13C165.7,65.3,166.9,61,169.3,58.1z"
		/>
	<path class="st1" d="M246.9,72.3c0-6,1-10.1,2.9-12.5c1.9-2.3,4.4-3.5,7.4-3.5c2.8,0,4.9,0.9,6.4,2.6c1.5,1.7,2.3,4.6,2.3,8.8v36.2
		h25.4V62c0-8.7-2-15.1-5.9-19.3c-3.9-4.2-9.4-6.2-16.4-6.2c-5.2,0-9.5,0.9-13.1,2.8c-3.6,1.9-7.2,5-10.7,9.4V38h-23.5v65.9h25.2
		V72.3z"/>
	<path class="st1" d="M232.6,190.1c-3.4,0-6.2,1.3-8.4,3.8c-2.2,2.5-3.3,6.4-3.3,11.6c0,5.7,1.1,9.8,3.2,12.3
		c2.1,2.5,4.8,3.8,8.1,3.8c3,0,5.6-1.3,7.6-3.8c2-2.5,3.1-6.7,3.1-12.6c0-5.2-1-9-3-11.5C237.9,191.4,235.4,190.1,232.6,190.1z"/>
	<path class="st1" d="M285.4,115.9H14.6c-6.6,0-12,5.4-12,12v146.2c0,6.6,5.4,12,12,12h270.8c6.6,0,12-5.4,12-12V127.9
		C297.4,121.3,292,115.9,285.4,115.9z M108.3,223.8c-2.4,5.5-5.7,9.6-10,12.3c-4.2,2.7-8.9,4.1-14.1,4.1c-4.4,0-8.5-1-12.2-2.9
		c-2.8-1.5-5.8-4.3-9.1-8.4v9.7H39.4v-90.9h25.5v31.5c2.5-2.6,5.4-4.6,8.6-6c3.2-1.3,6.7-2,10.6-2c8,0,14.7,2.9,19.9,8.7
		c5.2,5.8,7.9,14,7.9,24.8C111.9,212,110.7,218.3,108.3,223.8z M186.8,238.6h-23.6V228c-3.5,4.4-7.1,7.5-10.6,9.4
		c-3.6,1.9-8,2.8-13.2,2.8c-6.9,0-12.4-2.1-16.3-6.2c-3.9-4.2-5.9-10.6-5.9-19.2v-41.9h25.4V209c0,4.1,0.8,7.1,2.3,8.8
		c1.5,1.7,3.7,2.6,6.4,2.6c3,0,5.5-1.2,7.4-3.5c1.9-2.3,2.9-6.5,2.9-12.5v-31.7h25.2V238.6z M264.5,223.8c-2.4,5.5-5.7,9.6-10,12.3
		c-4.2,2.7-8.9,4.1-14.1,4.1c-4.4,0-8.5-1-12.2-2.9c-2.8-1.5-5.8-4.3-9.1-8.4v9.7h-23.6v-90.9h25.5v31.5c2.5-2.6,5.4-4.6,8.6-6
		c3.2-1.3,6.7-2,10.6-2c8,0,14.7,2.9,19.9,8.7c5.3,5.8,7.9,14,7.9,24.8C268.1,212,266.9,218.3,264.5,223.8z"/>
	<path class="st1" d="M76.4,190.1c-3.4,0-6.2,1.3-8.4,3.8c-2.2,2.5-3.3,6.4-3.3,11.6c0,5.7,1.1,9.8,3.2,12.3
		c2.1,2.5,4.8,3.8,8.1,3.8c3,0,5.6-1.3,7.6-3.8c2-2.5,3.1-6.7,3.1-12.6c0-5.2-1-9-3-11.5C81.7,191.4,79.2,190.1,76.4,190.1z"/>
</g>
</svg>
