<?xml version="1.0" encoding="utf-8"?>
<!-- Generator: Adobe Illustrator 22.0.0, SVG Export Plug-In . SVG Version: 6.00 Build 0)  -->
<svg version="1.1" id="Слой_3" xmlns="http://www.w3.org/2000/svg" xmlns:xlink="http://www.w3.org/1999/xlink" x="0px" y="0px"
	 viewBox="0 0 3000 3000" style="enable-background:new 0 0 3000 3000;" xml:space="preserve">
<style type="text/css">
	.st0{fill:#68C6BF;}
</style>
<g>
	<path class="st0" d="M2177.5,311.2c-18.6-18.6-42.9-42.3-69.8-30.8c-16.4,7-69.1,86.1-66.8,87.7
		C2098.7,394.3,2135.8,347.3,2177.5,311.2z"/>
	<path class="st0" d="M2135.1,489.1c62.9,131.1,96.1,281.3,141.2,419.4c22.3,68.5,44.2,137.1,64.3,206.3
		c19.1,65.9,31.1,138.3,64,199.2c71.8-50.5,143.7-101.1,215.5-151.6c13.8-9.7,82.1-43.9,87.3-61.4c3.3-11.1-22.4-50.8-27.4-61.8
		c-14.7-32.1-29.5-64.2-44.5-96.1c-34.8-74.1-70.5-147.9-108.5-220.5c-37-70.7-73.4-146.1-135-198.9c-46-39.4-101.6-68.2-159.4-85.9
		c-48.2-14.8-105.3-31.6-153.4-35.5C2102.2,427.8,2120.2,458.1,2135.1,489.1z"/>
	<path class="st0" d="M1689.1,1300.6c21.5,42.8,116.1,48.5,156.5,52.4c176.8,17.2,360.4-6,535.2-32.6
		c-14.2-27.7-23.9-57.4-32.4-87.2c-42.1-146.9-86.9-292.5-134.9-437.6c-40.6-122.9-62.9-280.9-153.8-378.7
		c-22-23.7-31.2-35.2-59.5-26.8c-23.9,7.1-50.5,31.6-69.5,46.3c-44.9,34.6-85.8,74.6-123.8,116.5c-36.8,40.6-62.2,79.4-78,132.9
		c-45.8,154.9-45,326.8-43.3,487C1685.8,1204,1674.6,1271.6,1689.1,1300.6z M1997.1,1203.9c-22.6-31.8,4.8-21.3,3.8-43.3
		c-0.9-19.9-25.2-29-27.3-48.5c-2.5-24.5,12.5-40.3,36.9-41.9c8.9-0.6,37.5,15.9,43.3,11.8c21.9-15.7-24.6-40.2-11.6-67.8
		c18.4-39.2,52.2-12.7,71.9,2.4c-0.6-3.9,19.7-40.3,23.4-44.1c20-20.9,67.6-23.9,79.9,8.5c11.2,29.7-29.8,54.9-18.1,82.7
		c10.7,25.6,55.4,25.2,29,67.9c-13,21-37.8,17.9-58.2,21.5c-36.5,6.4-17.4-1.3-18.8,27.6c-1.2,24.7-8.4,41.1-37,44.9
		c-22.9,3-38.9-20.3-58.6-17.5c-3.7,0.5-4.9,11.1-7.8,11.6c-0.2,0-33.5,4.1-31.6,3.4c-19.9,6.6-50.5,40.8-71.6,33.9
		C1906.8,1244.8,1980.8,1214.3,1997.1,1203.9z"/>
	<path class="st0" d="M2772.2,2314C2772.2,2313.8,2772.2,2312.7,2772.2,2314L2772.2,2314z"/>
	<path class="st0" d="M2838.4,1954.8c-20.3-66.7-99.5-79-159.2-69.3c2.1-33.1,42.8-44.9,23.9-84c-21.5-44.4-31.6-3.2-55.5-6.9
		c-33.5-5.2-35-30.3-75.1-41c-31.8-8.5-54,1.3-84.8,4.9c9.7-1.1-21.6,26.9-33.4,27.1c12.5-23.7,20.1-29.2,34.8-46
		c13.5-15.3,48.7-21.4,32-57.8c-18-39.3-49-6.4-70.6-23.1c-18.7-14.5-3.7-55.7-35.6-73.2c-40.6-22.2-104.7,14-133.1,42.4
		c-19.1,19-21.9,44.1-49.7,47.9c-28.1,3.9-58.4-38.8-86.2-11.3c0.5-57.7-62-6.2-89.5-3.8c-30.7,2.6-115.7-39.4-122.4,18
		c-20-23.2-96.8,6.8-118.3,19.1c-31.7,18.3-31.7,71.4-58.5,82.4c-26.6,11-27.8-20.1-41.4-22.5c-74.3-13.4-49.5,59.8-75.5,100.4
		c-13.5-35.5-38.1-45.2-72.5-17.6c-29.3,23.5-18.1,78.2-61.2,95.5c-25.9,10.4-46.9-4.9-73.4,9.2c-9.1,4.8-10.8,27.3-19.9,33
		c-16.4,10.2-46.9-2.8-56.3,3.8c-2.9,2.1-7.7,0.1-11.4,3.2c-9.3,7.8,4.1,44.7,0,56c-22.5,62.2-64.9,24.1-99.2-2.4
		c-11.4,17.8-7.2,39.2-15.1,58c-13,30.9-31.9,32.8-51.7,50.5c-16.4,14.7-23.3,34.1-45.7,46.5c0.8-0.4-41.4,11.8-43.8,16.7
		c-11.8,24.4,29.3,29.3,48.6,26.5c-83.4,80.9-199.5,106.3-304.5,146.8c-84.3,32.6-249.5,74.6-299.7,152
		c-37.2,57.4-13.3,187.9,72.4,186.6c33.4-0.5,85.2-46.9,112.4-63.5c54.7-33.3,110.6-59.8,171.1-80.8
		c57.1-19.8,115.8-34.7,174.5-48.8c12.4-3,65.5-25,77.2-18.1c5.1,3,23.9,54.9,34.5,64c39.9,34.4,80.8,21.9,124.2,8
		c50.4-16.2,58.7-10.1,110.6,8.7c26.3,9.5,49.6,13.6,69.8,32.2c23.4,21.5,32.2,69.5,77.2,61c95.8-18.2,120.3-116.1,91.6-165.2
		c23.1-12.4,31.8,7.5,53.8,21.2c32.3,20,27.3-7.7,55.4,15.5c1.1,0.9,31.7,4.8,38.3,8.7c5.4,3.2,4.5,26.6,8.5,28.2
		c25.4,10.3,40.2-3.3,36.2-32.6c54.7,84.1,70.2-10,131.9-16.7c15.4-1.7,137.5,43.3,105.5-9.9c34.7,11.1,57.6,5,92.4,24.1
		c23.2,12.7,52.2,35.7,80.6,34.1c83.3-4.8,12.6-83.4-21.3-111.8c30-2.4,54,34.9,82.3,43.6c25.1,7.7,55,7,81.1,12.9
		c41.6,9.5,99.2,33.7,74.7-36.7c24.4,26.4,137.6,89.9,109.4,5.5c38.3,26.5,109.7,19.9,87.4-42c37.2,20.2,123,13,149.1-27.4
		c33.8-52.4-50.1-83.2-43.1-125.4c2.5-15.3,38.4-20,46.8-33.8c25.9-43-9-31.7-18.8-52.4c-12.8-27.1,1.3-73.6-42.8-84.6
		c83.6-58-31.2-88.1-13.5-141.8C2755.2,1964,2852.9,2002.5,2838.4,1954.8z M627.4,2650.1c-8.4,102.1-119.1-24.7-58.4-81.3
		C619.8,2521.3,630.5,2611.7,627.4,2650.1z M828.7,2565.2c-4.7-42.7-27-84.4-59.6-112.4C810.9,2409,911.2,2516.3,828.7,2565.2z
		 M1092.4,2487.3c-1.2,15.3-15.6,24-29.7,22.4c-15.9-1.8-8.3-34-11.4-49c-8-39.3-31.8-75.5-67.7-94.6c16.4-34.1,64.2-6.5,80.8,10.8
		C1090.4,2404,1095.1,2452,1092.4,2487.3z"/>
	<path class="st0" d="M1520.2,1879.4c9.4-105.6,18.3-211.3,26.8-317c-135.7,46.9-279.7,46.9-421.4,50c-71.5,1.6-143,4.2-214.5,2.9
		c-60.6-1-137.2-22.9-196-15c32.8,147.8,52.3,304.3,96.6,449c24.1,78.7,145.2,155.1,230.3,145.1c25.9-3,73-31.7,97.5-50.3
		c-8.2,6.3,46.8-44.8,45.2-42.2c1.3-2.1,4.5-2.6,6-5.5c10.9-20.6,3.9-47.3,17.7-67.6c49.4-72.9,50.5,12.7,91.2,8
		c16.1-1.9,0.9-15.5,7.3-26.9c12-21.3-9-35.4,14.7-56.3c23.3-20.6,43.2,5.7,62.2-5.4c14.4-8.4,21.1-34.9,39-45.5
		C1409.9,1910.3,1520.9,1879.7,1520.2,1879.4z"/>
	<path class="st0" d="M767.8,1534.8c-18.1-14.1-120.7-51.7-89-1.1c18.6,29.7,83.5,32.7,113.2,36.8c94.3,13,190.6,11.6,285.6,10.2
		c106-1.6,209.9-4.7,315.2-17.5c43.4-5.3,150.6-3.3,175.8-49.1c59.4-107.9-359.4-103.1-409.4-103.2c18.7-56.2-34.4-130.6-45.5-186.3
		c-16.7-83.5-8.7-165.5-4.5-249.5c4.1-80.5-10.5-226.9-130.5-180.8c-126,48.5-29.8,264.5-9.8,348.2c14.3,59.9,27.1,120.7,20.9,182.5
		c-1.7,17.2-5.6,77.4-19.3,89.7c-16.4,14.7-92.3,4.7-116.8,8.5c31.9,34.6,95.7,71.8,103.4,122.6c-62.1,1.3-112.7-68.8-148.3-110.6
		c-57.7-67.7-120.7-129.1-183-192.6c-66.3-67.6-132-135.7-197.4-204.1C374.2,982,319.4,893,255.1,849.1
		c-51.1-35-123.2-14.6-83.5,55.3c38.4,67.7,127.4,132.6,180.5,190.4C485.6,1239.9,611.7,1413.1,767.8,1534.8z M1090.2,1433.3
		c46.3,0,46.8,73.7,0,73.5C1044.4,1506.7,1041.9,1433.3,1090.2,1433.3z M986.1,958.7c-2.1-46.4,73.4-46.8,73.5,0
		C1059.7,1004.9,988.2,1006.5,986.1,958.7z"/>
</g>
</svg>
