<?xml version="1.0" encoding="utf-8"?>
<!-- Generator: Adobe Illustrator 22.0.0, SVG Export Plug-In . SVG Version: 6.00 Build 0)  -->
<svg version="1.1" id="Слой_1" xmlns="http://www.w3.org/2000/svg" xmlns:xlink="http://www.w3.org/1999/xlink" x="0px" y="0px"
	 viewBox="0 0 3000 3000" style="enable-background:new 0 0 3000 3000;" xml:space="preserve">
<style type="text/css">
	.st0{fill:#67C6BF;}
</style>
<g>
	<g>
		<path class="st0" d="M2851.9,2455.5C2851.9,2455.5,2851.9,2455.5,2851.9,2455.5C2851.9,2455.5,2851.9,2455.5,2851.9,2455.5z"/>
		<path class="st0" d="M2934.8,2359.2c-46.5-5.1-120.3-42.6-133.8-82.9c-15.6-46.5-25.3-91.2-48.4-134.4
			c-7.4-13.9-10.2-23-23.6-30.6c-8.3-4.7-28.9-3-34.7-7.6c-11.7-9.5-8.2-21.5-17-34.6c-29-43.1-104.9-23-133.4-58.9
			c-29.4-7.8-56.7-30.9-88.1-25.2c-11.5,2.1-23.3,13-33.2,15.6c-24.6,6.7-2.9,10.4-14.7-10c-22.9-39.4-25.2-90.9-49-130.2
			c-8.9-14.7-54.6-59.1-46.9-73.9c-22.3-1.3-86.4-95.8-102-118.2c-24-34.4-71.2-86.9-76.9-125.3c-12.7-8-18.6-28.6-26.4-40.4
			c-8.4-12.8-18.6-25.6-33-36.1c-43-31.3-97.6-13.9-142.6,1.9c-33.7,11.9-36.9-6-64.7-28.6c-30.8-25.1-60.9-45.7-95.2-63.2
			c-48.8-24.9-99.1-48.3-156.8-48c-40.8,0.2-56.9,15.4-89.6,34.5c-28.5,16.7-51.9,2-86.6,0.8c-33.8-1.2-66.5,13.5-95.9,27.1
			c-25.7,11.9-47.8,26.3-69.2,45.5c-5.7,5.1-44,50.2-52.4,47.6c-1.1-4.9-4.2-12-7.9-15.2c-10.1,6.1-25.1,35-35.4,44.7
			c-8.2,7.7-19,16.6-27.1,25.5c-5.8,6.5-2.3,10.2-8.7,16c-7.4,6.7-23.3,9.1-30.5,17.2c-11.6,13-7.8,25.9-21.8,40.7
			c-7.8,8.2-17.1,10.8-24.8,21.5c-4.2,5.8-0.9,13.4-2.6,17.4c-5,12.2-13.3,6.1-16,22.5c-3.2,19.4,34.7,57.2,18.6,76
			c-6.5,7.6-30,1.4-40.7,6c-9.7,4.2-33.2,19.4-33,30.9c0.6,29.4,41.3-0.4,54.2,18.5c8.5,12.4-23.8,89.7-27.2,103.2
			c-13.5,54.1-15.4,113.8-32.9,166.8c-8.7,26.4-18,53-27.3,79.6c-5.9,16.9-13.8,60.8-25.6,70.3c-23.9,19.2-75.5-7.4-102.2-11
			c-39-5.3-81.2-7.8-121.4-7.9c-23.1,0-74.5,9.9-96.3,0.1c1.9,0.8-21-23-22.1-25c-23.6-44.8-44.4-68.7-100.8-70.4
			c-81.6-2.4-159.6-41.5-237.8-68.8c-10.4-3.6-53.1-30.1-45.1,5.3c3.1,13.6,33.5,22.2,43.4,28.3c29.4,18.3,68.5,43,92.9,66.9
			c-10.5,9.6-55.5,1-69.7-0.5c-25.1-2.7-49.8-8.7-74.4-13.8c-39-8.1-50.7-17.1-72.8,16.5c-22.6,34.3-48,71.4-59.4,110.6
			c-5.6,19.1-7.6,32.7,1.8,50.1c5.8,10.9,44.2,59.2,56.5,62.3c12.5,3.1,43.9-12.1,61.1-14.2c27.5-3.4,55.8-10.1,83.3-11.4
			c71.2-3.3,141.7,22.7,213.3,13.9c30.3-3.7,57.1-4,88.4-4c38.5,0,69,13.5,103.8,27.9c47.9,19.8,96.2,38.5,141.6,61.7
			c52.4,26.8,111.2,66.7,171.1,76.6c43.6,7.2,96.7,14.9,121.9-24.9c16-25.3,19.8-56.4,34.5-83c25.1-45.1,46-94.5,72.6-139.4
			c25.7-43.3,55.9-87,77.9-127.5c15.6-28.8,26.2-55.2,42.4-83.6c5.9-10.4,12.6-31.2,20.1-37.1c16.8-13.2,28.6,0.4,49.3,14.2
			c33.7,22.4,71.8,37.7,102.5,66.1c51.5,47.6,102.6,95.3,147.3,151.1c12,14.9,19.2,26.6,25.8,47.8c7.7,24.9,13.8,63.5,38.8,75.4
			c18,8.5,41.2-1.1,58.6-1.8c11.7-0.4,26.1,1.9,35.9,3.6c2.7,0.5,12.7-5.3,13.1-5.1c15.1,6.4,10.9,12.4,16.9,28.2
			c10.1,26.6,24.6,51.2,50.8,62.9c13.9,6.2,27.5,5.6,41.9,5.6c15.9,0,36.7-11.8,50.4-8.4c25.6,6.5,36,51.8,49.8,71.1
			c23.2,32.4,62.4,64.6,92,92.2c39,36.4,162.7,88.1,191.4,8.4c12.6-34.8,7.9-97.3,0.6-133.7c-5-24.9-18.3-40.8-31.5-61.7
			c-4.3-6.9-42.5-71.2-6.3-56.9c2.1,2.2-4.2,15.3,1,15.7c5.9,0.5,14.5-6.8,17.6-6.4c33,4.6,60.6,22.7,92.1,36.4
			c56.7,24.6,123.7,12.5,184.6,16.1c10.1,0.6,107.2-1.5,110.4,5.5c6.2,13.7-39.2,25.5-44.4,41.2c-11.5,35,20.4,46.7,46.8,48.7
			c30.3,2.2,62.2,0,92.5-1.9c13.5-0.8,54.7,6.5,61-1.7c-10.5-33-160.3,11.7-167.4-30.6c-4.2-25.1,135-44.9,150.3-47.6
			c13.4-2.3,24.5,2.1,33.2-11.4c15.7-24.4-11.1-26.5-20.5-39.2c-11.8-16.1-27.9-8.4-1.2-21c7.1-3.4,27.7-2.1,34.1-2.3
			c13.2-0.4,35.2,9.5,42.4,8.8c9.4-0.9,17.1-1,20.6-7.6C2938.8,2382.4,2939.6,2359.7,2934.8,2359.2z M2064.2,1766.8
			c-22-10.7-62.9-19.9-74.7-43.5c-5.3-10.5-14.6-82.2-6.3-91c32.3,16.8,40.5,24.8,53.5,58.6
			C2042,1704.8,2070.1,1754.4,2064.2,1766.8z M2756.8,2204.1c-9.1-19.2-14.3-39.7-28.1-56.4c-8-9.7-19.9-15.8-24.7-26
			c27.3-5.4,50.1,39.4,57.7,59.3c4.5,11.7,27.8,72,23.4,77.5C2775,2256.3,2760.5,2211.8,2756.8,2204.1z M2828.2,2428.8
			c-9.5,16.3-45.8,18.3-61.1,25.3C2757.1,2412.6,2825.8,2409.6,2828.2,2428.8z"/>
		<path class="st0" d="M2423.5,1998.4C2423.5,1998.4,2423.5,1998.4,2423.5,1998.4z"/>
		<path class="st0" d="M2195.5,1642.2C2195.5,1642.2,2195.5,1642.2,2195.5,1642.2L2195.5,1642.2z"/>
		<path class="st0" d="M1054.9,1704.3C1054.9,1704.3,1054.8,1704.3,1054.9,1704.3z"/>
		<path class="st0" d="M2141,1556.6C2141,1556.6,2141,1556.6,2141,1556.6L2141,1556.6z"/>
	</g>
	<path class="st0" d="M1260.3,686.5c5.7-48.1-80.2-23.9-79.4,27.5C1182.1,784.2,1276.8,732.9,1260.3,686.5z"/>
	<path class="st0" d="M1436.5,2744.1c10,0.8,11.5-8,22.2-7.9c16,0,15.8,7.5,27.5,14.3c8,4.6,1.7,8.9,17.9,13c8,2.1,8.8,0,16.2-2
		c31.8-9.1,12-25.7,34.9-41.6c19.6-13.6,39-1,43.4,20.9c2.2,10.9-3.3,16.8-4.5,27.2c-1,9,14.7,8.2,4.4,19.4
		c-10.7,11.7-50.5,0.1-64.7,2.4c-34.6,5.6-86.8,49.6-105.2-0.5c11.3-1.6,9.6-9.7,1-19.6c-3.6,5.4-33-11-43-0.8
		c-13.4,13.7,16.6,16.2,29.9,15.8c-2.8-1.6-5.7-3.3-8.5-4.9c-2.9-14.5,18.2,12,16.1,10.6c-23.4,0-34.9-11.1-55.9-17.2
		c-5.8-1.7-24.9,0.5-28.6-2c-22.8-15.6,1.9-14-2.6-22c-23.2-40.8-63-28.2-101.6-43.8c34.8-47.8-53.8-34.5-6.2,0.6
		c-13.1,14.7-56.8,3.4-74.9,2.5c1.5-3.4,1.9-6.8,1.3-10.4c-2.2,0-29.9,16.2-33.3,17.7c-14.7,6.9-26.6,6.8-37.9,21.1
		c-1.3-25.1,37.8-24.3,52.8-35.1c22.9-16.4,11.5-35.6,25.2-53.6c29.6-39,42.2,12.7,61.6,17.9c25.9,6.9,23-24.4,42.3-28.5
		c38.2-8.1,27,37.3,40.5,55.6c25.9,35,32.8-6.5,62.1,5.7c31.2,12.9,2.5,43.8,32.6,58.7C1420.5,2767,1435.9,2761.8,1436.5,2744.1z"/>
	<path class="st0" d="M1097.7,2755.6c-11.2-1.5-15.5-6-13-13.5c31.9,2.4,71.9,6.7,105.4,13.6c19,3.9,112.3,4.4,95.6,34.3
		c-4.5,8-53.9,8-61.4,1.6c-7.5-6.4-5.4-22.3-6.4-23.2C1195.1,2748.3,1123.8,2755.6,1097.7,2755.6z"/>
	<path class="st0" d="M1439.3,524.4c6.2,6.4,4.6,5.2,1.8,12.1C1437.4,532.6,1433.6,528.1,1439.3,524.4z"/>
	<path class="st0" d="M1432.2,496.8c-24.4-42.9-35.2-90.4-64.5-131.9c-27.6-39-52.7-66.7-93.7-96.1c-68.4-49-152.7-76.3-236.6-81.2
		c-141.4-8.2-313.2,63.6-365.7,203.4c-21.8,57.8-32.7,108.2-31.9,169.8c0.6,43.1,9.6,86.2,24.3,126.9
		c14.7,40.9,51.6,80.1,60.9,119.6c0.4,1.9-5.4,45.1-2.2,40.1c-6.8,10.6-35.7,15.7-47.4,19.5c-34.1,11.1-56.7,0.3-77.4-25.9
		c-20.1-25.5-28.2-58.8-54.9-77c-28.8-19.6-78.8-46.5-115.1-37.3c-24.4,6.2-55.7,31.7-67.5,54.1c-4.7,9,1.6,21.7-7.2,29.1
		c-9.9,8.3-56.5-21.3-73.2-22.5c-44.5-3.3-44.2,34.6-76.7,48.3c-23.3,9.8-55-5.7-78.9-5.5c-77.7,0.7-79.7,99.9-15.1,128.6
		c29.8,13.2,62.6,20.2,93.8,29.5c52.7,15.7,103.8,38,157,52c20.8,5.5,29.7,4.4,44.4,20.6c13.6,14.9,20.8,38.6,28.3,57.1
		c17.1,42,29.4,87.8,33.2,133.1c6.8,81.3,1.1,150.5,37.3,227.1c17.1,36.3,43.5,77.5,84.1,89.6c30.3,9,65.1,7.9,96.4,12
		c52.9,7,125.2,35.8,178.1,27.1c51.1-8.4,106.3-81.9,110.7-131.5c3.5-39.3,0.5-31.1,31.4-62.4c12-12.2,27.2-29.6,36.6-41.2
		c55.8-69.1,84.7-150.3,10.5-213.7c-44.4-37.9-151.8-90.6-114.8-158.2c4.7-8.6,13.9-27.4,23.7-31.7c19.1-8.4,59.3-1.7,82.9-1.8
		c26.9,0,50.6-6,80-3.6c-23.1-12.2-33.5-7.2-55.6-4c-22.9,3.3-40.3-1.8-60-18.2C956.7,899,943,832.5,938.2,771
		c-6.9-90-14.2-194.7-73.4-263.9c-22.1-25.8-51-44.1-78.5-63.6c-20.5-14.5-67.7-35-81.5-56.3c-8.7-13.5-4.1-45.1,21.7-47.4
		c17-1.5,54,34.9,70,45.8c59.4,40.6,109.6,71.4,183.1,70.8c42.6-0.4,85.6-7,125.6-18.7c63.2-18.4,126.9-49,194.5-38.4
		C1358.1,408.7,1411.1,459.9,1432.2,496.8z M673,1131.2c-9,10.9-27.3,52.9-38.7,56.9c-14.5,5.1-30.5-20.4-41.4-33.6
		c-29.6-35.9-53.3-75.7-78.1-115.1c9.1-0.5,23.6,15.4,32.9,19.4c15.1,6.4,35.9,6.8,51.7,11.3C622.2,1076.6,701.6,1096.5,673,1131.2z
		 M927.7,1075.3c0.8,1.3,0.5,2.2-0.9,3C927.1,1077.3,927.4,1076.3,927.7,1075.3z M860.3,922.6c6.4-7.7,71.9,31.9,80.5,37
		C930.7,987.9,859.4,938.3,860.3,922.6z M840.8,981.9c6-11,59-0.5,62.6,9.8c3.4,9.8-13.2,25.1-12,39c-11.4-3.7-30-9.1-39.1-17.9
		C831.5,992.9,842.4,1009.7,840.8,981.9z M749.1,1392.1c9.5-4.8,65.6-53,75.8-36.5c2.9,4.7-20.1,34.8-21.3,44.1
		c-2.3,18.8,6,32.8,17.3,46.4c-21.7,11.7-109.3-29.1-127.6-42.2C711.2,1397.2,728.4,1402.5,749.1,1392.1z"/>
	<path class="st0" d="M1461.9,655.1c0.7-13.2-16.7-116-22.5-116.5c-4.8,8.5,10.6,23.7,3.8,30.7c-15.6,3-18.3-22.3-24.4-28.4
		c-13.3-13.4-29.2-22-45-31.8c-26.4-16.3-58.9-34.5-88.8-40.3c-55-10.6-109.8,18.3-152.2,51.8c-100.9,79.9-144.7,200.8-103,322
		c33.8,98.2,150.7,142.2,244.3,102.2c58.9-25.2,106.8-68,140.6-123c18.4-30,29.8-58.8,38.2-92.9
		C1459,703.6,1456.3,679.8,1461.9,655.1z M1269.5,738.8c-16.3,26.5-53.3,59.6-87.1,44.3c-8.9-4-47.5-55.7-19.4-58
		c5.2,26.5,12.9,47.4,44,46.6c-13.7-14.3-29-9-38.7-31.3c-12.9-29.6,4.5-67.2,29-84.7C1265.1,607.2,1305.3,680.7,1269.5,738.8z"/>
</g>
</svg>
