<?xml version="1.0" encoding="utf-8"?>
<!-- Generator: Adobe Illustrator 22.0.0, SVG Export Plug-In . SVG Version: 6.00 Build 0)  -->
<svg version="1.1" id="Слой_1" xmlns="http://www.w3.org/2000/svg" xmlns:xlink="http://www.w3.org/1999/xlink" x="0px" y="0px"
	 viewBox="0 0 1500 3000" style="enable-background:new 0 0 1500 3000;" xml:space="preserve">
<style type="text/css">
	.st0{display:none;}
	.st1{display:inline;fill:#D9F1EF;stroke:#000000;stroke-miterlimit:10;}
	.st2{display:inline;fill:#ABDFDC;stroke:#000000;stroke-miterlimit:10;}
	.st3{display:inline;}
	.st4{display:inline;fill:#7C5961;}
	.st5{display:inline;fill:#3D5B4B;}
	.st6{display:inline;fill:#5F876F;}
	.st7{fill:#67C6C0;}
	.st8{fill:#57A8D5;stroke:#4F4F4F;stroke-miterlimit:10;}
	.st9{fill:#5BB1D1;stroke:#4F4F4F;stroke-miterlimit:10;}
	.st10{fill:#5FB9CE;stroke:#4F4F4F;stroke-miterlimit:10;}
	.st11{fill:#253636;}
	.st12{fill:#5B4B32;}
	.st13{fill:#3F4B4B;}
</style>
<g class="st0">
	<path class="st1" d="M829.2,422.8c-0.6,0.4-1.2,0.8-1.7,1.3c-0.1,0.1-0.1,0.2-0.2,0.3c-0.3,0.4-0.7,1-0.6,1.6
		c0.1,0.1,0.1,0.3,0.3,0.4c0.1,0.1,0.2,0.1,0.2,0.1c0.3-0.2,0.7-0.1,1,0l0.5,0.1c0.1,0,0.2,0.1,0.3,0.1c0.3-0.1,0.6-0.1,0.9,0
		c-0.3-0.6-0.5-1.3-0.7-2C829,424.1,829.1,423.4,829.2,422.8z"/>
	<path class="st2" d="M741.1,409.8c-0.3-0.1-0.6-0.1-0.9-0.1C740.5,409.7,740.8,409.7,741.1,409.8
		C741.1,409.8,741.1,409.8,741.1,409.8z"/>
	<path class="st2" d="M746.5,420.7c-1.9-0.4-3.7-1-5.5-1.7C742.8,419.7,744.6,420.3,746.5,420.7z"/>
	<path class="st2" d="M798.8,538.4c-4.5-0.5-9.1-1.1-13.6-1.6c-5-0.6-9.7-1.2-14.1-3.7c-3.6-2-6.7-4.8-9.8-7.4
		c-3.9-3.1-7.6-6.3-11.5-9.5c-0.2-0.1-0.3-0.1-0.5-0.2c4,3.2,7.9,6.5,11.9,9.8c3.2,2.6,6.2,5.4,9.8,7.4c4.4,2.5,9.1,3.1,14.1,3.7
		c4.5,0.6,9.1,1.1,13.6,1.6c5,0.5,8.2-0.2,12.4-2.6c1.1-0.7,2.3-1.3,3.5-2c-1.2,0.6-2.3,1.3-3.4,1.9
		C807,538.2,803.8,539,798.8,538.4z"/>
	<path class="st2" d="M832.3,420.2c-0.4,0.9-1.1,2-1,3c0,0.7,0.3,1.5,0.8,2.1c-0.3-0.6-0.6-1.3-0.7-1.9c-0.1-1,0.6-2.1,1-3
		c0.1-0.1,0.1-0.2,0.2-0.1c1.8-0.9,3.9-1.6,6-2c2.4-0.4,4.7-0.4,7,0c0.4,0.3,0.8,0.7,1,1.1c-0.3-0.6-0.7-1-1.1-1.3
		c-2.3-0.4-4.6-0.4-7,0c-2.1,0.4-4.1,1.1-6.1,1.9C832.3,420.1,832.3,420.1,832.3,420.2z"/>
	<path class="st1" d="M849.5,423.8c0,0.1,0,0.1,0,0.2c0,0,0,0.1,0,0.1c-0.1,1.1-0.4,2.2-1,3.2c3.4-0.4,6.5-1.7,8.7-4.9
		c-2.6-1.3-5.3-2.6-8.1-3.4c0.1,0.3,0.1,0.5,0.2,0.8C849.8,421.1,849.8,422.4,849.5,423.8z"/>
	<path class="st2" d="M745.3,418.3c3.2-0.2,3.6-5.3,0.1-5.8c-0.2,0-0.4,0-0.6,0c0.2,0,0.3,0,0.5,0C748.9,413,748.5,418,745.3,418.3z
		"/>
	<path class="st1" d="M765.1,418.3c-3-2.9-6.6-5.1-10.6-6.3c1.5,3.2,0.4,6.9-2,9.6c0.5,0.1,1,0.1,1.5,0.1c0.1,0,0.2,0,0.3,0
		c0.6,0.1,1.2,0.1,1.8,0.1c0.6,0,1.1-0.1,1.7-0.1c0.4,0,0.9-0.1,1.3-0.1c1.9-0.2,3.8-0.5,5.7-0.9c0-0.1,0.1-0.2,0.2-0.3
		c0.3-0.2,0.4-0.6,0.5-0.9c-0.1-0.4-0.2-0.7-0.4-1C765.1,418.4,765.1,418.4,765.1,418.3z"/>
	<path class="st2" d="M838.3,424.4c0.9,0.1,1.6-0.3,2-0.9C839.9,424.1,839.2,424.5,838.3,424.4z"/>
	<path class="st1" d="M931.8,1052.1c0.1-0.2,0.3-0.3,0.5-0.5c0.2,1,0.4,2,0.6,3c0.2,0.4,0.3,0.7,0.5,1.1c0.5,1,0.6,2,0.4,2.9
		c5.3,22.9,14.3,44.8,24.1,66.5c-15.5-57.7-23.9-117.3-24.9-177C921.8,981.9,917.4,1018.8,931.8,1052.1z"/>
	<path class="st1" d="M734.7,412.7c-1.2,0.4-2.4,0.7-3.5,1.1c1,0.7,2.1,1.4,3.1,2C734.2,414.7,734.3,413.7,734.7,412.7z"/>
	<path class="st2" d="M820.5,490.3c1.8-1.8,2.5-4.2,0.4-7c-0.4-0.5-0.8-1-1.3-1.5c0.6,2.1,1.1,4.2,1.1,6.3c0,0.2,0,0.5,0,0.7
		C820.7,489.3,820.7,489.8,820.5,490.3z"/>
	<path class="st1" d="M1054.4,1570.6c-0.2,0.2-0.4,0.3-0.6,0.4c-0.3-1.9-0.6-3.8-0.9-5.7c-1.3-9.1-2.3-18.2-2.9-27.3
		c-0.5-8.6,0.3-17.9-2.2-26.2c-2.5-8.4-8.5-15.6-12.2-23.5c-3.6-7.5-6.4-15.4-8.6-23.4c-4.5-16.3-7-33.2-10.2-49.8
		c-1.6-8.1-3.5-16.1-5.7-24.1c0.5,29,0.4,58-0.5,86.9c-0.6,19.8-2.6,39.2-5.8,58.5c3.2,6.8,6.4,13.6,7.7,21s0.3,14.4-1.9,21.5
		c-4.5,14.4-8.6,28.7-10.9,43.7c0.4-0.3,0.8-0.7,1.2-1l-0.1,2.6c-0.3,0.6-0.6,1.1-0.9,1.7c0.2,0.7,0.3,1.5,0.2,2.3
		c-3.1,20.9-0.1,42.5,8.6,61.7c0.4,0.4,0.7,0.7,1.1,1.1c0.5,0.6,0.9,1.3,1.1,2c2.1-1.5,4.1-2.9,6.2-4.4c1.3-1,2.6-1.9,4-2.8
		c-0.4-0.7-0.6-1.5-0.5-2.4c0.5-7.5,0.3-15-1-22.4c-1-5.7-2.8-11.4-2.5-17.3c0.7-10.7,6-20.1,14.5-26.6c1,0.2,2,0.3,3,0.3
		c2.8,0,5.6-0.7,8.1-2c0.3,3.9,0.3,7.8,0.3,11.7c0,6.9,0.8,13.3,2.4,20c2.7,11.4,4.7,23.1-3.2,32.9c-3.7,4.5-8.6,7.8-13.3,11.2
		c-6,4.3-11.9,8.5-17.9,12.8c-5.3,3.8-10.9,7.3-15.8,11.6c-1.8,1.6-3.7,3.4-5.2,5.4c-0.8,1.2-1.7,2.5-2.2,3.9
		c-0.2,0.5-0.4,0.9-0.5,1.4c0.4,0.1,0.7,0.2,1,0.4c15-6.7,29.7-14.1,44.1-22.1c4.1-2.2,8.1-4.5,12.1-6.9c3.1-1.8,8.1-3.8,10.5-6.6
		s2.6-7.9,3.5-11.4c1.1-4.7,2.2-9.3,3.2-14c3.9-18.6,6.1-37.8,2.1-56.7C1061,1596.1,1056.4,1583.6,1054.4,1570.6z"/>
	<path class="st2" d="M1034.4,1675.4c5.7-6.2,5.1-13.8,3.4-21.5c-1.5-6.8-3.2-13.3-3.6-20.3c-0.1-2.2-0.1-4.5-0.1-6.7
		c-6.2,6-9,14.9-7.6,23.4c1.8,10,3.5,19.4,3.3,29.4C1031.4,1678.3,1033,1676.9,1034.4,1675.4z"/>
	<path class="st1" d="M974.3,1181.4c-11.9-29.6-27.2-57.7-38.5-87.5c-4.6-12.2-8.3-24.7-10.9-37.4c-17.2-38.7-11.1-81.5,3.1-120.2
		c2.4-3.5,4.5-7.2,6.2-11.2c0.1-0.1,0.1-0.1,0.2-0.1c3.4-5.2,6.9-10.3,10.2-15.6c7.6-12.4,12.9-25.6,15.6-39.8
		c-15.3,6.9-31,12.6-47.1,17.2c-31.9,9.2-64.8,14.2-97.8,16.7c-16.6,1.3-33.3,2.1-49.9,1.9c-16.1-0.2-32.3-2.1-47.3-8.4
		c-4.7-2-2.6-9.7,2.1-7.7c16.9,7.1,35.1,8.3,53.3,8.1c62.2-0.7,126-9.4,183.2-34.9c-33-33.6-56.9-75.5-69.1-121
		c-1.5-5.6,7.2-8,8.7-2.4c3.7,13.9,8.5,27.4,14.4,40.4c-0.2-3.6-0.1-7.2-0.1-10.8c0-10.7-0.5-33.4-0.5-34.3
		c0.1-15.6,11.7-49.1-31-58.9c-9.2-2.1-18.2-5.5-27.5-6.7c-8.9-1.1-41.6-6.3-44.7-7.9c-12.1-5-23.9-11.3-32.5-21.2
		c-12.6-14.5-14.7-33.6-16.1-51.9c-22.7-9.2-45.9-19.9-66.3-33.6c-9.2-6.3-15.4-14.4-17.8-25.4c-2.6-11.9-2.4-24.8-3.2-36.9
		c-0.5-6.7,7.7-7.3,8.2-0.6c0.8,12.1,1.4,24.7,4.1,36.6c2.8,12.3,13.5,20.5,23.8,26.4c20.4,11.7,41.4,21.3,63.3,29.7
		c10.4,4,22.9,5.3,33.4,0.1c9.3-4.7,16.2-14,21.6-22.7c23.6-37.8,40.2-82.9,37.6-128c-0.1-0.3-0.2-11.8,0.3-16.3
		c-0.2,0-2.7-0.2-2.9-0.3c-6.6-2.6-13.5-4.5-20.6-3.6c-7.1,1-12,4.8-16.9,9.7c-1,1.1-2.4-0.8-1.4-1.8c5.2-5.2,10.5-9.1,18-10.1
		s24.1,4.2,24.1,4.2c0.8-5.8,2.6-11.9,4.2-17.6c-11.1-2.6-28-0.8-37.8,4.6c-2.4,1.8-4.8,3.9-7,6.1c0,0.1,0,0.1-0.1,0.2
		c-2.3,2.2-3.6,5.1-4.9,7.9h0.1c-0.3,0.8-0.7,1.7-1,2.5c-1.9,9.5-4.3,19.2-4.8,28.9c-0.3,7.3,1.5,14.1,3.7,20.9
		c0.2,0.2,0.5,0.5,0.4,1.1c-0.2,2,0.5,4,1.8,5.5c0.2,0.3,0.3,0.5,0.3,0.7c2.2,3.2,6.4,5.7,6.6,10c0.2,4.1-3.3,6.7-6.6,8.4
		c-0.7,0.6-1.5,1.1-2.5,1.6c-1.4,0.7-2.9,0.9-4.4,0.9c-3.3,0.7-5.8-1.5-8.8-2.7c-2.5-1.1-5.4-1.9-8.2-1.4c-2.5,0.5-4.2,1.8-6.7,1.9
		c-2.7,0.1-5.2-0.7-6.6-2.3c-2.4-1.8-3-4.8-1.9-8.4c1.1-3.7,3.6-8.9,8.1-8.9c1.5,0,1.2,2.3-0.3,2.3c-2.5,0-4.3,3.9-5.1,5.8
		c-0.6,1.5-1.4,3.6-1,5.2c0.4,1.6,1.3,2.3,2.3,2.8c0.1,0.1,0.3,0.1,0.4,0.2c0.3,0.1,0.6,0.2,1,0.3c3.9,0.8,11.4-1.3,13.4-1.1
		c3.5,0.3,7.4,3.5,11,4.1c4.2-0.3,7.8-1.4,9.5-4.5c2.2-3.9-1.9-11.1-3.1-14.8c-1.2-3.5-2.4-7.1-3.4-10.7c-4.6-16-0.4-31.7,2.8-47.5
		c0.1-0.4,0.3-0.6,0.6-0.8c0.1-0.1,0.1-0.1,0.1-0.2c0-0.2,0-0.3,0.1-0.5c1.4-3.1,2.9-6.1,5.3-8.5c1.9-2,4.1-3.9,6.2-5.6
		c-1.6-1.9-2.8-4.1-3.6-6.5c-0.1-0.4-0.1-0.7,0.1-1c0-0.3,0.1-0.6,0.3-0.8c0-0.1,0-0.1,0-0.1c0-0.1,0-0.1,0-0.1
		c0.1-0.1,0.1-0.1,0.2-0.2c0.1-0.1,0.3-0.2,0.5-0.3c6.1-3.5,13.8-3.4,20.6-3.4c7.4,0,16.8,1.1,24,2.7c-1.4-16.9-5.4-34-8.1-50.7
		c-2.6-16-6.7-32.2-16-45.7c-7.9-11.5-18.3-21.9-28.7-31.2c-12.3-11-23.6-15.4-39.5-18.1c-15-2.5-32.7-4.5-47.5,0.1
		c-9.9,3.2-20.7,10.1-29.8,15.9c-0.4,0.3-0.8,0.7-1.3,1c-1.1,0.6-2.2,1.2-3.2,1.9c-0.2,0.2-0.5,0.4-0.8,0.6
		c-15.7,10.2-29,23.8-39,39.6c-8.5,13.6-16.1,28.9-18.9,53.8c-0.5,4.5-1.6,18.6-1.7,20.7c2-0.3,4.3-0.2,6.7,0.5
		c5.7,1.6,10.4,5.4,14.4,9.7c4.6,5.1,8.2,12.3,14.5,15.3c1.8,0.8,0.2,3.4-1.5,2.6c-5.5-2.7-8.7-8.2-12.5-12.8
		c-4.4-5.3-9.6-10.5-16.4-12.1c-1.9-0.4-3.6-0.5-5.1-0.4c-3.5,0.1-7,2.1-8.5,5.2c-5.8,8.4-5.5,24.6-4.6,32.6
		c1.6,14.5,3.5,30.1,12.3,42.2c2.9,4,6.6,7.6,10.8,10.2c2.9,1.9,6.3,4,9.6,3.9c2.2,0.5,4.4,0.6,6.2-0.3c3.8-2,1.8-7,3.2-10.3
		c0.7-1.8,3.6-1,2.9,0.8c-1.3,3.1,0.4,6.6-1.5,9.6c-1.2,1.9-3.2,2.8-5.3,3.2c-1.8,0.4-3.5,0.3-5.3,0.1c2.6,12.3,4.4,24.7,4.4,37.6
		c-0.1,15.9-2.3,31.9-6.8,47.2c-2.9,10.2-7.1,20.1-13.8,28.2c-5.9,8.2-56.5,13.4-79.6,16.9c-23.9,3.6-48.8,11.4-62.2,33
		c-11.2,18.1-12.9,40.2-11.1,61.1c0.9,0.8,1.5,1.9,1.5,3.4c0.8,34.7,3.4,45.9,6.9,78.4c3.1,28.3,2.3,58.6,2.3,87.1
		s2.9,56.5,5.4,84.8c2.4,27.2,1.8,53.6-4.4,80.3c-6,26.2-14.7,52-13.2,79.2c0,1.1-0.2,1.9-0.7,2.6c-2,30.9-4,61.8-5.2,92.7
		c-2.3,59-1.8,118.5,6.7,177.1c2.1,14.5,5.1,28.9,7.5,43.3c2.4,14.3,3.1,28.9,2,43.4c-2.2,30.1-7.1,60-10.9,89.9
		c-0.1,0.5-0.2,0.9-0.4,1.3c-1.1,17.8-1.6,35.6-1.5,53.4c0,7.8-0.7,16.3,1.3,23.9c1.8,6.9,6.4,12.6,10.9,17.9
		c8.8,10.5,18.7,20,29.5,28.5c20.1,15.8,43.1,27.6,67.6,34.8c-22.4-50.9-42.2-106-28.6-162c0.9-3.7,6.4-4.5,8.2-1.1l13.6,26.4
		c3.8,7.4,8.5,14.8,7.5,23.4c-1,8.4-4.7,15.5-2.7,24.1c1.1,4.9,3.4,9.4,6.6,13.2c1.7-10.8,3.5-21.5,5.3-32.2
		c1.1-6.5,2.1-12.9,3.2-19.4c1-6.1,2.7-12.6,2-18.8c-0.6-5.4-3.1-10.3-5.1-15.2c-1.8-4.6-3.4-9.2-4.9-13.9
		c-3.1-10-5.6-20.1-8.4-30.2c-2.8-9.9-5.9-19.7-10.5-28.9c-4.5-8.9-10.6-16.9-15.8-25.4c-5.4-8.8-9.2-17.9-10.5-28.1
		c-0.5-3.1-0.7-6.2-0.9-9.3c-0.1-0.1-0.2-0.1-0.3-0.2v-6c0.2-2.1,0.3-4.2,0.3-6.4c0-1.5-0.2-2.9-0.5-4.3c0-2.5,0-5-0.1-7.5
		c-0.5-22.7-0.9-45.3-1.4-68c-0.3-0.6-0.6-1.3-0.6-2.2c-0.7-23,5.4-45.6,9.6-68.1c15.2-81.1,22.2-163.7,21.2-246.2l-0.1-0.1
		c0.4-1.9,0.3-3.8-0.1-5.7c0-0.5,0-0.9-0.1-1.4c1.7-18,3.2-36,4.5-54c4.8-67.7,6.5-135.6,5.2-203.4c-0.1-5.8,8.9-5.8,9,0
		c0.4,19.5,0.5,39.1,0.4,58.6c-0.1,18.9-0.5,37.7-1.1,56.5c0.1,0.2,0.2,0.5,0.3,0.8c0.1,0.3,0.2,0.7,0.3,1.1
		c0.1,0.1,0.1,0.1,0.1,0.2c0.3,0.7,0.7,1.2,1.1,1.8c0.4,0.6,0.7,1.3,0.7,2c4.7,11.3,9.6,22.6,15.3,33.4c0.6,1.2,1.3,2.5,2,3.7
		c0.4,0.8,0.8,1.7,1.3,2.5c1.7,2.7,3.2,5.5,4.5,8.4c0.1,0.2,0.6,1.5,1,2.3c0.3,0.6,0.7,1.7,1,2.4c6.9,25.1,14,50.3,19.7,75.7
		c1.5,6.8,2.9,13.7,4,20.6c0.3,6.5,1.4,12.9,2.5,19.2c0.3,1.5,0.5,3.1,0.8,4.6c0.1,0.5,0.3,2.5,0.4,2.7c0.3,2.7,0.4,5.5,0.4,8.2
		c0.1,6.9-0.1,13.7-0.5,20.6c-5.6,46.4-18.9,92.1-32.3,136.8c0.4,0,0.9,0,1.3,0c-23.4,64.4-48.2,128.4-61.3,195.7
		c0.3,11.7-0.2,23.9,3.7,35.1c3.4,9.5,9.5,17.7,15,26c11.5,17.7,17.2,37.3,22.6,57.5c2.7,10,5.5,20.1,9.4,29.8
		c3.9,9.7,6.7,17.8,5.2,28.4c-3.3,23.5-7.7,46.8-11.6,70.2c-0.4,2.8-4.4,4.3-6.6,2.7c-12.6-8.8-19.3-24.1-16.5-39.3
		c0.9-4.7,3.4-9.6,2.9-14.6c-0.5-4.9-3.8-9.7-6-14l-8.3-16c-1.3,8.6-1.8,17.2-1.7,25.8c0.5,0.5,0.9,1.1,1.2,2
		c7.9,25.7,17,50.9,26.6,76c33.8,88,73.9,174.8,86.9,269c0.8,1,1.2,2.2,0.9,3.7c-5.8,31.9-25.8,59.2-39.7,87.9
		c-25.5,52.7-42.1,110.8-42.1,169.7c0,29.9,5.1,58.8,13.2,87.6c7.4,26.4,15.6,53.2,14.8,80.7c0.5,0.7,0.8,1.6,0.7,2.8
		c-2.3,26.8-1.5,53.8-0.3,80.6c1.6,34.8,4,70,1.1,104.8c0.4,0.8,0.5,1.8,0.4,2.8c-4.3,30.4-10.6,60.5-19,90
		c-2.1,7.4-5.2,15.1-4.9,22.9c0.3,6.6,3.9,12.2,7.6,17.5c3.6,5.1,7.5,9.9,10.1,15.6c2.8,6,4.2,12.3,4.8,18.9
		c1.2,12.8-0.4,25.8-1.2,38.5c-0.9,13.7-1.7,27.4-2.6,41.1c-0.2,3.9-0.5,7.8-0.7,11.7c-0.2,2.9-1,7,0.9,9.5c1.6,2.1,5.1,3.2,7.4,4.3
		c3,1.4,6.1,2.7,9.3,3.8c11.8,4.3,24.3,6.7,36.8,7.9c12.3,1.2,24.6,1.2,36.9,0.6c11.5-0.5,24.7-0.2,35.7-4.2
		c9.7-3.6,17.4-15.3,7.6-23.3c-7-5.6-16.1-7.9-21.8-15.1c-7.2-9.1-5.8-22.4-6.2-33.3c-0.6-13.9-1.1-27.8-1.6-41.7
		c-0.5-13.3-0.9-26.7-2.6-39.9c-1.8-13.9-5.6-27.5-9.4-41c-13.3-48-16.5-96.9-14.2-146.3c-0.1-0.2-0.1-0.4-0.1-0.7
		c-0.3-17.1,1.2-34.2,4.3-51.1c1.1-18.5,2.7-37.1,4.8-55.6c3.3-28.3,7.8-56.5,13.5-84.5c5.8-28.1,14-56,17.4-84.6
		c3.2-27.5,3.1-55.5,10-82.6c6.8-26.5,18.6-51.6,23.5-78.6c0.3-1.5,1.1-2.4,2.1-2.9c3-7.8,6.5-15.3,10.6-22.6
		c5.5-9.7,12.4-18.4,18.1-28c4.4-7.4,7.7-15.3,9.9-23.6c-0.1,0.1-0.1,0.1-0.2,0.1c3.2-21,5-42.2,6.9-63.1
		c3.1-33.7,3.2-67.5,2.9-101.3c-0.1-0.4-0.2-0.9-0.2-1.4c0.9-27.1-0.2-54.2-2.6-81.2c-0.4-4.4-0.8-8.8-1.3-13.2
		c-0.9-0.7-1.6-1.8-1.6-3.4c-0.1-20.1-0.3-40.3-0.7-60.4c-1.5-70.9-5.9-141.9-12.9-212.5c-0.3-2.8,1.6-4.2,3.7-4.3
		c0.5-0.7,1.2-1.3,2.2-1.7c13.2-4.7,24.9-12.4,34.6-22.4c4.1-4.1,10.4,2.3,6.4,6.4c-10.6,10.9-23.4,19.1-37.6,24.4
		c1.9,19.2,3.6,38.5,5.1,57.8c5.4,69,8.1,138.3,8.2,207.5c0.3,0,0.5,0,0.7,0c3.7,32.8,5.8,65.8,5,98.9c0,0.1,0,0.2,0,0.3
		c0.2,20.9,0.4,41.8-0.2,62.7c-0.9,32.6-4.3,65.2-8.6,97.5c0.7,0.9,1.1,2.1,0.8,3.5c-2.2,12-6.4,23.6-12.7,34.1
		c-6.4,10.8-14.2,20.6-20.1,31.7c-4,7.7-7.4,15.7-10.3,23.8c0-0.1-0.1-0.1-0.2-0.2c-6,28.5-19,55-24.8,83.5
		c-5.6,27.6-4.9,56.1-9.3,83.9c-4.5,27.9-12.3,55.3-17.7,83c-8,41.1-13.4,82.6-16,124.4c0.3,0.8,0.4,1.7,0.2,2.7
		c-0.2,1-0.4,2.1-0.6,3.1c-0.1,2.7-0.3,5.3-0.4,8c-0.4,1.3-0.7,2.5-1,3.8c-0.7,2.7-1.1,5.4-1.5,8.2c-1,8.8-1.4,17.6-1.4,26.5
		c0.1,0.5,0.1,1.1,0.2,1.6c-1.5,28.7-1.5,57.6,1.7,86.2c1.8,16,4.6,31.9,8.6,47.5c3.8,15.1,8.7,30.1,11.5,45.5
		c3.2,17.6,4.2,35.6,4.7,53.6c0,0,0.1,0.1,0.1,0.2c7.8,16.8,15.7,33.8,24.9,49.8c3.8,6.6,8.3,13.2,14.9,17.3
		c7.8,4.9,17.3,5.1,26.2,5.4c17.8,0.6,35.6,0.7,53.4,0.3c4.6-0.1,9.2-0.2,13.8-0.4c4.1-0.1,8.7,0.2,12.8-0.7
		c7.1-1.6,5.5-10.3,0.8-13.8c-5.9-4.4-13.1-2.7-19.8-3.4c-6.9-0.6-11.7-4.2-15.2-10c-4.3-7.1-7.6-15-11.3-22.4l-11.8-23.7
		c-7.6-15.3-15.6-30.6-22.4-46.3c-6.8-15.7-11.9-31.9-18.9-47.5c-6.6-14.7-12.6-29.3-15.4-45.2c-0.9-5.1-1.5-10.2-1.9-15.3
		c-0.3-0.7-0.4-1.5-0.3-2.5c0-0.7,0-1.4,0-2.1c0-1-0.1-2-0.1-3c0.1,0,0.1,0,0.2,0c0.8-23.2,1.8-46.5,3.1-69.7c-0.1,0-0.2,0-0.3,0
		c2.4-20.8,5.3-41.6,8.7-62.3c5.2-31.4,11.4-62.5,18.8-93.4c7.4-30.8,16.2-61.2,23.7-92c15.2-62.8,19.3-126.6,18.1-191.1
		c0-0.3,0.1-0.5,0.1-0.8c-0.7-1.2-0.8-2.7,0.1-4.2c10.6-17.8,24.5-33.1,29.9-53.5c4.6-17.5,4.3-35.8,4.5-53.7
		c0.2-18.3,1.5-36.3,5.7-54.2c3.3-14,7.9-27.6,13.3-40.9c0.2,0.2,0.4,0.3,0.6,0.5c18.8-36.8,34.4-75.1,46.6-114.5
		c0.3-1,0.8-1.7,1.4-2.2c7.4-28.2,14.7-56.3,22.1-84.5c8.1-31,16.8-61.8,24.1-93v-0.1c-0.1-0.9,0-1.7,0.3-2.3
		c0.2-0.5,0.5-1.4,0.7-1.9c3.8-16.6,7.1-33.4,8.8-50.3c1.7-16.2,2.2-32.5,2.5-48.8c1.5-68.2-0.9-136.5-6-205.1
		C995.6,1257.5,984,1205.5,974.3,1181.4z M715.6,414.3c6.3-1.5,11.3-5.8,17.4-7.7c5.6-1.8,11.9-2.6,17.7-2.4
		c12.7,0.5,20.1,7.4,24.9,18.6c0.6,1.4-1.5,2.3-2.1,0.9c-2.6-6.3-5.7-11.8-12.2-14.8c-5.9-2.7-12.4-2.7-18.7-1.9
		c-5.4,0.7-10.4,2-15.2,4.6c-3.8,2-7.3,4-11.4,5C714.5,416.9,714.2,414.6,715.6,414.3z M770.4,425.1c-0.2,0.1-0.4,0.1-0.6,0
		c-3.2-0.9-6.2-1.6-9.5-1.4c-0.6,0-1.1,0.1-1.7,0.1c-0.4,0.1-0.8,0.1-1.2,0.1c-0.6,0.1-1.2,0.1-1.8,0.1c-2.7,0-5.4-0.2-8-0.7
		c1-0.3,2.1-0.7,3-1.4c2.3-1.6,4.4-3.7,4.3-6.7c-0.2-2.9-2.4-5-5-5.9c-1.2-0.4-2.8-0.8-4.3-0.8c2.7,0,5.3,0.2,8,0.8
		c5.1,1.2,9.6,3.9,13.2,7.5c0.2,0.1,0.3,0.2,0.4,0.4c1.8,2,3.5,4.2,4.8,6.6C772.6,424.9,771.2,425.7,770.4,425.1z M723.3,414.1
		c6.5-2.4,13.5-4.9,20.5-5.5c0.1,0,0.1,0,0.2,0c0,0,0,0,0,0c0.5-0.1,1-0.1,1.5-0.1c1.5,0,3.1,0.4,4.3,0.8c2.6,0.9,4.9,3,5,5.9
		c0.2,3.1-1.9,5.1-4.3,6.6c-0.9,0.7-2,1.1-3,1.4c-3.6-0.6-7.1-1.7-10.4-3.3c-0.1-0.1-0.2-0.2-0.2-0.3c-2.7-1.3-5.3-2.9-7.8-4.8
		c-0.2-0.1-0.2-0.2-0.3-0.3c-1.6,0.6-3.1,1.1-4.6,1.7C722.8,416.8,721.9,414.6,723.3,414.1z M728.1,419.4
		c11.2,7.2,24.3,9.7,37.4,7.1c1.5-0.3,1.8,2,0.3,2.3c-13.7,2.7-27.4,0-39.1-7.5C725.4,420.4,726.8,418.6,728.1,419.4z M735.2,507.4
		c-0.5,0.9-0.6,1.6,0,2.4c1,1.1-0.9,2.6-1.8,1.4c-2.5-3,0.6-7.4,4.2-7.4c1.5,0.1,1.2,2.4-0.3,2.3
		C736.4,506.1,735.6,506.7,735.2,507.4z M738.4,510c-0.8-0.7-0.3-1.8,0.4-2.1c0.3-0.4,1-0.7,1.6-0.3c2,1.2,3.9,2.1,5.9,2.9
		c-1.4,1.2-1.9,3.5-0.9,5.4C743.1,513.9,740.7,511.9,738.4,510z M788.4,539.6c-0.3,0-0.7,0-1-0.1c-1-0.1-2-0.3-3.1-0.4
		c-7.1-1-13-2.6-19-7c5.9,3.4,12.3,5.8,19,7c1.4,0.2,2.8,0.4,4.4,0.5C788.6,539.6,788.5,539.6,788.4,539.6z M856.8,432.7
		c-8.9,3.1-16.9,1.9-26.1,0.4c-1.4-0.2-1.2-2.5,0.3-2.3c8.6,1.3,16.4,2.7,24.9-0.3C857.3,430,858.3,432.1,856.8,432.7z M834.1,417
		C834.1,417,834.1,417,834.1,417c0.8-0.3,1.6-0.6,2.5-0.8c0.7-0.2,1.3-0.3,2-0.4c-0.6,0.3-1.2,0.7-1.7,1.2
		C836,416.6,835,416.6,834.1,417c0.9-0.3,1.9-0.3,2.8,0.1c0.5-0.5,1.1-0.9,1.7-1.2c2.2-0.3,4.4-0.3,6.5,0c1.6,0.6,3.1,1.6,3.9,3.3
		c0.1,0.2,0.2,0.5,0.3,0.7c0.2,0.7,0.3,1.4,0.3,2.1c0,0,0-0.1,0-0.1c0-0.7-0.1-1.4-0.3-2.1c-0.1-0.2-0.2-0.5-0.3-0.7
		c-0.8-1.7-2.2-2.7-3.8-3.4c4.8,0.7,9.3,2.7,13.9,5c0.8,0,1.4,0.7,1,1.5c-3.3,5.9-8.2,7.4-13.8,7.4c0,0-0.1,0.1-0.1,0.1
		c-4.1,0-8.6-0.8-12.9-1c-1.4-1-2.6-2.2-3.1-3.8c-1-2.7,0.1-5.3,2.3-7C832.9,417.5,833.5,417.2,834.1,417
		C834.1,417,834.1,417,834.1,417z M821.9,430.2c-1.1,0.5-1.9-0.8-1.4-1.7c0-0.2,0.1-0.4,0.2-0.6c3.1-5.1,7.7-9,13.2-11
		c-0.5,0.2-1,0.5-1.5,0.9c-2.1,1.8-3.2,4.4-2.3,7.1c0.6,1.6,1.7,2.8,3.1,3.8C829.3,428.5,825.4,428.7,821.9,430.2z M789.6,511.9
		c5.1,1.5,8.8,3.4,14.4,2.6c3.6-0.5,6.9-1.6,10.6-0.9c6.5,1.2,11.2,6.6,17.7,7.6c0.5,1.1,0.6,2.4,0.1,3.5c0.5-1.2,0.4-2.4-0.1-3.5
		c0.4,0,0.7,0.1,1.1,0.1l0.1-0.1c0.4,0.2,0.9,0.3,1.4,0.4c0.3,0,0.7,0.1,1.2,0c-0.1,0.1-0.1,0.3-0.3,0.5c-1.3,1.4-2.6,2.7-4.1,3.9
		c0,0,0,0,0,0c-1.8,1.5-3.7,2.8-5.5,3.9c-1.5,0.7-3,1.4-4.3,2c-1.5,0.7-2.9,1.4-4.4,2.1c0,0,0,0,0,0.1c1.5-0.6,2.9-1.3,4.2-2.1
		c1.3-0.6,2.8-1.3,4.3-2c-2.8,1.7-5.7,3.3-8.6,4.9c0,0,0,0,0,0c-1.5,0.8-2.9,1.6-4.4,2.4c-2.9,1.8-5.6,3.6-9.1,3.8
		c-4.8,0.3-10-1-14.8-1.5c-0.1,0-0.2,0-0.3,0c-0.1-0.1-0.2-0.1-0.3-0.1c-0.3,0-0.7-0.1-1-0.1c-7.9-0.9-15.3-3.5-22.1-7.4
		c-0.5-0.4-1.1-0.8-1.6-1.2c-6.2-4.9-12.2-10-18.3-15.1c-1-1.8-0.5-4.1,0.9-5.3c7.5,2.8,15.1,2.7,23.4,1.5
		C776.4,511,783,510,789.6,511.9z M707.4,396.1c8.2-9.3,19.8-14.3,32-15.3c11.2-0.9,23.2,0.2,33.3,5.3c0.3-0.1,0.6,0,0.9,0.3
		c0.8,0.8,2,0.9,2.6,2c0.5,0.9,0.4,2.1,0.4,3.1c-0.4,2.9-1.9,5.4-3.9,7.5c-0.5,0.5-1,0.3-1.4-0.1c-0.1,0-0.2,0-0.3-0.1
		c-19.3-11.2-42.4-11.4-62-0.8c-0.5,0.2-0.9,0.1-1.2-0.2C707.2,397.4,706.8,396.7,707.4,396.1z M659.9,459.6c-0.7,1.8-3.6,1-2.9-0.8
		c0.2-0.8,0.4-1.5,0.5-2.1c-0.2,0-0.4,0-0.6-0.1c-2.5-0.9-4.1-2.2-5.8-4.3c-1.9-2.4-3.2-4.3-5.2-6.1c-0.3-0.6-0.7-1.1-1.3-1.6
		s-1.4-1-2-1.5c-0.2-0.1-0.3-0.3-0.5-0.5c-0.1-0.2-0.3-0.4-0.5-0.5c-1-1-1.9-2.1-2.9-3.2c-3.4-4-3.5-9.2-1.9-14
		c0.8-1.4,1.6-2.7,2.4-4l0.1-0.1c2.9-3.7,5.6-6.5,10.3-6.6c0-0.4-0.1-0.7-0.1-1.1c-0.5-4.8-1.7-9.8-4.9-13.5
		c-2.3-2.6-5.8-4.2-9.1-4.3c-0.2-0.1-0.3-0.1-0.5-0.1c-1.7,0-3.4,0.6-4.7,1.7c-1.5,0.9-2.7,2.5-3.2,4.2c0-0.1,0-0.1,0-0.1
		c-1.6,4.1-1,9.9-0.7,14.2c0.8,10.3,3.9,20.1,9,29.1c0.9,1.7-1.7,3.2-2.6,1.5c-5.2-9.2-8.4-19.3-9.3-29.8
		c-0.5-6.6-1.1-14.8,3.2-19.8c1.4-1.3,3-2.4,4.7-3.2c1.9-0.9,3.8-0.8,5.9-0.7c0.2,0,0.4-0.1,0.6-0.1c5,0.8,9.5,4.7,11.8,9.4
		c1.8,3.8,2.6,8.1,2.9,12.3c0.2,2.6,0.2,5.3-0.1,7.9c-0.1,1-0.2,2-0.4,3c-0.1,0.9-0.3,1.7-0.5,2.6c0.8,0.1,1.7,0.1,2.5,0.1
		c1-0.8,2.7-0.3,2.6,1.1c-0.3,5.9-2.1,13.9,1.1,19.1C660.3,451.7,661.6,455,659.9,459.6z M872.9,1172.3c-6.1-7.3-7.1-17.6-1.6-25.6
		c3.3-4.8,11.1-0.3,7.8,4.5c-3,4.4-3.4,10.4,0.2,14.7C883,1170.3,876.7,1176.7,872.9,1172.3z"/>
	<path class="st2" d="M749.8,411.1c-0.1,0-0.1,0-0.2,0c-0.8-0.1-1.6-0.1-2.4-0.1c0.8,0,1.5,0.1,2.3,0.1
		C749.6,411.1,749.7,411.1,749.8,411.1z"/>
	<path class="st1" d="M653.5,431.4c-2.5,0.9-5,0.3-5-3.4c0-2.5,1-5.2,1.2-7.8c0.1-1,0.1-2,0.1-3c-4.4,0.1-6.3,3.3-9,6.6
		c-0.3,0.4-0.7,0.8-1,1.2c0,0.1,0,0.1,0,0.2c-1.6,2-1.8,5-1.3,7.4c0.6,3.1,2.7,5.9,5.3,7.9c0.1,0,0.1,0.1,0.1,0.2
		c1.6,1.1,3.4,2.1,5,3.6c3.1,2.9,4.2,7.4,8.3,9.3c-0.9-3.1-3.5-5.6-4-9.3C652.6,440.2,653.2,435.7,653.5,431.4z"/>
	<path class="st2" d="M825.2,527.9c1.3-0.8,2.6-1.7,3.8-2.5c0,0-0.1,0-0.1,0C827.7,526.3,826.5,527.1,825.2,527.9z"/>
	<path class="st2" d="M751.1,411.4c3.1,3.2,1.4,7.4-1.8,9.9c0,0,0.1,0,0.1,0c3.1-2.5,4.8-6.7,1.8-9.9c-0.1,0-0.1-0.1-0.1-0.1
		c-0.1,0-0.2,0-0.4,0C750.8,411.3,750.9,411.3,751.1,411.4C751.1,411.3,751.1,411.4,751.1,411.4z"/>
	<path class="st2" d="M752.7,514.7c0.2,0.1,0.5,0.2,0.8,0.3c2.2,0.4,4.5,0.6,6.8,0.5c9.4-0.2,19-3.9,28.4-1.2
		c3.6,1,6.8,2.9,10.6,3.1c3.6,0.2,7.1-1.1,10.7-1.4c7.3-0.7,12.5,4.7,18.9,6.9c0.1,0,0.1,0,0.2,0c-6.5-2.2-11.7-7.7-19.1-7
		c-3.6,0.3-7,1.6-10.7,1.4c-3.8-0.2-7-2.1-10.6-3.1c-9.4-2.8-19,0.9-28.4,1.2C757.7,515.4,755.2,515.2,752.7,514.7z"/>
	<path class="st3" d="M879.1,1151.2c3.3-4.8-4.5-9.3-7.8-4.5c-5.5,8-4.5,18.3,1.6,25.6c3.8,4.4,10.1-2,6.4-6.4
		C875.7,1161.6,876.1,1155.6,879.1,1151.2z"/>
	<path class="st4" d="M810,516c-3.6,0.3-7.1,1.6-10.7,1.4c-3.8-0.2-7-2.1-10.6-3.1c-9.4-2.7-19,1-28.4,1.2c-2.4,0.1-4.6-0.1-6.8-0.5
		c4.2,1.7,8.5,3.1,13.1,3.8c7.3,1,14.5,1.2,21.5,3.4c0.3,0.1,0.5,0.3,0.6,0.5c4.3,1.6,8.4,2.8,13,1.8c2.4-0.5,4.7-1.2,7.2-1.2
		c3.8,0,7.5,1.2,11.4,1.1c2.9,0,5.8-0.8,8.6-1.5C822.5,520.7,817.3,515.3,810,516z"/>
	<path class="st4" d="M820.1,526.9c-4.4,0-8.7-1.6-13.2-1.1c-3.4,0.4-6.6,2-10.1,1.8c-3.3-0.2-6.6-1.6-9.7-2.8
		c-0.2-0.1-0.4-0.2-0.5-0.4c-8-2.4-16.3-2.1-24.5-3.8c-4.3-0.9-8.4-2.6-12.3-4.4c3.9,3.2,7.6,6.4,11.5,9.5c3.1,2.6,6.2,5.4,9.8,7.4
		c4.4,2.5,9.1,3.1,14.1,3.7c4.5,0.5,9.1,1.1,13.6,1.6c5,0.6,8.2-0.2,12.4-2.6c1.1-0.6,2.3-1.3,3.4-1.9c3.3-1.8,6.8-3.7,10.1-5.7
		c0,0,0,0,0,0c0.2-0.1,0.3-0.2,0.5-0.3c1.3-0.8,2.5-1.6,3.7-2.5C825.9,526.1,823.1,526.9,820.1,526.9z"/>
	<path class="st3" d="M817.4,534.9C817.4,534.9,817.4,534.9,817.4,534.9c2.9-1.6,5.8-3.2,8.6-4.9c-1.5,0.7-3,1.4-4.3,2
		c-1.3,0.8-2.7,1.5-4.2,2.1C817.5,534.3,817.5,534.5,817.4,534.9C817.5,534.8,817.4,534.8,817.4,534.9z"/>
	<path class="st3" d="M746.3,510.5c-2-0.8-3.9-1.7-5.9-2.9c-0.6-0.4-1.3-0.1-1.6,0.3c-0.7,0.3-1.2,1.4-0.4,2.1
		c2.3,1.9,4.7,3.9,7,5.9C744.4,514,744.9,511.7,746.3,510.5z"/>
	<path class="st3" d="M831.7,526C831.7,526,831.7,526,831.7,526c1.5-1.2,2.8-2.5,4.1-3.9c0.2-0.2,0.2-0.4,0.3-0.5
		c-0.5,0.1-0.9,0-1.2,0c-0.5-0.1-1-0.2-1.4-0.4l-0.1,0.1c-0.4,0-0.7-0.1-1.1-0.1c0.5,1.1,0.7,2.3,0.1,3.5
		C832.3,525.1,832.1,525.5,831.7,526C831.8,525.9,831.8,525.9,831.7,526z"/>
	<path class="st3" d="M787.4,539.5c0.3,0.1,0.7,0.1,1,0.1c0.1,0,0.2,0,0.3,0c-1.5-0.2-2.9-0.3-4.4-0.5
		C785.4,539.2,786.4,539.4,787.4,539.5z"/>
	<path class="st3" d="M784.3,539.1c-6.8-1.2-13.1-3.6-19-7C771.3,536.4,777.3,538.1,784.3,539.1z"/>
	<path class="st3" d="M746.4,510.4c-1.4,1.2-1.9,3.5-0.9,5.3c6.1,5.1,12.1,10.2,18.3,15.1c0.5,0.4,1.1,0.8,1.6,1.2
		c6.8,3.9,14.2,6.5,22.1,7.4c0.3,0,0.7,0.1,1,0.1c0.1,0,0.2,0,0.3,0.1c0.1,0,0.2,0,0.3,0c4.8,0.5,10,1.8,14.8,1.5
		c3.5-0.2,6.2-2,9.1-3.8c1.5-0.9,2.9-1.7,4.4-2.4c0,0,0.1,0,0.1-0.1c0-0.3,0-0.5,0-0.7c0,0,0,0,0-0.1c1.5-0.7,2.9-1.4,4.4-2.1
		c1.3-0.6,2.8-1.3,4.3-2c1.9-1.2,3.8-2.5,5.5-3.9c0,0,0,0,0.1-0.1c0.3-0.4,0.5-0.8,0.6-1.2c0.5-1.2,0.4-2.4-0.1-3.5
		c-6.5-1-11.2-6.4-17.7-7.6c-3.7-0.7-7,0.4-10.6,0.9c-5.6,0.8-9.3-1.1-14.4-2.6c-6.6-1.9-13.2-0.9-19.8,0
		C761.5,513.1,753.9,513.2,746.4,510.4z M825.2,527.9c-0.2,0.1-0.3,0.2-0.5,0.3c0,0,0,0,0,0c-3.3,2-6.7,3.8-10.1,5.7
		c-1.2,0.7-2.4,1.3-3.5,2c-4.2,2.4-7.4,3.1-12.4,2.6c-4.5-0.5-9.1-1-13.6-1.6c-5-0.6-9.7-1.2-14.1-3.7c-3.6-2-6.6-4.8-9.8-7.4
		c-4-3.3-7.9-6.6-11.9-9.8c0.2,0.1,0.3,0.1,0.5,0.2c3.9,1.8,8,3.5,12.3,4.4c8.2,1.7,16.5,1.4,24.5,3.8c0.1,0.2,0.3,0.3,0.5,0.4
		c3.1,1.2,6.4,2.6,9.7,2.8c3.5,0.2,6.7-1.4,10.1-1.8c4.5-0.5,8.8,1.1,13.2,1.1c3,0,5.8-0.8,8.8-1.5c0,0,0.1,0,0.1,0
		C827.8,526.3,826.5,527.1,825.2,527.9z M788.7,514.2c3.6,1,6.8,2.9,10.6,3.1c3.7,0.2,7.1-1.1,10.7-1.4c7.4-0.7,12.6,4.8,19.1,7
		c-0.1,0-0.1,0-0.2,0c-2.8,0.7-5.7,1.5-8.6,1.5c-3.9,0.1-7.6-1.1-11.4-1.1c-2.5,0-4.8,0.7-7.2,1.2c-4.6,1-8.7-0.2-13-1.8
		c-0.1-0.2-0.3-0.4-0.6-0.5c-7-2.2-14.2-2.4-21.5-3.4c-4.6-0.7-9-2-13.1-3.8c-0.3-0.1-0.5-0.2-0.8-0.3c2.5,0.5,5,0.7,7.6,0.7
		C769.7,515.1,779.3,511.4,788.7,514.2z"/>
	<path class="st3" d="M707.8,397.8c0.3,0.3,0.7,0.4,1.2,0.2c19.6-10.6,42.7-10.4,62,0.8c0.1,0.1,0.2,0.1,0.3,0.1
		c0.4,0.4,0.9,0.6,1.4,0.1c2-2.1,3.5-4.6,3.9-7.5c0-1,0.1-2.2-0.4-3.1c-0.6-1.1-1.8-1.2-2.6-2c-0.3-0.3-0.6-0.4-0.9-0.3
		c-10.1-5.1-22.1-6.2-33.3-5.3c-12.2,1-23.8,6-32,15.3C706.8,396.7,707.2,397.4,707.8,397.8z"/>
	<path class="st3" d="M742.6,407c6.3-0.8,12.8-0.8,18.7,1.9c6.5,3,9.6,8.5,12.2,14.8c0.6,1.4,2.7,0.5,2.1-0.9
		c-4.8-11.2-12.2-18.1-24.9-18.6c-5.8-0.2-12.1,0.6-17.7,2.4c-6.1,1.9-11.1,6.2-17.4,7.7c-1.4,0.3-1.1,2.6,0.4,2.3
		c4.1-1,7.6-3,11.4-5C732.2,409,737.2,407.7,742.6,407z"/>
	<polygon class="st5" points="744,408.6 744,408.6 744,408.6 	"/>
	<path class="st6" d="M738.9,412.2c-0.1,0-0.1,0.1-0.2,0.1c-2.4,0.8-2.9,4-0.4,5.2c0,0,0.1,0.1,0.1,0.1c0.1,0.1,0.1,0.1,0.1,0.2
		c0.1,0.1,0.2,0.2,0.3,0.4c0.7,0.3,1.4,0.6,2.2,0.9c1.8,0.7,3.6,1.3,5.5,1.7c0,0,0.1,0,0.1,0c0.1,0,0.2,0,0.3,0.1
		c0.8,0.2,1.6,0.3,2.4,0.5c3.2-2.5,4.9-6.7,1.8-9.9c0,0,0-0.1-0.1-0.1c-0.1,0-0.2,0-0.3,0c-0.3,0-0.6-0.1-1-0.1c-0.1,0-0.2,0-0.3,0
		c-0.8-0.1-1.5-0.1-2.3-0.1c-2.3,0-4.6,0.2-6.8,0.5C739.9,411.8,739.4,412,738.9,412.2z M744.8,412.5c0.2,0,0.4,0,0.6,0
		c3.5,0.5,3.1,5.6-0.1,5.8c-0.2,0-0.4,0-0.7,0C741.1,417.8,741.6,412.6,744.8,412.5z"/>
	<path class="st3" d="M729.1,414.8c2.5,1.9,5.1,3.5,7.8,4.8c-1.9-2.6-2.3-6,0.6-8.8c0.8-0.8,1.8-1.1,2.7-1.1c0.3,0,0.6,0,0.9,0.1
		c0.3-0.2,0.7-0.5,1.2-0.7c0.5-0.3,1-0.4,1.5-0.5c-7,0.5-14,3.1-20.5,5.5c-1.4,0.5-0.5,2.7,0.9,2.1c1.5-0.6,3-1.1,4.6-1.7
		C728.9,414.6,728.9,414.7,729.1,414.8z M734.7,412.7c-0.4,1-0.5,2-0.4,3.1c-1-0.6-2.1-1.3-3.1-2
		C732.3,413.4,733.5,413.1,734.7,412.7z"/>
	<path class="st3" d="M766.8,416.8c-3.6-3.6-8.1-6.3-13.2-7.5c-2.7-0.6-5.3-0.8-8-0.8c1.5,0,3.1,0.4,4.3,0.8c2.6,0.9,4.8,3,5,5.9
		c0.1,3-2,5.1-4.3,6.7c-0.9,0.7-2,1.1-3,1.4c2.6,0.5,5.3,0.7,8,0.7c0.6,0,1.2,0,1.8-0.1c0.4,0,0.8,0,1.2-0.1c0.6,0,1.1-0.1,1.7-0.1
		c3.3-0.2,6.3,0.5,9.5,1.4c0.2,0.1,0.4,0.1,0.6,0c0.8,0.6,2.2-0.2,1.6-1.3c-1.3-2.4-3-4.6-4.8-6.6C767.1,417,767,416.9,766.8,416.8z
		 M765,420.4c-0.1,0.1-0.2,0.2-0.2,0.3c-1.9,0.4-3.8,0.7-5.7,0.9c-0.4,0-0.9,0.1-1.3,0.1c-0.6,0-1.1,0.1-1.7,0.1
		c-0.6,0-1.2,0-1.8-0.1c-0.1,0-0.2,0-0.3,0c-0.5,0-1,0-1.5-0.1c2.4-2.7,3.5-6.4,2-9.6c4,1.2,7.6,3.4,10.6,6.3c0,0.1,0,0.1,0,0.2
		c0.2,0.3,0.3,0.6,0.4,1C765.4,419.8,765.3,420.2,765,420.4z"/>
	<path class="st3" d="M741.1,409.8C741.1,409.8,741.1,409.8,741.1,409.8c-0.3-0.1-0.6-0.1-0.9-0.1c-0.9,0-1.9,0.3-2.7,1.1
		c-3,2.8-2.5,6.2-0.6,8.8c0.1,0.1,0.2,0.2,0.2,0.3c3.3,1.6,6.8,2.7,10.4,3.3c1-0.3,2.1-0.7,3-1.4c2.4-1.5,4.5-3.5,4.3-6.6
		c-0.1-2.9-2.4-5-5-5.9c-1.2-0.4-2.8-0.8-4.3-0.8c-0.5,0-1,0-1.5,0.1c0,0,0,0,0,0c0,0,0,0,0,0c-0.1,0-0.1,0-0.2,0
		c-0.5,0.1-1.1,0.2-1.5,0.5C741.8,409.3,741.4,409.6,741.1,409.8z M747.2,411c0.8,0,1.6,0.1,2.4,0.1c0.1,0,0.1,0,0.2,0
		c0.3,0.1,0.6,0.1,1,0.1c0.1,0,0.2,0,0.4,0c0,0,0,0.1,0.1,0.1c3,3.2,1.3,7.4-1.8,9.9c0,0-0.1,0-0.1,0c-0.8-0.1-1.6-0.3-2.4-0.5
		c-0.1,0-0.2,0-0.3-0.1c0,0-0.1,0-0.1,0c-1.9-0.4-3.7-1-5.5-1.7c-0.7-0.3-1.5-0.6-2.2-0.9c-0.1-0.1-0.2-0.2-0.3-0.4
		c0-0.1-0.1-0.1-0.1-0.2c0,0-0.1-0.1-0.1-0.1c-2.5-1.2-2-4.4,0.4-5.2c0.1,0,0.1-0.1,0.2-0.1c0.5-0.2,1-0.4,1.5-0.7
		C742.6,411.1,744.9,410.9,747.2,411z"/>
	<path class="st3" d="M744.6,418.3c0.2,0,0.5,0,0.7,0c3.2-0.3,3.6-5.3,0-5.8c-0.2,0-0.3,0-0.5,0
		C741.6,412.6,741.1,417.8,744.6,418.3z"/>
	<path class="st3" d="M765.8,428.8c1.5-0.3,1.2-2.6-0.3-2.3c-13.1,2.6-26.2,0.1-37.4-7.1c-1.3-0.8-2.7,1-1.4,1.9
		C738.4,428.8,752.1,431.5,765.8,428.8z"/>
	<path class="st3" d="M737.6,503.8c-3.6,0-6.7,4.4-4.2,7.4c0.9,1.2,2.8-0.3,1.8-1.4c-0.6-0.8-0.5-1.5,0-2.4c0.4-0.7,1.2-1.3,2.1-1.3
		C738.8,506.2,739.1,503.9,737.6,503.8z"/>
	<path class="st3" d="M656.7,428.6c0.1-1.4-1.6-1.9-2.6-1.1c-0.8,0-1.7,0-2.5-0.1c0.2-0.9,0.4-1.7,0.5-2.6c0.2-1,0.3-2,0.4-3
		c0.3-2.6,0.3-5.3,0.1-7.9c-0.3-4.2-1.1-8.5-2.9-12.3c-2.3-4.7-6.8-8.6-11.8-9.4c-0.2,0-0.4,0.1-0.6,0.1c-2.1-0.1-4-0.2-5.9,0.7
		c-1.7,0.8-3.3,1.9-4.7,3.2c-4.3,5-3.7,13.2-3.2,19.8c0.9,10.5,4.1,20.6,9.3,29.8c0.9,1.7,3.5,0.2,2.6-1.5c-5.1-9-8.2-18.8-9-29.1
		c-0.3-4.3-0.9-10.1,0.7-14.2c0,0,0,0.1,0,0.1c0.5-1.7,1.7-3.3,3.2-4.2c1.3-1.1,3-1.7,4.7-1.7c0.2,0,0.3,0,0.5,0.1
		c3.3,0.1,6.8,1.7,9.1,4.3c3.2,3.7,4.4,8.7,4.9,13.5c0,0.4,0.1,0.7,0.1,1.1c-4.7,0.1-7.4,2.9-10.3,6.6l-0.1,0.1
		c-0.8,1.3-1.6,2.6-2.4,4c-1.6,4.8-1.5,10,1.9,14c1,1.1,1.9,2.2,2.9,3.2c0.2,0.1,0.4,0.3,0.5,0.5c0.2,0.2,0.3,0.4,0.5,0.5
		c0.6,0.5,1.4,1,2,1.5s1,1,1.3,1.6c2,1.8,3.3,3.7,5.2,6.1c1.7,2.1,3.3,3.4,5.8,4.3c0.2,0.1,0.4,0.1,0.6,0.1
		c-0.1,0.6-0.3,1.3-0.5,2.1c-0.7,1.8,2.2,2.6,2.9,0.8c1.7-4.6,0.4-7.9-2.1-11.9C654.6,442.5,656.4,434.5,656.7,428.6z M648.9,444.3
		c-1.6-1.5-3.4-2.5-5-3.6c0-0.1,0-0.2-0.1-0.2c-2.6-2-4.7-4.8-5.3-7.9c-0.5-2.4-0.3-5.4,1.3-7.4c0-0.1,0-0.1,0-0.2
		c0.3-0.4,0.7-0.8,1-1.2c2.7-3.3,4.6-6.5,9-6.6c0,1,0,2-0.1,3c-0.2,2.6-1.2,5.3-1.2,7.8c0,3.7,2.5,4.3,5,3.4
		c-0.3,4.3-0.9,8.8-0.3,12.9c0.5,3.7,3.1,6.2,4,9.3C653.1,451.7,652,447.2,648.9,444.3z"/>
	<path class="st6" d="M845.6,418.3c-2.3-0.4-4.6-0.4-7,0c-2.1,0.4-4.2,1.1-6,2c-0.1-0.1-0.1,0-0.2,0.1c-0.4,0.9-1.1,2-1,3
		c0.1,0.6,0.3,1.3,0.7,1.9c0.1,0.2,0.3,0.4,0.4,0.5c0.1,0.1,0.2,0.1,0.2,0.2c0.7,0.1,1.4,0.1,2.1,0.2c3.2,0.4,6.9,1,10.5,1.1
		c0.1-0.1,0.2-0.3,0.4-0.4c0-0.1,0.1-0.2,0.2-0.3c1.7-1.4,1.8-5,0.7-7.2C846.4,419,846,418.6,845.6,418.3z M840.3,423.5
		c-0.4,0.6-1.1,1-2,0.9c-3-0.3-2.4-5,0.5-4.6C840.9,420,841.3,422.3,840.3,423.5z"/>
	<path class="st5" d="M849.5,423.8c0.3-1.4,0.3-2.7-0.2-4c0.2,0.7,0.3,1.4,0.3,2.1c0,0,0,0.1,0,0.1c0,0,0,0,0,0
		C849.6,422.5,849.6,423.2,849.5,423.8z"/>
	<path class="st3" d="M836.9,417c0.5-0.5,1.1-0.9,1.7-1.2c-0.7,0.1-1.3,0.2-2,0.4c-0.9,0.2-1.7,0.5-2.5,0.8h0
		C835,416.6,836,416.6,836.9,417z"/>
	<path class="st3" d="M857.2,422.4c-2.2,3.2-5.3,4.5-8.7,4.9c0.6-0.9,0.8-2,1-3.2c-0.1,0.7-0.3,1.3-0.6,2c-0.6,1.5-1.5,2.6-2.6,3.5
		c5.6,0,10.5-1.5,13.8-7.4c0.4-0.8-0.2-1.5-1-1.5c-4.6-2.3-9.1-4.3-13.9-5c1.6,0.7,3,1.7,3.8,3.4c0.1,0.2,0.2,0.5,0.3,0.7
		c-0.1-0.3-0.1-0.5-0.2-0.8C851.9,419.8,854.6,421.1,857.2,422.4z"/>
	<path class="st3" d="M833.2,428.7c-1.4-1-2.5-2.2-3.1-3.8c-0.9-2.7,0.2-5.3,2.3-7.1c0.5-0.4,1-0.7,1.5-0.9c-5.5,2-10.1,5.9-13.2,11
		c-0.1,0.2-0.2,0.4-0.2,0.6c-0.5,0.9,0.3,2.2,1.4,1.7C825.4,428.7,829.3,428.5,833.2,428.7z M829,426.7c-0.1,0-0.2-0.1-0.3-0.1
		l-0.5-0.1c-0.3-0.1-0.7-0.2-1,0c0,0-0.1,0-0.2-0.1c-0.2-0.1-0.2-0.3-0.3-0.4c-0.1-0.6,0.3-1.2,0.6-1.6c0.1-0.1,0.1-0.2,0.2-0.3
		c0.5-0.5,1.1-0.9,1.7-1.3c-0.1,0.6-0.2,1.3,0,1.9c0.2,0.7,0.4,1.4,0.7,2C829.6,426.6,829.3,426.6,829,426.7z"/>
	<path class="st3" d="M830.2,424.9c0.5,1.6,1.7,2.8,3.1,3.8c4.3,0.2,8.8,1,12.9,1c0,0,0.1-0.1,0.1-0.1c1.1-0.9,2-2,2.6-3.5
		c0.3-0.7,0.5-1.3,0.6-2c0,0,0-0.1,0-0.1c0-0.1,0-0.1,0-0.2c0.1-0.6,0.1-1.2,0.1-1.8c0,0,0,0,0,0c0-0.7-0.1-1.4-0.3-2.1
		c-0.1-0.2-0.2-0.5-0.3-0.7c-0.8-1.7-2.3-2.7-3.9-3.3c-2.1-0.3-4.3-0.3-6.5,0c-0.6,0.3-1.2,0.7-1.7,1.2c-0.9-0.4-1.9-0.4-2.8-0.1h0
		c0,0,0,0,0,0c0,0,0,0-0.1,0c-0.5,0.2-1.1,0.5-1.5,0.9C830.3,419.6,829.2,422.2,830.2,424.9z M838.5,418.1c2.4-0.4,4.7-0.4,7,0
		c0.5,0.3,0.8,0.8,1.1,1.3c1.1,2.1,0.9,5.7-0.7,7.2c-0.1,0.1-0.2,0.2-0.2,0.3c-0.2,0.1-0.3,0.3-0.4,0.4c-3.6-0.1-7.3-0.7-10.5-1.1
		c-0.7-0.1-1.4-0.1-2.1-0.2c0-0.1-0.1-0.1-0.2-0.2c-0.1-0.1-0.3-0.3-0.4-0.5c-0.4-0.6-0.8-1.4-0.8-2.1c-0.1-1,0.6-2.1,1-3
		c0-0.1,0-0.1,0.1-0.2C834.4,419.2,836.4,418.5,838.5,418.1z"/>
	<path class="st3" d="M855.9,430.5c-8.5,3-16.3,1.6-24.9,0.3c-1.5-0.2-1.7,2.1-0.3,2.3c9.2,1.5,17.2,2.7,26.1-0.4
		C858.3,432.1,857.3,430,855.9,430.5z"/>
	<path class="st3" d="M838.8,419.8c-2.9-0.4-3.5,4.3-0.5,4.6c0.9,0.1,1.6-0.3,2-0.9C841.3,422.3,840.9,420,838.8,419.8z"/>
	<path class="st3" d="M1062.8,1559.6c0-1.6-0.7-2.7-1.7-3.4c-0.6-4.8-1.1-9.5-1.5-14.3c-0.6-8.6-0.3-17.3-1.5-25.8
		c-1.2-8.7-5.3-15.6-9.7-23.1c-4.4-7.5-7.8-15.5-10.5-23.8c-5.2-16.1-7.9-32.9-10.9-49.5c-3.8-20.7-9.5-40.8-15.9-60.8
		c-0.2-0.5-0.4-0.9-0.6-1.3c-1.1-31.2-3-62.3-5.7-93.3c0.5,0.1-7.6-43.6-14.8-64.8c-3.4-10.1-7.4-20-11.7-29.9
		c0.3-0.8,0.4-1.6,0.2-2.6c-0.9-3.9-1.7-7.8-2.6-11.7c0.1-0.6,0.1-1.3-0.1-2.1c-22.2-70.7-33.6-144.5-33.6-218.7c0-0.1,0-0.2,0-0.3
		v-0.1v-3c0-0.3-0.1-0.7-0.1-1c4.4-6.6,8.9-13.1,12.9-20c7.4-12.9,12.3-27,14.5-41.7c0.2-1.3-0.1-2.4-0.7-3.3
		c0.2-1.2-0.1-2.5-1.3-3.6c-17.8-17.3-33-37-45.3-58.4c0,0,0-0.1,0.1-0.1c-0.4-0.9-0.8-1.8-1.1-2.8c-1.1-3.6-1.8-7.6-1.3-11.3
		c0-0.7,0.1-1.5,0.1-2.2c-0.3-1.8-0.4-3.5-0.2-5.1c-0.3-4-0.1-42.7-0.1-46.7c0-11.5,8.3-43.7-15.5-57.5
		c-15.1-8.7-32.4-14.6-49.6-17.1c-15.8-2.2-55.3-3.8-74.2-24.3c-11-11.9-13.2-28.4-14.5-44c0.1,0,0.3,1.2,0.3,1.2
		c3.5,0.9,10.8,2.6,10.8,2.5c5.9,1.7,12,2.6,18.2,1.4c10.4-2,19.4-8.1,26.4-15.9c8.1-8.9,13.8-19.8,19.4-30.4
		c6-11.4,11.5-23,16-35.1c10.1-26.8,15.7-55.1,14-83.8c0-0.1,0-0.2-0.1-0.4c0-10.4,1.3-20.6,4.2-30.6c0.4-0.4,0.7-0.9,1-1.5
		c0.4-0.8,0.7-1.6,0.9-2.5c0.6-0.9,0.9-2,0.8-3.4c-1.4-17.1-5.6-33.1-8.3-50.1c-2.4-15.4-2.9-26.4-10.5-40.1
		c-7.7-13.8-14.7-22.2-26-33.2c-5-4.9-12.8-13.8-18.9-17.4c-7.4-4.3-21.3-10.3-29.6-11.9c-16.3-3.1-30.5-5.4-47.1-3.1
		c-15,2.1-28.6,7.6-41.6,15.3c-1.3,0.8-2.6,1.6-3.8,2.4c-31.1,19.1-53.7,49.3-62.4,85c-0.4,1.7-2.4,24.5-3,29.5
		c0,0-0.8,9.4-0.8,14.1c-4.4,4-7.1,10.5-8.1,16.9c-1.2,7.2-0.5,14.5,0.3,21.7c0.9,7.4,1.8,14.9,3.7,22.1c3.2,12.2,9.5,24,20.4,30.9
		c1,0.6,2,1.2,3.1,1.7c2,8.7,3.6,17.5,4.3,26.4c1.3,15.9,0.4,32-3,47.6c-2.8,13.2-6.9,27-15.8,37.4c-3.2,2.4-7.2,2.4-10.9,3.3
		c-43.9,11.1-101.5,1-130.5,44.2c-15.2,22.6-16.1,52-12.6,78c0.1,0.6,0.3,1.2,0.5,1.7c0.7,58.8,10.6,91.8,9.8,146.4
		c-0.4,28.5,1.5,56.6,4.3,84.9c2.8,28,4.1,55.5-1.9,83.2c-5.8,27.1-15.2,53.9-14.9,81.9v0.1c-3.9,59.2-7.8,118.6-6.6,178
		c0.6,29.4,2.4,58.8,6.1,88c1.8,14.5,4.2,29,6.9,43.4c2.8,14.7,5.1,29.2,4.7,44.2c-0.4,16.5-2.9,32.8-5,49.2l-6,46.9
		c-0.4,0.6-0.6,1.3-0.7,2.2c-1.1,17.9-1.7,35.9-1.7,53.8c0,8.2-0.4,16.7,0.8,24.8c1.1,7.4,4.4,13.8,8.8,19.7
		c17.4,23,40.6,42,65.9,55.7c14.5,7.8,30,13.9,45.9,18.1c0.8,0.2,1.6,0.2,2.2,0c3.1,1.7,8-2.1,6.1-6.5c-11.5-25.8-23-52.9-29.6-80.7
		c27,76,61.7,149.3,83.6,227c7.3,25.8,13.1,52.1,16.6,78.8c0,0.3,0.1,0.5,0.2,0.7c-5.9,28-22.9,52.1-35.5,77.4
		c-13,26.1-23.8,53.3-31.7,81.3c-15.8,56.1-19.4,115.6-5.1,172.4c8.5,33.8,21.8,67.5,18.3,103c-0.1,1.1,0.1,2,0.6,2.7
		c-2.9,46.6,2.6,93.1,2.8,139.7c0,15.5-0.5,31.1-2.3,46.6c0.1,0,0.2,0,0.3-0.1c-4,25.4-9.3,50.6-16.1,75.4c-3.5,12.7-9.7,26.8-5,40
		c3.9,11,13.3,18.7,17.6,29.4c5.1,12.6,3.5,26.8,2.6,40.1c-0.9,14.7-1.9,29.4-2.8,44c-0.4,6.9-0.9,13.7-1.3,20.6
		c-0.4,6.3-0.4,12.4,4.7,16.9c4,3.6,9.8,5.6,14.8,7.6c4.8,1.9,9.6,3.6,14.5,4.9c27,7.3,55.3,6.8,83,4.6c11.4-0.9,24-1.9,32.8-10.1
		c7.5-7.1,10.5-18.7,4.2-27.6c-5.3-7.4-14.3-9.9-21.4-15.1c-4.8-3.6-6.6-8.4-7.2-14.3c-0.7-7.5-0.6-15.2-0.9-22.8
		c-0.1-3.5-0.2-7-0.3-10.5c4.8,10,9.8,20,15.2,29.8c7,12.7,16.1,24.1,30.8,27.7c8.3,2,17.1,2,25.6,2.2c9.6,0.3,19.1,0.4,28.7,0.3
		c9.2,0,18.5-0.2,27.7-0.5c7.7-0.2,18.1,1.1,24.9-3.2c11.3-7,7-23.3-3-29.1c-6-3.5-12.5-3.7-19.2-3.7c-4.5,0-7.8-0.6-10.6-4.5
		c-2.4-3.5-4.1-7.6-6-11.4c-16.5-33.2-34.7-66-47.6-100.8c-3.4-9.2-6.9-18.3-10.9-27.3c-4-9.1-8.2-18.1-11.1-27.7
		c-3.3-10.9-5.3-22.2-5.9-33.5c0.9-26,2-52,3.5-78c0-0.1,0-0.1,0-0.2c5.7-47.5,13.9-94.7,24.8-141.3c7.2-30.9,15.9-61.3,23.6-92.1
		c7.6-30.5,13.4-61.3,16.6-92.6c3.7-36,4.4-72.3,3.7-108.4c0-0.6-0.1-1.2-0.3-1.6c9-14.9,20.5-28.2,26.9-44.6s7.5-34.4,7.8-51.8
		c0.4-18.6,0.1-37.1,3.4-55.5c2.7-14.8,7-29.3,12.4-43.4l0.1-0.1c19.7-37.8,36.1-77.2,48.9-117.9c0.3,0.1,0.7,0.2,1,0.3
		c5-19,10.1-38.1,15.2-57.1c0.3-1.8,0.8-3.6,1.4-5.3c7.2-27.2,14.4-54.4,21.3-81.7c1.8-12.8,6.2-24.9,9.9-37.3
		c0-1.4-0.1-2.8-0.1-4.1c1.3-5.7,2.5-11.5,3.7-17.2c1.3,3.5,2.3,7,2.7,10.6c0.9,7.8-2,15.1-4.3,22.4c-4.6,14.1-7.7,28.6-9.6,43.3
		c-0.1,0.9,0.1,1.7,0.4,2.3c-2.7,22.4,0.7,44.6,10,65.2c0.3,0.7,0.7,1.2,1.1,1.5l0.1,0.1c0.4,0.4,0.9,0.9,1.3,1.3
		c0.2,0.2,0.4,0.4,0.6,0.5c-2.4,1.7-4.9,3.5-7.3,5.2c-4.8,3.4-9.7,7-13.3,11.7c-3.1,3.9-6.5,10-5.2,15.2c0.6,2.2,1.8,3.7,3.5,4.5
		c1.1,1.9,3.6,3.3,6.2,2.1c17.6-7.7,34.8-16.3,51.5-25.7c4.3-2.4,8.6-4.9,12.8-7.5c3.5-2.1,7.5-4,10.1-7.2c2.4-3,3-6.9,4-10.5
		c1.1-4.6,2.3-9.3,3.3-14c4.6-18.2,7.5-37.5,4.7-56.7C1071.7,1595.9,1063.1,1578.5,1062.8,1559.6z M957.9,1125.1
		c-9.8-21.7-18.8-43.6-24.1-66.5c0.2-0.9,0.1-1.9-0.4-2.9c-0.2-0.4-0.3-0.7-0.5-1.1c-0.2-1-0.4-2-0.6-3c-0.2,0.2-0.4,0.3-0.5,0.5
		c-14.4-33.3-10-70.2,1.2-104C934,1007.8,942.4,1067.4,957.9,1125.1z M1001.6,1463.5c-0.3,16.3-0.8,32.6-2.5,48.8
		c-1.7,16.9-5,33.7-8.8,50.3c-0.2,0.5-0.5,1.4-0.7,1.9c-0.3,0.6-0.4,1.4-0.3,2.3v0.1c-7.3,31.2-16,62-24.1,93
		c-7.4,28.2-14.7,56.3-22.1,84.5c-0.6,0.5-1.1,1.2-1.4,2.2c-12.2,39.4-27.8,77.7-46.6,114.5c-0.2-0.2-0.4-0.3-0.6-0.5
		c-5.4,13.3-10,26.9-13.3,40.9c-4.2,17.9-5.5,35.9-5.7,54.2c-0.2,17.9,0.1,36.2-4.5,53.7c-5.4,20.4-19.3,35.7-29.9,53.5
		c-0.9,1.5-0.8,3-0.1,4.2c0,0.3-0.1,0.5-0.1,0.8c1.2,64.5-2.9,128.3-18.1,191.1c-7.5,30.8-16.3,61.2-23.7,92
		c-7.4,30.9-13.6,62-18.8,93.4c-3.4,20.7-6.3,41.5-8.7,62.3c0.1,0,0.2,0,0.3,0c-1.3,23.2-2.3,46.5-3.1,69.7c-0.1,0-0.1,0-0.2,0
		c0,1,0.1,2,0.1,3c0,0.7,0,1.4,0,2.1c-0.1,1,0,1.8,0.3,2.5c0.4,5.1,1,10.2,1.9,15.3c2.8,15.9,8.8,30.5,15.4,45.2
		c7,15.6,12.1,31.8,18.9,47.5c6.8,15.7,14.8,31,22.4,46.3l11.8,23.7c3.7,7.4,7,15.3,11.3,22.4c3.5,5.8,8.3,9.4,15.2,10
		c6.7,0.7,13.9-1,19.8,3.4c4.7,3.5,6.3,12.2-0.8,13.8c-4.1,0.9-8.7,0.6-12.8,0.7c-4.6,0.2-9.2,0.3-13.8,0.4
		c-17.8,0.4-35.6,0.3-53.4-0.3c-8.9-0.3-18.4-0.5-26.2-5.4c-6.6-4.1-11.1-10.7-14.9-17.3c-9.2-16-17.1-33-24.9-49.8
		c0-0.1-0.1-0.2-0.1-0.2c-0.5-18-1.5-36-4.7-53.6c-2.8-15.4-7.7-30.4-11.5-45.5c-4-15.6-6.8-31.5-8.6-47.5
		c-3.2-28.6-3.2-57.5-1.7-86.2c-0.1-0.5-0.1-1.1-0.2-1.6c0-8.9,0.4-17.7,1.4-26.5c0.4-2.8,0.8-5.5,1.5-8.2c0.3-1.3,0.6-2.5,1-3.8
		c0.1-2.7,0.3-5.3,0.4-8c0.2-1,0.4-2.1,0.6-3.1c0.2-1,0.1-1.9-0.2-2.7c2.6-41.8,8-83.3,16-124.4c5.4-27.7,13.2-55.1,17.7-83
		c4.4-27.8,3.7-56.3,9.3-83.9c5.8-28.5,18.8-55,24.8-83.5c0.1,0.1,0.2,0.1,0.2,0.2c2.9-8.1,6.3-16.1,10.3-23.8
		c5.9-11.1,13.7-20.9,20.1-31.7c6.3-10.5,10.5-22.1,12.7-34.1c0.3-1.4-0.1-2.6-0.8-3.5c4.3-32.3,7.7-64.9,8.6-97.5
		c0.6-20.9,0.4-41.8,0.2-62.7c0-0.1,0-0.2,0-0.3c0.8-33.1-1.3-66.1-5-98.9c-0.2,0-0.4,0-0.7,0c-0.1-69.2-2.8-138.5-8.2-207.5
		c-1.5-19.3-3.2-38.6-5.1-57.8c14.2-5.3,27-13.5,37.6-24.4c4-4.1-2.3-10.5-6.4-6.4c-9.7,10-21.4,17.7-34.6,22.4
		c-1,0.4-1.7,1-2.2,1.7c-2.1,0.1-4,1.5-3.7,4.3c7,70.6,11.4,141.6,12.9,212.5c0.4,20.1,0.6,40.3,0.7,60.4c0,1.6,0.7,2.7,1.6,3.4
		c0.5,4.4,0.9,8.8,1.3,13.2c2.4,27,3.5,54.1,2.6,81.2c0,0.5,0.1,1,0.2,1.4c0.3,33.8,0.2,67.6-2.9,101.3c-1.9,20.9-3.7,42.1-6.9,63.1
		c0.1,0,0.1,0,0.2-0.1c-2.2,8.3-5.5,16.2-9.9,23.6c-5.7,9.6-12.6,18.3-18.1,28c-4.1,7.3-7.6,14.8-10.6,22.6c-1,0.5-1.8,1.4-2.1,2.9
		c-4.9,27-16.7,52.1-23.5,78.6c-6.9,27.1-6.8,55.1-10,82.6c-3.4,28.6-11.6,56.5-17.4,84.6c-5.7,28-10.2,56.2-13.5,84.5
		c-2.1,18.5-3.7,37.1-4.8,55.6c-3.1,16.9-4.6,34-4.3,51.1c0,0.3,0,0.5,0.1,0.7c-2.3,49.4,0.9,98.3,14.2,146.3
		c3.8,13.5,7.6,27.1,9.4,41c1.7,13.2,2.1,26.6,2.6,39.9c0.5,13.9,1,27.8,1.6,41.7c0.4,10.9-1,24.2,6.2,33.3
		c5.7,7.2,14.8,9.5,21.8,15.1c9.8,8,2.1,19.7-7.6,23.3c-11,4-24.2,3.7-35.7,4.2c-12.3,0.6-24.6,0.6-36.9-0.6
		c-12.5-1.2-25-3.6-36.8-7.9c-3.2-1.1-6.3-2.4-9.3-3.8c-2.3-1.1-5.8-2.2-7.4-4.3c-1.9-2.5-1.1-6.6-0.9-9.5c0.2-3.9,0.5-7.8,0.7-11.7
		c0.9-13.7,1.7-27.4,2.6-41.1c0.8-12.7,2.4-25.7,1.2-38.5c-0.6-6.6-2-12.9-4.8-18.9c-2.6-5.7-6.5-10.5-10.1-15.6
		c-3.7-5.3-7.3-10.9-7.6-17.5c-0.3-7.8,2.8-15.5,4.9-22.9c8.4-29.5,14.7-59.6,19-90c0.1-1,0-2-0.4-2.8c2.9-34.8,0.5-70-1.1-104.8
		c-1.2-26.8-2-53.8,0.3-80.6c0.1-1.2-0.2-2.1-0.7-2.8c0.8-27.5-7.4-54.3-14.8-80.7c-8.1-28.8-13.2-57.7-13.2-87.6
		c0-58.9,16.6-117,42.1-169.7c13.9-28.7,33.9-56,39.7-87.9c0.3-1.5-0.1-2.7-0.9-3.7c-13-94.2-53.1-181-86.9-269
		c-9.6-25.1-18.7-50.3-26.6-76c-0.3-0.9-0.7-1.5-1.2-2c-0.1-8.6,0.4-17.2,1.7-25.8l8.3,16c2.2,4.3,5.5,9.1,6,14
		c0.5,5-2,9.9-2.9,14.6c-2.8,15.2,3.9,30.5,16.5,39.3c2.2,1.6,6.2,0.1,6.6-2.7c3.9-23.4,8.3-46.7,11.6-70.2
		c1.5-10.6-1.3-18.7-5.2-28.4c-3.9-9.7-6.7-19.8-9.4-29.8c-5.4-20.2-11.1-39.8-22.6-57.5c-5.5-8.3-11.6-16.5-15-26
		c-3.9-11.2-3.4-23.4-3.7-35.1c13.1-67.3,37.9-131.3,61.3-195.7c-0.4,0-0.9,0-1.3,0c13.4-44.7,26.7-90.4,32.3-136.8
		c0.4-6.9,0.6-13.7,0.5-20.6c0-2.7-0.1-5.5-0.4-8.2c-0.1-0.2-0.3-2.2-0.4-2.7c-0.3-1.5-0.5-3.1-0.8-4.6c-1.1-6.3-2.2-12.7-2.5-19.2
		c-1.1-6.9-2.5-13.8-4-20.6c-5.7-25.4-12.8-50.6-19.7-75.7c-0.3-0.7-0.7-1.8-1-2.4c-0.4-0.8-0.9-2.1-1-2.3c-1.3-2.9-2.8-5.7-4.5-8.4
		c-0.5-0.8-0.9-1.7-1.3-2.5c-0.7-1.2-1.4-2.5-2-3.7c-5.7-10.8-10.6-22.1-15.3-33.4c0-0.7-0.3-1.4-0.7-2c-0.4-0.6-0.8-1.1-1.1-1.8
		c0-0.1,0-0.1-0.1-0.2c-0.1-0.4-0.2-0.8-0.3-1.1c-0.1-0.3-0.2-0.6-0.3-0.8c0.6-18.8,1-37.6,1.1-56.5c0.1-19.5,0-39.1-0.4-58.6
		c-0.1-5.8-9.1-5.8-9,0c1.3,67.8-0.4,135.7-5.2,203.4c-1.3,18-2.8,36-4.5,54c0.1,0.5,0.1,0.9,0.1,1.4c0.4,1.9,0.5,3.8,0.1,5.7
		l0.1,0.1c1,82.5-6,165.1-21.2,246.2c-4.2,22.5-10.3,45.1-9.6,68.1c0,0.9,0.3,1.6,0.6,2.2c0.5,22.7,0.9,45.3,1.4,68
		c0.1,2.5,0.1,5,0.1,7.5c0.3,1.4,0.5,2.8,0.5,4.3c0,2.2-0.1,4.3-0.3,6.4v6c0.1,0.1,0.2,0.1,0.3,0.2c0.2,3.1,0.4,6.2,0.9,9.3
		c1.3,10.2,5.1,19.3,10.5,28.1c5.2,8.5,11.3,16.5,15.8,25.4c4.6,9.2,7.7,19,10.5,28.9c2.8,10.1,5.3,20.2,8.4,30.2
		c1.5,4.7,3.1,9.3,4.9,13.9c2,4.9,4.5,9.8,5.1,15.2c0.7,6.2-1,12.7-2,18.8c-1.1,6.5-2.1,12.9-3.2,19.4c-1.8,10.7-3.6,21.4-5.3,32.2
		c-3.2-3.8-5.5-8.3-6.6-13.2c-2-8.6,1.7-15.7,2.7-24.1c1-8.6-3.7-16-7.5-23.4l-13.6-26.4c-1.8-3.4-7.3-2.6-8.2,1.1
		c-13.6,56,6.2,111.1,28.6,162c-24.5-7.2-47.5-19-67.6-34.8c-10.8-8.5-20.7-18-29.5-28.5c-4.5-5.3-9.1-11-10.9-17.9
		c-2-7.6-1.3-16.1-1.3-23.9c-0.1-17.8,0.4-35.6,1.5-53.4c0.2-0.4,0.3-0.8,0.4-1.3c3.8-29.9,8.7-59.8,10.9-89.9
		c1.1-14.5,0.4-29.1-2-43.4c-2.4-14.4-5.4-28.8-7.5-43.3c-8.5-58.6-9-118.1-6.7-177.1c1.2-30.9,3.2-61.8,5.2-92.7
		c0.5-0.7,0.7-1.5,0.7-2.6c-1.5-27.2,7.2-53,13.2-79.2c6.2-26.7,6.8-53.1,4.4-80.3c-2.5-28.3-5.4-56.3-5.4-84.8s0.8-58.8-2.3-87.1
		c-3.5-32.5-6.1-43.7-6.9-78.4c0-1.5-0.6-2.6-1.5-3.4c-1.8-20.9-0.1-43,11.1-61.1c13.4-21.6,38.3-29.4,62.2-33
		c23.1-3.5,73.7-8.7,79.6-16.9c6.7-8.1,10.9-18,13.8-28.2c4.5-15.3,6.7-31.3,6.8-47.2c0-12.9-1.8-25.3-4.4-37.6
		c1.8,0.2,3.5,0.3,5.3-0.1c2.1-0.4,4.1-1.3,5.3-3.2c1.9-3,0.2-6.5,1.5-9.6c0.7-1.8-2.2-2.6-2.9-0.8c-1.4,3.3,0.6,8.3-3.2,10.3
		c-1.8,0.9-4,0.8-6.2,0.3c-3.3,0.1-6.7-2-9.6-3.9c-4.2-2.6-7.9-6.2-10.8-10.2c-8.8-12.1-10.7-27.7-12.3-42.2
		c-0.9-8-1.2-24.2,4.6-32.6c1.5-3.1,5-5.1,8.5-5.2c1.5-0.1,3.2,0,5.1,0.4c6.8,1.6,12,6.8,16.4,12.1c3.8,4.6,7,10.1,12.5,12.8
		c1.7,0.8,3.3-1.8,1.5-2.6c-6.3-3-9.9-10.2-14.5-15.3c-4-4.3-8.7-8.1-14.4-9.7c-2.4-0.7-4.7-0.8-6.7-0.5c0.1-2.1,1.2-16.2,1.7-20.7
		c2.8-24.9,10.4-40.2,18.9-53.8c10-15.8,23.3-29.4,39-39.6c0.3-0.2,0.6-0.4,0.8-0.6c1-0.7,2.1-1.3,3.2-1.9c0.5-0.3,0.9-0.7,1.3-1
		c9.1-5.8,19.9-12.7,29.8-15.9c14.8-4.6,32.5-2.6,47.5-0.1c15.9,2.7,27.2,7.1,39.5,18.1c10.4,9.3,20.8,19.7,28.7,31.2
		c9.3,13.5,13.4,29.7,16,45.7c2.7,16.7,6.7,33.8,8.1,50.7c-7.2-1.6-16.6-2.7-24-2.7c-6.8,0-14.5-0.1-20.6,3.4
		c-0.2,0.1-0.4,0.2-0.5,0.3c-0.1,0.1-0.1,0.1-0.2,0.2c0,0,0,0,0,0.1c0,0,0,0,0,0.1c-0.2,0.2-0.3,0.5-0.3,0.8c-0.2,0.3-0.2,0.6-0.1,1
		c0.8,2.4,2,4.6,3.6,6.5c-2.1,1.7-4.3,3.6-6.2,5.6c-2.4,2.4-3.9,5.4-5.3,8.5c-0.1,0.2-0.1,0.3-0.1,0.5c0,0.1,0,0.1-0.1,0.2
		c-0.3,0.2-0.5,0.4-0.6,0.8c-3.2,15.8-7.4,31.5-2.8,47.5c1,3.6,2.2,7.2,3.4,10.7c1.2,3.7,5.3,10.9,3.1,14.8
		c-1.7,3.1-5.3,4.2-9.5,4.5c-3.6-0.6-7.5-3.8-11-4.1c-2-0.2-9.5,1.9-13.4,1.1c-0.4-0.1-0.7-0.2-1-0.3c-0.1-0.1-0.3-0.1-0.4-0.2
		c-1-0.5-1.9-1.2-2.3-2.8c-0.4-1.6,0.4-3.7,1-5.2c0.8-1.9,2.6-5.8,5.1-5.8c1.5,0,1.8-2.3,0.3-2.3c-4.5,0-7,5.2-8.1,8.9
		c-1.1,3.6-0.5,6.6,1.9,8.4c1.4,1.6,3.9,2.4,6.6,2.3c2.5-0.1,4.2-1.4,6.7-1.9c2.8-0.5,5.7,0.3,8.2,1.4c3,1.2,5.5,3.4,8.8,2.7
		c1.5,0,3-0.2,4.4-0.9c1-0.5,1.8-1,2.5-1.6c3.3-1.7,6.8-4.3,6.6-8.4c-0.2-4.3-4.4-6.8-6.6-10c0-0.2-0.1-0.4-0.3-0.7
		c-1.3-1.5-2-3.5-1.8-5.5c0.1-0.6-0.2-0.9-0.4-1.1c-2.2-6.8-4-13.6-3.7-20.9c0.5-9.7,2.9-19.4,4.8-28.9c0.3-0.8,0.7-1.7,1-2.5H818
		c1.3-2.8,2.6-5.7,4.9-7.9c0.1-0.1,0.1-0.1,0.1-0.2c2.2-2.2,4.6-4.3,7-6.1c9.8-5.4,26.7-7.2,37.8-4.6c-1.6,5.7-3.4,11.8-4.2,17.6
		c0,0-16.6-5.2-24.1-4.2s-12.8,4.9-18,10.1c-1,1,0.4,2.9,1.4,1.8c4.9-4.9,9.8-8.7,16.9-9.7c7.1-0.9,14,1,20.6,3.6
		c0.2,0.1,2.7,0.3,2.9,0.3c-0.5,4.5-0.4,16-0.3,16.3c2.6,45.1-14,90.2-37.6,128c-5.4,8.7-12.3,18-21.6,22.7
		c-10.5,5.2-23,3.9-33.4-0.1c-21.9-8.4-42.9-18-63.3-29.7c-10.3-5.9-21-14.1-23.8-26.4c-2.7-11.9-3.3-24.5-4.1-36.6
		c-0.5-6.7-8.7-6.1-8.2,0.6c0.8,12.1,0.6,25,3.2,36.9c2.4,11,8.6,19.1,17.8,25.4c20.4,13.7,43.6,24.4,66.3,33.6
		c1.4,18.3,3.5,37.4,16.1,51.9c8.6,9.9,20.4,16.2,32.5,21.2c3.1,1.6,35.8,6.8,44.7,7.9c9.3,1.2,18.3,4.6,27.5,6.7
		c42.7,9.8,31.1,43.3,31,58.9c0,0.9,0.5,23.6,0.5,34.3c0,3.6-0.1,7.2,0.1,10.8c-5.9-13-10.7-26.5-14.4-40.4
		c-1.5-5.6-10.2-3.2-8.7,2.4c12.2,45.5,36.1,87.4,69.1,121c-57.2,25.5-121,34.2-183.2,34.9c-18.2,0.2-36.4-1-53.3-8.1
		c-4.7-2-6.8,5.7-2.1,7.7c15,6.3,31.2,8.2,47.3,8.4c16.6,0.2,33.3-0.6,49.9-1.9c33-2.5,65.9-7.5,97.8-16.7
		c16.1-4.6,31.8-10.3,47.1-17.2c-2.7,14.2-8,27.4-15.6,39.8c-3.3,5.3-6.8,10.4-10.2,15.6c-0.1,0-0.1,0-0.2,0.1
		c-1.7,4-3.8,7.7-6.2,11.2c-14.2,38.7-20.3,81.5-3.1,120.2c2.6,12.7,6.3,25.2,10.9,37.4c11.3,29.8,26.6,57.9,38.5,87.5
		c9.7,24.1,21.3,76.1,21.3,77C1000.7,1327,1003.1,1395.3,1001.6,1463.5z M587.1,1015.4c0-0.7-0.1-1.2-0.4-1.7
		c3.9-40.7,6.7-81.5,8.3-122.4c5.6,12.5,11.6,24.7,18.6,36.4c6.8,25.2,14,50.3,19.9,75.7c6.4,27.5,10.6,56,6.6,84.2
		c-0.1,0.8,0,1.6,0.2,2.3c-3.2,22.4-8.1,44.6-13.8,66.1c-5.5,21.1-11.8,41.9-18.1,62.8c-0.3,1-0.3,2,0,2.8
		c-14.4,39.7-29.3,79.4-41.5,119.8c-3.4,11.3-6.6,22.7-9.5,34.1c-0.3-14-0.6-28.1-0.9-42.1c0-0.9-0.3-1.6-0.6-2.2
		c0-19.5,4.7-38.6,8.4-57.7c4-20.8,7.5-41.7,10.4-62.7c5.7-41.1,9.5-82.4,11.2-123.9C587.2,1063,587.4,1039.2,587.1,1015.4z
		 M819.6,481.8c0.5,0.5,0.9,1,1.3,1.5c2.1,2.8,1.4,5.2-0.4,7c0.2-0.5,0.2-1,0.2-1.5c0-0.2,0-0.5,0-0.7
		C820.7,486,820.2,483.9,819.6,481.8z M1061.7,1665.7c-1,4.7-2.1,9.3-3.2,14c-0.9,3.5-1.1,8.6-3.5,11.4s-7.4,4.8-10.5,6.6
		c-4,2.4-8,4.7-12.1,6.9c-14.4,8-29.1,15.4-44.1,22.1c-0.3-0.2-0.6-0.3-1-0.4c0.1-0.5,0.3-0.9,0.5-1.4c0.5-1.4,1.4-2.7,2.2-3.9
		c1.5-2,3.4-3.8,5.2-5.4c4.9-4.3,10.5-7.8,15.8-11.6c6-4.3,11.9-8.5,17.9-12.8c4.7-3.4,9.6-6.7,13.3-11.2c7.9-9.8,5.9-21.5,3.2-32.9
		c-1.6-6.7-2.4-13.1-2.4-20c0-3.9,0-7.8-0.3-11.7c-2.5,1.3-5.3,2-8.1,2c-1,0-2-0.1-3-0.3c-8.5,6.5-13.8,15.9-14.5,26.6
		c-0.3,5.9,1.5,11.6,2.5,17.3c1.3,7.4,1.5,14.9,1,22.4c-0.1,0.9,0.1,1.7,0.5,2.4c-1.4,0.9-2.7,1.8-4,2.8c-2.1,1.5-4.1,2.9-6.2,4.4
		c-0.2-0.7-0.6-1.4-1.1-2c-0.4-0.4-0.7-0.7-1.1-1.1c-8.7-19.2-11.7-40.8-8.6-61.7c0.1-0.8,0-1.6-0.2-2.3c0.3-0.6,0.6-1.1,0.9-1.7
		l0.1-2.6c-0.4,0.3-0.8,0.7-1.2,1c2.3-15,6.4-29.3,10.9-43.7c2.2-7.1,3.2-14.1,1.9-21.5s-4.5-14.2-7.7-21
		c3.2-19.3,5.2-38.7,5.8-58.5c0.9-28.9,1-57.9,0.5-86.9c2.2,8,4.1,16,5.7,24.1c3.2,16.6,5.7,33.5,10.2,49.8c2.2,8,5,15.9,8.6,23.4
		c3.7,7.9,9.7,15.1,12.2,23.5c2.5,8.3,1.7,17.6,2.2,26.2c0.6,9.1,1.6,18.2,2.9,27.3c0.3,1.9,0.6,3.8,0.9,5.7
		c0.2-0.1,0.4-0.2,0.6-0.4c2,13,6.6,25.5,9.4,38.4C1067.8,1627.9,1065.6,1647.1,1061.7,1665.7z M1034.1,1626.9c0,2.2,0,4.5,0.1,6.7
		c0.4,7,2.1,13.5,3.6,20.3c1.7,7.7,2.3,15.3-3.4,21.5c-1.4,1.5-3,2.9-4.6,4.3c0.2-10-1.5-19.4-3.3-29.4
		C1025.1,1641.8,1027.9,1632.9,1034.1,1626.9z"/>
</g>
<g id="Слой_3" class="st0">
</g>
<g id="Слой_2" class="st0">
	<g class="st3">
		<path class="st7" d="M694,2814.7c-5.1-0.2-5.1-8.2,0-8c14.3,0.7,28.5-1.6,41.8-7c-0.1-0.3-0.2-0.7-0.2-1.1
			c-0.6-3.6-0.4-7.4-0.8-11c-0.1-1.2-0.3-2.5-0.5-3.7c-6.6,12.2-23,15.9-36.5,14.6c-12.3-1.1-25.4-4.3-34.6-12.6
			c-2.3-3.7-4.5-7.5-6.2-11.5c-2.2-11-4.4-21.9-6.7-32.9c-2.3-11.1-4.2-22.5-7.8-33.2c-3.7-11-10.1-21-16.5-30.6
			c-6-9-11.5-19.4-19.2-27.3c-1.6,5.7-2.1,11.8-3.1,17.6c-1.5,8.4-5.7,16.7-1.2,24.8c4.2,7.5,9.6,14.5,14.3,21.6
			c2.9,4.3,6.1,8.5,8.4,13.2c0.1,0.1,0.1,0.1,0.2,0.2c0.1,0.2,0.2,0.4,0.3,0.7c0.1,1.8,0.4,3.5,0.4,5.3c0.1,1.9,0.1,3.8,0.1,5.7
			c0,0,0,0,0,0c-0.6,20.4-1.4,40.8-2.4,61.2c-0.6,11.6-1.9,23.4-1.8,35c0.1,6.5,5.9,7.6,11.1,9.6c5.3,2.1,10.6,4.2,15.9,6.2
			c0.4,0.2,0.8,0.4,1.1,0.6c0.1,0,0.1,0,0.2,0c8.8,3.8,18.4,4.7,27.8,5.1c9.2,0.5,18.5,0.7,27.7,0.9c17.2,0.3,36.6,0.6,52-8.4
			c6.9-4,13.5-11.8,10.9-20.4c-2.6-8.5-12.4-12.2-19.4-16c-3.5-1.9-7-3.9-9.6-6.7C725.1,2812.7,709.8,2815.5,694,2814.7z"/>
		<path class="st7" d="M878.8,2790.5c-7.4-2.3-19-6.4-23.4-10.1c-5.2-5.6-6.8-12.9-10.7-20c-0.4-0.7-0.8-1.5-1.3-2.2
			c-0.2-0.1-0.3-0.2-0.5-0.4c-14.7,9-32.2,12.9-49.4,10.9c-8.2-1-18-2.5-23.2-9.6c-5.5-7.4-9.8-16.1-14.3-24.4
			c-5-5.5-10.4-10.6-15.2-16.3c0.6,8.2,1.7,16.3,2.5,24.4c0.5,5.4,1,10.9,0.7,16.3c0.4,0.3,0.8,0.8,1.1,1.4
			c5.9,12.8,13.3,24.9,21,36.7c3.3,5.2,7,10.1,12.4,13.2c5.1,3,11.2,4.2,17,4.7c13.3,1.1,27,0.2,40.4,0.1
			c13.9-0.1,27.7-0.3,41.6-0.4c0.5-0.3,1.1-0.4,1.8-0.5c4.7-0.1,11.6-0.1,13.5-5.4c1.6-4.4,0.3-11.2-3.2-14.4
			C887,2792.1,882.8,2791.2,878.8,2790.5z"/>
		<path d="M894.2,2788c-5.2-4.1-12.5-4.7-18.7-6.2c-6.8-1.7-14-4.2-17.6-10.7c-1.7-3-2.5-6.5-3.9-9.7c-1.4-3.2-3.1-6.2-4.9-9.2
			c-0.1-0.2-0.2-0.4-0.4-0.6c-0.2-0.8-0.3-1.6-0.6-2.4c-0.6-1.9-1.7-3.5-3-5c-0.2-0.3-0.5-0.5-0.9-0.7c-1.6-1.4-3.6-2.4-5.5-2.8
			c-2.1-0.4-4.3,0.6-4.9,2.8c-0.5,1.9,0.7,4.5,2.8,4.9c0.7,0.1,1.2,0.3,1.8,0.7c0.2,0.2,0.3,0.3,0.5,0.3c0.1,0.1,0.2,0.2,0.2,0.2
			c0,0.1,0,0.2,0,0.2c-0.1,0.2-0.2,0.3-0.3,0.4c0,0,0,0,0,0c0,0-0.1,0-0.1,0c0,0,0,0.1,0,0.1c-0.2,0.2-0.4,0.3-0.7,0.5
			c-0.5,0.3-0.9,0.7-1.2,1.2c-12.2,6.9-26.2,10.1-40.3,9c-3.9-0.3-7.7-1-11.5-2c-4.9-1.3-7.6-3-10.2-7.4c-4.9-8.3-9.6-16.7-14.4-25
			c-0.8-1.4-2-1.9-3.2-1.9c-5.2-5.3-10.4-10.5-14.6-16.7c-0.7-1.1-1.7-1.6-2.7-1.8c-1.6-3.3-7.6-2.7-7.6,1.8
			c-0.1,10.5,1.3,20.8,2.4,31.1c1,8.9,2.7,19.7-0.2,28.5c-0.5,0-0.9,0-1.4,0.1c-0.3,0.1-0.6,0.3-1,0.4c-0.6,0.4-1.1,0.8-1.4,1.4
			c-0.2,0.2-0.3,0.4-0.5,0.7c-0.4,0.5-0.5,1.2-0.5,1.9c-0.4,0.5-0.8,1.1-0.9,1.9c-2.6,15.5-20.2,17.7-33.1,16.2
			c-11.1-1.3-23.6-4.5-30.6-13.8c0-0.4,0.1-0.9,0-1.3c-2.5-12.6-5-25.2-7.7-37.7c-2.4-11.6-4.3-23.6-8.7-34.7
			c-4.2-10.7-10.2-20.4-16.5-29.9c-6.2-9.3-11.9-19.9-19.8-28c-0.5-1.1-1.5-2-3-2.2c0-0.4,0-0.8,0-1.2c0.3-0.5,0.9-0.9,1.4-1.2
			c2-0.8,3.4-2.7,2.8-4.9c-0.5-1.9-2.9-3.6-4.9-2.8c-4,1.7-7.6,4.9-7.6,9.5c0,0.1,0,0.2,0,0.2c-3.1,7.5-3.8,15.5-5.3,23.6
			c-1.5,8-5.2,16.2-3.2,24.4c0,0.2,0.1,0.4,0.2,0.5c-0.2,0.2-0.3,0.5-0.4,0.8c-1.5,3.7-2.8,5.1-0.5,9.1c2.9,4.7,6.1,9.2,9.2,13.8
			l8.7,13c2.4,3.5,3.9,6.5,8.4,7c0,0,0,0,0,0c-0.8,25.4-1.8,50.7-3.1,76c-0.3,6.6-0.7,13.2-1.1,19.7c-0.3,4.9-0.9,10.3,2.2,14.5
			c2.8,3.9,7.6,5.4,11.9,7.1c5.7,2.2,11.4,4.5,17,6.7c0.2,0.2,0.5,0.3,0.8,0.4c14.5,6.4,30.6,6.3,46.2,6.8
			c15.7,0.5,31.6,1.2,47.2-1.6c13.2-2.3,28.9-7.8,35.1-20.8c5.9-12.3,0.2-23.9-10.6-31c-6.4-4.2-19.9-7.5-20.8-16.4
			c-0.7-7.2-1.3-14.1-3-21.1c0.1-0.2,0.3-0.4,0.4-0.7c0.4-0.8,0.7-1.6,1-2.5c5.5,10.9,12,21.5,18.8,31.6
			c7.2,10.7,16.5,17.2,29.3,19.2c13.5,2.1,27.6,0.9,41.2,0.8c16.2-0.2,32.5-0.3,48.7-0.5c0.8,0,1.5-0.2,2-0.6
			c10.9-0.9,20.3-5.7,19.5-18.6C901,2797.8,899,2791.8,894.2,2788z M749.2,2813.4c7,3.8,16.9,7.5,19.4,16c2.6,8.5-4,16.4-10.9,20.4
			c-15.3,8.9-34.8,8.7-52,8.4c-9.2-0.2-18.5-0.4-27.7-0.9c-9.5-0.5-19.1-1.3-27.8-5.1c-0.1,0-0.1,0-0.2,0c-0.3-0.2-0.7-0.5-1.1-0.6
			c-5.3-2.1-10.6-4.2-15.9-6.2c-5.2-2-11-3.1-11.1-9.6c-0.1-11.6,1.2-23.4,1.8-35c1-20.4,1.8-40.8,2.4-61.2c0,0,0,0,0,0
			c0-1.9-0.1-3.8-0.1-5.7c-0.1-1.8-0.3-3.6-0.4-5.3c-0.1-0.2-0.2-0.4-0.3-0.7c-0.1-0.1-0.1-0.1-0.2-0.2c-2.3-4.7-5.5-8.9-8.4-13.2
			c-4.8-7.1-10.2-14.1-14.3-21.6c-4.6-8.2-0.4-16.4,1.2-24.8c1.1-5.9,1.5-11.9,3.1-17.6c7.6,7.8,13.2,18.2,19.2,27.3
			c6.4,9.7,12.7,19.6,16.5,30.6c3.7,10.7,5.5,22.1,7.8,33.2c2.3,11,4.5,21.9,6.7,32.9c1.7,4,3.9,7.8,6.2,11.5
			c9.2,8.3,22.3,11.5,34.6,12.6c13.4,1.2,29.8-2.5,36.5-14.6c0.2,1.2,0.4,2.5,0.5,3.7c0.4,3.7,0.2,7.4,0.8,11
			c0.1,0.4,0.1,0.7,0.2,1.1c-13.3,5.4-27.5,7.7-41.8,7c-5.1-0.2-5.1,7.8,0,8c15.7,0.7,31.1-2.1,45.6-8
			C742.2,2809.5,745.7,2811.5,749.2,2813.4z M892.9,2809c-1.9,5.3-8.9,5.3-13.5,5.4c-0.7,0-1.3,0.2-1.8,0.5
			c-13.9,0.1-27.7,0.3-41.6,0.4c-13.4,0.1-27,1.1-40.4-0.1c-5.9-0.5-11.9-1.7-17-4.7c-5.4-3.1-9.1-8-12.4-13.2
			c-7.6-11.8-15.1-23.9-21-36.7c-0.3-0.6-0.7-1.1-1.1-1.4c0.3-5.4-0.2-11-0.7-16.3c-0.8-8.2-1.9-16.3-2.5-24.4
			c4.8,5.7,10.2,10.8,15.2,16.3c4.5,8.2,8.8,17,14.3,24.4c5.2,7,15,8.6,23.2,9.6c17.1,2.1,34.7-1.9,49.4-10.9
			c0.1,0.1,0.3,0.2,0.5,0.4c0.4,0.7,0.8,1.5,1.3,2.2c3.9,7.1,5.5,14.5,10.7,20c3.2,3.6,3.8,5.2,16,8.1c0.8,0.2,6.8,2.2,7.5,2
			c4,0.7,8.2,1.6,10.9,4C893.1,2797.7,894.5,2804.6,892.9,2809z"/>
	</g>
</g>
<g id="Слой_6" class="st0">
	<g class="st3">
		<path class="st8" d="M842.3,1221C842.3,1221,842.2,1221,842.3,1221c-0.2,0.1-0.4,0.1-0.6,0.2c-2.8,0.9-5.9,2.4-7,5.3
			c-1.5,3.8,1.2,5.9,4.6,6.9c4.1,1.2,5.4-0.8,5.4-4.9C844.7,1226.6,844.5,1221.8,842.3,1221z"/>
		<path class="st9" d="M858.7,1208c-6.5,0.5-13.1,0.8-19.7,1c-24.3,0.7-48.7,0.4-72.9-1c-23.5-1.4-47-4-70.3-7.9
			c-3.5,9.2-4.8,18.9-6,28.6c0,0.3-0.1,0.7-0.2,1c56,10.7,113,14.8,169.9,15.6C859.6,1232.8,859.3,1220.3,858.7,1208z M839.6,1241.7
			c-7.2-1.2-13.7-5.9-13.3-13.9c0.4-7.5,6.6-12.2,13.3-14.3c0.8-0.2,1.4-0.2,2.1-0.1c0.8-0.4,1.7-0.5,2.8-0.1
			C857.2,1217.7,855.3,1244.2,839.6,1241.7z"/>
		<path class="st9" d="M867.6,1239.2c24.1-6,48.9-12.8,71.1-24.2c-0.3-0.4-0.5-0.9-0.7-1.5c-1.7-7.6-4.3-14.7-8-21.6
			c-0.1-0.2-0.1-0.3-0.2-0.5c-6.1,2.6-12.3,4.9-18.6,6.9c-14.6,4.5-29.5,7.3-44.6,8.8v0.1C867.2,1217.9,867.5,1228.6,867.6,1239.2z"
			/>
		<path class="st8" d="M687.9,1198.6c-3-0.6-6-1.1-9-1.7c-1.8,9.8-3.7,19.6-5.5,29.4c2.9,0.6,5.8,1.2,8.7,1.8
			C683.2,1218.1,684.4,1208.1,687.9,1198.6z"/>
		<path class="st9" d="M978.9,1184.7c0.1-0.1,0.3-0.2,0.4-0.4c-2.7-6.5-6.1-12.6-10.2-18.4c-5,4.9-10.5,9.3-16.3,13.2
			c1.4,8.1,3.2,16.1,5.4,24.1C965.7,1197.8,972.6,1191.7,978.9,1184.7z"/>
		<path class="st8" d="M951.2,1207.9c-2.3-8-4.2-16.1-5.7-24.2c-2.8,1.6-5.6,3.1-8.5,4.5c3.9,7.3,6.8,15,8.6,23.1
			C947.5,1210.2,949.4,1209,951.2,1207.9z"/>
		<path class="st9" d="M671,1195.3c-15.3-3.3-30.6-7.3-45.5-12c-0.1,0.2-0.1,0.4-0.2,0.7c-1.6,3.5-0.8,8.5-1.6,12.3
			c-0.6,2.8-1.5,5.4-2.7,8c0.1,0.5,0,1.1-0.1,1.6c-0.6,2.1-1.2,4.2-1.8,6.3c15.3,4.7,30.8,8.9,46.5,12.4L671,1195.3z"/>
		<path class="st10" d="M1001.6,1453.8c-0.1-8.6-0.4-17.2-0.5-25.7c-0.6-36.1-1.1-72.2-1.7-108.4c-0.4-0.2-0.8-0.4-1.2-0.8
			c-18.6-16.5-31-39.3-34.8-63.9c-0.8-5,6.9-7.2,7.7-2.1c3.3,21.3,13.1,40.8,28.2,56c0-0.3,0-0.6,0-0.9l0,0c-0.3-0.5-0.6-1.2-0.6-2
			c-0.8-25.5-4.5-50.6-8.8-75.7c-2.1-12.3-3.7-24.8-7.2-36.8c-0.1-0.3-0.2-0.5-0.2-0.8c-30,32-73.4,44.5-114.7,54.7
			c-0.2,57-7.4,114.2-31.2,166.4c-2.1,4.7-9,0.6-6.9-4c22.4-49.1,29.5-103,30.1-156.6c-17.8-0.3-35.6-0.8-53.4-1.8
			c-64-3.6-128-12.7-189.4-31.6c-7.9,26.3-16.9,52.2-26.9,77.8c0.1,0.6,0,1.2-0.3,1.8c-12,29.9-22.1,60.5-30.3,91.7
			c0.2,0.4,0.2,0.9,0.2,1.4c-0.1,8.8-0.1,17.6-0.2,26.3c0,8.3-0.2,16.6,2.2,24.6c2.3,7.8,6.7,14.7,10.7,21.7s8,14.1,11.7,21.3
			c14,26.9,25.5,55.2,31.7,84.8c1.7,0.2,3.2,1.5,3,3.8c-2.9,30-9.5,59.4-15.6,88.8c-0.5,2.4-3.8,3.9-5.9,2.4
			c-4.5-3.2-9-6.5-12.6-10.7c-2-5.4-4.4-10.6-6.7-15.9c-0.5-4-0.4-8.1-0.1-12.2c0.7-9,1.9-17.7-0.6-26.5c-1.8-6.5-4.9-12.5-8.2-18.3
			c-0.7,4-0.1,9.3-0.1,11.7c-0.1,6,0,12,0.5,17.9c0.4,4.5,1.2,8.9,2.3,13.1c8.3,24.5,16,49,27.6,72.2c5.7,11.3,9.3,23.5,13.5,35.4
			l12.1,34.5c0.5,0.4,1,1,1.3,1.8c21.4,60.9,42.7,122.3,52.6,186.3c0.8,0.6,1.3,1.6,1.2,3c-1,11.7-6,21.8-11.5,31.9
			c-6.4,11.7-12.1,23.6-17.5,35.8c-9.9,22-19.6,44-29.4,66.1c-4.8,10.8-9.7,21.6-13.1,32.9c-3.2,10.9-5,22.2-6.1,33.5
			c-2.4,23.3-4.7,47-5,70.4c-0.4,23.5,4.6,46.4,9.9,69.2c0.7,0.6,1.1,1.5,1.3,2.6c1.8,15.2,9.2,29,11.6,44c2.5,15.6,1.8,31.8,2,47.6
			c0.5,32.9,1,65.9,1.5,98.8c2.6,5.9,12.7,8.7,18,10.6c6.7,2.4,13.6,4.2,20.6,5.4c12.7,2.2,30.1,4.1,41.4-3.3
			c-1.1-25.2,5.4-49.5,8.3-74.4c3-25.7,5.8-51.4,8.7-77.2c0.1-0.7,0.3-1.3,0.6-1.8c1.3-12.9,4.3-25.5,7.4-38.1
			c3.1-12.9,5.6-25.8,7.6-38.9c4.1-27.1,8.2-54.2,12.3-81.3c0.1-0.6,0.3-1.2,0.6-1.6c4.6-23.5,10.1-46.7,15.9-69.9
			c5.4-21.3,9.7-43.3,19.6-63.1c0-0.6,0.1-1.3,0.5-1.9l1.7-3.1c0.1,0.1,0.2,0.2,0.3,0.3c6.9-14.1,17.8-25.9,24.1-40.4
			c3.4-7.9,5.9-16.2,8.4-24.4c0.5-1.7,1-3.3,1.5-5v1.2c0,0,0,0,0,0.1c1.6-8.6,2-17.5,2.7-26.2c0.9-10.8,1.7-21.7,2.6-32.5
			c1.7-21.7,3-43.4,2-65.2c-0.2,0.1-0.4,0.1-0.6,0.2c0.2-9.2,0.4-18.4,0.5-27.6c0.9-68.8-0.8-137.8-9.1-206.2
			c-0.4-0.6-0.6-1.4-0.5-2.4c1.5-13.9-0.5-27.5-2.8-41.2c-2.1-12.9-3.7-25.8-4.6-38.8c-1.9-27-3.7-54-5.5-81
			c-0.3-0.4-0.6-0.8-0.7-1.3c-2.4-6.9-7.2-12.3-13.6-15.8c-4.5-2.5-0.5-9.4,4-6.9c6.1,3.3,10.9,8.2,14.3,14
			c14.6-6.1,29.9-12.8,38.9-26.4c2.9-4.3,9.8-0.2,6.9,4c-10,15-26,22.6-42.1,29.3c1.9,28,3.8,56,5.7,84c1,13.9,2.8,27.6,5.1,41.4
			c2,12.6,3.7,25.4,2.3,38.1c0.1,0.3,0.2,0.6,0.2,0.9c2.4,19.5,4.3,39.1,5.8,58.7c4.2,57.5,4.4,115.2,3.2,172.9
			c0.3,0.5,0.4,1.1,0.4,1.7c1.2,23.1-0.3,46.3-2.1,69.3c-0.9,11.5-1.8,23-2.7,34.4c-0.8,10.4-1.5,20.9-4.2,31
			c-0.3,1-0.8,1.8-1.5,2.2c-1.9,6.3-4,12.6-6.6,18.7c-6.8,16.3-19.1,29.3-26.3,45.3c-0.2,0.4-0.4,0.7-0.6,0.9
			c-10.4,20-14.6,42.8-20,64.5c-5.8,22.9-11.2,45.9-15.7,69.1c-0.1,0.5-0.3,0.9-0.5,1.3c-4,26.2-7.9,52.4-11.9,78.7
			c-1.9,12.7-4.2,25.4-7.2,37.9c-3.2,13.3-6.7,26.5-7.9,40.2c-0.1,0.7-0.3,1.3-0.6,1.9c-2.9,25.2-5.7,50.4-8.6,75.7
			c-2.5,22-8,43.6-8.4,65.8c0.7,0,1.4,0.2,2.2,0.7c9.8,7,21.4,9.7,33.2,10.5c9.3,0.6,22.5,2.1,30.9-3.3c1.2-18.7,3.2-37.3,5.7-55.8
			c9.2-66.5,26.2-131.5,43.4-196.2c-0.4-0.8-0.6-1.7-0.4-2.7c11.4-55.9,18.6-112.7,18.7-169.8c-0.5-0.8-0.8-1.9-0.5-3.1
			c0.2-0.6,0.3-1.2,0.5-1.8c0-0.7,0.2-1.4,0.6-1.9c4.1-12.9,12-24,18.5-35.8c7.9-14.4,11.6-30.3,13.1-46.5
			c3.1-32.7-1.3-66.1,7.6-98.1c0.3-1.1,1-1.9,1.8-2.3c9.1-27.3,23.4-52.5,35.4-78.6c13.3-28.9,22.5-59.3,30.3-90.1
			c-0.7-0.8-0.9-2-0.5-3.3c6.2-19.4,12.2-38.8,17.9-58.4c19.4-67,34.2-136.1,32.1-206.2C1001.9,1453.1,1001.7,1453.4,1001.6,1453.8z
			 M710.4,1277c-18.1,36.2-48.5,65.7-85.2,82.9c-4.6,2.2-8.7-4.7-4-6.9c35.6-16.6,64.7-44.9,82.3-80
			C705.8,1268.3,712.7,1272.4,710.4,1277z M761.9,2014.8c-14.2-14.7-21.6-35-19.8-55.4c0.4-5.1,8.4-5.1,8,0
			c-1.6,18.4,4.6,36.5,17.5,49.8C771.1,2012.8,765.5,2018.5,761.9,2014.8z"/>
		<path d="M1009.3,1444.8c0-2.6-0.1-5.2-0.1-7.8l-0.9-59.5l-1.1-69.5c0-0.8-0.2-1.5-0.6-2l0,0c-0.8-26.2-4.7-52.1-9-77.8
			c-2.1-12.6-3.8-25.5-7.5-37.7c-3.5-11.6-9.1-22.4-16.4-32c-0.2-0.2-0.3-0.4-0.5-0.5c-1.1-2.2-4.1-3.5-6.3-1.1
			c-30.8,33.5-80.4,42.5-123.8,44c-47.2,1.7-94.8-0.3-141.4-7.9c-26-4.2-51.8-10.3-76.9-18.4c-2.8-0.9-4.7,1.3-4.9,3.6
			c-0.6,0.3-1.1,0.9-1.5,1.7c-1.6,3.5-1.6,6.7-1.9,10.4c-0.3,4.5-1.7,8.7-3.8,12.7c-0.6,1.1-0.6,2.2-0.3,3.2c-0.5,1.7-1,3.3-1.5,5
			c-1.3,1-1.9,3-1.4,4.7c-8.1,27.1-17.4,53.9-27.7,80.3c-0.3,0.7-0.3,1.3-0.3,1.8c-12.2,30.5-22.4,61.7-30.7,93.4
			c-0.3,1.3-0.1,2.4,0.6,3.2c-0.2,15.6-1.8,32.2,1.4,47.5c3.3,15.8,14.1,29.7,21.6,43.7c15.5,29,28.1,59.6,34.3,91.9
			c0.2,1,0.7,1.8,1.3,2.2c-2.8,25.6-8.3,50.8-13.6,76c-4.7-3.7-8.7-8.1-10.2-14.2c-1.9-7.9-0.2-16.3,0.3-24.2
			c1-16.7-5.8-30.5-14.1-44.6c-1-1.8-3.7-2.7-5.5-1.4c-3.8,2.7-5.3,6.4-5.8,10.9c-0.6,6.4-0.5,13.1-0.4,19.6
			c0.1,7.9,0.9,15.5,2.6,23c0,0.5,0,1,0.2,1.6c8.2,24.2,15.4,48.9,27,71.7c5.9,11.5,9.8,23.8,14.1,36c4.5,13,9.1,25.9,13.6,38.9
			c0.3,0.8,0.7,1.4,1.3,1.8c21,60,41.9,120.5,51.5,183.6c0.1,0.7,0.3,1.2,0.6,1.6c-1.3,10.7-6.9,20.1-11.9,29.4
			c-5.6,10.4-10.7,21.1-15.5,31.9c-10,22.3-19.9,44.6-29.8,66.9c-4.6,10.3-9.3,20.5-12.8,31.3c-3.6,10.9-5.5,22.3-6.9,33.7
			c-2.8,23.1-4.5,46.7-5.5,70c-1.1,27.1,4.5,53.3,10.6,79.5c0.2,0.8,0.5,1.4,1,1.8c2.3,13.3,8,25.5,10.7,38.7
			c3.3,16,2.2,33,2.4,49.3c0.5,32.7,1,65.3,1.5,98c-0.2,0.7-0.3,1.5,0.1,2.4c2.7,7.4,9.5,10.7,16.3,13.7c8.5,3.7,17.3,6.5,26.4,8.2
			c15.5,2.9,37,5.4,50.5-4.6c1.2-0.8,1.7-2,1.7-3.2c0.6-0.6,1-1.4,1.1-2.5c11,7.1,24,9.7,36.9,10.4c12.4,0.7,27.5,1.6,37.2-7.5
			c1.8-1.7,1.4-3.9,0.1-5.3c4.5-66.8,18.8-132.5,35.4-197.2c4.7-18.5,9.6-36.9,14.5-55.3c0.3-1.3,0.1-2.4-0.5-3.2
			c11.2-56.3,18.3-113.6,18.1-171.1c4.2-13.7,13-25.2,19.6-37.8c7.1-13.8,10.6-28.8,12.3-44.1c3.4-30.5-0.6-61.6,5.8-91.7
			c0.5-0.4,0.8-1,1.1-1.8c9-31.1,25.5-59,38.7-88.3c13.8-30.5,23.2-62.6,31.1-95.1c0.3-1,0.1-1.9-0.3-2.7
			c21.2-67.1,40.9-135.2,46.8-205.6c1.7-20.5,2.2-41,1.3-61.5C1009.9,1446,1009.6,1445.3,1009.3,1444.8z M969.1,1165.9
			c4,5.8,7.5,11.9,10.2,18.4c-0.1,0.1-0.3,0.2-0.4,0.4c-6.3,7.1-13.2,13.2-20.7,18.5c-2.2-7.9-4-15.9-5.4-24.1
			C958.6,1175.2,964.1,1170.9,969.1,1165.9z M945.6,1183.7c1.5,8.2,3.4,16.2,5.7,24.2c-1.8,1.2-3.7,2.3-5.6,3.4
			c-1.8-8.1-4.7-15.7-8.6-23.1C940,1186.8,942.8,1185.3,945.6,1183.7z M911.2,1198.4c6.3-2,12.5-4.2,18.6-6.9
			c0.1,0.2,0.1,0.3,0.2,0.5c3.6,6.9,6.2,14,8,21.6c0.1,0.6,0.4,1.1,0.7,1.5c-22.1,11.4-46.9,18.2-71.1,24.2
			c-0.1-10.7-0.4-21.3-0.9-31.9v-0.1C881.8,1205.7,896.7,1202.9,911.2,1198.4z M689.9,1228.6c1.1-9.7,2.5-19.4,6-28.6
			c23.2,4,46.7,6.5,70.3,7.9c24.3,1.4,48.6,1.7,72.9,1c6.6-0.2,13.1-0.5,19.7-1c0.6,12.4,0.9,24.8,0.9,37.3
			c-56.9-0.8-114-4.9-169.9-15.6C689.8,1229.3,689.9,1229,689.9,1228.6z M678.8,1196.9c3,0.6,6,1.2,9,1.7
			c-3.4,9.5-4.7,19.5-5.9,29.5c-2.9-0.6-5.8-1.2-8.7-1.8C675.1,1216.5,677,1206.7,678.8,1196.9z M620.9,1205.8
			c0.2-0.6,0.2-1.1,0.1-1.6c1.2-2.6,2.1-5.2,2.7-8c0.8-3.8,0-8.8,1.6-12.3c0.1-0.2,0.2-0.4,0.2-0.7c15,4.7,30.2,8.7,45.5,12
			l-5.5,29.3c-15.6-3.6-31.1-7.7-46.5-12.4C619.6,1210,620.3,1207.9,620.9,1205.8z M970.1,1659.1c-5.7,19.6-11.7,39-17.9,58.4
			c-0.4,1.4-0.1,2.5,0.5,3.3c-7.7,30.8-16.9,61.2-30.3,90.1c-12,26.1-26.3,51.3-35.4,78.6c-0.8,0.4-1.5,1.2-1.8,2.3
			c-8.9,32-4.5,65.4-7.6,98.1c-1.5,16.2-5.3,32.1-13.1,46.5c-6.5,11.8-14.4,22.9-18.5,35.8c-0.3,0.5-0.5,1.1-0.6,1.9
			c-0.2,0.6-0.3,1.2-0.5,1.8c-0.3,1.2-0.1,2.2,0.5,3.1c-0.1,57.1-7.3,113.9-18.7,169.8c-0.2,1,0,1.9,0.4,2.7
			c-17.2,64.8-34.2,129.8-43.4,196.2c-2.6,18.5-4.5,37.1-5.7,55.8c-8.4,5.4-21.6,3.9-30.9,3.3c-11.9-0.8-23.4-3.5-33.2-10.5
			c-0.7-0.5-1.5-0.7-2.2-0.7c0.4-22.1,5.9-43.8,8.4-65.8c2.9-25.2,5.7-50.4,8.6-75.7c0.3-0.5,0.6-1.1,0.6-1.9
			c1.2-13.7,4.7-26.9,7.9-40.2c3-12.5,5.2-25.2,7.2-37.9c4-26.2,7.9-52.4,11.9-78.7c0.2-0.4,0.4-0.8,0.5-1.3
			c4.5-23.2,9.9-46.2,15.7-69.1c5.5-21.7,9.6-44.5,20-64.5c0.2-0.3,0.4-0.6,0.6-0.9c7.2-16.1,19.5-29,26.3-45.3
			c2.5-6.1,4.6-12.4,6.6-18.7c0.7-0.5,1.3-1.2,1.5-2.2c2.7-10.1,3.4-20.6,4.2-31c0.9-11.5,1.8-23,2.7-34.4
			c1.8-23.1,3.3-46.2,2.1-69.3c0-0.7-0.2-1.2-0.4-1.7c1.2-57.6,1-115.3-3.2-172.9c-1.4-19.6-3.3-39.2-5.8-58.7
			c0-0.3-0.1-0.7-0.2-0.9c1.3-12.8-0.3-25.5-2.3-38.1c-2.2-13.8-4.1-27.5-5.1-41.4c-1.9-28-3.8-56-5.7-84
			c16.1-6.8,32-14.4,42.1-29.3c2.9-4.3-4.1-8.3-6.9-4c-9.1,13.5-24.4,20.3-38.9,26.4c-3.4-5.9-8.2-10.7-14.3-14
			c-4.5-2.5-8.6,4.4-4,6.9c6.4,3.5,11.2,8.9,13.6,15.8c0.2,0.5,0.4,0.9,0.7,1.3c1.8,27,3.7,54,5.5,81c0.9,13.1,2.4,25.9,4.6,38.8
			c2.3,13.7,4.3,27.3,2.8,41.2c-0.1,1,0.1,1.8,0.5,2.4c8.4,68.4,10,137.4,9.1,206.2c-0.1,9.2-0.3,18.4-0.5,27.6
			c0.2-0.1,0.4-0.2,0.6-0.2c1,21.7-0.4,43.5-2,65.2c-0.8,10.8-1.7,21.7-2.6,32.5c-0.7,8.8-1.1,17.6-2.7,26.2c0,0,0,0,0-0.1v-1.2
			c-0.5,1.7-1,3.3-1.5,5c-2.5,8.2-5,16.5-8.4,24.4c-6.3,14.5-17.2,26.2-24.1,40.4c-0.1-0.1-0.2-0.2-0.3-0.3l-1.7,3.1
			c-0.4,0.7-0.5,1.3-0.5,1.9c-9.9,19.8-14.3,41.8-19.6,63.1c-5.8,23.2-11.4,46.4-15.9,69.9c-0.3,0.4-0.5,0.9-0.6,1.6
			c-4.1,27.1-8.2,54.2-12.3,81.3c-2,13.1-4.4,26-7.6,38.9c-3.1,12.6-6.1,25.2-7.4,38.1c-0.3,0.5-0.5,1.1-0.6,1.8
			c-2.9,25.7-5.8,51.5-8.7,77.2c-2.9,24.9-9.4,49.2-8.3,74.4c-11.4,7.4-28.8,5.5-41.4,3.3c-7-1.2-13.9-3-20.6-5.4
			c-5.4-1.9-15.4-4.8-18-10.6c-0.5-32.9-1-65.9-1.5-98.8c-0.2-15.8,0.5-32-2-47.6c-2.4-15-9.9-28.8-11.6-44
			c-0.1-1.1-0.6-1.9-1.3-2.6c-5.3-22.8-10.3-45.7-9.9-69.2c0.4-23.4,2.6-47.1,5-70.4c1.2-11.3,2.9-22.6,6.1-33.5
			c3.4-11.3,8.3-22.1,13.1-32.9c9.8-22,19.6-44.1,29.4-66.1c5.4-12.1,11.2-24.1,17.5-35.8c5.5-10.1,10.6-20.3,11.5-31.9
			c0.1-1.4-0.4-2.4-1.2-3c-9.9-64-31.3-125.4-52.6-186.3c-0.3-0.8-0.7-1.4-1.3-1.8l-12.1-34.5c-4.2-11.9-7.8-24.1-13.5-35.4
			c-11.6-23.2-19.4-47.7-27.6-72.2c-1.1-4.3-1.9-8.6-2.3-13.1c-0.5-6-0.6-11.9-0.5-17.9c0-2.5-0.6-7.8,0.1-11.7
			c3.3,5.8,6.4,11.8,8.2,18.3c2.5,8.8,1.2,17.5,0.6,26.5c-0.3,4.1-0.4,8.2,0.1,12.2c2.3,5.3,4.7,10.5,6.7,15.9
			c3.5,4.2,8.1,7.5,12.6,10.7c2,1.5,5.4,0,5.9-2.4c6.1-29.4,12.7-58.8,15.6-88.8c0.2-2.3-1.2-3.5-3-3.8c-6.2-29.7-17.8-58-31.7-84.8
			c-3.7-7.2-7.7-14.3-11.7-21.3s-8.4-13.9-10.7-21.7c-2.3-8-2.2-16.4-2.2-24.6c0.1-8.8,0.1-17.6,0.2-26.3c0-0.5-0.1-1-0.2-1.4
			c8.2-31.2,18.3-61.8,30.3-91.7c0.3-0.7,0.3-1.3,0.3-1.8c10-25.6,19-51.5,26.9-77.8c61.4,18.9,125.4,28,189.4,31.6
			c17.8,1,35.6,1.5,53.4,1.8c-0.6,53.7-7.7,107.5-30.1,156.6c-2.1,4.6,4.8,8.7,6.9,4c23.9-52.3,31-109.4,31.2-166.4
			c41.3-10.2,84.8-22.7,114.7-54.7c0.1,0.3,0.2,0.5,0.2,0.8c3.5,12,5.1,24.5,7.2,36.8c4.3,25.1,8,50.3,8.8,75.7c0,0.8,0.2,1.4,0.6,2
			l0,0c0,0.3,0,0.6,0,0.9c-15.1-15.2-24.9-34.7-28.2-56c-0.8-5.1-8.5-2.9-7.7,2.1c3.8,24.6,16.2,47.4,34.8,63.9
			c0.4,0.4,0.8,0.6,1.2,0.8c0.6,36.1,1.1,72.2,1.7,108.4c0.1,8.6,0.4,17.1,0.5,25.7c0.2-0.3,0.4-0.6,0.6-0.9
			C1004.2,1522.9,989.4,1592,970.1,1659.1z"/>
		<path d="M750.1,1959.3c0.4-5.1-7.6-5.1-8,0c-1.8,20.4,5.6,40.7,19.8,55.4c3.6,3.7,9.2-2,5.7-5.7
			C754.7,1995.8,748.5,1977.7,750.1,1959.3z"/>
		<path d="M844.4,1213.3c-1.1-0.4-2-0.3-2.8,0.1c-0.6-0.1-1.3-0.1-2.1,0.1c-6.6,2.1-12.8,6.8-13.3,14.3c-0.4,8,6.1,12.7,13.3,13.9
			C855.3,1244.2,857.2,1217.7,844.4,1213.3z M839.2,1233.4c-3.3-0.9-6-3.1-4.6-6.9c1.1-2.9,4.2-4.4,7-5.3c0.2-0.1,0.3-0.1,0.5-0.2
			l0,0c2.3,0.8,2.4,5.5,2.4,7.5C844.7,1232.6,843.4,1234.6,839.2,1233.4z"/>
		<path d="M703.5,1273c-17.6,35.1-46.7,63.4-82.3,80c-4.7,2.2-0.6,9.1,4,6.9c36.7-17.1,67-46.7,85.2-82.9
			C712.7,1272.4,705.8,1268.3,703.5,1273z"/>
	</g>
</g>
<g id="Слой_4" class="st0">
	<g class="st3">
		<path class="st11" d="M1021.3,1402.7c-2.7-9.2-5.4-18.4-8.1-27.6c0.1,5.1,0.2,10.2,0.3,15.3c0.2,9.2,0.3,18.5,0.5,27.7
			c0.1,6.6,0.5,13.2,0.2,19.8c5.3-2.1,11.3-2.6,16.5-1.4h0.1c-0.5-2.9-1.3-5.8-2.1-8.6C1026.3,1419.5,1023.8,1411.1,1021.3,1402.7z"
			/>
		<path class="st11" d="M966.7,1156.1c-1.5-3-3-5.9-4.7-8.8c-0.6-0.5-1-1.3-1.2-2.2c-4.2-7.3-8.8-14.4-13.4-21.6
			c-6.6-10.2-10.8-21.5-14.8-32.9c-8.3-23.8-14.3-48.3-18.1-73.2c-0.1-0.6-0.1-1.1,0.1-1.6c-1-14-1.8-28.4,1.7-42.1
			c3.2-12.5,10.2-23.7,17.7-34.1c15.2-20.7,37.8-44.3,31.1-72.2c-0.3-0.2-0.6-0.4-0.9-0.8c-33.6-37.1-59-81.1-74.4-128.7
			c-1.6-4.9,6.1-7,7.7-2.1c4.3,13.4,9.5,26.5,15.4,39.3c2.1-17.7,3.3-35.5,3.4-53.4c0.1-14.3-1-30.6-11.7-41.4
			c-10.4-10.5-26.5-13.9-40.5-16.3c-14.6-2.5-29.5-3.6-43.8-7.2c-6.8-1.7-13.6-4-19.9-7.2c-3.8-1.9-8.1-5.4-12.6-7.5
			c-3.4,13.9-22.9,18.7-35,20.3c-16.1,2.1-32.5-0.7-47.5-6.8c-15.5-6.3-29.4-15.7-42.4-26.2c-11.9-9.6-23.2-20.2-31.9-32.8
			c-9.5,3.5-19.9,3.8-30,4.7c-13.3,1.3-26.6,2.8-39.8,4.7c-20,2.9-40.3,5.7-56,19.6c-14.4,12.7-21.9,29.7-23.3,48.7
			c-0.9,11.8-1.1,23.7-1.5,35.6c-0.4,11.3-0.9,22.7-0.5,34c0.5,11.6,2.9,23,5.1,34.4c2.1,10.8,4.1,21.5,6.2,32.3
			c0.3,0.5,0.5,1.1,0.5,1.9c0,0.3,0,0.6,0,0.9c0,0.1,0,0.1,0,0.2c0,25,0,49.9,0,74.9c0,21.8,0.3,43.5,2,65.3
			c1.7,21.6,3.1,43.1,0.7,64.7c-1.2,10.3-3,20.6-5.7,30.6c-2.8,10.4-6.9,20.4-9.5,30.8c-4.9,19.9-4.4,40.6-3.7,61
			c0.4,0.6,0.7,1.3,0.6,2.2c-0.5,39.3-0.9,78.5-1.4,117.8c-0.2,19.4-0.6,38.8-0.7,58.2c-0.1,15.6,0.3,31.3,2.3,46.7
			c12.7-10.3,29.2-14.6,45.6-14.4c6.6,0.1,21.6,0.5,31.5,4.9c-1.3-11.5-3.3-22.9-3-34.5c0.4-13.6,3-27.1,6-40.4
			c6.4-27.7,15.7-55.9,11.7-84.6c0-0.2,0-0.3,0-0.5c-0.2-0.5-0.3-1.1-0.2-1.8c5.9-60.2,10.6-120.5,14.1-180.9c0-0.7,0.2-1.3,0.5-1.8
			c-0.6-56.8,2.1-113.7,8.3-170.2l0,0c1.4-29.7,1.4-59.4,0.1-89c-0.2-5.2,7.8-5.1,8,0c1.3,29.7,1.3,59.4-0.1,89l0,0
			c-1.1,10.3-2.1,20.7-3,31c0.6,0.4,1.1,1,1.4,1.8c8.6,20.9,16.7,42,23.7,63.6c23.7,73.3,34.3,153.7,9.9,228.2
			c0.2,0.6,0.2,1.3-0.1,2.1c-12.8,41.7-27.4,82.8-43.6,123.2c25.3,13.9,53.6,21.1,82,25.3c28.7,4.3,57.8,6.3,86.8,7.6
			c28.9,1.3,57.9,2,86.8,1.6c54.2-0.6,109.6-5.8,159.5-28.4c3-49.3-15.5-95.7-34.2-140.4C967.7,1157.5,967.1,1157,966.7,1156.1z
			 M910.3,885.5c-31.5,10.5-64.3,16.6-97.5,17.9c-17.4,0.7-34.9,0.2-52.3-0.5c-15-0.7-30.9,0-44.9-6.1c-4.7-2-0.6-8.9,4-6.9
			c7.4,3.2,15.4,3.8,23.4,4.2c7.8,0.4,15.6,0.8,23.4,1.1c16.1,0.6,32.2,0.9,48.3,0.2c31.8-1.5,63.2-7.5,93.4-17.6
			C913,876.1,915.1,883.8,910.3,885.5z"/>
		<path class="st11" d="M935.5,951.6c-4.3,6.5-8,13.4-10.4,20.8c-4.6,14.5-3.4,30-2.3,45c0,0.2,0,0.4,0,0.6
			c3.7,23.4,9.3,46.4,17,68.7c4,11.7,8.3,23.1,15.1,33.5c1,1.6,2,3.1,3,4.7c-2-10-4.8-19.9-7.5-29.8c-4.5-16.5-8.1-33.1-10.4-50
			C935.9,1014.1,935.5,982.8,935.5,951.6z"/>
		<path d="M908.1,877.7c-30.2,10.1-61.6,16.1-93.4,17.6c-16.1,0.7-32.2,0.4-48.3-0.2c-7.8-0.3-15.6-0.7-23.4-1.1
			c-7.9-0.4-16-1-23.4-4.2c-4.7-2-8.8,4.9-4,6.9c14,6.1,29.9,5.5,44.9,6.1c17.4,0.8,34.9,1.2,52.3,0.5c33.2-1.4,66-7.4,97.5-17.9
			C915.1,883.8,913,876.1,908.1,877.7z"/>
		<path d="M1030.1,1404.3c-5.5-18.7-11-37.3-16.5-56c-0.2-0.6-0.4-1.1-0.8-1.5c0-0.1-0.1-0.3-0.1-0.4c-1.5-3-2.5-6.2-3.2-9.6
			c-1-4.5-7.3-3.3-7.8,0.7c-0.4,0.8-0.5,1.7,0,2.8c3,7.8,3.1,15.9,3.3,24.2c0.2,9.2,0.3,18.5,0.5,27.7l0.5,27.7
			c0.1,7.7,0.6,15.6-0.1,23.3c-0.1,0.1-0.1,0.1-0.2,0.2c-3.5,3.8,2.1,9.4,5.6,5.7c0.7-0.4,1.4-0.9,1.8-1.6c3.1-2.5,6.9-3.3,11.1-3.4
			c1.1,0,3.8-0.4,4.6,0.1c1,0.7,2,2.8,2.2,4.5c-0.2,1.1-0.6,2.1-1,3.2c-1.3,3.3,2,5.3,4.8,4.7c1.2,0,2.3-0.6,2.9-2
			c0.5-1.1,0.9-2.3,1-3.7c1.7-6.7,0.9-13.5-0.7-20.3C1035.6,1421.9,1032.7,1413.1,1030.1,1404.3z M1030.7,1436.6
			c-5.2-1.2-11.2-0.7-16.5,1.4c0.2-6.6-0.1-13.3-0.2-19.8c-0.2-9.2-0.3-18.5-0.5-27.7c-0.1-5.1-0.2-10.2-0.3-15.3
			c2.7,9.2,5.4,18.4,8.1,27.6c2.5,8.4,5,16.9,7.4,25.3C1029.5,1431,1030.3,1433.8,1030.7,1436.6
			C1030.8,1436.6,1030.7,1436.6,1030.7,1436.6z"/>
		<path d="M1009.6,1301.4c0.5-0.6,0.8-1.4,0.9-2.3c3.4-51.7-16.5-100.5-36.1-147.2c-0.5-1.1-1.2-1.8-2.1-2.2
			c-1.2-2.4-2.5-4.8-3.8-7.2c-1.4-15.6-5.3-30.8-9.4-45.9c-4.5-16.5-8.5-32.9-10.9-49.8c-4.9-34.7-4.8-69.8-4.8-104.7
			c0-0.5-0.1-0.9-0.2-1.3c1-1.3,2-2.6,3-3.9c16.1-21,34.3-45.5,26.2-73.5c-0.5-1.6-1.6-2.5-2.9-2.7c-20.1-22.3-37.2-47.2-50.8-73.8
			c0.6-0.5,1-1.2,1.2-2.2c2.6-19.3,4.2-38.8,4.6-58.3c0.3-15.2-0.2-32-8.8-45.1c-8.9-13.3-24.5-19.3-39.5-22.8
			c-16.1-3.7-32.7-4.5-48.8-8c-9.1-1.9-18.1-4.7-26.3-9.4c-7.5-4.3-14.2-9.5-23.4-7.8c-5.1,0.9-2.9,8.6,2.1,7.7c0.1,0,0.2,0,0.3,0
			c-2,6-9.3,8.9-14.8,10.8c-6.8,2.4-14,3.6-21.2,3.8c-14.5,0.3-28.8-3.4-41.8-9.6c-13.1-6.2-25-14.7-36.1-23.9
			c-10.7-8.8-20.8-18.4-28.6-29.9c0-2.6-2.9-5.4-6.1-3.8c-10.6,5.3-23.6,4.8-35.1,5.9c-12.1,1.2-24.1,2.6-36.1,4.4
			c-20.4,3-40.6,5.9-57.2,19c-14.2,11.2-24.4,27.6-27.6,45.4c-2.1,11.9-2.1,24.2-2.5,36.3s-0.9,24.2-1,36.4
			c-0.1,26.3,6.9,52.6,11.9,78.3c0,22,0,44,0,66c0,22.2-0.2,44.4,1.4,66.5c1.6,21.6,3.7,43.2,2,64.9c-0.8,10.6-2.4,21.1-5,31.5
			c-2.5,10.5-6.4,20.5-9.4,30.8c-6.7,23.3-6,47.8-5.1,71.8c0,0.7,0.2,1.3,0.5,1.8c-0.5,38.8-0.9,77.5-1.4,116.3
			c-0.4,36.9-3.2,74.9,2.9,111.6c-1.5,4.1-0.7,8.9,2.7,12.1c3.7,3.6,9.4-2.1,5.7-5.7l-0.1-0.1c0.5-0.8,0.7-1.8,0.5-2.9
			c-0.1-0.7-0.3-1.4-0.4-2.2c0.1-0.1,0.2-0.2,0.3-0.2c0.9-0.6,1.4-1.3,1.7-2.2c9.5-8.4,21.9-12.8,34.6-13.7c5.7-0.4,36.5-0.7,40,7.6
			c0,0.3,0,0.6,0.1,0.9c0,0.4,0.1,0.8,0.2,1.2c0,0.4-0.1,0.7-0.3,1.1c-1.7,4.9,6.1,7,7.7,2.1c1.2-3.5,1.1-6.4,0-8.8
			c-1.1-14-4.2-27.9-3.7-42c0.4-14.7,3.5-29.1,6.9-43.4c6.6-27.5,14.5-55.1,10.5-83.7c0-0.1,0-0.1,0-0.2
			c5.9-59.8,10.5-119.8,14-179.8c0.4-0.6,0.6-1.3,0.6-2.1c-0.5-41.2,0.8-82.5,4-123.6c27.1,68,47.6,140.2,41.1,214
			c-1.9,21.9-6.4,43.5-13.5,64.3c-0.3,0.9-0.3,1.7-0.1,2.3c-12.6,40.6-26.8,80.7-42.7,120.2c-2.1,1.5-2.8,5.1,0.1,6.8
			c49.1,28.7,109.2,32.4,164.7,35.5c30.2,1.7,60.4,2.4,90.6,2.3c27.8-0.1,55.6-1.3,83.2-5c30.8-4.2,61-12,89.4-25
			C1009.2,1303.9,1009.8,1302.7,1009.6,1301.4z M950.4,1095.1c2.7,9.9,5.4,19.8,7.5,29.8c-1-1.6-2-3.1-3-4.7
			c-6.8-10.4-11.1-21.8-15.1-33.5c-7.7-22.4-13.3-45.4-17-68.7c0-0.2,0-0.4,0-0.6c-1.1-15-2.3-30.4,2.3-45
			c2.4-7.5,6.1-14.3,10.4-20.8c0,31.2,0.4,62.5,4.5,93.5C942.3,1062,945.9,1078.6,950.4,1095.1z M1002.6,1298.2
			c-49.9,22.6-105.3,27.8-159.5,28.4c-28.9,0.3-57.9-0.3-86.8-1.6c-29-1.3-58.1-3.3-86.8-7.6c-28.5-4.3-56.7-11.4-82-25.3
			c16.3-40.4,30.8-81.6,43.6-123.2c0.2-0.8,0.2-1.5,0.1-2.1c24.4-74.5,13.9-154.9-9.9-228.2c-7-21.5-15.1-42.7-23.7-63.6
			c-0.3-0.8-0.8-1.4-1.4-1.8c0.9-10.4,1.9-20.7,3-31l0,0c1.4-29.7,1.4-59.4,0.1-89c-0.2-5.1-8.2-5.2-8,0c1.3,29.7,1.3,59.4-0.1,89
			l0,0c-6.2,56.5-8.9,113.4-8.3,170.2c-0.3,0.5-0.5,1.1-0.5,1.8c-3.5,60.4-8.2,120.7-14.1,180.9c-0.1,0.7,0,1.3,0.2,1.8
			c0,0.2,0,0.3,0,0.5c4,28.7-5.3,56.9-11.7,84.6c-3.1,13.3-5.6,26.7-6,40.4c-0.4,11.6,1.6,23,3,34.5c-9.9-4.3-24.9-4.8-31.5-4.9
			c-16.4-0.2-32.8,4.1-45.6,14.4c-2-15.5-2.3-31.1-2.3-46.7c0.1-19.4,0.4-38.8,0.7-58.2c0.5-39.3,0.9-78.5,1.4-117.8
			c0-0.9-0.2-1.7-0.6-2.2c-0.7-20.4-1.2-41.1,3.7-61c2.6-10.5,6.7-20.5,9.5-30.8c2.7-10,4.5-20.3,5.7-30.6c2.4-21.6,1-43.1-0.7-64.7
			c-1.7-21.8-2.1-43.5-2-65.3c0-25,0-49.9,0-74.9c0-0.1,0-0.1,0-0.2c0-0.3,0-0.6,0-0.9c0-0.7-0.2-1.4-0.5-1.9
			c-2.1-10.8-4.1-21.5-6.2-32.3c-2.2-11.4-4.6-22.8-5.1-34.4c-0.5-11.3,0.1-22.7,0.5-34c0.4-11.8,0.6-23.7,1.5-35.6
			c1.4-18.9,8.9-36,23.3-48.7c15.7-13.9,36-16.6,56-19.6c13.2-1.9,26.5-3.5,39.8-4.7c10.1-1,20.5-1.2,30-4.7
			c8.7,12.7,20,23.2,31.9,32.8c13,10.5,26.8,19.9,42.4,26.2c15,6.1,31.4,8.9,47.5,6.8c12.1-1.6,31.6-6.4,35-20.3
			c4.5,2.1,8.8,5.6,12.6,7.5c6.3,3.2,13,5.5,19.9,7.2c14.4,3.6,29.3,4.7,43.8,7.2c14.1,2.4,30.1,5.8,40.5,16.3
			c10.6,10.8,11.7,27.1,11.7,41.4c-0.1,17.8-1.3,35.7-3.4,53.4c-5.9-12.7-11.1-25.9-15.4-39.3c-1.6-4.9-9.3-2.8-7.7,2.1
			c15.4,47.6,40.8,91.6,74.4,128.7c0.3,0.3,0.6,0.6,0.9,0.8c6.6,27.9-15.9,51.5-31.1,72.2c-7.6,10.3-14.5,21.5-17.7,34.1
			c-3.6,13.8-2.8,28.1-1.7,42.1c-0.1,0.5-0.1,1-0.1,1.6c3.8,24.9,9.8,49.4,18.1,73.2c4,11.4,8.2,22.7,14.8,32.9
			c4.6,7.2,9.2,14.3,13.4,21.6c0.2,0.9,0.6,1.6,1.2,2.2c1.6,2.9,3.2,5.8,4.7,8.8c0.4,0.9,1,1.4,1.7,1.7
			C987.1,1202.5,1005.6,1248.9,1002.6,1298.2z"/>
	</g>
</g>
<g id="Слой_2_1_">
	<path class="st12" d="M619.8,312.9c-0.5,1.7-1,3.4-1.6,5.1c0.7-2,1.5-4,2.3-6C620.3,312.3,620.1,312.6,619.8,312.9z"/>
	<path class="st12" d="M668.7,253c-0.4,0.2-0.8,0.3-1.2,0.5c-9.3,6.2-19.1,12.4-25.2,21.8C649.9,266.5,658.9,259,668.7,253z"/>
	<path class="st12" d="M778.9,227.8c-1.4,0.2-2.9,0.4-4.3,0.7c-0.7,0.1-1.4,0.3-2,0.5c2.3-0.4,4.5-0.7,6.8-0.9
		C779.2,228,779.1,227.9,778.9,227.8z"/>
	<path class="st13" d="M872.9,353.4c0-0.2-0.2-0.4-0.3-0.6c1.7-13.4,0.9-27.1,0.1-40.6c-0.5-9-1.4-18-4.6-26.5
		c-3.2-8.3-8.5-15.8-13.5-23.1c-4.8-7.1-10.2-14-17.5-18.6c-7-4.5-15.2-6.9-23.2-9.1c-16.5-4.4-35.4-5.9-51.8-0.3
		c1,0.4,3.2,1.5,4.1,1.9c22.1,10.5,31.9,38.5,35.9,61.6c4.7-7.3,12.7-13.5,21-16.4c8.8-3.1,20.5-3.5,28.8,1.7
		c9.1,5.7,12.1,18.2,14.6,28.1c2.6,10.4,3.8,19.3,2.6,29.8c0.5,3.1,2.6,15.7,2.6,16.3c0.2,0.1,0.5,0.1,0.7,0c0.8-0.2,1.3-1.1,1-1.8
		C873.3,354.9,873.1,354.1,872.9,353.4z"/>
	<path class="st12" d="M596.6,447.6c0-2.5,0.1-5.1,0.1-7.6c0.1-6.5,0.1-13,0.2-19.5c-0.4,8.7-0.5,17.4-0.7,26.1
		C596.4,446.9,596.5,447.3,596.6,447.6z"/>
	<path class="st12" d="M599,388.3c0.3-2,0.6-4.1,0.9-6.1c-0.2,0.9-0.4,1.8-0.6,2.7C599.2,386,599.1,387.1,599,388.3z"/>
	<path class="st13" d="M703.4,694c-5.7-18-16.8-33.2-28.1-48.1c-10-13.3-21.4-26.9-22.8-44.1c-0.8-9.8,0.3-20,0.7-29.8l1.2-30.8
		c0.8-20.4,1.6-40.7,2.4-61.1c-0.1,0-0.2,0-0.4,0c-0.6,0.1-1.2-0.1-1.8-0.3c-5.1-0.1-9.8-2.5-13.8-5.9c-1.9-1.2-3.6-2.7-5.1-4.3
		c-0.1,23.1-0.3,46.2-0.4,69.3c-0.1,10.6-0.1,21.3-0.2,31.9c-0.1,10.1-0.8,20.5,0.4,30.6c1.2,10.4,6.1,18.9,12.1,27.2
		c6.1,8.4,12.3,16.7,18.5,25c17.3,23.4,38.3,49.1,41.7,78.5C708.8,719.3,707.3,706.4,703.4,694z"/>
	<path class="st13" d="M785.6,258.4c-8.5-13.8-20.4-23.1-36.8-24.7c-7.1-0.7-14.3-0.4-21.4-0.3c-7.1,0.2-14.5,0.7-21.3,2.8
		c-8.1,2.5-24.4,10.8-24.9,12.4c-17.1,8-31.5,19.8-42.8,35c-11.1,14.9-16.9,33.1-22.7,50.6c-6.3,18.9-12,38.1-14.3,57.9
		c-2.3,19.5-2.3,39.3-2.5,58.9c-2.1,24.5,0.1,116.3-10.9,146.4h0.4c1.1-0.5,2.3-0.7,3.6-0.5c0.9,0.1,1.8,0.1,2.7,0.1
		c0.1,0,0.3,0,0.4,0c2.7-0.2,5.4-1,8.1-1.4c4.5-0.8,9.1-1.4,13.6-2.5c0.6-0.2,1.1-0.2,1.7-0.3c1.7-0.6,3.6-0.9,5.5-1.1
		c0.1-0.1,0.3-0.2,0.5-0.2c1.6-0.3,3.2-0.7,4.7-1.4c0.9-0.4,1.6-0.8,2.3-1.5c0.2-0.2,0.4-0.5,0.7-0.7c-0.4-40.2,0.5-80.5,0.7-120.7
		c0-0.3,0.1-0.5,0.2-0.7c-1.8-1.6-3.1-4-4.2-5.9c-3.1-5.2-5.5-11.3-6.9-17.2c-0.1-0.3-0.1-0.6-0.1-0.9c-0.2-0.6-0.4-1.3-0.6-1.9
		c-0.3-1.2-0.4-2.5-0.6-3.7c0,0-0.3-1.8-0.3-1.7c-0.2-1.1-0.4-2.3-0.6-3.4c-0.1-0.4-0.1-0.9-0.1-1.3l0,0c-0.4-1.9-0.7-3.9-0.8-5.9
		c-0.3-0.8-0.4-1.7-0.4-2.6c0-0.1,0-0.3,0-0.4c-0.1-0.5-0.2-1-0.3-1.4s-0.1-0.8-0.1-1.1c-0.6-3.3-0.2-7.3-0.2-10.3
		c-0.1-4.1,0.3-8.2,1.7-11.9c0.7-2.8,1.8-5.5,3.4-8.1c0.2-0.3,0.4-0.5,0.6-0.8c0.2-0.4,0.5-0.8,0.7-1.2c0.2-0.3,0.3-0.5,0.5-0.8
		c0.2-0.4,0.5-0.8,0.9-1.1c2.3-2.2,5-3.4,7.7-3.8c0.8-0.4,1.6-0.7,2.5-0.7c1.7,0.1,3.4,0.3,4.9,0.8c0.7,0.2,1.3,0.5,1.9,0.8
		c8.4,2.3,14.1,11.8,19.2,18.8c0-0.1,0.1-0.2,0.1-0.3c0.3-0.7,0.5-1.3,0.8-2c0-0.2,0-0.4,0.1-0.6c5.4-17.8,11.2-35.5,17.6-53
		c4.7-13,9.2-25.1,19.7-34.7c10-9.2,22.4-17.6,34.6-23.4c20.7-9.9,50.1-7.3,65.2,11.5C797.6,284.1,793,270.4,785.6,258.4z"/>
	<path class="st12" d="M657.5,543c0.1-4.2,0.3-8.5,0.5-12.7c0-0.4,0.1-0.8,0.2-1.2c0-2.2,0-4.3,0-6.5L657.5,543
		C657.5,543.1,657.5,543.1,657.5,543z"/>
	<path class="st12" d="M711.1,729.4c-0.1,3.5-0.4,6.9-0.9,10.4C711.1,736.5,711.2,732.9,711.1,729.4z"/>
	<path class="st13" d="M821.3,650c1.9,0.4,3.9,0.7,5.7,1.1c4.6,0.9,9.4,1.6,14.1,2.4c3.2,0.3,6.5,0.6,9.7,1.4c0.4,0,0.8,0.1,1.2,0.2
		c6.4,0.9,12.9,1.7,19.2,3.4c0.2,0,0.4,0,0.6,0.1c-11.3-52.1-10.8-105.8-9.4-159.1c-1.1,3.6-2.4,7.1-3.7,10.5
		c-1.3,3.5-2.8,7-4.2,10.5c-0.4,1.1-1,2.1-1.6,3.2c-0.1,0.3-0.2,0.6-0.4,0.9c-1.9,3.5-2.9,7.4-4.5,11c-1.6,3.6-3.5,7-5.2,10.5
		c-3.5,7.1-6.6,13.7-11.4,20c-0.9,1.7-1.9,3.3-2.9,4.9c-3.9,5.7-8.2,11.1-13.5,15.4c-8.6,6.9-20.2,12.6-31.2,10
		c-6.2-0.5-12.1-2.6-18.2-4.4c0.3,6.2,1.7,12,2.6,18.2c0.1,0.4,0.1,0.8,0.2,1.2c0.1,0.2,0.1,0.4,0.2,0.6c1.9,7.7,4.5,15.3,8.9,21.9
		c0.5-0.1,1-0.1,1.6-0.1c12.8,0.3,22.6,9.2,34.2,13.5C815.7,648.2,818.5,649.2,821.3,650z"/>
	<path class="st12" d="M647.8,633.9C647.8,633.9,647.9,633.9,647.8,633.9c-2-2.7-4-5.5-5.9-8.4C643.6,628.5,645.7,631.2,647.8,633.9
		z"/>
	<path class="st12" d="M675.7,248.9c-0.7,0.3-1.3,0.5-2,0.8c-0.6,0.4-1.1,0.9-1.7,1.3c-0.1,0.1-0.2,0.2-0.4,0.3c2-1.2,4-2.2,6.1-3.3
		c-0.2,0.1-0.5,0.2-0.7,0.3C676.6,248.5,676.1,248.7,675.7,248.9z"/>
	<path class="st12" d="M605.3,357.9c0.7-2.6,1.4-5.2,2.2-7.8C606.6,352.7,605.8,355.3,605.3,357.9z"/>
	<path class="st13" d="M864.1,307.6c0-0.3,0-0.6-0.2-0.9c-0.3-0.6-0.5-1.2-0.8-1.7c0.3-0.2,0.4-0.6,0.3-1.1
		c-1.1-9.4-9.2-16.9-16.6-21.8c-0.9-0.6-1.7-0.1-2,0.6c3.5,4.2,6.5,8.3,9.2,12.4c1.9,2.9,3.9,5.8,5.2,8.9c0.2,0.3,0.3,0.5,0.4,0.8
		c1.7,2.2,2.4,5.1,3.3,7.8c1.6,4.6,3.4,9.2,4.2,14.1c0.4-0.2,0.6-0.6,0.7-1.2C868.3,319.5,866.4,313.1,864.1,307.6z"/>
	<g id="Слой_5">
		<path d="M876.2,322.3c-0.7-14.5-1-29.5-7.6-42.7c-3.2-6.5-7.4-12.5-11.5-18.5c-3.7-5.4-7.6-10.7-12.5-15.1
			c-10-9-24-12.9-36.9-15.7c-15.6-3.4-32-3.8-47.1,1.9c-0.5,0.2-0.8,0.5-0.9,1c-10.9-3.2-22.9-2.7-34.1-2.4c-7,0.2-14,0.8-20.7,3
			c-6.3,2.1-12.3,5.2-18.1,8.3c-2.4,1.3-4.7,2.6-7.1,3.9c0.1,0.3,0.1,0.5,0.1,0.8c-14.5,6.9-27.6,16.8-38.1,29
			c-11.6,13.5-19,29.2-24.9,45.9c-6.6,18.9-12.9,38.1-16.5,57.8c-3.6,20-3.5,40.2-3.7,60.5c-0.3,23.9-0.5,47.7-0.8,71.6
			c-5.5,29.5,2.9,62.2-12.7,89.4c-1,1.7,1.6,3.2,2.6,1.5c15.7-27.3,7.6-59.6,12.9-89.3c0.1-0.2,0.2-0.5,0.2-0.8c0-0.2,0-0.4,0-0.6
			c0-0.2,0.1-0.3,0.1-0.5c0.1-0.3,0-0.6-0.1-0.9c0.2-19.8,0.4-39.7,0.7-59.5c0.2-19.6-0.3-39.4,1.9-58.9c2.3-19.8,8.1-39,14.3-57.9
			c5.8-17.5,11.9-34.9,22.9-49.8c11.2-15.2,26.3-27.3,43.3-35.3c0.7-0.3,0.9-1,0.7-1.5c7.6-4.5,15.5-8.6,23.7-11.1
			c6.8-2.1,13.9-2.5,20.9-2.7c7.1-0.2,14.2-0.3,21.3,0.4c16.3,1.6,28.5,10.4,37,24.2c7.4,12,11.9,25.8,14.3,39.7
			c-15.1-18.8-44.5-21.4-65.2-11.5c-12.3,5.9-24.6,14.3-34.6,23.4c-10.5,9.5-15,21.6-19.7,34.7c-6.3,17.5-12.1,35.2-17.6,53
			c-0.1,0.2-0.1,0.4-0.1,0.6c-0.2,0.7-0.5,1.3-0.8,2s-0.2,1.6,0.5,2.1c0.6,0.4,1.7,0.2,2.1-0.5c0.4-1.1,0.9-2.1,1.2-3.2
			c0.1-0.2,0.1-0.4,0-0.6c5.2-17,10.7-33.9,16.7-50.6c2.9-8,5.5-16.6,10-23.9c4.5-7.4,11.2-13.1,18.1-18.1
			c13.2-9.6,27.7-20,44.5-21.4c15.6-1.3,34.4,4.5,43.7,17.9c0.4,0.6,1.1,0.8,1.7,0.6c0.4,0.7,1.4,0.7,2,0.2c0.3-0.1,0.6-0.3,0.7-0.7
			c4.2-8.4,11.5-14.3,20.3-17.4s21.1-4.5,28.6,2.2c7.2,6.5,10.7,17.8,12.8,27c2.5,11,2.6,22.2,0.6,33.3c-0.4,1.9,2.5,2.7,2.9,0.8
			c2.3-12.1,2-24.6-1-36.6c-2.5-9.9-6.8-22.9-15.9-28.7c-8.3-5.2-19.9-4-28.8-0.9c-8.3,2.9-15.5,8.1-20.2,15.4
			c-4-23.1-14.4-50.9-36.6-61.4c-0.9-0.4-1.9-0.8-2.8-1.2c16.4-5.6,33.9-4,50.4,0.4c8,2.1,16.2,4.6,23.2,9.1
			c7.3,4.7,12.6,11.6,17.5,18.6c5,7.3,10.3,14.8,13.5,23.1c3.2,8.4,4.1,17.5,4.6,26.5c1.1,18.3,2.2,37-2.9,54.9
			c-0.5,1.9,2.4,2.7,2.9,0.8C876.9,353,877,337.6,876.2,322.3z"/>
		<path d="M709.4,705.7c-3.3-17.9-11.5-33.7-21.9-48.4c-10.2-14.4-24.4-28.5-30-45.6c-3.2-9.9-2-20.5-1.6-30.7
			c0.4-10.3,0.8-20.5,1.2-30.8c0.9-23.5,1.9-47.1,2.8-70.6c0.1-1.9-2.9-1.9-3,0c-0.8,20.5-1.6,41.1-2.5,61.6l-1.2,30.8
			c-0.4,9.8-1.5,20-0.7,29.8c1.4,17.2,12.8,30.8,22.8,44.1c11.2,14.9,22.4,30.1,28.1,48.1c3.9,12.4,5.4,25.3,4.5,38.1
			c-3.4-29.5-24.4-55.1-41.7-78.5c-6.2-8.3-12.4-16.6-18.5-25c-6-8.3-10.9-16.9-12.1-27.2c-1.1-10.1-0.5-20.5-0.4-30.6
			c0.1-10.6,0.1-21.3,0.2-31.9c0.1-23.9,0.3-47.9,0.4-71.8c0-1.9-3-1.9-3,0c-0.2,41.7-1.2,83.5-0.7,125.2c0.1,8.5,1.1,16.7,4.7,24.5
			c4,8.5,10.1,15.8,15.6,23.3c11.8,15.9,24.2,31.4,34.9,48.1c12.1,18.9,21.2,41,17.1,63.8c-0.1,0.3,0,0.5,0.1,0.8
			c-0.3,1-0.5,2-0.8,2.9c-0.6,1.9,2.3,2.6,2.9,0.8C711.5,740,712.5,722.6,709.4,705.7z"/>
		<path d="M876,666c0.1,0,0.1,0,0.2,0c-14-58.9-12.3-119.9-10.6-180c0.1-1.9-2.9-1.9-3,0c-1.9,59.8-3.4,120.4,10.2,179
			C874.1,665.1,875.1,665.5,876,666z"/>
	</g>
</g>
</svg>
