<?xml version="1.0" encoding="utf-8"?>
<!-- Generator: Adobe Illustrator 22.0.0, SVG Export Plug-In . SVG Version: 6.00 Build 0)  -->
<svg version="1.1" baseProfile="tiny" id="Слой_1"
	 xmlns="http://www.w3.org/2000/svg" xmlns:xlink="http://www.w3.org/1999/xlink" x="0px" y="0px" viewBox="0 0 3000 3000"
	 xml:space="preserve">
<g>
	<path fill="#68C6BF" d="M1806.4,2349.3c-21,79.7-126.1,212.2-192.1,262.7c-60.6,46.4-159.4,57.4-234.1,62
		c-151.4,9.3-305.8-0.1-457.2-4.7c-102.6-3.1-221.9-1.4-318.2-43.3c-97-42.2-138.5-116.7-180.8-206.2
		c-35.5-75.1-117.3-146.2-141.9-221.7c-22.3-68.4-6.6-160.4-26-233.6c-19.2-72.4-48.6-104.8-23-178.5c21-60.3,34.2-128.6,41-191.3
		c3.3-30.1-5-73.6,1.8-103c12-51.7,60.6-103.3,84.1-149.8c30.3-59.9,46.8-120.6,93.1-169.3c52.1-54.9,113.1-118.5,172.9-165.5
		c63.8-50.2,174.7-72.1,220.8-140.5c29.7-44.1,17.3-109.4,17.3-164.2c0-63.1-28.6-216.4,23-247.2c66.2-39.5,251.3-18.7,317.4-13.2
		c72,6,58.2,25.1,58.4,96.6c0.3,80.8-9.6,171.1-0.5,250.9c13.4,117.9,117.9,139.6,208,196.6c69,43.6,121.6,113.2,182.9,167.5
		c63.9,56.6,84.3,72.7,41.3,157.4c-32.8,64.6-62.4,127.4-91.7,193.5c-42.4,95.8-161.8,55.2-235.4,121.3c26.4,19.9,25,50.3,41.4,75
		c29.2,44,97.2,28.9,119.7,59.2c7.3,9.9,1.6,66.9-9.2,78.8c-19,20.9-29.7,14.1-70.6,9.1c-53.5-6.5-56.1-23-64.7,26.9
		c-10.5,60.8,25.3,51.1,70,42.9c11-2,51.3-16.9,57.9-12.2c15.3,10.8,21.1,117.2,30,143.4c-34.9,19.1-114.9-87.5-156.6-59.1
		c-19.7,13.4,68.3,68.9,88.5,80.1c61.1,33.9,76.1,21.2,112.3,81.3C1642.2,2244.4,1726.8,2282.8,1806.4,2349.3z M695.9,2124.1
		c-69.4,28.8-197.2,186.7-195,259.5c2.9,93.1,232.5,219.5,281.4,157.1c22.5-28.8,14.1-88.3,17.7-122.8
		c4.7-44.4,18.2-81.9,32.2-124.9c28.6-88.2,26.8-70-45.3-127.1C760.4,2144.9,729.2,2088.7,695.9,2124.1z M413.8,1696.3
		c44.7-8.3,133.9,56.4,177.3,26.8c20.4-13.9,16-83.1,22.6-105.1c7.6-25,23.3-45.1,34.1-68.3c46.1-98.7-65.3-150.7-131.1-219.3
		c-44-46-37.4-55.7-58.8-6.3c-8.8,20.4-9.1,35-15.4,51.6c-2.8,7.5,12.6,16.4,5.6,28.8c-11,19.6-30.8,10.1-45.9,20.5
		c-29.4,20.1-42,16.6-55.6,51.9c-15.7,40.7,12.3,60.2,11.5,86.4C355.7,1643.2,333.9,1650.2,413.8,1696.3z M438.4,2304.2
		c39-36,75.6-78.2,113-116.2c22.4-22.7,119.1-88.2,126.2-112.7c5.9-20.3-14.6-42.1-26.1-61.5c-31-52.4-34.4-69.3-103-59
		c-72.3,10.9-235.9,47.2-236.6,134.5C311.4,2157.9,366.8,2283.6,438.4,2304.2z M358.4,1982c56.5,0,111.5-42.4,167.4-53.3
		c34.4-6.7,82.5,9.7,95-28.8c9.7-29.7-20.4-45.9-30.7-69.3c-3.4-7.8-16.8-10.8-20.1-18.3c-1.8-4,9.9-18.1,8.7-20.1
		c-12.3-21.3,11.8-9.7-21.7-34.3c-16.1-11.8-50.7-11-69.7-14.3c-73.9-13.1-188-53.1-201.5,48.8
		C279.4,1841.3,301.2,1962.2,358.4,1982z M1039.6,1310.6c10.9-79.8,17.6-161.1,26.4-241.1c7.4-67.1,42.7-168.7-48.6-172.6
		c-136.9-5.8-90.6,132.9-79.4,213.4c6.7,47.9,17.7,97.3,21.7,146.9c1.3,15.8-5,56.7,3.9,67.3
		C982.7,1347,1027.4,1336.5,1039.6,1310.6z M922,1275.4c-20-54.4-24-118.6-35.7-174.8c-4.9-23.5-7.8-104.3-26.7-113.6
		c-12.5-6.1-91.5,48.8-99.1,55.7c-77.7,70.3-11.5,174.6,29.4,249.2c7.2,13,22.1,49.8,33.5,56.9c30.2,18.7,22.1,2.9,51.5-4.1
		c6-1.4,49.1-9.5,52-12.8C944.6,1312.3,918.7,1303.2,922,1275.4z M1192.2,2383.8c18.5,39,24.8,90.1,54.1,122.4
		c22,24.2,81.1,61.6,85.7,19.8c3.8-35.3-80.6-105.8-60-140.1c35.9,20,48.2,60,80,29.6c32.2-30.8-18.7-80.6-42.5-115
		c-31.2-45.2-65.7-89.5-103.5-129.6c-38-40.3-106.9-55.8-101.6,5.8C1108.8,2227.7,1215.1,2335.6,1192.2,2383.8z M922.5,2210.8
		c-19.4,18.8-11.6,84.8-17.4,111.6c-9,41.1-26.2,80.5-25.4,123.5c1.1,53-6.5,40.8,43.6,57.4c28.7,9.5,116.4,55.9,141.8,51.1
		c40.3-7.7,18.8-41.2,6.5-84.9c-8.4-29.9-17.3-59.2-24.8-89.4C1031,2315.9,1028.4,2155.9,922.5,2210.8z M549.5,1268.8
		c6.3,45.1,97.2,105.1,128.4,130c65.7,52.3,94.3,18,63-54.6c-17.4-40.4-63.8-201.4-96.1-212.2C591.7,1114.2,528,1235.9,549.5,1268.8
		z M1186,1052c-61.5,32.8-65,151.6-78.1,213c-8.4,39.5-22,47.5,5.7,73.3c26.2,24.4,56,10.9,74.8-6.3
		c22.4-20.5,75.3-138.8,75.9-169.5c0.9-52.7-29.1-17.6-48.3-51C1197.2,1078.8,1245.9,1052,1186,1052z M1242.2,1402.5
		c57.6,59.3,45.9,76.3,105.4,19.7c64.3-61,88.8-67.3,59.3-156c-23.4-70.3-44.2-64.3-90.6-12.5
		C1298.7,1273.3,1197.5,1396.9,1242.2,1402.5z M1308.4,2104.9c-9.9,26.1,216.3,194.1,255.7,162c30.9-25.3-89-89.8-106.5-101.8
		c-10.5-7.2-61.8-63.5-56.5-62.7c30.9,4.6,99.4,57.4,124.8,38.2c0-19.4-188.8-117.3-212.1-119.5c-17.2-1.6-85,27.7-75.8,52.5
		C1243.4,2088.6,1394.1,2061.4,1308.4,2104.9z M1462,1488.6c26.3-15.8,86.9-49.7,59.2-93.9c-29.6-47.2-96.4,6.8-126.8,29.2
		c-5.5,4-67.2,44.1-67.3,50.5c-0.4,17.7,27.6,26.7,40.5,39.6c10.8,10.7,17,37.6,31.1,38.4C1411.5,1553.1,1462,1497,1462,1488.6z"/>
	<path fill="#68C6BF" d="M2501.9,1362c65.3,108.3,108.2,240.9,138.5,361.1c43.3,171.9,36.2,354.6-98.2,485.8
		c-101.6,99.1-357.5,179.3-276.4,371.7c33.1,78.4,131.6,100.6,200.5,129.3c17.8,7.4,67.9-5.5,47.2,36c-8.5,17-34.4,18.7-51.1,23.9
		c-32.5,10.1-73.1,14.5-106.9,22.1c-111.3,25-232.2,18-344.9,13c-73.7-3.3-149.9-2.7-218.2-35.2c-131.8-62.9,25.3-81.8,83.4-105.9
		c59.5-24.6,113.7-55,122.7-123.9c24.8-190.8-241.1-251.9-338.8-371.3c-109.4-133.6-103-329.6-64.2-487.6
		c21.7-88.6,61.5-188.2,104.9-274c18.1-35.8,45.5-113,76.5-130.5c18.8-10.6,75.9-2.6,100.8-4.2c122.8-7.8,246.9-7.5,369.8-2.8
		C2330.4,1272.8,2501.9,1244.4,2501.9,1362z M2593.9,1638c-43.7-86.8-68.9-260.4-164.2-305.6c-46.5-22.1-109.3-13.4-160.5-14.3
		c-92.9-1.7-187.3-3.8-280-1.7c-40.2,0.9-175.9-13.7-190.9,15.9c-5.6,11.1,10.6,74.7,14,88.4c11.3,45.3,53.3,86.5,68.7,133.3
		c21.1,64.4,21,136.8,39.9,202.4c8.3,28.9,20.7,55.6,21.2,86.4c0.4,28.6-45.4,107.1-24.2,124.1c18.8,15.1,168.1-43.8,194.2-52.9
		c63.2-21.9,123-49.2,182.4-79.4c60-30.6,120.7-76.8,193.1-70.6c60.6,5.2,112.4,62.6,121.6-11
		C2613.3,1718.3,2593.9,1674.5,2593.9,1638z M2044.4,2608c25.5-21.2,16.5-44.1,22.5-71.8c33.9,1.4,53.4,54.7,107.6,24.5
		c35.6-19.8,39.7-55.2,10-79.5c-33.8-27.7-62.2-1-94.4-2.1c-18.4-0.7-42.9-18-54.9-16.9C2017.7,2478.2,2022,2608,2044.4,2608z
		 M1988.4,2658c12.8,56.4,205.8,23.2,189.7-2.7C2164.2,2632.9,1994.6,2638.3,1988.4,2658z M2198.9,2363.5
		c-34.4-16.2-175.2-28-184.8,12.1C2041,2391.2,2208,2391.9,2198.9,2363.5z M2173.8,2604.3c-12.7,0-85.5-12.5-85.5,8.4
		C2101.4,2633.3,2192.2,2622.4,2173.8,2604.3z"/>
	<path fill="#68C6BF" d="M1310,319.3c-6.3,107.6-106.7,70.8-194.6,70.8c-57.3,0-211.5,36.5-260.2,16.2c-14.8-6.2-54.7-62.6-47-76.7
		c13.3-24.6,85.4-18.1,113.9-19.2c48.5-1.9,97.5-3.5,146-4.2C1124,305.3,1269,276,1310,319.3z"/>
	<path fill="#68C6BF" d="M1356.3,231.1c28.5,55.1-118,30.9-146.3,30.9c-74.5-0.1-149.3,0.6-223.8,2c-30,0.6-233,29-215.7-29.1
		c14.3-47.8,265.5-42.8,308.3-42.8C1174.8,192.1,1265,197.8,1356.3,231.1z"/>
</g>
</svg>
