<?xml version="1.0" encoding="utf-8"?>
<!-- Generator: Adobe Illustrator 22.0.0, SVG Export Plug-In . SVG Version: 6.00 Build 0)  -->
<svg version="1.1" baseProfile="tiny" id="Слой_1"
	 xmlns="http://www.w3.org/2000/svg" xmlns:xlink="http://www.w3.org/1999/xlink" x="0px" y="0px" viewBox="0 0 3000 3000"
	 xml:space="preserve">
<g>
	<path fill="#69C7C0" d="M2395.1,2745.2c-7.3,7-1.8,20-5.9,31.6c-0.9,8.6-1.7,17.1-3.2,25.7c0,0.2-0.1,0.5-0.2,0.7
		c0.4,0,0.9,0,1.3,0c0.1,0,0.2,0,0.2,0c0.1,0,0.3-0.1,0.7-0.2c1.7-0.4,3.4-0.9,5-1.6c1-0.4,2.1-0.9,3.3-1.5c0.5-0.4,1.1-0.8,1.6-1.1
		c21.2-24.4,30.5-60.6-3-81.9c0.9-0.9,3.7,0.7,6.1,0.7c-9.5-14.6-28.9-55.4-14.4-71.2c-14.2,10.5-20.9,35.8,1.2,81.8
		c-6.3,2.3-11.1-0.4-14.6-8.1C2370.8,2738.2,2388.4,2734.2,2395.1,2745.2z"/>
	<path fill="#69C7C0" d="M1494.4,2702.8c-0.3,0.1-0.6,0.2-0.9,0.4c-3.9,6.2-26,66-51.7,85.3c0.2,0.5,0.4,1.1,0.6,1.6
		c0.3,1.1,0.4,2.3,0.4,3.5c18.4,2.9,35.4,7.3,49.8,14c10.1-5.7-8.7-15.5-11.5-15.8c13.7-9.1,12-29.1,13.8-46.3
		c4.2,7,35.6-0.8,41.5-8C1535.4,2734.4,1515.5,2708.8,1494.4,2702.8z"/>
	<path fill="#69C7C0" d="M2405.5,2662.6c0-0.4-1.3-14.4-1.4-14.3c12.7,1.9,22.5,9.6,29.2,23c5.5-25.8-27-38.8-46.2-25.2
		C2394.2,2661,2393.8,2652.1,2405.5,2662.6z"/>
	<path fill="#69C7C0" d="M1799.6,2637.7c-0.3,1.1-0.5,2.1-0.8,3.1C1800.3,2639.6,1800.7,2638.5,1799.6,2637.7z"/>
	<path fill="#69C7C0" d="M2819.3,2376c-1.8-0.3-3.5-0.8-5.2-1.7c-6.6-1.5-9-6.6-17.6-2.4c-0.1,1.7,17,13,9.4,18.3
		c-7.7,0-29.9-17.6-54-35.8c-2.2-1-4.4-2.1-6.4-3.3c-1.9-1.2-3.2-2.7-3.8-4.4c-9.3-6.9-18.6-13.4-27.1-18.8
		c-4.1-0.3-8.1-1.2-12.1-2.5c-6-2-13-5-18.3-5.2c-2.5-0.1-4.8-0.8-6.8-2.1c0.2,0.7,0.3,1.5,0.5,2.2c43.8,5.6,10,45.8-6,15
		c-1.8,0.6,1.6,8.9,7,19.7c2.3,0.5,4,1.8,5.2,3.6c2,0,4,0.9,5.8,2.9c3,3.4,7.4,5.4,9.8,9.4c2.5,4.2,1.6,8.4,1.9,12.7
		c0.4,4.1,3.5,9,5.7,12.7c1.4,2.4,2.9,4.8,4.3,7.2c27,3.1,28.3,48.2,59.3,61.4c14.9-7.4-17.8-43.3-24.2-51.1
		c1.1-2.1,13.6,5.2,16.1,5.5c3.6-15.5-23.1-34.9-18-45.4c5.6-3.9,32.2,22.3,34.9,24.4c1.2-4.8-0.5-9-5.2-12.5c10-6,18-0.9,24,8.3
		c1.6,1.3,2.7,3.3,3,5.3c8.6,17.2,11.7,41.7,9.2,41c-18.6-18-30-6.1-31.5,13.6c1.2-0.7,2.7-1.1,4.4-1.2c4.9-2.6,13-3,23.4,4
		c-0.1,0.2-0.3,0.4-0.6,0.5c2.6,2.8,3.5,6.7,2.6,11c-0.2,1-0.6,1.9-1.2,2.7c0.9,2.3,1.8,4.6,2.8,6.8c0.5,1.1,0.8,2.2,1,3.4
		c17.6,13.5,38.7,28,37.5,37.4c-7.5,59.7-58.3,12.7-54.7,10.2c2.3,5.4,6.5,7.5,12.4,6.2c2.5-4.5-1.3-21.3-2.6-23.6
		c-14.5-4.5-20.6,11.6-28.1-24.5c-3.6,0.7-24.1,9-27.6,12.2c0,1,0,2,0,3.1c1.8,5.2,2.8,10.7,3.7,16.3c0.4,2.6,0.3,5.2-0.4,7.5
		c0.8,4.2,1.7,8.4,2.4,12.5c1.5,1.5,2.4,3.4,2.6,5.5c11.8,0.2,18.2,5.4,28.3,7.4c4.9,14.3-66,10.2-65-10.6
		c14.3,2.2,6.9-0.2,12.9-3.2c0.1-0.7,0.2-1.5,0.4-2.2c-10.9-3.9-36.3-18.3-60.7-34.2c-11.2-5-20.3-12.6-29.3-20.5
		c-18.2-13.7-30.8-25.9-27.6-30.6c2.6-0.2,10.1-0.5,18.4-1.2c2.3-1,4.8-1.2,7.3-0.7c10.9-1.3,21-3.5,21.3-7.6
		c-1.5-1.5-39.1-44-38.9-44.4c0.7-0.6,26.9,9.6,27.5,10.3c2.5-1.8-5.3-26.5-14.2-43.7c-1.3-1.3-2.5-2.7-3.7-4.3
		c-1.7-2.4-3-5.1-3.9-7.9c-5.3-6.4-9.9-6.9-12,5.2c2.8,8.2,4.7,16.5,1,24.4c-0.1,0.7-0.1,1.2-0.2,1.7c-0.1-0.2-0.3-0.3-0.4-0.5
		c-0.6,1-1.2,2.1-2,3.1c-3.2,4.3-7.3,6.7-12.7,6.1c-4.7-0.6-9.2-4.1-10.5-8.8c-3.1-0.2-4.9-4.4-5.4-12.5
		c-9.3,11.2-6.9,20.2,7.2,26.9c-19.3,16.6-43.2-41.6-46.1-43.2c-31.2,37.6-41.2-26.3-51.7-47.7c19.9-2.9,67.2-20.3,49.9-22.1
		c19.4,2,41.4,2.2,53.7,23.8c7.8-15.2,23.4-22.4,41-34.6c-7.5-14.5-24.2-6.1-36.8-3.1c-15.7-36.8,104.5-2.2,75.3,3
		c3.7,2.7,36.7,8,35.1,18.4c-3.3,0.8-9.9,5.6-12,7.7c0.7,0.3,1.5,0.5,2.2,0.8c2.3,0.8,4.7,1.7,7.1,2.4c11.6,1.4,19.5-2.5,32.9,3.5
		c2.5,1.1-7.3,3.9-9.8,5.2c0,0.1,0.1,0.3,0.1,0.4c22.4,3.7-10.6,12.5-8.1,23c5.6-1.3,11.7-0.2,18.1,2.1c1-0.7,2.1-1.3,3.3-1.6
		c1.5-0.6,3.3-0.8,5.4-0.4c10.4,2.2,18.8,7.8,27.2,13.7c4.4,2.3,8.6,4.9,12.1,8.6c0.9,1,1.6,2,2,3.1c2.6,0.4,5,0.5,7.3,0
		c-0.3-0.8,0.3-1.4,1.5-1.7c0.1-0.7,0.3-1.4,0.6-2c-16.2-23-31.6-46.2-46.5-60.4c-23.3-22.3-153.3-88.5-72.9-79.1
		c-68.8-76.8-109.8-36.4-206.4-10.1c-12.8-25.2,4.9-74.9-46-28.1c-20.8,19.2,2.3,68.1-35,41.9c-4.9,4.6-3.9,8.5,3.2,11.8
		c-6.8,2-25.7-2.4-32.5-7.3c0-4,9.2-2.1,8.9-3.2c0.3-7.8-20.9-18.6-24.1-24.5c-0.5,0.5,66.4-8.5,9.4-16.5c-2.5,0.8-5.1,1-7.5,0.3
		c-0.9-0.3-1.8-0.6-2.5-1c-8.7,5.1-16,9.3-19.7,9.2c-34.1-1.1-43.9-8.4-70.5-20.8c-60.3-28.1-93.2-42.2-169.5-45.1
		c-70.2-2.7-64.4,18.1-78-34.3c-14.7-56.6,1.9-140.1,1.7-197.9c-0.3-135.6-7.3-269-6.1-404.4c1.6-191.9,0.5-383-0.1-574.4
		c-0.4-125.6,35.8-300.4-7.2-416.4c-55.5-149.8-521.6-88.8-646.1-86.5c-116.7,2.2-234.3,11.8-350.4,21.7
		c-48.1,4.1-95,9.7-142.2,19.4c-70.2,14.4-90.7,21.6-102.4,88.7c-21.9,125.8,72.3,334.8-91.2,392c-122.5,42.9-265.2-23.6-387.1,37
		c-223.3,111-139.8,426.3-126.7,626.4c10.9,165.9,19,372.6,99.1,521.3c73.8,136.8,217.9,146.7,355.3,165.6
		c58.3,8,144.3,11.2,191.1,51c39.4,33.5,28.1,41,23.7,97c-8.8,111.5-51.2,254.7,67.8,308.7c115.3,52.3,258.3,46.7,381.5,51
		c34.7,1.2,80.3-1.2,123.8,1c2.3-2.6,5-4.8,7.9-6.7c-0.1-0.1-0.1-0.2-0.2-0.2c11.7-14.3,33.7-24.8,49-35c-11.8-9-18.4-19.3-30.5-1.2
		c-2.1-3.6,30.5-88,31.4-88.8c31.2-27,4.2-4,54.3-5.9c9.3-44.6,25.3-130.8,80.7-133.2c74.6-3.2,2.8,59.4,13,92.9
		c24.2-36.9,26.5-46.8,53.2-62.2c7.6,23.3-46.5,113.2-13.8,122.2c-8.3-1.8-12.4-6.2-12.4-13.3c-0.8,0.8-30.9,22.6-29.6,27.8
		c13,7.2,42.5,4.9,50.4,12.4c-55,38-6.4,66.4,33.2,63.3c0.2,0.2,0.4,0.5,0.6,0.8c0.6-0.6,1.3-1.1,2-1.5c-2.7-2.5-5.4-5-7.7-7.5
		c2.1-15.9,12.4-2.6,17.2,5.4c2.1,0.3,4.2,1.2,5.9,2.6c24-19.7-24.1-87.5,29.8-65.7c61.3,24.8-8.9,37.1-1,61.5
		c10.2-3.6,38.7-30.3,40.7-29c-23.7,37.4-9.7,123-59.5,107.4c-1.5,2.6-3,5.3-4.4,8c-0.3,0.5-0.5,1-0.8,1.4
		c57.4,40.8,156.9-14.3,215.4-21.9c56.5-7.3,130.3,2.4,186.6,9c-4.2-12-34.3-27.6-47.4-32.4c20-1.9,30.8,7.3,41.6-14.5
		c-5.4-3.1-34.6-6.2-18.3-8.7c-3.4-4.8-59.6,32.8-37.3-10.1c-18.3-1.2-19.1,19.3-19.1,32.2c-31.5-13.5-46.2-80.9-34.4-109
		c30.1,69.6,38.5,0.4,41.7-13.2c6.3-27.1-6-34.3,12.9-58.1c13.7-17.3,43.5,3.6,56.9-26.3c-5.2-3.7-28-10.7-28.7-16.4
		c35.1-5.6,100.3-23.5,112.3-12.7c-10.6,11.9-22.4,12-32.7,15.6c0.1,2.2-0.5,4.5-1.5,6.6c8.3,5.3,28.2,4.6,35.3,8.6
		c-3.7,2.9-5.1,6.7-4.3,11.4c-20.5-11.8-30.6-9.5-49-12.3c-5,0.4-9.9,0.6-14.9,0.6c-4.3,2.4-7.7,5.7-10.2,10.1
		c4.2,3.2,9.1,5,14.5,5.6c-13.2,7.6-20.3,48.3-16.6,63.1c0.1-0.1,0.1-0.1,0.2-0.2c0.1-0.1,0.2-0.2,0.3-0.3c1-1.3,1.8-2.8,2.6-4.2
		c0.4-0.8,0.8-1.7,1.2-2.5c0.1-0.2,0.1-0.3,0.2-0.5c0.5-1.4,1-2.8,1.5-4.2c-0.6-0.7-1.3-1.3-1.9-1.9c0.1-0.1,1.2-0.3,2.7-0.6
		c1-3.3,1.9-6.7,2.8-10c4.3-15.9,28.9-9.1,24.6,6.8c-0.4,1.4-0.8,2.9-1.2,4.3c-0.3,4.7-1.6,9.5-4.2,13.4c-1.5,3.9-3.2,7.7-5.5,11.2
		c-1,1.5-2,2.9-3.1,4.3c0,0.1,0.1,0.3,0.1,0.4c22.5,8.2,28.3-15.3,37.7-27.5c19.6,2.1-16.2,28.4-22.7,31.9c2.6,1,4.5,2.6,5.8,4.7
		c1.9-0.5,3.8-1,5.7-1.4c0.1-0.3,0.2-0.4,0.2-0.4c0.1,0.1,0.2,0.2,0.3,0.3c4.4-1,8.7-1.8,13-3.1c0,0,0.1,0,0.1,0
		c0.2-0.3,0.4-0.6,0.6-1c1.7-2.8,3.3-5.6,4.7-8.5c0.4-0.7,0.7-1.5,1.1-2.2c0,0,0,0,0,0c0,0,0,0,0,0c0.5-1.3,1-2.5,1.4-3.8
		c0.2-0.5,0.3-1,0.4-1.5c-0.3-0.3-0.6-0.6-0.9-0.9c0.1-0.6,0.6-1,1.5-1.3c0,0,0,0,0,0c0-0.4,0.1-0.7,0.1-1.1c0-2.1,0.5-4,1.3-5.6
		c-0.3-0.1-0.5-0.3-0.8-0.5c5.8-6.8,9.3-14.4,10.7-22.9c6,3.9,6.6,8.2,6.9,12.4c3.4-1.1,7.3-0.9,10.1,1.1c2.3,1.6,4.5,3.4,6.2,5.6
		c5.6-2.9,8.5,0,8.7,9c3,4.7,2.2,11-1.4,15.4c0,0.2-0.1,0.5-0.1,0.7c-0.1,0-0.2-0.1-0.4-0.1c-1.2,1.3-2.6,2.2-4.1,2.8
		c4.5,42.2-10,137.2-55.9,89.6c1.5-9.7,26.2-15.7,34.4-16.1c-11-17.1-4.6,7.3-19.6-7.9c0.1,0,1.9-17.3-0.5-24.4
		c-3.4,0.9-6.8,0.8-10.1,0.2c-1.6,0.4-3.3,0.6-5,0.6c-6.5-0.2-10.9-3.4-13.7-7.9c-5.1-2.5-10.1-4.9-14.8-5.7
		c0.5,6.2-4.2,26.6-5.5,29.5c10.2,8.7,20.5,6.8,30.9-5.8c5.1,6.3-14.7,15.2-19.1,15.6c-8.4,12.1,25.1,10.3,25.3,10.9
		c-9.8,12.1-42.8-7.9-54.6,0.4c-2.5,17.1,2.4,6.6,7.5,6.3c0,1.2-9.4,15.3-9.6,15.8c20.9,21.7,28.8,4.8,56.9-2.7
		c-5,7.6-10.7,14.6-17.2,20.9c36.1,22.4,50.3-4.6,108.8-12.8c-23.8-35.7,10.4-30.8,31.2-27c18.2,3.3,26.2,53.9,65,54.6
		c6.8,0.1,14.1-2,21.4-5.8c0-0.1,0-0.2,0-0.4c-37.9-11.6-93.3-98-87.9-104.1c14.3-5.5,0.3-9.7,9-26.8c13.4,3.7-8.1-76,22.7-103.4
		c19.8,9.8,14.3,63,27.3,82.7c42.7-12.6-38.3-91.1,19.9-80.6c18.1-33.1,17.4,1.2,38.7-19c-12.7-27.3-4.1-15.1,16.5-22.7
		c6,27.9,25.3,78.5,79.3,49.2c0-1.7,0.4-3.3,1.2-4.8c-1.4-4-2-8.2-3.1-12.3c-21.2-7.8-72.1,1.7-69-19.9c0,0,0,0,0,0
		c-3.1-2.9-3.1-7.4-1.4-11c2.9-6.3,9.2-10.3,15.6-12.3c5.4-6.1,12.5-13.2,21.7-21.5c4.9,0,10.2,16.5,19.4,28.6c1.5,0,3,0,4.4,0
		c9.6-8.8,14.5,8.6,23.7-5c7.5,7.4,4.4,21.4,2.1,33.2c1.6,5.2,2.5,10.7,4.4,15.9c0.8,2.1,0.4,4.4-0.6,6.3
		c8.9,6.3,25.2,8.4,29.1,25.9c2,9.1,7.1,82.5,8.4,78.8c-7.6,22-4.9,35.5-30.6,35c-16-0.3-19.7-37.2-19.9-38.3
		c-4.5-22.1,51.9,24.5,3.1-20.3c21.9,0.7,13.6,0.3,19.3-17c13.9,3.1,20.4-52.3-10.9-57.3c-1.2,2.8-3.8,5-7.7,5
		c-2.6,8.2-7.4,15.8-20.5,27c-4.8-4.3-19.6-18.9-21.6-21.2c-13.2,18.8,36.5,39,35.7,57.6c-23.9,0,10,19.5-5.7,27.4
		c-7.7,1.2-49.3-43-41.3-58.4c9-3.6,13.5,9.8,18.8,4.2c-13.4-36.7-39.1-34.2-65.5-60.1c-28.4,22.5,15.4,34.1,17.1,37.4
		c-5.5,7.1,93.7,135.7,85.5,138.3c-8.3-1.5-13.5-10.3-16.7-12.6c-3.8,3.3-8.2,4.7-13.1,4.5c-4.4,23,28.7,21.7,32,25.5
		c0,0.4-60.2,11.9-36.8,16.7c-28.4,10.8-24.2-19.4-30.2-39.6c-2.3-0.4-4.5-1.5-6.5-3.6c-1.1-1.1-2.1-2.2-3.1-3.3
		c-14.4,12.8,21.8,54.3,19.3,70.7c0.7,0.9,1.6,2,2.5,2.8c5.4-0.1,13.3-0.7,24.7-2c43.6-5.3,75.1-21.7,100.7-50.3
		c6.7,5.9-0.1,10.8-2.1,19.5c62.1,19,63.7-186.3,64.7-188.1c13.9,3.9,28.1,12.4,42.1,5.5c-0.8-2.1-3.8-3.9-7.1-5.2
		c35.4,0.4,142-29.4,157.6-42.5c23.1-19.4,12.7-138.2,27.6-130.3C2849.9,2413.5,2834.3,2395.9,2819.3,2376z M799.1,2119.1
		c-29.5,29.5-359.9,18-376.7-25.8c-7.1-7.7-13.5-16.1-19.4-24.8c-10-14.6-18.6-30.4-25.6-46.7c-14.8-24.3-19.5-53.1-23-80.8
		c-1-7.4-1.7-14.7-2.2-22.1c-0.4-1.6-0.7-3.2-1.1-4.8c-2.6-3.2-3.4-7.8-2.5-11.8c-15.1-74.6-20.2-153.4-26.3-211.3
		c-15.5-146-23.9-295-26.4-441.6c-2.6-147.2,85.9-163.8,211.1-167.1c73.2-1.9,185.3-26.5,245.2,28.1c48.2,44,33.5,114.7,35.1,177.5
		c2.6,100.9,5.9,202.1,9.1,303.4c2.9,93.6,3.2,187.6,10.4,281C812.6,1944.2,855.3,2062.9,799.1,2119.1z M2403.9,2231.4
		c5.3-5.1,13.2,6.5,16.6,9.1C2422.5,2249.4,2401.1,2242.8,2403.9,2231.4z M2359.1,2232.8c-3.7-1.8,24.1,10.2,19.1,11.8
		C2368.6,2247.8,2355.1,2230.8,2359.1,2232.8z M2272.4,2189c7.7,4.3,9.4,8.1,18.2,8.6c1.4,8.8-7.4,9.9-14.7,12.6
		C2271.4,2206,2268.3,2193.7,2272.4,2189z M2281.2,2260.7c1.6-2.3,4-4,7.3-4.6c19.4-12.3,40.2-23.6,66.6,1.9c0,0.2-0.1,0.5-0.3,0.7
		c1.9,1.1,3.6,2.4,5.3,3.9c3.2,3,4.3,6.5,3.9,9.7c10.3,1.7,17.9,4.1,19.5,7.4c-48.6,16.2-22.6-10-48.4,33
		c-15.8,6.3-160.9-15.9-90.1-42.6C2257.4,2274.4,2269.1,2268.3,2281.2,2260.7z M1508.7,2272.3c6.6,12.7,20.4,93.5-9.5,66.7
		c2.3-3.7,10.5-15.3,10.9-20.1c-32.5-10.4-60.3,0.7-83.5-18.9C1436.3,2290.8,1493.7,2269.4,1508.7,2272.3z M1088.5,2468.4
		c-120.1,101.5-184.1-193.5-193.3-269.2c-11.2-92.4-1.1-192.5-1-286.8c0.2-228.4,3.6-481.8,2.7-693.8c-0.3-77.4-3.5-157.6-3.6-238.4
		c0-67.1-18.4-157.2,14.1-214c36.2-63.4,127.9-71.8,170.4-7.4c19.7,29.9,8.6,60.2,8.8,92.1c1.6,195.8,6.1,399.6,6.1,598v660.3
		C1092.6,2165.8,1130.9,2432.6,1088.5,2468.4z M1236.8,719.9c46.5-12.8,112.2-9.3,158.7-0.3c92.9,18,107.2,53.4,106.1,133.5
		c-2.2,154.2-0.6,309-0.6,463.6c0,207,0,414,0,620.9c0,103.6,5.2,167.7-0.2,284.8c-3.7-1.9-33.3-33.4-32.7-36.2
		c1.4-6-14.9,32.7-11.1,26.7c-3,4.6,23.4,24.5,20.9,29.9c-28.9,62.8-86.2,4.9-110,17.4c-25.5,13.4-8.9,42.7-23.5,55.2
		c-1.2,1.1-24.3,3.1-30.6,6.7c-26.9,15.6-166.2,41-166.2,32.4c0-426.3,0-852.5,0-1278.8C1147.7,958.6,1095.9,758.8,1236.8,719.9z
		 M1607.5,2489.2c-35.2,0.2-67,0.2-96.9,0.2c-2,2.9-5.4,5-10,5c-28.3,0-56.7-0.4-85-0.9c-0.5,0.2-1,0.3-1.6,0.5
		c-2.9,0.9-6,0.6-8.6-0.7c-48.5-1.1-96.9-3.1-145.3-4.2c-16.7-0.4-33.4-0.3-50-0.2c-17.9,1.9-37.2,3.1-47.5-3.5
		c-2.2-1.4-4.6-4.3-7-8.3c-2.5-2.3-4.6-5.1-6.4-8.4c-1.6-3.1-1.9-6.1-1.3-8.8c-7.2-21-10.7-49.5,0.1-66.5
		c10.3-16.1,156.6-62.7,180.7-57.3c2.7,4-12.2,5.2-14.5,7.1c51.7,39.4,132.8,50.4,204.2,77.9
		C1531.6,2425.9,1640.8,2454.9,1607.5,2489.2z M1839.1,2802c-13.4-0.6-16.4,4.5-9,15.1c-22.5,16.7-26.7-48.9-25-58
		c19,8.8,22.1-9.8,35.5-10.8C1841.9,2755.3,1846.2,2796.3,1839.1,2802z M1870.4,2640.8c-3,1.6-6.8,1.9-10,0.7
		c-2.2-0.8-4-2.1-5.5-3.6c-3.8,0.9-7.6,1.6-11.2,2.1c-1.5,0.2-3,0.4-4.5,0.6c-5.9,3.3-12.1,6.5-17.7,8.9c2.6,2.6,5.5,4.9,8.6,6.7
		c7.8,4.4,15.2,8.3,18.1,17.5c4.1,12.9-5.6,21.3-16.7,24.5c-6.4,12.2-17.1,26.3-30.3,23c-1.7-0.4-3.3-1.1-4.6-2
		c-11.6,1.4-38.9-13.8-43-21.8c11.3-18.3,33.5-23.5,43.8-52.4c0.2-1.1,0.5-2.3,1.1-3.3c0.1-0.4,0.2-0.7,0.3-1.1
		c-5.3,4.3-24.4,10.4-44.6,14c-1.8,0.6-3.8,0.9-5.9,1c-37.4,5.6-74.2,1.2-30.4-41.1c4,1.2,14.1,5.4,20.9,11c2.3,0.9,4.6,1.8,7,2.6
		c3.2,1,6.3,1.3,9.4,1.1c6.2-4.4,13-8.9,13.7-9.2c-3-6-7.4-10.9-12.2-15.3c-3.6-1.1-6.4-3.7-7.9-7.2c-13.6-12.2-24.3-23.8-4.1-50.1
		c20.7-26.9,34.2-1.7,70.9,7.2c-0.8-4.3-25.9-22.8-28.6-25.8c2.3-10.4,23.7-1.2,27.7-19.1c1.1-4.8-23-19.6-15.5-36
		c16.7,7.8,38.3,0,48.7,15c-1.2,2-40.4,15.1-25,27.6c17,13.8,23.5,14.8,35.2-6.9c2.2-0.6,11.5,14.2,18.4,15.7
		c0,0.6-18.9,11.8-20.6,13.8c12.9,3.1,32.8-15.8,42.2-23.1c1.9,0.1,8.7,12.5,8.7,12.4c-17.2,2.9,2.6-11.2-19.2,3.3
		c1.3,0.9,4.6,21.3,3.9,22.7c-21.5,15.5-39.9,13.9-64.2,12.6c-0.2,0.3-0.4,0.6-0.7,0.9c0,0.3,0.1,0.6,0.1,0.9
		c0.2,4.8-4.3,9.3-9.1,9.1c-0.8,0-1.5-0.1-2.3-0.2c-11.1,6.9-24.3,10.7-30.3,20.6c2,2.7,2.2,5.8,0.5,9.1c6.4,6.6,33.2-11,45-19.8
		c-1.2,2.1-1.1,4.9,0.4,8.4c3.2,3,68.7-37.6,57.9,4.9c-4.6,1-7.7,1.8-9.5,2.6c1.9,1.2,3.7,2.6,5.5,4.2c1,1,1.8,2,2.4,3.2
		c5.4,2.8,10.6,7,8.7,14.2c-21.6,1.9-9.3,21.5-19.3,32C1872.8,2651.1,1871.7,2645.5,1870.4,2640.8z M1871.1,2348.7
		c2.1,10.8,3.8,21.8,5.2,32.7C1874.6,2416.5,1863.5,2352.4,1871.1,2348.7z M1912.7,2782.2c-1.4-2.1-8.9-6.9-9.2-7.1
		c-4.8,5.2,3.5,21.2,5.6,29.3c-25.7-0.5-15.5-41.3-17.7-56.1c-2.4,7.8-5.8,15.1-10.4,21.9c-7.5-5.9-4.5-28.3,0.8-48.5
		c-0.1-2.1,0.5-4.2,1.6-5.9c4.1-14.1,9.1-26.1,11.9-28.9c21.4,9.9,0.4,57.3,4,69.7c4.8-6.1,7.7-13,8.8-20.7
		c13.6-5.4,9.4,19.6,11.8,26.4C1913.1,2767.3,1919.9,2774.1,1912.7,2782.2z M1918.6,2397.2c-5.5-2-46.5-52.1-35.6-61.7
		C1892.8,2347.7,1941.3,2405.4,1918.6,2397.2z M1921.3,2367.5v-9c0-3.7,1.6-6.9,4.1-9.2c-0.2-0.3-0.4-0.5-0.6-0.8
		c29.8-36.9,45.8,45.8,48.3,51.5c-12.6,7.2-11.9-7.8-28.5-8.7c-0.5,6.6,10.3,10.7,10.5,18c-7,2.2-22.5-17.8-29-32
		C1923.3,2375.1,1921.3,2371.8,1921.3,2367.5z M1937.8,2748.9c2.4,2.4,15.8,3.8,19.1,2.1c2.4,8.5-22,47.5-31.4,40.1
		c9.3-49.5,17.1-86.8,14.4-131.2c-10.3,15.1-7.3-32.2,1.3-29.6c17.7,20.4,20.7,72,20.7,96.9c-20.6,12.3-0.9,18.6-21.7,10.5
		C1941,2741.9,1940.3,2745.6,1937.8,2748.9z M1980.6,2625.8c-3.8,5.1-2,12.9-7.2,19.2c-24.6-11.9-11.1-53.3-7.7-74.8
		C1970,2577.8,1992.4,2634.2,1980.6,2625.8z M2044.3,2478.6c0.9-6.3,1.1-12.7,0.5-19c0.2,0.1-2.4,6.6-4.3,7.5
		c-12.1-15,7.4-54.5,20.4-61c3,1.7,9.2,45.7,10.1,44.2C2060.6,2469.2,2059.9,2472.4,2044.3,2478.6z M2089.7,2331.2
		c-7.9-2.7-15.5-1.2-22.8,4.4c-9.9-11.2-35.8-73.9-29.3-80.9C2051.8,2266.1,2103.1,2321.6,2089.7,2331.2z M2044.1,2240.5
		c5.6-16.9,65,7.2,30.9,40.6C2062,2276,2046.7,2253.7,2044.1,2240.5z M2079.5,2206.5c8.5-2.6,10.3,2.9,15.4,1.4
		c0-5.3-26.4-20.2-40.5-27.4c-0.4,0.5-0.9,1-1.4,1.4c3.5,2.7,6.9,5.4,10.3,8.2c-18.7,4.5-2.5,18.3-2.9,25.8
		c-26.6,10.4-22.2,27.4-52.7,38.5c-40.3,14.6-83.7-2.3-121.9-21.1c-5.6,12.3-3.5,19,2.1,22.4c1.2-0.5,2.5-0.7,4.1-0.7
		c3.7,0,6.3,1.5,8,3.7c12.6,0.6,27.7-3.6,29.6-4c24.7,39.4,69.3-13.2,91.3,18.6c26.1,37.5-31.6,74-55.3,43.3
		c-14.6-3.6,7,11.2-1.4,14.5c-14.1-7.6-25.1-18-35.6-28.9c-0.4,0-0.8,0.1-1.3,0.1c-12.6,0.2-20.2-12.6-24.4-23.8
		c-8.4,5.2-13.1,13.3-19,21.5c-4,5.6-8.4,10.6-13.5,14.6c-5.8,11.2-10.4,19.4-9.3,18.3c-8.2,8.7-10.7,14.9-21.6,22.9
		c-13.1,9.6-24.3-9.4-37.3,2.3c2.1,8.2,19.6,18.4,25.6,23.3c-27.3,2.5-59.3-31.6-81.7-11.2c-11.6-7.7-8.8-7.2-1.9-20.4
		c-4.5-2.7-26.8,15.9-18.7-9.3c27.3-3.1-6.9-23.8-20.5-30.9c2,4,15.3,19.7,11.7,23.7c-46.6-17.6-19.6-80.3-19.9-108.5
		c10.5-2.7,15.4,8.7,15.8,9.8c-0.1-0.2-0.2-0.6-0.5-1.4c4.3-2.2,8.5,19.9,8.9,24.6c13.4,8.2-14.1-51.5-15.1-45.6
		c6.9-40.5,16-31.8,45.1-27.9c0.5-11.2,2.5-21.9,2.5-33.2c15.8-16.5,22.8,143.8,25.4,144.8c11.1-20.3-0.8-62.3,9.4-80.6
		c16-28.7,50.6-7.1,47.1-49.6c0.5,5.9-44.9-40.2-70.8-51.1c0.5,1.5,0.6,3.1,0.3,4.6c1.3,5.2,3.8,9.7,7.5,13.4
		c-20.1,19-52.4,17.9-83.6,33c-1.7,3-5.4,4.9-8.8,4.8c-5.3,3.2-10.5,6.9-15.6,11.5c-8.3-7.8-5.2-26.2,4.8-29.6
		c4.1-8.5,10.2-15.6,18.4-20.7c3.3-2.1,6.5-1.8,9-0.4c13-5.9,25.5-10.1,30.1-16c-3.5-5.3-8.9-6.5-16.3-3.6c-1.7-7.2,3.3-8.6,15-4.4
		c-17.1-12.9-5.2-11.6,16.2-3.8c0.5-5.7-4.9-16-7.7-19c28.7-12,54.8-15.9,45.7,18.8c26.8,0.9,70.7-49.5,59.4-78.9
		c-5.4,0.3-40.3,7.9-40.7,9.2c-2.1-9.3-51.8-23.7-64-21.9c-4,20.7,13.8,46.2-0.2,69.6c0.9-1.4-52.6,29.3-57.8,34.8
		c-21.6,23.1-24.8,62.6-48.5,83.7c-31.8,28.4-30,11.6-71,33.8c-30.4-145.6-1-343.2-1-491.6c0-195.6,0-391.1,0-586.7
		c0-104-23.6-244.2-2.2-348.3c16.9-82.1,114-113.5,196.9-93.4c112.1,27.2,87.3,116.7,87.3,204.6c0,362.7,7.6,745.7,7.6,1114.3
		c140.9-47.6,40.1,31.5-24.2,63.3c25,4.9,46.5-18.3,71.2-18.6c3.1-1,6.4-0.4,9.1,2.1c3.4,3.1,3.7,9.8,0,12.8c-0.6,0.5-1.2,1-1.9,1.6
		c-1,3.1-4.1,5.4-8.4,7.4c-0.6,0.6-1.2,1.1-1.8,1.7c-2.6,2.6-6.2,3.2-9.4,2.1c-12.7,3.4-27.8,5.5-33.5,9.8c1.5,1.5,5,15.3,4.8,16.9
		c3.7-3.4,31.2,15.7,42.3,24.1c-0.3,0.7-16.1,6.7-17,7.3c7.8,19.1,48.9,10.7,61,38.1c-13.3,8-5.1-6.3-19.6,6.3
		c6.8,8.5,16.7,10.3,27.8,9.7c0.3-0.1,0.6-0.1,0.8-0.2c8.8-1.3,17.6-3.3,26.5-4c13.5-2.4,26.6-3.8,36.1,2.2c2.7-3,3-10.1,5.7-18.6
		c-0.3-0.3-0.6-0.7-0.9-1c-0.6-0.7-1.1-1.5-1.5-2.2c-11.1-3.2-31.9-16.4-33.2-17.5c0.2,5.6-1.7,10-5.7,13.1
		c-6.2-2.2-8.6-14.3-10.3-19.7c-5.7,6.2,2,10.5-2.7,17c-5.8,2.6-46.5-21.3-57.6-25.9c16.2-26.5,35.3-15.1,47.6-32.6
		c-9.1-6.7-13.7,6.2-25.8,1.2c16.4-40,70.5,15.1,92,22.1c1.4-0.9,3.1-1.4,4.8-1.5c14.2-56.9,172.9,9.9,216.5,20.8
		c-4.7,4.5-25.2,18.8-28.3,26.2c-23.9,56.7-58.9,64.8-107.2,55.6C2101.8,2233.3,2071.8,2221.3,2079.5,2206.5z M2126.6,2279.5
		c-3.2,12.2-8.2,23.7-14.9,34.3C2100.8,2312,2104.8,2272.8,2126.6,2279.5z M2247.2,2661.7c-8,6.3-5.5,15.5-13.2,21
		C2210.9,2652.8,2259.2,2658.4,2247.2,2661.7z M2442.5,2366.7c-6.8,15.1-11,3.4-22.3-3.2c-10.9,35.5,1.6,71.9-16.4,110.7
		c-6,12.8-142.7,4.6-118-13.3c-15.3,0.9-86.8-11.7-62-16.3c-15.9-12-5.8-3.3-17.6-9c-3.5-12.7,13.2-17,18.9-10.1
		c-0.2-3.4,1-5.9,3.6-7.5c-0.4-0.9-0.8-1.9-1-2.9c-1.3-1.5-2.2-3.2-2.7-5c-21.4-12.1-64.8,16.7-84.2,4.3
		c-58.4-37.5,75.1-64.5,32.4-99.8c2.4-19.2,47.8,67.6,57.4,81c0.2-0.1,0.4-0.2,0.5-0.3c-3-8.8-2.9-17.1,0.4-25
		c9.4,7.1,34.7,25.7,39.5,32.6c10.6,15.1,1.9,46.3,5.8,50.9c20.9-9.5,33.2-27.8,13-48.5c2.6-4.5,17.9,5,23.2,0.1
		c-10.2-8.1-4.2-20.5-12.9-27.8c15.9-13.2,34.6,16.6,36.1,28.2c15.8-36.7,58.9,21.7,72-2.4c-27-27-70.3-49.7-20-61.3
		c-0.1-19.2-33-11.7-22.6-32.9c23.5,7.1-4.1,8.5,25.3,9.1C2381,2309.4,2449.5,2313.6,2442.5,2366.7z M2493.5,2253.5
		c5.7-1.7,11.5-3.4,17.2-5C2511.6,2268.6,2503.3,2261.2,2493.5,2253.5z"/>
	<path fill="#69C7C0" d="M1722.4,2812.8c0.1,1.2,0.1,2.3,0.1,3.5c0.1,0,0.2,0,0.2,0C1722.6,2815.1,1722.5,2814,1722.4,2812.8z"/>
	<path fill="#69C7C0" d="M2371.4,2169.2c16.4,3,39.4,18.7,43.4,19.6C2411.4,2156.8,2391.2,2159.9,2371.4,2169.2z"/>
	<path fill="#69C7C0" d="M1502.4,2737.8C1505.8,2753.3,1492.2,2729.6,1502.4,2737.8z"/>
	<path fill="#69C7C0" d="M1703,2706.6C1700.6,2705.1,1701.3,2686.8,1703,2706.6z"/>
	<path fill="#69C7C0" d="M818.5,413.5c0-92.3,113-199.4,184.5-245.9c42.7-27.8,124.4-60.4,173.5-76.5c58.1-19.1,111.9-5.1,173-4.7
		c135.5,0.9,242-64.2,367.5,16.2c93.6,59.9,165,177.5,211.5,276.5c-68.6,11.3-153-15.7-222.8-19c-127.1-5.9-254.6,1.4-381.7,4.3
		c-94.3,2.2-189,11-283.1,17.4C1008.8,384,832.1,425.2,818.5,413.5z"/>
	<path fill="#69C7C0" d="M1509.5,2827.2c-6.4-1.9-9.1-6.6-8-14.3c22-5.3,68.8-6.9,94.1-7.3c12.7-0.2,24.1-1.3,36.8,5.4
		C1632.5,2811.3,1527.8,2827.2,1509.5,2827.2z"/>
	<path fill="#69C7C0" d="M1584.8,2732.6c4.4,1.6,8,5.4,8.1,11.5c0,1.9,0.2,3.7,0.5,5.5c6.4-27-19-91.3-33.9-56.8
		C1543.3,2698.9,1575.9,2719.2,1584.8,2732.6z"/>
	<path fill="#69C7C0" d="M2339.5,2745.4c2.1-13.8-17.1-57.8-12.2-66.5c1.1,7.4,4.5,9.6,10.1,6.5c-2.1-6.1-3.5-10.5,0.9-15.5
		C2349.3,2678.3,2361.6,2757.6,2339.5,2745.4z"/>
	<path fill="#69C7C0" d="M2078.3,2646.5c-4.8-3.7-0.2-17.7,0.6-21.8c29.2-26.9,19.3,78.6-6.8,40.8
		C2072.5,2653.1,2083.4,2656.5,2078.3,2646.5z"/>
	<path fill="#69C7C0" d="M2482.3,2700c-2.5,6.4,2.1,23.4-0.6,30c-6.2,1.4-27.5-37.3-27.5-44.7
		C2465.1,2697.5,2472.7,2695.1,2482.3,2700z"/>
	<path fill="#69C7C0" d="M2203,2695.4c-2.2,5.1-5.2,9.6-9,13.3c6.6,7.3,17.4,16.9,19,18.1C2213.6,2725,2206.5,2702.4,2203,2695.4z"
		/>
	<path fill="#69C7C0" d="M2210.2,2752.7c-5.9-0.4-21.9-14.8-26.1-21.4C2186.9,2714.4,2209.8,2752.2,2210.2,2752.7z"/>
	<path fill="#69C7C0" d="M2377.4,2221.1C2381.8,2221.6,2381.1,2226.8,2377.4,2221.1z"/>
	<path fill="#69C7C0" d="M1468.2,2186.4C1467,2181.1,1476.9,2178.1,1468.2,2186.4z"/>
	<path fill="#69C7C0" d="M2024.8,2201c-0.4-0.1-0.7-0.1-1.1-0.2c-0.7-0.2-1.4-0.4-2.1-0.6c-0.7-0.1-1.4-0.1-2.1,0
		c4.8,9.8-13.2,19.7-34.2,27.1c-1.5,1.8-3.7,3.1-6.7,3.1c-1.1,0-2.2,0.1-3.3,0.1c-16.7,5.1-33.2,8.3-40.3,8.5
		c-2.8-6.1-7.7-6.9-14.7-2.3c20.4,39.3,115.1-3.5,113.2-9C2036.5,2220.4,2033.2,2204.9,2024.8,2201z"/>
	<path fill="#69C7C0" d="M1845.6,2246.5c0,15.6,4.4,24,10.1,31.4c2.5,2.3,4.6,4.9,6.2,7.7c1.5,1.9,3.1,3.9,4.6,6
		c1.5-1.9,2.9-3.9,4.3-6c2.8-22.4,4.5-69.6,15.6-70.8c0-0.4,0.1-0.9,0.2-1.4c-3-3.9-9.8-10.3-14.3-11.8c3,15.8-3.9,10.1,2.2,29.3
		c-6.6,7.7-9.8,9-18.9,20.7c-10.5-5.7-6.7-25-18.5-30.2C1824.2,2226.3,1836.1,2247.7,1845.6,2246.5z"/>
	<path fill="#69C7C0" d="M1821.2,2294.1c3.5,3.9,10.8,20.2,0.6,26.3c-12.9-12-21-74.1-17.1-94.7c6.1,14.5,3.8,29.6,10.6,41.6
		c4.2-3.5-1.1-14.9,0.5-19.1c2.9,4.7,6.6,5.3,11,1.9C1831.5,2259.9,1826.1,2285.2,1821.2,2294.1z"/>
	<path fill="#69C7C0" d="M1988.8,2163.5c21.4-11.7,35.3,7.4,14.9,25.3C1997.1,2183.6,1988.8,2172.1,1988.8,2163.5z"/>
	<path fill="#69C7C0" d="M1703.1,2249c15-13.3,16.1,40.4,9.2,21.2c-0.6,10.4,2.2,10-7.8,12.7C1700.3,2276,1704,2256.6,1703.1,2249z"
		/>
	<path fill="#69C7C0" d="M1937.8,2154c5-7,8.8-5.7,11.3,3.7c-3.8,10.4-28.5,1.8-28.5-7.5C1927.7,2144.6,1933.4,2145.8,1937.8,2154z"
		/>
	<path fill="#69C7C0" d="M1788.2,2267.7c7.1,11,11.7,32.2,11.3,45C1796.2,2306.5,1780.6,2273.4,1788.2,2267.7z"/>
	<path fill="#69C7C0" d="M1872,2201.8C1868.1,2201.5,1867.5,2196.8,1872,2201.8z"/>
	<path fill="#69C7C0" d="M1780,2103.1C1778.5,2113.9,1779.7,2103.1,1780,2103.1z"/>
	<path fill="#69C7C0" d="M1705.1,2309.5C1694.4,2308,1705,2309.4,1705.1,2309.5z"/>
	<path fill="#69C7C0" d="M2723.9,2445.5c-0.1-4.7-6.1,32.9-7.2,28.4c1.9-10.1-0.5-18.1-7.2-24c-5.9,17.6-9.2,17.5-10.2,27.6
		c-6.8-0.2-25.4-58.4-21.4-64.2C2698.7,2418.4,2705.6,2438,2723.9,2445.5z"/>
	<path fill="#69C7C0" d="M2685.2,2392.3c-1.3-3.6-2.4-8.3-1.7-12.2c-0.4-0.3-0.9-0.8-1-0.9c-1.9-1.6-3.9-3-5.5-4.8
		c-0.4-0.4-0.7-0.9-1-1.4c-1.2-0.1-2.2-0.4-3.1-0.8c0.1,2.6-0.8,5.2-2.6,7.1c0.3,5.8,3.7,13.4,10.4,26.1c9.5,6.2,10.5,3.8,11.6,1.1
		C2689.5,2401.9,2687,2397.3,2685.2,2392.3z"/>
	<path fill="#69C7C0" d="M2723.8,2445.4c1.8-19.6,15,2.2,12.4,11.4C2733.3,2452.5,2729.9,2445.2,2723.8,2445.4z"/>
	<path fill="#69C7C0" d="M2388.2,2342C2392.2,2342.3,2392.6,2347.4,2388.2,2342z"/>
	<path fill="#69C7C0" d="M1809.8,2606c-4.7-1.5-5.1,0.2-4.6,3.2C1806.7,2608,1808.2,2606.9,1809.8,2606z"/>
	<path fill="#69C7C0" d="M1747.5,2757.4c-8.5,0-34.2,0.1-39.7,5.7c0,1.8,0.1,3.3,0.2,4.8c0.9,3.4,2.2,6.7,3.6,10.1
		c7.9,8.1,25.9-10.2,30-13.9C1751.3,2770.7,1753.3,2768.5,1747.5,2757.4z"/>
	<path fill="#69C7C0" d="M1722.8,2816.5C1727,2818.6,1723.2,2816.7,1722.8,2816.5z"/>
</g>
</svg>
