<?xml version="1.0" encoding="utf-8"?>
<!-- Generator: Adobe Illustrator 22.0.0, SVG Export Plug-In . SVG Version: 6.00 Build 0)  -->
<svg version="1.1" baseProfile="tiny" id="Слой_1"
	 xmlns="http://www.w3.org/2000/svg" xmlns:xlink="http://www.w3.org/1999/xlink" x="0px" y="0px" viewBox="0 0 3000 3000"
	 xml:space="preserve">
<g>
	<path fill="#68C6BF" d="M1567,1355c-5-54.7-0.1-89.6-19.3-134.1c-7.7-17.9-26.2-47.1-39.6-69.5c-29.9-50.1-81.4-110.8-75.6-180.7
		c-8.8-8.1,0.6-148.4-1.7-180.7c-2.1-29.5-5.3-59.2-9.2-88.5c-3-22.6-9.7-82.7-11.9-85.5c0-38.4-9.1-79.2-14.4-117.1
		c-2.6-18.8-5.3-37.6-7.4-56.4c-1.1-9.2-2.6-18.1-2.3-27.5c-0.4-10.2-1.5-20.3-3.3-30.3c7.6-6,14.6-12.5,21.2-19.6
		c14.1-73.8-55.9-64.1-102.2-67c-49-3.1-99.7-1.9-149-2.1c-25.4-0.1-77.6-10.3-92.3,3.5c-22,20.5-14.4,48-10.5,68.6
		c1.8,9.8,8.4,12.7,10.5,25.9c1.4,8.5-3.1,37-4.2,46.1c-2.8,23.2-6.8,46.5-9.9,69.8c-11.9,89.6-31.2,177.9-40.3,267.9
		c-10,99.5,8.2,226.8-48.8,314.8c-55.5,85.6-116.5,153-114.3,262.3c2.9,144.4,6.8,288.5,3.7,434c-3.6,166.4-1.8,332.9-6.2,499.2
		c-3.3,125.6-20.5,261.5-0.2,385.2c21.5,130.9,93.8,101.7,194.8,115.4l39.3,1.8c-14.5-0.9,114.5,7.6,138.7,7.6
		c36,0,75.9,0.4,109.7-2.9c64.8-6.2,153.4-5.2,153.4-5.2c16.7-6,31.3-24,31.3-24s4.8-3.5,6.8-10c53.4-88.2,45.3-183.6,47.5-285
		c2.7-123-1.3-260.9,2.7-387c4.4-138.7-3.1-283.7,2.6-425.1C1570.3,1567.8,1567,1389.3,1567,1355z M1043,660
		c13.2-84.8,13.4-137.4,116.1-137c20.7,0.1,171.2,9.3,175.6-2.6c5.3,11.6,17.6,13.3,26.7,25.9c17.9,24.9,26.7,62.5,34.1,92.2
		c5.8,23,12.7,61.3,10.2,84.4c-4.3,40.7-14.3,37.4-53.1,41.1c-75.4,7.2-180.3,14.9-253.7-8.1C1052.3,741.5,1033.8,719,1043,660z
		 M1347.1,1023.2c49.7-8.5,75.1-11.9,87.6,34.3c5,18.6,13.6,67.6-26.6,50.5c-56-23.2-116.2-31.7-176.5-31.7
		c-72.5,0-151.1,31.7-219.7,26.9c3.1-7.9-4.3-36.2-2.8-48.8C1004.3,1014.5,1300.1,1029.4,1347.1,1023.2z M1399.2,2666
		c-71.8-5.5-144.4-1.4-216.2-0.1c-66.8,1.2-129.5,1.5-195.3,11.1c-18.9,2.7-37.7,5.3-56.6,8.4c-10.3,1.7-85.9,17.2-51.5-11.9
		c20.5-17.4,83.2-15.9,107.7-19.4c76.1-10.9,151.5-9.6,228.4-11.6c21.9-0.6,296.2-16.5,300.1,31.9
		C1509.4,2688.5,1418.5,2667.5,1399.2,2666z M1527.5,2139.9c-5,84.5-14.1,155.4-74.8,219.9c-78.6,83.5-170.2,84.2-278,84.1
		c-101.6-0.1-191.8-21.6-253.7-111.2c-64.3-93.3-43.3-210.2-43.1-316.8c0.2-106.9-9.2-224.2,6.4-329.9
		c32.2-218.2,283.2-257.5,462.9-214.2c81.9,19.8,147.3,85.7,171.6,165.8c18.6,61.3,12.8,186.4,12.8,186.4c0.4,4.2,0.8,23.5,0.8,23.5
		s0.5,10.5,0.5,15c0,30.8-0.5,59.1-1.2,89.9c-1.1,40.3-1.1,112.1-1.8,145C1529.7,2110.2,1528.6,2121.6,1527.5,2139.9z"/>
	<path fill="#68C6BF" d="M1051.9,224c9-45.2,52.1-35.9,89.7-35.9c58.9-0.1,117.7,0.7,176.5,3.8c43.4,2.3,67.9-3,78.6,40.9
		c0.9,3.7,6.4,44.2,4.9,46.3c-15,21.1-19.4-28.4-20.4-31.2c-21.9-1-6.2,22.6-7.4,31.1c-16.2,9.8-50.4,0-66.3-1.2
		c-37.3-2.7-75.3-3.1-112.5-3.8c-30.3-0.6-76.8,8.6-105.1-0.3c-9.5-3-13.6,3.5-19.4-3.7c-2.5-3.2,25.3-30-3.4-30
		C1040,307.3,1050,250,1051.9,224z M1106.8,269.7c12.5-11.2,7.8-21.2,2.1-35.5C1097.2,233.4,1086,269.7,1106.8,269.7z M1157.2,238.4
		c-17.4-12.4-17.4,48.2-2.8,33.6C1162.8,263.4,1159.2,249.1,1157.2,238.4z M1293.9,236.3c0,8.6-10.3,40.2,10,34.8
		C1303.9,261.2,1308,236.3,1293.9,236.3z M1348.6,278.3c3.9-8.9,4.4-29.9-5-36.6C1337.5,255.6,1330.2,268.7,1348.6,278.3z
		 M1249.9,269.3c0.1-13.2,1.5-21.6-3.1-33.2C1236,236.1,1233.9,272.4,1249.9,269.3z M1262.7,235.7c-8.5,2.2-6.8,29.8-0.3,34.6
		C1273.5,259.2,1267.4,248,1262.7,235.7z M1205.8,272.3c8.4-4.6,14.4-28.1,3.5-32.3C1204.2,249.2,1197.3,264.3,1205.8,272.3z
		 M1190.1,267.7c6.2-11.9,5.1-19.7-3.1-23.3C1183.3,251.4,1177,269.1,1190.1,267.7z M1137.9,262.4c-0.2-8.1-0.4-16.2-0.6-24.2
		C1131.7,240.4,1129.4,272.2,1137.9,262.4z M1311.9,248.4c0.2,7.2,0.4,14.4,0.7,21.6C1322.2,267.6,1321.1,248.9,1311.9,248.4z"/>
	<path fill="#68C6BF" d="M1438.1,2246c15.1-12.5,22.7-35.1,26.4-59.6c-0.1-4-0.2-8-0.4-12c-1-22.6-3.3-45.2-3.1-67.9
		c0.2-22.6,3.7-45.2,7.5-67.5c0.3-46.7,0.8-93.3,1.8-140c2.2-108.9,19.6-230.4-78.7-304.9c-42.4-32.2-105.1-46.9-167.3-48.9
		c-6.6-0.1-13.2-0.2-19.7-0.2c-41.7,0.5-82.3,6.5-115.3,16.6c-41.8,12.8-83.7,42-109,76.4c-7.2,9.8-15.6,45.4-26.1,58.1
		c-1.4,5.1-2.8,10.3-4.1,15.5c-2.3,9.4-4.3,18.9-6,28.4c-0.1,0.3-0.1,0.6-0.2,1c-0.5,11.5-3.4,25.3-3.6,32.2
		c-0.4,19.7,4.7,35.2,5.5,51.1c2.6,53.4-2.4,108.5-3.5,162.1c-0.4,18.9-1.5,38.7-2.4,59c0,29.2-1.3,58.5-0.7,87.7
		c0,1.8,0.1,3.5,0.1,5.3c2.9,42.7,12,83.9,35,118.9c50.6,76.7,112.4,98.6,201.6,98.7c42.7,0,88.6,2.6,130.2-7.7
		C1347,2338,1431.8,2296.2,1438.1,2246z M1134.2,1635.2c57.4-47.1,39.8,72.7,39.8,83.8c0,64.9,0,129.8,0,194.6
		c-61.9,0-39.8-28.2-39.8-84.9C1134.2,1807.3,1117.4,1649,1134.2,1635.2z M1075.4,2121.3c8.7,13.8,7,72.2,2.5,87.4
		c-13,43.8-53.9,46-97.7,36.8v-167.1c0-24.4-6.7-59.7,0-83.6c11.2-40.2-7.7-24.3,31.9-28.7c34.1-3.8,53.9,0.2,63.9,31.4
		c10.8,33.7,9.2,99-33.7,104.9C1048.4,2111.3,1067.6,2108.9,1075.4,2121.3z M1064.9,1913.9c-18.7-13.6-17.8-86.9-26-109.3
		c-5.7,34.6-0.9,73.9-0.9,109.1c-45.7,0-28.9,7.8-39.7-30.3c-6.7-23.6,0-58.8,0-82.8c0-26.1-18.1-147.5,0-165.4
		c46.4-45.9,58.2,93.8,62.4,112.3c25.9-13.6-22.3-100,14.5-113.6c46.8-17.3,26.8,116.7,26.8,144.7
		C1102.1,1795.3,1122.7,1955.9,1064.9,1913.9z M1168.6,2246.1c-67.5,19-68.4-6-68.4-62.2c0-60.7,0-121.4,0-182.1
		c0-13.3-2.9-27.5,4.9-35.6c7.2-7.5,77.4-0.4,88.7,0.2c0,60.4-53.6-8.8-53.6,63.4c0,21.4-7.3,49.8,9.3,58.3c8.1,4.1,22.4-4.1,30.5,0
		c7.8,4,33.6-5.9,13.9,23.5c-5.1,7.7-20.8-2.9-26.5,2.5c-5.2,4.9-21.2-2.4-27.2,2.8c-4.7,4-3.6,82.1,0,89.6
		c13.7,28.5,29.7-5.7,52.1,13.8C1223.6,2247.4,1172.5,2245,1168.6,2246.1z M1248,1633.9c66.4-12.4,57.9,46.6,57.9,93.8
		c-40.1,0-31.3,7.3-39.9-25c-2.4-8.9,7.7-65.1-17.9-43.1c-17.3,14.9,0,150.7,0,176.3c0,3.7-5.1,57.4,4.7,55.6
		c26.1-4.8,8.7-33,13.2-51.9c3-12.6,6-40.7,32.4-23.5c12.7,8.3,8.5,28.6,7.6,47c-2,38.8-34.2,81.5-81.4,51.5
		c-34.1-21.6-16.6-103.3-16.6-139.9C1208,1721.9,1185.8,1645.6,1248,1633.9z M1260.5,2246.1c-8.4,0-41.7,3.4-45.5-0.4
		c-9.7-9.7-1.1-71.5-1.1-85.5c0-26,0-52,0-78c0-18.9-11-91,0-105c15.8-20,60-10.9,91.9-10.9c0,65.5,6.2-6.7-26.1,25.8
		c-14.7-7.4-23.3-5.7-25.8,5c0,10.8,0,21.5,0,32.3c-0.3,9.3-5.4,52.3,0.2,57.4c11,9.9,27.2-4.3,38.7,1.3c57.3,28-35,24.2-38.4,27.9
		c-5.3,5.6-2.5,67.9-0.4,76.2c3.7,14.8,3.9,21.9,3.3,25.1c1.8-0.3,5.2,0.2,11,2.9c12.7,5.9,31.1-7,39.7,4.9
		C1330.8,2256.6,1268.8,2246.1,1260.5,2246.1z M1324,1778.4c0-26.5-15.5-125.4,1.2-144c7-7.8,117.5-9.5,90.9,24
		c-8.9,11.2-28-3.8-39,1.5c-20.4,9.9-13.2,18-13.2,47.5c0,3.3-1.8,43,0.3,45.4c12.2,13.8,44.6-12.7,51.9,6.1
		c15.4,39.8-16.3,10.3-27.8,21.3c-15.8-7.7-23.9-6.1-24.3,4.6c0,16.5,0,33,0,49.5c0,57.6-5.1,53.7,53.7,53.7c0,38.9-10.8,26-46.7,26
		c-3.9,0-42.9,2-45.8-0.5C1311.5,1902,1324,1801.9,1324,1778.4z M1386.3,2200.4c-2.2-10.5-6.1-55.4-14-55.9
		c-3.2,25.3,5.2,54.1-0.3,79c-4.5,20.3,4.9,15.5-12.4,22.5c-23,9.2-21.6-3.2-27.6-13.8c-13.9-24.5-0.5-92.4-0.4-122.5
		c0-36.2-0.1-72.3,0.5-108.5c0.5-36.6-6.4-28.2,25.1-35c64.2-14,72.9,20.7,72.9,75c0,22.5,2.9,46.8-0.1,69
		c-1.3,9.7-15.7,21.4-16,27.3c-2.1,36,21.8,72.9,24,108.5C1391,2245.9,1395.4,2243.8,1386.3,2200.4z"/>
	<path fill="#68C6BF" d="M978,1636.3c-0.6,1-1.2,2-1.8,3c1.1-0.2,2.4-0.7,3.9-1.4C979.2,1637.7,978.6,1637,978,1636.3z"/>
	<path fill="#68C6BF" d="M1059.9,736.2C1059.9,736.3,1068.9,745.7,1059.9,736.2z"/>
	<path fill="#68C6BF" d="M1389.9,2108c-17.9,43-21-80.1-17.8-90.3c2.8-9-2.6-41.6,17.8-17.9C1401,2012.6,1389.9,2089.8,1389.9,2108z
		"/>
	<path fill="#68C6BF" d="M1037.9,2078.1c-2,7.8-7.6,10.9-17.1,9.4c-3.5-9.7-4.5-93.1-0.5-94.3
		C1049.7,1984.5,1037.9,2067.2,1037.9,2078.1z"/>
</g>
<path fill="#68C6BF" d="M1037.9,2209.6c-2,7.8-7.6,10.9-17.1,9.4c-3.5-9.7-4.5-93.1-0.5-94.3
	C1049.7,2116,1037.9,2198.7,1037.9,2209.6z"/>
</svg>
