<?xml version="1.0" encoding="utf-8"?>
<!-- Generator: Adobe Illustrator 22.0.0, SVG Export Plug-In . SVG Version: 6.00 Build 0)  -->
<svg version="1.1" id="Слой_1" xmlns="http://www.w3.org/2000/svg" xmlns:xlink="http://www.w3.org/1999/xlink" x="0px" y="0px"
	 viewBox="0 0 3000 3000" style="enable-background:new 0 0 3000 3000;" xml:space="preserve">
<style type="text/css">
	.st0{fill:#68C6BF;}
</style>
<g>
	<path class="st0" d="M922.9,2815.2c-0.8-1.1-2.2-2.9-2.2-3C920.9,2813.1,921.9,2814.2,922.9,2815.2z"/>
	<path class="st0" d="M941.6,1842.9c53.5,43.3,146.9,61.5,184.8,115c38.6,54.5,47.6,121.2,57,185.4
		c16.9,115.9,18.1,233.8,11.4,350.5c-3.9,68.4-9.6,145.8-41.8,207.8c-20.3,39-54.7,60.4-96.6,71.8c-33.8,9.2-80.3,0-111.2,12.3
		c-47.4,18.9-10,50,21.2,60.7c41.6,14.3,96.3,14.2,140,17.9c105.1,8.9,211.4,1.7,316-10.9c27.3-3.3,131.9-12.1,93-52.8
		c-24-25.2-90-15.2-121.3-25.3c-126-40.8-141.3-185.3-144.6-296.9c-3.1-107.3-7-220.4,8.8-326.9c11.1-75.1,42.2-198.1,116.9-231
		c42.9-19,83.9-36.2,121.9-64.5c19.6-14.6,39.1-41.3,60.9-51.6c14.3,42.4,1.4,113,2.3,157.6c1.2,56.8,0.4,114.4-1.1,171
		c-4.2,151.6,0.1,305.3,3.2,457c1,45.9-19.5,127.1,25.1,155.3c29.1,18.4,74.9,20.1,108.1,24.8c91,12.9,185.3,14.7,276.2,10.3
		c68.8-3.4,168.2,1,231.4-33.4c57.1-31.1,37.2-108.5,37.2-163.5c0-75-1.7-150.3,0-225.3c7.2-321.6,2-644.2,2-966
		c0-211.7,18.8-430.5-171.2-570.2c-70.8-52-60.4-122.6-60.5-203.3c-0.1-80.2-0.1-161.6-0.1-242.2c0-26-3.1-57.4,3.8-79.9
		c3.2-10.4,11-13.3,14-26.8c3-13.1,3.5-43.9,0-57.8c-1.3-5.2-6.5-8-8.1-13.1c0.5,1.7-9.5-25.9-9.6-26.1
		c-28.7-49.4-85.1-34.9-135.8-34.9c-33.3,0-61.5-4.9-82.2,25.4c-4,5.8-1.3,15.4-4.3,20.6c-3.2,5.4-15.8,19.4-17.8,25.6
		c-8.4,26.3,4.1,63.8,9.2,84.1c-0.1-0.3,7.9,2.3,8.5,5.1c3.7,16.7,0,39.3,0,56.4c0,80.2,0,160.4,0,240.6
		c0,56.6,14.4,131.9-15.5,183.5c-29.8,51.4-95.8,78-132.1,127.4c-16.1,21.9-51.9,123.1-68.7,129.1c-16.9,6.1-84-24.3-108.1-27.5
		c-55.9-7.5-113.2-4.5-169.3-6c-94.3-2.5-189.9-7.6-283.5,4.6c-34,4.5-97.1,3.4-120.4,30.5c-10.4,12.1-14,37-19.3,50.7
		c-10.4,26.7-23.4,52.7-35.6,78.6c-42.5,89.9-74.7,173.5-77.4,273.5C754.2,1595.4,820.2,1744.5,941.6,1842.9z M1580.5,1903.1
		c0-38.2-10-92.4,4.5-128c9-22.1,33-45.6,45.3-66c55.1-91.3,76-215,62.5-320.3c-4-31.2-11.6-59.3-19.6-89.6
		c-9.5-36-12.7-26.8,22.2-33.4c70.1-13.3,149.1-5.7,219.9-5.7c77.9,0,156.3-0.2,234,4.1c29.9,1.6,35-2.3,42.8,19c7,19,0,54.1,0,74.1
		c0,33.6,0,67.1,0,100.7c0,99.1,0,198.3,0,297.4c0,95.7,0,191.4,0,287.1c0,28.8,16.1,119.3,0,145.2c-10.5,17-65.9,13.2-85.9,14.4
		c-60.7,3.5-121.9,4.4-182.7,5.8c-108.5,2.5-226.6,6.4-331.6-18.1C1562,2182.8,1580.3,1941.8,1580.5,1903.1z M1416.7,1082
		c-63.3,5.2-127.4,6.2-190.8,4.6c-50.5-1.3-100.2-1.3-150.6-4.6c-35-2.3-95.4,7.7-125.7-13.7c0.1-0.1,0.3-0.2,0.5-0.3
		c-2.3-1-3.7-2.7-4.5-4.6c-0.2,0.6-0.5,1.1-0.7,1.6c-16.7-11.9,44.4-18.5,46-18.8c47.2-8,93.7-10.2,141.6-10.2
		c85.2,0.1,170.8-0.3,256,2.4c29.8,0.9,58.8,4.7,88,9.4c14.1,2.3,39.5,13.2,50.6,10.3C1536.5,1069.5,1427.5,1081.1,1416.7,1082z
		 M916.2,1077.5c32.9,47.5,104.1,36.6,154.7,40.4c74.3,5.7,146.2,6.3,220.9,6.2c70.9-0.1,145.3,0.5,214.8-15.8
		c41.9-9.8,46.9-8.4,51.7,32.7c5.3,45.4,0.6,94.7,1.7,140.6c1.8,75.5,1.6,151.4,2,227.2c0.2,23.5,3.6,48.4,1.4,71.8
		c-3,32.7-8.4,30.2-44.2,29.3c-180.6-4.4-361.2-7.6-541.9-2.5c-27.2,0.8-143.9,19.8-163.2,2.9c-21.7-19-21.3-101.7-21.5-127.9
		C791.6,1336.9,850.3,1204.7,916.2,1077.5z"/>
	<path class="st0" d="M1806.5,1730.6c0-13.7-9.8-127.5,0.2-134.9c57.3-42.3,37.7,95.7,40.4,119.8c9.1-26.3,11.5-57.6,17.1-85.1
		c3.6-17.5,10.1-59.6,41.5-36.4c12.2,9,4.7,49.4,4.7,67.4c0,37.4,0,74.8,0,112.2c0,20.1,11.3,79.4,0,95.6c-4,5.7-18.5,7.7-26.8,4.7
		c-18.9-6.7-5.4,2.1-13.1-15.3c-4.8-10.9,10-86.6-1.9-91.9c-1.6,22.5-8.9,45.1-13.8,67.1c-8,36-8.8,39.9-48.4,39.9
		C1806.4,1825.9,1806.5,1778.2,1806.5,1730.6z"/>
	<path class="st0" d="M2078.7,1643.7c2.2-23.6-3.6-42.9,17.3-49.6c36.5-11.8,25.1,22.3,22.6,43.7c-4.3,37.5-8,75-12.2,112.4
		c-2.7,23.9,1.7,104.5-14.2,121.4c-2.6,2.8-45.3,6.4-50.9,2.4c-8.8-6.3-2.6-12.6-6.7-25c-5.8-17.5-4.5-43.4-6.5-61.6
		c-4.5-41-9.1-82.1-13.6-123.1c-1.3-11.2-12.8-55.5-7.7-64.4c3.3-5.9,29-12,36.8-5.9c8.1,6.4,5.2,17.9,6.8,28.8
		c8,54,11.4,113.7,12.1,168.3C2070.8,1742.7,2073.9,1692.6,2078.7,1643.7z"/>
	<path class="st0" d="M1742.3,1689.1c1.5-7.2,4.4-63.2-0.2-67.7c-8.2-7.9-30.6,3.7-40.4-1.4c-55.9-29,60.4-39.2,75.7-26
		c20,17.3,4.9,125,4.9,154.8c0,31.6,0.8,63.2,0,94.7c-0.9,38.1,6.9,25.4-24.9,30.5c-8,1.3-64.4,4.8-69-0.9
		c-26-32,28.1-23.2,34.6-25.2c27.6-8.7,19.1-9,19.1-43.9c0-13,6.1-55.4-3-63.9c-6.7-6.3-43.9,7.5-49.1-0.2
		c-3.4-5.1-1.4-19.5-1.4-25.5C1726.2,1710.1,1734.5,1727.6,1742.3,1689.1z"/>
	<path class="st0" d="M1944.4,1681.9c0-17.8-17.9-120.3,33.3-87.7c21.5,13.7,6.5,146.6,6.5,179c0,15.2,9.8,89.2,0,98.5
		c-6.3,5.9-30.8,1.9-39.9,1.9C1944.3,1809.8,1944.4,1745.9,1944.4,1681.9z"/>
</g>
</svg>
