<?xml version="1.0" encoding="utf-8"?>
<!-- Generator: Adobe Illustrator 22.0.0, SVG Export Plug-In . SVG Version: 6.00 Build 0)  -->
<svg version="1.1" id="Слой_4" xmlns="http://www.w3.org/2000/svg" xmlns:xlink="http://www.w3.org/1999/xlink" x="0px" y="0px"
	 viewBox="0 0 300 300" style="enable-background:new 0 0 300 300;" xml:space="preserve">
<style type="text/css">
	.st0{fill:#68C6BF;}
</style>
<g>
	<path class="st0" d="M152.3,22.1c3.7,0,7.4,0.4,10.8,1.5l-0.2-0.5v-9.3c0,0-3-3.2-12-3.2s-12,4.2-12,4.2V22l0.6,1.4
		C143.6,22,148,22.1,152.3,22.1z"/>
	<path class="st0" d="M141.3,33.8c0,0-0.3,0.7-0.7,1.8c7.5-1.6,14.7-1.5,22,0.2l-0.5-1.8c1.1-0.4,1.9-0.6,2.5-1.2
		c0.4-0.4,0.6-2.3,0.3-2.9c-0.5-0.9-1.2-1.6-1.2-1.6v-0.2c-8.3-2.4-17.2-2.6-25.3,1.3c-0.1,0.1-0.2,0.1-0.4,0.1
		c-0.3,0.3-0.6,0.8-0.7,1.4C137.2,32.5,141.3,33.8,141.3,33.8z"/>
	<path class="st0" d="M148.8,68.5c7.8,0,15.7,0.6,23.4,1.9c5.3,0.9,11.2,1.8,16.2,4.2c0-1.4-0.1-2.7-0.1-3.8
		c-0.8-16.5-22.6-30.5-24.6-31.8c-8.4-2.2-16.3-2.3-25.1,0c-16.5,8.4-22.3,31.1-22.3,31.1s0,1.7,0,4.6c3.3-2,7.3-2.7,11-3.5
		C134.5,69.6,141.5,68.5,148.8,68.5z"/>
	<path class="st0" d="M173.2,79.3c5.4,0.9,10.4,2.2,15.4,3.8c0-1.8,0-3.5-0.1-5c-5.1-2.9-11.5-3.8-17.1-4.7
		c-6.9-1.1-13.8-1.7-20.8-1.8c-7.1-0.1-14,0.6-20.9,2.2c-4.5,1-9.9,1.6-13.5,4.7c0,1.5,0,3.3,0,5.1c10.5-5.3,24.1-5.5,35.4-5.6
		C158.9,77.8,166.1,78.1,173.2,79.3z"/>
	<path class="st0" d="M151.4,144c-6.1,0-12.1,0-18.2-0.1c-5.8-0.1-11.6-0.1-17,2.1c0,0.9,0,1.5,0.1,1.8c0.3,2.7,4.3,5.9,5.8,6.9
		c4.1-0.9,8.2-0.4,12.4-0.3c5.7,0.2,11.4-0.2,17.1-0.2c10,0,20,0.1,30,0.1V154c4.2-2.1,5.9-6.5,6.4-8.3
		C176,143.8,163.7,144,151.4,144z"/>
	<path class="st0" d="M181.7,160.6v-3.3c-9.3,0-18.7,0-28-0.1c-5.9,0-11.8,0.3-17.7,0.2c-4.4-0.1-8.9-0.8-13.2,0.2v3.8
		c9.7-2.1,20.6-0.7,30.3-0.8C162.5,160.6,172.1,160.3,181.7,160.6z"/>
	<path class="st0" d="M117.1,190.3l0.5,0.7c14.2,2.5,28-4,41.4-8.1c8.8-2.7,20-5.5,28.1,0.4l0.1-0.1v-12.5l-5.2-7.1
		c-9-0.3-18.1,0-27.1,0c-10.5,0-22.4-1.6-32.7,1l-5.9,6.6v13.3l1.5,2.7l-1.5,1.8L117.1,190.3z"/>
	<path class="st0" d="M116.7,201.3l0.2,0.9c12.4,5.9,26.6-1.6,38.5-5.8c10.1-3.6,21.4-5.1,31.7-1.7c0.2-0.8,0.3-1.5,0.3-1.5l-1-1.5
		c0,0,0.9-1.5,1-2s-0.1-3-0.1-3l-0.2-0.2c-0.4,0-0.8-0.1-1.1-0.4c-9.1-7.8-25-1-34.8,2.3c-11.3,3.8-22.9,7.6-34.8,5.3l0.3,3.9
		l-0.3,2L116.7,201.3z"/>
	<path class="st0" d="M147.8,202.3c-10.3,3.8-21.2,7.3-31.5,2.9v8.1c0,0,0.1,0.3,0.2,0.7c13,4.7,27.9-0.8,40.5-4.7
		c9-2.8,20.3-7.1,29.9-3.8c-0.1-0.8-0.3-1.6-0.7-2.2c1-0.5,1.3-4.6,1.3-4.6s-0.5-0.5-0.8-1.1C173.4,193.1,160.4,197.7,147.8,202.3z"
		/>
	<path class="st0" d="M186.7,208.6c-6.1-2.4-14.5-0.9-20.3,0.8c-6.5,2-13,4.2-19.6,6c-9.9,2.8-20.6,4.8-30.5,1.6v2.5
		c1.5,1.7,0,2.7,0,2.7v2.6c11.4,5.8,26.3,1.1,37.9-2.4c6.4-1.9,12.6-4.7,19.3-5.5c5-0.6,9,0.3,13.5,1.4c0.7-1.9,0-4.1-0.6-5.2
		C187.4,211.9,187.2,209.8,186.7,208.6z"/>
	<path class="st0" d="M134.4,238.8c7.6-0.2,14.6-1.7,21.7-4.1c10.4-3.6,20.3-6.7,30.9-5l0.1-0.2v-8.2c-3-0.8-5.6-1.6-8.9-1.6
		c-3.8-0.1-7.4,0.6-11.1,1.7c-6.9,2.1-13.7,4.5-20.7,6.3c-9.9,2.4-20.8,4.6-30.1,0.5v8.7C121.8,239.4,128.5,239,134.4,238.8z"/>
	<path class="st0" d="M146.1,240.6c-7,1.4-14.5,1.6-21.6,1c-2.9-0.2-5.6-0.7-8.1-1.8v30.8c0,28.5,19.7,15.2,19.7,15.2
		c1.5,2,2.3,6.3,11.7,6.3c9,0,9.5-8.3,12.4-8.5c3.1-0.2,6.1,5.8,14,5.8c13-0.3,13.3-18.8,13.3-18.8v-37.5l-0.5-0.5
		C172.4,230.3,160.3,237.9,146.1,240.6z"/>
	<path class="st0" d="M188.7,86.1c-4.8-1.4-9.4-2.8-14.4-3.7c-6.9-1.2-13.8-1.6-20.7-1.6c-11.9,0-26.5-0.2-37.3,6
		c-0.1,17.8-0.1,45.1,0,56.2c10.3-3.8,22.6-1.8,33.2-1.8c13-0.1,26-0.3,38.9,1.6C188.5,134.9,188.8,106.1,188.7,86.1z M166.7,136.3
		l-13.6-13.6l-13.6,13.6h-8.2l21.8-21.8l21.8,21.8H166.7z M166.7,121.6L153.1,108l-13.6,13.6h-8.2l21.8-21.8l21.8,21.8H166.7z
		 M166.7,107.3l-13.6-13.6l-13.6,13.6h-8.2l21.8-21.8l21.8,21.8H166.7z"/>
</g>
</svg>
