<?xml version="1.0" encoding="utf-8"?>
<!-- Generator: Adobe Illustrator 22.0.0, SVG Export Plug-In . SVG Version: 6.00 Build 0)  -->
<svg version="1.1" id="Слой_1" xmlns="http://www.w3.org/2000/svg" xmlns:xlink="http://www.w3.org/1999/xlink" x="0px" y="0px"
	 viewBox="0 0 3000 3000" style="enable-background:new 0 0 3000 3000;" xml:space="preserve">
<style type="text/css">
	.st0{fill:#68C6BF;}
</style>
<g>
	<path class="st0" d="M2081.7,2812.2c0,0.1-1.4,1.9-2.2,3C2080.5,2814.2,2081.5,2813.1,2081.7,2812.2z"/>
	<path class="st0" d="M2244,1440.1c-2.7-100-34.9-183.6-77.4-273.5c-12.2-25.9-25.2-51.9-35.6-78.6c-5.3-13.7-8.9-38.6-19.3-50.7
		c-23.3-27.1-86.4-26-120.4-30.5c-93.6-12.2-189.2-7.1-283.5-4.6c-56.1,1.5-113.4-1.5-169.3,6c-24.1,3.2-91.2,33.6-108.1,27.5
		c-16.8-6-52.6-107.2-68.7-129.1c-36.3-49.4-102.3-76-132.1-127.4c-29.9-51.6-15.5-126.9-15.5-183.5c0-80.2,0-160.4,0-240.6
		c0-17.1-3.7-39.7,0-56.4c0.6-2.8,8.6-5.4,8.5-5.1c5.1-20.3,17.6-57.8,9.2-84.1c-2-6.2-14.6-20.2-17.8-25.6
		c-3-5.2-0.3-14.8-4.3-20.6c-20.7-30.3-48.9-25.4-82.2-25.4c-50.7,0-107.1-14.5-135.8,34.9c-0.1,0.2-10.1,27.8-9.6,26.1
		c-1.6,5.1-6.8,7.9-8.1,13.1c-3.5,13.9-3,44.7,0,57.8c3,13.5,10.8,16.4,14,26.8c6.9,22.5,3.8,53.9,3.8,79.9c0,80.6,0,162-0.1,242.2
		c-0.1,80.7,10.3,151.3-60.5,203.3C741.2,961.7,760,1180.5,760,1392.2c0,321.8-5.2,644.4,2,966c1.7,75,0,150.3,0,225.3
		c0,55-19.9,132.4,37.2,163.5c63.2,34.4,162.6,30,231.4,33.4c90.9,4.4,185.2,2.6,276.2-10.3c33.2-4.7,79-6.4,108.1-24.8
		c44.6-28.2,24.1-109.4,25.1-155.3c3.1-151.7,7.4-305.4,3.2-457c-1.5-56.6-2.3-114.2-1.1-171c0.9-44.6-12-115.2,2.3-157.6
		c21.8,10.3,41.3,37,60.9,51.6c38,28.3,79,45.5,121.9,64.5c74.7,32.9,105.8,155.9,116.9,231c15.8,106.5,11.9,219.6,8.8,326.9
		c-3.3,111.6-18.6,256.1-144.6,296.9c-31.3,10.1-97.3,0.1-121.3,25.3c-38.9,40.7,65.7,49.5,93,52.8c104.6,12.6,210.9,19.8,316,10.9
		c43.7-3.7,98.4-3.6,140-17.9c31.2-10.7,68.6-41.8,21.2-60.7c-30.9-12.3-77.4-3.1-111.2-12.3c-41.9-11.4-76.3-32.8-96.6-71.8
		c-32.2-62-37.9-139.4-41.8-207.8c-6.7-116.7-5.5-234.6,11.4-350.5c9.4-64.2,18.4-130.9,57-185.4c37.9-53.5,131.3-71.7,184.8-115
		C2182.2,1744.5,2248.2,1595.4,2244,1440.1z M1410.5,2189.8c-105,24.5-223.1,20.6-331.6,18.1c-60.8-1.4-122-2.3-182.7-5.8
		c-20-1.2-75.4,2.6-85.9-14.4c-16.1-25.9,0-116.4,0-145.2c0-95.7,0-191.4,0-287.1c0-99.1,0-198.3,0-297.4c0-33.6,0-67.1,0-100.7
		c0-20-7-55.1,0-74.1c7.8-21.3,12.9-17.4,42.8-19c77.7-4.3,156.1-4.1,234-4.1c70.8,0,149.8-7.6,219.9,5.7
		c34.9,6.6,31.7-2.6,22.2,33.4c-8,30.3-15.6,58.4-19.6,89.6c-13.5,105.3,7.4,229,62.5,320.3c12.3,20.4,36.3,43.9,45.3,66
		c14.5,35.6,4.5,89.8,4.5,128C1422.1,1941.8,1440.4,2182.8,1410.5,2189.8z M1475.3,1058.1c11.1,2.9,36.5-8,50.6-10.3
		c29.2-4.7,58.2-8.5,88-9.4c85.2-2.7,170.8-2.3,256-2.4c47.9,0,94.4,2.2,141.6,10.2c1.6,0.3,62.7,6.9,46,18.8
		c-0.2-0.5-0.5-1-0.7-1.6c-0.8,1.9-2.2,3.6-4.5,4.6c0.2,0.1,0.4,0.2,0.5,0.3c-30.3,21.4-90.7,11.4-125.7,13.7
		c-50.4,3.3-100.1,3.3-150.6,4.6c-63.4,1.6-127.5,0.6-190.8-4.6C1574.9,1081.1,1465.9,1069.5,1475.3,1058.1z M2209.8,1482.4
		c-0.2,26.2,0.2,108.9-21.5,127.9c-19.3,16.9-136-2.1-163.2-2.9c-180.7-5.1-361.3-1.9-541.9,2.5c-35.8,0.9-41.2,3.4-44.2-29.3
		c-2.2-23.4,1.2-48.3,1.4-71.8c0.4-75.8,0.2-151.7,2-227.2c1.1-45.9-3.6-95.2,1.7-140.6c4.8-41.1,9.8-42.5,51.7-32.7
		c69.5,16.3,143.9,15.7,214.8,15.8c74.7,0.1,146.6-0.5,220.9-6.2c50.6-3.8,121.8,7.1,154.7-40.4
		C2152.1,1204.7,2210.8,1336.9,2209.8,1482.4z"/>
	<path class="st0" d="M1196,1873.7c-39.6,0-40.4-3.9-48.4-39.9c-4.9-22-12.2-44.6-13.8-67.1c-11.9,5.3,2.9,81-1.9,91.9
		c-7.7,17.4,5.8,8.6-13.1,15.3c-8.3,3-22.8,1-26.8-4.7c-11.3-16.2,0-75.5,0-95.6c0-37.4,0-74.8,0-112.2c0-18-7.5-58.4,4.7-67.4
		c31.4-23.2,37.9,18.9,41.5,36.4c5.6,27.5,8,58.8,17.1,85.1c2.7-24.1-16.9-162.1,40.4-119.8c10,7.4,0.2,121.2,0.2,134.9
		C1195.9,1778.2,1196,1825.9,1196,1873.7z"/>
	<path class="st0" d="M939.9,1791.1c0.7-54.6,4.1-114.3,12.1-168.3c1.6-10.9-1.3-22.4,6.8-28.8c7.8-6.1,33.5,0,36.8,5.9
		c5.1,8.9-6.4,53.2-7.7,64.4c-4.5,41-9.1,82.1-13.6,123.1c-2,18.2-0.7,44.1-6.5,61.6c-4.1,12.4,2.1,18.7-6.7,25
		c-5.6,4-48.3,0.4-50.9-2.4c-15.9-16.9-11.5-97.5-14.2-121.4c-4.2-37.4-7.9-74.9-12.2-112.4c-2.5-21.4-13.9-55.5,22.6-43.7
		c20.9,6.7,15.1,26,17.3,49.6C928.5,1692.6,931.6,1742.7,939.9,1791.1z"/>
	<path class="st0" d="M1313.8,1714.4c0,6,2,20.4-1.4,25.5c-5.2,7.7-42.4-6.1-49.1,0.2c-9.1,8.5-3,50.9-3,63.9
		c0,34.9-8.5,35.2,19.1,43.9c6.5,2,60.6-6.8,34.6,25.2c-4.6,5.7-61,2.2-69,0.9c-31.8-5.1-24,7.6-24.9-30.5c-0.8-31.5,0-63.1,0-94.7
		c0-29.8-15.1-137.5,4.9-154.8c15.3-13.2,131.6-3,75.7,26c-9.8,5.1-32.2-6.5-40.4,1.4c-4.6,4.5-1.7,60.5-0.2,67.7
		C1267.9,1727.6,1276.2,1710.1,1313.8,1714.4z"/>
	<path class="st0" d="M1058.1,1873.6c-9.1,0-33.6,4-39.9-1.9c-9.8-9.3,0-83.3,0-98.5c0-32.4-15-165.3,6.5-179
		c51.2-32.6,33.3,69.9,33.3,87.7C1058,1745.9,1058.1,1809.8,1058.1,1873.6z"/>
</g>
</svg>
