<?xml version="1.0" encoding="utf-8"?>
<!-- Generator: Adobe Illustrator 22.0.0, SVG Export Plug-In . SVG Version: 6.00 Build 0)  -->
<svg version="1.1" id="Слой_2" xmlns="http://www.w3.org/2000/svg" xmlns:xlink="http://www.w3.org/1999/xlink" x="0px" y="0px"
	 viewBox="0 0 300 300" style="enable-background:new 0 0 300 300;" xml:space="preserve">
<style type="text/css">
	.st0{fill:#68C6BF;}
</style>
<path class="st0" d="M92.9,155.2c2.9-10.9,5.6-18.6,6.1-19.5c1.3-2.5,2.5-5.5,0-6.3c-1.6-0.5-5.3-1.7-16.3-2.6
	c-2.2-2.5-4.3-5.2-6-8.1c-3.1-5.2-4.8-11.1-6.2-17c-1.6-6.6-3.2-13.5-3.7-20.2c0-0.1,0-0.2,0-0.3c0.7-6.6,2.4-13.1,4-19.5
	c3-8.8,5.3-18.4,1.7-27.4C69,25.5,60.9,21.6,52.7,18.3c-1.3-0.5-2.3,1.2-1.7,2.2c5.2,8.8,5.7,21,1.8,30.4C49.3,59,46.9,67,47,75.9
	c0.1,9.7,2.7,19.1,1.3,28.8c-1.1,7.9-4.1,15.3-8.7,21.8c-19.3,1.3-21.6,5.1-21.6,7.8c3.4,8,6.2,15.6,8.5,22.7c0,0,0,0,0,0
	c0.6,2.5,1.4,5,2.3,7.4c2,6.6,3.5,12.8,4.7,18.4c0,0.2,0,0.5,0.1,0.7c0.5,1.4,0.8,2.8,1.1,4.3c-0.1,0-0.1,0-0.2-0.1
	c3.8,19.8,3.4,32.5,2.9,35.7c-0.8,5.5-7.5,18.3-7.5,18.3c35.7,13.8,63.8-1.8,63.8-1.8s-5.8-10.7-8.5-16c-1.6-9.1-1.2-20,0.1-30.9
	c0.1-0.1,0.2-0.3,0.2-0.5c0.5-3.3,1.5-6.8,1.4-10.1c0,0,0,0,0,0c1-6.1,2.3-12,3.6-17.5C91.6,161.8,92.6,158.6,92.9,155.2z
	 M55.9,107.3c1.1-8.1-0.3-16.1-0.3-24.2C55.5,70.2,62.4,60,67.4,48.9c-0.3,2.3-0.7,4.5-1.1,6.7c-0.5,1.5-1,3-1.5,4.5
	c-0.1,0.1-0.2,0.3-0.2,0.5c-2,6.8-4.3,15-3.8,22.4c-0.2,2.7-0.3,5.5-0.1,8.3c0.9,12.3,5.2,23.9,10.4,35c-4.5-0.2-9.8-0.2-16-0.2
	c-1.8,0-3.5,0-5.2,0C53,120.2,55.1,114,55.9,107.3z M48.1,129.2c2.7-0.1,5.3-0.2,8-0.2c5.6-0.1,11.2-0.2,16.8,0.1
	c3.2,2.8,7.1,4.1,11.2,4.6c-0.2,0-0.3,0.1-0.5,0.1c-0.1,0-0.1,0-0.2,0c-7.9,0.7-15.9,0.6-23.9,0.6c-8.4,0-17.5,1-26-0.1
	C38.5,133.3,43.2,131.2,48.1,129.2z M83.6,228.7c-6.5,3.8-14.7,4.9-22.2,4.9c-7.7,0-15.6,0.3-22.8-2.8c-2-0.9-0.3-3.7,1.7-2.9
	c6.5,2.8,14.1,2.4,21.1,2.3c6.8,0,14.5-1,20.5-4.4C83.8,224.7,85.5,227.6,83.6,228.7z M89,160.2c0,5.2-1.9,10-3.4,14.9
	c-0.5,7-2.2,14.1-2.8,21.1c-0.6,7.7-1.2,15.9-0.6,23.7c0.3,0.5,0.4,1.2-0.1,1.8c-1.9,2.1-4.7,2.7-7.3,3.5c-3.8,1.2-7.6,2.3-11.6,2.6
	c-7.1,0.6-14.9,0.2-21.2-3.4c-0.9,0.1-1.9-0.7-1.5-1.8c1-3,0.2-7.1,0.1-10.2c-0.1-3-0.4-6-0.6-8.9c-0.2-3.1-0.3-6.2-0.6-9.3
	c-0.2-1.8-0.7-3.6-1-5.3c0,0-0.1,0-0.1,0c-0.1-0.3-0.1-0.6-0.2-1c-0.1-0.1-0.2-0.3-0.2-0.4c-1.5-4.6-1.8-9.4-3.3-13.9
	c-1.3-3.8-2.8-7.4-3.3-11.3c-2.9-7.8-4.9-15.9-7.8-23.7c-0.5-1.3,0.9-2,1.9-1.7c0.2,0,0.4-0.1,0.7,0c10.8,2.4,21.9,1.4,32.8,1.4
	c5.9,0,11.8,0.1,17.7-0.2c6-0.3,11.4-1.8,17.2-2.7c1-0.1,1.7,0.6,1.8,1.4c0.2,0.3,0.2,0.7,0.1,1.1c-2.1,7.1-4,14.5-6.3,21.6
	c-0.1,0.2-0.1,0.4-0.2,0.6C88.9,160,89,160.1,89,160.2z"/>
<path class="st0" d="M92.2,138.5c-5,0.9-9.7,2.1-14.9,2.4c-6.2,0.3-12.4,0.2-18.6,0.2c-10.6,0-21.3,0.8-31.8-1.2
	c2.2,6.3,4,12.7,6.1,19c9.4,2.4,19.3,2.8,28.9,2.7c8.2-0.1,16.5-1,24.4-3C88.5,152,90.2,145.2,92.2,138.5z"/>
<path class="st0" d="M79.8,196.2c0.2-2.3,0.4-4.6,0.7-6.9c-5.4,1.2-11,1.7-16.6,1.9c-7.7,0.2-15.3,0-22.7-1.5c0.4,1.8,0.8,3.6,1,5.5
	c0.3,3.4,0.4,6.8,0.7,10.2c0.4,5,1.8,11.6,0.7,16.7c5.5,3,12,3.4,18.2,3c3.4-0.2,6.5-0.9,9.7-1.9c2.4-0.7,5.7-1.3,7.8-2.9
	C78.6,212.3,79.2,204,79.8,196.2z"/>
<path class="st0" d="M174.9,191.8c0-0.1,0-0.3,0.1-0.4c0,0,0,0,0,0c0.3-2,0.6-3.9,1-5.9c0.2-1.1,0.3-2.2,0.4-3.3
	c0.1,0,0.1,0,0.2-0.1c3.8-19.4,9.5-36.7,9.5-36.7s6.7-13.3,5-15.3c-26-9-73.3-6-81,2.6c7.8,19.8,12.7,35.4,15.8,47.6c0,0,0,0,0,0
	c0,0.1,0,0.1,0.1,0.2c0,0.1,0.1,0.3,0.1,0.4c0,0,0,0,0,0c0.2,0.6,0.4,1.2,0.5,1.9c0,0.2,0,0.4,0.1,0.6c0.1,0.9,0.3,1.7,0.5,2.5
	c6.2,27.7,1.9,35.8,1.4,37.4c-0.5,1.6-4.8,8-7.5,11.8c-1.2,1.7-0.8,4.1,1,5.3c23.6,16.9,59.6,3.2,61.5-0.3c0.8-1.4,0.1-2.7-0.7-4.1
	c-2.2-4.1-6.6-12.3-9-16.9c-1-7-0.6-15.6,0.6-24.4c-0.1-0.2-0.1-0.4,0-0.7C174.6,193.5,174.7,192.6,174.9,191.8z M119.3,130.9
	c0.1-0.3,0.3-0.5,0.6-0.6c0.5-0.2,1-0.3,1.4-0.4c1-0.4,2.2-0.6,3.4-0.6c0.4-0.1,0.9-0.2,1.3-0.2c18.7-2.4,38.1-3.7,56.2,2.2
	c0.3,0.4,0,1.1-0.3,1.6c-9.4,2-19.7,1.2-29.3,1.4c-10,0.3-20.1,0.2-30-1.3c0,0,0,0-0.1,0c-0.6-0.1-1.2-0.2-1.8-0.3
	c-0.1,0-0.1,0-0.2-0.1c-0.1,0-0.2,0-0.3,0C119.3,133,118.7,131.6,119.3,130.9z M174.2,184.4c0,0.2-0.1,0.3-0.2,0.4c0,0,0,0.1,0,0.1
	c-0.4,5.5-2.3,10.6-3.1,16c-1,6.3-0.7,13.1,0.2,19.4c0,0.1,0.1,0.2,0.1,0.4c0,0.1,0,0.1,0,0.2c0.1,0.2,0.1,0.4,0.1,0.6
	c0.9,8.9-15.6,7.1-21,7.1c-2.6,0-19.6,0-17.9-6.3c0,0,0,0-0.1,0c1.7-5.2,1.4-11.2,0.7-16.4c-0.9-6.6-0.6-14.2-3.4-20.3
	c-0.1-0.3-0.2-0.5-0.1-0.8c-0.3-0.9-0.5-1.8-0.8-2.7c-0.1-0.2-0.2-0.3-0.3-0.4c0-0.1-0.1-0.2-0.1-0.3c-0.1-0.6-0.3-1.3-0.6-1.9
	c-2.7-9.9-3.6-20.7-8-29.9c0,0,0,0,0,0c-0.1-0.1-0.2-0.1-0.3-0.2c-0.4-1.1-0.6-2.2-0.5-3.1c0.3-2.4,3.6-1.5,5.2-1.7c0,0,0,0,0.1,0
	c0.1,0,0.2,0,0.3,0.1c9,0.1,17.9,1.2,26.9,1.6c7.7,0.3,17,0.8,24.8-1.2c0.4,0,0.8-0.1,1.2-0.2c0.8-0.2,6.4-1.6,6.2,0.4
	c0,0.2,0,0.4,0.1,0.6c-1.5,6.3-3.5,12.4-4.9,18.8C177.5,171.2,175.7,177.7,174.2,184.4z"/>
<path class="st0" d="M180.1,148.4c0.6-0.6,0.1-2-0.9-1.7c-1.5,0.5-3,0.9-4.5,1.3c0,0-0.1,0-0.1,0c-6.3,1.2-13,0.9-19.3,0.9
	c-9.2,0-18.3-1.2-27.4-1.5c-1.5-0.1-3-0.2-4.4-0.6c-1.1-0.3-1.6,1.2-0.9,1.7c4.9,10.7,5.4,23.3,9.3,34.3c0.1,0.2,0.1,0.4,0.1,0.6
	c7.7,2.2,16.1,1.6,24.1,1.5c4.5,0,10.1-0.2,15.3-1.4c0,0,0-0.1,0-0.1c1.4-6.7,3.3-13.2,4.7-19.9c1.1-5.1,2.5-10,3.8-14.9
	C180,148.7,180.1,148.6,180.1,148.4z"/>
<path class="st0" d="M263.9,192.2c0-0.1,0-0.3,0.1-0.4c0,0,0,0,0,0c0.3-2,0.6-3.9,1-5.9c0.2-1.1,0.3-2.2,0.4-3.3
	c0.1,0,0.1,0,0.2-0.1c3.8-19.4,9.5-36.7,9.5-36.7s6.7-13.3,5-15.3c-26-9-73.3-6-81,2.6c7.8,19.8,12.7,35.4,15.8,47.6c0,0,0,0,0,0
	c0,0.1,0,0.1,0.1,0.2c0,0.1,0.1,0.3,0.1,0.4c0,0,0,0,0,0c0.2,0.6,0.4,1.2,0.5,1.9c0,0.2,0,0.4,0.1,0.6c0.1,0.9,0.3,1.7,0.5,2.5
	c6.2,27.7,1.9,35.8,1.4,37.4c-0.5,1.6-4.8,8-7.5,11.8c-1.2,1.7-0.8,4.1,1,5.3c23.6,16.9,59.6,3.2,61.5-0.3c0.8-1.4,0.1-2.7-0.7-4.1
	c-2.2-4.1-6.6-12.3-9-16.9c-1-7-0.6-15.6,0.6-24.4c-0.1-0.2-0.1-0.4,0-0.7C263.6,193.8,263.7,193,263.9,192.2z M208.3,131.3
	c0.1-0.3,0.3-0.5,0.6-0.6c0.5-0.2,1-0.3,1.4-0.4c1-0.4,2.2-0.6,3.4-0.6c0.4-0.1,0.9-0.2,1.3-0.2c18.7-2.4,38.1-3.7,56.2,2.2
	c0.3,0.4,0,1.1-0.3,1.6c-9.4,2-19.7,1.2-29.3,1.4c-10,0.3-20.1,0.2-30-1.3c0,0,0,0-0.1,0c-0.6-0.1-1.2-0.2-1.8-0.3
	c-0.1,0-0.1,0-0.2-0.1c-0.1,0-0.2,0-0.3,0C208.3,133.4,207.7,132,208.3,131.3z M263.2,184.8c0,0.2-0.1,0.3-0.2,0.4c0,0,0,0.1,0,0.1
	c-0.4,5.5-2.3,10.6-3.1,16c-1,6.3-0.7,13.1,0.2,19.4c0,0.1,0.1,0.2,0.1,0.4c0,0.1,0,0.1,0,0.2c0.1,0.2,0.1,0.4,0.1,0.6
	c0.9,8.9-15.6,7.1-21,7.1c-2.6,0-19.6,0-17.9-6.3c0,0,0,0-0.1,0c1.7-5.2,1.4-11.2,0.7-16.4c-0.9-6.6-0.6-14.2-3.4-20.3
	c-0.1-0.3-0.2-0.5-0.1-0.8c-0.3-0.9-0.5-1.8-0.8-2.7c-0.1-0.2-0.2-0.3-0.3-0.4c0-0.1-0.1-0.2-0.1-0.3c-0.1-0.6-0.3-1.3-0.6-1.9
	c-2.7-9.9-3.6-20.7-8-29.9c0,0,0,0,0,0c-0.1-0.1-0.2-0.1-0.3-0.2c-0.4-1.1-0.6-2.2-0.5-3.1c0.3-2.4,3.6-1.5,5.2-1.7c0,0,0,0,0.1,0
	c0.1,0,0.2,0,0.3,0.1c9,0.1,17.9,1.2,26.9,1.6c7.7,0.3,17,0.8,24.8-1.2c0.4,0,0.8-0.1,1.2-0.2c0.8-0.2,6.4-1.6,6.2,0.4
	c0,0.2,0,0.4,0.1,0.6c-1.5,6.3-3.5,12.4-4.9,18.8C266.5,171.6,264.7,178.1,263.2,184.8z"/>
<path class="st0" d="M269.1,148.8c0.6-0.6,0.1-2-0.9-1.7c-1.5,0.5-3,0.9-4.5,1.3c0,0-0.1,0-0.1,0c-6.3,1.2-13,0.9-19.3,0.9
	c-9.2,0-18.3-1.2-27.4-1.5c-1.5-0.1-3-0.2-4.4-0.6c-1.1-0.3-1.6,1.2-0.9,1.7c4.9,10.7,5.4,23.3,9.3,34.3c0.1,0.2,0.1,0.4,0.1,0.6
	c7.7,2.2,16.1,1.6,24.1,1.5c4.5,0,10.1-0.2,15.3-1.4c0,0,0-0.1,0-0.1c1.4-6.7,3.3-13.2,4.7-19.9c1.1-5.1,2.5-10,3.8-14.9
	C269,149.1,269.1,149,269.1,148.8z"/>
</svg>
