<?xml version="1.0" encoding="utf-8"?>
<!-- Generator: Adobe Illustrator 22.0.0, SVG Export Plug-In . SVG Version: 6.00 Build 0)  -->
<svg version="1.1" id="Слой_1" xmlns="http://www.w3.org/2000/svg" xmlns:xlink="http://www.w3.org/1999/xlink" x="0px" y="0px"
	 viewBox="0 0 3000 3000" style="enable-background:new 0 0 3000 3000;" xml:space="preserve">
<style type="text/css">
	.st0{fill:#67C6BF;}
</style>
<g>
	<path class="st0" d="M1837.2,1325.4c0.2-29,2.3-58.5,0.7-87.4c-2.9-51.8-18.2-105.2-37.5-152.1c-22.3-54.2-57.6-101.3-92.7-148.5
		c-18.4-24.7-36.9-46.9-46.6-76c-10.1-29.9-13-57-13-88.7c0-33.1,0.2-68.9-2.1-101.2c-1.3-18.1-1.8-36-1.8-54.3
		c0-16.1,6.2-47.4-3.6-60c17.3-12.8-53.2-31.9-63.4-34.1c-33.9-7.2-71.6-2.9-106.2-2.9c-25.8,0-48.9,4.1-72.9,13.6
		c-10.5,4.2-20,10.7-26,20.9c-5.7,9.8-5.9,25.3-5.8,37.1c7.1,1.6,5.2,17.1-0.3,18.2c0.1,16.9-1.6,33.4-2.2,50.2
		c-0.1,0,0.3,63.3-0.6,70.4c-1.7,14.3-2.2,29.6-0.7,44.1c1.7,15.6-2.6,26.3-4.3,41c-7.1,60.3-46.8,106-79.5,155.1
		c-29.4,44.1-62.8,90-80.5,140.6c-19.1,54.5-17.3,111.9-19.8,169.1c-1.5,34.7,0.4,70-0.8,105.9c-1.5,43.5-2.5,87.1-3.2,130.7
		c-1.3,89.6-1,179.3,1.1,268.9c4.2,179.7-3.9,359.5,0.8,539.4c2.3,89.5,4.1,178.7,4.1,268.2c0,44,0,88,0,131.9c0,22,0,44,0,66
		c0,10.3,0,20.5,0,30.8c0,15-3.2,16.7,9.7,19.8c35.5,8.7,71.1,18.9,108.3,22.2c40.7,3.5,81.8,2.8,122.7,3.2
		c85.5,0.8,174.6,5.3,259.6-4.9c20.3-2.4,38.5-7.9,57.5-15.3c14.8-5.7,23.3-4.3,22-21.2c-2.7-36.1,1.1-73.7-2.1-110
		c-2.3-25.9-7.4-50.9-7.6-77.2c-0.1-31.8-9.3-62.5-14-93.8c-2.2-14.6-7.9-27.9-10.6-42.4c-3-15.8-1.5-31.9-4.8-47.8
		c-7.6-36.3-13.9-73.4-23.3-109.1c-7.7-29-3.5-58.7-9.5-87.6c-3.5-16.6-4.3-35.4-11.4-49.5c-7.8-15.6-24-27.5-31.1-42.8
		c-8-17.3,0.5-27,16-31.7c17.5-5.3,30.4-13.1,45.4-23.8c14-9.9,24-14.3,40.9-16.5c9.9-1.3,11.9-0.5,19.7-8.5
		c6.5-6.7,11.4-14,19-19.8c5-3.8,12.6-10.2,18.8-11.3c7.1-1.3,10.4,2.8,18.1-2c12.3-7.7,12.5-23.4,12.7-36.2
		c0.2-17.6-0.2-35.3-0.4-52.9c-1.1-168.2-0.8-336.2,0.5-504.5C1836.5,1414.3,1836.8,1369.8,1837.2,1325.4z M1315.8,1380.4
		c-2.6,69.8-11.7,139.7-11.7,209.6c-11.4,0-40.7,8.2-47.7,0.7c-5-5.4-5.4-24.3-6.9-31.7c-2-10-4-20.1-6.2-29.9
		c-10.3-45.6-20.3-90.9-30.8-136.5c-1.8-8-8.1-22.1-1.5-27.3c2.9-2.2,20.8-3.5,24.6-3.1c10.9,1.1,10.3,5.1,12.4,15.9
		c1.5,8.2,2.9,16.4,4.5,24.5c7.9,39.7,13.7,79.9,22.5,119.4c5.9-13.8,1-37.1,1-52.3c0-19.6,0-39.2,0.1-58.7c0-11-4.2-41.2,1.7-50.3
		c3.8-5.9,30-3.5,37.6-4.7C1316.5,1364.1,1316.1,1372.4,1315.8,1380.4z M1428.3,1575.4c-9.5,15.9-41.8,17.3-58.7,13.9
		c-29.7-5.9-25.3-42.8-25.5-67c-0.2-24-3.5-47.8-3.9-71.7c-0.5-24.2-7.9-54.8-2-78.5c6.3-25.4,49.5-27.6,69.7-21.1
		c22.3,7.1,21.1,33.4,22.3,52.5c1.8,29-0.2,58.9-0.1,88c0,14.7,0.6,28.8,1.6,43.2C1432.5,1546.3,1434.6,1564.7,1428.3,1575.4z
		 M1547.8,1409c-0.9,34.1-3.6,68.2-3.8,102.3c-0.1,22.1,5.8,66.4-23.2,72.5c-15.3,3.2-34.6,0-50.2,0c-11.3,0-12.4,0.8-14.2-9.1
		c-5.6-30.7,0-67.6,0-98.7c0-35.9,0-71.8,0-107.6c0-20.6,2.4-16.3,26.5-16.3c16.6,0,38.3-3.3,53,5.8
		C1552.4,1368.4,1548.2,1392.2,1547.8,1409z M1671.8,1364c-8.7,22.9-14.1,47.5-21.1,71c-7.3,24.6-7.8,41.1-4.6,66.1
		c2.9,22.4,5.8,45,8.6,67.5c0.7,5.6,4.4,19.9,1.5,22.7c-2.8,2.7-26.2-1.3-30.9-1.3c-4-16.9-5.1-34.1-7.3-51.3
		c-1.6-12.2-1-36.6-7-46.4c-4.4,0.2-4.7,46.4-4.9,53.2c-0.4,8.2-1.5,15.9-1.9,24.1c-0.8,14.8,2.6,19.4-14,18.2
		c-9.6-0.7-18.9,0.3-21.6-8c-2-6.2,1.6-22.8,1.7-29.9c0.1-20.7,1.3-42.5,2.9-63.2c1.7-21.4,2.8-43.4,3-64.8c0.1-12,0.9-23.3,2-35.1
		c0.6-6.5-3.8-28.1,2-32.1c1.7-1.2,33.6,0.9,34.4,1.6c4.9,4.5,1.8,20.9,1.4,26.5c-1.3,20.2-7,44-2.8,64.2
		c3.3-22,10.1-44.4,15.9-65.9c2.8-10.4,2.3-20.9,12.5-23.1c8.4-1.8,20.9,2.1,29.8,2.1C1671.5,1361.6,1672.1,1363,1671.8,1364z
		 M1777.8,1427.3c-0.1,37.3,0.8,77.1-2,114.5c-1,13.5-1.8,26.6-1.8,40.4c0,7.7,3,18.5-4.2,21.8c-1,0.5-11.2-1.5-13-1.8
		c-9.2-1.3-13.6-0.5-16.8-7.8c-2.8-6.4,0.1-20.9,0.2-28c0.1-6.6,1-12.2,1.5-18.7c0.7-10.4,0.9-10.3-8.5-13.5
		c-31.3-10.8-11.9,57.3-32.4,61.7c-8.2,1.7-25.2-1.5-26.6-8.1c-2.4-11.3,6.9-33.2,9.2-44.4c5.9-30.1,12.1-60,18.8-89.9
		c3.8-17.2,7.2-34.5,11-51.7c1.8-7.9,3-16.1,5-23.9c2.7-10.4,0.7-9.4,10.7-11.7c5.8-1.3,39.9,0.5,45.3,3.9
		C1784.1,1376.2,1777.8,1415.9,1777.8,1427.3z"/>
	<path class="st0" d="M2065.9,2836.1c-0.1,0.6-0.1,1.2,0.1,1.8c-1.1,0.2-8.5,5.4-9.6,6.3c-2.3,1.5-3.2,3.7-2.6,6.6
		c-3.2,1.4-6.6,2.7-9.9,3.8c-9.4,6-19.8,5.9-30.8,6.7c-23.3,1.8-47.6,2.7-70.9,2.5c-45.8-0.2-93.1,2.7-136.6-11.8
		c-10.1-3.4-12.2-2.5-14.7-13.7c-2-9-2.1-20.9-2.7-30.3c-2.1-32.5,1.7-66-2.1-97.7c-6.1-51.1-3.2-101.5-18-151.5
		c0-23.1-9.3-46.8-12.4-69.6c-1.8-12.9-1-25.9-3.8-38.8c-3.2-14.6-7.9-28.4-10.5-43.1c-5-28.2-13.2-56.4-17.3-84.6
		c-3.9-27.2,0.9-60.7-10.4-86c7.8-0.9,17.8,6.9,25,10.1c9.8,4.3,19.7,9,29.7,12.8c18.3,7,37.3,13.6,56.1,19.2
		c37.1,11,80.4,10.5,117.9,3c16.7-3.3,35.7-1.1,51.5-7.1c19.6-7.5,36.9-21.9,56.8-30c19.6-8,39.4-12.4,60.6-12.7
		c6.2-0.1,26.4-3.7,30.3,3.1c2.3,3.9-3.6,18.7-4,22.7c-5.5,57.8-21.5,118.4-29.1,176.5c-7.5,57.7-23.2,113.1-28.9,171
		c-2.9,29.7-11.1,58.7-13.8,88.6c-2.6,29.1,2.2,58.8-0.2,88c-0.9,11-0.6,19.5,0.1,30.7C2066.2,2816.6,2061.6,2833.8,2065.9,2836.1
		L2065.9,2836.1z"/>
	<path class="st0" d="M904.7,2697.1c-2.8-6.8,0.4-15.4,1.1-22.3c0.9-9.3,2.8-7.3-1.1-17.5c-7.8,2.2-1.6-4.4-2.7-6.9
		c-3.5-7.9-7.1-18.8-12.9-25.2c-8.3-9.2-22.5-14.1-32.6-21.3c-1.9,2.3-4.2,4.3-6.7,6c3.4,4,6.7,8.3,9.6,12.8
		c0.1-0.2,0.3-0.4,0.4-0.5c13.8,8.5,13.6,48.1,17.5,62.3c3.9,14.3,15.4,23,29.3,28.2c1.9-3.8,3.6-7.7,5.6-11.4
		C909.5,2699.8,907.1,2698.5,904.7,2697.1z"/>
	<path class="st0" d="M1149.9,2741.5c-5.1,19.5-37.6,42.2-53.2,45c-33.6,6.2-21.2-34.9-7.6-48.3c-2.1-3.4,6.7-6.5,9.5-9
		c6.3-5.6,7.5-13.9,10.1-21.6c6.8-19.9,15.9-45.7,41.3-45.5c0-76.8,0-153.5,0-230.3c0-9.7,3.3-26,0-35.3
		c-7.3-20.6-49.9-34.8-67.5-46.2c-13.9-9-26.1-19.1-37.1-31.2c-9.2-10.1-19.7-23.6-32.1-30.3c-14.8-8-24.6,6-38.5,9.8
		c-12.4,3.4-25.2-3.8-37.9-6.4c-36.3-7.2-63.3,11.6-91.4,32.4c-23,17-36.4,43.1-46,69.6c-10,27.5-22.8,51.1-32.8,78.8
		c-4.4,12.1-7.4,26.2-10.9,39.1c-1.9,7.1-3.4,16.4-7.9,22.4c-5.7,7.4-15.4,9.9-21,17.2c-3.3,4.4-5.3,12.3-7.8,18.6
		c-1.8,4.4-2.5,7.9-3.1,12.4c0.1-0.4,0.1,13.6,0.1,13.6c-2,5.2-9.8,8.7-11.9,13.9c-1.3,3.3-1.1,8.8-2.3,12.6
		c-4.1,12.4-15,25.2-21.7,37.7c-8.1,15.1-8.4,30.1-10,46.7c-1.7,17.9-0.7,36.7-2.7,54.8c-0.9,8.1-3,15.1-2.7,23
		c0.5,10.5,6.8,13.8,9.3,22c2.5,8-2.6,6.6-2.8,14.7c-0.1,3.4,4.3,13.8,9,16.2c6.2,3.3,23.7,0,31.1,0c8,0,15.1,1.2,23,1.8
		c49.2,4.2,98.5-3.7,147.4-3.8c50.2,0,102.2-3.9,152.1,0.2c31.5,2.6,63.4,3.6,95.2,3.6c18.7,0,21,1.9,21-19.5
		C1149.9,2794.1,1150,2767.8,1149.9,2741.5z M1071.3,2676.9c-11.3,12.4-21.1,28.2-29.7,42.6c-11.6,19.3-15.3,42.8-28.6,61
		c0.2,0,0.4,0,0.7,0.1c-32.4,47.8-120.5,35.8-168.1,26.2c-31.8-6.4-65.4-17.2-92.1-36.3c-10.7-7.7-22.9-17.5-28.1-30.1
		c-6-14.6,0.3-22.5,8-34.3c4.2-6.4,6.1-5.8,6.9-15.1c0.7-9.2,1.6-18.4,2.5-27.6c1.7-15.9,3.8-31.9,6.9-47.6
		c1.3-6.3,4.2-14.1,4.7-20.6c0.4-6.7-2.3-12.6,0-19.7c4.5-13.6,17.8-19.2,29.5-25.2c9.8-5.1,27.2-7.6,35.4-14.1
		c5.8-4.6,9.4-14.2,12.9-20.6c11.1-19.9,21.9-42.4,46.4-46.6c-1.4-25.2,6.7-55.2,16.2-78.4c-0.3,0.7-0.6,1.5-0.9,2.2
		c4.5-12.2,12.1-23.2,16-35.3c4.1-12.8,6.3-18.1,17-25.9c16.8-12.3,32.1-5.1,51.8,0.9c14.1,4.3,26.9,8.7,40.5,14.5
		c6.2,2.6,15,0.5,20.3,3.2c18.2,9.3,19.5,28,29.3,43.6l0-0.2c0.8,5.6,7.2,12.1,9,17.5c1.4,4.1,0.8,7.2,2.7,11.4
		c6,13.3,19.1,22.8,26,36c6.6,12.4,13.7,24.7,19.9,37.2c5.3,10.7,22.6,42.4,15.3,52.4c15.5,12.6-16.8,8.5-23.7,7.7
		c-16.4-2-29.1-4.2-45.6-3.8c-31.7,0.7-66.4-16-97.3-9.7c-5.1-14.1-26,2.3-35.6,6.8c1.4,2.6,9.5,9.6,9.5,9.4
		c9.8-3.6,14.6-9,24.5-5.8c-2.2,3-4.8,1.9-6.9,4.3c37.9,2,73.4,13.6,111.2,15.2c7.9,0.3,13.6,1.6,21.1,3.5c4.4,1.1,8.1,0.4,12.5,2.4
		c2.6,1.3,5.9,5.1,8.4,6c6.2,2.4,42.7,16.8,20.7,20.2c3.7,9.4-24.5,25-31.3,29.4C1095.8,2642.8,1075.5,2660.3,1071.3,2676.9z"/>
	<path class="st0" d="M1578.3,491.9c-9.3,0-14.9-2.5-23.9-3.8c-10.4-1.6-22.4,0-32.9,0c-21.2,0-42.4,0.1-63.4,1.6
		c-30.9,2.1-58.7,10.2-87.6,21.9c-2.9-17.7-2.4-37.3-2.4-55.2c0-21.9,0-43.7,0-65.6c0-42.5-3-86.3-0.1-128.7
		c1.1-15.7,1.9-30.9,1.9-46.9c0-19.6-2.2-31.5,15.7-42.4c20.9-12.7,50.6-16.6,74.4-18.8c31.1-2.8,63.8-4.1,94.7,0
		c24,3.2,58.3,5.4,76.8,22.3c13.3,12.2,10.5,28.4,10.5,45.1c0.1,17,1.9,33.5,1.9,50.7c0.1,34.4,2,68,2,101.7c0,39.3,2,77.6,0,116.5
		c-0.4,8.7,4.4,20.9-6.5,21.3c-4.8,0.2-16.2-8.4-21.4-10C1605.5,497.7,1589.8,498.3,1578.3,491.9z"/>
	<path class="st0" d="M2639.8,2203.2c-11.1-9.8-26.9-2.6-39.5-1.2c-17.1,1.9-33.5,2.9-50.7,4.1c-26.3,1.8-53.5,2.4-80.2,2.9
		c-52.7,1-106.1-4.3-156.3-9.1c-59.8-5.7-123.4-10.6-183.8-19.9c-9.6-1.5-18.8-3.9-28.5-4.9c-8.8-0.9-20.7,1.5-28.9-0.7
		c-14.4-3.9-23.8-18.8-39.1-22.4c-6.3-1.5-13.3,0.8-18.8-2.8c-9.2-6.1-10.7-25.2-26.6-15.3c-3.1-6.6-8.5-7.9-13.7-12
		c-2.4-1.2-5-2.3-7.5-3.2c0.6-2.2,0.1-4-1.4-5.4c-7.2-5.1-18.1-7.4-26.8-11c-23.7-10-43.3-31-69.8-33.6
		c-27.1-2.6-55.1,10.2-72.2,30.3c-6.9,8.2-13.6,18.8-23.9,23c-12.2,5-26.1,0.4-38.4,6.5c-8.8,7.4-18.2,13.4-27.5,20.2
		c-5.2,3.8-21.4,8.6-24,13.3c40,49.3,98.1,75,159.8,89.8c34.2,8.3,68.6,3.3,102.9-1.3c11.6-1.5,25.5-0.2,36.6-3.8
		c15.3-4.9,28.9-18.6,44.3-25c29-12,57-21.5,88.8-19.8c27.1,1.4,52.9,0.8,80.9,3.7c79.8,8.3,159.8,23.2,240.2,22.8
		c44.5-0.2,89.3-0.5,133.7-2.7C2580.5,2225.2,2640.7,2222,2639.8,2203.2z"/>
	<path class="st0" d="M1387.3,1372.3c11,11.2,3.7,37.4,4.8,52.5c1.1,14.4,1.7,28.7,1.8,43.4c0.1,19.7,1.9,38.7,2,58.4
		c0,8,5.2,53.7-12.9,39c-8.2-6.6-3.7-40.4-4.7-51.7c-1.5-17.7-0.7-36-2-53.6c-1.1-15.5,0.8-31.3-0.3-46.8
		C1374.9,1398.4,1365.8,1372.3,1387.3,1372.3z"/>
	<path class="st0" d="M1508.1,1554.6c-17.7,18.6-16.1-2.7-16.1-17.1c0-19.6,0.1-39.2,0.1-58.8c0-30.1,1.8-59.8,1.8-89.7
		c0-7.9-3-13.7,5.6-15.1c10.1-1.7,9.3,5,10.5,11.7c3.3,17.8,0,39-0.1,57.2C1509.8,1480.1,1508.1,1517.2,1508.1,1554.6z"/>
	<path class="st0" d="M1745.8,1395.4c0,27-1.7,53.5-1.9,80.4c-0.1,7.8,2.9,28.1-2,34.3c-3.3,4.2-17.1,5.7-20.2-1.5
		c-1.5-3.6,3.6-18.2,4.4-22.3c1.9-10.7,4.7-21.1,6.6-31.8C1735.9,1437.1,1736.3,1410.5,1745.8,1395.4z"/>
</g>
</svg>
