<?xml version="1.0" encoding="utf-8"?>
<!-- Generator: Adobe Illustrator 22.0.0, SVG Export Plug-In . SVG Version: 6.00 Build 0)  -->
<svg version="1.1" id="Слой_5" xmlns="http://www.w3.org/2000/svg" xmlns:xlink="http://www.w3.org/1999/xlink" x="0px" y="0px"
	 viewBox="0 0 300 300" style="enable-background:new 0 0 300 300;" xml:space="preserve">
<style type="text/css">
	.st0{fill:#68C6BF;}
</style>
<g>
	<path class="st0" d="M91.6,58.2c-7.3-0.1-14.6-0.1-21.8-1.1c0,2.2,0.2,5,0.2,5.7c0,0.5,0.4,1,0.7,1.5c5.7,2.9,12.2,2.4,18.4,2.3
		c2.7-0.1,5.5,0.2,8.2,0.1c1.8-0.1,3.4-0.5,5-1.1c0.1-0.7,0.3-1.5,0.7-2c0.8-1.1,0.9-3.6,0.9-5.8C99.9,58.3,95.9,58.2,91.6,58.2z"/>
	<path class="st0" d="M69.6,97.8c5.9,1.1,11.8,1.2,17.7,1.2c5.6,0.1,11.4,0.3,16.8-1.2c0.1-1.4,1-10.6,0-14.3
		c-1.1-4-1.9-14.3-1.9-14.3s0-0.1,0-0.3c-0.6,0.2-1.2,0.3-1.8,0.5c-3.7,0.6-7.6,0.1-11.3,0.2c-6,0.1-12.1,0.4-17.7-1.7
		c-0.2,3-0.6,8-1.8,12.6c-1.9,7.3-1.1,13.5-0.4,15.3C69.4,96.2,69.6,96.9,69.6,97.8z"/>
	<path class="st0" d="M70.1,54c6.6,0.9,13.1,1,19.7,1c4.7,0,9.5,0.4,14.1-0.4c0.2-1.4,0-11.9,0-11.9s-33.8-0.8-34.5,0s0,8.3,0,9.5
		C69.5,53.3,70.2,53.5,70.1,54z"/>
	<path class="st0" d="M131,127.5c0,0-0.8-15-13.8-17.8c-8.3-1.8-11.4-6.1-12.5-9c-5,1.3-10.2,1.3-15.6,1.3c-6.8,0-13.4-0.1-20.1-1.3
		c-0.9,2.2-2.9,4.6-7.3,6c-18,2.8-21,15.5-21,17.8s0,151,0,151c6.5,12.1,83.3,9,88.5,0.5c3.5-5.7,2-6.7,2-13.4L131,127.5z
		 M44.6,131.3c0.9-7.3,1.9-14.3,8.7-18.4c3.3-2,7-3,10.7-3.9c2.8-0.7,4.4-2,6.5-3.8c0.9-0.8,1.6-1,2.7-1.3c4.5-0.9,9.9,0.3,14.4,0.4
		c4.7,0.1,9.6-0.8,14.3-0.3c3.3,0.4,5.1,3.2,7.6,5.1c3.4,2.6,7.2,4.2,11.2,5.5c0.1,6.9,0.3,13.8,0.4,20.7c-0.8,0-1.6,0-2.5,0
		c-0.1,0-0.2,0-0.2-0.1c-24.1-0.2-48.2-1.2-72.3-1.2c-1.3,0-1.7-1.3-1.4-2.2C44.6,131.7,44.6,131.5,44.6,131.3z M44.5,136l77.5,1.2
		c0,0,0,0.1,0,0.1c1-0.1,2-0.1,3-0.1c0.2,0,0.4,0,0.6,0.1c0.5-0.2,1.1-0.1,1.5,0.3c0,0,0.1,0,0.1,0.1c0,8.6,0.1,17.3,0.2,25.9
		c-1,5.1-0.3,11.3-0.2,16.3c0,0.1,0,0.2,0.1,0.3v3.1c-28.5,5.5-82.8,0-82.8,0V136z M44.6,190.1c0-0.3,0-0.5,0-0.8
		c0-0.2,0-0.4,0.1-0.6c0-0.2,0-0.4,0-0.6c0-1.2,1.1-1.8,2-1.7c0.3,0,0.5,0,0.9,0c12.5,3.1,25.4,2.2,38.1,2.3
		c11.7,0.1,23.2-0.1,34.8-1.6c0,0,0,0,0,0c0,0,0,0,0,0c0,0,0.1,0,0.1,0c0,0,0,0,0,0c0.1,0,0.1,0,0.2-0.1c0.2,0,0.4-0.1,0.7-0.1
		c0,1.9,0,3.7,0,5.6c1.6,0.8,3.3,1.2,4.6,2.5c0.1,0.1,0.2,0.2,0.3,0.3c1,0.5,1.5,1.9,0.7,2.8c0,0,0,0,0,0c0,0-0.1,0-0.1,0.1
		c-0.1,0.1-0.2,0.2-0.4,0.3c-0.4,0.2-0.7,0.4-1.1,0.6c-0.1,0.1-0.2,0.1-0.4,0.2c-0.3,0.1-0.5,0.2-0.8,0.3c-0.1,0-0.2,0.1-0.3,0.1
		c-0.6,0.2-1.2,0.4-1.7,0.6c-0.1,0-0.2,0.1-0.3,0.1c0,0,0,0,0,0c0,0,0,0,0,0c-0.1,0.1-0.2,0.1-0.4,0.2c-0.1,0-0.1,0-0.2,0.1l0,0
		c-12.5,4.8-26.1,4-39.2,4.4c-12.8,0.4-26,0.3-37.6-5.6c-0.1-1.1-0.1-2.3,0-3.4c0-0.2,0-0.4-0.1-0.6c0-1.2,0-2.5,0-3.7
		C44.5,191.3,44.5,190.7,44.6,190.1z M52.1,272.9c0,0,0-0.1,0-0.1c0,0,0-0.1,0-0.1c0,0,0,0,0,0c0.4-0.3,0.7-0.6,0.8-1
		c3-1,5.9-2.2,8.9-3c5.2-1.4,10.6-1.9,16-2.3c3.3-0.2,6.7-0.5,10-0.6c0.3,0.1,0.5,0.2,0.9,0.2c8.3,0.2,16.4,1.3,24.4,3.1
		c0.4,0.1,0.9,0.2,1.4,0.3c0.3,0.3,0.8,0.4,1.2,0.5l0,0c0.8,0.5,2.2,1.5,2.9,2.1c-10.6-3.9-22.1-5.1-33.3-5.3
		C73.7,266.6,63.1,268.7,52.1,272.9z"/>
	<path class="st0" d="M83.7,201.6c12.3-0.4,24.8,0.2,36.5-4.2c0.1-0.1,0.2-0.1,0.4-0.2c0.4-0.2,0.9-0.3,1.3-0.5
		c-0.5-0.2-1.1-0.4-1.6-0.7c-0.6-0.1-1.1-0.1-1.7-0.1c-3.3-0.6-6.7-0.7-10.2-0.8c-7.6-0.3-15.2-0.4-22.7-0.4
		c-7.3,0-14.5,0.2-21.8,0.5c-5.6,0.2-11.3,0.1-16.6,1.8C58.6,202.3,71.5,202,83.7,201.6z"/>
	<path class="st0" d="M121,106.4c0.2,0.1,0.4,0.2,0.5,0.3c5.3,4.4,9.6,6.9,11.9,13.8c2.6,7.6,1.2,16.3,1.2,24.1
		c0,0.5-0.2,0.9-0.4,1.2c0.3,21.5,1.7,43,1.6,64.5c0,11.2-0.9,22.3-1,33.4c-0.1,10.1,0.5,20.2-2.3,30l96,6.4V19.8L121,20.7V106.4z"
		/>
	<path class="st0" d="M231.5,281.1l4-1.8V169c-0.5-0.2-0.9-0.6-1-1.3c-0.2-1.2,0-2.5-0.3-3.8c-0.1-0.8,0.1-1.5,0.6-2.1
		c0.1-7.4,0.5-14.9,0.4-22.3c-0.1-0.7-0.3-1.3-0.5-1.9c-0.1-0.2-0.1-0.4-0.1-0.6c-0.3-1.1-0.2-2.2,0.4-3.2c0.1-0.2,0.2-0.3,0.4-0.4
		c0-0.3,0.1-0.5,0.2-0.8V21.5l-4-0.4V281.1z"/>
	<path class="st0" d="M237.5,21.6v110.2c3.1-0.1,4.8,2,4.3,5.3c-0.6,3.3-0.4,6.9-0.4,10.4c0.9,0,1.9,0,2.8,0c0-0.7,0.2-1.4,0.5-2
		c0.9-1.9,2.8-1,3.5,0.6c0.4,0.9,0.4,1.8,0.4,2.8c0,0,0.1,0,0.1,0c0.5,0,1,0.1,1.5,0c0.3-0.1,0.6,0,0.8,0.1c0.4,0.1,0.7,0.4,0.7,0.9
		v2.4c0,0.6-0.5,1-1,1c-0.7,0.1-1.5,0-2.2-0.1c0,0.4,0,0.7-0.1,1.1c-0.2,1.3-1.2,2.2-2.2,2.2c-0.2,0.1-0.3,0.2-0.5,0.2
		c-1.4,0.1-2.8,0.2-4.2,0.2c0,1.1-0.1,2.1,0,3.2c0.2,2.6,0.8,6.3-1.6,8.2c-0.6,0.5-1.2,0.6-1.8,0.4c-0.2,0.1-0.3,0.2-0.5,0.3
		c0,0,0,0-0.1,0v109.5l21.5-9.6V23.7L237.5,21.6z"/>
</g>
</svg>
