<?xml version="1.0" encoding="utf-8"?>
<!-- Generator: Adobe Illustrator 22.0.0, SVG Export Plug-In . SVG Version: 6.00 Build 0)  -->
<svg version="1.1" baseProfile="tiny" id="Слой_1"
	 xmlns="http://www.w3.org/2000/svg" xmlns:xlink="http://www.w3.org/1999/xlink" x="0px" y="0px" viewBox="0 0 3000 3000"
	 xml:space="preserve">
<g>
	<path fill="#68C6BF" d="M1572.4,2929c-240.9-0.4-468.6-33.8-688.5-141.1c-281.2-137.2-513.4-368.1-652.9-647.6
		C-12.1,1653.1,47.3,1046.2,387.8,618.5c360.9-453.3,969.5-648.5,1523.8-482.1c655.1,196.7,1075.9,849.8,1005.9,1525.4
		c-64.3,620.6-561.5,1149-1178.1,1248.8C1684.2,2919.6,1628.4,2927,1572.4,2929z M1146.9,140.9c0,0.1-146.8,62.8-160.9,69.3
		c-66.1,30.5-129.4,67.5-189.4,108.6c-103.3,70.8-196,155.1-276.1,251.2C360.6,762,260,995.1,224.7,1241.8
		C153.9,1737.1,404,2250.2,842.1,2494c446.8,248.7,1031.7,170.8,1372.4-221.5c319.7-368,334.8-969.3-53-1298.6
		c-173-146.9-409.8-216.6-631.6-158.2c-143,37.7-283.3,139.4-331.8,283.6c-38.2,113.6-15.3,249.7,85.3,324.3
		c107.9,80,247.7,78.6,369.8,123c129.7,47.1,210.1,168.2,189.7,306.7c-37.6,255.8-320.2,380.3-551.9,374.1
		c-529-14.2-834.6-577.7-739.4-1055.3c104.1-521.5,621-859.5,1135.3-828.7c563.9,33.7,1018.9,485,1115,1030.7
		c85,482.6-128,990.9-522.2,1280.2c-56.5,41.5-115.6,77.9-177.5,110.8c-15.9,8.5-173.7,72.4-172.2,80.8
		c753.4-219.4,1140-1074.8,903.6-1795.7C2592.7,315,1774.5-86.2,1047.7,161.2c-215.9,73.5-414.3,200.6-570.1,367
		c-89.5,95.6-166.3,202.1-226.5,318.5c-27.7,53.4-52,108.4-72.8,164.9c-14.9,40.5-62.3,139.7-50.2,185.3
		c27-47,33.7-115.4,53.2-166.8c19.4-51.3,41.3-102.3,66.1-151.2C307,761.7,380.2,650.5,468.1,552.7
		C643.6,357.4,888.3,197.6,1146.9,140.9z M1531,2042.2c-49.8-41-104.5-77-157.4-113.9c-34.2-23.8-90.6-80.5-129.2-90
		c-23.4-5.8-23,2.2-41.7,24.1c-18.3,21.4-36,43.2-54,64.9c-22.3,26.7-86.5,78-92.5,113.9c6.5,7.8,58.3,1.5,67.5,1.5
		c53,0.2,106.1,0.3,159.1,0.3C1364.9,2043.1,1448.9,2047.9,1531,2042.2z"/>
	<path fill="#68C6BF" d="M1444.8,987.1c83.5,0,166.9,0,250.4,0c37,0,74,0,110.9,0c24.4,0,92.1-12.5,112.9,1.3
		c-3.3,37.6-82.2,103.1-105.7,131.6c-15.1,18.3-34.3,49.2-54,63.5c-24,17.3-16.1,15.8-48.8-6.7c-44.1-30.4-88-61.1-131.8-92
		C1538.4,1056.4,1475.9,1025.9,1444.8,987.1z"/>
</g>
</svg>
