<?xml version="1.0" encoding="utf-8"?>
<!-- Generator: Adobe Illustrator 22.0.0, SVG Export Plug-In . SVG Version: 6.00 Build 0)  -->
<svg version="1.1" baseProfile="tiny" id="Слой_1"
	 xmlns="http://www.w3.org/2000/svg" xmlns:xlink="http://www.w3.org/1999/xlink" x="0px" y="0px" viewBox="0 0 3000 3000"
	 xml:space="preserve">
<g>
	<path fill="#67C6BF" d="M1115.8,1321c-97.8,0-138.1,15.4-140.2,12.7c-115.5,22.2-203,55.3-304.9,162.9
		c-108.4,114.5-124.7,253.4-124.7,407.7c4.4,31.3,7.6,53.4,12.3,73.5c5.8,24.9,22.8,53.8,35.9,80.8c21.9,45.2,45.1,80.2,78.6,118.8
		c68.8,79.3,166.6,138.7,240,154.7c154.2,33.6,334.9,16,500.6,16c266.8,0,611.8-5.7,878.4-4c0,0,0.1-1.9,0.3-100.7
		c0.2-124.8,0.2-249.7,0.2-374.5c0-55.1,0.8-713.8,0.8-713.8l-329.2-2.8l3.5-212.2l99.1,2.8c0,0,182.6,3.3,274.2,3.3
		c41.3,0,172.3,1.6,172.3,1.6s2.9,202.1,2.9,257.2c0,103.4,0,206.8,0,310.1c0,192,0,384.1,0,576.1c0,88.7,2.5,177.4,0,266
		c-1.9,66.9,0.4,226.3,0.4,226.3s-177.3-1.5-220.6-1.5c-103.7,0-207.5,0-311.2,0c-192.6,0-385.3,0-577.9,0
		c-177.2,0-377.2,10.3-521.7-23.3c-46.3-10.8-101.1-32.2-146-54.5c-86.3-42.9-186.8-112.1-255-200.4
		c-44.7-57.9-85.6-116.8-105.9-171.1c-15.4-41.3-32-81-34.3-124.2c-5.4-0.5-7.7,6.2-7.7,5.5c-0.7-56.8-16-112.6-16-174.3
		c0-54.9,11.1-90.5,16.5-135.6c3.1-26.1,9.6-80.3,23.5-112.2c30.6-69.9,57.2-119.4,95.7-178.2c93.5-142.8,259.8-248,389.6-289.3
		c112.1-35.7,289.2-39.8,402.3-4.3c60.6,19,112.7,36.2,164.1,70.7c125.3,84,260,206.1,322.1,349.1c15.6,36,29.7,70.7,40.5,103
		c7.8,23.3,16.3,53.3,19.4,100.7c1.3,20,2.1,95.3,2.1,95.3l-230.5-3c-3.5-19.5-24.4-168-29.8-178.5c-24-85.8-88.8-177.5-244-283.9
		c-53.1-25.3-81.8-33.3-81.8-33.3S1134.3,1322.5,1115.8,1321"/>
	<path fill="#67C6BF" d="M2232,2252.5l0.3,49.9c0,0-221.2-0.2-259-0.2c-156.5,0-313.1,0-469.6,0c-167.4,0-386.6,21.3-532-10.6
		c-37-8.1-59.5-21.5-88.8-33.7c-43.1-18-82.7-35.9-123.6-71.5c-90.2-78.5-129.9-170.5-148.8-256.3c-25.8-117.2,7.5-233.6,49.1-313.1
		c18.1-34.7,123.5-168,261.8-212.9c84.9-16.6,193.9-37.7,286.6-1.2c74.6,29.4,148,77.4,206.9,149.5c53.4,65.4,81.4,126.6,85.1,174.6
		c2.4,31,16.5,111,16.5,111l-209.5-1c0,0-11.7-49.8-39-99.5c-80.1-145.7-253.7-169.2-358.4-83.8c-76.4,62.4-102.3,176.8-71.4,257.2
		c16.7,43.4,62.3,120.7,123.3,141c62.3,20.7,123,16.3,193.8,16.3c137,0,274,0,411.1,0c72.1,0,144.2,0,216.3,0
		c55.2,0,229,1.5,229,1.5l0.2-67.5c0-63.7,0-127.5,0-191.2c0-70.8,0-141.7,0-212.5c0-17.1,0-85,0-85l0.5-45.3l-213.7-5.7
		c0,0-4.9-169-3-209.9l0,0l442,4.5c0,0-5.6,120.4-5.6,169.8c0,95.2,0,190.4,0,285.7C2232,1892.5,2232,2072.5,2232,2252.5z"/>
	<path fill="#67C6BF" d="M1723.3,1080.1c-99.1,3.2-438.7,0.3-537.9,0.3 M1185.4,1080.4c-109.3-8.2-211.5-115.7-233.5-226.9
		c-17.3-87.9,6.7-170.1,61.2-229.3c51.7-56.2,139.4-69.2,149.3-113.5c21.7-64.8,66.3-107.5,88.8-127.4c59-52.3,120-80.4,194.5-89.3
		c79.4-9.4,152.8,11.7,213.7,45.1c62.9,34.6,79.6,109.2,123.9,136.8c66,41,153.7,72.6,187.7,145.1c18.5,27,26,98.7,27.1,111.3
		c5.4,60.8-22,148.5-22,148.5s-16.3,27-28.2,47.2c-22.7,38.8-56.2,71.9-89.4,97.6c-36.9,28.4-85.9,54.5-135.1,54.5 M1626.7,609.9
		C1602,550,1544.5,509,1518.8,503.4c-28.8-6.3-72.4-9.3-103.5,0.9c-27.5,9-65.9,38.2-87.1,69.4c-6.4,9.4-15.3,27.7-19.6,41.6
		c-5.9,18.9-9.5,33.7-13,52.7c-3.5,20.5-1.4,34-19.5,46c-22.2,14.7-67.2-4.2-90.1,12.2c-28.8,20.6-40.8,65.9-28.7,102.2
		c9.8,29.1,39,51.9,59.3,57.3c56.9,14.9,157.4-3.7,216.8-3.7c78.8,0,165.7,10.1,244.1,0c74.4-9.6,130.7-68.3,113.6-155.9
		c-5.6-28.7-28.3-68.4-58.5-84.2C1687.2,618.2,1654.4,657.5,1626.7,609.9"/>
	<path fill="#A9DFDB" d="M831,1795.7c-1.4-2.5-1.5-4.9,0.1-7.5C832.5,1790.8,832.6,1793.2,831,1795.7z"/>
</g>
</svg>
