<?xml version="1.0" encoding="utf-8"?>
<!-- Generator: Adobe Illustrator 22.0.0, SVG Export Plug-In . SVG Version: 6.00 Build 0)  -->
<svg version="1.1" baseProfile="tiny" id="Слой_1"
	 xmlns="http://www.w3.org/2000/svg" xmlns:xlink="http://www.w3.org/1999/xlink" x="0px" y="0px" viewBox="0 0 3000 3000"
	 xml:space="preserve">
<g>
	<path fill="#67C6BF" d="M522.2,2721.2c-54.3-53.8-106.1-110.2-158.9-165.5c-26.4-27.7-141.7-119.1-137.9-152
		c4.5-38.3,134.5-129.1,165.1-158.3c62.8-59.9,125-120.4,188.6-179.4c5.1,0.2-3,79.3-3.9,91.1c-1,14.4-8,43.5-4,57.7
		c9.8,34.6-3.8,19.2,29.1,29c19.8,5.9,47.4-1.5,67.8-1.8c82-1.2,164.3-0.2,246.4-0.2c220.6,0.1,450.6-9.8,532.3-261.2
		c6.3-19.5,22.9-60.8,17.2-80.8c-14.2-50.5-62,2.7-107.9,19.6c-56.7,20.9-161.7,53.5-61.7,90c22.7,8.3,31.6-24.3,49,8.8
		c12.6,24.2-10.1,34.8-27,49.2c-25.7,22-68.9,38-103.1,26.3c-19.8-6.8-31.3-31.2-49.3-35.9c-10.1-2.6-30.6,14.3-40.7,10.4
		c-34.6-13.5-46.9-63.2-82.3-61.3c-44.4,2.4-98.1,199-152.8,56.6c-8.6-22.5-13.7-46.8-20.6-62.6c-10-22.9-33.5-18.4-29.4-54.9
		c1.7-14.7,14.8-30.5,24.8-40c47.7-45.1,35.3-10.4,72.7,3.7c32.4-10.6,35.4-74.2,74.7-88.1c42.7-15.1,45.9,13.1,81.2-10.9
		c42.2-28.7,71.5-86.1,116.2-117.6c30.1-21.2,62.4-38.4,96.3-52.4c40.1-16.6,79.9-25.2,121.6-29.1c25.6-2.4,125,17.7,141.8,6.4
		c33.1-22.3-99.5-74.5-127.7-90.4c-48.7-27.6-97.5-62.4-140.6-98.7c-109.4-91.9-177-221.6-203.5-361.7
		C991.2,514.2,1637.6,113.8,2112,363.1c120.2,63.2,231.4,158.6,285.4,285.8c48,113.1,32.6,235.2,8.8,352.8
		c-14.3,70.9-40.2,109.3,1.1,171c30.4,45.3,23.4,48.9,64.7,14.6c22.4-18.6,41.4-52.9,58.2-76.1c30.5-42.2,125.4-176.9,196.1-147.1
		c56.9,24,11.8,55.7-0.6,81.8c-18.1,38.2-44.4-4.3-5.1,49.7c38,52.3,101.2,35,143.4,73.7c32.4,29.7,7.1,31.8,16.2,56.8
		c3.3,9.2,29,16.9,26.8,30.7c-5.4,33.2-36.2,33.8-58,46.8c-53.4,31.9-68.6,44.3-137.8,23c-64.3-19.8-59.3-18.2-87,49.6
		c-62,151.8-152.3,295.2-275.6,404.6c-55.4,49.2-110.3,73-132.3,140.1c-25.6,78-48.7,147.7-95.6,216.7
		c-167.1,245.8-451.3,368.4-734.5,418.2c-149.1,26.2-296.5,19.5-446.7,10.3c-64.1-3.9-127.9-5.9-192-9.9
		c-41.6-2.6-171-35.1-205.2-13.7C513,2560.6,522.2,2678.5,522.2,2721.2z M1828,800.2c-78,36.8-84.1,129-62.6,202
		c16.2,55,55.8,95,77.5,145.8c5.3,12.3,25.5,21.2,26.8,33.3c2.2,20.1-41.7,7.4-37.5,33.5c-9-5.5,147.4-29.5,158.2-38.9
		c17.9-15.6,22.6-127.6,19.2-159.9c-6.6-62.1-32.3-129.2-78-173.2C1898.3,810.6,1863.6,816.3,1828,800.2z M2232.7,1402.1
		c19.2-12.8,64.7-40,71.2-62.9c-1.4-0.8-102,60.2-120.8,63.5c-43.6,7.5-88.7-0.2-125.6-25.6c-15.8-10.9-48.6-36.3-49.9-57.3
		c-0.8-13,43.4-30.1,23.5-49.4c-0.1-0.1-117.5,85.3-118.7,89.5c17.9,14.1,65-28.5,73.4-20.3c0,66.8-7.7,168.5,75.6,197.3
		C2143.5,1565,2208.7,1465,2232.7,1402.1z M2282.3,1104c67.4-38,91.3-118.3,83.6-191.3c-5-47.4-22.6-141.2-84.1-130.5
		C2175.4,800.6,2151.3,1104,2282.3,1104z M1750.7,635.8c-96.9-55-174.1,61.4-131.9,151.8c11.3-1.9,34.2-116.2,50.3-129.9
		C1690.3,639.7,1739.6,648,1750.7,635.8z M2142.5,1090.2c-30.5,12.5,19.6,60.5,17.4,71.5c-2.7,13.2-67.4,45.1-55,60.7
		c26.1-16,58.2-44,88.2-50.2c21.6-4.5,34.1,16.8,45.7,17.4c18.9-36.6-22.2-28.3-38.3-38.6c-8.4-5.4-13.7,9.5-24.2,2.2
		C2161.1,1142.4,2153.4,1106,2142.5,1090.2z M2308,614.2c-32-14.6-125.5,32.1-103.2,71.6c21.2-19.6,43.8-49.3,76-47.8
		c20.5,0.9,43.2,33.7,56.8,31.6C2337.7,647.7,2321.8,629.4,2308,614.2z"/>
	<path fill="#67C6BF" d="M1964.5,1169.9c-37.6-10.4-24.2-77.2-53.4-114.7c-11.8-15.2-38.5-46.9-63.4-41.1
		c-38.7,8.9-17.5,29.2-36.4,49.7c-75.2-40-34.8-320,108.4-191.5C1975,921.8,2045.8,1111.4,1964.5,1169.9z"/>
	<path fill="#67C6BF" d="M2293.8,806.4c96.8,22.5,60.2,280.8-13.5,267.2c-3.9-32.1-15.4-137.2-73.5-79.7
		C2178.2,991.7,2246.4,820.7,2293.8,806.4z"/>
</g>
</svg>
