<?xml version="1.0" encoding="utf-8"?>
<!-- Generator: Adobe Illustrator 22.0.0, SVG Export Plug-In . SVG Version: 6.00 Build 0)  -->
<svg version="1.1" id="Слой_1" xmlns="http://www.w3.org/2000/svg" xmlns:xlink="http://www.w3.org/1999/xlink" x="0px" y="0px"
	 viewBox="0 0 3000 3000" style="enable-background:new 0 0 3000 3000;" xml:space="preserve">
<style type="text/css">
	.st0{fill:#68C6BF;}
</style>
<g>
	<path class="st0" d="M585.5,2210.9c-0.5-31.9-49.2-88-63.7-118.5c-26.1-54.6-47-115.1-62-171.7c-28.9-109.9-30.4-219.1-30.4-332.8
		c0-273.7,0-547.6,0-821.3c0-144.7-65.6-409,113.2-469.7c181.4-61.6,386.8-83.6,572.7-127.6c169.9-40.2,334.3-95.6,509.8-58.3
		c196.1,41.7,387.3,84.9,584.6,129.5c88.3,20,200.9,26.2,281,67.3c51.2,26.2,71.3,67.8,81,121c24.2,132.9,0,295.4,0,430.9
		c0,266.3,5.2,533.2-0.1,799.4c-2.3,113-10.3,227.6-48.7,335.2c-90,252.1-275.9,457.6-488.2,619.7c-99.4,75.9-207.8,140.7-321.9,192
		c-58.7,26.4-147.9,94-212.8,95.3c-69.1,1.4-157.5-67-219.4-97.7C1003,2665.7,760.5,2466.6,585.5,2210.9z M1367.1,203
		c-69.8,45.5-197.1,54-278.3,73.4c-90.6,21.7-181.4,40.9-272.3,61.1c-90.5,20-256.5,27-289.5,126c-39,117.4-2.5,316.8-3,438.4
		c-0.6,170.6-3,343.2,0.9,514.3c3,134.3-13.4,273.7-0.1,407.4c19.3,191.9,157,393.2,295.3,528.7
		c115.1,112.7,244.2,206.7,382.5,289.1c101,60.1,245.6,175.8,364.4,126.9c275.4-113.3,524-301,726.8-516.2
		c118.6-126,182.2-332.2,189.6-505c14.6-341.2-6.7-685-0.1-1025.8c1.4-73.8,11.2-156,1-229.1c-11.7-84.7-51.2-93.4-128.3-112.7
		c-118.1-29.4-237.1-52.6-355.4-80.5c-102.3-24.1-202.9-50.8-303.6-77.9c-44.7-12-91.5-23.6-135.5-31.3
		C1490.4,177.1,1437.8,203,1367.1,203z"/>
	<path class="st0" d="M1527.2,2738.1c-35.1,72-550.9-311.8-619.1-375C730,2197.5,599.4,1990.8,579,1746.3
		c-24.2-290.1-9.3-588.4-8.1-876.9c0.4-86.3-37.4-375.1,32.8-425.7c24.2-17.5,79.6-19.1,107.8-24.1c44.9-8,88.7-21.5,133.3-33.6
		c97.3-26.2,197.3-37.6,297.9-60.8c106.2-24.5,209.7-61.6,316.2-70.1c178.1-14.1,360.6,67.3,530.9,97.5
		c101.1,17.9,199.6,45.8,300.6,70.3c40.2,9.8,110.1-1.6,136.9,40.8c29.7,47,9.1,163.5,8.6,222.9c-2.3,315.4-7.1,589-1.9,900.7
		c2,121.2,7.6,229.6-27.6,344.8c-30.4,99.5-85.2,195.5-148,278.4C2073.8,2454.5,1791.2,2599.3,1527.2,2738.1z M1519.6,1969.4
		c190.1,0,397.9-21.3,573.1-100c215.6-96.9,335.8-368.5,100.2-526.2c-90.4-60.5-216-50.2-303.8-109
		c-75.9-50.9-58.5-175.9-100.8-250.7c-132.2-233.8-483-204.9-580.6,42.8c-43.2,109.7-21.2,194.2-154.9,232.8
		c-102,29.5-208.7,53.4-282.1,136.5c-164.1,185.9-23.6,394.3,169.2,479c88.3,38.8,186.8,59.9,282.1,73.6
		c58.8,8.5,195.8-6,239.3,30.3c31.7,26.4,21.3,83.4,22.1,122.4c1.6,85.5,2.4,172,0,257.4c-2.2,77.8-0.8,162.6-13.1,239.3
		c-15.8,98.3-46.8,17.6-107.6,32.1c-45.4,10.8,37.8,45.8,58.5,56c38,18.6,58.5,37.6,77.6,3.5c11.5-20.8,1.3-90.9,3-119.6
		c6.7-111.5,6-225.8,6-338.1C1508,2186.7,1480.1,1996.1,1519.6,1969.4z M2330.3,1806.8c4.2,77.9-62.5,187.9-96.7,257.3
		c-37.8,76.4-84.3,149.2-141.1,212.9c-62.4,70.1-132.8,126.5-200.6,185.2c-22.1,19.1-134.3,114.9-134.6,114.8
		c84.1,0,224.3-134.7,290.6-188.2c104.3-84.3,191-179.2,256-291c54-92.9,77.7-184.6,96.3-274.2c4.9-23.7,27.5-307.5-1-306.1
		C2330.6,1572.6,2386.2,1739,2330.3,1806.8z M642.4,925.1c-10.4-54,9.3-131,13.4-185.4c4.6-58.5,6.2-128.6,44.2-176.4
		c49.8-62.4,148.1-83.3,219.5-110.5c22.9-8.7,186.7-55,194.8-76.9c-61.7-20.2-163.5,28.1-229.3,41.3
		c-68.1,13.6-137.6,23.4-205.9,40.9c-105.6,27-74.6,126.4-72.6,221.3c0.6,32.3,5.6,380.3,14.4,379.1
		C621.4,1020.5,629.5,961.2,642.4,925.1z M1511.7,616.4c-26.9-33.2-3.9-174-3.8-217.7c0-21.4,10.1-68.6,0.3-87.1
		c-18.9-35.5-180.3-24.7-172.6,19.4c98.6,12.8,141.4-2,145.4,122c2.5,80.1-14.3,197.4,16.9,269.3
		C1519.6,697.5,1497,648.3,1511.7,616.4z"/>
	<path class="st0" d="M1136.7,1447.5c29.7,36,8.4,75.9,65,96.4c51.8,18.8,101.4-7.9,123.2-55.3c21.7-47,16.2-114.8,23.1-165.8
		c15.6-114.8,12.7-367.4,200.7-307.2c123.6,39.5,102.3,230.7,115.2,335.5c7.2,59.3,1.5,153.3,59.2,187.2
		c83,48.7,126.7-29.8,146.6-93.9c71.7,15.8,222.2,25.2,254.5,101.4c37.5,88.2-86.4,142.1-152.3,165.9
		c-147.4,53.5-308.3,65.6-463.3,62.5c-139-2.8-274-8.6-409.2-46.9c-66.3-18.8-233.6-69.4-208.7-168
		C911.6,1475.4,1071,1460.4,1136.7,1447.5z"/>
</g>
</svg>
