<?xml version="1.0" encoding="utf-8"?>
<!-- Generator: Adobe Illustrator 22.0.0, SVG Export Plug-In . SVG Version: 6.00 Build 0)  -->
<svg version="1.1" baseProfile="tiny" id="Слой_1"
	 xmlns="http://www.w3.org/2000/svg" xmlns:xlink="http://www.w3.org/1999/xlink" x="0px" y="0px" viewBox="0 0 3000 3000"
	 xml:space="preserve">
<g>
	<path fill="#67C6BF" d="M1764,562.7l-6.1,1872.8c-265.1,29.7-530.8,86.8-793.7,132.7c-113.3,19.8-226.7,39.1-340.2,57.9
		c-44.1,7.3-213.8,31.1-213.8,31.1s0-154.9,0-178.3c0-59.4,0-118.9,0-178.3c0-126.3,0-252.6,0-378.9c0-497.7,0-995.3,0-1493
		l1.8-82.7l158.1,16.9c59.2,10.1,118.6,19.9,177.8,30.1c241.5,41.9,483.4,81.7,724.9,122.4c73.6,12.4,147,25.9,220.6,37.8
		C1704.1,554.9,1764,562.7,1764,562.7 M1130,1355.8c-161.2,6.8-304.4,56.5-322.3,237.9c-17.4,175.8,96.3,270.2,267,262.4
		c47.8-2.2,191.9,0,191.9,0s0-44.8,0-113.1c0-144.8,0-290-0.4-435.1c-0.1-45.8-0.1-91.5,0-137.2c0.2-56-0.8-76.5-0.8-76.5h-134.2
		C1131.1,1094.1,1130,1305.9,1130,1355.8z"/>
	<path fill="#68C6BF" d="M2423.7,1018.9V897.4l0,0l-105.2-1.9c-60.9-0.1-121.8-1.4-182.6-1.4c-68.6-0.1-137.1,1.8-205.7,1.8
		c-78.2,0-115.9,1.2-115.9,1.2V762.9c0,0,105.4,1,129.9,1.1c50.2,0.1,101.5-1.2,152.2-1.1c106.3,0.3,212.3,1.5,318.4,1.1
		c45.2-0.2,89.6-0.5,135.2,0c72.1,0.7,60.2,16.5,59.8,90.5c-0.7,111.5-2.4,223.2-0.6,334.6c3.6,224.2-0.2,449-1.1,673.2
		c-0.2,58.9,0.1,118,1,176.8c0.2,9.3-2.1,80.2-2.1,80.2s-143.9,0.9-168.8,0.9c-163.9,0.2-327.8-0.1-491.7-0.1
		c-18.9,0-131.7,0-131.7,0s-7.4-129-2.9-156.7c19-16.9,96,41,124,17.5c14.1-11.8,0-136.2,0-157.5c0-26.8-16.2-138.4,0-157.5
		c13.4-15.8,116.6-1.9,134.1-1.9c21.8,0,157.1,14.5,168.4,0c0,0,1.1-29.2,1.1-41.8c0-180.7-175.2-258.1-175.2-258.1
		c-41.5-17.8-99.3-20.9-144.3-18.6c-22.6,1.2-103,20.1-103,20.1v-85c51.6-0.5,179-2.4,230.7-2.5c57.4-0.1,114.8,1.7,172.2,1.7
		c33.5,0,179.3,20.7,203-1.7c3.7-3.5,4.1-120.4,0.5-124.7L2247,1147l-235-1h-197.6v-124l0,0c0,0,178-0.1,229.7-0.1
		c73.9,0,147.9,0,221.8,0L2423.7,1018.9z M1997.7,1774.3c4,55.1,84,60.1,90.1,4C2093.9,1721.3,1993.5,1713.1,1997.7,1774.3z
		 M2134.7,1948.3c53.5-3.6,62.6-78.7,7.7-88.6C2081.4,1848.9,2075.7,1938.1,2134.7,1948.3z M2190,2014.9c0,44.6,53.8,79.2,83.1,33.3
		C2306.4,1996,2218.1,1947.9,2190,2014.9z"/>
	<path fill="#68C6BF" d="M2672,1093.1h49.3c0,104.1,0.6,297.1,0.6,401.2c0,193.4,0,386.8,0,580.2l2.3,179.5l-87.3-0.1
		c-88.6,0-177.2,0.1-265.8,0.1c-94.1,0-188.2,0-282.3,0c-39.1,0-271.5,0-271.5,0c0.3,0.3,0.7-67.1,0.7-67.1s110.7,1,128.8,1
		c85.2,0,170.4,0,255.5,0c99.3,0,198.6,0,297.9,0c36.3,0,171.8-2,171.8-2l-0.1-74.3C2671.6,1772.2,2672,1432.7,2672,1093.1z"/>
	<path fill="#68C6BF" d="M2027.7,1588.1c-49.2-27.2-34-108.5,26.8-84.1C2110.1,1526.3,2078.6,1588.1,2027.7,1588.1z"/>
	<path fill="#68C6BF" d="M1129.6,1719.6c0,0-166.9,12.2-166.2-106c0.4-70,15.3-135,167.7-135L1129.6,1719.6z"/>
</g>
</svg>
