<?xml version="1.0" encoding="utf-8"?>
<!-- Generator: Adobe Illustrator 22.0.0, SVG Export Plug-In . SVG Version: 6.00 Build 0)  -->
<svg version="1.1" baseProfile="tiny" id="Слой_1"
	 xmlns="http://www.w3.org/2000/svg" xmlns:xlink="http://www.w3.org/1999/xlink" x="0px" y="0px" viewBox="0 0 3000 3000"
	 xml:space="preserve">
<g>
	<path fill="#67C6BF" d="M412.1,1495.5c0-476.2,319.2-907.1,776.3-1043.6c407-121.5,865.1,10.3,1141.5,335.2
		c313.6,368.6,346.9,918.2,74.5,1319.3c-237.2,349.2-656.2,526.7-1071.3,466c-256.8-37.6-495.9-173.4-663.7-370.9
		c-95.4-112.2-168.4-245.2-210.8-386.3C452.3,1794.5,390.5,1495.5,412.1,1495.5z M2513.9,1495.9c11.8,0-20.6-208-23.9-222.9
		c-26.8-119.8-75.3-235.5-143.5-337.6c-124.8-186.8-307.1-328.3-520.3-400.3c-381.9-129-813.9-15.5-1083.1,285.5
		c-259.5,290-325.7,711.9-177.3,1069.5c168.9,406.6,605.9,663.4,1042.8,613.8C2118.8,2446,2513.9,2010.2,2513.9,1495.9z"/>
	<path fill="#67C6BF" d="M1500.5,2444c-419.8,0-799.1-285.6-913-691.2c-101.3-360.6,25.2-762.3,319.2-996.5
		c329-262.1,803.4-277.5,1146.2-32c304.4,218,449.5,599.2,376.8,964c-45.5,228-178.7,435.2-366.5,572.3
		c-93.6,68.3-197.1,119.8-309.1,149.9C1736,2415.2,1500.5,2458.3,1500.5,2444z M1220,1414.3c0-42.9,14.6-112.3-10.6-150.9
		c-36.3-55.5-113.4-36.5-133.3,21.3c-20.9,60.6-6.1,144.6-6.1,207.8c0,54.9-2.4,109.8-3.8,164.7c-3.6,132,15.7,292.8,90.8,404.9
		c177.3,265,646.4,198.1,751-99.6c46.2-131.7,91.4-264.8,138-396c20.7-58.3,52.4-144.9-38.6-161.7
		c-107.2-19.9-150.9,185.5-180.2,258.9c-11.1,27.9-39.7,108.5-57.1,40.3c-9-35.2,0-85.6,0-122.7c0-45.4,0-90.8,0-136.2
		c0-61.3,34.8-325.7-104.9-263.2c-44.7,20-43.3,58.6-41.2,99.8c1.3,24.8,8.5,164.8-37.8,103.9c-13.2-17.3,3.8-141,3.8-161.7
		c0-65.9-1.7-131.8-1.8-197.6c0-58.9,28.3-203.6-27.9-239.8c-38-24.4-100.6-11-117.3,33.6c-22,58.9-2.9,154.5-2.9,217.8
		c0,92.1,0,184.2,0,276.3c0,15,13,94.3-23.5,83.4c-22.9-6.8-10.5-76.4-10.5-92.9c0-53,7.7-125.2-64.3-136
		c-49.6-7.4-79.4,30.9-85.9,74.7c-6.2,42.3,0.1,91.3,0.1,134.2C1256.1,1396.5,1245.3,1463,1220,1414.3z"/>
</g>
</svg>
