<?xml version="1.0" encoding="utf-8"?>
<!-- Generator: Adobe Illustrator 22.0.0, SVG Export Plug-In . SVG Version: 6.00 Build 0)  -->
<svg version="1.1" xmlns="http://www.w3.org/2000/svg" xmlns:xlink="http://www.w3.org/1999/xlink" x="0px" y="0px"
	 viewBox="0 0 3000 3000" style="enable-background:new 0 0 3000 3000;" xml:space="preserve">
<style type="text/css">
	.st0{fill:#68C6BF;}
	.st1{opacity:0.8;fill:#68C6BF;}
	.st2{opacity:0.6;fill:#68C6BF;}
	.st3{opacity:0.3;fill:#68C6BF;}
	.st4{opacity:0.6;fill:url(#SVGID_1_);}
</style>
<g id="Слой_3">
	<g>
		<path class="st0" d="M173,1740.1c43.1,66.3,93.3,127.9,148.8,184.3c-50.5-64.5-95.7-133.3-134.8-205.3
			C182.4,1726.1,177.7,1733.1,173,1740.1z"/>
		<path class="st0" d="M2678.2,1924.4c37-37.6,167.7-157.1,134.8-205.3C2773.9,1791.1,2728.7,1859.9,2678.2,1924.4z"/>
		<path class="st0" d="M1500,1101.2c493.9,0,1025.9,197.5,1313,617.9c43.9-80.8-166.4-300.7-222.3-360.2
			c21.2-10.6,203.2-152.8,181.9-174.1c-11.4-11.4-121.3,74.5-132,81.6c-19.4,12.9-57.9,48.9-81.5,49.7
			c-25.9,0.9-97.6-79.5-120.5-97.9c64.1-34.5,126.6-82.2,171.1-140.3c10.3-13.4,72.4-108.8,49.6-122.2
			c-13.1-7.7-105,99.1-113.1,107.1c-17.3,17.1-130.9,136.8-156.3,118c81.9-53.9,154.3-122.5,212.9-201
			c12.5-16.7,107.3-159.8,75.9-178.1c-18.3-10.7-155.9,193.9-169.9,209c-30.5,33.1-63.7,64.1-99.4,91.6
			c-13.4,10.4-49,44.8-66.1,45.6c-21.1,0.9-81.9-52.1-102-63.5c26.8-13.6,291.6-204.5,273.7-222.4c-33.6-33.6-285.4,213.7-351.6,181
			c22-21.8,40.3-53.5,64-72.6c31.7-25.6,82.9-37,118.4-58.2c28.7-17,79.1-42.2,94.8-71.8c17.2-32.5,11.2-22.8-22.4-16.1
			c-43.4,8.6-90,38-129.2,58.2c12.3-19.1,58.2-72,58.1-96.2c0,7.6-98.8,82-110.4,93.8c-49.1,50.3-152.5,124.6-225.4,98.3
			c20.5-12.7,187.1-160,164.7-182.4c-19.2-19.2-199.6,169.6-242.5,156.7c24.5-30.6,41.9-68.2,69.6-94.7c31.4-29.9,70.1-53,102-83.1
			c40.3-38,93.5-95.3,105.2-152.3c10.3-50.5-13.5-19.8-39.6,6c-43.9,43.6-83,92.6-130,133c5.5-13.8,22.9-81.3,9.4-91.8
			c-17.2-13.4-35.5,36-42.7,49.3c-17,31.6-29.7,75.5-52,103.5c-26.6,33.5-81.7,57.5-118.4,79c14.5-18,145.9-211.2,125.2-223.3
			c-14.7-8.6-94.6,101.5-103,111.9c-22,27.2-43.7,54.6-65.9,81.7c-38.4,47-51.7,35.4-113.4,28c13.7-10.2,150.6-170.6,125.6-185.3
			c-14-8.2-81.1,72.9-88.1,80c-42.2,42.8-90.1,98.6-152.7,96c63.5-66.7,122.7-147.8,156.1-234.2c5.7-14.8,47.1-146.2,24.3-152.5
			c-15.9-4.4-98.8,166-107.3,180.5c-27.8,47.4-56.5,94.9-89.6,138.9c-12.3,16.4-28.1,44-45.8,55c-27.3,16.9-60.8,11.6-94.4,13.6
			c9-16,66.2-131.6,44.3-144.4c-11-6.4-55.6,66.5-59.5,72.2c-9.7,14.5-20.1,37.7-32.3,50.3c-29.3,30.3-36.3,28.5-83.5,35.5
			c11.7-14.9,196.1-293.2,138.8-308.9c-24.1-6.6-93.4,146.7-104.7,165.6c-26,43.9-56.8,99.5-94.7,134.6
			c-40.7,37.7-92.6,38.6-147.5,54.9c10-12.3,87.3-164,65.9-169.9c-19-5.2-71,86-78.5,96.6c-42.6,59.8-77.9,101.5-146.7,130.9
			c17.6-46.1,18.4-139.3-29.2-54.8c-14.2,25.2-23.1,66.8-42.8,87.8c-32.4,34.5-108.6,58.2-149.9,84.8c7.1-13,62.2-154.4,41.5-160.1
			c-18.2-5-71.6,106.3-78.4,118c-41.8,72-75.2,118.9-137.9,173.9c11.1-41.8-3.3-58.1-30.9-34.7c-31.2,26.5-38.2,91.3-63.1,124.6
			c-43.6,58.3-97.1,108.8-139.5,168.7c-33.7,47.5-122,147.4-92.6,201.6C474.1,1298.7,1006.1,1101.2,1500,1101.2z M2117.2,1014.7
			C2112.1,1019.5,2103.5,1019.6,2117.2,1014.7z"/>
		<path class="st0" d="M1500,2379.1c-428.1,0-873.3-145.1-1178.2-454.7c588.2,751.1,1768.2,751.1,2356.4,0
			C2373.3,2234,1928.1,2379.1,1500,2379.1z"/>
		<path class="st0" d="M1500,1147.9c-270.6,0-510.7,198.2-561.2,464.1c-43.7,230.2,61.3,469.3,260.3,592.8
			c426.5,264.8,975.6-136.5,855.5-622.9C1992.5,1329.9,1759.3,1147.9,1500,1147.9z M1500,2247.8c-374.5,0-636-397.9-483.8-741.6
			c168.3-380.2,710.8-420.2,932-67.5c-26.6,15.4-53.3,30.7-79.9,46.1c-53,30.6-41.8,10.5-83.7-33.9
			c-93.1-98.7-234.1-142.6-366.8-114.1c-269.6,57.8-396,383.2-237.2,607.9c145.6,206,455.8,219.5,618.6,26.5
			c83.1-98.6,112.4-235.1,77.1-359.2c-17.3-60.8-44.9-64.1,10.2-95.9c26.6-15.4,53.3-30.7,79.9-46.1
			C2152.1,1816.7,1891.5,2247.8,1500,2247.8z M1500,1765.7c42,0,30.3-33.5,46.1-53.2c7.9-9.8,31.3-18.1,41.8-24.1
			c36.9-21.3,73.7-42.6,110.6-63.9c111.6,233.8-220.4,432.1-374.5,225.9c-171.8-229.9,190.7-493.9,356.2-257.2
			c-41.4,23.9-92.8,69.1-138.7,80.1c-20,4.8-39.3-6-59.7,2.8C1437.1,1695.6,1450,1765.7,1500,1765.7z M1500,1481.6
			c-307.9,0-305.1,475.1,0,475.1c120.7,0,224.9-94.4,236.4-214.7c3.5-36.2-12.7-68.3-12.5-102.2c0.3-55.2-17.9-4.1,9.6-35.5
			c19-21.6,62.9-36.3,88.3-51c88.5,171.5,22.3,388.3-145.6,482c-161.1,89.9-370.6,40.5-474.7-111.7
			c-108.5-158.8-71.5-381.5,83.8-495.6c165.9-121.9,406.1-78.6,518.3,94c-21.8,12.6-81.9,63.5-105.5,60.9
			c-15.3-1.7-46.2-47.4-64.6-59.9C1594.1,1496.3,1547.8,1481.6,1500,1481.6z"/>
	</g>
</g>
<g id="Слой_5">
	<path class="st1" d="M1989.9,1766.8c-0.8-16.8-13.6-31-31-31c-16.2,0-31.7,14.3-31,31c0.8,16.8,13.6,31,31,31
		C1975.1,1797.8,1990.6,1783.6,1989.9,1766.8z"/>
	<path class="st2" d="M1717.8,1937.9c-0.7-15.7-12.7-29-29-29c-15.2,0-29.7,13.3-29,29c0.7,15.7,12.7,29,29,29
		C1704,1966.9,1718.5,1953.5,1717.8,1937.9z"/>
	<path class="st3" d="M1210.8,2063.9c-0.7-15.7-12.7-29-29-29c-15.2,0-29.7,13.3-29,29c0.7,15.7,12.7,29,29,29
		C1197,2092.9,1211.5,2079.5,1210.8,2063.9z"/>
	<path class="st0" d="M1741.8,1721.8c-0.7-15.7-12.7-29-29-29c-15.2,0-29.7,13.3-29,29c0.7,15.7,12.7,29,29,29
		C1728,1750.8,1742.5,1737.5,1741.8,1721.8z"/>
</g>
<g id="Слой_4">
	<linearGradient id="SVGID_1_" gradientUnits="userSpaceOnUse" x1="1539.1816" y1="1847.537" x2="1259.903" y2="1835.6528">
		<stop  offset="0" style="stop-color:#68C6BF"/>
		<stop  offset="0.5516" style="stop-color:#C0E7E4;stop-opacity:0"/>
	</linearGradient>
	<path class="st4" d="M1951.6,1444.4c-25.4,40.2-102.4,61.3-142.1,86c-51.5,32-101.6,65.7-153.8,96.8
		c-76.2,45.4-150.9,92.8-210.6,155.2c-81.9,85.6-130.5,183.8-185.1,287.1c-13.1,24.7-31.9,48.9-36.6,77.1
		c-6.9,41.1,0.8,37,39.2,57.8c54.5,29.4,114.3,48.6,175.7,57.1C1880.2,2323.3,2201.9,1818.2,1951.6,1444.4z"/>
</g>
</svg>
