<?xml version="1.0" encoding="utf-8"?>
<!-- Generator: Adobe Illustrator 22.0.0, SVG Export Plug-In . SVG Version: 6.00 Build 0)  -->
<svg version="1.1" baseProfile="tiny" id="Слой_1"
	 xmlns="http://www.w3.org/2000/svg" xmlns:xlink="http://www.w3.org/1999/xlink" x="0px" y="0px" viewBox="0 0 3000 3000"
	 xml:space="preserve">
<g>
	<path fill="#67C6BF" d="M320.9,2667.6c-13.1-13.9-2.7-92.3-2.7-114.8c0-46.7,0-93.3,0-140c0-102.6,0-205.3,0-307.9
		c0-186.6,0-373.2,0-559.8c0-382.6,0-765.2,0-1147.8c0-70.1,3.8-59.9,62.8-49.4c32.2,5.8,64,13.1,96.3,17.8
		c73,10.6,145.3,26,218.2,37.9c134.1,21.9,267.9,47.3,402.1,68.3c137.1,21.4,275.1,48,412.8,71.4c27.4,4.6,54.4,10.5,81.8,14.6
		c25.5,3.8,98,3.1,113.5,23c14.9,19.1,0,117.2,0,139.7c0,46.6,0,93.1,0,139.7c0,93.1,0,186.2,0,279.3c0,381.8,0,763.5,0,1145.3
		c0,23,15,120,0,139.7c-9.2,12.1-48.6,12.8-63.1,15.2c-40.5,6.8-81.4,13.3-122,20.2c-79.5,13.6-159,28.5-238.8,41.9
		c-145.2,24.4-289.7,54.1-435.3,76c-79,11.8-157.7,27.3-236.8,41c-41.4,7.1-83.1,13.6-124.7,21
		C437.5,2648.5,368.3,2673.7,320.9,2667.6z M748.3,1929.7c0-106.5,35.9-225.8,54.3-330.9c7.4-42.3,14.7-84.4,21.4-126.7
		c3.8-24,8.1-129.7,28.4-142.2c18.4,17.5,20.9,102.4,25.5,128.1c10.2,56.5,20.9,112.6,31.5,168.9c8.7,46.4,15.6,93.1,24.7,139.4
		c7.6,38.6,10.3,130.8,41.6,143.6c15.7,6.5,130.4,7.6,139.6-2.8c13.1-14.7,12.4-59.7,16.4-79.2c10.1-48.7,20.9-97.3,30-146.1
		c10.1-54.1,21.8-107.7,33-161.5c5.6-27.2,16.8-158,40.5-170c18.3,60.1,21.2,129.4,31.3,191.5c10.7,65.5,21.2,130.9,31.9,196.5
		c3.8,23.6,8.2,47.1,12.2,70.8c2.3,13.5,4.3,26.9,7.1,40.4c9.6,46.9,38.1,32.6,82.1,32.6c54.6,0,53.9,7.8,43.7-42.8
		c-6.8-34.1-13.1-68.3-19.4-102.6c-24.6-131.9-48.8-264.3-74.6-395.8c-6.9-35.5-14.9-70.9-21.7-106.6c-4.3-22.6-4.1-87.5-19.9-103.4
		c-14.2-14.3-80.6-8.1-101.7-8.6c-55-1.4-46.3,24-56.6,73.5c-8.5,40.8-112.9,464-109.1,465.8c-25.4-114.1-46.2-230.6-66.9-345.7
		c-9.2-51.4-21.4-102.6-31.1-153.9c-2.3-12.2-3.8-58.7-14.1-67.4c-14.1-11.9-152.8-5.6-162.8,5.1c-19.3,20.7-21.7,109.1-28.2,138.8
		c-11.4,52.9-23.1,106-34.5,159.1c-19.7,91.9-38.5,183.8-58.8,275.5c-12.9,58.1-24.7,116.3-37.1,174.6
		c-3.2,15.1-24.6,69.4-18.1,81.9C596.7,1943.9,738,1946.9,748.3,1929.7z"/>
	<path fill="#68C6BF" d="M2481.8,1404c0-16.2,8.9-71.2,0-83.1c-9.2-12.3-68.2-2.7-84.5-2.7c-81.7,0-163.3,0-245,0
		c-72.6,0-145.2,0-217.9,0c-36.3,0-72.6,0-109,0c-17.3,0-37,1.6-54.5,0c-46.8-4.3-21.6,7.9-32.8-29.5c-6.6-22.1-6.8-75.1,0-97.1
		c12-38.7,9.8-27.6,57.8-27.6c81.9,0,163.8,0,245.8,0c72.8,0,145.6,0,218.4,0c36.4,0,72.8,0,109.2,0c19.6,0,100.2,11.2,111.8-2.2
		c5.1-5.9,1.2-42.3,1.2-48.8c0-42.3,5.8-26.7-30.5-36.8c-30.8-8.6-76.9,0-109.3,0c-45.5,0-91.1,0-136.6,0c-72.8,0-145.7,0-218.5,0
		c-36.4,0-72.8,0-109.2,0c-30.5,0-95.5,12.2-122.9,0c-26.2-11.7-16.9-29.1-16.9-64c0-18.1-10.3-77.2,3.8-90
		c12.5-11.3,90.2,0,109.3,0c40.9,0,81.9,0,122.8,0c154.4,0,308.8,0,463.3,0c49.8,0,44.3,5.8,44.3-44.1c0-44.9,6.9-33.6-24.3-42.2
		c-64.7-18-161.3,0-228.9,0c-150.7,0-308.2,13-458.3,0c-44.4-3.9-32.2-12.5-32.2-55.9c0-34,0-68,0-102c0-22.2-9.2-67.8,8.6-81.1
		c16.4-12.4,73.7-0.8,94.2-0.8c156.7,0,313.4,0,470.1,0c73.8,0,147.6,0,221.4,0c31.1,0,152.9-17,171.2,5.2
		c5.6,6.8,0.2,41.3,0.2,49.6c0.2,94.1,0.2,188.3,0.2,282.4c0.1,299.5,0.1,599,0,898.5c0,126.5-0.1,252.9-0.2,379.4
		c0,39.5-0.1,78.9-0.1,118.4c0,7.8,5.5,44.2-0.2,50.6c-13.2,15-99.8,2-121.4,2c-83.1,0-166.2,0-249.3,0c-152.4,0-304.7,0-457.1,0
		c-25,0-101.8,13.2-124.7,0c-21.1-12.1-7.7,13.9-12.8-31.8c-4-35.1,0-73.1,0-108.5c0-19.6-10.8-97.8,2.5-111.2
		c10.6-10.7,83-2.6,98.1-2.6c36.4,0,72.9,0,109.3,0c82,0,163.9,0,245.9,0c72.9,0,145.7,0,218.6,0c15.3,0,41.2,6.4,54.7,0
		c30.9-14.8,1.3,15.1,14.9-16.3c4.4-10.1,4.5-43.7,0-53.7c-10.2-22.7-12-16.1-43.7-16.1c-150,0-300,0-449.9,0
		c-36.4,0-72.7,0-109.1,0c-32.6,0-94.4,12-122.8,0c-27.5-11.7-18.3-33.1-18.3-67c0-13.5-7.3-76.1,2.1-86
		c16.7-17.5,139.8-0.9,165.9-1c81.8,0,163.5,0,245.3,0c72.7,0,145.4,0,218,0c17.7,0,98.3,10.8,109,0c5.4-5.4,9.7-80.6,3.2-87.2
		c-6.9-7-63-0.7-69.6-0.7c-36.7,0-73.3,0-110,0c-82.5,0-165,0-247.5,0c-73.3,0-146.7,0-220,0c-21.5,0-78.4,11.5-93.8,0
		c-12.4-9.3-2.6-84.3-2.6-101.7c0-50.8-9-40.6,32.6-52.5c30.4-8.7,76.8,0,108.8,0c81.6,0,163.3,0,244.9,0c72.6,0,145.2,0,217.8,0
		c34.7,0,74.7,5.5,108.9,0c37.3-6,30.8-2.9,30.8-43.9c-0.1-63.7-19-42.1-85.2-42.1c-77.1,0-154.3,0-231.4,0c-72.6,0-145.2,0-217.8,0
		c-36.3,0-72.6,0-108.9,0c-34.9,0-88,13.9-100.5-16.8c-8.9-21.9,0-74,0-97.9c0-47.5-1.4-41.2,46.3-41.2c77.3,0,154.6,0,231.9,0
		C2171.6,1404,2326.7,1404,2481.8,1404z"/>
</g>
</svg>
