<?xml version="1.0" encoding="utf-8"?>
<!-- Generator: Adobe Illustrator 22.0.0, SVG Export Plug-In . SVG Version: 6.00 Build 0)  -->
<svg version="1.1" xmlns="http://www.w3.org/2000/svg" xmlns:xlink="http://www.w3.org/1999/xlink" x="0px" y="0px"
	 viewBox="0 0 3000 3000" style="enable-background:new 0 0 3000 3000;" xml:space="preserve">
<style type="text/css">
	.st0{fill:#68C6BF;}
</style>
<g id="Слой_3">
	<g>
		<polygon class="st0" points="2487.6,1454.3 2789,1628.3 2789,1101.5 2487.6,1275.5 		"/>
		<polygon class="st0" points="512.4,1013.5 211,839.5 211,1891.8 512.4,1717.8 		"/>
		<polygon class="st0" points="2487.6,1631.2 2178.1,1452.5 1800.8,1670.3 2335.4,2596.3 2683.4,2596.3 2246.9,1840.1 
			2637.8,2065.8 2788.4,1804.8 2789,1804.8 2789,1802.3 2487.6,1628.3 		"/>
		<polygon class="st0" points="766.3,2596.3 1133.3,2596.3 1580,1797.8 1051,2103.2 		"/>
		<polygon class="st0" points="2638.3,664.7 1726,1191.4 361.7,403.7 211,664.7 211,665.5 512.4,839.5 512.4,838.7 1424.7,1365.4 
			512.4,1892.1 512.4,1891.8 212.1,2065.2 212.6,2065.2 211.6,2065.8 362.2,2326.8 1201.7,1842.1 1201.7,1842.3 1723.8,1540.8 
			1723.9,1540.6 1725.5,1539.7 1725.5,1539.8 2027.5,1365.5 2027.4,1365.4 2487.6,1099.7 2487.6,1101.5 2789,927.5 2789,925.7 		"/>
	</g>
</g>
<g id="Слой_2">
</g>
</svg>
