<?xml version="1.0" encoding="utf-8"?>
<!-- Generator: Adobe Illustrator 22.0.0, SVG Export Plug-In . SVG Version: 6.00 Build 0)  -->
<svg version="1.1" id="Слой_1" xmlns="http://www.w3.org/2000/svg" xmlns:xlink="http://www.w3.org/1999/xlink" x="0px" y="0px"
	 viewBox="0 0 3000 3000" style="enable-background:new 0 0 3000 3000;" xml:space="preserve">
<style type="text/css">
	.st0{fill:#68C6BF;}
</style>
<g>
	<path class="st0" d="M1502.8,332.1c529.5,0,1004.9,375.3,1121.2,894.6c99.5,444.2-78.5,919.4-448.7,1186.7
		c-361.6,261.1-863.3,287.3-1248.7,61.5c-419.4-245.8-635-728.6-552.9-1204.1c48.1-278.8,207.9-530.6,430-703.4
		c113.9-88.6,249.5-156.1,388.9-193.4C1208.5,369.8,1502.8,313.1,1502.8,332.1z M1036.8,2431.7c51.6,6.1,111,47,162.7,62.7
		c46,14,92.5,26.1,140,33.2c98,14.8,198.4,18.6,296.9,6c201.1-25.7,391-108,547.7-236.9c299.6-246.3,431.7-644.3,360.2-1021.6
		c-89.2-470.7-508.1-814-977.7-845.9C1082.9,396.5,634.2,727.4,494.3,1186c-70.6,231.5-51.8,487.4,40.8,710.1
		c42.5,102.2,103.7,196.6,175.8,280.1c37.3,43.2,78,83.2,121.8,120c32,26.9,65.9,51.7,101,74.3
		C962.9,2389.3,1014.9,2405.6,1036.8,2431.7z"/>
	<path class="st0" d="M1837.3,2000c-17-0.1-84.2,10-97.1-1.6c9.1-25.7,58.6-60.2,77.7-79.4c36.5-36.5,73.1-73.1,109.6-109.6
		c69.8-69.8,139.5-139.5,209.3-209.3c33.2-33.2,66.4-66.4,99.7-99.6c41.6-41.5,41.4-36,0.7-76.7c-25.5-25.5-56.8-50.3-78.8-78.8
		c-24.2-31.4-16.9-5.2-22-47.9c-2.9-24.9,0-51.9,0-76.9c33.4,19.4,64.4,63.2,91.8,90.7c36.3,36.3,72.7,72.7,109,109
		c9.9,9.9,38.9,31.4,36.8,45c-1.9,12.1-33.1,34.8-41.3,43.3c-31.2,32.4-63.7,63.8-95.5,95.6c-65.6,65.7-131.3,131.2-197,196.8
		c-32.1,32.1-64.2,64.2-96.3,96.3C1916.2,1924.6,1874,1987,1837.3,2000z"/>
	<path class="st0" d="M875,1169.8c-16-20-0.9-115.2-0.9-142.5c-0.1-23.5-15-159-0.4-170.5c15.3-12,58.1-1.6,78.3-1.2
		c51.1,1.1,102.3,0.2,153.4,0.2c106.3,0,212.6,0,318.9,0c50.3,0,122-13,169.9,0c38.4,10.4,57.5,43.1,87.7,69.9
		c-0.6-5-518.4,2.3-567.2,2.3c-43.3,0-100.9-10.3-142.6,0c-37.3,9.3-25.9,1.7-25.9,52c0,32.1,12.4,95.5,0,124.6
		C941.6,1115.4,882.3,1171.2,875,1169.8z"/>
	<path class="st0" d="M873.9,1405.2c11.7-10.6,57.4-77.5,71-74.9c8,9,1.2,75.5,1.2,88.4c0,51.8,0,103.7,0,155.5
		c0,103.7,0.1,207.3,0.1,311c0,27.5-16,138.3,0,155.5c10.2,10.9,73,1.5,85.9,1.5c42.2,0,71.6-6.6,103.9,19.3
		c5.9,4.7,52.6,46.1,49.8,53.5c-5.2,13.9-249.7,2.8-278.6,0.8c-48.6-3.5-33.3-15-33.3-65c0-46.2-0.1-92.4-0.1-138.6
		C873.9,1742.9,873.9,1574.3,873.9,1405.2z"/>
	<path class="st0" d="M628.1,1493.1c-1.8-34,106.8-113.1,131.7-138.1c53.7-53.7,105.7-109.9,160.3-162.3
		c50.4-48.4,99.8-97.8,149.3-147.2c19.4-19.4,49.5-63.9,73.9-73.7c13.1-5.3,91.2-5.4,98.7,1.6c-10.7,30.1-64,65.7-87.5,89.2
		c-36.5,36.5-73,73-109.4,109.4c-63.7,63.7-127.2,127.2-190.9,190.9c-21.7,21.6-126.7,102.2-121.3,130.8
		c6.6,34.9,79.1,58.4,91.9,91.9c9.7,25.3,1.2,76.9,1.2,103.5c-27.4-7.6-69.6-68.2-90.1-88.6C699.9,1564.8,664,1529,628.1,1493.1z"/>
	<path class="st0" d="M2019.1,928.2c-34.5,0-88.3,9.4-119-3.4c-23.7-9.9-49.7-48.9-68-68.1c-0.3,2.3,245.3-17.2,259-2.5
		c8.5,9.2,2.7,81.9,2.7,92.1c0,57,0,114.1,0,171.1c0,107.5,0,215.1,0,322.6c0,40.4,12.4,109.2-3.8,144.7
		c-5.6,12.3-54.3,67.9-69.1,67.1c-1.3-1.9,0.1-8.1-1-9.1c-17.5-15,0-166,0-194.6c0-82.4,0-164.8-0.1-247.2c0-34.6,0-69.3,0.1-104
		C2020.1,1050.3,2038.1,970.5,2019.1,928.2z"/>
	<path class="st0" d="M1412.9,2115.9c-22.2-25.9-54.2-45-74.8-71.6c3.5-18.5,492.5-2.3,540.3-2.3c29,0,111.1,15,134.3,0
		c16-10.4,7.4-69.7,7.4-91.3c0-37.3-5.6-60.1,17.7-88.8c3.9-4.8,47.3-52.6,55.3-51.7c9.3,26.5,0.9,66,0.9,93.9
		c0,46.3,0,92.6,0,138.9c0,16.6,9.1,62.9-4.2,72.8c-15.5,11.5-99.2,0-120.1,0C1784,2115.9,1598.5,2115.9,1412.9,2115.9z"/>
	<path class="st0" d="M1575.1,2162c33.4,0.7,66.8-0.8,100.2,0.8c-8.2-0.4-51.1,53.9-62.4,65.1c-29.7,29.7-75,99.5-113.6,113.6
		c-31.7,11.6-49.9-27.3-74.1-51.5c-39.6-39.6-79.2-79.1-118.8-118.7c-79-79-158-158-237-237c-29.1-29.1-70.3-56.7-79.3-95.4
		c-5-21.8-3-62.2,1-84.8c17.5,5.2,37,35,49.7,47.7c29.9,29.9,59.8,59.8,89.8,89.8c56.5,56.5,113,113,169.5,169.5
		c53.2,53.2,106.3,106.5,159.6,159.6c23.7,23.6,16.9,26.4,38.4,18.1C1522.9,2229.2,1556.2,2180.7,1575.1,2162z"/>
	<path class="st0" d="M1973.8,1056.9c0,33.5,0,66.9,0,100.4c-16.6,1-59-55.7-69.9-66.6c-35.8-35.5-71.3-71.3-106.9-106.9
		c-71.3-71.3-142.5-142.6-213.8-213.8c-16.8-16.8-48.4-64-71.7-64.4c-26.1-0.5-74.1,86.2-98.3,98.2c-12,6-99.1,20.9-107.1,6.5
		c4.6-20.2,61.2-62.4,76.4-77.5c28.5-28.4,57.1-56.9,85.6-85.3c7.4-7.4,40.6-47.6,47.7-47.5c8.3,0.1,12.7,12.2,18.9,15.8
		c25.3,14.4,49.4,51.2,70.3,72.2C1727.9,811.1,1852.3,932.7,1973.8,1056.9z"/>
	<path class="st0" d="M1605.7,1396.4c0,33.7,0,67.5,0,101.2c0,35,12,65.2-16,76.5c-16.4,6.6-152.9,10-163.2-1.2
		c-8.6-9.3-8.6-165.7-0.4-176.1C1437.3,1382.5,1582.4,1393.5,1605.7,1396.4z"/>
</g>
</svg>
