<?xml version="1.0" encoding="utf-8"?>
<!-- Generator: Adobe Illustrator 22.0.0, SVG Export Plug-In . SVG Version: 6.00 Build 0)  -->
<svg version="1.1" id="Слой_1" xmlns="http://www.w3.org/2000/svg" xmlns:xlink="http://www.w3.org/1999/xlink" x="0px" y="0px"
	 viewBox="0 0 3000 3000" style="enable-background:new 0 0 3000 3000;" xml:space="preserve">
<style type="text/css">
	.st0{fill:#67C6BF;}
</style>
<g>
	<path class="st0" d="M1758.5,2436.8c-6.7-31.7-40.5-64.6-50.9-99.1c-11-36.5-16.6-68.9-25.4-107.3
		c-12.8-55.8-39.5-101.3-78.2-144.3c-35.9-39.9-80.4-66.9-132.4-84.1c-79.7-26.3-162.4-7.9-245.7-20
		c-149.5-21.7-285.8-134.2-350.4-282c-17.7-40.4-32.6-85.4-43.2-125.7c-9.2-35.3-13.2-70.8-29.2-104.8
		c-27.4-57.9-99.5-93.1-159.4-91.5c-62,1.7-111.1,38.6-174.7,24.1c-78.9-17.9-140.4-77.4-156.2-152.9
		c-28.3-134.8,97.8-277.1,241.4-240.1c83.3,21.5,128.1,103,205.7,132.6c83.9,32.1,117.5-23.9,168.1-78.6
		c46-49.7,89.5-87.7,142.2-126.8c64.2-47.6,131.3-44.9,174.1-124.3c18.5-34.3,24.3-68.1,20-105.7c-4.6-40.7-29.3-62-44.4-98.1
		c-35.7-85.8,4.7-190.7,76.7-239.7c51-34.7,112.9-45.1,173.4-23.5c54.2,19.3,95.6,56.1,118,103c8.3,17.4,12.2,32.5,16.1,50.2
		c1.1,5.1,8.7,29.8,6.3,65.7c-1.4,50.3-58.5,110.3-72.1,137.6c-19.3,38.6-30.6,90.7-19.6,133.9c14.2,55.9,80,72.1,125.4,96.7
		c70.1,38,127.2,96.9,159,170.5c90.4,209.2-40.7,472.7,128.2,642.8c32.6,32.9,85.7,64.6,131.1,78.6c45.9,14.2,93.9,17.1,138.2,34
		c75.8,28.9,143,84.2,184.3,158.3c94.1,168.8,54.2,380.9-100.7,498.9c-88.8,67.6-209.8,85.9-318.3,58.9
		c-42.8-10.6-81.2-28.4-117.3-53.8C1814.5,2496.3,1789.4,2459.3,1758.5,2436.8z M1163.2,1728.5c6.9,21.4,77.3,40,98.8,43.6
		c43,7.3,92,6.4,134.8-0.5c61.4-9.8,120.2-39.6,165.8-78.5c124.3-105.8,166.9-282.1,96.6-435c-58.8-127.8-194-203.9-332.1-202.4
		c-148,1.7-274,96-326.1,231.9c-33.7,87.9-33.6,194.7,8.2,280.3C1038.2,1627.7,1097.5,1710.9,1163.2,1728.5z"/>
	<path class="st0" d="M1333.2,1122.3c63.2,4.7,107.7,16.5,153.4,62c37.3,37.2,62.7,92.3,63.3,145.4c0.7,62.8-43.8,120.2-109.8,118
		c-75-2.5,5.3-72.9,2.2-119.6c-4.6-69.1-73.8-115.4-139.8-92.4c-94.4,32.9-62.4,165.6-62.4,243.6c0,53.5,0,107,0,160.6
		c0,35.9,16.6,74.4-26.1,69.8c-91.4-9.9-80.6-129.8-79.1-192c2.1-87.4-23.3-213.1,21.6-290.4c20.6-35.5,47.9-62.7,85.2-81.5
		C1268.5,1132.2,1290.3,1127.7,1333.2,1122.3z"/>
</g>
</svg>
