<?xml version="1.0" encoding="utf-8"?>
<!-- Generator: Adobe Illustrator 22.0.0, SVG Export Plug-In . SVG Version: 6.00 Build 0)  -->
<svg version="1.1" id="Слой_1" xmlns="http://www.w3.org/2000/svg" xmlns:xlink="http://www.w3.org/1999/xlink" x="0px" y="0px"
	 viewBox="0 0 3000 3000" style="enable-background:new 0 0 3000 3000;" xml:space="preserve">
<style type="text/css">
	.st0{fill:#67C6BF;}
	.st1{fill:#68C6BF;}
</style>
<g>
	<path class="st0" d="M416.2,2572c0-572.9,0-1145.8,0-1718.6c0-68.1,0-420.6,0-420.6s323.1-0.8,394.8-0.8c282.8,0,565.6,0,848.4,0
		c282.8,0,932.3,1.8,932.3,1.8s0.4,601.5,0.4,745.5c0,279.9,0,559.8,0,839.7c0,143.9,0,553.1,0,553.1s-189.2,0-264.8,0
		C1690.2,2572,1053.2,2572,416.2,2572z M590.7,2401.9c488.7,0,977.4,0,1466,0c56.1,0,112.2,0,168.2,0c28,0,56.1,0,84.1,0
		c15.1,0,119,0,119,0L2421,602c0,0-580.6,0-700.7,0c-240,0-480,0-720.1,0c-124,0-410.2,1.5-410.2,1.5s-0.1,200.4-0.1,259.6
		c0,252.6-1.8,1026.2-1.8,1160.5C588.1,2090.8,590.7,2401.9,590.7,2401.9z"/>
	<path class="st1" d="M1459.9,1095.2c0,49.8-2.7,184.1-2.7,184.1s-51.4-21.7-64.7-26.9c-49.9-19.4-106.2-39.6-160.6-35.5
		c-58.1,4.3-120,60.4-60.6,112.7c52.5,46.4,138.1,55.5,198.8,89.9c115.4,65.4,165,195.6,114.1,319.6
		c-53.4,130.1-202.8,172.6-331.8,168.8c-58.2-1.7-114.9-16-169.1-37c-36.8-14.3-70.3-17-69.4-55.3c0.7-30.9,1.2-161.3,1.2-161.3
		c58.6,30.8,357.8,151.1,340.8-9.2c-7.6-71.4-87.5-96.9-144.8-118.5c-64.8-24.3-135.7-55-177.9-112.7
		c-96.2-131.8,23.1-304.5,153.4-352C1203.3,1019.5,1353.2,1029.8,1459.9,1095.2z"/>
	<path class="st1" d="M1638.4,1199.9c136.8,0,363.6,0,429.6,95.1c94.3,135.8,23.8,316.3-125.1,367c-27.4,9.3-55.7,13.2-84.4,16
		c-13.6,1.3-40.5,2.8-73.3,2.2l0.8,226.4l-145,1.4C1640.9,1907.9,1638.4,1325.4,1638.4,1199.9z M1786.4,1554
		c55.3,0,115.9-5,147.9-35.7c38.3-36.8,42.2-105.2,16.4-151.1c-24.5-43.6-164.4-50.2-164.4-50.2S1786.4,1502.4,1786.4,1554z"/>
</g>
</svg>
