<?xml version="1.0" encoding="utf-8"?>
<!-- Generator: Adobe Illustrator 22.0.0, SVG Export Plug-In . SVG Version: 6.00 Build 0)  -->
<svg version="1.1" id="Слой_1" xmlns="http://www.w3.org/2000/svg" xmlns:xlink="http://www.w3.org/1999/xlink" x="0px" y="0px"
	 viewBox="0 0 3000 3000" style="enable-background:new 0 0 3000 3000;" xml:space="preserve">
<style type="text/css">
	.st0{fill:#68C6BF;}
</style>
<g>
	<path class="st0" d="M2617.9,687.1c0-73.3-59.9-111.4-133.2-84.7L2120.3,735v506.7l497.7-157.1V687.1z"/>
	<path class="st0" d="M1943.8,799.2l-430.1,156.5c-73.3,26.7-133.2,108.4-133.2,181.7v337.7l581.8-183.7V807.1L1943.8,799.2z"/>
	<path class="st0" d="M1380.5,2765.8c0,73.3,60,111.4,133.2,84.7l448.5-163.3V1445.6l-581.8,183.7V2765.8z"/>
	<path class="st0" d="M2484.7,2497.1c73.3-26.7,133.2-108.4,133.2-181.7V1238.6l-497.7,157.1v1234L2484.7,2497.1z"/>
	<path class="st0" d="M1318.2,858.1C1245,884.7,1185,966.5,1185,1039.8v374.4l142.2,60.3v-387.7c0-79.6,65.1-168.4,144.7-197.4
		l368.8-134.2l-110.3-47.1L1318.2,858.1z"/>
	<path class="st0" d="M2438,537.7l-47.8-23.3c-9.1-7.2-19.8-12.5-31.7-15.5l-5.9-2.9l-0.7,1.5c-18.7-3.3-40.1-1.2-62.7,7L1947.6,629
		l110.3,47.1L2438,537.7z"/>
	<path class="st0" d="M1185,1565.2v1102.9c0,35.8,14.3,63.2,37.5,78.8l-0.3,0.6l6,2.9c2.6,1.4,5.2,2.7,7.9,3.9l91,44.4V1625.5
		c-1.9-0.4-3.7-1.2-5.3-2.3L1185,1565.2z"/>
	<path class="st0" d="M1116.9,772.4c-73.3,26.7-133.2,108.4-133.2,181.7v374.7l162.3,68.8V995.2c0-78.8,64.5-166.8,143.3-195.5
		l354-128.8l-113.9-48.6L1116.9,772.4z"/>
	<path class="st0" d="M2213.9,463.2c-18-45.7-67.8-65.4-126-44.3l-341.3,124.2l113.9,48.6L2213.9,463.2z"/>
	<path class="st0" d="M983.7,2582.4c0,73.3,60,111.4,133.2,84.7l29.1-10.6V1548.6l-162.3-68.8V2582.4z"/>
	<path class="st0" d="M788.2,2484.7c0,35.8,14.3,63.2,37.5,78.8l-0.3,0.6l6,2.9c2.6,1.4,5.2,2.7,7.9,3.9l91,44.4v-1158l-142.2-60.3
		V2484.7z"/>
	<path class="st0" d="M2041.2,354.4l-47.8-23.3c-9.1-7.2-19.8-12.5-31.7-15.5l-5.9-2.9l-0.7,1.5c-18.7-3.3-40.1-1.2-62.7,7
		l-359.4,130.8l110.3,47.1L2041.2,354.4z"/>
	<path class="st0" d="M921.4,674.7c-73.3,26.7-133.2,108.4-133.2,181.7v389.5l142.2,60.3V903.4c0-79.6,65.1-168.4,144.7-197.4
		l351.1-127.8l-110.3-47.1L921.4,674.7z"/>
	<path class="st0" d="M1807.8,291.5c-18-45.7-67.8-65.4-126-44.3l-339.3,123.5l113.9,48.6L1807.8,291.5z"/>
	<path class="st0" d="M710.7,600.6c-73.3,26.7-133.2,108.4-133.2,181.7v374.2l162.3,68.8V823.5c0-78.8,64.5-166.8,143.3-195.5
		l356.1-129.6l-113.9-48.6L710.7,600.6z"/>
	<path class="st0" d="M577.5,2410.6c0,73.3,60,111.4,133.2,84.7l29.1-10.6V1376.4l-162.3-68.8V2410.6z"/>
	<path class="st0" d="M515.3,502.9C442,529.6,382.1,611.4,382.1,684.7v389l142.2,60.3V731.6c0-79.6,65.1-168.4,144.7-197.4
		l353.1-128.5l-110.3-47.1L515.3,502.9z"/>
	<path class="st0" d="M1635.1,182.6l-47.8-23.3c-9.1-7.2-19.8-12.5-31.7-15.5l-5.9-2.9l-0.7,1.5c-18.7-3.3-40.1-1.2-62.7,7
		L1129,279.6l110.3,47.1L1635.1,182.6z"/>
	<path class="st0" d="M382.1,2312.9c0,35.8,14.3,63.2,37.5,78.8l-0.3,0.6l6,2.9c2.6,1.4,5.2,2.7,7.9,3.9l91,44.4V1285l-142.2-60.3
		V2312.9z"/>
	<polygon class="st0" points="1962.2,1291.6 1962.2,1445.6 2120.3,1395.7 2120.3,1241.7 	"/>
</g>
</svg>
