<?xml version="1.0" encoding="utf-8"?>
<!-- Generator: Adobe Illustrator 22.0.0, SVG Export Plug-In . SVG Version: 6.00 Build 0)  -->
<svg version="1.1" id="Слой_1" xmlns="http://www.w3.org/2000/svg" xmlns:xlink="http://www.w3.org/1999/xlink" x="0px" y="0px"
	 viewBox="0 0 3000 3000" style="enable-background:new 0 0 3000 3000;" xml:space="preserve">
<style type="text/css">
	.st0{fill:#68C6BF;}
</style>
<g>
	<path class="st0" d="M2079.7,1098.7c0-20.2,0-40.4,0-60.7c0-3.9,0-7.7,0-11.6c0-9.6,2.1-9.2-5.8-13.2c-8.6-4.3-25.6-2.4-34.8-2.3
		c-41.8,0.7-83.7,0.4-125.6,0.4c-42.6,0-85.2-0.4-127.8,0c-20.2,0.2-40.4-0.7-60.6,0c-4.1,0.1-10.7-0.7-14.5,0.9
		c-1.9,0.2-3.9,0.4-5.8,0.6c0,4,0,8,0,12c0,11.7,0,23.5,0,35.2c0,9.8,0,19.5,0,29.3c0,11.1-2.1,10.3,6.5,12.3c8.6,2,19.4,0.8,28.2,1
		c24,0.7,48,1,72,1.2c53,0.4,106,0.2,159-0.6c23.7-0.4,47.3-0.8,71-1.8C2053.9,1101,2067.4,1101.5,2079.7,1098.7z"/>
	<path class="st0" d="M2080.8,1220.1c-0.3-13.4,0.2-26.8,0.3-40.2c0.1-10.3,3.7-33.9-1.7-43.1c-3.6-6.2-24.1-3.9-32.4-4.1
		c-30.6-0.8-61.2-1.1-91.8-1.3c-65.6-0.3-131.3,0-196.9,1.9c-11,0.3-22,0.7-33,1.3c-4.2,0.2-15.5-1-19.1,1.6
		c-3.7,2.7-1.6,17.2-1.6,22.8c0,14.3,0,28.7,0,43c0,2.3-1.9,18.9,0,20.7c1,1,5.2,0.1,6.7,0.4c5.3,1,11.4,0.5,16.8,0.7
		c64.1,2.1,128.3,1.9,192.4,1.4c34.8-0.3,69.5-0.7,104.2-1.8C2042.9,1222.8,2062.9,1224,2080.8,1220.1z"/>
	<path class="st0" d="M1759.7,1249.7c0,13.6,0,27.1,0,40.7c0,3.9,0,7.8,0,11.7c2,0,4,0,6,0c6.4,2.1,17.4,0,24.2,0
		c26.1,0,52.2,0,78.3,0c26,0,52.1,0,78.1,0c14.1,0,28.1,0,42.2,0c6,0,12.1,0,18.1,0c6.7,0,15.7,2.1,18.2-2.9c3.5-7.2,0-26.1,0-34.6
		c0-2.2,1.7-13,0-14.9c-2-2.2-20.9,0-24.3,0c-26.2,0-52.3,0-78.5,0C1867.8,1249.7,1813.7,1249.7,1759.7,1249.7z"/>
	<path class="st0" d="M609.9,1604.9c11.3,13.3,32.3,7.8,47.6,7.8c24.5,0,49,0,73.5,0.1c44.9,0,89.9,0.1,134.8,0.1
		c89.9,0,179.7,0.1,269.6,0.1c89.9,0,179.7,0,269.6,0c21.9,0,43.9-0.2,65.8,0.1c8.2,0.1,15.1-0.4,22.9-3c8.5-2.8,6.8-1.4,8.8-9.4
		c1.8-7,0-17.1,0-24.4c0-44.5,0-88.9,0-133.4c0-88.7,0-177.4,0-266.1c0-11.1,0-22.3,0-33.4c0-2.6,1.5-13.7,0-15.2
		c-1.6-1.6-15.9,0-18.4,0c-22.5,0-45,0-67.6,0c-46,0-92,0-138,0c-180.2,0-360.4,0-540.6,0c-26.4,0-52.9,0-79.3,0
		c-12.2,0-24.4,0-36.6,0c-6.6,0-9.8-1.8-12.2,3c-2.3,4.5,0,16.2,0,21.3c0,50.6,0,101.1,0,151.7
		C609.9,1404.5,609.9,1504.7,609.9,1604.9z"/>
	<path class="st0" d="M1754.1,1383.4c24,8.8,52.2,4.1,77.2,4.5c27.4,0.5,54.9-0.1,82.4-0.1c27.5,0,55,0,82.5,0c6.7,0,13.4,0,20,0
		c10.6,0,8.6-1.4,8.6-11.5c0-9.6,3.2-27.3,0-36.4c1.6-5.3-0.4-6.9-6.1-4.9c-2,0-4,0-6.1,0c-8.1,0-16.1,0-24.2,0
		c-14.1,0-28.2,0-42.2,0c-28,0-56.1,0-84.1,0c-28,0-56,0-84,0c-5.4,0-13-1.5-18,0c-5.5-2-7.6-0.5-6,4.6c0,2.3,0,4.5,0,6.8
		C1754.1,1358.8,1754.1,1371.1,1754.1,1383.4z"/>
	<path class="st0" d="M2044.2,961.8c4,0,10.5-1.8,13.7-4.2c5.2-4,4.4-4.8,4.4-12.1c0-5,0-10,0-14.9c0-8.4,1.2-10.8-7.3-13.4
		c-22.5-7-50.9-2.7-74.3-2.8c-50.5-0.1-101-0.1-151.5,0c-25.3,0-50.5,0.1-75.8,0.2c-9,0-25.5-0.8-29,8.4c-2.6,6.8-1.6,26.8,0,34
		c1.2,5.5-1.7,2.7,3.1,5.1c1.8,0.9,7.1,0,9.2,0c6.1,0,12.2,0,18.3,0c13.2,0,26.3,0,39.5,0c25.2,0,50.4,0,75.6,0
		C1928,962.1,1986.1,962,2044.2,961.8z"/>
	<path class="st0" d="M2123.6,1137.8c1.1-23.6-1.4-47.2-1-70.8c0.4-25.9,1.1-51.8,1.3-77.7c0.1-25,0-49.9-0.2-74.9
		c-0.2-21.9,3.5-48.4-2.6-69.7c-11.6-40.5-69.4-28.3-100.7-28.3c-51.7,0-103.3,0-155,0c-51.7,0-103.3,0.2-155,0.2
		c-15.9,0-32.8,1.2-42.3,16c-9.6,14.9-6.7,36-6.7,52.8c-0.1,85,0,169.9,0,254.9c0,192.8-2.7,386,21.4,577.6
		c3.2,25.4,6.3,50.7,9.3,76.1c1.7,14.1,5.1,29,16,38.9c12.2,11,29,11.7,44.6,11.8c25,0.2,49.9,0.1,74.9,0.1
		c50.7,0,101.5-0.1,152.2,0c23.4,0.1,47.8,1.8,71.1-0.6c16.4-1.7,27.4-9.5,34-24.5c9.8-22.1,10.4-47.7,13.1-71.4
		c3-26.4,5.7-52.7,8.2-79.2c4.9-50.8,10.1-101.5,11.4-152.6c2.5-102,6.2-203.8,5.8-305.7C2123.2,1186.5,2122.5,1162.1,2123.6,1137.8
		z M1681.5,1037.1c1.3-32.8,1.5-65.6,1.9-98.4c0.2-15.6,0.5-31.3,0.9-46.9c0.4-13.4-3-37.8,3.5-49.2c7.8-13.7,17.9-14.1,32-14.1
		c17.4,0,34.8,0,52.2,0c34.8,0,69.7,0,104.5-0.1c34.8-0.1,69.7-0.1,104.5-0.3c14.5-0.1,29,0.1,43.4-1.6c12.6-1.4,24.8-5.5,37.6-4.5
		c10.4,0.8,20,4.6,27.7,11.8c12.8,11.9,9.7,26.1,9.7,42.4c0,34.1,0,68.2,0,102.3c0,135.3,0,270.6,0,405.9c0,8.5,1.2,15.3-3.2,22.3
		c-2.9,4.5-7.3,8.2-11.2,11.9c-10.8,10.1-27.4,6.3-41.8,6.4c-33.4,0-66.8,0-100.3,0c-67.9,0-135.7,0-203.6,0.3
		c-13.7,0-29.7,1.5-42-5.8c-14.9-8.9-11.9-24.7-12.8-40c-2-37.3-3.5-74.7-4.4-112.1C1678.1,1190.5,1678.5,1113.7,1681.5,1037.1z
		 M2104.7,1517.1c-8,69.4-11.5,139.4-23.2,208.4c-2.7,15.8-5.9,31.6-9.6,47.2c-1.8,7.3-3.7,14.5-5.7,21.7
		c-2.8,9.8-8.7,13.4-17.6,17.9c-26.5,13.1-60.2,7.8-88.7,7.7c-35-0.1-70-0.1-105-0.1c-18,0-36,0.1-54,0.2c-16.5,0.1-34.1,2-50.3-1.9
		c-35.3-8.5-35.2-37.6-40-68.1c-5.4-34.1-12.4-68.1-16.9-102.3c-10.3-77.4-11.6-155.4-20.7-232.9c20.3,30.2,54.4,27.8,86.8,27.8
		c11.1,0,20.2-2.8,30.8-5.2c8.2-1.9,15.5,0.8,23.7,2.3c22.3,3.9,45.1,3.5,67.6,2.9c43.3-1.2,86.7-0.7,130-0.4
		c35,0.2,69.7,4.7,93.6-26.3C2105.3,1449.6,2108.6,1483.5,2104.7,1517.1z"/>
	<path class="st0" d="M1871.6,1572.2c-16.3,14.2-32.2,27.9-24.8,51c1.8,5.5,4.3,10.8,6.8,16.1c4.4,9.2,9,10.6,18.2,14.3
		c4.3,1.7,8.6,3.5,12.9,5.2c6.5,2.6,7.3,2.6,13.2,0.8c6.8-2.1,14.4-8.1,20-12.5c17.8-13.9,23.5-32.9,13.7-53.7
		C1920.5,1569.5,1894.8,1567.5,1871.6,1572.2z"/>
	<path class="st0" d="M2920.3,1268.8c0-50.3-26.8-98.4-69.5-124.9c-21-13.1-42.6-20-67.3-18.3c-16.6,1.1-34.8,5.5-48-6.8
		c-27.9-26-37.1-67.8-63-95.9c-34-36.8-84.8-60.4-133.8-67.7c44-68.4,0.3-164.9-80.2-176.7c23.8-75.1-17.8-159.3-91-187.6
		c-43.2-16.7-93-11.5-132.4,12.6c-19.6,12-34,27.8-45.3,47.7c-10.1,17.7-18.1,37.2-32,52.5c-14.2,15.6-33.5,19.7-53.9,20.2
		c-21.3,0.5-43.2,0.4-64.4-0.5c-39-1.7-58-36.6-83.5-61.3c-32.5-31.6-73.6-36.4-116.3-25c-10.1,2.7-20.1,5.2-29.7,9.5
		c-8.2,3.7-15,5.9-24,2.6c-16.4-6.1-29.9-23-45.5-31.5c-83.5-45.1-186.5-47.9-272.4-7.9c-30.9,14.4-52.1,41.9-80.9,59.6
		c-27.3,16.9-60.9,16.3-63.9-22.3c-1.3-16.8,2.4-33.6,3.1-50.3c0.6-14.6-2.7-28.9-7-42.8c-7.7-24.7-20.7-47.8-39.3-65.9
		c-33.6-32.6-81.5-44.9-127.3-40.7c-96.1,8.9-181.6,89.4-159.5,190.8c3.1,14.3,8,28.2,14.2,41.4c-26.3,1.5-51.3,10.2-76.7,16.1
		c-15.6,3.7-29.5,7.6-45.1,2.3c-21.1-7.2-40.4-15.8-63-17.9c-22.1-2.1-44.6,0.2-65.8,6.8c-20.4,6.3-40.8,16.3-55.9,31.7
		c-13.3,13.6-22.9,30.2-35.4,44.5c-11.4,13-24.7,22.8-42.6,22.9c-18.9,0-37.4-5.6-56.1-7.5c-44.1-4.4-93.3,13.5-130.7,35.8
		c-35.7,21.2-66.3,50.9-88.8,85.8c-10.9,16.9-19.9,34.9-26.7,53.8c-7.3,20.1-10.6,41.2-17.4,61.5c-13.1,39.5-35.9,74.6-66.9,102.4
		c-15.9,14.2-33.1,26.6-52.3,35.9c-17.1,8.3-35.1,14.7-51.5,24.4c-35.8,21.1-59.6,62.8-46.2,104.2c6.2,19.2,17.2,36.4,24.4,55.1
		c9.7,25,5.6,49.5-1.3,74.7c-13.7,49.5-30,99.3-29.8,151.3c0.4,90.3,54.9,156.9,124.6,208c36.4,26.7,74.7,50.2,109.1,79.8
		c35.8,30.7,68.5,65,97.5,102.1c126.7,162.1,175.2,375.8,129.9,576.7c-6.7,29.8-25.9,56.9-29,87.6c-1,10.1,5.7,31,15,15.4
		c12.7-21.4,26.5-41.7,41.1-62.1c29.4-40.9,57.6-86.6,94.4-121.3c16.5-15.5,34.8-29.2,54.6-40.1c21.2-11.7,41.5-25.1,62.8-36.7
		c92-50,191.5-62.3,294.6-52.2c54.5,5.3,108.7,12.7,163.6,12.4c53.2-0.3,106.4-5.9,158.2-18.4c101.8-24.7,187.2-84.7,281.5-127.6
		c97.8-44.5,202.2-72.6,309-84.3c105.4-11.6,213.4-4.5,313.9-44.1c82.6-32.6,156.2-87.8,210.6-157.9c6.9-8.8,13.4-17.9,19.7-27.2
		c2.9-4.4,4.7-8.4,9.2-10.4c5.4-2.4,14.6-1.8,20.6-2.5c24-2.8,48.1-5.9,70.9-14.3c42.7-15.7,80.7-46.9,108.8-82.2
		c54.3-68.3,72.2-160.2,49.9-244.3c-10.6-40-30.1-77.6-57.2-109C2824.5,1436.2,2920.3,1363.9,2920.3,1268.8z M1320.5,1822.1
		c-35.8,21.4-84.3,21.7-125.2,24.1c-44.1,2.5-88.2,3.9-132.3,4.6c-44.6,0.7-89.3,0.5-133.9-2.3c-39.9-2.5-85.7-4.1-123.8-17.4
		c-7-2.4-19.9-11.5-20.7-19.6c-0.5-5.4,8.9-15.2,13-17.9c7.4-4.9,17.5-5.4,25.9-7.6c17.9-4.8,35.5-7.2,54-8.9
		c11.5-1.1,23-2,34.5-2.9c6.3-0.5,30.6-6.1,34.3-2.8c2.2,1.9,3.9,15,5.2,18.3c2,4.9,4.6,9.7,8.3,13.5c8.4,8.6,20,10.4,31.5,11
		c20.5,1.1,41.2,0.2,61.7,0.2c22.6-0.1,45.8,1.5,68.4,0.1c8.7-0.6,17.1-2.6,24.7-6.9c9.2-5.2,9.8-12.8,12.7-22.4
		c0.7-2.4,2.4-13,4.3-14.3c2.8-2,19,1.9,22.8,2.3c11.2,1.1,22.5,2,33.7,3.1c22.2,2.1,44.3,4.7,66.1,9.2c6.7,1.4,27.6,2.9,32.4,8.4
		C1322.4,1798.5,1320.5,1816,1320.5,1822.1z M980.2,1783.9c9.2-17.6,17-39.3,28.8-55.2c4.8-6.5,7.8-4.6,16.5-4.6
		c21.2,0,42.3,0,63.5,0c11.4,0,10,2.4,16,13.8c5,9.7,10,19.3,15,29c0.8,1.6,8.4,13.7,7.9,15.3c-0.7,2.5-9,5.1-10.9,5.7
		c-20.8,6.3-48.1,1.6-69.7,1.6C1024,1789.6,1003,1789.1,980.2,1783.9z M1564,1672.9c-8.7,8.2-14.1,17.6-25.4,18.9
		c-6.6,0.8-13.8,0-20.4,0c-26.6,0-53.2,0-79.8,0c-88.8,0-177.6,0-266.4,0c-102.7,0-205.4,0-308.1,0c-78.5,0-156.9,0-235.4,0
		c-17.1,0-35.8,2.1-52.8,0c-10.7-1.3-18.3-9.5-24.1-18.9c-10-16-9.4-34.9-9.3-53.1c0.1-26.7,0.2-53.3,0.3-80
		c0.3-104.6,0.2-209.3,0-313.9c0-26.7-0.1-53.3-0.2-80c0-21.2-2-44.3,9.2-63.3c11.7-20.1,35.2-17,55.3-17c25.6,0,51.2,0,76.7,0
		c208.6,0.1,417.2,0,625.8,0c50.3,0,100.6,0,150.8,0c25.2,0,50.5,0,75.7,0c7.8,0,9.7,0.6,15,6.3c3.1,3.4,7.4,6.8,9.8,10.7
		c1,1.6,2.6,2.4,3.2,4.1c1.7,4.9,0,13.4,0,18.5c0,13.5,0,27,0,40.5c0,94.3,0,188.5,0,282.8c0,77.2,0,154.5,0,231.7
		C1564,1664.5,1564,1668.7,1564,1672.9z M2160,1870.5c0,15-1.2,24.5-14.7,33.3c-8.8,5.7-19.3,7.3-29.6,7.7c-5.4,0.2-10.9,0-16.3-0.2
		c-8.4-0.2-8.8,1.5-15.1,6.6c-8.8,7.3-19.6,10.5-30.9,11.5c-11.3,1-22.6-0.3-33.9-0.3c-5.4,0-10.3,0.9-14.8-1.4
		c-6.6-3.3-11.5-13.8-18.5-16.1c-4.2-1.3-10.9,0-15.3,0c-54.5,0-109,0-163.5,0c-13.4,0-16.2,12.8-28.1,17.3c-8.3,3.1-23.7,0-32.5,0
		c-6.5,0-13.4,0.7-19.9,0c-8-0.8-9.5-2.5-16.4-8.4c-5.8-5-8.5-8.1-15.8-9.2c-4.1-0.6-8.6,0-12.8,0c-10.3,0.1-20.8,0.5-30.7-2.7
		c-9.1-2.9-18.6-9-23.5-17.5c-6.7-11.5-2.7-33.6-2.7-46.9c0-32.7,0-65.4,0-98.1c0-65.5,0.1-130.9,0.1-196.4
		c0.1-129.9,0.1-259.8-0.1-389.7c-0.1-65.5-0.2-130.9-0.4-196.4c-0.1-32.2-1.1-64.5-0.3-96.7c0.6-21.6,5.2-43.2,19.1-60.3
		c6.4-7.8,15.2-16.9,25-19.5c15.8-4.2,35-3.1,51.3-4.1c32.2-1.9,64.5-2.6,96.7-2.9c64.5-0.4,129,0.5,193.5,0.2
		c27.9-0.1,58.7-3.6,86.3,0.7c22.4,3.5,40.1,16.8,53.3,34.9c5.3,7.2,4.6,10,4.6,19.5c0,7.8,0,15.6,0,23.4c0,15.7,0,31.4,0,47.1
		c0,31.9,0,63.8-0.4,95.7c-0.8,64.2-2.1,128.3,0.2,192.5c2.4,64.6,5.3,128.9,5.4,193.6c0.1,128.5,1.2,256.9,0.8,385.4
		C2160.2,1805.6,2160,1838,2160,1870.5z"/>
</g>
</svg>
